<?xml version="1.0" encoding="utf-8"?>
<!-- Generator: Adobe Illustrator 17.0.0, SVG Export Plug-In . SVG Version: 6.00 Build 0)  -->
<!DOCTYPE svg PUBLIC "-//W3C//DTD SVG 1.1//EN" "http://www.w3.org/Graphics/SVG/1.1/DTD/svg11.dtd">
<svg version="1.1" id="Layer_1" xmlns="http://www.w3.org/2000/svg" xmlns:xlink="http://www.w3.org/1999/xlink" x="0px" y="0px"
	 width="1800px" height="600px" viewBox="0 0 1800 600" enable-background="new 0 0 1800 600" xml:space="preserve">
<rect y="567" fill="#FFFFFF" width="1800" height="63"/>
<circle fill="#FFFFFF" cx="45.133" cy="567" r="45.076"/>
<circle fill="#FFFFFF" cx="1773.133" cy="567" r="27.251"/>
<circle fill="#FFFFFF" cx="113.071" cy="582.137" r="29.939"/>
<circle fill="#FFFFFF" cx="174.627" cy="580.5" r="39"/>
<circle fill="#FFFFFF" cx="239.127" cy="579" r="31.5"/>
<circle fill="#FFFFFF" cx="292.377" cy="572.75" r="36.75"/>
<circle fill="#FFFFFF" cx="361.848" cy="571.848" r="51.847"/>
<circle fill="#FFFFFF" cx="436.195" cy="573" r="34.5"/>
<circle fill="#FFFFFF" cx="502.983" cy="578.788" r="41.288"/>
<circle fill="#FFFFFF" cx="576.107" cy="572.498" r="52.497"/>
<circle fill="#FFFFFF" cx="639.104" cy="577.498" r="35.998"/>
<circle fill="#FFFFFF" cx="691.6" cy="573.577" r="28.499"/>
<circle fill="#FFFFFF" cx="753.02" cy="583.002" r="44.92"/>
<circle fill="#FFFFFF" cx="822.844" cy="579.748" r="38.248"/>
<circle fill="#FFFFFF" cx="886.553" cy="562.54" r="35.96"/>
<circle fill="#FFFFFF" cx="933.05" cy="576.04" r="22.46"/>
<circle fill="#FFFFFF" cx="969.048" cy="576.04" r="22.46"/>
<circle fill="#FFFFFF" cx="1016.335" cy="573.748" r="35.248"/>
<circle fill="#FFFFFF" cx="1065.832" cy="591.789" r="29.249"/>
<circle fill="#FFFFFF" cx="1113.332" cy="573.25" r="39.25"/>
<circle fill="#FFFFFF" cx="1172.327" cy="584.248" r="42.748"/>
<circle fill="#FFFFFF" cx="1245.072" cy="567.079" r="59.997"/>
<circle fill="#FFFFFF" cx="1312.065" cy="583.995" r="42.495"/>
<circle fill="#FFFFFF" cx="1380.816" cy="567.672" r="33.748"/>
<circle fill="#FFFFFF" cx="1434.066" cy="559.501" r="31.501"/>
<circle fill="#FFFFFF" cx="1468.563" cy="588.076" r="34.497"/>
<circle fill="#FFFFFF" cx="1519.559" cy="569.999" r="28.499"/>
<circle fill="#FFFFFF" cx="1566.517" cy="584.039" r="25.459"/>
<circle fill="#FFFFFF" cx="1618.785" cy="584.347" r="38.268"/>
<circle fill="#FFFFFF" cx="1675.189" cy="569.859" r="34.136"/>
<circle fill="#FFFFFF" cx="1726.698" cy="576.145" r="23.947"/>
</svg>
