<?xml version="1.0" encoding="utf-8"?>
<!-- Generator: Adobe Illustrator 17.0.0, SVG Export Plug-In . SVG Version: 6.00 Build 0)  -->
<!DOCTYPE svg PUBLIC "-//W3C//DTD SVG 1.1//EN" "http://www.w3.org/Graphics/SVG/1.1/DTD/svg11.dtd">
<svg version="1.1" id="Layer_1" xmlns="http://www.w3.org/2000/svg" xmlns:xlink="http://www.w3.org/1999/xlink" x="0px" y="0px"
	 width="98px" height="54px" viewBox="0 0 98 54" enable-background="new 0 0 98 54" xml:space="preserve">
<g>
	<path fill="#FFFFFF" d="M25.53,29.225c-3.072,1.057-6.289,2.017-9.697,2.881V44.25c0,2.208-1.2,3.36-3.601,3.36H7l-0.336-1.584
		c1.728,0.096,3.408,0.144,5.041,0.144c1.632,0,2.496-0.815,2.496-2.352V32.489c-3.36,0.768-6.865,1.488-10.513,2.064l-0.24-1.585
		c3.792-0.624,7.393-1.344,10.753-2.111V20.056H3.592v-1.584h10.609V9.783c-2.784,0.576-5.761,1.104-8.881,1.488L4.984,9.688
		c7.057-0.816,13.249-2.257,18.53-4.272l0.576,1.584c-2.544,0.912-5.28,1.728-8.256,2.4v9.072h13.537
		c-0.288-4.128-0.432-8.688-0.432-13.681h1.632c0,5.136,0.144,9.696,0.432,13.681h15.41v1.584H31.146
		c0.336,3.889,0.816,7.201,1.488,9.938c0.384,1.728,0.864,3.312,1.344,4.752c2.784-3.12,5.232-6.769,7.249-10.993l1.44,0.769
		c-2.208,4.656-4.896,8.641-8.064,11.953c0.816,2.112,1.728,3.984,2.736,5.521c1.776,2.496,3.264,3.792,4.416,3.792
		c1.44-0.048,2.592-3.072,3.552-9.121l1.44,0.769c-1.104,6.721-2.688,10.081-4.705,10.081c-1.824,0-3.744-1.488-5.856-4.368
		c-1.056-1.585-2.016-3.409-2.832-5.425c-3.696,3.552-7.969,6.288-12.769,8.209l-0.912-1.44c4.992-1.92,9.36-4.704,13.057-8.449
		c-0.672-1.824-1.249-3.744-1.729-5.856c-0.672-2.928-1.152-6.288-1.488-10.129H15.833v10.417c3.456-0.864,6.72-1.872,9.697-2.928
		V29.225z M44.732,12.999l-1.152,1.152c-2.256-2.4-5.232-4.944-8.881-7.633l1.152-1.056C39.403,7.959,42.332,10.455,44.732,12.999z"
		/>
	<path fill="#FFFFFF" d="M51.688,27.064l-0.528-1.728c4.705-6.145,8.065-12.962,10.081-20.498l1.44,0.624
		c-0.96,3.36-2.112,6.48-3.456,9.36v33.219h-1.585V18.04C55.913,21.304,53.896,24.328,51.688,27.064z M76.891,23.464H66.762v24.578
		h-1.584V6.663h11.713V23.464z M75.307,8.151h-8.545v6.048h8.545V8.151z M66.762,21.928h8.545v-6.24h-8.545V21.928z M80.635,23.464
		V6.663h12.049v38.02c0,1.968-0.96,2.976-2.88,2.976c-2.16,0-4.272-0.048-6.337-0.048l-0.432-1.536
		c2.208,0.048,4.225,0.096,6.145,0.096c1.296,0,1.968-0.72,1.968-2.063V23.464H80.635z M91.147,8.151h-8.881v6.048h8.881V8.151z
		 M82.267,21.977h8.881v-6.289h-8.881V21.977z"/>
</g>
</svg>
