<?xml version="1.0" encoding="utf-8"?>
<!-- Generator: Adobe Illustrator 17.0.0, SVG Export Plug-In . SVG Version: 6.00 Build 0)  -->
<!DOCTYPE svg PUBLIC "-//W3C//DTD SVG 1.1//EN" "http://www.w3.org/Graphics/SVG/1.1/DTD/svg11.dtd">
<svg version="1.1" id="Layer_1" xmlns="http://www.w3.org/2000/svg" xmlns:xlink="http://www.w3.org/1999/xlink" x="0px" y="0px"
	 width="98px" height="54px" viewBox="0 0 98 54" enable-background="new 0 0 98 54" xml:space="preserve">
<g>
	<path fill="#FFFFFF" d="M22.41,17.896H7.48v30.291H5.849V6.855H22.41V17.896z M20.874,8.199H7.48v3.6h13.393V8.199z M7.48,16.552
		h13.393v-3.408H7.48V16.552z M24.522,33.161l-1.248,0.288c-0.192-0.72-0.384-1.393-0.576-2.017
		c-3.792,0.528-7.296,0.961-10.465,1.297l-0.288-1.248c1.824-0.673,4.176-2.497,7.009-5.425c-2.544,0.192-4.849,0.336-6.96,0.48
		l-0.24-1.248c1.536-0.672,3.792-3.024,6.721-7.057l1.296,0.528c-2.4,3.264-4.368,5.424-5.856,6.433
		c1.728-0.096,3.84-0.24,6.241-0.384c0.816-0.912,1.632-1.872,2.496-2.88l1.296,0.48c-3.936,4.56-7.008,7.488-9.312,8.833
		c2.112-0.24,4.704-0.576,7.681-0.96c-0.336-0.96-0.672-1.872-1.008-2.736l1.2-0.384C23.274,28.889,23.946,30.905,24.522,33.161z
		 M15.305,34.649v4.849h6.145c0.048-0.433,0.096-0.816,0.096-1.2v-4.129h1.44v4.129c0,2.544-0.768,4.561-2.256,6.097
		c-1.44,1.439-3.84,2.544-7.104,3.36l-0.864-1.249c3.168-0.72,5.472-1.728,6.913-3.023c0.672-0.769,1.2-1.681,1.488-2.641h-7.296
		v-6.192H15.305z M38.827,33.354l-1.248,0.336c-0.24-0.816-0.48-1.584-0.672-2.257c-3.84,0.433-7.345,0.816-10.609,1.104
		l-0.288-1.248c1.824-0.672,4.224-2.496,7.152-5.472c-2.592,0.192-4.944,0.384-7.104,0.528l-0.24-1.2
		c1.488-0.72,3.648-3.024,6.48-6.913l1.296,0.528c-2.352,3.168-4.224,5.28-5.665,6.24c1.776-0.096,3.889-0.24,6.385-0.384l2.4-2.688
		l1.296,0.48c-3.937,4.464-7.009,7.344-9.313,8.688l7.777-0.864c-0.384-0.96-0.72-1.823-1.104-2.688l1.2-0.384
		C37.435,28.984,38.155,31.049,38.827,33.354z M27.354,17.896V6.855h16.657v38.259c0,1.92-1.056,2.928-3.12,2.928
		c-1.872,0-3.696-0.048-5.425-0.048l-0.384-1.488c1.824,0.049,3.6,0.097,5.232,0.097c1.392,0,2.112-0.672,2.112-1.969V17.896H27.354
		z M29.034,34.169v5.329h6.193v-4.753h1.44v6.097h-7.633v7.009h-1.488V34.169H29.034z M42.428,8.247H28.891v3.552h13.537V8.247z
		 M28.891,16.552h13.537v-3.408H28.891V16.552z"/>
	<path fill="#FFFFFF" d="M70.986,12.328v1.584H58.601v8.305h9.217c0,11.521-0.239,18.625-0.672,21.362
		c-0.384,2.688-2.256,4.08-5.568,4.08c-0.384,0-1.104-0.048-2.112-0.096l-0.432-1.488c0.96,0.048,1.776,0.096,2.496,0.096
		c2.353,0,3.696-0.96,4.08-2.832c0.336-2.4,0.528-8.881,0.624-19.537h-7.633c-0.191,11.04-2.16,19.105-5.904,24.241l-1.2-1.008
		c3.601-4.992,5.425-12.913,5.521-23.81v-9.313h-4.992v-1.584H70.986z M62.97,10.744l-1.44,0.528
		c-0.816-2.112-1.776-4.128-2.929-6.097l1.633-0.48C61.434,6.903,62.346,8.919,62.97,10.744z M82.651,5.175
		c2.399,6.865,6.432,12.913,12.192,18.146l-0.912,1.392c-5.376-4.801-9.408-10.753-12.001-17.858
		c-2.928,7.873-6.624,13.921-11.089,18.242l-0.912-1.392c4.896-4.752,8.641-10.945,11.233-18.53H82.651z M92.06,47.034l-1.056,1.248
		c-4.705-3.984-10.657-7.681-17.906-11.137l0.961-1.2C81.066,39.306,87.067,43.002,92.06,47.034z M88.411,32.489l-1.008,1.2
		c-2.592-3.36-5.904-6.48-9.937-9.361l0.96-1.152C82.267,25.961,85.627,29.081,88.411,32.489z"/>
</g>
</svg>
