<?xml version="1.0" encoding="utf-8"?>
<!-- Generator: Adobe Illustrator 17.0.0, SVG Export Plug-In . SVG Version: 6.00 Build 0)  -->
<!DOCTYPE svg PUBLIC "-//W3C//DTD SVG 1.1//EN" "http://www.w3.org/Graphics/SVG/1.1/DTD/svg11.dtd">
<svg version="1.1" id="Layer_1" xmlns="http://www.w3.org/2000/svg" xmlns:xlink="http://www.w3.org/1999/xlink" x="0px" y="0px"
	 width="410px" height="128px" viewBox="0 0 410 128" enable-background="new 0 0 410 128" xml:space="preserve">
<g>
	<g>
		<g>
			<path fill="#FFFFFF" d="M64.441,120.443c-31.43,0-57-25.57-57-57c0-31.431,25.57-57.001,57-57.001
				c31.431,0,57.001,25.57,57.001,57.001C121.442,94.873,95.872,120.443,64.441,120.443z"/>
		</g>
		<g>
			<path d="M64.441,12.442c28.122,0,51.001,22.879,51.001,51.001s-22.879,51.001-51.001,51.001S13.44,91.565,13.44,63.443
				S36.319,12.442,64.441,12.442 M64.441,0.443c-34.794,0-63,28.206-63,63s28.206,63,63,63s63-28.206,63-63
				S99.235,0.443,64.441,0.443L64.441,0.443z"/>
		</g>
	</g>
	<g>
		<path d="M58.737,77.567c-2.592,3.24-7.128,5.904-12.816,5.904s-10.44-2.736-13.032-5.904c-2.808-3.528-4.104-8.208-4.104-13.68
			c0-5.472,1.296-10.152,4.104-13.68c2.592-3.168,7.344-5.904,13.032-5.904s10.224,2.664,12.816,5.904
			c1.728,2.232,2.736,5.184,2.88,8.136h-8.856c-0.072-1.368-0.504-2.52-1.08-3.456c-1.08-1.656-3.024-2.808-5.76-2.808
			c-2.448,0-4.248,1.008-5.472,2.304c-2.16,2.376-2.52,5.976-2.52,9.504s0.36,7.056,2.52,9.432c1.224,1.296,3.024,2.376,5.472,2.376
			c2.736,0,4.68-1.152,5.76-2.808c0.576-0.935,1.008-2.088,1.08-3.456h8.856C61.473,72.383,60.465,75.335,58.737,77.567z"/>
		<path d="M95.871,77.567c-2.592,3.24-7.128,5.904-12.816,5.904c-5.688,0-10.44-2.736-13.032-5.904
			c-2.808-3.528-4.104-8.208-4.104-13.68c0-5.472,1.296-10.152,4.104-13.68c2.592-3.168,7.344-5.904,13.032-5.904
			c5.688,0,10.224,2.664,12.816,5.904c1.728,2.232,2.736,5.184,2.88,8.136h-8.856c-0.072-1.368-0.504-2.52-1.08-3.456
			c-1.08-1.656-3.024-2.808-5.76-2.808c-2.448,0-4.248,1.008-5.472,2.304c-2.16,2.376-2.52,5.976-2.52,9.504s0.36,7.056,2.52,9.432
			c1.224,1.296,3.024,2.376,5.472,2.376c2.736,0,4.68-1.152,5.76-2.808c0.576-0.935,1.008-2.088,1.08-3.456h8.856
			C98.607,72.383,97.599,75.335,95.871,77.567z"/>
	</g>
</g>
<g>
	<g>
		<path fill="#FFFFFF" d="M186.004,80.381c-19.558,0-35.469-15.911-35.469-35.469c0-19.558,15.911-35.469,35.469-35.469
			s35.469,15.911,35.469,35.469C221.473,64.469,205.562,80.381,186.004,80.381z"/>
	</g>
	<g>
		<path d="M186.004,13.442c17.352,0,31.47,14.117,31.47,31.47s-14.117,31.47-31.47,31.47s-31.47-14.117-31.47-31.47
			S168.652,13.442,186.004,13.442 M186.004,5.443c-21.798,0-39.469,17.671-39.469,39.469c0,21.798,17.671,39.469,39.469,39.469
			c21.798,0,39.469-17.671,39.469-39.469C225.473,23.114,207.802,5.443,186.004,5.443L186.004,5.443z"/>
	</g>
</g>
<g>
	<circle cx="186.014" cy="25.844" r="5.012"/>
</g>
<g>
	<polygon points="195.846,33.242 195.846,50.497 191.68,50.497 191.68,68.207 180.349,68.207 180.349,50.498 176.182,50.498 
		176.182,33.242 	"/>
</g>
<g>
	<g>
		<path fill="#FFFFFF" d="M369.057,80.381c-19.558,0-35.47-15.911-35.47-35.469c0-19.558,15.912-35.469,35.47-35.469
			s35.469,15.911,35.469,35.469C404.526,64.469,388.615,80.381,369.057,80.381z"/>
	</g>
	<g>
		<path d="M369.057,13.442c17.352,0,31.47,14.117,31.47,31.47s-14.117,31.47-31.47,31.47c-17.352,0-31.47-14.117-31.47-31.47
			S351.704,13.442,369.057,13.442 M369.057,5.443c-21.798,0-39.469,17.671-39.469,39.469c0,21.798,17.671,39.469,39.469,39.469
			c21.798,0,39.469-17.671,39.469-39.469C408.526,23.114,390.855,5.443,369.057,5.443L369.057,5.443z"/>
	</g>
</g>
<g>
	<polygon points="361.517,42 354.626,53.935 347.735,42 	"/>
</g>
<g>
	<path d="M369.3,27.368c-9.689,0-17.3,7.855-17.3,17.544c0,0.013,0,0.088,0,0.088h4.527c0,0-0.002-0.05-0.002-0.063
		c0-6.91,5.622-12.544,12.532-12.544c6.91,0,12.532,5.616,12.532,12.526c0,6.91-5.622,12.529-12.532,12.529
		c-3.461,0-6.598-1.412-8.868-3.688l-3.548,3.547c3.176,3.181,7.566,5.149,12.416,5.149c9.689,0,17.665-7.855,17.665-17.544
		C386.722,35.223,378.989,27.368,369.3,27.368z"/>
</g>
<g>
	<g>
		<path fill="#FFFFFF" d="M277.53,78.381c-18.455,0-33.469-15.014-33.469-33.469s15.014-33.469,33.469-33.469
			s33.469,15.014,33.469,33.469S295.985,78.381,277.53,78.381z"/>
	</g>
	<g>
		<path d="M277.53,17.442c15.147,0,27.47,12.323,27.47,27.47s-12.323,27.47-27.47,27.47s-27.47-12.323-27.47-27.47
			S262.383,17.442,277.53,17.442 M277.53,5.443c-21.798,0-39.469,17.671-39.469,39.469c0,21.798,17.671,39.469,39.469,39.469
			s39.469-17.671,39.469-39.469C316.999,23.114,299.328,5.443,277.53,5.443L277.53,5.443z"/>
	</g>
</g>
<g>
	<g>
		<path fill="#FFFFFF" d="M277.53,80.381c-19.558,0-35.469-15.911-35.469-35.469c0-19.558,15.911-35.469,35.469-35.469
			s35.469,15.911,35.469,35.469C312.999,64.469,297.088,80.381,277.53,80.381z"/>
	</g>
	<g>
		<path d="M277.53,13.442c17.352,0,31.47,14.117,31.47,31.47s-14.117,31.47-31.47,31.47s-31.47-14.117-31.47-31.47
			S260.178,13.442,277.53,13.442 M277.53,5.443c-21.798,0-39.469,17.671-39.469,39.469c0,21.798,17.671,39.469,39.469,39.469
			s39.469-17.671,39.469-39.469C316.999,23.114,299.328,5.443,277.53,5.443L277.53,5.443z"/>
	</g>
</g>
<g>
	<path d="M286.835,59.592c-1.968,2.016-4.704,3.168-7.824,3.504v4.368h-3.505v-4.32c-3.023-0.24-5.808-1.248-8.159-3.408
		c-1.92-1.728-3.36-4.368-3.408-7.392h5.904c0.048,1.632,0.768,3.072,1.776,4.032c1.103,1.056,2.448,1.536,3.887,1.68v-9.504
		c-0.768-0.096-1.584-0.192-2.351-0.336c-5.184-0.816-8.352-4.128-8.352-9.024c0-2.544,1.199-4.656,2.927-6.336
		c1.872-1.872,4.56-3.168,7.776-3.456v-4.464h3.505v4.56c2.688,0.336,5.087,1.344,6.864,2.976c1.92,1.776,3.217,4.224,3.312,6.864
		h-5.904c-0.048-1.152-0.721-2.448-1.488-3.264c-0.672-0.72-1.681-1.2-2.784-1.488v8.784l1.632,0.24
		c4.896,0.768,8.928,3.84,8.928,9.264C289.571,55.896,288.419,57.96,286.835,59.592z M275.507,34.44
		c-1.296,0.192-2.592,0.672-3.551,1.584c-0.768,0.72-1.296,1.776-1.296,3.024c0,2.208,1.392,3.264,3.408,3.6
		c0.479,0.096,0.96,0.192,1.439,0.24V34.44z M279.827,49.223l-0.815-0.144v8.928c1.391-0.24,2.544-0.72,3.408-1.584
		c0.768-0.768,1.344-1.728,1.344-3.312C283.763,50.664,281.891,49.608,279.827,49.223z"/>
</g>
<g>
	<line fill="#FFFFFF" x1="303.036" y1="19.406" x2="252.025" y2="70.417"/>
	<rect x="275.031" y="8.841" transform="matrix(0.7071 0.7071 -0.7071 0.7071 113.0442 -183.0892)" width="4.999" height="72.141"/>
</g>
<g>
	<path d="M181.77,120.308c-1.979,1.512-4.355,1.727-6.803,1.727h-10.15V96.481h10.15c2.052,0,4.175,0.288,5.903,1.403
		c1.872,1.225,2.951,3.347,2.951,5.543c0,2.088-0.972,4.427-3.131,5.399c2.411,1.115,3.671,3.383,3.671,5.758
		C184.362,116.852,183.606,118.904,181.77,120.308z M175.147,100.476h-5.723v6.407h5.831c2.088,0,3.851-0.756,3.851-3.167
		C179.107,101.268,177.235,100.476,175.147,100.476z M175.292,110.77h-5.867v7.09h5.723c2.16,0,4.499-0.791,4.499-3.383
		C179.647,111.741,177.739,110.77,175.292,110.77z"/>
	<path d="M198.264,112.209v9.79h-4.679v-9.79l-8.854-15.728h5.039l6.298,11.014l6.299-11.014h4.823L198.264,112.209z"/>
</g>
<g>
	<path d="M270.912,121.999l-11.05-17.528v17.528h-4.571V96.481h4.931l10.905,17.276V96.481h4.571v25.518H270.912z"/>
	<path d="M297.322,119.444c-1.907,1.944-4.571,3.023-7.306,3.023c-2.735,0-5.291-0.899-7.235-2.843
		c-2.771-2.772-3.167-6.191-3.167-10.366s0.395-7.594,3.167-10.365c1.944-1.944,4.5-2.88,7.235-2.88
		c2.735,0,5.399,1.008,7.306,2.951c1.476,1.512,2.232,3.527,2.448,5.543h-4.752c-0.107-1.116-0.504-1.908-1.151-2.7
		c-0.828-1.044-2.267-1.584-3.851-1.584c-1.475,0-2.916,0.612-3.924,1.692c-1.764,1.836-1.764,5.003-1.764,7.342
		s0,5.507,1.764,7.342c1.008,1.08,2.448,1.692,3.924,1.692c1.584,0,3.023-0.576,3.851-1.62c0.647-0.792,1.044-1.691,1.151-2.807
		h4.752C299.554,115.881,298.798,117.932,297.322,119.444z"/>
</g>
<g>
	<path d="M365.233,119.732c-1.944,1.944-4.931,2.735-8.063,2.735c-2.699,0-5.543-0.72-7.63-2.627
		c-1.512-1.368-2.663-3.528-2.663-5.939h4.751c0,1.26,0.576,2.376,1.332,3.132c1.08,1.079,2.807,1.367,4.283,1.367
		c1.764,0,3.456-0.359,4.427-1.367c0.575-0.612,1.008-1.225,1.008-2.448c0-1.871-1.44-2.735-3.023-3.023
		c-1.728-0.324-3.96-0.395-5.651-0.684c-3.528-0.576-6.479-2.88-6.479-7.126c0-2.016,0.899-3.708,2.231-5.04
		c1.692-1.655,4.5-2.699,7.487-2.699c2.735,0,5.399,0.863,7.126,2.483c1.512,1.439,2.555,3.311,2.592,5.435h-4.751
		c-0.036-0.9-0.504-1.872-1.116-2.519c-0.828-0.864-2.519-1.368-3.887-1.368c-1.439,0-3.095,0.324-4.139,1.404
		c-0.54,0.575-0.863,1.224-0.863,2.159c0,1.656,1.08,2.519,2.592,2.771c1.619,0.252,3.886,0.433,5.543,0.648
		c3.815,0.54,7.019,3.023,7.019,7.378C367.357,116.781,366.493,118.472,365.233,119.732z"/>
	<path d="M386.377,121.999l-1.655-4.895h-10.15l-1.656,4.895h-4.679l8.962-25.518h5.075l8.962,25.518H386.377z M379.647,102.168
		l-3.635,10.762h7.27L379.647,102.168z"/>
</g>
<g>
	<g>
		<g>
			<path fill="#FFFFFF" d="M-745.554,120.453c-31.433,0-57.005-25.572-57.005-57.005c0-31.433,25.572-57.005,57.005-57.005
				c31.433,0,57.005,25.572,57.005,57.005C-688.548,94.881-714.121,120.453-745.554,120.453z"/>
			<path d="M-745.553,12.443c28.124,0,51.005,22.881,51.005,51.005s-22.881,51.005-51.005,51.005
				c-28.124,0-51.005-22.881-51.005-51.005S-773.678,12.443-745.553,12.443 M-745.553,0.443c-34.797,0-63.005,28.208-63.005,63.005
				s28.208,63.005,63.005,63.005c34.797,0,63.005-28.208,63.005-63.005S-710.757,0.443-745.553,0.443L-745.553,0.443z"/>
		</g>
		<text transform="matrix(1 0 0 1 -784.7847 82.6859)" font-family="'AkkuratPro-Bold'" font-size="72">cc</text>
	</g>
	<g>
		<path fill="#FFFFFF" d="M-623.981,75.387c-19.56,0-35.472-15.913-35.472-35.472c0-19.56,15.913-35.472,35.472-35.472
			s35.472,15.913,35.472,35.472C-588.509,59.474-604.421,75.387-623.981,75.387z"/>
		<path d="M-623.981,8.443c17.354,0,31.472,14.118,31.472,31.472s-14.118,31.472-31.472,31.472s-31.472-14.118-31.472-31.472
			S-641.335,8.443-623.981,8.443 M-623.981,0.443c-21.8,0-39.472,17.672-39.472,39.472c0,21.8,17.672,39.472,39.472,39.472
			s39.472-17.672,39.472-39.472C-584.509,18.115-602.181,0.443-623.981,0.443L-623.981,0.443z"/>
	</g>
	<circle cx="-623.971" cy="20.845" r="5.012"/>
	<polygon points="-614.138,28.244 -614.138,45.5 -618.305,45.5 -618.305,63.212 -629.637,63.212 -629.637,45.501 -633.803,45.501 
		-633.803,28.244 	"/>
	<g>
		<path fill="#FFFFFF" d="M-440.914,75.387c-19.56,0-35.472-15.913-35.472-35.472c0-19.56,15.913-35.472,35.472-35.472
			s35.472,15.913,35.472,35.472C-405.441,59.474-421.354,75.387-440.914,75.387z"/>
		<path d="M-440.914,8.443c17.354,0,31.472,14.118,31.472,31.472s-14.118,31.472-31.472,31.472
			c-17.354,0-31.472-14.118-31.472-31.472S-458.267,8.443-440.914,8.443 M-440.914,0.443c-21.8,0-39.472,17.672-39.472,39.472
			c0,21.8,17.672,39.472,39.472,39.472c21.8,0,39.472-17.672,39.472-39.472C-401.441,18.115-419.114,0.443-440.914,0.443
			L-440.914,0.443z"/>
	</g>
	<polygon points="-448.454,37 -455.345,48.936 -462.237,37 	"/>
	<path d="M-440.684,22.37c-9.69,0-17.316,7.855-17.316,17.545c0,0.013,0,0.085,0,0.085h4.555c0,0-0.002-0.049-0.002-0.062
		c0-6.911,5.622-12.545,12.533-12.545c6.911,0,12.533,5.616,12.533,12.527c0,6.911-5.622,12.53-12.533,12.53
		c-3.461,0-6.598-1.412-8.869-3.688l-3.548,3.548c3.176,3.182,7.566,5.15,12.417,5.15c9.69,0,17.66-7.855,17.66-17.545
		C-423.254,30.225-430.995,22.37-440.684,22.37z"/>
	<g>
		<path fill="#FFFFFF" d="M-532.447,73.387c-18.457,0-33.472-15.015-33.472-33.472s15.016-33.472,33.472-33.472
			s33.472,15.016,33.472,33.472S-513.991,73.387-532.447,73.387z"/>
		<path d="M-532.447,12.443c15.148,0,27.472,12.324,27.472,27.472s-12.324,27.472-27.472,27.472s-27.472-12.324-27.472-27.472
			S-547.595,12.443-532.447,12.443 M-532.447,0.443c-21.8,0-39.472,17.672-39.472,39.472c0,21.8,17.672,39.472,39.472,39.472
			c21.8,0,39.472-17.672,39.472-39.472C-492.975,18.115-510.647,0.443-532.447,0.443L-532.447,0.443z"/>
	</g>
	<g>
		<path fill="#FFFFFF" d="M-532.447,75.387c-19.56,0-35.472-15.913-35.472-35.472c0-19.56,15.913-35.472,35.472-35.472
			s35.472,15.913,35.472,35.472C-496.975,59.474-512.888,75.387-532.447,75.387z"/>
		<path d="M-532.447,8.443c17.354,0,31.472,14.118,31.472,31.472s-14.118,31.472-31.472,31.472
			c-17.354,0-31.472-14.118-31.472-31.472S-549.801,8.443-532.447,8.443 M-532.447,0.443c-21.8,0-39.472,17.672-39.472,39.472
			c0,21.8,17.672,39.472,39.472,39.472c21.8,0,39.472-17.672,39.472-39.472C-492.975,18.115-510.647,0.443-532.447,0.443
			L-532.447,0.443z"/>
	</g>
	<text transform="matrix(1 0 0 1 -546.9514 58.2925)" font-family="'AkkuratPro-Bold'" font-size="48">$</text>
	
		<line fill="#FFFFFF" stroke="#000000" stroke-width="5" stroke-miterlimit="10" x1="-506.94" y1="14.407" x2="-557.955" y2="65.423"/>
	<g>
		<text transform="matrix(1 0 0 1 -647.1544 117.0092)" font-family="'AkkuratPro-Bold'" font-size="36">BY</text>
	</g>
	<g>
		<text transform="matrix(1 0 0 1 -556.945 117.0092)" font-family="'AkkuratPro-Bold'" font-size="36">NC</text>
	</g>
	<g>
		<text transform="matrix(1 0 0 1 -463.6747 117.0092)" font-family="'AkkuratPro-Bold'" font-size="36">SA</text>
	</g>
</g>
</svg>
