<?xml version="1.0" encoding="utf-8"?>
<!-- Generator: Adobe Illustrator 17.0.0, SVG Export Plug-In . SVG Version: 6.00 Build 0)  -->
<!DOCTYPE svg PUBLIC "-//W3C//DTD SVG 1.1//EN" "http://www.w3.org/Graphics/SVG/1.1/DTD/svg11.dtd">
<svg version="1.1" id="Layer_1" xmlns="http://www.w3.org/2000/svg" xmlns:xlink="http://www.w3.org/1999/xlink" x="0px" y="0px"
	 width="192px" height="64px" viewBox="0 0 192 64" enable-background="new 0 0 192 64" xml:space="preserve">
<g>
	<path fill="#FFFFFF" d="M50.151,48.221c-0.555,0.481-1.518,0.629-2.296,0.519c-3.852-0.593-8.332-4.074-9.925-7.185
		c-2.222,1.37-4.48,2.592-6.851,3.481l-0.186-0.445c2.147-1.48,4.333-3.259,6.11-5.185c-1.333-3.333-1.703-7.036-1.852-10.851
		h-4.999v4.148c1.592-0.445,3.147-0.853,4.629-1.297l0.074,0.481c-1.111,0.667-3.481,2-4.703,2.704v10.184
		c0,1.333-0.444,2.222-1.148,2.852c-0.963,0.814-2.37,1.111-3.814,1.259c-0.148-1.48-0.703-2.443-1.519-3.147
		c-0.814-0.703-1.926-1.111-3.036-1.407v-0.519c1.185,0.111,3.592,0.296,4.851,0.37c0.371,0.037,0.815-0.222,0.815-0.666v-6.852
		c-1.223,0.667-3.814,1.926-5.111,2.556c-0.48,0.259-0.74,0.481-0.962,0.889c-0.148,0.222-0.519,0.259-0.704-0.037
		c-0.63-1.296-1.407-3.074-1.963-4.592c3-0.407,5.889-1.037,8.74-1.741v-5.185h-4.556c-0.926,0-1.777,0.148-2.592,0.444
		l-1.148-1.592h8.296v-4.852c-2.407,0.444-5.259,0.814-7.592,1L18.6,23.001c4.11-1.222,9.11-3.37,11.962-6.147
		c1.259,1.074,2.518,2.185,3.518,3.333c0.148,0.186,0,0.703-0.296,0.63c-0.63-0.148-1.407-0.148-2,0.11
		c-0.407,0.186-1.111,0.444-1.629,0.556v5.926h4.888c-0.037-3.111-0.074-6.037-0.074-9.222c0-0.889-0.073-1.74-0.185-2.222
		c1.74,0.37,3.407,0.814,5.036,1.37c0.333,0.111,0.223,0.667-0.037,0.777c-0.407,0.148-0.926,0.481-0.963,1.111
		c-0.11,2.222-0.074,5.073,0.037,8.185h5.74c0.704-0.852,1.333-1.593,2.037-2.186c0.111-0.074,0.519-0.147,0.777,0.074
		c0.963,0.814,1.963,1.593,2.814,2.556c0.26,0.296,0.074,0.703-0.259,0.703H38.931c0.111,2.37,0.26,4.889,0.814,7.11
		c1.26-1.889,2.519-4.369,2.926-6.147c1.556,0.444,3.074,1.223,4.519,1.963c0.296,0.148,0.11,0.814-0.186,0.852
		c-0.481,0.074-1.111,0.297-1.407,0.815c-1.111,1.999-2.777,4.369-4.481,6.073c0.963,1.814,2.63,3.518,4.519,4.296
		c0.37,0.147,0.74,0,0.963-0.334c1.147-1.777,2.222-3.592,3.036-5.518l0.519,0.26c-0.555,1.555-1.11,3.406-1.407,4.962
		c-0.147,0.704,0.074,1.222,0.408,1.667c0.518,0.666,1.073,1.48,1.296,2.222C50.633,47.442,50.485,47.888,50.151,48.221z
		 M44.152,25.482c-0.593-0.037-1.148-0.444-1.444-1.556c-0.481-1.74-1.296-3.333-2.814-4.407l0.223-0.407
		c1.926,0.186,3.74,0.481,5.295,1.556c1.186,0.852,1.26,2.147,0.741,3.222C45.708,24.815,44.93,25.52,44.152,25.482z"/>
	<path fill="#FFFFFF" d="M86.651,36.814h-7.702c-1.074,1.556-2.333,3.036-3.777,4.407c2.666,0.592,5.332,1.37,7.518,2.629
		c0.963,0.556,1.629,1.556,1.74,2.556c0.111,1.036-0.333,1.852-0.926,2.185c-0.556,0.296-1.222,0.186-2-0.37
		c-2.777-1.926-5.703-3.333-9.48-4.629c-5.332,3.147-11.479,4.369-17.85,5.073l-0.111-0.481c4.926-1.223,9.666-2.889,13.925-5.703
		c-3.148-0.704-6.481-1.111-9.851-1.259c1.185-1.297,2.777-3,3.925-4.407h-4.888c-0.704,0-1.407,0.111-2,0.333l-1.223-1.481h9.11
		c1.111-1.407,2.148-2.889,3.185-4.333h-5.258c-0.037,0.444-0.223,0.704-0.444,0.926c-0.481,0.371-2.26,0.89-2.926,0.853
		c-0.407-0.037-0.667-0.297-0.667-0.704c0.074-0.889,0.111-1.963,0.111-2.852v-4.814c0-1.11-0.074-2.222-0.186-3.296
		c1.444,0.63,2.963,1.297,4.37,2.074h3.333v-4.296h-7.777c-0.666,0-1.259,0.074-1.814,0.296l-1.147-1.481h26.516
		c0.703-0.889,1.37-1.666,2.259-2.518c0.111-0.111,0.333-0.037,0.444,0.037c1.148,0.926,2.407,2.036,3.37,3.036
		c0.222,0.223,0.037,0.63-0.26,0.63H75.505v4.296h3.519c0.407-0.481,1.11-1.296,1.703-1.963c0.148-0.186,0.296-0.148,0.519,0
		c0.963,0.704,2.222,1.703,3.185,2.556c0.26,0.222,0.223,0.703-0.111,0.814c-0.814,0.222-1.259,0.777-1.259,1.444v2.37
		c0,0.852,0,1.703,0.037,2.519c0,0.296-0.186,0.555-0.407,0.703c-0.852,0.593-1.852,0.889-2.926,0.814
		c-0.37,0-0.63-0.222-0.63-0.629v-0.815H67.876c1,0.556,2.37,1.334,3,1.741c0.519,0.333,0.147,0.926-0.371,0.889
		c-0.592,0-1.185,0.222-1.443,0.593c-0.334,0.407-0.704,0.814-1,1.11h12.924c0.63-0.777,1.519-1.777,2.148-2.48
		c0.111-0.148,0.296-0.148,0.444-0.037c1.185,0.926,2.37,2.11,3.296,3.296C86.985,36.592,86.8,36.814,86.651,36.814z M64.58,24.667
		h-3.556v5.519h3.556V24.667z M67.024,36.814c-0.852,0.963-2.519,2.555-3.333,3.296c2.296,0,4.555,0.111,6.813,0.37
		c1.26-1.111,2.26-2.37,3.223-3.666H67.024z M71.949,19.224h-3.666v4.296h3.666V19.224z M71.949,24.667h-3.666v5.519h3.666V24.667z
		 M79.134,24.667h-3.629v5.519h3.629V24.667z"/>
	<path fill="#FFFFFF" d="M121.937,44.109c-1.037,0.037-1.963,0.408-2.777,0.963c-0.926,0.63-1.74,1.519-2.407,2.556
		c-3.147-1.259-6.332-3.333-8.518-6.147c-2-2.629-2.963-5.852-3.629-9.036c-1.037,1.556-2.111,3.147-3.333,4.629v6.222
		c2-0.629,4.036-1.444,5.999-2.259l0.334,0.519c-2.444,2.037-5,4.222-7.444,6.147c-0.444,0.333-0.889,0.666-1.185,1.037
		c-0.148,0.222-0.444,0.296-0.667,0.11c-0.926-0.703-1.592-1.666-2.11-2.666c-0.148-0.296-0.111-0.63,0.147-0.777
		c0.667-0.407,0.889-1.074,0.889-1.963v-2.814c-2.555,1.814-5.332,3.147-8.146,4.259l-0.26-0.407
		c4.407-2.852,9.11-8.036,10.851-12.036h-7.11c-0.74,0-1.592,0.186-2.259,0.481l-1.111-1.629h13.295v-3.926h-6.332
		c-0.853,0-1.926,0.222-2.704,0.444l-1-1.593h10.036v-3.889h-8.776c-0.926,0-1.889,0.186-2.63,0.556l-1.147-1.703h12.554v-3.222
		c0-0.704-0.037-1.481-0.147-2.148c1.814,0.223,3.666,0.63,5.332,1.26c0.297,0.073,0.297,0.518,0.037,0.666
		c-0.519,0.296-1.147,0.777-1.147,1.407v2.037h7.555c0.593-0.889,1.185-1.593,1.926-2.333c0.185-0.186,0.444-0.186,0.703,0
		c1.111,0.777,2.444,2,3.222,2.963c0.148,0.185,0.037,0.518-0.222,0.518h-13.184v3.889h5.036c0.593-0.889,1.111-1.556,1.777-2.296
		c0.148-0.186,0.444-0.148,0.593-0.037c1.111,0.852,2.222,1.852,3.147,2.926c0.186,0.186,0.074,0.556-0.185,0.556h-10.369v3.926
		h9.332c0.667-0.963,1.481-1.778,2.185-2.444c0.111-0.111,0.334-0.148,0.444-0.037c1,0.852,2.148,1.926,2.963,2.999
		c0.148,0.186,0.074,0.63-0.222,0.63h-15.665c0.74,2,1.814,4,3.518,5.629c1.963-1.556,3.852-3.555,5.147-5.406
		c1.26,1,2.63,2.259,3.667,3.518c0.222,0.297,0.037,0.667-0.297,0.63c-0.37-0.037-0.852-0.111-1.481,0.148
		c-1.777,0.703-3.703,1.444-5.666,2.185c3.037,2.556,7.666,3.852,11.518,4.407L121.937,44.109z"/>
	<path fill="#FFFFFF" d="M130.084,46.258c-0.407,0.667-1.186,1.111-2,1.222c-0.74,0.111-1.519-0.037-2.11-0.481
		c-0.371-0.259-0.63-0.703-0.667-1.11c-0.074-0.519,0.148-1.074,0.667-1.37c1.852-1.037,4.259-2.704,4.776-4.74l0.556,0.073
		C131.454,42.036,131.269,44.443,130.084,46.258z M141.12,24.89c-0.371,0.407-0.778,0.556-1.186,0.519
		c-0.444-0.037-0.889-0.37-1.111-0.926c-0.259-0.556-0.518-1.186-0.814-1.63c-2.814,0.667-5.629,1.297-8.443,1.889
		c0.63,0.297,1.593,0.853,2.185,1.186h4.926c0.259-0.26,0.593-0.667,0.926-0.963c0.186-0.148,0.481-0.148,0.704-0.037
		c0.926,0.556,1.814,1.074,2.666,1.814c0.186,0.186,0.148,0.556,0.037,0.593c-0.407,0.222-0.778,0.63-0.778,1.037v7.666
		c0,1.073-0.444,1.814-1.147,2.333c-0.777,0.555-1.889,0.852-3.111,1.073c-0.147-1.185-0.481-1.999-0.999-2.555
		c-0.519-0.556-1.186-0.852-2.074-1.111v-0.519c0.926,0.074,2.074,0.148,3.037,0.148c0.259,0,0.592-0.223,0.592-0.481V33.63h-4.888
		c-0.037,0.963,0.037,2.888,0.073,3.888c0.037,0.481-0.147,0.778-0.37,0.963c-0.519,0.444-2.185,0.889-3.073,0.815
		c-0.444-0.037-0.556-0.297-0.519-0.741c0.147-1.519,0.185-3.036,0.185-4.592v-5.259c0-0.814-0.037-2.407-0.11-3.222
		c-0.297-0.037-0.408-0.186-0.556-0.481c-0.481-0.889-0.889-1.889-0.963-2.704c-0.037-0.296,0.185-0.444,0.407-0.444
		c0.814,0,1.666-0.333,2.407-0.926c1.556-1.259,2.852-3.555,3.555-5.369c1.444,0.666,2.963,1.519,4.296,2.48
		c0.186,0.111,0.074,0.481-0.185,0.445c-0.444-0.037-1.148,0.185-1.481,0.407c-1.593,1.036-3.519,2.11-5.147,2.962
		c2.073,0,5.369-0.036,7.147-0.036c-0.444-0.667-1.074-1.334-1.704-1.89l0.26-0.407c1.555,0.371,3.185,0.815,4.555,1.741
		c0.63,0.407,1.074,0.963,1.222,1.555C141.823,23.52,141.675,24.223,141.12,24.89z M136.527,27.074h-4.851v2.148h4.851V27.074z
		 M136.527,30.37h-4.851v2.111h4.851V30.37z M148.748,47.146c-0.703,0.556-1.592,0.814-2.74,0.814c-2.48,0-7.073-0.037-9.813-0.037
		c-0.63,0-1.186-0.296-1.63-0.74s-0.703-1.111-0.703-1.814v-3.519c0-0.629-0.037-1.889-0.111-2.481c1.63,0.26,3.222,0.667,4.74,1.26
		c0.186,0.037,0.223,0.37,0.111,0.407c-0.481,0.259-1,0.814-1,1.148v1.185c0,0.63,0.296,1.074,0.963,1.074
		c1.593,0,4.703-0.037,6.333-0.111c0.444,0,0.926-0.296,1.147-0.704c0.444-0.703,0.963-2.147,1.186-2.962h0.592
		c-0.036,1.11,0.074,2.073,0.519,2.777c0.371,0.666,1,1.074,1.926,1.259C149.896,45.813,149.415,46.628,148.748,47.146z
		 M143.453,43.073c-0.519,0.555-1.111,0.814-1.63,0.666c-0.444-0.111-0.814-0.519-0.926-1.259c-0.186-1.407-0.63-2.481-1.444-3.666
		l0.26-0.371c1.11,0.26,2.333,0.556,3.222,1.223c0.556,0.407,0.926,0.926,1.037,1.519C144.119,41.813,144.008,42.48,143.453,43.073z
		 M155.748,26.741c-0.481,0.481-1.037,0.852-1.814,0.926c-2.852,0.148-5.926,0.26-8.889,0.111c-0.74,0-1.296-0.333-1.703-0.814
		s-0.63-1.148-0.63-1.778v-6.369c0-1.111-0.037-2-0.185-2.926c1.629,0.37,3.222,0.852,4.777,1.37
		c0.259,0.074,0.259,0.444,0.073,0.519c-0.481,0.186-0.926,0.593-0.926,1.074v2.777c1.37-0.889,3.407-2.703,4.407-3.963
		c1.037,0.778,2.111,1.63,3.074,2.556c0.222,0.222,0.036,0.593-0.223,0.556c-0.296-0.074-0.814-0.074-1.259,0.11
		c-1.852,0.741-4.037,1.407-6,1.853v0.963c0,0.296,0.371,0.666,0.593,0.703c1.186,0,3.556-0.037,4.703-0.037
		c0.704-0.037,1.111-0.333,1.333-0.777c0.297-0.63,0.519-1.556,0.667-2.259h0.593c0.037,0.74,0.147,1.443,0.481,2.036
		c0.481,0.778,1.296,1.186,2.073,1.519C156.637,25.557,156.267,26.223,155.748,26.741z M156.229,38.185
		c-0.704,0.593-1.407,0.926-2.37,0.963c-2.63,0.074-5.926,0.148-8.592,0.111c-0.741,0-1.407-0.371-1.852-0.889
		c-0.444-0.519-0.741-1.223-0.741-1.963v-5.963c0-0.666,0-2.036-0.074-2.666c1.593,0.296,3.26,0.667,4.74,1.296
		c0.223,0.111,0.26,0.407,0.037,0.519c-0.37,0.186-0.926,0.704-0.926,1.148v2.407c1.519-1,3.37-2.778,4.519-4.222
		c1.11,0.74,2.185,1.555,3.259,2.443c0.222,0.223,0.148,0.556-0.223,0.593c-0.74,0.074-1.444,0.296-2.11,0.556
		c-1.556,0.63-3.074,1.037-5.444,1.556v0.814c0,0.519,0.481,0.889,1.037,0.889c1.186,0,3.666-0.037,4.963-0.074
		c0.592,0,0.963-0.296,1.185-0.703c0.297-0.63,0.556-1.63,0.741-2.519l0.666-0.037c0,0.963,0.111,1.852,0.667,2.556
		c0.37,0.481,1.11,0.963,1.629,1.185C157.192,36.963,156.785,37.666,156.229,38.185z M156.229,46.888
		c-0.481,0.629-1.037,0.852-1.519,0.74c-0.556-0.111-1.037-0.593-1.296-1.37c-0.63-2.111-1.852-4.444-3.444-5.926l0.296-0.407
		c2.223,0.556,4.407,1.407,5.963,3.259c0.444,0.481,0.666,1.074,0.703,1.667C156.97,45.554,156.711,46.295,156.229,46.888z"/>
	<path fill="#FFFFFF" d="M165.477,43.369c0-1.666,1.222-2.889,2.852-2.889c1.666,0,2.889,1.259,2.889,2.889
		c0,1.667-1.223,2.852-2.889,2.852C166.698,46.221,165.477,45.036,165.477,43.369z M170.661,25.371l-1.63,11.776h-1.407
		l-1.629-11.776c-0.297-2.074-0.444-3.37-0.334-4.259c0.223-1.926,1.148-2.519,2.556-2.519c1.629,0,2.629,0.63,2.889,2.481
		c0.074,0.481,0.037,1.074-0.074,1.777C170.957,23.594,170.809,24.408,170.661,25.371z"/>
</g>
<path fill="#FFFFFF" d="M190,2v60H2V2H190 M192,0H0v64h192V0L192,0z"/>
</svg>
