<?xml version="1.0" encoding="utf-8"?>
<!-- Generator: Adobe Illustrator 17.0.0, SVG Export Plug-In . SVG Version: 6.00 Build 0)  -->
<!DOCTYPE svg PUBLIC "-//W3C//DTD SVG 1.1//EN" "http://www.w3.org/Graphics/SVG/1.1/DTD/svg11.dtd">
<svg version="1.1" xmlns="http://www.w3.org/2000/svg" xmlns:xlink="http://www.w3.org/1999/xlink" x="0px" y="0px" width="320px"
	 height="320px" viewBox="0 0 320 320" enable-background="new 0 0 320 320" xml:space="preserve">
<g id="Layer_3">
</g>
<g id="Layer_1">
	<g>
		<polygon fill="#808080" points="133.479,267.788 102.281,256.424 102.281,215.208 133.479,235.125 		"/>
		<polygon fill="#E6E6E6" points="133.479,267.788 266.333,202.663 266.333,170 133.479,235.125 		"/>
		<polygon fill="#CCCCCC" points="105.781,217.458 202.521,168.511 235.5,185 133.479,235.125 		"/>
	</g>
	<polygon fill="#808080" points="102.5,283.118 70.021,267.25 70.021,102.5 102.5,118.368 	"/>
	<polygon fill="#E6E6E6" points="102.5,283.118 133.479,267.75 133.479,103 102.5,118.368 	"/>
	<polygon fill="#808080" points="70.021,137.25 70.021,102.5 201.75,169 168.75,185.5 	"/>
	<polygon fill="#CCCCCC" points="70.021,102.5 102,86.011 266.333,170 234.482,185.5 	"/>
	<polygon fill="#FF0055" points="164,32.065 207.792,57.349 164,82.632 	"/>
	
		<line fill="none" stroke="#42210B" stroke-width="6" stroke-linecap="round" stroke-miterlimit="10" x1="162" y1="130" x2="162" y2="32"/>
</g>
<g id="Layer_2" display="none">
</g>
</svg>
