<?xml version="1.0" encoding="utf-8"?>
<!-- Generator: Adobe Illustrator 17.0.0, SVG Export Plug-In . SVG Version: 6.00 Build 0)  -->
<!DOCTYPE svg PUBLIC "-//W3C//DTD SVG 1.1//EN" "http://www.w3.org/Graphics/SVG/1.1/DTD/svg11.dtd">
<svg version="1.1" xmlns="http://www.w3.org/2000/svg" xmlns:xlink="http://www.w3.org/1999/xlink" x="0px" y="0px" width="320px"
	 height="320px" viewBox="0 0 320 320" enable-background="new 0 0 320 320" xml:space="preserve">
<g id="Layer_3">
</g>
<g id="Layer_1">
	<g>
		<polygon fill="#808080" points="129.145,273.416 88.27,253.956 88.27,134.824 129.145,154.285 		"/>
		<polygon fill="#E6E6E6" points="129.145,273.416 170.02,253.956 170.02,134.824 129.145,154.285 		"/>
		<polygon fill="#808080" points="190.894,273.416 160.27,258.706 160.27,139.574 190.894,154.285 		"/>
		<polygon fill="#E6E6E6" points="190.894,273.416 231.769,253.956 231.769,134.824 190.894,154.285 		"/>
		<polygon fill="#CCCCCC" points="150.02,134.824 190.894,113.827 231.769,134.824 190.894,154.285 		"/>
		<polygon fill="#808080" points="109.499,283 68.501,263.48 68.501,206.242 109.499,225.762 		"/>
		<polygon fill="#E6E6E6" points="109.499,283 135,270.648 135,213.41 109.499,225.762 		"/>
		<polygon fill="#CCCCCC" points="68.501,206.242 88.126,196.641 129.124,216.16 109.499,225.762 		"/>
		<g>
			<polygon fill="#E6E6E6" points="210.501,283 251.499,263.48 251.499,241.246 210.501,260.766 			"/>
			<polygon fill="#808080" points="210.501,283 187.75,271.898 187.75,249.664 210.501,260.766 			"/>
			<polygon fill="#CCCCCC" points="251.499,241.246 231.874,231.644 190.876,251.164 210.501,260.766 			"/>
		</g>
		<polygon fill="#CCCCCC" points="88.27,134.824 129.145,113.827 170.02,134.824 129.145,154.285 		"/>
		<polygon fill="#FF0055" points="161,41.359 204.792,66.642 161,91.926 		"/>
		
			<line fill="none" stroke="#42210B" stroke-width="6" stroke-linecap="round" stroke-miterlimit="10" x1="160" y1="133" x2="160" y2="41"/>
	</g>
</g>
<g id="Layer_2" display="none">
</g>
</svg>
