<?xml version="1.0" encoding="utf-8"?>
<!-- Generator: Adobe Illustrator 17.0.0, SVG Export Plug-In . SVG Version: 6.00 Build 0)  -->
<!DOCTYPE svg PUBLIC "-//W3C//DTD SVG 1.1//EN" "http://www.w3.org/Graphics/SVG/1.1/DTD/svg11.dtd">
<svg version="1.1" xmlns="http://www.w3.org/2000/svg" xmlns:xlink="http://www.w3.org/1999/xlink" x="0px" y="0px" width="320px"
	 height="320px" viewBox="0 0 320 320" enable-background="new 0 0 320 320" xml:space="preserve">
<g id="Layer_3">
</g>
<g id="Layer_1">
	<g>
		<g>
			<polygon fill="#808080" points="159.401,223.854 111.922,201.249 111.922,179.605 159.401,202.21 			"/>
			<polygon fill="#E6E6E6" points="159.401,223.854 206.88,201.249 206.88,179.605 159.401,202.21 			"/>
			<polygon fill="#CCCCCC" points="111.922,179.605 159.401,157 206.88,179.605 159.401,202.21 			"/>
		</g>
		<g>
			<polygon fill="#808080" points="223.222,254.189 175.743,231.584 175.743,209.94 223.222,232.545 			"/>
			<polygon fill="#E6E6E6" points="223.222,254.189 270.701,231.584 270.701,209.94 223.222,232.545 			"/>
			<polygon fill="#CCCCCC" points="175.743,209.94 223.222,187.335 270.701,209.94 223.222,232.545 			"/>
		</g>
		<g>
			<polygon fill="#808080" points="95.901,254.189 48.422,231.584 48.422,209.94 95.901,232.545 			"/>
			<polygon fill="#E6E6E6" points="95.901,254.189 143.38,231.584 143.38,209.94 95.901,232.545 			"/>
			<polygon fill="#CCCCCC" points="48.422,209.94 95.901,187.335 143.38,209.94 95.901,232.545 			"/>
		</g>
		<polygon fill="#FF0055" points="162,96.065 205.792,121.349 162,146.632 		"/>
		
			<line fill="none" stroke="#42210B" stroke-width="6" stroke-linecap="round" stroke-miterlimit="10" x1="160" y1="181" x2="160" y2="96"/>
		<g>
			<polygon fill="#808080" points="159.401,285.833 111.922,263.228 111.922,241.584 159.401,264.189 			"/>
			<polygon fill="#E6E6E6" points="159.401,285.833 206.88,263.228 206.88,241.584 159.401,264.189 			"/>
			<polygon fill="#CCCCCC" points="111.922,241.584 159.401,218.979 206.88,241.584 159.401,264.189 			"/>
		</g>
	</g>
</g>
<g id="Layer_2" display="none">
</g>
</svg>
