<?xml version="1.0" encoding="utf-8"?>
<!-- Generator: Adobe Illustrator 17.0.0, SVG Export Plug-In . SVG Version: 6.00 Build 0)  -->
<!DOCTYPE svg PUBLIC "-//W3C//DTD SVG 1.1//EN" "http://www.w3.org/Graphics/SVG/1.1/DTD/svg11.dtd">
<svg version="1.1" xmlns="http://www.w3.org/2000/svg" xmlns:xlink="http://www.w3.org/1999/xlink" x="0px" y="0px" width="320px"
	 height="320px" viewBox="0 0 320 320" enable-background="new 0 0 320 320" xml:space="preserve">
<g id="Layer_3">
</g>
<g id="Layer_1">
	<g>
		<polygon fill="#808080" points="160,289 65.619,244.065 65.619,217.025 160,261.96 		"/>
		<polygon fill="#E6E6E6" points="160,289 254.381,244.065 254.381,217.025 160,261.96 		"/>
		<polygon fill="#CCCCCC" points="65.619,217.025 160,168.543 254.381,217.025 160,261.96 		"/>
		<polygon fill="#E6E6E6" points="160,245.802 224.198,215.308 224.198,175.265 160,205.759 		"/>
		<path fill="#E6E6E6" d="M106.234,152.742l60.988-29.638c0,0,10.845-7.387,28.889,3.21c25.278,14.846,28.087,48.951,28.087,48.951
			L160,206.16L106.234,152.742z"/>
		<path fill="#808080" d="M160,246.357l-64.198-30.565v-40.527c0-17.728,15.215-31.483,32.099-26.08
			c20.062,6.42,32.099,34.506,32.099,61.389V246.357z"/>
		<g>
			<polygon fill="#FFF800" points="160,54.79 203.792,80.073 160,105.356 			"/>
			
				<line fill="none" stroke="#42210B" stroke-width="6" stroke-linecap="round" stroke-miterlimit="10" x1="159" y1="139" x2="159" y2="55"/>
		</g>
	</g>
</g>
<g id="Layer_2" display="none">
</g>
</svg>
