<?xml version="1.0" encoding="utf-8"?>
<!-- Generator: Adobe Illustrator 17.0.0, SVG Export Plug-In . SVG Version: 6.00 Build 0)  -->
<!DOCTYPE svg PUBLIC "-//W3C//DTD SVG 1.1//EN" "http://www.w3.org/Graphics/SVG/1.1/DTD/svg11.dtd">
<svg version="1.1" xmlns="http://www.w3.org/2000/svg" xmlns:xlink="http://www.w3.org/1999/xlink" x="0px" y="0px" width="320px"
	 height="320px" viewBox="0 0 320 320" enable-background="new 0 0 320 320" xml:space="preserve">
<g id="Layer_1">
	<g>
		<polygon fill="#29ABE2" points="160.278,228.099 107.591,203.015 107.591,178.996 160.278,204.081 		"/>
		<polygon fill="#00FFFF" points="160.278,228.099 212.965,203.015 212.965,178.996 160.278,204.081 		"/>
		<polygon fill="#CCCCCC" points="107.591,178.996 160.278,153.912 212.965,178.996 160.278,204.081 		"/>
		<polygon fill="#29ABE2" points="97.71,258.55 45.023,233.465 45.023,209.447 97.71,234.531 		"/>
		<polygon fill="#00FFFF" points="97.71,258.55 150.397,233.465 150.397,209.447 97.71,234.531 		"/>
		<polygon fill="#CCCCCC" points="45.023,209.447 97.71,184.362 150.397,209.447 97.71,234.531 		"/>
		<polygon fill="#29ABE2" points="222.29,258.55 169.603,233.465 169.603,209.447 222.29,234.531 		"/>
		<polygon fill="#00FFFF" points="222.29,258.55 274.977,233.465 274.977,209.447 222.29,234.531 		"/>
		<polygon fill="#29ABE2" points="159.79,239.061 138.698,229.004 138.698,215.015 159.79,225.072 		"/>
		<polygon fill="#00FFFF" points="159.79,239.061 181.156,228.853 181.156,214.864 159.79,225.072 		"/>
		<polygon fill="#CCCCCC" points="129.103,210.461 159.79,195.851 190.477,210.461 159.79,225.072 		"/>
		<polygon fill="#29ABE2" points="159.722,289 107.035,263.916 107.035,239.897 159.722,264.982 		"/>
		<polygon fill="#00FFFF" points="159.722,289 212.409,263.916 212.409,239.897 159.722,264.982 		"/>
		<polygon fill="#CCCCCC" points="107.035,239.897 159.722,214.813 212.409,239.897 159.722,264.982 		"/>
		<polygon fill="#FF0055" points="162,96.065 205.792,121.349 162,146.632 		"/>
		
			<line fill="none" stroke="#42210B" stroke-width="6" stroke-linecap="round" stroke-miterlimit="10" x1="161" y1="210" x2="161" y2="96"/>
		<polygon fill="#CCCCCC" points="169.603,209.447 222.29,184.362 274.977,209.447 222.29,234.531 		"/>
	</g>
</g>
<g id="Layer_2" display="none">
</g>
</svg>
