<?xml version="1.0" encoding="utf-8"?>
<!-- Generator: Adobe Illustrator 17.0.0, SVG Export Plug-In . SVG Version: 6.00 Build 0)  -->
<!DOCTYPE svg PUBLIC "-//W3C//DTD SVG 1.1//EN" "http://www.w3.org/Graphics/SVG/1.1/DTD/svg11.dtd">
<svg version="1.1" xmlns="http://www.w3.org/2000/svg" xmlns:xlink="http://www.w3.org/1999/xlink" x="0px" y="0px" width="320px"
	 height="320px" viewBox="0 0 320 320" enable-background="new 0 0 320 320" xml:space="preserve">
<g id="Layer_3">
</g>
<g id="Layer_1">
	<g>
		<polygon fill="#808080" points="160,299 87,264.244 87,230.181 160,264.937 		"/>
		<polygon fill="#E6E6E6" points="160,299 233,264.244 233,230.181 160,264.937 		"/>
		<polygon fill="#CCCCCC" points="87,230.181 160,192.682 233,230.181 160,264.937 		"/>
		<polygon fill="#808080" points="123.479,249.978 87,232.611 87,198.171 123.479,215.539 		"/>
		<polygon fill="#E6E6E6" points="123.479,247.558 159.958,230.19 159.958,198.171 123.479,215.539 		"/>
		<polygon fill="#CCCCCC" points="87,198.171 123.479,180.803 159.958,198.171 123.479,215.539 		"/>
		<polygon fill="#808080" points="196.5,247.558 160.021,230.19 160.021,198.171 196.5,215.539 		"/>
		<polygon fill="#E6E6E6" points="196.5,247.558 232.979,230.19 232.979,198.171 196.5,215.539 		"/>
		<polygon fill="#CCCCCC" points="160.021,198.171 196.5,180.803 232.979,198.171 196.5,215.539 		"/>
		<polygon fill="#808080" points="160,198.171 123.521,180.803 123.521,93.784 160,111.152 		"/>
		<polygon fill="#E6E6E6" points="160,198.171 196.479,180.803 196.479,93.784 160,111.152 		"/>
		<polygon fill="#CCCCCC" points="123.521,93.784 160,75.045 196.479,93.784 160,111.152 		"/>
		<polygon fill="#FF0055" points="161,12.79 204.792,38.073 161,63.356 		"/>
		
			<line fill="none" stroke="#42210B" stroke-width="6" stroke-linecap="round" stroke-miterlimit="10" x1="160" y1="94" x2="160" y2="13"/>
	</g>
</g>
<g id="Layer_2" display="none">
</g>
</svg>
