<?xml version="1.0" encoding="utf-8"?>
<!-- Generator: Adobe Illustrator 17.0.0, SVG Export Plug-In . SVG Version: 6.00 Build 0)  -->
<!DOCTYPE svg PUBLIC "-//W3C//DTD SVG 1.1//EN" "http://www.w3.org/Graphics/SVG/1.1/DTD/svg11.dtd">
<svg version="1.1" xmlns="http://www.w3.org/2000/svg" xmlns:xlink="http://www.w3.org/1999/xlink" x="0px" y="0px" width="320px"
	 height="160px" viewBox="0 0 320 160" enable-background="new 0 0 320 160" xml:space="preserve">
<g id="Layer_3">
</g>
<g id="Layer_1">
	<g>
		<path d="M140.781,6.815c-0.432,0.108-0.863,0.216-1.079,0.72c-2.772,5.651-7.271,11.123-12.851,14.65l-0.396-0.432
			c5.147-5.363,8.171-11.627,9.899-18.43c1.655,0.828,3.131,1.655,4.643,2.556C141.502,6.168,141.214,6.672,140.781,6.815z
			 M151.868,32.696c-0.324,0.504-0.792,0.936-1.332,1.08c-0.72,0.18-1.476-0.18-1.584-0.864c-0.144-0.828-0.575-2.088-1.044-3.348
			c-4.967,1.08-11.338,2.376-15.189,2.988c-0.324,0.035-0.648,0.287-0.864,0.575c-0.216,0.324-0.684,0.469-0.899,0.108
			c-0.504-0.864-1.296-2.771-1.62-3.924c-0.108-0.359,0.216-0.575,0.504-0.54c0.576,0,1.152-0.035,1.691-0.18
			c0.612-0.18,1.044-0.432,1.477-0.936c3.312-4.14,5.435-8.783,6.659-13.822c1.655,0.792,3.348,1.655,4.896,2.627
			c0.359,0.252,0.035,0.721-0.36,0.828c-0.36,0.072-1.044,0.288-1.368,0.792c-2.304,4.031-5.111,7.631-8.927,10.655
			c4.859,0.18,8.567-0.072,13.57-0.469c-0.54-2.231-2.483-5.219-4.14-6.839l0.36-0.468c3.168,1.691,6.443,4.211,8.423,7.415
			C152.912,29.601,152.66,31.545,151.868,32.696z M158.239,19.126c-0.972-0.036-1.764,0.072-2.483,0.396
			c-0.828,0.396-1.548,1.008-2.304,1.835c-3.275-2.627-5.399-5.795-6.804-9.286c-1.331-3.24-2.016-6.623-2.411-10.079
			c1.115,0.288,2.304,0.684,3.239,1.116c0.216,0.107,0.145,0.647-0.144,0.72c-0.252,0.107-0.576,0.288-0.792,0.468
			c-0.324,0.216-0.396,0.504-0.288,0.864c0.792,2.375,1.908,4.715,3.455,6.803c2.232,2.987,5.22,4.968,8.711,6.587L158.239,19.126z"
			/>
		<path d="M176.335,11.675h-4.896v4.104c1.152-0.468,2.556-1.08,3.744-1.728l0.216,0.432c-1.008,0.937-2.987,2.592-3.96,3.348v12.49
			c0,1.225-0.468,2.016-1.224,2.556c-0.828,0.648-2.052,0.937-3.384,1.116c-0.071-0.828-0.396-1.584-0.899-2.195
			c-0.72-0.9-1.764-1.548-2.808-1.836v-0.576c1.332,0.108,2.808,0.144,4.104,0.036c0.359-0.036,0.54-0.288,0.54-0.612v-8.243
			c-0.504,0.433-1.332,0.973-2.124,1.404c-0.576,0.36-0.972,0.864-1.26,1.476c-0.072,0.108-0.36,0.18-0.432,0.072
			c-0.756-1.188-1.548-2.844-2.16-4.5c2.052-0.432,4.031-1.043,5.976-1.728v-5.615h-3.096c-0.36,0-1.116,0.108-1.836,0.288
			l-0.828-1.403h5.76V5.304c0-0.792-0.072-2.16-0.216-3.096c1.583,0.288,3.167,0.684,4.571,1.152
			c0.216,0.071,0.323,0.54,0.107,0.647c-0.396,0.18-0.792,0.576-0.792,0.792v5.76h0.685c0.468-0.757,0.936-1.404,1.403-1.944
			c0.108-0.144,0.324-0.144,0.468-0.036c0.937,0.828,1.98,1.836,2.592,2.664C176.659,11.387,176.516,11.675,176.335,11.675z
			 M194.045,30.501c-1.044,0-1.943,0.18-2.771,0.647c-0.828,0.504-1.548,1.296-2.088,2.376c-2.592-1.152-5.22-2.808-7.055-4.823
			c-3.132,2.411-6.552,3.995-10.979,5.363l-0.145-0.36c3.779-2.231,6.875-4.428,9.395-7.307c-1.476-2.376-2.231-5.04-2.879-7.775
			c-0.396,0.036-0.792,0.18-1.152,0.324l-0.432-0.54c-1.008,0.647-2.016,1.224-3.096,1.655l-0.252-0.359
			c2.483-2.52,3.959-4.248,4.392-6.587c0.359-2.017,0.54-5.111,0.216-10.115c1.296,0.468,2.699,1.044,4.031,1.62h2.987
			c0.324-0.433,0.828-1.008,1.296-1.477C185.694,3,185.982,3,186.234,3.108c0.72,0.396,2.231,1.619,2.771,2.304
			c0.216,0.216,0.107,0.54-0.072,0.611c-0.432,0.252-0.936,0.828-0.936,1.188v4.463c0,0.288,0.323,0.72,0.611,0.756
			c1.08,0.181,2.124,0.036,3.06-0.432c0.252-0.145,0.504,0,0.685,0.107c0.54,0.505,1.151,1.692,1.296,2.592
			c0.071,0.433-0.145,0.792-0.685,0.9c-1.403,0.288-4.247,0.324-5.579,0.18c-0.936-0.072-1.655-0.396-2.159-0.936
			c-0.54-0.612-0.828-1.476-0.828-2.52V5.771h-3.312c-0.036,3.527-0.216,5.867-0.792,7.667s-1.512,2.988-3.06,4.067h7.631
			c0.36-0.396,0.72-0.899,1.116-1.296c0.18-0.216,0.432-0.252,0.647-0.144c0.792,0.396,2.304,1.512,3.132,2.195
			c0.144,0.108,0.18,0.504-0.036,0.612c-0.504,0.288-0.828,0.684-1.044,1.116c-1.116,2.231-2.376,4.247-3.995,6.155
			c2.447,1.764,5.975,3.167,9.395,3.887L194.045,30.501z M178.711,18.622c0.756,1.943,1.764,3.96,3.42,5.399
			c1.044-1.691,1.943-3.42,2.735-5.399H178.711z"/>
	</g>
	<g>
		<path d="M157.744,59.406c-0.336,0.377-0.588,0.84-0.756,1.449c-2.016,0.041-4.094,0.062-6.089-0.252
			c-2.12-0.316-4.073-1.051-5.605-2.771c-0.21-0.232-0.336-0.463-0.672-0.504c-0.399-0.021-0.546,0.23-0.819,0.566
			c-0.42,0.504-0.84,1.113-1.176,1.658c-0.168,0.295-0.398,0.273-0.504,0.105c-0.462-0.734-0.966-1.533-1.364-2.227
			c-0.105-0.188-0.021-0.377,0.146-0.398c0.882-0.125,1.764-0.357,2.604-0.65c0.609-0.211,1.218-0.482,1.764-0.883
			c2.709-1.91,5.963-4.346,8-6.781h-9.764c-0.546,0-1.028,0.043-1.302,0.168l-0.63-0.818h12.115c0.44-0.463,0.924-0.861,1.302-1.197
			c0.084-0.084,0.252-0.084,0.356,0c0.63,0.482,1.365,1.051,1.869,1.574c0.23,0.232,0.126,0.441-0.147,0.547
			c-0.65,0.252-1.238,0.672-1.784,1.176c-2.709,2.477-6.278,4.576-9.848,6.424c1.239,0.883,2.751,1.408,4.263,1.576
			c3.149,0.314,6.025,0.125,9.49,0.02v0.273C158.647,58.607,158.122,58.965,157.744,59.406z M150.249,47.459
			c-0.273,0.021-0.483-0.084-0.672-0.23c-0.231-0.211-0.315-0.504-0.399-0.84c-0.146-0.631-0.356-1.219-0.692-1.742
			c-0.336-0.504-0.714-0.945-1.155-1.387l0.147-0.293c1.386,0.336,2.813,0.629,3.821,1.783c0.336,0.379,0.356,1.029,0.21,1.512
			C151.299,46.83,150.795,47.291,150.249,47.459z"/>
		<path d="M179.237,61.023c-0.23,0.23-0.608,0.336-1.028,0.209c-1.512-0.461-3.087-2.457-3.717-3.779
			c-1.848,1.742-3.989,2.918-6.277,3.674l-0.105-0.252c2.184-1.111,4.347-2.771,5.816-4.934c-0.798-2.498-1.071-5.207-1.302-7.957
			h-3.359v2.561h1.07c0.168-0.209,0.441-0.588,0.588-0.756c0.063-0.084,0.252-0.062,0.315-0.02c0.504,0.355,1.028,0.775,1.428,1.176
			c0.126,0.125,0.084,0.293-0.042,0.398s-0.42,0.314-0.42,0.588c0,1.512-0.189,2.855-0.294,4.346
			c-0.042,0.525-0.231,0.924-0.525,1.219c-0.356,0.355-0.882,0.566-1.406,0.691c0.021-0.797-0.399-1.553-1.113-1.932v-0.23
			c0.273,0.043,0.588,0.043,0.882,0.043c0.21,0,0.378-0.189,0.399-0.4c0.104-1.512,0.21-3.023,0.188-4.471h-1.05
			c-0.021,1.531-0.146,3.064-0.566,4.492c-0.399,1.365-1.05,2.604-2.142,3.59c-0.966,0.883-2.499,1.723-3.695,2.184l-0.105-0.209
			c1.302-0.861,2.436-1.994,3.213-3.318c0.588-1.008,0.986-2.119,1.092-3.316c-0.903,0.629-2.667,1.658-3.843,2.289
			c-0.462,0.252-0.776,0.504-1.176,0.881c-0.104,0.084-0.314,0.105-0.356,0c-0.252-0.482-0.714-1.721-0.903-2.457
			c0.903-0.104,1.722-0.23,2.562-0.42v-5.059h-0.902c-0.294,0-0.672,0.104-0.903,0.252l-0.504-0.904h2.31V44.33
			c0-0.271-0.042-0.859-0.062-1.133c0.818,0.273,1.722,0.588,2.436,0.881c0.146,0.084,0.126,0.336,0,0.379
			c-0.189,0.062-0.399,0.252-0.399,0.441v4.303c0.252-0.355,0.588-0.775,0.819-1.07c0.042-0.062,0.168-0.084,0.252-0.021
			c0.294,0.252,0.566,0.547,0.818,0.84v-1.889c0-0.295,0-0.609-0.062-0.883c0.798,0.357,1.596,0.736,2.352,1.156h3.023
			c-0.063-1.029-0.105-2.121-0.147-3.129c-0.021-0.566-0.084-1.135-0.168-1.68c0.924,0.146,1.785,0.398,2.667,0.693
			c0.146,0.041,0.146,0.252,0.021,0.314c-0.188,0.084-0.462,0.252-0.462,0.482c0,1.008,0.042,2.205,0.126,3.318h1.785
			c0.23-0.295,0.714-0.883,0.882-1.113c0.084-0.127,0.21-0.105,0.336,0c0.524,0.42,1.05,0.924,1.47,1.428
			c0.104,0.125,0.021,0.336-0.147,0.336h-4.241c0.105,1.785,0.252,3.549,0.651,5.229c0.398-1.24,0.734-2.5,0.86-3.863
			c0.819,0.293,1.638,0.65,2.415,1.092c0.126,0.062,0.062,0.293-0.063,0.336c-0.21,0.041-0.504,0.209-0.566,0.461
			c-0.462,1.639-1.092,3.086-2.037,4.514c0.336,0.883,0.882,1.744,1.575,2.457c0.104,0.105,0.252,0.021,0.314-0.105
			c0.462-0.902,0.882-1.867,1.239-2.791l0.252,0.062c-0.105,0.713-0.252,1.512-0.336,2.289c-0.084,0.775-0.042,1.553,0.336,2.246
			C179.553,60.352,179.489,60.771,179.237,61.023z M165.338,49.854v4.576c0.567-0.125,1.281-0.273,1.806-0.461
			c0.126-1.281,0.147-2.898,0.084-4.115H165.338z M176.193,46.326c-0.231-0.043-0.462-0.211-0.483-0.568
			c-0.042-0.545-0.314-1.26-0.84-1.721l0.105-0.23c0.65,0,1.722,0.271,2.12,0.756c0.42,0.504,0.357,0.965,0.063,1.301
			C176.907,46.178,176.529,46.367,176.193,46.326z"/>
	</g>
	<line fill="none" stroke="#000000" stroke-miterlimit="10" x1="20" y1="72" x2="300" y2="72"/>
	<g>
		<path d="M46.933,93.421l-0.483-1.596c2.268-2.561,3.927-5.521,4.955-8.839l1.407,0.672c-0.546,1.659-1.239,3.233-2.079,4.703
			v13.983h-1.512V90.692C48.507,91.657,47.751,92.561,46.933,93.421z M53.189,91.573l-1.302-0.797
			c1.596-2.331,2.75-4.914,3.464-7.748l1.428,0.294c-0.21,0.819-0.462,1.596-0.714,2.331h8.944v0.986
			c-0.336,1.302-0.756,2.582-1.28,3.842l-1.449-0.42c0.483-0.881,0.882-1.848,1.197-2.939H55.52
			C54.848,88.761,54.071,90.229,53.189,91.573z M56.359,91.993c-0.756,2.919-1.742,5.48-2.96,7.686l-1.407-0.504
			c1.134-1.975,2.142-4.494,3.003-7.559L56.359,91.993z M55.394,102.198l-0.314-1.428c0.882,0.062,1.742,0.104,2.54,0.104
			c0.525,0,0.798-0.272,0.798-0.819v-11.17h1.47v11.549c0,1.176-0.588,1.764-1.742,1.764H55.394z M65.535,99.447l-1.323,0.588
			c-0.84-3.065-1.784-5.795-2.813-8.146l1.344-0.44C63.813,93.925,64.737,96.592,65.535,99.447z"/>
		<path d="M77.697,83.091v2.751h8.252v1.47h-8.252v3.213h5.648v1.344c-1.176,2.352-2.877,4.367-5.103,6.047
			c1.05,0.588,2.205,1.154,3.465,1.658c1.49,0.566,3.086,1.05,4.787,1.47l-0.882,1.323c-1.806-0.483-3.527-1.051-5.145-1.723
			c-1.302-0.566-2.456-1.176-3.506-1.848c-2.394,1.512-5.249,2.709-8.588,3.611l-0.86-1.344c3.191-0.756,5.921-1.805,8.167-3.148
			c-1.092-0.84-2.058-1.764-2.855-2.793c-0.776-0.966-1.322-2.037-1.638-3.191h-1.616v-1.406h6.571v-3.213h-8.167v-1.47h8.167
			v-2.751H77.697z M81.645,91.931H72.68c0.378,1.134,0.966,2.121,1.764,2.981c0.714,0.819,1.554,1.554,2.498,2.184
			C78.979,95.668,80.553,93.946,81.645,91.931z"/>
		<path d="M89.323,102.155l-0.315-1.448c0.567,0.063,1.113,0.104,1.638,0.104c0.567,0,0.861-0.314,0.861-0.944v-4.976
			c-0.798,0.293-1.617,0.588-2.457,0.84l-0.378-1.512c0.966-0.231,1.911-0.504,2.835-0.84v-4.809h-2.604v-1.449h2.604v-3.758h1.47
			v3.758h2.184v1.449h-2.184v4.241c0.756-0.336,1.49-0.692,2.226-1.071v1.533c-0.735,0.378-1.47,0.714-2.226,1.029v5.941
			c0,1.26-0.609,1.91-1.806,1.91H89.323z M103.453,93.274v-1.617h1.47v1.617h2.562v1.406h-2.562v5.711
			c0,1.197-0.608,1.807-1.806,1.807h-2.729l-0.294-1.428c0.882,0.062,1.722,0.104,2.52,0.104c0.546,0,0.84-0.294,0.84-0.84v-5.354
			h-7.789v-1.406H103.453z M102.215,83.154v2.163h4.976v1.406h-4.976v2.457h4.409v1.385h-10.12v-1.385h4.241v-2.457h-4.997v-1.406
			h4.997v-2.163H102.215z M100.367,99.048l-1.197,0.84c-0.63-1.049-1.47-2.204-2.54-3.484l1.218-0.735
			C98.939,96.948,99.779,98.083,100.367,99.048z"/>
		<path d="M117.208,84.478c-1.512,4.156-3.527,7.348-6.005,9.553l-1.197-1.029c2.562-2.268,4.493-5.291,5.795-9.091L117.208,84.478z
			 M127.118,101.694l-1.407,0.629c-0.314-0.713-0.63-1.364-0.944-1.994c-3.717,0.566-7.853,1.008-12.388,1.302l-0.273-1.47
			c1.659-0.882,3.759-4.199,6.278-9.952l1.49,0.504c-1.784,3.947-3.59,7.075-5.417,9.364c3.401-0.21,6.614-0.566,9.638-1.05
			c-0.819-1.512-1.659-2.897-2.541-4.157l1.386-0.441C124.557,96.696,125.942,99.132,127.118,101.694z M123.717,83.826
			c0.714,3.716,2.436,6.719,5.144,9.028l-1.196,1.092c-2.562-2.31-4.263-5.207-5.123-8.713h-3.527v-1.407H123.717z"/>
		<path d="M131.495,102.114l-0.315-1.471c0.546,0.043,1.071,0.084,1.575,0.084c0.588,0,0.882-0.293,0.882-0.881v-5.123
			c-0.84,0.356-1.722,0.692-2.604,0.986l-0.378-1.512c1.008-0.273,2.016-0.609,2.981-1.008v-4.787h-2.562v-1.449h2.562v-3.842h1.512
			v3.842h2.394v1.449h-2.394v4.115c0.776-0.378,1.532-0.798,2.288-1.26v1.554c-0.756,0.42-1.512,0.84-2.288,1.218v6.193
			c0,1.26-0.63,1.891-1.869,1.891H131.495z M148.271,92.077v1.407c-0.65,1.974-1.722,3.675-3.233,5.081
			c1.407,0.966,3.129,1.806,5.165,2.52l-0.818,1.302c-2.163-0.84-3.969-1.806-5.417-2.897c-1.638,1.218-3.653,2.205-6.026,2.939
			l-0.818-1.281c2.226-0.692,4.094-1.574,5.627-2.666c-1.617-1.47-2.709-3.107-3.255-4.934h-1.26v-1.471H148.271z M146.906,83.931
			v4.515c0,0.504,0.294,0.776,0.882,0.776h1.764v1.407h-2.142c-1.344,0-1.995-0.63-1.995-1.848v-3.423h-4.073v1.219
			c0,1.973-0.966,3.506-2.897,4.598l-1.008-1.154c1.596-0.777,2.415-1.869,2.415-3.297v-2.793H146.906z M143.819,97.642
			c1.323-1.176,2.31-2.541,2.961-4.094h-5.9C141.426,95.06,142.392,96.424,143.819,97.642z"/>
		<path d="M160.521,91.427h-6.131v10.834h-1.512V83.784h7.643V91.427z M159.01,85.022h-4.619v1.953h4.619V85.022z M154.391,90.167
			h4.619v-1.974h-4.619V90.167z M162.349,91.448v-7.664h7.517v16.398c0,1.344-0.609,2.036-1.785,2.036
			c-0.798,0-1.574-0.021-2.372-0.042l-0.378-1.406c0.798,0.041,1.532,0.062,2.204,0.062c0.546,0,0.84-0.378,0.84-1.134v-8.251
			H162.349z M168.374,85.044h-4.514v1.932h4.514V85.044z M163.86,90.188h4.514v-1.995h-4.514V90.188z"/>
		<path d="M175.66,87.206v-3.863h1.47v3.863h1.868v1.449h-1.868v1.512c0.818,1.05,1.658,2.226,2.498,3.527l-0.84,1.238
			c-0.63-1.301-1.196-2.352-1.658-3.148v10.539h-1.47V91.784c-0.63,2.016-1.428,3.863-2.415,5.5l-0.65-1.616
			c1.386-2.058,2.372-4.388,2.96-7.013h-2.478v-1.449H175.66z M190.819,100.329h1.302v1.386h-13.06v-1.386h1.406v-5.145h10.352
			V100.329z M184.227,92.854h2.058v1.218h-6.488V83.826h6.32v1.218h-1.89v1.994h1.49v3.927h-1.49V92.854z M183.071,87.038v-1.994
			h-1.932v1.994H183.071z M184.373,89.873v-1.722h-3.233v1.722H184.373z M183.071,92.854v-1.89h-1.932v1.89H183.071z
			 M183.533,100.329v-3.821h-1.7v3.821H183.533z M186.452,100.329v-3.821h-1.701v3.821H186.452z M186.683,90.229l-0.882-1.07
			c1.008-1.47,1.68-3.465,2.037-5.984l1.322,0.231c-0.168,1.05-0.356,1.995-0.608,2.855h3.023v1.344h-3.485
			C187.69,88.613,187.229,89.495,186.683,90.229z M191.113,91.133v1.302h-4.263v-1.302H191.113z M189.434,100.329v-3.821h-1.764
			v3.821H189.434z"/>
		<path d="M212.738,84.204v1.49h-9.112v3.171c2.604,1.302,5.249,2.813,7.937,4.535l-0.902,1.344
			c-2.793-1.848-5.145-3.275-7.034-4.283v11.926h-1.532V85.694h-8.021v-1.49H212.738z"/>
		<path d="M220.133,83.7c-0.504,1.574-1.112,3.065-1.848,4.451v14.215h-1.448V90.545c-0.651,0.944-1.365,1.848-2.142,2.688
			l-0.441-1.512c2.079-2.52,3.591-5.396,4.535-8.65L220.133,83.7z M221.519,86.786v11.885h-1.364V86.786H221.519z M227.083,83.175
			c-0.189,0.567-0.42,1.113-0.693,1.617h6.32v1.386h-1.47c-0.42,1.47-1.197,2.688-2.31,3.675c1.238,0.545,2.75,0.965,4.535,1.301
			l-0.546,1.323c-2.1-0.44-3.843-1.028-5.207-1.743c-1.323,0.799-2.981,1.387-4.955,1.764l-0.567-1.26
			c1.68-0.293,3.087-0.713,4.221-1.301c-0.945-0.672-1.638-1.449-2.079-2.311l1.155-0.504c0.462,0.799,1.196,1.471,2.162,2.059
			c1.071-0.819,1.806-1.827,2.184-3.003h-4.367c-0.692,0.882-1.532,1.659-2.52,2.372l-0.86-1.112
			c1.722-1.218,2.897-2.708,3.527-4.451L227.083,83.175z M222.694,101.127c2.394-0.63,4.325-1.386,5.816-2.268
			c1.512-0.86,2.792-1.995,3.842-3.401l1.071,0.818c-0.924,1.428-2.331,2.709-4.221,3.822c-1.89,1.049-3.863,1.848-5.879,2.393
			L222.694,101.127z M229.665,92.645c-0.798,0.672-1.616,1.218-2.436,1.659c-0.882,0.44-2.058,0.902-3.485,1.364l-0.734-1.196
			c1.176-0.273,2.268-0.631,3.233-1.071c0.84-0.42,1.596-0.903,2.31-1.448L229.665,92.645z M231.555,94.282
			c-1.68,2.1-4.136,3.59-7.391,4.514l-0.588-1.301c3.087-0.799,5.417-2.121,6.971-3.969L231.555,94.282z"/>
		<path d="M241.381,97.704h-3.801v1.512h-1.428V84.834h5.229V97.704z M239.974,96.298V86.241h-2.394v10.057H239.974z
			 M244.089,95.752c-0.294,2.163-0.672,4.052-1.134,5.669l-1.28-0.441c0.462-1.448,0.882-3.296,1.238-5.543L244.089,95.752z
			 M254.041,93.253c0,4.494-0.272,7.118-0.776,7.874c-0.525,0.756-1.512,1.134-2.981,1.134c-0.588,0-1.176-0.021-1.785-0.042
			l-0.336-1.364c0.672,0.041,1.281,0.084,1.848,0.084c1.323,0,2.1-0.441,2.31-1.281s0.336-2.562,0.336-5.145h-9.595V83.826h10.834
			v1.28h-4.347v1.869h3.947v1.238h-3.947v1.932h4.011v1.239h-4.011v1.868H254.041z M244.467,85.106v1.869h3.695v-1.869H244.467z
			 M244.467,90.146h3.695v-1.932h-3.695V90.146z M244.467,93.253h3.695v-1.868h-3.695V93.253z M246.608,100.644l-1.218,0.147
			c-0.042-2.184-0.146-3.863-0.272-5.039l1.134-0.126C246.42,96.844,246.546,98.523,246.608,100.644z M249.359,99.679l-1.197,0.272
			c-0.168-1.638-0.398-3.065-0.65-4.283l1.134-0.231C248.897,96.739,249.149,98.146,249.359,99.679z M252.005,98.481l-1.092,0.42
			c-0.294-1.197-0.63-2.352-1.029-3.485l1.071-0.294C251.417,96.34,251.753,97.474,252.005,98.481z"/>
		<path d="M266.84,86.073c0.798,0.713,1.197,1.7,1.197,2.96c0,0.944-0.273,1.764-0.777,2.456c-0.23,0.252-0.798,0.799-1.722,1.617
			c-0.462,0.378-0.776,0.756-0.986,1.134c-0.273,0.462-0.399,0.987-0.399,1.554v0.482h-1.68v-0.482c0-0.756,0.147-1.406,0.462-1.994
			c0.294-0.547,0.756-1.113,1.407-1.701c0.714-0.63,1.154-1.07,1.364-1.322c0.399-0.525,0.609-1.071,0.609-1.659
			c0-0.84-0.252-1.491-0.714-1.952c-0.504-0.504-1.176-0.735-2.058-0.735c-1.05,0-1.827,0.336-2.331,1.028
			c-0.462,0.588-0.692,1.387-0.692,2.415h-1.68c0.021-1.47,0.44-2.646,1.26-3.527c0.84-0.924,2.016-1.386,3.527-1.386
			C264.972,84.96,266.042,85.317,266.84,86.073z M264.236,98.104c0.231,0.231,0.357,0.524,0.357,0.882
			c0,0.378-0.126,0.672-0.357,0.902c-0.252,0.231-0.566,0.357-0.924,0.357c-0.356,0-0.65-0.126-0.902-0.357
			c-0.252-0.252-0.357-0.545-0.357-0.902s0.105-0.65,0.357-0.882c0.252-0.252,0.546-0.356,0.902-0.356
			C263.67,97.747,263.984,97.852,264.236,98.104z"/>
	</g>
</g>
<g id="Layer_2" display="none">
</g>
</svg>
