<?xml version="1.0" encoding="utf-8"?>
<!-- Generator: Adobe Illustrator 17.0.0, SVG Export Plug-In . SVG Version: 6.00 Build 0)  -->
<!DOCTYPE svg PUBLIC "-//W3C//DTD SVG 1.1//EN" "http://www.w3.org/Graphics/SVG/1.1/DTD/svg11.dtd">
<svg version="1.1" xmlns="http://www.w3.org/2000/svg" xmlns:xlink="http://www.w3.org/1999/xlink" x="0px" y="0px" width="320px"
	 height="160px" viewBox="0 0 320 160" enable-background="new 0 0 320 160" xml:space="preserve">
<g id="Layer_3">
</g>
<g id="Layer_1">
	<g>
		<path d="M53.361,9.047H43.21c-0.396,0-1.115,0.145-1.548,0.288l-0.791-1.403h8.351c0.324-0.396,0.972-1.152,1.439-1.728
			c0.181-0.181,0.468-0.145,0.648,0c0.828,0.791,1.619,1.547,2.268,2.375C53.686,8.724,53.577,9.047,53.361,9.047z M52.749,13.583
			h-7.955c-0.684,0-1.151,0.071-1.728,0.252l-0.864-1.368h6.623c0.36-0.468,1.08-1.368,1.44-1.8c0.144-0.18,0.324-0.144,0.468,0
			c0.792,0.72,1.584,1.584,2.231,2.448C53.073,13.295,52.965,13.583,52.749,13.583z M72.619,32.192H54.045
			c-0.54,0-1.584,0.072-2.124,0.324l-0.936-1.44h7.163c-0.18-0.432-0.324-0.936-0.396-1.403c-0.108-1.044-0.469-2.448-1.08-3.239
			c-0.324,0.071-0.684,0.107-0.972,0.035c-0.252-0.107-0.433-0.288-0.433-0.647c0.036-0.72,0.072-2.304,0.072-3.132v-2.483
			c0-0.756-0.036-2.412-0.072-3.132c-1.115,0.936-2.304,1.908-3.455,2.664l-0.36-0.36c0.288-0.324,0.972-1.116,1.404-1.62h-7.812
			c-0.54,0-1.296,0.145-1.8,0.288l-0.863-1.403h6.442c0.505-0.612,1.152-1.404,1.584-1.872c0.072-0.072,0.252-0.107,0.396,0
			c0.828,0.72,1.655,1.584,2.34,2.483c1.26-1.619,2.268-3.419,2.879-5.291c-0.54,0.432-1.008,0.504-1.331,0.288
			c-0.396-0.216-0.648-0.792-0.612-1.512c0-1.224-0.108-2.196-0.504-3.456l0.288-0.288c1.08,0.685,2.304,1.692,2.808,2.88
			c0.468-1.115,0.828-2.771,1.044-4.104h-2.844c-0.468,0-1.296,0.145-1.728,0.324l-0.937-1.439h5.327
			c0.36-0.36,1.009-1.044,1.296-1.332c0.108-0.108,0.324-0.145,0.469-0.072c0.899,0.756,1.871,1.62,2.627,2.412
			c0.145,0.144,0.145,0.396-0.036,0.504c-0.359,0.216-0.684,0.575-0.791,0.972c-0.612,2.304-1.656,4.463-2.88,6.515h3.312
			c0.324-0.539,0.72-1.079,1.224-1.583c0.108-0.072,0.324-0.072,0.432,0.035c0.685,0.612,1.477,1.404,2.017,2.196
			c0.144,0.252,0.071,0.468-0.217,0.468h-4.427c-0.685,0-1.44,0.108-2.088,0.288l-0.648-0.864c-0.647,0.864-1.367,1.692-2.159,2.484
			c1.08,0.504,2.195,1.115,3.275,1.728h5.867c0.324-0.396,0.936-1.116,1.224-1.44c0.145-0.144,0.36-0.107,0.54-0.035
			c0.972,0.611,2.088,1.403,2.952,2.195c0.216,0.18,0.288,0.432,0.071,0.576c-0.432,0.252-0.972,0.828-0.972,1.26v1.655
			c0,0.576,0.036,1.152,0.036,1.729c0.036,0.288-0.144,0.504-0.432,0.72c-0.612,0.432-1.836,0.72-2.556,0.576
			c-0.396-0.072-0.648-0.324-0.648-0.612v-0.324H58.94v0.504c0,0.433-0.504,0.756-0.864,0.9c0.756,0.288,1.692,0.72,2.232,1.403
			c0.468,0.54,0.575,1.152,0.468,1.729c-0.145,0.684-0.54,1.367-1.116,1.835h2.088c0.828-1.728,1.368-3.743,1.728-5.723
			c1.26,0.432,3.204,1.151,4.319,1.584c0.288,0.107,0.252,0.647,0,0.684c-0.504,0.072-1.188,0.324-1.512,0.684
			c-1.151,1.08-2.159,2.016-3.131,2.771h4.499c0.324-0.468,1.116-1.583,1.62-2.195c0.107-0.144,0.323-0.18,0.504-0.072
			c1.008,0.792,2.195,1.836,3.023,2.844C72.906,31.832,72.835,32.192,72.619,32.192z M53.397,22.546
			c-0.433,0.144-0.9,0.684-0.9,1.044v2.663c0,1.008,0.072,2.052,0.145,3.023c0.035,0.36-0.145,0.685-0.54,0.937
			c-0.756,0.396-1.98,0.72-2.556,0.575c-0.324-0.035-0.54-0.216-0.54-0.611v-1.368H46.63v2.916c0,0.252-0.18,0.468-0.432,0.647
			c-0.576,0.36-1.728,0.648-2.592,0.576c-0.36-0.036-0.648-0.324-0.612-0.647c0.036-0.828,0.072-2.304,0.072-3.168v-6.768
			c0-0.792-0.036-2.159-0.108-2.987c1.188,0.504,2.448,1.152,3.6,1.764h2.268c0.288-0.396,0.9-1.044,1.261-1.439
			c0.18-0.18,0.323-0.216,0.539-0.072c0.973,0.684,1.944,1.476,2.808,2.304C53.649,22.113,53.541,22.51,53.397,22.546z
			 M48.609,6.815c-0.54,0.648-1.151,0.792-1.655,0.576c-0.433-0.216-0.828-0.756-0.972-1.476c-0.324-1.477-0.756-2.628-1.692-3.672
			l0.252-0.288c1.152,0.252,2.628,0.684,3.6,1.368c0.612,0.396,0.937,1.044,1.044,1.691C49.258,5.628,49.078,6.275,48.609,6.815z
			 M49.006,22.258H46.63v5.436h2.376V22.258z M65.023,19.522H58.94v4.067h6.083V19.522z M73.482,15.814
			c-0.647,0.036-1.224,0.18-1.8,0.468c-0.72,0.36-1.439,0.937-2.195,1.692c-2.484-1.944-4.212-4.355-5.399-7.02
			c-1.224-2.771-1.872-5.795-2.231-8.891l0.647-0.072c0.396,1.656,0.972,3.239,1.728,4.787c1.296-1.26,2.34-2.735,3.204-4.211
			c0.936,0.756,1.943,1.548,2.735,2.52c0.216,0.288,0.072,0.576-0.107,0.54c-0.288-0.072-0.864-0.036-1.08,0.107
			C67.579,6.6,66.176,7.104,64.664,7.68c0.432,0.756,0.827,1.512,1.403,2.195c1.296-1.044,2.52-2.34,3.384-3.707
			c0.864,0.72,1.836,1.619,2.664,2.52c0.144,0.18,0,0.468-0.181,0.432c-0.396-0.036-1.08,0.072-1.476,0.216
			c-1.188,0.576-2.34,1.008-3.563,1.368c1.836,2.088,4.247,3.527,6.623,4.68L73.482,15.814z"/>
		<path d="M105.556,25.065c-1.656-0.576-3.24-1.476-4.752-2.448c-0.071,0.252-0.216,0.433-0.359,0.504
			c-0.469,0.181-0.792,0.648-0.828,1.152c-0.145,2.268-0.468,4.428-0.972,6.551c-0.252,1.08-1.008,1.872-1.908,2.376
			c-0.863,0.504-1.907,0.756-2.88,0.864c0.036-1.08-0.287-2.016-0.899-2.771c-0.576-0.721-1.439-1.261-2.483-1.513l0.071-0.539
			c1.225,0.18,2.592,0.287,3.888,0.287c0.54,0,1.044-0.396,1.188-0.936c0.324-1.476,0.576-4.14,0.648-6.083h-4.751
			c-0.721,3.023-1.584,5.615-3.996,7.739c-2.771,2.483-6.228,3.455-9.826,3.887l-0.217-0.468c3.132-0.972,5.436-2.447,7.056-4.175
			c1.836-1.908,2.808-4.32,3.348-6.983h-0.937c-0.611,0-1.512,0.252-2.016,0.576l-0.72-1.044c-2.268,1.655-4.716,2.735-7.271,3.635
			l-0.287-0.504c3.527-1.871,7.415-5.111,9.322-8.746H81.15c-1.08,0-2.376,0.216-3.06,0.504l-1.08-1.62h9.539
			c0.684-1.26,1.151-2.447,1.548-3.815H82.95c-0.972,0-2.483,0.252-3.203,0.54l-1.08-1.656h9.755
			c0.756-2.268,1.439-5.759,1.764-8.459c1.224,0.36,3.239,1.08,4.751,1.62c0.324,0.108,0.324,0.504,0,0.576
			C94.325,4.26,93.713,4.8,93.569,5.412c-0.396,1.728-0.828,3.348-1.404,4.967h2.16c1.619-1.512,3.419-5.436,3.959-7.487
			c1.404,0.757,2.987,1.62,3.995,2.484c0.217,0.18,0.072,0.504-0.18,0.54c-0.359,0.036-0.972,0.252-1.26,0.504
			c-1.691,1.476-3.384,2.735-5.184,3.959h4.859c0.612-0.792,1.44-1.836,1.908-2.411c0.18-0.217,0.396-0.181,0.576-0.036
			c1.079,0.899,2.123,1.943,2.951,3.023c0.108,0.144,0,0.54-0.216,0.54H91.77c-0.469,1.332-1.08,2.52-1.729,3.815h12.814
			c0.396-0.576,1.404-1.728,1.944-2.376c0.107-0.144,0.359-0.18,0.504-0.036c1.044,0.9,2.052,1.908,2.808,3.06
			c0.107,0.181-0.036,0.469-0.252,0.469H96.7c1.404,1.548,3.096,2.556,4.896,3.275c2.124,0.792,4.464,1.151,6.804,1.367v0.612
			C106.887,22.042,105.951,23.733,105.556,25.065z M86.514,9.012c-0.432,0.432-1.044,0.647-1.548,0.539
			c-0.504-0.107-0.936-0.468-1.044-1.224c-0.216-1.8-0.863-3.743-2.159-4.967l0.252-0.396c1.583,0.468,3.203,1.008,4.391,2.16
			c0.576,0.576,0.937,1.151,0.973,1.836C87.414,7.644,87.126,8.399,86.514,9.012z M95.368,16.427h-5.831
			c-1.08,1.871-2.663,3.563-4.427,4.967h10.942c0.288-0.324,0.611-0.72,0.972-1.008c0.288-0.252,0.576-0.359,0.936-0.144
			C96.916,19.054,96.017,17.794,95.368,16.427z"/>
		<path d="M142.117,9.012h-26.565c-0.684,0-1.979,0.323-2.591,0.575l-1.296-1.691h15.153c-0.432-0.612-0.575-1.08-0.756-1.728
			c-0.395-1.44-1.331-2.628-2.663-3.708l0.252-0.432c2.088,0.216,4.14,0.576,5.795,1.872c0.576,0.432,0.792,1.224,0.792,1.907
			c-0.036,0.864-0.468,1.548-1.116,2.088h7.092c0.611-0.756,1.331-1.656,2.016-2.447c0.107-0.145,0.359-0.181,0.504-0.072
			c1.26,0.899,2.663,2.016,3.672,3.132C142.477,8.615,142.369,9.012,142.117,9.012z M140.569,31.185
			c-0.864,0.576-1.584,1.403-1.944,2.412c-4.247-1.225-8.278-3.132-11.051-5.939c-4.499,3.959-10.006,5.399-15.657,6.551
			l-0.181-0.432c4.932-2.016,9.863-4.248,13.751-8.567c-1.908-2.699-3.168-5.759-4.212-8.782c-3.023,2.627-5.724,4.139-8.818,5.723
			l-0.324-0.396c3.671-3.563,7.163-7.56,8.999-12.059c1.655,0.684,3.312,1.332,4.715,2.304c0.288,0.18,0.072,0.684-0.144,0.72
			c-0.36,0-1.116,0.252-1.332,0.54c-0.756,0.864-1.476,1.62-2.304,2.376c1.224,2.699,2.808,5.291,5.147,7.415
			c1.943-2.7,3.312-5.724,4.392-8.855c1.115,0.648,3.779,2.52,4.427,3.312c0.145,0.145-0.071,0.612-0.287,0.648
			c-0.505,0.036-1.225,0.18-1.404,0.54c-0.864,1.943-2.304,4.247-4.247,6.443c3.239,2.663,9.215,4.104,13.498,4.571v0.54
			C142.549,30.284,141.469,30.608,140.569,31.185z M140.389,18.946c-0.359,0.468-0.792,0.72-1.26,0.72s-0.972-0.216-1.26-0.792
			c-0.792-1.476-1.439-2.592-2.592-3.779c-1.907-1.979-3.887-3.6-6.083-4.859l0.288-0.396c3.779,0.612,7.559,1.44,10.511,4.067
			c0.756,0.685,1.151,1.584,1.188,2.484C141.217,17.29,140.929,18.19,140.389,18.946z"/>
		<path d="M175.882,19.342c-0.433,0.252-1.009,0.756-1.08,1.404c-0.324,3.384-0.972,6.443-1.908,9.574
			c-0.396,1.404-1.367,2.304-2.52,2.88c-1.116,0.576-2.447,0.864-3.672,1.008c0.036-1.224-0.252-2.195-0.792-2.987
			c-0.539-0.792-1.367-1.368-2.483-1.8l0.072-0.648c1.512,0.324,2.987,0.612,4.571,0.685c0.828,0.036,1.476-0.576,1.656-1.332
			c0.72-2.916,1.188-5.903,1.583-8.963h-2.304c-0.972,2.771-2.268,5.436-4.175,7.703c-1.8,2.124-3.708,3.384-6.3,4.535
			c-2.771,1.26-5.759,2.016-8.854,2.483l-0.216-0.468c2.52-0.899,5.147-2.088,7.486-3.707c1.836-1.26,3.528-2.736,4.896-4.536
			c1.44-1.835,2.304-3.852,3.132-6.011h-2.268c-1.044,2.483-3.168,4.859-5.507,6.551c-2.772,1.944-5.796,3.24-9.035,4.032
			l-0.252-0.504c2.447-1.188,5.039-3.024,7.091-5.22c1.404-1.476,2.556-3.096,3.239-4.859h-1.548
			c-3.095,2.808-6.515,4.823-10.15,6.407l-0.359-0.468c3.455-2.592,6.982-6.012,8.854-9.755c-0.648,0.144-1.296,0.252-2.016,0.288
			c-0.432,0-0.685-0.145-0.648-0.54c0.036-2.304,0.108-5.075,0.108-6.587V4.224c0-0.684,0-1.367-0.072-2.016
			c1.44,0.54,2.808,1.116,4.283,1.656h10.511c0.36-0.36,1.08-1.116,1.404-1.44c0.18-0.216,0.432-0.252,0.684-0.107
			c0.792,0.468,2.016,1.403,2.808,2.159c0.252,0.216,0.108,0.612-0.144,0.756c-0.324,0.181-0.864,0.576-0.864,1.044v4.968
			c0,1.008,0.072,2.016,0.108,2.987c0.036,0.288-0.036,0.504-0.288,0.612c-0.936,0.432-2.016,0.72-3.023,0.863
			c-0.36,0.036-0.576-0.216-0.576-0.611v-1.008h-9.935c0.972,0.504,2.016,1.008,2.951,1.548c0.252,0.144,0.181,0.54-0.071,0.575
			c-0.433,0.108-0.864,0.217-1.152,0.504c-0.396,0.36-0.864,0.9-1.26,1.296h13.246c0.36-0.432,1.116-1.296,1.368-1.583
			c0.144-0.145,0.432-0.108,0.611,0.035c0.937,0.685,2.052,1.44,2.844,2.269C176.098,18.91,176.098,19.234,175.882,19.342z
			 M167.314,5.016h-11.051v3.42h11.051V5.016z M167.314,9.551h-11.051v3.42h11.051V9.551z"/>
		<path d="M194.1,5.483c-0.576-0.107-1.116-0.144-1.836,0.036c-2.268,0.612-4.823,1.08-6.84,1.26v5.399h3.384
			c0.396-0.54,1.188-1.619,1.692-2.195c1.151,0.72,2.447,1.691,3.455,2.699c0.216,0.216,0.108,0.648-0.216,0.756
			c-0.288,0.108-0.576,0.288-0.792,0.468c-0.144,0.145-0.216,0.396-0.216,0.576v3.348c0,1.152,0.072,2.34,0.107,3.42
			c0,0.396-0.216,0.647-0.504,0.863c-0.647,0.433-1.728,0.828-2.52,0.864c-0.396,0.036-0.792-0.216-0.756-0.647
			c0.036-0.54,0.072-1.152,0.072-1.62h-3.779c-0.504,4.535-2.52,8.854-6.228,13.139l-0.324-0.324
			c2.232-4.535,2.88-8.531,2.88-13.139V4.152c1.08,0.432,2.628,1.188,3.708,1.728c2.483-1.296,4.355-2.664,5.723-4.176
			c1.152,0.936,2.34,2.016,3.348,3.132C194.675,5.088,194.495,5.556,194.1,5.483z M189.023,13.295h-3.6v6.335h3.6V13.295z
			 M210.441,15.383h-4.536v11.086c0,1.332,0.145,3.924,0.252,5.472c0.036,0.36-0.071,0.576-0.323,0.792
			c-0.792,0.792-2.16,1.188-3.276,1.08c-0.252-0.036-0.468-0.252-0.432-0.648c0.036-1.332,0.072-3.419,0.072-5.075V15.383h-3.204
			c0.181,4.067-0.504,7.595-2.123,10.582c-1.836,3.384-4.823,6.048-8.963,7.884l-0.288-0.396c2.663-2.304,4.715-4.932,6.047-7.919
			c1.044-2.376,1.584-4.968,1.584-7.775V4.691c0.9,0.324,2.483,1.08,3.672,1.692c2.483-1.08,4.931-2.52,6.875-4.68
			c1.26,0.936,2.628,2.34,3.563,3.312c0.252,0.252-0.072,0.72-0.468,0.648c-0.576-0.108-1.116-0.145-1.692-0.036
			c-2.808,0.756-5.399,1.26-8.207,1.691v6.947h6.12c0.539-0.792,1.331-1.872,1.799-2.556c0.108-0.144,0.36-0.144,0.505-0.036
			c1.151,0.864,2.375,1.979,3.275,3.096C210.837,14.915,210.693,15.383,210.441,15.383z"/>
		<path d="M224.94,11.854c-0.684,0.108-1.26,0.433-1.512,0.721c-0.504,0.72-1.439,1.943-2.195,2.808
			c0.36,0.107,0.612,0.252,0.899,0.468c0.181,0.144,0.181,0.611-0.071,0.72c-0.433,0.216-0.685,0.504-0.685,0.864v10.942
			c0,1.08,0.108,3.023,0.108,3.924c0.036,0.396-0.108,0.756-0.468,0.936c-0.756,0.36-1.836,0.647-2.916,0.792
			c-0.324,0.036-0.54-0.252-0.54-0.504c0.036-1.548,0.108-3.6,0.108-5.039v-9.432c-1.404,1.296-2.952,2.592-4.464,3.672
			l-0.359-0.324c3.348-4.319,6.227-8.782,7.955-13.714c1.439,0.756,2.808,1.476,4.175,2.447
			C225.229,11.279,225.192,11.783,224.94,11.854z M224.221,4.8c-0.359,0.036-0.972,0.324-1.224,0.576
			c-2.88,2.808-6.047,5.003-9.395,6.767l-0.36-0.288c2.808-3.131,5.292-6.299,6.947-9.862c1.439,0.647,2.88,1.404,4.14,2.195
			C224.545,4.332,224.437,4.8,224.221,4.8z M244.631,22.546h-5.58v6.479c0,1.62-0.359,2.7-1.188,3.384
			c-0.864,0.648-2.16,1.188-3.96,1.656c-0.035-0.864-0.432-1.692-1.008-2.376c-0.756-0.936-1.907-1.656-2.951-1.979l0.072-0.54
			c1.367,0.144,2.915,0.324,4.427,0.359c0.324,0.036,0.828-0.252,0.828-0.647v-6.335h-7.163c1.296,0.575,2.448,1.367,3.023,2.123
			c0.468,0.648,0.504,1.477,0.216,2.196c-0.359,0.972-1.367,1.655-2.159,1.655c-0.648,0-1.188-0.468-1.26-1.548
			c-0.036-1.691-0.468-3.167-1.332-4.427h-2.412c-0.539,0-1.115,0.071-1.655,0.252l-0.792-1.368h13.534v-3.096h-9.719
			c-0.468,0-0.972,0.108-1.403,0.252l-0.937-1.403h16.055c0.468-0.685,1.043-1.404,1.691-2.052c0.144-0.145,0.324-0.036,0.468,0.036
			c0.972,0.791,2.016,1.764,2.808,2.627c0.18,0.216-0.036,0.54-0.288,0.54h-4.896v3.096h0.828c0.468-0.576,1.08-1.26,1.548-1.872
			c0.108-0.144,0.36-0.144,0.504-0.035c0.936,0.72,2.016,1.583,2.844,2.447C244.99,22.149,244.847,22.546,244.631,22.546z
			 M241.211,5.952c-0.684,0.252-1.188,0.684-1.188,1.008v4.067c0,1.079,0.035,2.123,0.071,3.167c0.036,0.433-0.144,0.756-0.54,0.937
			c-0.827,0.288-1.907,0.575-2.556,0.684c-0.323,0.036-0.684-0.108-0.684-0.396v-1.477h-6.335v0.576c0,0.324-0.216,0.756-0.612,0.9
			c-0.828,0.323-1.655,0.539-2.556,0.647c-0.324,0.036-0.647-0.144-0.647-0.54c0.071-0.863,0.144-2.592,0.144-3.852V5.52
			c0-0.828,0-1.943-0.072-2.663c1.368,0.54,2.7,1.115,4.032,1.764h5.938c0.36-0.433,1.044-1.224,1.368-1.548
			c0.108-0.108,0.36-0.145,0.54-0.036c1.044,0.684,2.16,1.512,3.132,2.34C241.354,5.483,241.391,5.916,241.211,5.952z
			 M236.315,5.735h-6.335v2.916h6.335V5.735z M236.315,9.768h-6.335v3.096h6.335V9.768z"/>
		<path d="M278.081,31.94c-0.504,0.54-1.151,0.899-2.123,1.008c-1.477,0.145-3.132,0.145-4.68,0.072
			c-1.008-0.036-1.764-0.288-2.268-0.828s-0.756-1.296-0.756-2.231V19.846h-1.008c-0.072,3.023-0.288,6.155-1.656,8.711
			c-1.655,3.096-5.111,4.968-8.423,5.724l-0.18-0.432c2.735-1.332,5.327-4.14,5.939-7.128c0.396-1.943,0.611-3.959,0.684-6.083
			c-0.612,0.288-1.404,0.612-2.16,0.576c-0.359-0.036-0.54-0.252-0.54-0.648c0.072-1.079,0.072-2.123,0.072-3.203v-4.031h-4.463
			v2.951c1.008,0.36,2.195,0.828,2.987,1.656c0.576,0.54,0.864,1.296,0.864,2.052c0,0.792-0.324,1.548-0.937,2.123
			c-0.396,0.396-0.792,0.54-1.08,0.433c-0.396-0.108-0.684-0.612-0.72-1.296c-0.144-1.404-0.432-2.376-1.115-3.6v8.639
			c0,2.124,0.071,4.283,0.107,6.012c0.036,0.504-0.072,0.684-0.468,0.936c-0.684,0.468-1.908,0.828-2.916,0.792
			c-0.287-0.036-0.611-0.216-0.575-0.576c0.036-1.872,0.18-5.543,0.18-7.343v-4.428c-1.728,2.304-3.491,4.644-5.724,6.587
			l-0.323-0.252c2.735-4.392,4.319-9.286,5.65-14.686h-2.268c-0.684,0-1.403,0.107-1.979,0.323l-0.828-1.439h5.472v-4.68
			c-1.62,0.145-3.275,0.288-5.039,0.36l-0.145-0.468c3.6-1.26,7.02-2.771,10.079-5.256c1.115,1.08,2.376,2.412,3.167,3.563
			c0.217,0.288,0,0.469-0.252,0.433c-0.756-0.145-1.8-0.108-2.556,0.18c-0.504,0.18-1.044,0.324-1.583,0.432v5.436h0.575
			c0.324-0.504,0.973-1.439,1.26-1.836c0.145-0.216,0.469-0.216,0.612-0.071c0.72,0.72,1.332,1.367,2.016,2.123V10.56
			c0-0.504-0.036-1.009-0.107-1.513c1.367,0.576,2.556,1.152,3.887,1.836h3.636c1.332-2.844,2.231-5.867,2.771-8.963
			c1.584,0.576,3.563,1.332,4.788,1.98c0.288,0.18,0.216,0.539,0,0.647c-0.648,0.288-1.225,0.504-1.692,1.152
			c-1.115,1.691-2.771,3.635-4.319,5.183h2.412c0.323-0.396,0.972-1.151,1.224-1.476c0.18-0.18,0.396-0.252,0.647-0.108
			c1.008,0.576,2.16,1.44,2.916,2.052c0.216,0.181,0.144,0.576-0.072,0.685c-0.323,0.144-1.008,0.684-1.008,1.08v3.599
			c0,1.009,0,1.944,0.036,2.988c0,0.324-0.18,0.684-0.468,0.792c-0.792,0.323-1.656,0.575-2.52,0.504
			c-0.396-0.036-0.648-0.252-0.648-0.504v-0.648h-0.54v8.999c0,0.36,0.324,0.54,0.648,0.54c0.54,0.072,1.26,0.072,1.8,0.036
			c0.611-0.072,0.936-0.72,1.044-1.26c0.252-1.368,0.324-2.844,0.432-4.212h0.54c0.036,1.26,0.108,2.34,0.432,3.204
			c0.324,1.044,1.044,1.8,2.448,2.159C278.981,30.356,278.657,31.293,278.081,31.94z M266.635,8.976
			c-0.54,0.611-1.224,0.899-1.764,0.792c-0.54-0.108-0.936-0.648-1.008-1.584c-0.145-1.8-0.864-3.924-2.268-5.579l0.396-0.217
			c1.62,0.54,3.779,1.44,4.788,2.772c0.432,0.611,0.684,1.224,0.684,1.871C267.463,7.716,267.211,8.363,266.635,8.976z
			 M272.466,11.999h-7.738v6.731h7.738V11.999z"/>
	</g>
	<g>
		<path d="M157.744,59.406c-0.336,0.377-0.588,0.84-0.756,1.449c-2.016,0.041-4.094,0.062-6.089-0.252
			c-2.12-0.316-4.073-1.051-5.605-2.771c-0.21-0.232-0.336-0.463-0.672-0.504c-0.399-0.021-0.546,0.23-0.819,0.566
			c-0.42,0.504-0.84,1.113-1.176,1.658c-0.168,0.295-0.398,0.273-0.504,0.105c-0.462-0.734-0.966-1.533-1.364-2.227
			c-0.105-0.188-0.021-0.377,0.146-0.398c0.882-0.125,1.764-0.357,2.604-0.65c0.609-0.211,1.218-0.482,1.764-0.883
			c2.709-1.91,5.963-4.346,8-6.781h-9.764c-0.546,0-1.028,0.043-1.302,0.168l-0.63-0.818h12.115c0.44-0.463,0.924-0.861,1.302-1.197
			c0.084-0.084,0.252-0.084,0.356,0c0.63,0.482,1.365,1.051,1.869,1.574c0.23,0.232,0.126,0.441-0.147,0.547
			c-0.65,0.252-1.238,0.672-1.784,1.176c-2.709,2.477-6.278,4.576-9.848,6.424c1.239,0.883,2.751,1.408,4.263,1.576
			c3.149,0.314,6.025,0.125,9.49,0.02v0.273C158.647,58.607,158.122,58.965,157.744,59.406z M150.249,47.459
			c-0.273,0.021-0.483-0.084-0.672-0.23c-0.231-0.211-0.315-0.504-0.399-0.84c-0.146-0.631-0.356-1.219-0.692-1.742
			c-0.336-0.504-0.714-0.945-1.155-1.387l0.147-0.293c1.386,0.336,2.813,0.629,3.821,1.783c0.336,0.379,0.356,1.029,0.21,1.512
			C151.299,46.83,150.795,47.291,150.249,47.459z"/>
		<path d="M179.237,61.023c-0.23,0.23-0.608,0.336-1.028,0.209c-1.512-0.461-3.087-2.457-3.717-3.779
			c-1.848,1.742-3.989,2.918-6.277,3.674l-0.105-0.252c2.184-1.111,4.347-2.771,5.816-4.934c-0.798-2.498-1.071-5.207-1.302-7.957
			h-3.359v2.561h1.07c0.168-0.209,0.441-0.588,0.588-0.756c0.063-0.084,0.252-0.062,0.315-0.02c0.504,0.355,1.028,0.775,1.428,1.176
			c0.126,0.125,0.084,0.293-0.042,0.398s-0.42,0.314-0.42,0.588c0,1.512-0.189,2.855-0.294,4.346
			c-0.042,0.525-0.231,0.924-0.525,1.219c-0.356,0.355-0.882,0.566-1.406,0.691c0.021-0.797-0.399-1.553-1.113-1.932v-0.23
			c0.273,0.043,0.588,0.043,0.882,0.043c0.21,0,0.378-0.189,0.399-0.4c0.104-1.512,0.21-3.023,0.188-4.471h-1.05
			c-0.021,1.531-0.146,3.064-0.566,4.492c-0.399,1.365-1.05,2.604-2.142,3.59c-0.966,0.883-2.499,1.723-3.695,2.184l-0.105-0.209
			c1.302-0.861,2.436-1.994,3.213-3.318c0.588-1.008,0.986-2.119,1.092-3.316c-0.903,0.629-2.667,1.658-3.843,2.289
			c-0.462,0.252-0.776,0.504-1.176,0.881c-0.104,0.084-0.314,0.105-0.356,0c-0.252-0.482-0.714-1.721-0.903-2.457
			c0.903-0.104,1.722-0.23,2.562-0.42v-5.059h-0.902c-0.294,0-0.672,0.104-0.903,0.252l-0.504-0.904h2.31V44.33
			c0-0.271-0.042-0.859-0.062-1.133c0.818,0.273,1.722,0.588,2.436,0.881c0.146,0.084,0.126,0.336,0,0.379
			c-0.189,0.062-0.399,0.252-0.399,0.441v4.303c0.252-0.355,0.588-0.775,0.819-1.07c0.042-0.062,0.168-0.084,0.252-0.021
			c0.294,0.252,0.566,0.547,0.818,0.84v-1.889c0-0.295,0-0.609-0.062-0.883c0.798,0.357,1.596,0.736,2.352,1.156h3.023
			c-0.063-1.029-0.105-2.121-0.147-3.129c-0.021-0.566-0.084-1.135-0.168-1.68c0.924,0.146,1.785,0.398,2.667,0.693
			c0.146,0.041,0.146,0.252,0.021,0.314c-0.188,0.084-0.462,0.252-0.462,0.482c0,1.008,0.042,2.205,0.126,3.318h1.785
			c0.23-0.295,0.714-0.883,0.882-1.113c0.084-0.127,0.21-0.105,0.336,0c0.524,0.42,1.05,0.924,1.47,1.428
			c0.104,0.125,0.021,0.336-0.147,0.336h-4.241c0.105,1.785,0.252,3.549,0.651,5.229c0.398-1.24,0.734-2.5,0.86-3.863
			c0.819,0.293,1.638,0.65,2.415,1.092c0.126,0.062,0.062,0.293-0.063,0.336c-0.21,0.041-0.504,0.209-0.566,0.461
			c-0.462,1.639-1.092,3.086-2.037,4.514c0.336,0.883,0.882,1.744,1.575,2.457c0.104,0.105,0.252,0.021,0.314-0.105
			c0.462-0.902,0.882-1.867,1.239-2.791l0.252,0.062c-0.105,0.713-0.252,1.512-0.336,2.289c-0.084,0.775-0.042,1.553,0.336,2.246
			C179.553,60.352,179.489,60.771,179.237,61.023z M165.338,49.854v4.576c0.567-0.125,1.281-0.273,1.806-0.461
			c0.126-1.281,0.147-2.898,0.084-4.115H165.338z M176.193,46.326c-0.231-0.043-0.462-0.211-0.483-0.568
			c-0.042-0.545-0.314-1.26-0.84-1.721l0.105-0.23c0.65,0,1.722,0.271,2.12,0.756c0.42,0.504,0.357,0.965,0.063,1.301
			C176.907,46.178,176.529,46.367,176.193,46.326z"/>
	</g>
	<line fill="none" stroke="#000000" stroke-miterlimit="10" x1="20" y1="72" x2="300" y2="72"/>
	<g>
		<path d="M108.315,93.422l-0.482-1.596c2.268-2.561,3.926-5.521,4.955-8.84l1.406,0.672c-0.546,1.66-1.238,3.234-2.078,4.703
			v13.984h-1.512V90.693C109.891,91.658,109.135,92.561,108.315,93.422z M114.572,91.574l-1.302-0.797
			c1.596-2.332,2.751-4.914,3.465-7.748l1.428,0.293c-0.21,0.82-0.462,1.596-0.714,2.332h8.944v0.986
			c-0.336,1.301-0.756,2.582-1.281,3.842l-1.448-0.42c0.482-0.881,0.882-1.848,1.196-2.939h-7.957
			C116.231,88.762,115.454,90.23,114.572,91.574z M117.743,91.994c-0.756,2.918-1.743,5.48-2.961,7.686l-1.406-0.504
			c1.134-1.975,2.142-4.494,3.002-7.559L117.743,91.994z M116.777,102.199l-0.315-1.428c0.882,0.062,1.743,0.104,2.541,0.104
			c0.524,0,0.798-0.271,0.798-0.818v-11.17h1.47v11.549c0,1.176-0.588,1.764-1.743,1.764H116.777z M126.918,99.447l-1.322,0.588
			c-0.84-3.064-1.785-5.795-2.813-8.146l1.344-0.439C125.196,93.926,126.12,96.592,126.918,99.447z"/>
		<path d="M139.081,83.092v2.75h8.251v1.471h-8.251v3.213h5.647v1.344c-1.176,2.352-2.876,4.367-5.102,6.047
			c1.05,0.588,2.204,1.154,3.464,1.658c1.491,0.566,3.087,1.049,4.787,1.469l-0.882,1.324c-1.806-0.484-3.527-1.051-5.144-1.723
			c-1.302-0.566-2.457-1.176-3.507-1.848c-2.394,1.512-5.249,2.709-8.587,3.611l-0.861-1.344c3.191-0.756,5.921-1.805,8.168-3.148
			c-1.092-0.84-2.058-1.764-2.855-2.793c-0.777-0.967-1.323-2.037-1.638-3.191h-1.617v-1.406h6.572v-3.213h-8.168v-1.471h8.168
			v-2.75H139.081z M143.028,91.932h-8.966c0.378,1.133,0.966,2.121,1.764,2.98c0.714,0.82,1.554,1.555,2.499,2.184
			C140.361,95.668,141.937,93.947,143.028,91.932z"/>
		<path d="M150.706,102.156l-0.314-1.449c0.566,0.064,1.112,0.105,1.638,0.105c0.566,0,0.86-0.314,0.86-0.945v-4.975
			c-0.798,0.293-1.616,0.588-2.456,0.84l-0.378-1.512c0.966-0.232,1.91-0.504,2.834-0.84v-4.809h-2.604v-1.449h2.604v-3.758h1.47
			v3.758h2.184v1.449h-2.184v4.24c0.756-0.336,1.491-0.691,2.226-1.07v1.533c-0.734,0.377-1.47,0.713-2.226,1.029v5.941
			c0,1.26-0.608,1.91-1.806,1.91H150.706z M164.837,93.275v-1.617h1.47v1.617h2.562v1.406h-2.562v5.711
			c0,1.197-0.609,1.807-1.806,1.807h-2.729l-0.294-1.428c0.882,0.062,1.722,0.104,2.52,0.104c0.546,0,0.84-0.293,0.84-0.84v-5.354
			h-7.79v-1.406H164.837z M163.598,83.154v2.164h4.977v1.406h-4.977v2.457h4.409v1.385h-10.12v-1.385h4.241v-2.457h-4.997v-1.406
			h4.997v-2.164H163.598z M161.75,99.049l-1.196,0.84c-0.63-1.049-1.47-2.205-2.541-3.484l1.218-0.736
			C160.322,96.949,161.162,98.084,161.75,99.049z"/>
		<path d="M174.161,85.842c-0.294-0.84-0.651-1.658-1.029-2.414l1.449-0.398c0.398,0.924,0.714,1.785,0.924,2.541l-0.714,0.271
			h3.485v1.408h-7.139v-1.408H174.161z M177.583,100.98h-4.346v1.238h-1.428v-7.264h5.773V100.98z M177.415,88.93v1.322h-5.417
			V88.93H177.415z M177.415,91.848v1.322h-5.417v-1.322H177.415z M176.155,99.637v-3.338h-2.918v3.338H176.155z M188.816,83.975
			v7.979h-4.031v2.035h4.955v1.428h-3.717c0.882,1.869,2.331,3.549,4.389,5.02l-0.987,1.217c-2.162-1.889-3.674-3.969-4.535-6.236
			h-0.104v6.992h-1.47v-6.992h-0.042c-0.966,2.52-2.583,4.6-4.829,6.236l-0.777-1.301c2.016-1.303,3.507-2.939,4.431-4.936h-3.653
			v-1.428h4.871v-2.035h-4.031v-7.979H188.816z M183.315,87.354v-2.035h-2.604v2.035H183.315z M183.315,88.594h-2.604v2.035h2.604
			V88.594z M184.785,87.354h2.624v-2.035h-2.624V87.354z M187.409,88.594h-2.624v2.035h2.624V88.594z"/>
		<path d="M196.702,83.658c-0.84,2.332-2.205,4.389-4.095,6.195l-0.462-1.471c1.491-1.553,2.583-3.338,3.255-5.332L196.702,83.658z
			 M197.185,89.496c-0.378,0.902-0.818,1.764-1.322,2.582v10.289h-1.428v-8.398c-0.546,0.629-1.155,1.217-1.785,1.764l-0.44-1.449
			c1.7-1.574,2.939-3.381,3.695-5.396L197.185,89.496z M200.229,96.697v-1.869c-0.84,0.084-1.68,0.168-2.562,0.232l-0.273-1.24
			c2.478-0.125,4.661-0.377,6.572-0.713l0.42,1.133c-0.861,0.168-1.785,0.316-2.771,0.441v2.016h2.792v1.238h-2.792v2.227
			c0.924-0.105,1.848-0.211,2.729-0.336v1.008c1.218-1.07,2.204-2.414,2.939-4.053c-0.714-1.596-1.302-3.316-1.722-5.186l1.07-0.609
			c0.336,1.471,0.777,2.814,1.302,4.074c0.672-2.059,1.029-4.494,1.113-7.266h-2.1c-0.609,1.975-1.386,3.611-2.352,4.914
			l-0.693-0.861h-6.677v-1.322h7.097v0.271c1.092-2.016,1.848-4.576,2.268-7.684l1.344,0.252c-0.168,1.092-0.356,2.121-0.608,3.064
			h3.989v1.365h-1.008c-0.084,3.527-0.609,6.51-1.575,8.986c0.84,1.617,1.827,3.066,3.003,4.326l-0.966,1.111
			c-1.05-1.176-1.974-2.477-2.729-3.904c-0.798,1.533-1.806,2.834-3.003,3.885l-0.714-1.135c-2.016,0.295-4.157,0.525-6.467,0.715
			l-0.336-1.26c0.924-0.064,1.827-0.127,2.709-0.211v-2.373h-2.855v-1.238H200.229z M201.678,83.176v4.451h1.428v-3.484h1.26v4.787
			h-6.655v-4.746h1.238v3.443h1.47v-4.451H201.678z"/>
		<path d="M72.305,110.664l-0.776,0.316h3.464v1.406h-6.845v-1.406h2.835c-0.273-0.82-0.588-1.617-0.966-2.373l1.448-0.398
			C71.822,109.111,72.095,109.93,72.305,110.664z M70.079,127.482h-1.448v-7.328h5.773v7.055h-1.448v-0.965h-2.877V127.482z
			 M74.278,114.066v1.344h-5.521v-1.344H74.278z M74.278,117.006v1.344h-5.521v-1.344H74.278z M72.956,121.52h-2.877v3.318h2.877
			V121.52z M75.602,117.131l-0.861-1.133c1.029-0.631,1.911-1.344,2.625-2.184c-0.546-0.547-1.197-1.092-1.953-1.658l0.924-0.883
			c0.672,0.504,1.26,1.029,1.764,1.555c0.504-0.777,0.924-1.596,1.218-2.457H76v-1.281h4.619v1.07
			c-0.462,1.66-1.154,3.088-2.1,4.283h5.438v1.324h-5.48v-1.26C77.68,115.535,76.714,116.418,75.602,117.131z M78.478,125.678
			c-0.356-0.715-0.776-1.408-1.26-2.037l1.365-0.504c0.482,0.713,0.924,1.553,1.322,2.541h2.478c0.462-0.799,0.882-1.66,1.26-2.562
			l1.365,0.463c-0.336,0.797-0.714,1.49-1.134,2.1h3.044v1.385H75.392v-1.385H78.478z M85.512,117.594v4.996h-8.924v-4.996H85.512z
			 M84.084,118.875h-6.068v2.455h6.068V118.875z M83.118,110.182c0.63-0.545,1.176-1.154,1.658-1.826l0.966,0.861
			c-0.588,0.797-1.28,1.49-2.1,2.1c0.252,0.482,0.504,0.943,0.798,1.406c0.714-0.631,1.323-1.303,1.827-2.059l0.986,0.883
			c-0.588,0.818-1.28,1.553-2.078,2.184c0.63,0.818,1.322,1.533,2.12,2.162l-0.924,1.07c-2.352-2.035-4.01-4.682-4.934-7.936
			l1.07-0.609C82.677,109.027,82.887,109.615,83.118,110.182z"/>
		<path d="M93.41,120.91v-1.133c-1.071,0.818-2.226,1.533-3.443,2.121l-0.84-1.281c2.226-0.967,4.073-2.268,5.521-3.906h-4.871
			v-1.385h5.942c0.482-0.734,0.902-1.512,1.26-2.311h-6.047v-1.344h6.593c0.378-1.133,0.65-2.33,0.86-3.59l1.491,0.189
			c-0.21,1.217-0.483,2.352-0.819,3.4h4.263l-1.071-0.607c0.672-0.84,1.218-1.807,1.659-2.92l1.26,0.463
			c-0.483,1.176-1.071,2.184-1.785,3.064h3.297v1.344h-8.126c-0.336,0.82-0.734,1.596-1.154,2.311h10.435v1.385h-4.598
			c1.07,1.428,2.813,2.73,5.249,3.863l-0.966,1.24c-1.218-0.693-2.247-1.408-3.129-2.121c-0.062,1.848-0.168,3.359-0.314,4.514
			c-0.168,1.176-0.462,1.994-0.861,2.457c-0.398,0.441-1.028,0.693-1.89,0.734h-3.128l-0.399-1.406
			c0.987,0.041,1.911,0.062,2.793,0.062s1.47-0.314,1.764-0.945c0.294-0.672,0.482-2.057,0.566-4.199h-5.144
			c-0.42,1.576-1.008,2.836-1.743,3.779c-0.902,1.051-2.246,2.016-4.052,2.877l-0.945-1.197c1.638-0.713,2.877-1.512,3.717-2.371
			c0.714-0.799,1.238-1.828,1.616-3.088H93.41z M95.468,111.084l-1.218,0.568c-0.504-1.113-1.029-2.1-1.617-2.961l1.302-0.42
			C94.522,109.152,95.048,110.076,95.468,111.084z M93.746,119.525h10.456c-1.092-0.924-1.911-1.848-2.499-2.814h-5.249
			C95.656,117.762,94.754,118.707,93.746,119.525z"/>
		<path d="M124.246,117.404c-1.008,1.932-2.226,3.59-3.674,4.998c2.268,1.637,5.018,2.855,8.293,3.695l-0.944,1.406
			c-3.401-0.967-6.236-2.311-8.504-4.074c-2.352,1.891-5.207,3.275-8.566,4.158l-0.924-1.387c3.317-0.84,6.068-2.1,8.272-3.779
			c-1.532-1.385-2.792-2.98-3.779-4.744l1.302-0.734c0.924,1.721,2.142,3.211,3.633,4.492c1.428-1.344,2.604-2.877,3.506-4.641
			L124.246,117.404z M118.725,110.791c-0.378-0.861-0.798-1.639-1.26-2.352l1.68-0.295c0.42,0.799,0.84,1.68,1.218,2.646h8.272
			v1.449h-18.582v-1.449H118.725z M116.981,113.855c-1.596,2.08-3.569,3.906-5.921,5.459l-0.966-1.279
			c2.289-1.471,4.221-3.172,5.795-5.145L116.981,113.855z M128.509,118.391l-1.113,1.113c-1.386-1.764-3.317-3.633-5.773-5.648
			l1.028-0.986C124.981,114.717,126.934,116.543,128.509,118.391z"/>
		<path d="M133.19,116.459v-7.391h12.871v7.391h-8.252c-0.378,0.588-0.84,1.156-1.344,1.701h11.128
			c-0.062,2.246-0.188,4.074-0.378,5.459c-0.21,1.365-0.524,2.33-0.966,2.877c-0.44,0.504-1.154,0.797-2.162,0.84h-2.709
			l-0.398-1.406c0.84,0.041,1.638,0.062,2.394,0.062c1.028,0,1.7-0.398,2.036-1.197c0.336-0.84,0.546-2.604,0.651-5.291h-2.016
			c-1.806,4.031-4.683,6.678-8.65,7.979l-0.861-1.26c3.695-1.176,6.362-3.4,7.979-6.719h-2.771c-1.47,2.352-3.842,4.178-7.139,5.48
			l-0.944-1.154c3.023-1.113,5.186-2.562,6.509-4.326h-3.213c-1.028,0.777-2.226,1.49-3.611,2.121l-0.818-1.344
			c2.54-1.008,4.409-2.268,5.585-3.822H133.19z M144.57,112.156v-1.785h-9.889v1.785H144.57z M144.57,113.373h-9.889v1.807h9.889
			V113.373z"/>
		<path d="M153.022,120.658c-0.252,2.604-0.902,4.893-1.952,6.846l-1.05-1.092c1.134-2.143,1.722-4.662,1.764-7.602v-8.713
			c2.498-0.293,4.451-0.881,5.879-1.742l1.008,1.154c-1.512,0.818-3.359,1.387-5.543,1.701v2.436h5.375v7.012H153.022z
			 M153.128,118.811c0,0.148-0.021,0.295-0.021,0.463h4.011v-4.158h-3.989V118.811z M161.673,119.357
			c-0.042,3.633-0.504,6.361-1.428,8.188l-1.364-0.672c0.902-1.783,1.386-4.283,1.428-7.516v-9.49
			c2.96-0.127,5.479-0.609,7.537-1.471l0.756,1.324c-2.078,0.797-4.388,1.26-6.949,1.385l0.021,3.674h7.664v1.449h-2.373v11.316
			h-1.49v-11.316h-3.801V119.357z"/>
		<path d="M177.54,108.859c-1.155,2.268-3.045,4.283-5.669,6.047l-0.441-1.471c2.226-1.512,3.843-3.232,4.851-5.164L177.54,108.859z
			 M171.934,120.723l-0.44-1.449c2.226-1.658,3.863-3.549,4.871-5.648l1.302,0.588c-0.504,1.029-1.113,1.994-1.848,2.918v10.414
			h-1.47v-8.818C173.613,119.42,172.815,120.092,171.934,120.723z M190.222,117.215v1.324h-2.541v1.783h3.023v1.324h-3.023v4.031
			c0,1.154-0.608,1.742-1.826,1.742h-2.331l-0.314-1.428c0.756,0.062,1.448,0.105,2.12,0.105c0.567,0,0.861-0.273,0.861-0.777
			v-3.674h-8.84v-1.324h8.84v-1.783h-8.084v-1.324H190.222z M188.962,109.027v6.697h-9.932v-6.697H188.962z M183.062,125.361
			l-1.154,0.799c-0.693-0.967-1.596-2.016-2.688-3.107l1.092-0.777C181.508,123.43,182.432,124.459,183.062,125.361z
			 M187.513,111.799v-1.555h-7.033v1.555H187.513z M187.513,112.953h-7.033v1.555h7.033V112.953z"/>
		<path d="M193.474,110.119c2.394-0.252,4.493-0.756,6.341-1.471l0.524,1.408c-0.776,0.271-1.596,0.523-2.456,0.734v3.275h2.33
			v1.406h-2.33v1.113c0.966,1.049,1.932,2.246,2.939,3.568l-0.819,1.197c-0.84-1.449-1.532-2.604-2.12-3.443v9.637h-1.449v-9.553
			c-0.734,1.994-1.7,3.801-2.918,5.438l-0.63-1.531c1.616-1.891,2.771-4.031,3.485-6.426h-2.835v-1.406h2.897v-2.939
			c-0.86,0.168-1.742,0.314-2.666,0.441L193.474,110.119z M201.116,114.76l-1.092-0.945c1.638-1.344,2.876-3.129,3.695-5.354
			l1.364,0.545c-0.734,1.826-1.638,3.338-2.708,4.557h7.475c-1.008-1.68-2.1-3.213-3.275-4.578l1.302-0.566
			c1.574,1.807,2.96,3.801,4.136,5.984l-1.28,0.65c-0.168-0.314-0.336-0.609-0.504-0.881v5.711h-1.911v5.27
			c0,0.461,0.189,0.693,0.588,0.693h0.861c0.294,0,0.482-0.148,0.608-0.4c0.147-0.336,0.252-1.322,0.294-2.939l1.365,0.42
			c-0.126,2.037-0.336,3.275-0.651,3.717c-0.294,0.379-0.756,0.566-1.344,0.566h-1.574c-1.05,0-1.575-0.588-1.575-1.742v-5.584
			h-1.826c-0.231,3.506-1.743,6.066-4.557,7.684l-0.818-1.322c2.436-1.281,3.758-3.402,3.968-6.361h-1.826v-5.754
			C201.578,114.34,201.347,114.549,201.116,114.76z M208.801,114.906h-5.543v3.611h5.543V114.906z"/>
		<path d="M220.04,122.906h-3.801v1.512h-1.428v-14.383h5.229V122.906z M218.633,121.498v-10.057h-2.394v10.057H218.633z
			 M222.748,120.953c-0.294,2.162-0.672,4.053-1.134,5.668l-1.28-0.439c0.462-1.449,0.882-3.297,1.238-5.543L222.748,120.953z
			 M232.7,118.455c0,4.492-0.272,7.117-0.776,7.873c-0.525,0.756-1.512,1.133-2.981,1.133c-0.588,0-1.176-0.02-1.785-0.041
			l-0.336-1.365c0.672,0.043,1.281,0.084,1.848,0.084c1.323,0,2.1-0.441,2.31-1.281s0.336-2.561,0.336-5.143h-9.595v-10.688h10.834
			v1.281h-4.347v1.867h3.947v1.24h-3.947v1.932h4.011v1.238h-4.011v1.869H232.7z M223.126,110.309v1.867h3.695v-1.867H223.126z
			 M223.126,115.348h3.695v-1.932h-3.695V115.348z M223.126,118.455h3.695v-1.869h-3.695V118.455z M225.268,125.846l-1.218,0.146
			c-0.042-2.184-0.146-3.863-0.272-5.039l1.134-0.127C225.079,122.045,225.205,123.725,225.268,125.846z M228.019,124.879
			l-1.197,0.273c-0.168-1.639-0.398-3.066-0.65-4.283l1.134-0.23C227.557,121.939,227.809,123.346,228.019,124.879z
			 M230.664,123.682l-1.092,0.42c-0.294-1.195-0.63-2.352-1.029-3.484l1.071-0.295C230.076,121.541,230.412,122.674,230.664,123.682
			z"/>
		<path d="M245.499,111.273c0.798,0.715,1.196,1.701,1.196,2.961c0,0.945-0.272,1.764-0.776,2.457
			c-0.231,0.252-0.798,0.797-1.722,1.615c-0.462,0.379-0.777,0.756-0.987,1.135c-0.272,0.461-0.398,0.986-0.398,1.553v0.484h-1.68
			v-0.484c0-0.756,0.146-1.406,0.462-1.994c0.294-0.545,0.756-1.113,1.406-1.701c0.714-0.629,1.155-1.07,1.365-1.322
			c0.398-0.525,0.608-1.07,0.608-1.658c0-0.84-0.252-1.49-0.714-1.953c-0.504-0.504-1.176-0.734-2.058-0.734
			c-1.05,0-1.826,0.336-2.33,1.029c-0.462,0.588-0.693,1.385-0.693,2.414h-1.68c0.021-1.471,0.441-2.646,1.26-3.527
			c0.84-0.924,2.016-1.387,3.527-1.387C243.63,110.16,244.701,110.518,245.499,111.273z M242.896,123.305
			c0.23,0.23,0.356,0.525,0.356,0.881c0,0.379-0.126,0.672-0.356,0.904c-0.252,0.23-0.567,0.355-0.924,0.355
			c-0.357,0-0.651-0.125-0.903-0.355c-0.252-0.252-0.356-0.547-0.356-0.904c0-0.355,0.104-0.65,0.356-0.881
			c0.252-0.252,0.546-0.357,0.903-0.357C242.328,122.947,242.644,123.053,242.896,123.305z"/>
	</g>
</g>
<g id="Layer_2" display="none">
</g>
</svg>
