<?xml version="1.0" encoding="utf-8"?>
<!-- Generator: Adobe Illustrator 17.0.0, SVG Export Plug-In . SVG Version: 6.00 Build 0)  -->
<!DOCTYPE svg PUBLIC "-//W3C//DTD SVG 1.1//EN" "http://www.w3.org/Graphics/SVG/1.1/DTD/svg11.dtd">
<svg version="1.1" xmlns="http://www.w3.org/2000/svg" xmlns:xlink="http://www.w3.org/1999/xlink" x="0px" y="0px" width="320px"
	 height="160px" viewBox="0 0 320 160" enable-background="new 0 0 320 160" xml:space="preserve">
<g id="Layer_3">
</g>
<g id="Layer_1">
	<g>
		<path d="M138.236,21.321c-0.432,0.217-0.899,0.252-1.26,0c-0.288-0.216-0.468-0.611-0.504-1.26c0-1.512-0.432-2.915-1.188-4.211
			v12.635c0,1.331,0.036,2.699,0.072,3.959c0.035,0.324-0.108,0.612-0.396,0.792c-0.899,0.54-1.872,0.828-2.735,0.828
			c-0.504,0.036-0.72-0.324-0.685-0.864c0.145-1.26,0.181-3.275,0.181-4.644v-8.278c-1.332,2.159-3.168,4.319-5.04,6.19
			l-0.323-0.252c2.699-4.751,4.104-10.078,5.147-15.514h-2.16c-0.432,0-1.439,0.108-1.943,0.324l-1.152-1.44h5.472V5.016
			c0-0.972-0.036-2.268-0.108-3.203c1.404,0.288,3.275,0.756,4.5,1.224c0.287,0.107,0.323,0.396,0.107,0.576
			c-0.144,0.18-0.432,0.323-0.611,0.432c-0.217,0.108-0.324,0.288-0.324,0.54v5.003h0.54c0.323-0.504,0.792-1.079,1.044-1.403
			c0.18-0.216,0.359-0.216,0.54,0c0.468,0.54,1.331,1.476,1.764,1.979c0.18,0.216,0.071,0.54-0.216,0.54h-3.672v3.563
			c1.512,0.936,3.455,2.16,4.211,3.888c0.324,0.72,0.252,1.368,0,1.943C139.244,20.674,138.74,21.105,138.236,21.321z
			 M156.847,33.309c-0.469,0.432-0.9,0.575-1.332,0.54c-0.576-0.108-1.044-0.576-1.368-1.296c-0.863-1.908-2.52-3.96-4.499-5.076
			c-3.996,3.096-8.423,5.22-13.066,6.804l-0.252-0.396c7.091-3.959,13.462-8.963,17.313-16.882c1.368,0.828,2.664,1.8,3.888,2.844
			c0.36,0.288,0.036,0.685-0.288,0.685c-0.72-0.036-1.296,0.252-1.728,0.827c-1.296,1.836-3.096,3.636-4.859,5.292
			c2.195,0.396,4.392,0.863,6.119,2.375c0.612,0.54,0.972,1.332,0.972,2.124C157.782,31.94,157.422,32.769,156.847,33.309z
			 M158.214,9.587h-11.122c0.504,0.216,1.332,0.685,1.943,1.08c0.252,0.18,0.072,0.612-0.252,0.612
			c-0.576,0-1.008,0.107-1.439,0.575c-1.404,1.477-2.952,2.809-4.428,4.104c1.584,0.036,3.456,0,5.039-0.18
			c0.9-1.512,1.656-3.06,2.304-4.68c1.512,0.648,3.024,1.332,4.428,2.232c0.252,0.144,0.252,0.432,0,0.54
			c-0.216,0.107-0.647,0.216-0.899,0.216c-0.469,0.036-0.864,0.216-1.116,0.647c-3.348,5.544-9.106,10.655-15.946,13.931
			l-0.288-0.468c4.067-3.06,7.812-6.624,10.583-10.835c-0.864,0.36-2.231,0.936-3.239,1.296c-0.721,0.288-1.548,0.828-2.016,1.26
			c-0.217,0.216-0.469,0.252-0.685-0.072c-0.684-1.08-1.188-2.231-1.584-3.384c-0.107-0.287,0.036-0.432,0.252-0.504
			c0.973-0.359,1.765-0.972,2.376-1.728c1.08-1.332,1.656-3.132,2.196-4.644h-2.556c-0.721,0-1.296,0.108-1.98,0.324l-1.115-1.476
			h14.254c0.504-0.685,1.188-1.476,1.872-2.16c0.144-0.107,0.323-0.107,0.468,0.036c0.972,0.792,2.088,1.764,3.096,2.735
			C158.538,9.191,158.502,9.587,158.214,9.587z M149.432,7.355c-0.648,0.54-1.332,0.648-1.872,0.432
			c-0.54-0.252-0.9-0.792-0.936-1.619c-0.036-1.44-0.828-2.844-1.98-3.96l0.324-0.359c1.62,0.18,3.168,0.539,4.464,1.476
			c0.684,0.432,1.079,1.26,1.044,2.088C150.439,6.204,150.043,6.888,149.432,7.355z"/>
		<path d="M177.656,12.755c-0.36,0.432-0.828,0.576-1.26,0.468c-0.468-0.107-0.864-0.468-1.044-0.972
			c-0.18-0.432-0.36-0.864-0.54-1.26c-3.023,0.756-5.147,1.224-10.763,2.124c-0.252,0.035-0.432,0.252-0.54,0.468
			c-0.071,0.107-0.359,0.071-0.396-0.036c-0.252-0.612-0.864-2.268-1.224-3.239c-0.108-0.288,0.18-0.54,0.396-0.505
			c0.504,0.108,1.512-0.071,1.944-0.468c1.764-1.584,3.312-5.003,3.887-7.415c1.477,0.612,2.988,1.152,4.355,2.052
			c0.108,0.072,0.072,0.396-0.071,0.396c-0.36,0.036-1.044,0.323-1.332,0.684c-1.62,1.908-3.24,3.563-5.184,4.896
			c1.764,0.072,6.012,0,8.207-0.216c-0.72-1.08-1.8-2.268-2.916-2.88l0.217-0.54c1.979,0.432,3.959,0.972,5.615,2.196
			c0.611,0.468,1.008,1.079,1.188,1.8C178.376,11.099,178.196,12.106,177.656,12.755z M177.116,15.994
			c-0.432,0.216-0.936,0.685-0.936,1.044v13.715c0,1.079-0.648,1.871-1.512,2.447c-0.864,0.54-1.98,0.864-2.88,0.972
			c-0.072-1.044-0.288-1.943-0.828-2.627c-0.468-0.612-1.224-1.08-2.34-1.368l0.036-0.54c0.9,0.108,2.556,0.252,3.312,0.288
			c0.288,0.036,0.576-0.252,0.576-0.54v-4.031h-4.499v3.491c0,0.972,0.035,2.483,0.107,3.312c0,0.36-0.18,0.648-0.504,0.9
			c-0.792,0.647-2.268,1.044-2.951,1.044c-0.36,0-0.54-0.217-0.54-0.576c0.072-1.656,0.144-4.752,0.144-6.443V16.175
			c0-0.828-0.071-2.088-0.144-2.772c1.403,0.396,2.771,0.9,4.104,1.368h3.995c0.432-0.54,0.828-1.116,1.332-1.584
			c0.108-0.107,0.432-0.18,0.54-0.071c1.08,0.756,2.159,1.439,3.023,2.375C177.261,15.599,177.225,15.923,177.116,15.994z
			 M172.545,15.887h-4.499v3.312h4.499V15.887z M172.545,20.313h-4.499v3.924h4.499V20.313z M192.162,16.427
			c-0.756,0.504-1.619,0.792-2.483,0.863c-2.483,0.288-5.543,0.36-8.062,0.072c-1.044-0.108-1.692-0.576-2.088-1.26
			c-0.396-0.684-0.504-1.512-0.504-2.412V3.612c0-0.36-0.036-1.008-0.108-1.548c1.332,0.359,3.672,1.079,4.787,1.439
			c0.217,0.072,0.288,0.468,0.072,0.576c-0.504,0.216-1.115,0.792-1.115,1.188v4.571c2.195-1.655,4.139-3.995,5.543-6.263
			c1.224,0.972,2.447,1.979,3.455,3.203c0.145,0.181-0.107,0.468-0.288,0.433c-0.611,0-1.151,0.107-1.619,0.396
			c-2.304,1.512-4.5,2.52-7.091,3.563v2.304c0,0.324,0.252,0.504,0.468,0.504c1.979,0.108,3.743,0.216,5.579-0.072
			c0.468-0.071,0.828-0.504,1.008-0.899c0.576-1.548,0.864-2.628,1.116-4.428h0.575c0.145,1.152,0.217,2.412,0.504,3.527
			c0.252,0.864,1.116,1.404,1.944,1.656C193.603,15.059,192.954,15.887,192.162,16.427z M192.738,31.977
			c-0.684,0.647-1.476,1.116-2.592,1.26c-2.411,0.288-5.399,0.432-8.314,0.036c-0.9-0.145-1.8-0.504-2.304-1.404
			c-0.433-0.756-0.468-1.728-0.468-2.663v-9.899c0-0.792-0.036-1.439-0.108-1.979c1.512,0.36,3.312,0.864,4.823,1.476
			c0.216,0.108,0.252,0.469,0.072,0.54c-0.54,0.216-1.188,0.72-1.188,1.332v3.888c2.375-1.584,4.499-3.852,6.19-6.155
			c1.116,0.828,2.484,2.088,3.312,3.06c0.217,0.252-0.035,0.576-0.252,0.576c-0.359-0.072-0.827-0.036-1.115,0.107
			c-2.556,1.476-5.004,2.7-8.135,3.527v3.348c0,0.396,0.287,0.685,0.684,0.721c1.8,0.144,3.636,0.144,5.363-0.036
			c0.576-0.036,1.151-0.648,1.26-1.116c0.36-1.368,0.756-3.563,0.899-4.823h0.648c0.072,1.188,0.18,2.376,0.432,3.527
			c0.108,0.612,0.324,1.044,0.612,1.368c0.324,0.396,0.792,0.611,1.512,0.899C193.782,30.608,193.351,31.364,192.738,31.977z"/>
	</g>
	<g>
		<path d="M157.744,59.406c-0.336,0.377-0.588,0.84-0.756,1.449c-2.016,0.041-4.094,0.062-6.089-0.252
			c-2.12-0.316-4.073-1.051-5.605-2.771c-0.21-0.232-0.336-0.463-0.672-0.504c-0.399-0.021-0.546,0.23-0.819,0.566
			c-0.42,0.504-0.84,1.113-1.176,1.658c-0.168,0.295-0.398,0.273-0.504,0.105c-0.462-0.734-0.966-1.533-1.364-2.227
			c-0.105-0.188-0.021-0.377,0.146-0.398c0.882-0.125,1.764-0.357,2.604-0.65c0.609-0.211,1.218-0.482,1.764-0.883
			c2.709-1.91,5.963-4.346,8-6.781h-9.764c-0.546,0-1.028,0.043-1.302,0.168l-0.63-0.818h12.115c0.44-0.463,0.924-0.861,1.302-1.197
			c0.084-0.084,0.252-0.084,0.356,0c0.63,0.482,1.365,1.051,1.869,1.574c0.23,0.232,0.126,0.441-0.147,0.547
			c-0.65,0.252-1.238,0.672-1.784,1.176c-2.709,2.477-6.278,4.576-9.848,6.424c1.239,0.883,2.751,1.408,4.263,1.576
			c3.149,0.314,6.025,0.125,9.49,0.02v0.273C158.647,58.607,158.122,58.965,157.744,59.406z M150.249,47.459
			c-0.273,0.021-0.483-0.084-0.672-0.23c-0.231-0.211-0.315-0.504-0.399-0.84c-0.146-0.631-0.356-1.219-0.692-1.742
			c-0.336-0.504-0.714-0.945-1.155-1.387l0.147-0.293c1.386,0.336,2.813,0.629,3.821,1.783c0.336,0.379,0.356,1.029,0.21,1.512
			C151.299,46.83,150.795,47.291,150.249,47.459z"/>
		<path d="M179.237,61.023c-0.23,0.23-0.608,0.336-1.028,0.209c-1.512-0.461-3.087-2.457-3.717-3.779
			c-1.848,1.742-3.989,2.918-6.277,3.674l-0.105-0.252c2.184-1.111,4.347-2.771,5.816-4.934c-0.798-2.498-1.071-5.207-1.302-7.957
			h-3.359v2.561h1.07c0.168-0.209,0.441-0.588,0.588-0.756c0.063-0.084,0.252-0.062,0.315-0.02c0.504,0.355,1.028,0.775,1.428,1.176
			c0.126,0.125,0.084,0.293-0.042,0.398s-0.42,0.314-0.42,0.588c0,1.512-0.189,2.855-0.294,4.346
			c-0.042,0.525-0.231,0.924-0.525,1.219c-0.356,0.355-0.882,0.566-1.406,0.691c0.021-0.797-0.399-1.553-1.113-1.932v-0.23
			c0.273,0.043,0.588,0.043,0.882,0.043c0.21,0,0.378-0.189,0.399-0.4c0.104-1.512,0.21-3.023,0.188-4.471h-1.05
			c-0.021,1.531-0.146,3.064-0.566,4.492c-0.399,1.365-1.05,2.604-2.142,3.59c-0.966,0.883-2.499,1.723-3.695,2.184l-0.105-0.209
			c1.302-0.861,2.436-1.994,3.213-3.318c0.588-1.008,0.986-2.119,1.092-3.316c-0.903,0.629-2.667,1.658-3.843,2.289
			c-0.462,0.252-0.776,0.504-1.176,0.881c-0.104,0.084-0.314,0.105-0.356,0c-0.252-0.482-0.714-1.721-0.903-2.457
			c0.903-0.104,1.722-0.23,2.562-0.42v-5.059h-0.902c-0.294,0-0.672,0.104-0.903,0.252l-0.504-0.904h2.31V44.33
			c0-0.271-0.042-0.859-0.062-1.133c0.818,0.273,1.722,0.588,2.436,0.881c0.146,0.084,0.126,0.336,0,0.379
			c-0.189,0.062-0.399,0.252-0.399,0.441v4.303c0.252-0.355,0.588-0.775,0.819-1.07c0.042-0.062,0.168-0.084,0.252-0.021
			c0.294,0.252,0.566,0.547,0.818,0.84v-1.889c0-0.295,0-0.609-0.062-0.883c0.798,0.357,1.596,0.736,2.352,1.156h3.023
			c-0.063-1.029-0.105-2.121-0.147-3.129c-0.021-0.566-0.084-1.135-0.168-1.68c0.924,0.146,1.785,0.398,2.667,0.693
			c0.146,0.041,0.146,0.252,0.021,0.314c-0.188,0.084-0.462,0.252-0.462,0.482c0,1.008,0.042,2.205,0.126,3.318h1.785
			c0.23-0.295,0.714-0.883,0.882-1.113c0.084-0.127,0.21-0.105,0.336,0c0.524,0.42,1.05,0.924,1.47,1.428
			c0.104,0.125,0.021,0.336-0.147,0.336h-4.241c0.105,1.785,0.252,3.549,0.651,5.229c0.398-1.24,0.734-2.5,0.86-3.863
			c0.819,0.293,1.638,0.65,2.415,1.092c0.126,0.062,0.062,0.293-0.063,0.336c-0.21,0.041-0.504,0.209-0.566,0.461
			c-0.462,1.639-1.092,3.086-2.037,4.514c0.336,0.883,0.882,1.744,1.575,2.457c0.104,0.105,0.252,0.021,0.314-0.105
			c0.462-0.902,0.882-1.867,1.239-2.791l0.252,0.062c-0.105,0.713-0.252,1.512-0.336,2.289c-0.084,0.775-0.042,1.553,0.336,2.246
			C179.553,60.352,179.489,60.771,179.237,61.023z M165.338,49.854v4.576c0.567-0.125,1.281-0.273,1.806-0.461
			c0.126-1.281,0.147-2.898,0.084-4.115H165.338z M176.193,46.326c-0.231-0.043-0.462-0.211-0.483-0.568
			c-0.042-0.545-0.314-1.26-0.84-1.721l0.105-0.23c0.65,0,1.722,0.271,2.12,0.756c0.42,0.504,0.357,0.965,0.063,1.301
			C176.907,46.178,176.529,46.367,176.193,46.326z"/>
	</g>
	<line fill="none" stroke="#000000" stroke-miterlimit="10" x1="20" y1="72" x2="300" y2="72"/>
	<g>
		<path d="M68.011,93.421l-0.482-1.596c2.268-2.561,3.926-5.521,4.955-8.839l1.406,0.672c-0.546,1.659-1.238,3.233-2.078,4.703
			v13.983H70.3V90.692C69.586,91.657,68.83,92.561,68.011,93.421z M74.268,91.573l-1.302-0.797c1.596-2.331,2.751-4.914,3.465-7.748
			l1.428,0.294c-0.21,0.819-0.462,1.596-0.714,2.331h8.944v0.986c-0.336,1.302-0.756,2.582-1.281,3.842l-1.448-0.42
			c0.482-0.881,0.882-1.848,1.196-2.939h-7.957C75.927,88.761,75.149,90.229,74.268,91.573z M77.438,91.993
			c-0.756,2.919-1.743,5.48-2.961,7.686l-1.406-0.504c1.134-1.975,2.142-4.494,3.002-7.559L77.438,91.993z M76.473,102.198
			l-0.315-1.428c0.882,0.062,1.743,0.104,2.541,0.104c0.524,0,0.798-0.272,0.798-0.819v-11.17h1.47v11.549
			c0,1.176-0.588,1.764-1.743,1.764H76.473z M86.613,99.447l-1.322,0.588c-0.84-3.065-1.785-5.795-2.813-8.146l1.344-0.44
			C84.892,93.925,85.815,96.592,86.613,99.447z"/>
		<path d="M98.776,83.091v2.751h8.251v1.47h-8.251v3.213h5.647v1.344c-1.176,2.352-2.876,4.367-5.102,6.047
			c1.05,0.588,2.204,1.154,3.464,1.658c1.491,0.566,3.087,1.05,4.787,1.47l-0.882,1.323c-1.806-0.483-3.527-1.051-5.144-1.723
			c-1.302-0.566-2.457-1.176-3.507-1.848c-2.394,1.512-5.249,2.709-8.587,3.611l-0.861-1.344c3.191-0.756,5.921-1.805,8.168-3.148
			c-1.092-0.84-2.058-1.764-2.855-2.793c-0.777-0.966-1.323-2.037-1.638-3.191H90.65v-1.406h6.572v-3.213h-8.168v-1.47h8.168v-2.751
			H98.776z M102.724,91.931h-8.966c0.378,1.134,0.966,2.121,1.764,2.981c0.714,0.819,1.554,1.554,2.499,2.184
			C100.057,95.668,101.632,93.946,102.724,91.931z"/>
		<path d="M110.401,102.155l-0.314-1.448c0.566,0.063,1.112,0.104,1.638,0.104c0.566,0,0.86-0.314,0.86-0.944v-4.976
			c-0.798,0.293-1.616,0.588-2.456,0.84l-0.378-1.512c0.966-0.231,1.91-0.504,2.834-0.84v-4.809h-2.604v-1.449h2.604v-3.758h1.47
			v3.758h2.184v1.449h-2.184v4.241c0.756-0.336,1.491-0.692,2.226-1.071v1.533c-0.734,0.378-1.47,0.714-2.226,1.029v5.941
			c0,1.26-0.608,1.91-1.806,1.91H110.401z M124.532,93.274v-1.617h1.47v1.617h2.562v1.406h-2.562v5.711
			c0,1.197-0.609,1.807-1.806,1.807h-2.729l-0.294-1.428c0.882,0.062,1.722,0.104,2.52,0.104c0.546,0,0.84-0.294,0.84-0.84v-5.354
			h-7.79v-1.406H124.532z M123.293,83.154v2.163h4.977v1.406h-4.977v2.457h4.409v1.385h-10.12v-1.385h4.241v-2.457h-4.997v-1.406
			h4.997v-2.163H123.293z M121.445,99.048l-1.196,0.84c-0.63-1.049-1.47-2.204-2.541-3.484l1.218-0.735
			C120.018,96.948,120.857,98.083,121.445,99.048z"/>
		<path d="M135.263,102.345h-1.449v-10.52c-0.672,2.143-1.554,4.074-2.624,5.795l-0.63-1.553c1.512-2.163,2.562-4.641,3.191-7.412
			h-2.835v-1.449h2.897v-4.094h1.449v4.094h2.478v1.449h-2.478v1.365c1.008,1.154,2.016,2.456,3.065,3.926l-0.84,1.281
			c-0.861-1.471-1.596-2.667-2.226-3.57V102.345z M137.95,102.198l-0.819-1.303c4.935-1.616,8.63-4.724,11.086-9.322l1.281,0.672
			c-1.008,1.891-2.205,3.527-3.569,4.914c1.512,1.344,2.813,2.666,3.863,3.988l-1.092,1.092c-0.924-1.301-2.163-2.688-3.717-4.156
			C142.968,99.888,140.638,101.274,137.95,102.198z M143.514,85.401c-0.294-0.756-0.63-1.449-1.008-2.079l1.554-0.252
			c0.315,0.672,0.63,1.448,0.924,2.331h4.661v1.364h-5.753c-1.154,2.036-2.162,3.485-3.044,4.347
			c1.344-0.084,2.666-0.168,3.968-0.273c0.546-0.756,1.029-1.533,1.449-2.373l1.218,0.651c-2.1,4.157-5.165,7.013-9.238,8.524
			l-0.819-1.26c2.541-0.902,4.661-2.31,6.383-4.241c-1.47,0.084-3.044,0.168-4.703,0.231l-0.314-1.239
			c0.126-0.042,0.21-0.084,0.294-0.126c0.84-0.546,1.91-1.953,3.254-4.241h-4.073v-1.364H143.514z"/>
		<path d="M169.768,102.03h-1.533v-1.219h-14.109v1.219h-1.532V84.435h17.175V102.03z M168.234,99.447v-3.653h-3.506
			c-1.344,0-2.016-0.65-2.016-1.932V85.8h-3.065v4.493c-0.063,2.96-1.281,5.123-3.653,6.487l-1.239-1.092
			c2.226-1.133,3.359-2.918,3.401-5.396V85.8h-4.031v13.647H168.234z M164.203,93.526c0,0.566,0.294,0.861,0.924,0.861h3.107V85.8
			h-4.031V93.526z"/>
		<path d="M178.176,83.638c-0.482,1.553-1.07,3.044-1.764,4.43v14.277h-1.532V90.692c-0.588,0.881-1.239,1.742-1.932,2.54
			l-0.504-1.596c1.974-2.52,3.422-5.417,4.325-8.65L178.176,83.638z M191.215,96.13h-1.134v0.945h-4.535v3.4
			c0,1.135-0.63,1.723-1.848,1.723h-2.373l-0.314-1.471c0.756,0.043,1.47,0.084,2.162,0.084c0.546,0,0.819-0.252,0.819-0.713v-3.023
			h-4.599V96.13h-1.406v-3.59h13.228V96.13z M185.188,84.792h5.984v1.344h-12.997v-1.344h5.501c-0.188-0.546-0.398-1.07-0.63-1.554
			l1.533-0.252C184.79,83.511,184.979,84.12,185.188,84.792z M189.766,95.772v-1.91h-10.309v1.91H189.766z M189.556,87.354v3.968
			h-9.994v-3.968H189.556z M188.086,88.509h-7.055v1.658h7.055V88.509z"/>
		<path d="M212.447,100.371l-0.252,1.448h-6.215c-3.779,0-6.487-0.545-8.125-1.637c-0.273-0.211-0.504-0.399-0.714-0.609
			c-0.672,0.986-1.512,1.848-2.478,2.582l-0.987-1.28c0.987-0.714,1.806-1.554,2.478-2.52c-0.818-1.176-1.49-2.667-1.994-4.472
			l1.26-0.463c0.42,1.491,0.924,2.709,1.47,3.633c0.714-1.49,1.134-3.233,1.26-5.229h-3.885v-1.176
			c1.218-1.553,2.352-3.232,3.359-5.039h-3.443v-1.428h5.145v1.239c-1.05,1.932-2.1,3.591-3.107,5.019h3.296v0.902
			c-0.084,2.771-0.65,5.123-1.658,7.055c0.336,0.357,0.672,0.63,1.028,0.84c1.428,0.798,3.591,1.197,6.446,1.238
			C207.64,100.476,210.012,100.435,212.447,100.371z M206.316,91.7v1.68h4.913v1.238h-4.913v1.742h5.522v1.281h-5.522v2.078h-1.47
			v-2.078h-4.766V96.36h4.766v-1.742h-4.115V93.38h4.115V91.7h-3.674v-1.26h3.674v-1.68h-4.703v-1.26h4.703v-1.659h-3.674v-1.26
			h3.674V83.05h1.47v1.532h4.493v2.919h1.407v1.26h-1.407V91.7H206.316z M206.316,87.501h3.023v-1.659h-3.023V87.501z
			 M206.316,90.44h3.023v-1.68h-3.023V90.44z"/>
		<path d="M220.302,97.704h-3.8v1.512h-1.428V84.834h5.228V97.704z M218.896,96.298V86.241h-2.394v10.057H218.896z M223.011,95.752
			c-0.294,2.163-0.672,4.052-1.134,5.669l-1.281-0.441c0.462-1.448,0.882-3.296,1.239-5.543L223.011,95.752z M232.963,93.253
			c0,4.494-0.273,7.118-0.777,7.874c-0.524,0.756-1.512,1.134-2.981,1.134c-0.588,0-1.176-0.021-1.784-0.042l-0.336-1.364
			c0.672,0.041,1.28,0.084,1.848,0.084c1.322,0,2.1-0.441,2.31-1.281s0.336-2.562,0.336-5.145h-9.596V83.826h10.834v1.28h-4.346
			v1.869h3.947v1.238h-3.947v1.932h4.01v1.239h-4.01v1.868H232.963z M223.389,85.106v1.869h3.695v-1.869H223.389z M223.389,90.146
			h3.695v-1.932h-3.695V90.146z M223.389,93.253h3.695v-1.868h-3.695V93.253z M225.53,100.644l-1.218,0.147
			c-0.042-2.184-0.147-3.863-0.273-5.039l1.134-0.126C225.341,96.844,225.467,98.523,225.53,100.644z M228.28,99.679l-1.196,0.272
			c-0.168-1.638-0.399-3.065-0.651-4.283l1.134-0.231C227.818,96.739,228.07,98.146,228.28,99.679z M230.926,98.481l-1.092,0.42
			c-0.294-1.197-0.63-2.352-1.028-3.485l1.07-0.294C230.338,96.34,230.674,97.474,230.926,98.481z"/>
		<path d="M245.761,86.073c0.798,0.713,1.197,1.7,1.197,2.96c0,0.944-0.273,1.764-0.777,2.456c-0.23,0.252-0.798,0.799-1.722,1.617
			c-0.462,0.378-0.776,0.756-0.986,1.134c-0.273,0.462-0.399,0.987-0.399,1.554v0.482h-1.68v-0.482c0-0.756,0.147-1.406,0.462-1.994
			c0.294-0.547,0.756-1.113,1.407-1.701c0.714-0.63,1.154-1.07,1.364-1.322c0.399-0.525,0.609-1.071,0.609-1.659
			c0-0.84-0.252-1.491-0.714-1.952c-0.504-0.504-1.176-0.735-2.058-0.735c-1.05,0-1.827,0.336-2.331,1.028
			c-0.462,0.588-0.692,1.387-0.692,2.415h-1.68c0.021-1.47,0.44-2.646,1.26-3.527c0.84-0.924,2.016-1.386,3.527-1.386
			C243.893,84.96,244.963,85.317,245.761,86.073z M243.157,98.104c0.231,0.231,0.357,0.524,0.357,0.882
			c0,0.378-0.126,0.672-0.357,0.902c-0.252,0.231-0.566,0.357-0.924,0.357c-0.356,0-0.65-0.126-0.902-0.357
			c-0.252-0.252-0.357-0.545-0.357-0.902s0.105-0.65,0.357-0.882c0.252-0.252,0.546-0.356,0.902-0.356
			C242.591,97.747,242.905,97.852,243.157,98.104z"/>
	</g>
</g>
<g id="Layer_2" display="none">
</g>
</svg>
