<?xml version="1.0" encoding="utf-8"?>
<!-- Generator: Adobe Illustrator 17.0.0, SVG Export Plug-In . SVG Version: 6.00 Build 0)  -->
<!DOCTYPE svg PUBLIC "-//W3C//DTD SVG 1.1//EN" "http://www.w3.org/Graphics/SVG/1.1/DTD/svg11.dtd">
<svg version="1.1" xmlns="http://www.w3.org/2000/svg" xmlns:xlink="http://www.w3.org/1999/xlink" x="0px" y="0px" width="320px"
	 height="320px" viewBox="0 0 320 320" enable-background="new 0 0 320 320" xml:space="preserve">
<g id="Layer_3">
</g>
<g id="Layer_1">
	<g>
		<polygon fill="#808080" points="112.167,293.408 75.688,276.04 75.688,243.869 112.167,261.237 		"/>
		<polygon fill="#E6E6E6" points="112.167,293.256 241.833,230.741 241.833,198.722 112.167,261.237 		"/>
		<polygon fill="#CCCCCC" points="75.688,243.869 205.354,181.354 241.833,198.722 112.167,261.237 		"/>
	</g>
	<g>
		<polygon fill="#808080" points="112.167,215.337 75.688,197.969 75.688,165.799 112.167,183.167 		"/>
		<polygon fill="#E6E6E6" points="112.167,215.186 241.833,152.671 241.833,120.652 112.167,183.167 		"/>
		<polygon fill="#CCCCCC" points="75.688,165.799 205.354,103.284 241.833,120.652 112.167,183.167 		"/>
	</g>
	<polygon fill="#FF0055" points="161,46.065 204.792,71.349 161,96.632 	"/>
	
		<line fill="none" stroke="#42210B" stroke-width="6" stroke-linecap="round" stroke-miterlimit="10" x1="159" y1="144" x2="159" y2="46"/>
</g>
<g id="Layer_2" display="none">
</g>
</svg>
