<?xml version="1.0" encoding="utf-8"?>
<!-- Generator: Adobe Illustrator 17.0.0, SVG Export Plug-In . SVG Version: 6.00 Build 0)  -->
<!DOCTYPE svg PUBLIC "-//W3C//DTD SVG 1.1//EN" "http://www.w3.org/Graphics/SVG/1.1/DTD/svg11.dtd">
<svg version="1.1" xmlns="http://www.w3.org/2000/svg" xmlns:xlink="http://www.w3.org/1999/xlink" x="0px" y="0px" width="320px"
	 height="320px" viewBox="0 0 320 320" enable-background="new 0 0 320 320" xml:space="preserve">
<g id="Layer_3">
</g>
<g id="Layer_1">
	<g>
		<polygon fill="#808080" points="163.091,286.548 67.756,241.158 67.756,215.347 163.091,260.737 		"/>
		<polygon fill="#E6E6E6" points="163.091,286.548 258.427,241.158 258.427,215.347 163.091,260.737 		"/>
		<polygon fill="#CCCCCC" points="67.756,215.347 163.091,169.958 258.427,215.347 163.091,260.737 		"/>
	</g>
	<g>
		<polygon fill="#808080" points="91.793,226.972 67.75,215.859 67.75,132.103 91.793,143.216 		"/>
		<polygon fill="#E6E6E6" points="91.793,226.972 187.128,181.582 187.128,97.827 91.793,143.216 		"/>
		<polygon fill="#CCCCCC" points="67.75,132.103 163.085,86.714 187.128,97.827 91.793,143.216 		"/>
	</g>
	<polygon fill="#FF0055" points="166,26.065 209.792,51.349 166,76.632 	"/>
	
		<line fill="none" stroke="#42210B" stroke-width="6" stroke-linecap="round" stroke-miterlimit="10" x1="164" y1="221" x2="164" y2="26"/>
</g>
<g id="Layer_2" display="none">
</g>
</svg>
