<?xml version="1.0" encoding="utf-8"?>
<!-- Generator: Adobe Illustrator 17.0.0, SVG Export Plug-In . SVG Version: 6.00 Build 0)  -->
<!DOCTYPE svg PUBLIC "-//W3C//DTD SVG 1.1//EN" "http://www.w3.org/Graphics/SVG/1.1/DTD/svg11.dtd">
<svg version="1.1" xmlns="http://www.w3.org/2000/svg" xmlns:xlink="http://www.w3.org/1999/xlink" x="0px" y="0px" width="320px"
	 height="160px" viewBox="0 0 320 160" enable-background="new 0 0 320 160" xml:space="preserve">
<g id="Layer_3">
</g>
<g id="Layer_1">
	<g>
		<path d="M116.903,11.279H97.069c-0.611,0-1.439,0.18-2.087,0.468l-1.08-1.584h17.71c0.504-0.72,1.224-1.655,1.979-2.376
			c0.18-0.18,0.432-0.144,0.612,0c0.899,0.864,2.304,2.269,2.879,2.952C117.228,10.919,117.083,11.279,116.903,11.279z
			 M123.202,5.304c-0.504,0.324-0.936,0.72-0.936,1.26v23.182c0,1.296-0.468,2.195-1.188,2.843c-0.9,0.828-2.268,1.188-3.672,1.513
			c-0.252-1.44-0.72-2.412-1.403-3.096c-0.792-0.792-1.872-1.26-3.384-1.656l-0.036-0.504c1.188,0.108,3.743,0.36,5.147,0.468
			c0.359,0.036,0.72-0.18,0.72-0.54V4.8h-18.25c-0.647,0-1.655,0.216-2.159,0.468L96.998,3.72h21.31
			c0.359-0.323,1.008-0.936,1.547-1.439c0.108-0.108,0.36-0.072,0.504,0c1.009,0.647,2.052,1.512,2.916,2.411
			C123.454,4.872,123.419,5.195,123.202,5.304z M112.836,17.578v4.535c0,0.828,0.036,2.34,0.107,2.916
			c0.036,0.504-0.107,1.08-0.504,1.332c-0.827,0.504-1.907,0.72-2.735,0.684c-0.396-0.036-0.647-0.288-0.647-0.72
			c0-0.504,0.036-1.26,0.036-1.728h-6.264c-0.036,0.72-0.036,1.836,0,2.627c0.036,0.396-0.108,0.756-0.396,0.937
			c-0.757,0.504-1.62,0.756-2.736,0.863c-0.432,0.036-0.756-0.216-0.756-0.647c0.036-0.72,0.036-1.62,0.036-2.231V15.635
			c0-0.612,0-1.26-0.036-1.872c1.332,0.612,2.664,1.26,3.96,1.979h5.867c0.324-0.396,1.08-1.296,1.619-1.871
			c0.108-0.108,0.433-0.072,0.576,0c0.937,0.684,1.979,1.476,2.844,2.231c0.108,0.107,0.145,0.504,0,0.576
			C113.376,16.895,112.836,17.29,112.836,17.578z M109.057,16.858h-6.228v6.623h6.228V16.858z"/>
		<path d="M132.608,16.786c-0.575,0.612-1.188,0.72-1.655,0.504c-0.576-0.216-0.972-0.828-1.116-1.655
			c-0.252-1.62-1.367-3.563-2.663-4.788l0.252-0.504c1.764,0.396,3.455,1.008,4.896,2.088c0.756,0.576,1.188,1.404,1.188,2.304
			C133.473,15.526,133.148,16.21,132.608,16.786z M158.598,18.442h-12.131c0.9,0.54,2.016,1.296,2.7,1.836
			c0.216,0.144,0.288,0.539,0,0.647c-0.252,0.108-0.685,0.252-0.972,0.36c-0.396,0.107-0.756,0.359-1.08,0.684
			c-2.088,2.304-4.823,4.787-7.344,6.839c3.996,0,7.955-0.359,11.807-0.863c-0.54-1.765-1.583-3.384-2.915-4.788l0.323-0.359
			c2.736,1.151,5.724,3.312,7.308,6.047c0.432,0.756,0.54,1.584,0.36,2.448c-0.181,0.756-0.576,1.439-1.188,1.943
			c-0.72,0.684-1.439,0.72-1.979,0.396c-0.54-0.287-0.9-0.972-0.9-1.655c0-1.044-0.287-2.124-0.575-2.987
			c-3.636,1.188-8.604,2.699-11.807,3.527c-0.433,0.107-0.864,0.359-1.08,0.72c-0.18,0.288-0.432,0.396-0.647,0.072
			c-0.864-1.26-1.513-2.592-2.088-3.96c-0.108-0.288,0.107-0.647,0.432-0.684c0.828-0.072,1.836-0.504,2.628-1.476
			c1.764-2.124,3.923-6.336,4.823-8.747h-5.256c-0.72,0-1.476,0.216-2.087,0.432l-1.008-1.224c-0.648,1.62-1.44,3.815-1.98,5.507
			c-0.216,0.648-0.288,1.404-0.288,2.124c0,0.828,0.145,1.656,0.324,2.376c0.36,1.296,0.684,2.663,0.828,3.852
			c0.072,0.647-0.072,1.151-0.36,1.512c-0.323,0.396-0.827,0.611-1.476,0.576c-1.008-0.072-1.979-0.721-2.483-1.548
			c-0.324-0.469-0.433-0.973-0.468-1.513c0-0.575,0.107-1.151,0.252-1.728c0.252-0.792,0.468-1.836,0.504-2.699
			c0-0.612-0.181-1.188-0.612-1.692c-0.684-0.72-1.872-1.115-2.735-1.331v-0.504c0.756,0.035,1.728,0.035,2.52-0.072
			c0.647-0.036,1.26-0.396,1.655-1.08c1.98-3.636,5.903-11.158,7.775-15.154l0.432,0.288c-0.359,0.972-0.972,2.7-1.224,3.456h6.191
			V5.7c0-1.225-0.036-2.557-0.072-3.708c1.656,0.396,3.312,0.899,4.823,1.439c0.217,0.072,0.252,0.433,0.108,0.576
			c-0.18,0.18-0.432,0.36-0.72,0.504c-0.216,0.145-0.396,0.504-0.396,0.756v4.752h3.312c0.612-0.721,1.26-1.512,1.908-2.196
			c0.144-0.144,0.288-0.107,0.396-0.036c1.08,0.792,2.268,1.8,3.24,2.808c0.216,0.181,0,0.576-0.288,0.576h-8.567v6.191h4.464
			c0.504-0.684,1.332-1.728,1.872-2.34c0.107-0.18,0.323-0.144,0.504-0.036c1.224,0.864,2.375,1.836,3.383,2.916
			C158.886,18.046,158.886,18.442,158.598,18.442z M135.992,9.012c-0.54,0.468-1.08,0.575-1.512,0.396
			c-0.504-0.18-0.899-0.684-1.116-1.368c-0.611-2.016-1.835-3.995-3.491-5.255l0.216-0.396c1.98,0.36,3.888,1.009,5.579,2.088
			c0.721,0.468,1.116,1.368,1.225,2.232C136.964,7.607,136.677,8.399,135.992,9.012z M144.775,11.171h-3.743
			c-0.433,0-1.261,0.108-1.692,0.36l-0.899-0.972c-0.648,1.728-1.836,5.146-2.376,6.803h8.711V11.171z"/>
		<path d="M165.995,30.933c-0.359,0.252-0.684,0.54-0.863,0.899c-0.072,0.145-0.396,0.217-0.504,0.072
			c-0.9-1.116-1.692-2.34-2.304-3.455c-0.072-0.181,0-0.433,0.144-0.54c0.324-0.216,0.72-0.576,0.72-1.152V16.282
			c0-0.863-0.072-2.376-0.144-3.275c1.332,0.504,2.699,1.044,3.995,1.691h3.384V7.607h-5.327c-0.9,0-1.8,0.108-2.592,0.396
			l-1.044-1.513h8.747c0.396-0.647,0.828-1.26,1.332-1.835c0.144-0.145,0.432-0.108,0.611,0c0.504,0.216,2.448,1.655,2.988,2.231
			c0.252,0.252,0.107,0.611-0.145,0.72c-0.432,0.18-1.044,0.576-1.044,1.008v4.644c0,1.151,0.072,2.556,0.108,3.672
			c0,0.359-0.181,0.647-0.504,0.792c-0.648,0.359-1.692,0.611-2.52,0.72c-0.252,0-0.576-0.288-0.612-0.576v-2.052h-3.708v10.511
			c3.024-1.08,6.228-2.304,9.18-3.672l0.287,0.36C172.979,25.749,169.559,28.305,165.995,30.933z M193.172,30.32
			c-1.655,0.324-3.203,1.8-3.995,3.276c-2.52-1.368-5.04-3.168-6.947-5.651c-3.636,3.419-8.027,5.075-12.671,6.011l-0.18-0.468
			c4.176-1.656,8.315-4.319,11.087-8.315c-1.368-2.808-2.016-5.902-2.556-9.034c-1.08,1.691-2.376,3.312-3.636,4.679l-0.468-0.216
			c2.915-5.759,4.427-12.094,5.147-18.718c1.907,0.469,3.852,1.116,5.471,1.872c0.36,0.145,0.252,0.648,0,0.72
			c-0.647,0.181-1.224,0.433-1.367,0.937c-0.612,1.764-1.368,3.563-2.16,5.147h5.724c0.575-0.864,1.26-1.765,1.943-2.521
			c0.18-0.18,0.324-0.144,0.504-0.035c0.936,0.539,2.592,2.087,3.348,3.203c0.144,0.18,0,0.468-0.18,0.468h-6.012
			c1.404,0.576,2.556,1.08,3.384,1.584c0.18,0.144,0.18,0.576-0.036,0.612c-0.647,0.144-1.26,0.611-1.368,1.367
			c-0.611,3.384-2.052,7.308-3.743,9.863c2.448,2.627,5.579,3.852,8.783,4.787L193.172,30.32z M180.394,11.675
			c-0.396,0.828-1.116,2.088-1.62,2.988c0.648,2.735,1.584,5.327,3.204,7.631c1.476-3.276,2.052-6.911,2.447-10.619H180.394z"/>
		<path d="M226.742,27.153H212.92c0.036,1.8,0.072,3.6,0.072,5.399c0,0.323-0.108,0.575-0.36,0.72
			c-0.684,0.359-2.447,0.899-3.096,0.792c-0.252-0.036-0.468-0.181-0.432-0.612c0.072-2.052,0.144-4.176,0.107-6.299h-11.015
			c-0.432,0-1.547,0.18-2.016,0.396l-0.936-1.512h13.966v-3.636h-5.579v0.468c0,0.288-0.107,0.576-0.396,0.792
			c-0.648,0.396-1.944,0.721-2.88,0.792c-0.36,0-0.576-0.216-0.54-0.504c0.036-0.828,0.108-2.483,0.108-3.348v-4.751
			c0-0.684-0.036-1.404-0.108-1.908c1.332,0.504,2.628,1.152,3.888,1.836h5.472v-3.455h-0.937v0.323
			c0,0.252-0.107,0.612-0.396,0.756c-0.828,0.396-2.34,0.685-3.06,0.648c-0.252-0.036-0.433-0.36-0.433-0.576
			c0.108-1.907,0.217-3.852,0.181-5.759h-6.264c-0.504,0-1.26,0.144-1.655,0.359L195.642,6.6h8.855c0.107-1.62,0-3.132-0.18-4.68
			c1.655,0.324,3.383,0.792,4.967,1.296c0.216,0.072,0.216,0.54,0.072,0.612c-0.432,0.144-1.116,0.54-1.116,1.044V6.6h5.651V4.548
			c0-0.828,0-1.656-0.107-2.556c1.655,0.36,3.348,0.612,4.931,1.224c0.216,0.108,0.181,0.576-0.036,0.72
			c-0.575,0.288-1.043,0.721-1.043,1.116V6.6h3.239c0.576-0.756,1.08-1.512,1.836-2.231c0.107-0.072,0.359-0.145,0.54-0.036
			c0.972,0.72,2.556,2.195,3.131,2.844c0.145,0.216-0.035,0.54-0.252,0.54h-8.494v1.943c0,0.756,0,1.548,0.035,2.16
			c0.036,0.287-0.035,0.647-0.252,0.827c-0.756,0.612-2.195,0.973-2.951,1.008c-0.324,0-0.576-0.323-0.576-0.575v-0.756h-1.008
			v3.455h5.399c0.396-0.504,0.972-1.188,1.224-1.512c0.145-0.144,0.504-0.18,0.648-0.072c1.151,0.685,2.268,1.44,3.167,2.34
			c0.145,0.145,0.072,0.468-0.071,0.54c-0.396,0.216-1.008,0.54-1.008,1.044c-0.072,1.584,0,3.023,0,4.644
			c0,0.288-0.145,0.504-0.396,0.72c-0.72,0.54-2.195,0.756-2.88,0.756c-0.288,0-0.54-0.288-0.54-0.612v-1.224h-5.507v3.636h8.639
			c0.504-0.756,1.008-1.403,1.656-2.088c0.216-0.216,0.504-0.216,0.756-0.036c1.115,0.828,2.159,1.8,2.987,2.7
			C227.138,26.793,226.958,27.153,226.742,27.153z M209.141,16.895h-5.508v4.392h5.508V16.895z M213.892,7.751h-5.651v3.456h5.651
			V7.751z M218.427,16.895h-5.471v4.392h5.471V16.895z"/>
	</g>
	<g>
		<path d="M157.744,59.406c-0.336,0.377-0.588,0.84-0.756,1.449c-2.016,0.041-4.094,0.062-6.089-0.252
			c-2.12-0.316-4.073-1.051-5.605-2.771c-0.21-0.232-0.336-0.463-0.672-0.504c-0.399-0.021-0.546,0.23-0.819,0.566
			c-0.42,0.504-0.84,1.113-1.176,1.658c-0.168,0.295-0.398,0.273-0.504,0.105c-0.462-0.734-0.966-1.533-1.364-2.227
			c-0.105-0.188-0.021-0.377,0.146-0.398c0.882-0.125,1.764-0.357,2.604-0.65c0.609-0.211,1.218-0.482,1.764-0.883
			c2.709-1.91,5.963-4.346,8-6.781h-9.764c-0.546,0-1.028,0.043-1.302,0.168l-0.63-0.818h12.115c0.44-0.463,0.924-0.861,1.302-1.197
			c0.084-0.084,0.252-0.084,0.356,0c0.63,0.482,1.365,1.051,1.869,1.574c0.23,0.232,0.126,0.441-0.147,0.547
			c-0.65,0.252-1.238,0.672-1.784,1.176c-2.709,2.477-6.278,4.576-9.848,6.424c1.239,0.883,2.751,1.408,4.263,1.576
			c3.149,0.314,6.025,0.125,9.49,0.02v0.273C158.647,58.607,158.122,58.965,157.744,59.406z M150.249,47.459
			c-0.273,0.021-0.483-0.084-0.672-0.23c-0.231-0.211-0.315-0.504-0.399-0.84c-0.146-0.631-0.356-1.219-0.692-1.742
			c-0.336-0.504-0.714-0.945-1.155-1.387l0.147-0.293c1.386,0.336,2.813,0.629,3.821,1.783c0.336,0.379,0.356,1.029,0.21,1.512
			C151.299,46.83,150.795,47.291,150.249,47.459z"/>
		<path d="M179.237,61.023c-0.23,0.23-0.608,0.336-1.028,0.209c-1.512-0.461-3.087-2.457-3.717-3.779
			c-1.848,1.742-3.989,2.918-6.277,3.674l-0.105-0.252c2.184-1.111,4.347-2.771,5.816-4.934c-0.798-2.498-1.071-5.207-1.302-7.957
			h-3.359v2.561h1.07c0.168-0.209,0.441-0.588,0.588-0.756c0.063-0.084,0.252-0.062,0.315-0.02c0.504,0.355,1.028,0.775,1.428,1.176
			c0.126,0.125,0.084,0.293-0.042,0.398s-0.42,0.314-0.42,0.588c0,1.512-0.189,2.855-0.294,4.346
			c-0.042,0.525-0.231,0.924-0.525,1.219c-0.356,0.355-0.882,0.566-1.406,0.691c0.021-0.797-0.399-1.553-1.113-1.932v-0.23
			c0.273,0.043,0.588,0.043,0.882,0.043c0.21,0,0.378-0.189,0.399-0.4c0.104-1.512,0.21-3.023,0.188-4.471h-1.05
			c-0.021,1.531-0.146,3.064-0.566,4.492c-0.399,1.365-1.05,2.604-2.142,3.59c-0.966,0.883-2.499,1.723-3.695,2.184l-0.105-0.209
			c1.302-0.861,2.436-1.994,3.213-3.318c0.588-1.008,0.986-2.119,1.092-3.316c-0.903,0.629-2.667,1.658-3.843,2.289
			c-0.462,0.252-0.776,0.504-1.176,0.881c-0.104,0.084-0.314,0.105-0.356,0c-0.252-0.482-0.714-1.721-0.903-2.457
			c0.903-0.104,1.722-0.23,2.562-0.42v-5.059h-0.902c-0.294,0-0.672,0.104-0.903,0.252l-0.504-0.904h2.31V44.33
			c0-0.271-0.042-0.859-0.062-1.133c0.818,0.273,1.722,0.588,2.436,0.881c0.146,0.084,0.126,0.336,0,0.379
			c-0.189,0.062-0.399,0.252-0.399,0.441v4.303c0.252-0.355,0.588-0.775,0.819-1.07c0.042-0.062,0.168-0.084,0.252-0.021
			c0.294,0.252,0.566,0.547,0.818,0.84v-1.889c0-0.295,0-0.609-0.062-0.883c0.798,0.357,1.596,0.736,2.352,1.156h3.023
			c-0.063-1.029-0.105-2.121-0.147-3.129c-0.021-0.566-0.084-1.135-0.168-1.68c0.924,0.146,1.785,0.398,2.667,0.693
			c0.146,0.041,0.146,0.252,0.021,0.314c-0.188,0.084-0.462,0.252-0.462,0.482c0,1.008,0.042,2.205,0.126,3.318h1.785
			c0.23-0.295,0.714-0.883,0.882-1.113c0.084-0.127,0.21-0.105,0.336,0c0.524,0.42,1.05,0.924,1.47,1.428
			c0.104,0.125,0.021,0.336-0.147,0.336h-4.241c0.105,1.785,0.252,3.549,0.651,5.229c0.398-1.24,0.734-2.5,0.86-3.863
			c0.819,0.293,1.638,0.65,2.415,1.092c0.126,0.062,0.062,0.293-0.063,0.336c-0.21,0.041-0.504,0.209-0.566,0.461
			c-0.462,1.639-1.092,3.086-2.037,4.514c0.336,0.883,0.882,1.744,1.575,2.457c0.104,0.105,0.252,0.021,0.314-0.105
			c0.462-0.902,0.882-1.867,1.239-2.791l0.252,0.062c-0.105,0.713-0.252,1.512-0.336,2.289c-0.084,0.775-0.042,1.553,0.336,2.246
			C179.553,60.352,179.489,60.771,179.237,61.023z M165.338,49.854v4.576c0.567-0.125,1.281-0.273,1.806-0.461
			c0.126-1.281,0.147-2.898,0.084-4.115H165.338z M176.193,46.326c-0.231-0.043-0.462-0.211-0.483-0.568
			c-0.042-0.545-0.314-1.26-0.84-1.721l0.105-0.23c0.65,0,1.722,0.271,2.12,0.756c0.42,0.504,0.357,0.965,0.063,1.301
			C176.907,46.178,176.529,46.367,176.193,46.326z"/>
	</g>
	<line fill="none" stroke="#000000" stroke-miterlimit="10" x1="20" y1="72" x2="300" y2="72"/>
	<g>
		<path d="M67.091,93.422l-0.483-1.596c2.268-2.561,3.927-5.521,4.955-8.84l1.407,0.672c-0.546,1.66-1.239,3.234-2.079,4.703v13.984
			h-1.512V90.693C68.665,91.658,67.909,92.561,67.091,93.422z M73.348,91.574l-1.302-0.797c1.596-2.332,2.75-4.914,3.464-7.748
			l1.428,0.293c-0.21,0.82-0.462,1.596-0.714,2.332h8.944v0.986c-0.336,1.301-0.756,2.582-1.28,3.842l-1.449-0.42
			c0.483-0.881,0.882-1.848,1.197-2.939h-7.958C75.006,88.762,74.229,90.23,73.348,91.574z M76.518,91.994
			c-0.756,2.918-1.742,5.48-2.96,7.686l-1.407-0.504c1.134-1.975,2.142-4.494,3.003-7.559L76.518,91.994z M75.552,102.199
			l-0.314-1.428c0.882,0.062,1.742,0.104,2.54,0.104c0.525,0,0.798-0.271,0.798-0.818v-11.17h1.47v11.549
			c0,1.176-0.588,1.764-1.742,1.764H75.552z M85.693,99.447l-1.323,0.588c-0.84-3.064-1.784-5.795-2.813-8.146l1.344-0.439
			C83.972,93.926,84.896,96.592,85.693,99.447z"/>
		<path d="M97.855,83.092v2.75h8.252v1.471h-8.252v3.213h5.648v1.344c-1.176,2.352-2.877,4.367-5.103,6.047
			c1.05,0.588,2.205,1.154,3.465,1.658c1.49,0.566,3.086,1.049,4.787,1.469l-0.882,1.324c-1.806-0.484-3.527-1.051-5.145-1.723
			c-1.302-0.566-2.456-1.176-3.506-1.848c-2.394,1.512-5.249,2.709-8.588,3.611l-0.86-1.344c3.191-0.756,5.921-1.805,8.167-3.148
			c-1.092-0.84-2.058-1.764-2.855-2.793c-0.776-0.967-1.322-2.037-1.638-3.191H89.73v-1.406h6.571v-3.213h-8.167v-1.471h8.167v-2.75
			H97.855z M101.803,91.932h-8.965c0.378,1.133,0.966,2.121,1.764,2.98c0.714,0.82,1.554,1.555,2.498,2.184
			C99.137,95.668,100.711,93.947,101.803,91.932z"/>
		<path d="M109.481,102.156l-0.315-1.449c0.567,0.064,1.113,0.105,1.638,0.105c0.567,0,0.861-0.314,0.861-0.945v-4.975
			c-0.798,0.293-1.617,0.588-2.457,0.84l-0.378-1.512c0.966-0.232,1.911-0.504,2.835-0.84v-4.809h-2.604v-1.449h2.604v-3.758h1.47
			v3.758h2.184v1.449h-2.184v4.24c0.756-0.336,1.49-0.691,2.226-1.07v1.533c-0.735,0.377-1.47,0.713-2.226,1.029v5.941
			c0,1.26-0.609,1.91-1.806,1.91H109.481z M123.611,93.275v-1.617h1.47v1.617h2.562v1.406h-2.562v5.711
			c0,1.197-0.608,1.807-1.806,1.807h-2.729l-0.294-1.428c0.882,0.062,1.722,0.104,2.52,0.104c0.546,0,0.84-0.293,0.84-0.84v-5.354
			h-7.789v-1.406H123.611z M122.373,83.154v2.164h4.976v1.406h-4.976v2.457h4.409v1.385h-10.12v-1.385h4.241v-2.457h-4.997v-1.406
			h4.997v-2.164H122.373z M120.525,99.049l-1.197,0.84c-0.63-1.049-1.47-2.205-2.54-3.484l1.218-0.736
			C119.098,96.949,119.938,98.084,120.525,99.049z"/>
		<path d="M139.021,87.795c1.176,5.711,4.22,10.078,9.112,13.08l-0.987,1.324c-4.283-2.814-7.181-6.594-8.671-11.338
			c-1.26,4.576-4.241,8.355-8.902,11.357l-0.924-1.344c5.773-3.547,8.755-8.355,8.944-14.402c0.021-1.428,0.042-2.541,0.042-3.338
			h1.532C139.167,84.939,139.104,86.494,139.021,87.795z"/>
		<path d="M153.186,100.225c1.848-0.377,3.695-0.902,5.522-1.533l0.356,1.449c-1.974,0.631-4.472,1.26-7.453,1.848l-0.399-1.406
			c0.294-0.168,0.462-0.42,0.462-0.756V83.891h15.013v6.172h-5.921c0.084,1.092,0.23,2.059,0.398,2.939h6.845v1.471H161.5
			c0.147,0.566,0.315,1.092,0.525,1.574c0.692,1.574,1.428,2.729,2.184,3.443c0.734,0.65,1.406,0.986,2.016,1.008
			c0.23,0,0.44-0.211,0.63-0.588c0.21-0.42,0.378-1.344,0.504-2.771l1.344,0.734c-0.252,1.764-0.567,2.918-0.924,3.422
			c-0.336,0.525-0.756,0.799-1.239,0.82c-0.966-0.021-1.974-0.504-3.023-1.449c-1.05-0.967-1.952-2.33-2.75-4.137
			c-0.273-0.629-0.504-1.322-0.714-2.057h-6.866V100.225z M153.186,85.338v3.297h12.031v-3.297H153.186z M153.186,90.062v2.939h6.53
			c-0.21-0.924-0.357-1.91-0.462-2.939H153.186z"/>
		<path d="M189.521,91.785v1.512h-18.876v-1.512H189.521z"/>
		<path d="M197.522,83.029v2.855h3.297v1.385h-3.297v3.088h3.569v1.385h-3.17v2.961h2.981v1.385h-2.981v3.969
			c1.322,0.336,3.821,0.525,7.495,0.525c2.436,0,4.241-0.043,5.438-0.105l-0.252,1.471h-4.851c-4.829,0-7.853-0.295-9.07-0.861
			c-1.05-0.504-1.974-1.365-2.771-2.604c-0.314,1.385-0.734,2.666-1.26,3.863l-1.154-1.029c1.05-2.436,1.616-5.186,1.742-8.23
			l1.344,0.146c-0.042,1.24-0.168,2.416-0.336,3.549c0.672,1.176,1.407,2.059,2.226,2.604v-7.643h-4.346v-1.385h3.884V87.27h-3.485
			v-1.385h3.485v-2.855H197.522z M209.428,91.344h-5.711v4.977c0,0.504,0.294,0.775,0.924,0.775h2.981
			c0.482-0.02,0.818-0.23,1.008-0.629c0.146-0.336,0.272-1.154,0.356-2.479l1.428,0.463c-0.126,1.281-0.272,2.205-0.462,2.75
			c-0.314,0.84-0.944,1.281-1.89,1.322h-3.989c-1.238,0-1.848-0.566-1.848-1.68V84.457h7.202V91.344z M207.979,89.957v-4.135h-4.262
			v4.135H207.979z"/>
		<path d="M220.872,90.734c-2.184,0.463-4.43,0.799-6.739,0.967l-0.357-1.051c1.344-0.713,2.457-1.805,3.339-3.297l1.238,0.4
			c-0.672,1.049-1.406,1.932-2.246,2.645c1.344-0.125,2.666-0.336,3.968-0.588c-0.336-0.377-0.692-0.734-1.05-1.092l1.029-0.65
			c0.882,0.84,1.596,1.617,2.142,2.289h0.818l0.021,0.02l-0.063-0.188c1.197-0.672,2.184-1.701,2.981-3.088l1.239,0.4
			c-0.588,0.986-1.26,1.805-2.016,2.477c1.154-0.084,2.288-0.209,3.38-0.377c-0.294-0.357-0.588-0.693-0.882-1.029l1.05-0.65
			c1.134,1.195,1.995,2.246,2.604,3.127l-1.112,0.777c-0.273-0.441-0.567-0.881-0.903-1.301c-1.7,0.314-3.422,0.523-5.186,0.65
			c1.806,1.176,4.43,2.225,7.853,3.148l-0.84,1.281c-3.905-1.092-6.803-2.436-8.714-4.031c-2.31,1.764-5.207,3.107-8.692,4.074
			l-0.84-1.281c3.423-0.902,6.131-2.037,8.146-3.422L220.872,90.734z M229.816,86.746l-1.196,0.84
			c-0.336-0.379-0.714-0.736-1.134-1.092c-4.241,0.271-8.252,0.504-12.052,0.672l-0.252-1.197c1.47,0,3.212-0.986,5.228-2.961
			l1.407,0.379c-0.987,1.008-1.932,1.826-2.835,2.436c3.191-0.189,5.585-0.336,7.181-0.463c-0.524-0.42-1.07-0.84-1.658-1.26
			l1.092-0.693C227.444,84.688,228.851,85.801,229.816,86.746z M224.273,93.863c-2.1,1.68-4.64,2.771-7.621,3.275l-0.798-1.092
			c3.065-0.504,5.501-1.49,7.307-2.918L224.273,93.863z M226.709,95.48c-2.729,2.184-6.025,3.611-9.931,4.24l-0.798-1.113
			c4.031-0.672,7.223-1.951,9.595-3.883L226.709,95.48z M229.586,96.971c-3.485,2.812-7.685,4.641-12.619,5.459l-0.84-1.113
			c5.165-0.881,9.26-2.582,12.283-5.102L229.586,96.971z"/>
		<path d="M240.194,84.793c-0.734,0.336-1.952,0.693-3.653,1.07l0.126,2.33h3.129v1.365h-3.065l0.126,2.541h2.792v1.385h-2.729
			l0.126,2.668h12.262l0.126-2.625h-2.33v-1.387h2.414l0.126-2.561h-2.394v-1.365h2.457l0.126-2.561h-2.729v-1.428h4.178
			l-0.504,11.926h1.68v1.428h-18.623v-1.428h1.764l-0.483-11.465c1.659-0.273,3.171-0.693,4.515-1.26L240.194,84.793z
			 M241.14,98.818c-1.68,1.301-3.779,2.436-6.257,3.4l-0.945-1.217c2.415-0.902,4.451-1.953,6.11-3.15L241.14,98.818z
			 M242.126,90.504c-0.084,1.742-0.398,3.4-0.966,4.996l-1.218-0.355c0.546-1.492,0.861-3.066,0.945-4.725L242.126,90.504z
			 M242.525,88.258h3.527c-0.042,3.904-0.231,6.109-0.567,6.613c-0.294,0.441-0.924,0.672-1.91,0.672h-0.672l-0.399-1.365
			c0.399,0,0.777,0.021,1.113,0.021c0.42,0,0.692-0.146,0.818-0.42c0.147-0.295,0.231-1.701,0.273-4.221h-3.779
			c0.462-2.414,0.798-4.535,1.028-6.383l1.344,0.127c-0.084,0.588-0.146,1.133-0.21,1.68h3.171v1.344h-3.381
			C242.756,86.998,242.651,87.648,242.525,88.258z M252.54,100.959l-0.84,1.303c-2.1-1.428-4.241-2.541-6.425-3.359l0.756-1.135
			C248.425,98.65,250.588,99.699,252.54,100.959z"/>
		<path d="M104.765,109.027c-0.441,1.49-0.987,2.896-1.659,4.24v14.361h-1.448v-11.861c-0.63,0.924-1.302,1.826-2.016,2.666
			l-0.504-1.596c1.952-2.457,3.38-5.27,4.283-8.441L104.765,109.027z M110.622,125.109h-4.598v1.365h-1.428v-8.566h2.268v-4.053
			h-2.709v-1.363h2.709v-3.906h1.448v3.906h2.729v1.363h-2.729v4.053h2.31V125.109z M109.194,123.787v-4.535h-3.17v4.535H109.194z
			 M111.21,117.803l-0.882-1.07c1.218-2.037,2.058-4.766,2.499-8.188l1.428,0.23c-0.147,0.965-0.315,1.889-0.525,2.771h4.683v1.406
			h-1.029c-0.062,3.99-0.714,7.266-1.974,9.826c0.819,1.428,1.869,2.666,3.171,3.695l-0.882,1.154
			c-1.239-0.986-2.268-2.119-3.087-3.422c-0.86,1.344-1.932,2.479-3.191,3.359l-0.882-1.154c1.344-0.902,2.457-2.1,3.317-3.57
			c-0.924-1.867-1.512-4.01-1.764-6.445l1.281-0.398c0.168,1.932,0.588,3.674,1.26,5.229c0.902-2.268,1.364-5.039,1.406-8.273
			h-2.666C112.827,114.906,112.092,116.523,111.21,117.803z"/>
		<path d="M135.425,109.867h1.512v7.201h-6.425v7.705h5.921v-5.73h1.532v8.355h-1.532v-1.176h-13.396v1.176h-1.533v-8.355h1.533
			v5.73h5.921v-7.705h-6.425v-7.201h1.512v5.732h4.913v-7.328h1.554v7.328h4.913V109.867z"/>
		<path d="M145.602,114.779v-6.402h1.47v6.402h4.01v1.428h-4.01c-0.042,1.135-0.126,2.205-0.294,3.191h4.892v1.449h-5.186
			c-0.735,2.814-2.121,5.039-4.137,6.635l-1.196-1.049c1.848-1.365,3.107-3.234,3.8-5.586h-3.926v-1.449h4.262
			c0.189-1.008,0.294-2.057,0.315-3.191h-4.073v-1.428H145.602z M144.384,113.416l-1.365,0.355c-0.378-1.428-0.86-2.791-1.428-4.094
			l1.302-0.441C143.438,110.455,143.922,111.861,144.384,113.416z M151.123,109.385c-0.42,1.699-0.944,3.191-1.574,4.471
			l-1.323-0.482c0.609-1.133,1.134-2.582,1.575-4.346L151.123,109.385z M154.734,110.266v12.955h-1.47v-12.955H154.734z
			 M154.252,127.357l-0.336-1.449c0.902,0.062,1.764,0.105,2.582,0.105c0.714,0,1.071-0.379,1.071-1.135v-16.523h1.49v16.902
			c0,1.385-0.692,2.1-2.058,2.1H154.252z"/>
		<path d="M166.366,116.523l-1.092,1.092c-0.819-0.945-1.974-1.932-3.465-2.982l1.092-1.049
			C164.287,114.57,165.442,115.557,166.366,116.523z M166.681,119.799c-0.966,2.666-2.058,5.164-3.275,7.516l-1.47-0.629
			c1.302-2.416,2.436-4.893,3.381-7.412L166.681,119.799z M167.017,111.484l-1.092,1.092c-0.882-0.924-2.1-1.891-3.632-2.898
			l1.092-1.049C164.812,109.594,166.009,110.539,167.017,111.484z M172.224,111.127v-2.814h1.47v2.814h5.039v6.34h1.953v1.471h-7.37
			c-0.776,3.988-2.771,6.865-6.005,8.629l-0.924-1.217c2.919-1.492,4.745-3.969,5.48-7.412h-4.641v-1.471h4.871
			c0.084-0.734,0.126-1.49,0.126-2.246v-2.645h-3.947v-1.449H172.224z M173.693,114.906c0,0.881-0.062,1.742-0.146,2.561h3.716
			v-4.891h-3.569V114.906z M174.093,121.541l0.986-0.945c1.638,1.281,3.549,3.191,5.774,5.754l-1.071,1.07
			C177.893,125.152,175.982,123.178,174.093,121.541z"/>
		<path d="M188.651,122.906h-3.801v1.512h-1.428v-14.383h5.229V122.906z M187.244,121.498v-10.057h-2.394v10.057H187.244z
			 M191.359,120.953c-0.294,2.162-0.672,4.053-1.134,5.668l-1.28-0.439c0.462-1.449,0.882-3.297,1.238-5.543L191.359,120.953z
			 M201.312,118.455c0,4.492-0.272,7.117-0.776,7.873c-0.525,0.756-1.512,1.133-2.981,1.133c-0.588,0-1.176-0.02-1.785-0.041
			l-0.336-1.365c0.672,0.043,1.281,0.084,1.848,0.084c1.323,0,2.1-0.441,2.31-1.281s0.336-2.561,0.336-5.143h-9.595v-10.688h10.834
			v1.281h-4.347v1.867h3.947v1.24h-3.947v1.932h4.011v1.238h-4.011v1.869H201.312z M191.737,110.309v1.867h3.695v-1.867H191.737z
			 M191.737,115.348h3.695v-1.932h-3.695V115.348z M191.737,118.455h3.695v-1.869h-3.695V118.455z M193.879,125.846l-1.218,0.146
			c-0.042-2.184-0.146-3.863-0.272-5.039l1.134-0.127C193.69,122.045,193.816,123.725,193.879,125.846z M196.63,124.879
			l-1.197,0.273c-0.168-1.639-0.398-3.066-0.65-4.283l1.134-0.23C196.168,121.939,196.42,123.346,196.63,124.879z M199.275,123.682
			l-1.092,0.42c-0.294-1.195-0.63-2.352-1.029-3.484l1.071-0.295C198.688,121.541,199.023,122.674,199.275,123.682z"/>
		<path d="M214.11,111.273c0.798,0.715,1.196,1.701,1.196,2.961c0,0.945-0.272,1.764-0.776,2.457
			c-0.231,0.252-0.798,0.797-1.722,1.615c-0.462,0.379-0.777,0.756-0.987,1.135c-0.272,0.461-0.398,0.986-0.398,1.553v0.484h-1.68
			v-0.484c0-0.756,0.146-1.406,0.462-1.994c0.294-0.545,0.756-1.113,1.406-1.701c0.714-0.629,1.155-1.07,1.365-1.322
			c0.398-0.525,0.608-1.07,0.608-1.658c0-0.84-0.252-1.49-0.714-1.953c-0.504-0.504-1.176-0.734-2.058-0.734
			c-1.05,0-1.826,0.336-2.33,1.029c-0.462,0.588-0.693,1.385-0.693,2.414h-1.68c0.021-1.471,0.441-2.646,1.26-3.527
			c0.84-0.924,2.016-1.387,3.527-1.387C212.241,110.16,213.312,110.518,214.11,111.273z M211.507,123.305
			c0.23,0.23,0.356,0.525,0.356,0.881c0,0.379-0.126,0.672-0.356,0.904c-0.252,0.23-0.567,0.355-0.924,0.355
			c-0.357,0-0.651-0.125-0.903-0.355c-0.252-0.252-0.356-0.547-0.356-0.904c0-0.355,0.104-0.65,0.356-0.881
			c0.252-0.252,0.546-0.357,0.903-0.357C210.939,122.947,211.255,123.053,211.507,123.305z"/>
	</g>
</g>
<g id="Layer_2" display="none">
</g>
</svg>
