<?xml version="1.0" encoding="utf-8"?>
<!-- Generator: Adobe Illustrator 17.0.0, SVG Export Plug-In . SVG Version: 6.00 Build 0)  -->
<!DOCTYPE svg PUBLIC "-//W3C//DTD SVG 1.1//EN" "http://www.w3.org/Graphics/SVG/1.1/DTD/svg11.dtd">
<svg version="1.1" xmlns="http://www.w3.org/2000/svg" xmlns:xlink="http://www.w3.org/1999/xlink" x="0px" y="0px" width="320px"
	 height="160px" viewBox="0 0 320 160" enable-background="new 0 0 320 160" xml:space="preserve">
<g id="Layer_3">
</g>
<g id="Layer_1">
	<g>
		<path d="M105.98,29.385c-0.324,0.36-0.72,0.54-1.116,0.54c-0.396,0-0.792-0.252-1.08-0.684c-1.079-1.548-1.728-2.269-2.915-3.24
			c-1.836,3.06-5.111,5.327-8.279,6.839l-0.288-0.323c2.556-2.448,4.859-5.111,6.155-8.135c-1.476-0.937-3.167-1.656-4.787-2.34
			c0.972-3.384,1.764-7.02,2.412-10.439h-1.08c-0.504,0-1.548,0.181-1.944,0.324l-0.972-1.439h4.176
			c0.54-2.771,0.972-5.544,1.367-8.387c1.548,0.359,3.061,0.863,4.5,1.439c0.216,0.072,0.288,0.504,0.072,0.612
			c-0.504,0.216-1.225,0.647-1.296,0.972c-0.396,2.195-0.648,3.348-1.08,5.363h1.439c0.433-0.54,0.972-1.116,1.44-1.548
			c0.107-0.108,0.252-0.108,0.359,0c0.937,0.647,2.016,1.512,2.952,2.411c0.18,0.181,0.071,0.54-0.145,0.612
			c-0.468,0.18-0.863,0.612-0.936,1.224c-0.432,3.384-1.152,6.695-2.52,9.971c1.115,0.433,2.34,0.973,3.239,1.836
			c0.612,0.612,0.9,1.224,0.936,1.979C106.664,27.765,106.484,28.772,105.98,29.385z M99.646,11.603
			c-0.612,2.772-2.017,8.279-2.521,10.079c0.685,0.108,1.729,0.324,2.196,0.468c1.08-3.348,1.764-6.911,2.159-10.547H99.646z
			 M123.078,19.702c-1.584,0.072-2.987-0.468-4.283-1.188c-1.8-0.972-2.988-2.268-3.852-3.815c-0.54-0.972-0.936-2.016-1.26-3.203
			h-3.744v3.42c1.332-0.145,2.592-0.54,3.852-0.864l0.217,0.468c-1.729,1.439-3.528,2.844-5.256,4.176
			c0.864,0.468,1.943,1.08,2.376,1.332h5.615c0.324-0.469,0.684-0.937,1.044-1.225c0.144-0.071,0.396-0.107,0.575-0.036
			c1.188,0.648,2.269,1.44,3.204,2.16c0.108,0.108,0.072,0.396-0.036,0.468c-0.504,0.324-0.899,0.648-0.899,1.08v6.516
			c0,0.972,0.071,2.483,0.144,2.951c0.036,0.324-0.036,0.647-0.288,0.792c-0.756,0.468-2.124,0.864-2.844,0.972
			c-0.288,0.036-0.647-0.18-0.647-0.468v-2.771h-5.939v1.943c0,0.324-0.18,0.648-0.504,0.828c-0.612,0.324-2.016,0.684-2.735,0.647
			c-0.216,0-0.468-0.216-0.468-0.432c0.035-0.828,0.107-2.088,0.107-3.312V19.81c-0.792-1.151-1.512-2.339-2.124-3.527
			c-0.071-0.144,0.036-0.396,0.181-0.468c0.396-0.18,0.899-0.396,0.899-0.899V6.563c0-0.647-0.036-1.907-0.144-2.628
			c1.224,0.396,2.483,0.937,3.671,1.44c2.88-0.828,5.688-1.872,8.279-3.384c1.296,0.864,2.628,2.016,3.6,3.06
			c0.18,0.18-0.036,0.612-0.288,0.576c-0.647-0.072-1.332-0.108-1.907,0c-1.188,0.216-2.088,0.359-3.168,0.468
			c0.036,1.439,0.108,2.951,0.504,4.283h1.62c0.396-0.54,1.224-1.655,1.655-2.231c0.108-0.144,0.396-0.072,0.504,0
			c1.044,0.899,2.124,1.8,2.952,2.735c0.18,0.181,0,0.612-0.216,0.612h-6.12c0.324,1.655,1.908,3.42,3.528,4.031
			c0.288,0.108,0.756,0.036,0.936-0.252c0.576-0.828,1.368-2.268,1.728-2.88l0.433,0.145c-0.252,1.151-0.504,2.411-0.576,3.275
			c-0.036,0.684,0.144,1.368,0.647,1.908c0.36,0.396,0.36,0.936,0.252,1.26C124.122,19.414,123.654,19.666,123.078,19.702z
			 M112.928,6.491c-0.937,0.108-1.98,0.145-2.916,0.181v3.707h3.384C113.107,9.155,112.999,7.823,112.928,6.491z M116.995,21.142
			h-5.939v3.456h5.939V21.142z M116.995,25.713h-5.939v3.636h5.939V25.713z"/>
		<path d="M140.256,11.243c-0.396,0.107-0.756,0.396-0.792,0.647c-0.539,4.248-1.403,8.315-2.771,11.591
			c1.116,0.54,2.088,1.26,2.844,2.016c0.684,0.72,0.864,1.62,0.756,2.412c-0.107,0.863-0.54,1.548-1.151,1.728
			c-0.504,0.144-1.116-0.036-1.692-0.756c-0.611-0.828-1.512-1.836-2.268-2.52c-1.943,2.844-4.823,4.823-7.595,6.335l-0.324-0.324
			c2.556-2.268,4.464-4.931,5.76-7.774c-1.332-1.116-2.916-1.8-4.572-2.268c1.009-3.6,1.836-7.56,2.484-11.447h-0.828
			c-0.684,0-1.368,0.072-2.016,0.252l-0.972-1.367h3.959c0.504-2.664,0.9-5.436,1.044-8.063c1.512,0.36,3.06,0.828,4.464,1.368
			c0.216,0.107,0.18,0.684,0,0.72c-0.54,0.18-1.08,0.576-1.152,1.008c-0.252,1.62-0.54,3.456-0.863,4.968h1.367
			c0.216-0.324,0.648-0.864,1.044-1.225c0.216-0.216,0.504-0.252,0.792-0.071c0.9,0.575,1.943,1.476,2.628,2.159
			C140.58,10.812,140.4,11.171,140.256,11.243z M134.353,10.883c-0.684,3.636-1.548,7.415-2.556,11.051
			c0.721,0.108,1.44,0.252,2.124,0.468c1.152-3.671,1.943-7.451,2.088-11.519H134.353z M158.614,6.168
			c-0.54,0.252-1.116,0.72-1.116,1.224v21.598c0,0.647,0.072,1.943,0.144,2.556c0.036,0.432-0.071,0.863-0.432,1.115
			c-0.54,0.396-1.764,0.756-2.628,0.792c-0.252,0-0.611-0.396-0.611-0.72v-2.556h-9.611v1.764c0,0.432-0.107,0.72-0.54,0.936
			c-0.647,0.324-1.548,0.612-2.304,0.721c-0.252,0.035-0.684-0.072-0.684-0.469c0.036-0.827,0-2.268,0-3.06V5.52
			c0-0.72-0.036-1.943-0.144-2.699c1.151,0.54,2.52,1.26,3.743,1.907h9.215c0.288-0.359,0.864-1.008,1.368-1.548
			c0.18-0.18,0.468-0.18,0.684-0.036c1.044,0.685,2.052,1.477,2.951,2.305C158.83,5.592,158.83,6.06,158.614,6.168z M153.971,5.844
			h-9.611v7.163h2.484c0.035-2.34,0.035-4.464-0.181-6.695c1.225,0.145,2.988,0.504,4.212,0.828c0.359,0.107,0.396,0.647,0.18,0.792
			c-0.432,0.216-0.792,0.504-0.792,0.972c0,1.116-0.071,2.844-0.144,4.104h0.324c0.252-0.432,0.791-1.224,1.151-1.656
			c0.144-0.144,0.324-0.18,0.468-0.035c0.685,0.575,1.296,1.26,1.908,1.907V5.844z M145.008,14.41l-0.648-0.827v12.238
			c1.729-3.6,2.412-7.523,2.484-11.734C146.159,14.051,145.548,14.158,145.008,14.41z M153.971,14.123h-3.924
			c-0.072,1.439-0.36,2.951-0.684,4.391c1.764,1.261,3.132,2.592,3.995,4.14c0.396,0.756,0.432,1.692,0.072,2.52
			c-0.432,0.973-1.116,1.513-1.764,1.513c-0.54,0-1.08-0.433-1.116-1.332c-0.144-2.52-0.647-4.788-1.439-5.939
			c-0.756,2.771-2.448,5.327-4.752,7.415v2.195h9.611V14.123z"/>
		<path d="M193.188,19.558h-13.715c0.036,4.067,0.036,8.855,0.145,12.851c0,0.252-0.108,0.648-0.36,0.756
			c-0.972,0.468-1.979,0.9-3.203,1.008c-0.396,0-0.685-0.288-0.648-0.684c0.108-3.672,0.181-10.511,0.108-13.931H164.68
			c-0.684,0-1.332,0.108-1.943,0.324l-0.792-1.439h13.57V5.7h-9.143c-0.504,0-1.225,0.144-1.836,0.323l-0.792-1.439h21.597
			c0.685-0.9,1.404-1.728,2.232-2.52c0.18-0.181,0.468-0.181,0.611-0.036c1.225,0.899,2.448,1.979,3.528,3.096
			c0.216,0.216,0.144,0.576-0.181,0.576h-12.059v12.742h7.56c0.54-0.612,1.655-1.98,2.195-2.592
			c0.181-0.252,0.396-0.252,0.648-0.072c1.224,0.972,2.699,2.231,3.6,3.239C193.656,19.198,193.477,19.558,193.188,19.558z
			 M172.311,16.391c-0.575,0.323-1.079,0.359-1.476,0.216c-0.504-0.216-0.792-0.72-0.828-1.476
			c-0.144-2.304-0.756-4.896-2.951-7.092l0.432-0.396c2.268,0.936,4.823,2.268,6.119,4.535c0.433,0.756,0.396,1.872,0.036,2.7
			C173.391,15.49,172.887,16.066,172.311,16.391z M189.517,11.315c-0.504,0-1.151,0-1.548,0.396
			c-2.231,2.412-4.859,4.176-7.522,5.724l-0.36-0.288c2.124-2.592,4.499-6.516,5.363-9.755c1.476,0.936,3.204,2.195,4.319,3.275
			C189.948,10.847,189.805,11.315,189.517,11.315z"/>
		<path d="M227.514,31.437h-16.09c0,0.36,0,0.684,0,1.08c0.036,0.323-0.324,0.684-0.684,0.863c-0.828,0.36-1.944,0.576-2.736,0.504
			c-0.216-0.035-0.504-0.359-0.504-0.611c0.145-1.476,0.217-3.744,0.217-4.968v-4.896c-1.044,0.937-2.34,2.016-3.42,2.808
			l-0.288-0.396c2.124-2.916,3.852-6.083,5.039-9.395c-0.396,0.144-0.863,0.252-1.26,0.252c-0.323,0-0.575-0.145-0.54-0.612
			c0.036-0.792,0.108-1.548,0.108-2.34v-2.699h-3.6v3.312c0.9,0.396,2.052,1.044,2.771,1.907c0.468,0.576,0.756,1.26,0.72,1.944
			c0,0.647-0.252,1.26-0.756,1.764c-0.359,0.396-0.827,0.504-1.188,0.396c-0.504-0.144-0.864-0.611-0.864-1.224
			c0-1.008-0.18-2.088-0.684-2.88v11.519c0,1.188,0.072,3.456,0.145,4.752c0.035,0.396-0.145,0.647-0.433,0.828
			c-0.54,0.287-2.088,0.684-2.699,0.575c-0.36-0.036-0.648-0.323-0.612-0.792c0.108-1.8,0.145-3.635,0.145-5.471v-7.56
			c-0.937,1.548-2.952,4.248-4.032,5.508l-0.359-0.324c1.8-4.571,3.239-9.251,3.959-14.254h-0.972c-0.576,0-1.296,0.107-1.8,0.288
			l-0.828-1.404h4.032V5.052c0-1.044-0.072-2.124-0.145-3.132c1.476,0.324,2.952,0.612,4.355,1.08
			c0.288,0.108,0.324,0.612,0.108,0.72c-0.396,0.181-0.864,0.685-0.864,0.972v5.256c0.432-0.612,0.828-1.152,1.26-1.691
			c0.145-0.181,0.288-0.145,0.468,0.035c0.648,0.648,1.188,1.225,1.836,1.836c0-0.252,0-0.792-0.072-1.188
			c1.008,0.432,2.088,0.936,3.06,1.548h1.8c0.217-0.324,0.576-0.756,0.828-1.08c-0.432,0.108-1.188,0.216-1.655,0.108
			c-0.288-0.072-0.468-0.252-0.433-0.685c0.072-0.611,0.108-1.188,0.072-1.871h-3.023c-0.432,0-1.116,0.107-1.584,0.287
			l-0.972-1.403h5.615c0.072-1.152,0-2.592-0.072-3.96c1.476,0.324,2.988,0.721,4.428,1.26c0.216,0.072,0.252,0.54,0.108,0.576
			c-0.469,0.181-1.009,0.648-1.009,1.152v0.972h3.42c0-1.332-0.036-2.664-0.107-3.924c1.583,0.216,3.095,0.648,4.571,1.224
			c0.18,0.036,0.252,0.54,0.107,0.576c-0.468,0.108-1.008,0.504-1.008,0.972v1.152h1.764c0.396-0.648,0.9-1.26,1.404-1.872
			c0.144-0.107,0.324-0.071,0.432,0c0.9,0.72,1.836,1.584,2.592,2.484c0.108,0.144,0,0.504-0.144,0.504h-6.012
			c-0.036,0.287-0.036,0.611-0.036,0.899c0.036,0.288-0.107,0.504-0.359,0.648c-0.54,0.323-2.16,0.684-2.844,0.504
			c-0.324-0.072-0.54-0.324-0.468-0.756c0.035-0.36,0.071-0.864,0.071-1.296h-3.312c0,0.359,0,0.756,0.036,1.151
			c0,0.288-0.036,0.54-0.18,0.684c-0.108,0.181-0.324,0.288-0.612,0.324c0.756,0.576,1.8,1.44,2.34,1.872
			c0.144,0.144,0.18,0.54,0,0.647c-0.468,0.216-0.828,0.648-0.828,1.008v1.332c0,0.576,0.036,1.116,0.072,1.656l1.872,0.575
			c0.071-0.684,0.071-1.367,0.071-2.052v-2.735c0-0.756,0-1.548-0.071-2.34c1.044,0.396,2.087,0.864,3.096,1.404h1.799
			c0.324-0.432,0.792-0.937,1.188-1.368c0.144-0.144,0.396-0.107,0.576,0c0.756,0.54,1.583,1.332,2.268,2.016
			c0.18,0.145,0.107,0.504-0.072,0.576c-0.396,0.144-0.792,0.612-0.792,1.044v1.008c0,0.504,0.036,0.972,0.108,1.476
			c0.036,0.288-0.072,0.54-0.252,0.685c-0.433,0.359-1.584,0.684-2.34,0.611c-0.288-0.036-0.468-0.18-0.468-0.396v-0.864h-2.016
			v0.288c0,0.252-0.145,0.468-0.433,0.612c-0.54,0.287-1.296,0.468-1.836,0.504c0.396,0.287,0.612,0.647,0.648,1.079
			c0.072,0.433,0,0.937-0.216,1.368h3.635c0.36-0.504,1.044-1.332,1.477-1.836c0.107-0.071,0.323-0.107,0.468,0
			c0.828,0.685,2.016,1.728,2.663,2.34c0.108,0.072,0,0.612-0.144,0.612h-7.703v2.375h2.052c0.396-0.539,0.9-1.26,1.404-1.728
			c0.144-0.144,0.323-0.107,0.468,0c0.863,0.684,1.728,1.44,2.52,2.231c0.216,0.252,0.036,0.612-0.252,0.612h-6.191v2.7h1.872
			c0.359-0.505,1.008-1.368,1.403-1.872c0.072-0.072,0.252-0.072,0.324,0c0.792,0.647,1.836,1.584,2.628,2.376
			c0.144,0.144,0.072,0.575-0.145,0.575h-6.083v2.808h4.14c0.432-0.647,1.116-1.512,1.512-2.052c0.108-0.107,0.36-0.107,0.504,0
			c0.756,0.612,1.944,1.62,2.771,2.412C228.09,30.969,227.91,31.437,227.514,31.437z M214.016,16.21
			c-0.396,0.145-0.864,0.252-1.224,0.181c-0.288-0.036-0.504-0.216-0.504-0.576v-0.54h-1.908c0,0.252-0.036,0.432-0.18,0.576
			c0.72,0.288,2.052,0.899,3.096,1.368c0.288,0.144,0.288,0.575,0,0.72c-0.576,0.252-1.26,0.684-1.476,1.188h3.743
			C215.312,18.046,214.771,17.002,214.016,16.21z M212.288,11.603h-1.908v2.556h1.908V11.603z M215.275,20.242h-3.852v2.375h3.852
			V20.242z M215.275,23.733h-3.852v2.7h3.852V23.733z M215.275,27.513h-3.852v2.808h3.852V27.513z M222.295,11.603h-2.016v2.556
			h2.016V11.603z"/>
	</g>
	<g>
		<path d="M157.744,59.406c-0.336,0.377-0.588,0.84-0.756,1.449c-2.016,0.041-4.094,0.062-6.089-0.252
			c-2.12-0.316-4.073-1.051-5.605-2.771c-0.21-0.232-0.336-0.463-0.672-0.504c-0.399-0.021-0.546,0.23-0.819,0.566
			c-0.42,0.504-0.84,1.113-1.176,1.658c-0.168,0.295-0.398,0.273-0.504,0.105c-0.462-0.734-0.966-1.533-1.364-2.227
			c-0.105-0.188-0.021-0.377,0.146-0.398c0.882-0.125,1.764-0.357,2.604-0.65c0.609-0.211,1.218-0.482,1.764-0.883
			c2.709-1.91,5.963-4.346,8-6.781h-9.764c-0.546,0-1.028,0.043-1.302,0.168l-0.63-0.818h12.115c0.44-0.463,0.924-0.861,1.302-1.197
			c0.084-0.084,0.252-0.084,0.356,0c0.63,0.482,1.365,1.051,1.869,1.574c0.23,0.232,0.126,0.441-0.147,0.547
			c-0.65,0.252-1.238,0.672-1.784,1.176c-2.709,2.477-6.278,4.576-9.848,6.424c1.239,0.883,2.751,1.408,4.263,1.576
			c3.149,0.314,6.025,0.125,9.49,0.02v0.273C158.647,58.607,158.122,58.965,157.744,59.406z M150.249,47.459
			c-0.273,0.021-0.483-0.084-0.672-0.23c-0.231-0.211-0.315-0.504-0.399-0.84c-0.146-0.631-0.356-1.219-0.692-1.742
			c-0.336-0.504-0.714-0.945-1.155-1.387l0.147-0.293c1.386,0.336,2.813,0.629,3.821,1.783c0.336,0.379,0.356,1.029,0.21,1.512
			C151.299,46.83,150.795,47.291,150.249,47.459z"/>
		<path d="M179.237,61.023c-0.23,0.23-0.608,0.336-1.028,0.209c-1.512-0.461-3.087-2.457-3.717-3.779
			c-1.848,1.742-3.989,2.918-6.277,3.674l-0.105-0.252c2.184-1.111,4.347-2.771,5.816-4.934c-0.798-2.498-1.071-5.207-1.302-7.957
			h-3.359v2.561h1.07c0.168-0.209,0.441-0.588,0.588-0.756c0.063-0.084,0.252-0.062,0.315-0.02c0.504,0.355,1.028,0.775,1.428,1.176
			c0.126,0.125,0.084,0.293-0.042,0.398s-0.42,0.314-0.42,0.588c0,1.512-0.189,2.855-0.294,4.346
			c-0.042,0.525-0.231,0.924-0.525,1.219c-0.356,0.355-0.882,0.566-1.406,0.691c0.021-0.797-0.399-1.553-1.113-1.932v-0.23
			c0.273,0.043,0.588,0.043,0.882,0.043c0.21,0,0.378-0.189,0.399-0.4c0.104-1.512,0.21-3.023,0.188-4.471h-1.05
			c-0.021,1.531-0.146,3.064-0.566,4.492c-0.399,1.365-1.05,2.604-2.142,3.59c-0.966,0.883-2.499,1.723-3.695,2.184l-0.105-0.209
			c1.302-0.861,2.436-1.994,3.213-3.318c0.588-1.008,0.986-2.119,1.092-3.316c-0.903,0.629-2.667,1.658-3.843,2.289
			c-0.462,0.252-0.776,0.504-1.176,0.881c-0.104,0.084-0.314,0.105-0.356,0c-0.252-0.482-0.714-1.721-0.903-2.457
			c0.903-0.104,1.722-0.23,2.562-0.42v-5.059h-0.902c-0.294,0-0.672,0.104-0.903,0.252l-0.504-0.904h2.31V44.33
			c0-0.271-0.042-0.859-0.062-1.133c0.818,0.273,1.722,0.588,2.436,0.881c0.146,0.084,0.126,0.336,0,0.379
			c-0.189,0.062-0.399,0.252-0.399,0.441v4.303c0.252-0.355,0.588-0.775,0.819-1.07c0.042-0.062,0.168-0.084,0.252-0.021
			c0.294,0.252,0.566,0.547,0.818,0.84v-1.889c0-0.295,0-0.609-0.062-0.883c0.798,0.357,1.596,0.736,2.352,1.156h3.023
			c-0.063-1.029-0.105-2.121-0.147-3.129c-0.021-0.566-0.084-1.135-0.168-1.68c0.924,0.146,1.785,0.398,2.667,0.693
			c0.146,0.041,0.146,0.252,0.021,0.314c-0.188,0.084-0.462,0.252-0.462,0.482c0,1.008,0.042,2.205,0.126,3.318h1.785
			c0.23-0.295,0.714-0.883,0.882-1.113c0.084-0.127,0.21-0.105,0.336,0c0.524,0.42,1.05,0.924,1.47,1.428
			c0.104,0.125,0.021,0.336-0.147,0.336h-4.241c0.105,1.785,0.252,3.549,0.651,5.229c0.398-1.24,0.734-2.5,0.86-3.863
			c0.819,0.293,1.638,0.65,2.415,1.092c0.126,0.062,0.062,0.293-0.063,0.336c-0.21,0.041-0.504,0.209-0.566,0.461
			c-0.462,1.639-1.092,3.086-2.037,4.514c0.336,0.883,0.882,1.744,1.575,2.457c0.104,0.105,0.252,0.021,0.314-0.105
			c0.462-0.902,0.882-1.867,1.239-2.791l0.252,0.062c-0.105,0.713-0.252,1.512-0.336,2.289c-0.084,0.775-0.042,1.553,0.336,2.246
			C179.553,60.352,179.489,60.771,179.237,61.023z M165.338,49.854v4.576c0.567-0.125,1.281-0.273,1.806-0.461
			c0.126-1.281,0.147-2.898,0.084-4.115H165.338z M176.193,46.326c-0.231-0.043-0.462-0.211-0.483-0.568
			c-0.042-0.545-0.314-1.26-0.84-1.721l0.105-0.23c0.65,0,1.722,0.271,2.12,0.756c0.42,0.504,0.357,0.965,0.063,1.301
			C176.907,46.178,176.529,46.367,176.193,46.326z"/>
	</g>
	<line fill="none" stroke="#000000" stroke-miterlimit="10" x1="20" y1="72" x2="300" y2="72"/>
	<g>
		<path d="M36.089,93.421l-0.482-1.596c2.268-2.561,3.926-5.521,4.955-8.839l1.406,0.672c-0.546,1.659-1.238,3.233-2.078,4.703
			v13.983h-1.512V90.692C37.664,91.657,36.908,92.561,36.089,93.421z M42.346,91.573l-1.302-0.797
			c1.596-2.331,2.751-4.914,3.465-7.748l1.428,0.294c-0.21,0.819-0.462,1.596-0.714,2.331h8.944v0.986
			c-0.336,1.302-0.756,2.582-1.281,3.842l-1.448-0.42c0.482-0.881,0.882-1.848,1.196-2.939h-7.957
			C44.005,88.761,43.228,90.229,42.346,91.573z M45.517,91.993c-0.756,2.919-1.743,5.48-2.961,7.686l-1.406-0.504
			c1.134-1.975,2.142-4.494,3.002-7.559L45.517,91.993z M44.551,102.198l-0.315-1.428c0.882,0.062,1.743,0.104,2.541,0.104
			c0.524,0,0.798-0.272,0.798-0.819v-11.17h1.47v11.549c0,1.176-0.588,1.764-1.743,1.764H44.551z M54.691,99.447l-1.322,0.588
			c-0.84-3.065-1.785-5.795-2.813-8.146l1.344-0.44C52.97,93.925,53.894,96.592,54.691,99.447z"/>
		<path d="M66.854,83.091v2.751h8.251v1.47h-8.251v3.213h5.647v1.344c-1.176,2.352-2.876,4.367-5.102,6.047
			c1.05,0.588,2.204,1.154,3.464,1.658c1.491,0.566,3.087,1.05,4.787,1.47l-0.882,1.323c-1.806-0.483-3.527-1.051-5.144-1.723
			c-1.302-0.566-2.457-1.176-3.507-1.848c-2.394,1.512-5.249,2.709-8.587,3.611l-0.861-1.344c3.191-0.756,5.921-1.805,8.168-3.148
			c-1.092-0.84-2.058-1.764-2.855-2.793c-0.777-0.966-1.323-2.037-1.638-3.191h-1.617v-1.406h6.572v-3.213h-8.168v-1.47h8.168
			v-2.751H66.854z M70.802,91.931h-8.966c0.378,1.134,0.966,2.121,1.764,2.981c0.714,0.819,1.554,1.554,2.499,2.184
			C68.135,95.668,69.71,93.946,70.802,91.931z"/>
		<path d="M78.479,102.155l-0.314-1.448c0.566,0.063,1.112,0.104,1.638,0.104c0.566,0,0.86-0.314,0.86-0.944v-4.976
			c-0.798,0.293-1.616,0.588-2.456,0.84l-0.378-1.512c0.966-0.231,1.91-0.504,2.834-0.84v-4.809H78.06v-1.449h2.604v-3.758h1.47
			v3.758h2.184v1.449h-2.184v4.241c0.756-0.336,1.491-0.692,2.226-1.071v1.533c-0.734,0.378-1.47,0.714-2.226,1.029v5.941
			c0,1.26-0.608,1.91-1.806,1.91H78.479z M92.61,93.274v-1.617h1.47v1.617h2.562v1.406H94.08v5.711c0,1.197-0.609,1.807-1.806,1.807
			h-2.729l-0.294-1.428c0.882,0.062,1.722,0.104,2.52,0.104c0.546,0,0.84-0.294,0.84-0.84v-5.354h-7.79v-1.406H92.61z
			 M91.371,83.154v2.163h4.977v1.406h-4.977v2.457h4.409v1.385H85.66v-1.385h4.241v-2.457h-4.997v-1.406h4.997v-2.163H91.371z
			 M89.523,99.048l-1.196,0.84c-0.63-1.049-1.47-2.204-2.541-3.484l1.218-0.735C88.096,96.948,88.936,98.083,89.523,99.048z"/>
		<path d="M111.838,102.261l-0.42-1.512l2.729,0.062c0.524,0,0.798-0.314,0.798-0.944V85.38H101.13v16.943h-1.512V83.91h16.839
			v16.293c0,1.364-0.609,2.058-1.827,2.058H111.838z M113.434,87.794v1.407h-10.771v-1.407H113.434z M112.258,91.469v6.761h-8.42
			v-6.761H112.258z M110.788,92.833h-5.48v4.053h5.48V92.833z"/>
		<path d="M121.2,87.228c-0.042,2.1-0.294,4.115-0.714,6.005l-1.239-0.356c0.441-1.807,0.693-3.717,0.756-5.732L121.2,87.228z
			 M123.804,83.154v19.106h-1.533V83.154H123.804z M126.491,90.251c0.714-1.826,1.134-3.779,1.238-5.857l1.365,0.188
			c-0.042,0.882-0.126,1.722-0.252,2.52h3.002v-3.927h1.554v3.927h4.577v1.448h-4.577v5.082h4.263v1.49h-4.263v5.123h5.123v1.47
			H125.84v-1.47h6.005v-5.123h-4.808v-1.49h4.808V88.55h-3.275c-0.378,1.533-0.944,2.961-1.68,4.263l-1.112-1.008
			c0.23-0.462,0.44-0.903,0.63-1.323l-1.05,0.273c-0.315-1.281-0.714-2.52-1.197-3.695l1.113-0.357
			C125.735,87.731,126.134,88.907,126.491,90.251z"/>
		<path d="M144.826,83.175c-0.188,1.428-0.378,2.73-0.546,3.927h3.129v0.882c-0.168,3.401-0.756,6.32-1.785,8.797
			c0.966,1.008,1.764,1.891,2.394,2.688l-1.008,1.155c-0.566-0.756-1.238-1.554-2.036-2.415c-0.84,1.639-1.911,3.023-3.191,4.199
			l-0.945-1.196c1.26-1.134,2.31-2.499,3.107-4.095c-0.798-0.84-1.68-1.7-2.624-2.604c0.462-1.826,0.882-3.82,1.26-5.963h-1.743
			v-1.448h1.974c0.189-1.323,0.357-2.667,0.525-4.052L144.826,83.175z M145.981,88.55h-1.953c-0.378,2.227-0.798,4.053-1.218,5.522
			c0.63,0.588,1.197,1.134,1.743,1.638C145.352,93.61,145.834,91.237,145.981,88.55z M150.327,91.259
			c0.966-0.21,1.932-0.441,2.877-0.693l0.23,1.281c-1.344,0.336-2.939,0.672-4.787,1.008l-0.378-1.238
			c0.399-0.127,0.609-0.379,0.609-0.715v-6.529c3.107-0.189,6.067-0.588,8.881-1.218l0.714,1.196
			c-1.05,0.231-2.142,0.441-3.275,0.631c0.021,0.881,0.084,1.637,0.168,2.268h3.611v1.322h-3.338c0,0.021,0.021,0.042,0.021,0.062
			c0.273,0.924,0.63,1.617,1.05,2.121c0.42,0.441,0.798,0.672,1.155,0.672c0.314,0,0.65-0.65,1.028-1.932l1.113,0.65
			c-0.546,1.785-1.218,2.688-2.016,2.688c-0.672,0-1.323-0.293-1.932-0.84c-0.63-0.608-1.155-1.469-1.554-2.604
			c-0.084-0.252-0.168-0.524-0.231-0.818h-3.947V91.259z M158.138,102.323h-1.47v-0.944h-6.109v0.944h-1.449v-8.755h9.028V102.323z
			 M150.327,85.526v1.723h3.717c-0.084-0.651-0.126-1.344-0.147-2.079C152.742,85.317,151.545,85.442,150.327,85.526z
			 M156.668,96.864V94.87h-6.109v1.994H156.668z M156.668,100.056v-1.932h-6.109v1.932H156.668z"/>
		<path d="M165.757,83.112c-0.21,1.428-0.398,2.75-0.588,3.989h3.213v0.882c-0.168,3.338-0.756,6.236-1.764,8.672
			c0.882,0.818,1.596,1.553,2.162,2.225l-0.966,1.113c-0.524-0.63-1.134-1.281-1.826-1.974c-0.903,1.7-2.037,3.149-3.381,4.367
			l-0.902-1.134c1.344-1.176,2.414-2.582,3.254-4.241c-0.84-0.798-1.764-1.616-2.771-2.499c0.504-1.848,0.924-3.82,1.302-5.963
			h-1.742v-1.448h1.974c0.21-1.344,0.398-2.708,0.566-4.115L165.757,83.112z M166.996,88.55h-2.058
			c-0.399,2.205-0.819,4.053-1.26,5.522c0.672,0.546,1.302,1.092,1.868,1.596C166.345,93.61,166.828,91.237,166.996,88.55z
			 M180.14,102.303h-1.47v-1.196h-7.685v1.217h-1.407V83.931h10.562V102.303z M178.67,99.72V85.358h-7.685V99.72H178.67z
			 M174.177,89.369c0-0.336,0.021-0.672,0.021-1.008v-1.974h1.344v1.974c0,0.336-0.021,0.672-0.042,1.008h2.331v1.386h-2.415
			c-0.042,0.398-0.104,0.777-0.146,1.113c1.344,2.141,2.394,4.031,3.128,5.627l-1.154,0.797c-0.63-1.428-1.407-2.98-2.331-4.619
			c-0.524,2.037-1.364,3.654-2.52,4.871l-1.028-0.924c1.49-1.553,2.394-3.842,2.708-6.865h-2.246v-1.386H174.177z"/>
		<path d="M193.033,83.07c2.666,3.087,5.753,5.522,9.238,7.286l-0.819,1.448c-3.506-1.89-6.487-4.347-8.965-7.37
			c-2.289,2.855-5.312,5.312-9.05,7.412l-0.798-1.449c3.737-1.973,6.824-4.408,9.302-7.327H193.033z M199.122,102.323h-1.47v-1.26
			h-10.33v1.26h-1.47v-8.461h13.27V102.323z M197.946,89.747v1.449h-10.918v-1.449H197.946z M197.652,99.615V95.29h-10.33v4.325
			H197.652z"/>
		<path d="M208.498,91.553l-1.092,1.071c-0.776-1.008-1.848-2.1-3.191-3.275l1.071-1.029
			C206.546,89.39,207.616,90.461,208.498,91.553z M209.086,94.702c-0.902,2.646-1.91,5.145-3.023,7.475l-1.512-0.65
			c1.218-2.395,2.289-4.851,3.171-7.37L209.086,94.702z M209.275,86.556l-1.071,1.092c-0.84-1.008-2.016-2.078-3.485-3.213
			l1.071-1.028C207.176,84.456,208.33,85.506,209.275,86.556z M216.896,83.091v3.381h5.396v1.47h-5.396v3.927h5.963v1.469h-6.887
			c-1.344,3.191-2.52,5.459-3.527,6.803c2.604-0.272,5.187-0.672,7.748-1.217c-0.588-1.239-1.218-2.373-1.848-3.423l1.448-0.483
			c1.26,2.1,2.373,4.367,3.317,6.762l-1.428,0.629c-0.294-0.756-0.588-1.469-0.882-2.141c-3.149,0.629-6.593,1.112-10.309,1.469
			l-0.357-1.322c0.126-0.042,0.231-0.105,0.315-0.146c0.986-0.861,2.288-3.171,3.884-6.93h-4.976v-1.469h5.983v-3.927h-4.976v-1.47
			h4.976v-3.381H216.896z"/>
		<path d="M233.078,83.616c-0.714,1.742-1.638,3.381-2.771,4.913v13.857h-1.512V90.397c-0.924,1.008-1.952,1.995-3.044,2.919
			l-0.483-1.575c2.939-2.561,5.061-5.479,6.404-8.775L233.078,83.616z M243.534,90.629l-6.845,0.378v8.566
			c0,0.65,0.315,0.986,0.987,0.986h3.506c0.525,0,0.924-0.188,1.176-0.524c0.231-0.336,0.378-1.554,0.462-3.632l1.407,0.461
			c-0.147,2.415-0.399,3.885-0.756,4.389c-0.378,0.504-1.071,0.756-2.037,0.756h-4.115c-1.428,0-2.142-0.756-2.142-2.226V83.196
			h1.512v6.383l6.845-0.398V90.629z"/>
		<path d="M252.225,97.704h-3.801v1.512h-1.428V84.834h5.229V97.704z M250.817,96.298V86.241h-2.394v10.057H250.817z
			 M254.933,95.752c-0.294,2.163-0.672,4.052-1.134,5.669l-1.28-0.441c0.462-1.448,0.882-3.296,1.238-5.543L254.933,95.752z
			 M264.885,93.253c0,4.494-0.272,7.118-0.776,7.874c-0.525,0.756-1.512,1.134-2.981,1.134c-0.588,0-1.176-0.021-1.785-0.042
			l-0.336-1.364c0.672,0.041,1.281,0.084,1.848,0.084c1.323,0,2.1-0.441,2.31-1.281s0.336-2.562,0.336-5.145h-9.595V83.826h10.834
			v1.28h-4.347v1.869h3.947v1.238h-3.947v1.932h4.011v1.239h-4.011v1.868H264.885z M255.311,85.106v1.869h3.695v-1.869H255.311z
			 M255.311,90.146h3.695v-1.932h-3.695V90.146z M255.311,93.253h3.695v-1.868h-3.695V93.253z M257.452,100.644l-1.218,0.147
			c-0.042-2.184-0.146-3.863-0.272-5.039l1.134-0.126C257.264,96.844,257.39,98.523,257.452,100.644z M260.203,99.679l-1.197,0.272
			c-0.168-1.638-0.398-3.065-0.65-4.283l1.134-0.231C259.741,96.739,259.993,98.146,260.203,99.679z M262.849,98.481l-1.092,0.42
			c-0.294-1.197-0.63-2.352-1.029-3.485l1.071-0.294C262.261,96.34,262.597,97.474,262.849,98.481z"/>
		<path d="M277.684,86.073c0.798,0.713,1.196,1.7,1.196,2.96c0,0.944-0.272,1.764-0.776,2.456c-0.231,0.252-0.798,0.799-1.722,1.617
			c-0.462,0.378-0.777,0.756-0.987,1.134c-0.272,0.462-0.398,0.987-0.398,1.554v0.482h-1.68v-0.482c0-0.756,0.146-1.406,0.462-1.994
			c0.294-0.547,0.756-1.113,1.406-1.701c0.714-0.63,1.155-1.07,1.365-1.322c0.398-0.525,0.608-1.071,0.608-1.659
			c0-0.84-0.252-1.491-0.714-1.952c-0.504-0.504-1.176-0.735-2.058-0.735c-1.05,0-1.826,0.336-2.33,1.028
			c-0.462,0.588-0.693,1.387-0.693,2.415h-1.68c0.021-1.47,0.441-2.646,1.26-3.527c0.84-0.924,2.016-1.386,3.527-1.386
			C275.814,84.96,276.886,85.317,277.684,86.073z M275.08,98.104c0.23,0.231,0.356,0.524,0.356,0.882
			c0,0.378-0.126,0.672-0.356,0.902c-0.252,0.231-0.567,0.357-0.924,0.357c-0.357,0-0.651-0.126-0.903-0.357
			c-0.252-0.252-0.356-0.545-0.356-0.902s0.104-0.65,0.356-0.882c0.252-0.252,0.546-0.356,0.903-0.356
			C274.513,97.747,274.828,97.852,275.08,98.104z"/>
	</g>
</g>
<g id="Layer_2" display="none">
</g>
</svg>
