<?xml version="1.0" encoding="utf-8"?>
<!-- Generator: Adobe Illustrator 17.0.0, SVG Export Plug-In . SVG Version: 6.00 Build 0)  -->
<!DOCTYPE svg PUBLIC "-//W3C//DTD SVG 1.1//EN" "http://www.w3.org/Graphics/SVG/1.1/DTD/svg11.dtd">
<svg version="1.1" id="圖層_1" xmlns="http://www.w3.org/2000/svg" xmlns:xlink="http://www.w3.org/1999/xlink" x="0px" y="0px"
	 width="354.255px" height="160.134px" viewBox="0 0 354.255 160.134" enable-background="new 0 0 354.255 160.134"
	 xml:space="preserve">
<g id="Layer_2">
</g>
<g id="Layer_3">
</g>
<linearGradient id="SVGID_1_" gradientUnits="userSpaceOnUse" x1="76.627" y1="118.134" x2="76.627" y2="6" gradientTransform="matrix(1 0 0 -1 102.5 140.134)">
	<stop  offset="0.0772" style="stop-color:#FFFFFF"/>
	<stop  offset="1" style="stop-color:#39BEE0"/>
</linearGradient>
<path fill="url(#SVGID_1_)" d="M64.374,62.499l1.633,5.542H15.86l-2.379-5.542h27.494c0.796-5.757,0.771-14.679-0.144-21.881
	l8.44,1.348C49.399,49.32,48.93,57.03,48.213,62.5L64.374,62.499L64.374,62.499z M54.93,38.946H4.702L2,32.552h23.333
	c-1.513-2.451-4.093-6.099-6.232-8.849L25.853,22c2.309,2.829,4.96,6.506,6.46,8.866l-5.89,1.685h26.584L54.93,38.946z
	 M26.717,60.538c-2.67-5.07-6.864-11.407-11.392-17.712l6.518-1.504c4.713,6.453,8.621,12.555,11.5,17.667L26.717,60.538z
	 M111.955,48.97c-0.127,0.647-0.245,1.342-0.428,1.985h6.592l0.722,4.875h-9.023c-1.105,2.487-2.715,4.566-4.713,6.251
	c5.536,1.161,10.538,2.315,14.492,3.37l-5.201,3.894c-3.96-1.214-9.175-2.481-15.166-3.849c-5.925,2.409-14.112,3.535-24.87,4.117
	c-0.941-1.618-2.421-3.569-3.823-4.805c7.078-0.23,12.881-0.69,17.694-1.614c-4.167-0.789-8.397-1.534-12.701-2.283
	c1.199-1.459,2.573-3.167,3.854-5.083H66.878l-1.38-4.875h16.827c0.851-1.536,1.603-3.035,2.07-4.544l3.002,0.605l-1.566-6.971
	c-4.223,4.488-12.818,8.383-19.697,10.278c-1.242-1.345-3.713-3.505-5.435-4.62c5.653-1.223,13.324-3.944,17.255-6.756H65.259
	l-1.496-5.315h20.628l-0.805-3.585c-5.893,0.329-7.788,0.526-13.326,0.526c-0.564-1.426-1.908-3.696-2.946-5.036
	c13.942-0.167,27.782-1.782,36.737-3.535l6.083,4.605c-5.099,0.997-12.968,2.452-19.512,3.002l0.834,4.024h23.131l0.799,5.315H98.34
	c6.565,1.723,15.522,4.358,20.312,6.095l-2.633,4.277c-4.709-1.8-14.26-4.838-21.181-6.786l2.132-3.587h-4.411l1.797,8.673h-4.141
	l1.65,0.351c-0.425,1-0.849,1.995-1.386,2.984h13.588c0.322-1.089,0.528-2.184,0.71-3.436L111.955,48.97z M87.492,55.829
	c-0.6,0.865-1.139,1.725-1.71,2.439c3.668,0.664,7.39,1.373,10.929,2.08c2.179-1.226,3.824-2.651,5.17-4.519H87.492z
	 M171.441,55.974c0,0-0.098,1.438-0.259,2.2c-0.825,5.761-1.837,8.599-3.367,9.732c-1.246,1.036-2.672,1.305-4.486,1.44
	c-1.595,0.09-4.402,0.134-7.384,0c-0.182-1.349-0.952-3.255-1.971-4.536c2.519,0.184,5.14,0.229,6.256,0.229
	c0.892,0,1.445-0.092,1.991-0.413c0.654-0.46,1.226-1.755,1.656-4.136h-14.384c-2.52,4.64-7.984,7.642-20.702,9.348
	c-0.661-1.301-2.305-3.292-3.625-4.433c9.305-0.964,14.061-2.581,16.598-4.915h-14.61l-0.578-4.516h17.581
	c0.169-0.723,0.281-1.448,0.39-2.225h6.832c-0.123,0.777-0.191,1.503-0.373,2.225H171.441z M137.297,30.32
	c2.97,0.547,6.612,1.255,10.062,1.961c2.196-0.706,4.509-1.633,6.528-2.564h-29.513l-0.619-4.944h41.92l3.123,3.346
	c-3.922,2.146-9.777,4.727-14.477,6.453l2.188,1.042h12.837l0.239,14.945c0.038,2.409-0.58,3.189-2.69,3.82
	c-1.991,0.533-4.68,0.581-8.516,0.533c-0.514-1.213-1.507-2.728-2.307-3.76c2.258,0.099,5.088,0.099,5.781,0.049
	c0.867,0,1.091-0.197,1.07-0.84l-0.016-0.496h-11.133l0.188,3.054h-6.328l-0.238-3.054h-11.307l0.492,4.611h-6.304l-2.322-18.863
	h18.211c-3.31-0.748-6.878-1.552-9.834-2.144L137.297,30.32z M132.972,39.418l0.206,1.927h11.554l-0.15-1.927H132.972z
	 M145.137,46.562l-0.134-1.724h-11.452l0.184,1.724H145.137z M162.561,39.418H151.13l0.119,1.927h11.376L162.561,39.418z
	 M162.797,46.562l-0.057-1.724h-11.276l0.106,1.724H162.797z M209.832,44.532c-2.405,1.423-4.728,2.735-7.211,4.039h21.118
	l-2.566,20.998h-6.827l0.121-1.167h-19.001l-0.071,1.346h-6.55l0.535-15.223c-2.893,1.063-5.886,2.121-8.803,3.029
	c-0.84-1.244-2.825-3.563-4.142-4.733c7.581-2.015,14.982-4.851,21.878-8.289h-19.984l0.034-5.429h19.125l0.26-4.827h-14.17
	l0.107-5.605h14.365l0.326-6.046h7.319l-0.432,6.046h13.266l-0.278,2.686c2.553-2.245,4.894-4.57,7.091-7.034l5.911,2.909
	c-4.042,4.343-8.57,8.329-13.33,11.871h13.824l-0.756,5.429C230.991,44.532,209.832,44.532,209.832,44.532z M216.028,53.359h-19.769
	l-0.163,3.095h19.611L216.028,53.359z M214.935,63.888l0.328-3.164H195.87l-0.167,3.164H214.935z M204.519,39.103h3.277
	c2.394-1.526,4.691-3.116,6.896-4.827h-9.828L204.519,39.103z M268.263,43.714c1.524,9.742,6.52,17.244,16.037,20.773
	c-2,1.146-4.84,3.554-6.311,5.082c-9.011-3.844-13.893-10.636-16.254-20.001c-4.855,8.13-12.419,15.425-24.995,20.046
	c-0.807-1.483-2.437-3.432-4.209-4.575c13.639-4.737,20.588-12.706,24.599-21.324h-20.26l0.984-6.401h21.785
	c1.651-5.033,2.635-10.026,3.66-14.631h8.063c-1.113,4.605-2.328,9.652-4.062,14.631h23.52l-1.825,6.401L268.263,43.714
	L268.263,43.714z M309.457,48.121c-2.257,4.26-4.979,8.429-8.102,11.852c0.845,0.517,1.777,1.268,3.181,2.108
	c3.211,1.9,8.363,2.177,14.841,2.177c6.424,0,16.56-0.461,23.094-1.201c-1.378,1.477-3.594,4.126-4.336,5.571
	c-4.622,0.225-14.512,0.539-20.961,0.539c-7.276,0-11.734-0.494-15.122-2.393c-1.928-1.048-2.948-2.133-3.705-2.327
	c-1.229,0-4.026,2.814-7.303,5.437l-3.474-4.685c1.743-1.337,4.626-3.333,6.191-4.22c2.982-2.494,5.256-5.534,7.341-8.989h-6.978
	c2.166-2.919,4.873-6.947,7.485-10.955h-5.159l1.684-5.579h13.889c-2.436,3.702-5.415,8.141-7.932,11.701L309.457,48.121z
	 M305.211,34.008c0.002-2.488-0.324-6.498-0.475-9.573l7.205-1.639c0.178,3.042,0.508,6.866,0.6,9.322L305.211,34.008z
	 M332.384,37.072l-1.458,4.042c0,0-8.169,0.093-12.667-0.008c-1.475-0.033-2.749-0.222-3.326-1.197
	c-0.655-1.107-0.108-2.808,0.625-4.936l3.61-10.481h17.414l-4.028,10.428h-11.438l-0.789,2.177L332.384,37.072z M343.634,56.55
	h-10.83c2.822,1.433,5.727,3.139,7.361,4.456l-6.922,2.282c-1.442-1.394-4.209-3.457-7.098-4.876l4.094-1.861h-11.17l3.893,1.29
	c-3.662,2.179-9.039,4.379-13.207,5.678c-0.849-0.927-2.625-2.607-3.832-3.358c3.815-0.896,7.898-2.177,10.866-3.61h-10.145
	l1.437-4.218h8.989l1.096-3.013h-7.027l1.514-4.379h7.105l0.87-2.368h6.384l-0.914,2.368h6.576l0.959-2.368h6.563l-1.004,2.368
	h7.222l-1.888,4.379h-7.142l-1.244,3.013h9.335L343.634,56.55z M323.392,28.561l-0.884,2.469h5.531l0.917-2.469H323.392z
	 M323.292,52.332h6.453l1.194-3.013h-6.503L323.292,52.332z M338.722,41.385c-5.391,0-6.004-1.653-4.226-6.198l4.163-10.639h17.595
	l-4.52,10.425h-11.557l-0.13,0.321c-0.582,1.437-0.557,1.967,0.7,1.967h11.256l-1.557,4.124H338.722z M342.752,28.616l-1,2.468
	h5.592l1.034-2.468C348.378,28.616,342.752,28.616,342.752,28.616z M91.911,98.461h4.714l1.537,5.711h-4.623l-0.209-0.732H74.018
	l-1.742-4.95h4.67l0.843,2.51h5.15l-0.988-3.102h4.768L87.656,101h4.977L91.911,98.461z M79.727,93.832l0.39,1.214h27.821
	c0,0,0.146,0.833,0.106,1.233c0.536,4.803,0.365,6.862-0.571,7.622c-0.708,0.622-1.554,0.838-2.687,0.919
	c-0.956,0.108-2.613,0.135-4.549,0.081c-0.262-0.837-1.007-2.033-1.892-2.772c1.401,0.082,2.658,0.11,3.261,0.11
	c0.56,0,0.934-0.055,1.174-0.302c0.421-0.385,0.645-1.574,0.375-4.435H75.739l-5.993-17.678h10.491
	c0.109-0.861,0.162-1.759,0.077-2.501l6.791,0.355c-0.258,0.74-0.607,1.477-0.974,2.146h12.997l2.46,10.038H78.45l0.458,1.424
	h29.739l0.568,2.547H79.727V93.832z M76.055,82.41l0.461,1.433h18.1l-0.377-1.433H76.055z M95.558,87.428l-0.352-1.338H77.238
	l0.43,1.338H95.558z M121.97,82.754h3.402l3.216,19.758h-3.185l-0.229-1.319H114.88l-3.874-18.533h3.496l3.103,15.688h1.528
	l-3.931-20.414h4.25l3.655,20.414h1.573L121.97,82.754z M140.066,100.251c-2.213,1.658-5.521,3.569-8.041,4.757
	c-0.599-0.566-2.226-1.922-3.14-2.523c2.406-0.878,5.2-2.178,6.945-3.378L140.066,100.251z M153.759,95.936l0.209,2.807h-25.251
	l-0.45-2.807h1.364l-2.936-15.003c1.672-0.57,4.186-1.779,5.661-2.548l3.116,2.453l-0.413-3.193h3.88l0.326,2.782h3.752l0.294,2.795
	h-3.719l0.217,1.856h4.062l0.834,8.027c0.106,1.017-0.186,1.656-1.162,2.03c-0.933,0.345-2.5,0.312-2.5,0.312l-0.25-1.875
	c0,0,0.625-0.031,0.62-0.497l-0.603-5.254h-4.432l-0.887-6.857c-1.354,0.599-2.886,1.195-4.334,1.696l0.461,2.571h3.194l0.365,2.74
	h-3.075l0.459,2.573h2.913l0.357,2.676h-2.799l0.52,2.715h14.353c0.016-0.775-0.022-1.64-0.019-2.569h-2.31l-0.267-2.644h2.464
	c-0.035-0.862-0.116-1.729-0.154-2.63h-2.577l-0.277-2.738h2.645c-0.048-1.016-0.136-1.977-0.225-2.944h-2.901l-0.286-2.81h7.014
	c0.473,5.385,0.78,12.097,0.766,16.335L153.759,95.936L153.759,95.936z M136.572,88.822l0.781,6.406h2.625l-0.594-6.406H136.572z
	 M145.359,98.995c2.715,1.061,6.626,2.694,8.602,3.709l-2.738,2.197c-1.762-1.054-5.623-2.744-8.386-3.929L145.359,98.995z
	 M198.03,82.316c0,0-0.089,1.247-0.166,1.681c-1.516,13.249-2.3,17.691-4.16,19.143c-1.26,1.005-2.474,1.302-4.195,1.491
	c-1.629,0.135-4.191,0.108-6.71,0.054c-0.064-0.892-0.721-2.255-1.608-3.161c2.76,0.165,5.307,0.165,6.43,0.165
	c0.863,0,1.343-0.11,1.921-0.469c1.3-0.886,2.089-5.113,3.147-15.559h-9.748c-1.22,1.827-2.648,3.483-4.057,4.765
	c-0.714-0.446-2.239-1.133-3.455-1.672l0.017,13.402h-11.509l0.081,1.989h-4.624l-1.23-21.61h5.201
	c0.538-1.571,1.019-3.605,1.151-5.116l6.09,0.58c-0.763,1.601-1.565,3.186-2.317,4.536h7.132l0.006,4.983
	c2.645-2.564,4.891-6.333,6.302-10.067l5.255,0.837c-0.514,1.375-1.206,2.707-1.938,4.028
	C185.046,82.316,198.03,82.316,198.03,82.316z M170.507,85.753h-7.241l0.2,4.881h7.126L170.507,85.753z M170.74,99.247l-0.097-5.589
	h-7.055l0.229,5.589H170.74z M185.243,97.728c-1.177-1.706-3.854-4.536-6.007-6.679l4.202-1.575
	c2.183,2.048,5.014,4.822,6.308,6.491L185.243,97.728z M238.965,100.916l-0.693,3.202h-38.319l0.268-3.202h16.45l0.762-5.439
	h-12.568l0.326-3.338H217.9l0.723-5.166h-15.331l0.32-3.565h18.355c-1.744-1.28-4.314-2.728-6.395-3.84l4.862-2.182
	c2.795,1.319,6.467,3.356,8.165,4.804l-2.639,1.217h14.546l-0.746,3.565h-15.195l-0.824,5.166h12.798l-0.675,3.338H223.21
	l-0.867,5.439L238.965,100.916L238.965,100.916z M272.654,77.451c-0.462,1.351-1.083,3.07-1.846,4.959
	c-0.64,4.167-1.381,15.233,12.313,19.526c-1.885,0.795-3.738,1.883-4.751,2.803c-8.552-2.885-11.667-8.346-12.728-13.336
	c-3.939,5.104-9.944,10.176-19.737,13.498c-0.689-0.864-2.074-1.897-3.624-2.635c19.25-6.073,22.243-19.449,23.966-24.814h6.407
	V77.451z M53.708,112.931c-0.311,1.744-0.854,3.491-1.637,5.119l7.159,15.889h-4.376l-5.431-11.618
	c-0.549,0.711-1.166,1.347-1.775,1.911c-0.776-0.704-2.839-2.244-3.979-2.936c2.595-2.172,4.515-5.669,4.944-9.258L53.708,112.931z
	 M70.789,119.148l4.572,11.908c0.485,1.262,0.377,1.987-0.839,2.424c-1.182,0.414-2.981,0.523-5.437,0.523
	c-0.507-0.763-1.684-1.928-2.677-2.636c1.638,0.022,3.266,0.022,3.809,0.022c0.504,0,0.662-0.089,0.546-0.378L66,119.148h-4.708
	c-0.543,1.403-1.333,2.673-2.227,3.671c-1.058-0.498-3.395-1.428-4.675-1.859c2.168-2.055,3.154-5.459,3.091-8.922l5.099,0.664
	c-0.015,1.293-0.173,2.525-0.412,3.745h14.099l0.743-0.099l3.581,0.397c0.199,1.99,0.294,4.24,0.216,5.624l-4.199-0.404
	c-0.07-0.74-0.197-1.75-0.382-2.816h-5.437V119.148z M65.812,123.456c0.063,2.959-0.744,5.831-2.156,7.645
	c-1.075-0.423-3.314-1.094-4.594-1.431c1.535-1.583,2.069-4.18,1.874-6.78L65.812,123.456z M77.823,122.653
	c2.942,2.419,5.718,5.479,6.971,7.511l-4.124,0.871c-1.156-1.995-3.962-5.127-6.772-7.531L77.823,122.653z M124.123,130.186h-15.54
	l0.978,3.818h-4.721l-1.047-3.818H88.72l-0.802-2.418h15.211l-0.27-0.984h-3.433l-2.131-7.417c-0.275,0.17-0.584,0.364-0.858,0.533
	c-0.897-0.436-2.623-1.19-3.861-1.654l-1.642,1.92c-1.573-0.629-4.6-1.456-6.934-1.994l1.883-1.973
	c1.98,0.422,4.857,1.114,6.541,1.679c2.755-1.456,5.149-3.732,6.242-6.071l4.934,0.869c-0.299,0.61-0.714,1.243-1.168,1.873h4.126
	c-0.475-0.579-1.042-1.187-1.536-1.669l4.546-0.791c0.804,0.766,1.767,1.704,2.396,2.46h7.511l0.45,2.22h-8.188l0.28,1.207h6.562
	l0.371,1.779h-6.519l0.246,1.061h6.494l0.358,1.719h-6.453l0.291,1.251h8.618l0.434,2.168h-18.601l0.106,0.393h3.675l0.364,1.422
	h15.683L124.123,130.186z M96.985,122.059c-1.752,1.656-3.812,3.385-5.763,4.977l-3.952-2.057c1.829-1.099,4.4-2.967,6.616-4.813
	L96.985,122.059z M92.597,116.149c-1.559-0.673-4.65-1.6-6.974-2.154l1.916-2.06c2.273,0.486,5.392,1.326,7.027,1.959
	L92.597,116.149z M107.07,116.769h-5.732l0.326,1.207h5.707L107.07,116.769z M107.814,119.755h-5.67l0.286,1.061h5.648
	L107.814,119.755z M108.507,122.534h-5.612l0.338,1.251h5.586L108.507,122.534z M144.59,120.912
	c-0.393,0.431-0.785,0.861-1.259,1.266h17.057l0.54,9.478c0.059,1.037-0.258,1.541-1.391,1.891
	c-1.093,0.327-2.628,0.349-4.625,0.349c-0.239-0.589-0.85-1.445-1.397-1.974c0.97,0.022,2.168,0.022,2.554,0
	c0.387,0,0.537-0.066,0.52-0.288l-0.064-0.867h-4.352l0.249,2.758h-4.114l-0.293-2.758h-4.896c-0.306,1.265-1.006,2.43-2.227,3.367
	c-0.863-0.413-2.94-1.222-3.982-1.486c2.198-1.659,2.106-3.994,1.838-5.911l-0.171-1.224c-0.704,0.348-1.409,0.671-2.076,0.971
	c-0.549-0.508-1.937-1.552-2.784-2.136l1.504,9.59h-4.415l-1.951-11.215c-0.604,0.662-1.258,1.25-1.882,1.765
	c-0.518-0.656-1.981-2.287-2.884-3.026c2.733-2.266,5.053-5.837,6.181-9.528l4.701,0.817c-0.627,1.646-1.37,3.272-2.312,4.855
	l1.024,6.53c2.152-0.799,4.191-1.936,5.704-3.226h-4.557l-0.402-2.666h7.004l-0.191-1.526h-5.814l-0.399-2.724h5.871l-0.245-1.957
	h4.747l0.212,1.957h5.003l-0.177-1.957h4.747l0.144,1.957h5.045l0.151,2.724h-4.996l0.112,1.526h5.944l0.138,2.666H144.59V120.912z
	 M147.814,128.881l-0.137-1.296h-4.326c0.053,0.433,0.067,0.865,0.041,1.296H147.814z M143.15,125.629h4.319l-0.129-1.211h-4.339
	L143.15,125.629z M146.075,118.245h4.927l-0.138-1.526h-4.954L146.075,118.245z M156.058,124.419H151.6l0.109,1.211h4.438
	L156.058,124.419z M156.386,128.881l-0.095-1.296h-4.405l0.117,1.296H156.386z M180.37,119.561
	c-0.162,2.475-0.765,5.395-2.849,8.138c1.873,1.023,3.578,1.948,4.69,2.733l-3.063,2.194c-0.958-0.705-2.348-1.57-3.941-2.485
	c-1.624,1.404-3.695,2.705-6.515,3.884c-0.707-0.545-2.238-1.399-3.296-1.817c2.865-1.174,4.972-2.493,6.473-3.917
	c-2.025-1.072-4.146-2.176-5.96-3.103c0.586-1.403,1.207-3.201,1.71-5.168l-2.262,0.097l-0.555-2.756
	c1.061-0.025,2.245-0.049,3.469-0.074c0.363-1.786,0.647-3.596,0.772-5.276l4.915,0.128c-0.238,1.602-0.554,3.311-0.988,5.024
	l2.943-0.099l0.001-1.564h4.564l-0.024,1.416l2.13-0.074l-0.064,2.621L180.37,119.561z M172.269,119.876
	c-0.463,1.587-0.92,3.132-1.415,4.473c1.002,0.491,2.041,1.003,3.076,1.513c1.342-2.099,1.82-4.255,1.941-6.131L172.269,119.876z
	 M202.307,124.746h-7.951l-0.443,6.4c-0.093,1.349-0.64,2.007-2.282,2.423c-1.558,0.37-3.749,0.436-6.743,0.414
	c-0.206-0.72-0.825-1.796-1.463-2.481c1.937,0.022,4.185,0.022,4.805,0.022c0.658,0,0.857-0.089,0.874-0.422l0.323-6.355h-8.349
	l0.052-2.663h8.432l0.117-2.304c1.794-0.923,3.669-2.294,5.187-3.58h-12.02l0.069-2.71h15.368l1.173-0.152l3.175,1.463
	c-2.101,1.82-4.969,3.885-7.966,5.486l-0.124,1.797h8.03L202.307,124.746z M240.832,115.301c-4.323,2.429-10.025,5.009-15.401,6.782
	l-1.629,8.885c-0.276,1.505-1.021,2.207-2.976,2.601c-1.988,0.392-4.723,0.457-8.404,0.436c-0.123-0.763-0.849-1.928-1.488-2.636
	c2.743,0.067,5.925,0.044,6.778,0.044s1.185-0.133,1.247-0.511l1.69-10.253c3.323-0.99,7.101-2.549,10.079-4.002h-23.631
	l0.332-2.928h28.725l1.115-0.177L240.832,115.301z M246.653,127.859l-0.496,1.856h-4.097l3.915-15.544h11.86l-4.031,13.688H246.653z
	 M249.58,116.917l-2.25,8.411h3.014l2.345-8.411H249.58z M250.656,132.384c1.831-1.239,3.315-3.233,4.248-5.051l3.287,0.571
	c-1.066,1.923-2.508,4.083-4.522,5.38L250.656,132.384z M278.81,124.231c0,0-0.299,0.678-0.464,1.003
	c-2.318,5.13-3.552,7.15-4.783,7.852c-0.928,0.525-1.761,0.699-2.792,0.786c-0.915,0.087-2.42,0.109-4.024,0.087
	c0.207-0.698,0.106-1.62-0.297-2.238c1.246,0.089,2.291,0.089,2.872,0.089c0.502,0,0.867-0.044,1.257-0.266
	c0.633-0.355,1.456-1.65,2.965-5.015h-17.139l4.118-13.6h21.501l-0.985,2.596h-7.772l-0.498,1.416h6.587l-0.856,2.279h-6.533
	l-0.493,1.402h6.499l-0.824,2.195h-6.447l-0.497,1.413h8.605V124.231z M262.214,127.494c0.184,1.477-0.125,3.362-0.603,4.582
	l-3.262,0.287c0.541-1.217,0.826-3.098,0.742-4.572L262.214,127.494z M264.345,115.526l-0.452,1.416h4.419l0.475-1.416H264.345z
	 M267.547,119.221h-4.382l-0.448,1.402h4.36L267.547,119.221z M261.564,124.231h4.302l0.474-1.413h-4.325L261.564,124.231z
	 M266.423,127.15c0.513,1.254,0.733,2.879,0.608,3.906l-3.13,0.533c0.205-1.068,0.022-2.731-0.426-3.981L266.423,127.15z
	 M268.836,130.454c-0.002-0.874-0.401-2.186-0.964-3.167l2.661-0.505c0.68,0.962,1.113,2.256,1.2,3.089L268.836,130.454z
	 M306.415,115.325c1.381,0.979,1.661,2.31,0.857,3.983c-0.652,1.356-1.769,2.458-3.257,3.312c-0.53,0.266-2.168,0.981-4.827,2.085
	c-0.971,0.366-1.752,0.81-2.365,1.277c-0.678,0.518-1.156,1.085-1.434,1.701l-0.162,0.358h-5.068l0.155-0.358
	c0.422-0.977,1.058-1.831,1.986-2.534c0.888-0.707,2.241-1.444,4.061-2.211c1.786-0.772,2.919-1.28,3.391-1.521
	c1.085-0.592,1.792-1.24,2.105-1.919c0.416-0.901,0.288-1.616-0.296-2.14c-0.632-0.526-1.761-0.776-3.324-0.776
	c-1.978,0-3.558,0.361-4.796,1.108c-1.047,0.633-1.795,1.536-2.29,2.704h-5.169c0.816-2.016,2.428-3.617,4.937-4.788
	c2.483-1.181,5.428-1.775,8.863-1.775C302.801,113.83,305.039,114.311,306.415,115.325z M294.339,129.819
	c0.453,0.352,0.597,0.804,0.347,1.354c-0.249,0.548-0.81,1.019-1.573,1.365c-0.848,0.345-1.703,0.517-2.655,0.517
	c-0.951,0-1.643-0.197-2.1-0.542c-0.544-0.346-0.656-0.792-0.421-1.34c0.236-0.55,0.735-1.002,1.587-1.354
	c0.767-0.353,1.633-0.53,2.598-0.53C293.086,129.288,293.84,129.465,294.339,129.819z"/>
</svg>
