<?xml version="1.0" encoding="utf-8"?>
<!-- Generator: Adobe Illustrator 17.0.0, SVG Export Plug-In . SVG Version: 6.00 Build 0)  -->
<!DOCTYPE svg PUBLIC "-//W3C//DTD SVG 1.1//EN" "http://www.w3.org/Graphics/SVG/1.1/DTD/svg11.dtd">
<svg version="1.1" id="Layer_1" xmlns="http://www.w3.org/2000/svg" xmlns:xlink="http://www.w3.org/1999/xlink" x="0px" y="0px"
	 width="182.686px" height="24.432px" viewBox="0 0 182.686 24.432" enable-background="new 0 0 182.686 24.432"
	 xml:space="preserve">
<g>
	<g>
		<g>
			<path d="M24.747,19.631c-0.089,0-0.475-0.237-0.594-0.237c-0.385-0.105-1.928-0.448-2.314-0.526
				c-0.119,0-0.386-0.158-0.504-0.158c-0.772-0.289-1.602-0.289-2.373-0.447c-0.505-0.079-0.89-0.184-1.365-0.343
				c-0.119,0-0.386-0.184-0.504-0.184h-0.445c-0.445-0.053-0.712-0.237-1.098-0.342c-1.275-0.237-1.752-0.676-3.087-0.676
				c-0.208,0.106-0.475,0.29-0.593,0.343c-0.06,0.105-0.445,0.342-0.564,0.447c-0.267,0.237-0.475,0.685-0.771,0.921l-0.208,0.184
				c-0.059,0.105-0.949,1.026-1.038,1.131c-0.237,0.158-0.801,0.5-0.89,0.5c-0.178,0-0.297-0.105-0.504-0.105v0.342H7.243
				c0,0-0.118-0.158-0.118-0.237v-0.158c0-0.289,0-0.631,0.118-0.789c0-0.079,0.475-0.343,0.475-0.421l0.297-0.343
				c0.089-0.105,0.475-0.499,0.594-0.499l0.267-0.106c0.623-0.342,1.572-1.026,1.958-1.473c0.208-0.237,0.386-0.58,0.594-0.869
				c0.385-0.579,0.949-1.421,0.949-2.105v-0.105c0-0.079-0.119-0.685-0.119-0.79v-0.184c0-0.053-0.059-0.342-0.059-0.342
				c-0.118-0.158-0.89-0.237-1.157-0.237c-0.593,0-1.097,0.342-1.661,0.342H9.29l-0.297-0.263c-0.208-0.078-0.386,0-0.386-0.237
				v-0.105c0.445-0.421,0.771-0.92,1.157-1.447c0.118-0.105,0.297-0.447,0.386-0.499c0.178-0.184,0.178-0.448,0.385-0.737
				c0.386-0.684,0.771-1.263,0.771-2.105c0-0.184-0.089-0.342-0.385-0.342h-0.089l-0.178,0.053l-0.386-0.158
				c-0.208,0-0.89-0.078-1.098-0.078L8.993,6.086V5.744c0-0.342,0.178-1.579,0.89-1.579c0,0,0.445,0.184,0.653,0.263l0.178,0.078
				l0.504,0.106l0.267,0.237h0.504c0.475,0.105,1.157,0.342,1.157,0.895c0,0.394-0.178,0.342-0.297,0.579
				c-0.208,0.448-0.208,0.948-0.386,1.368c-0.208,0.343-0.385,0.684-0.653,1.026l-0.118,0.106l-0.208,0.053l-0.059,0.289
				c-0.119,0.158-0.386,0.79-0.504,0.842c0,0-0.208,0.289-0.267,0.342l-0.119,0.106v0.237h0.89l0.267-0.053h0.504
				c0.386,0,0.563,0,0.949,0.158c0.089,0,0.208,0.184,0.208,0.237v2.158c-0.208,0.448-0.326,0.869-0.386,1.316
				c-0.118,0.237-0.326,0.737-0.326,1.026l0.208,0.158c0,0,0.385,0.078,0.563,0.078c0.504,0.105,0.89,0.158,1.365,0.263
				c0.119,0,1.752,0.334,2.434,0.518c0.089,0,0.475,0.053,0.594,0.053l0.385,0.211c0.059,0,0.267,0.078,0.386,0.078h0.445
				c0.118,0,0.712,0.158,0.771,0.158c0.119,0,0.594,0.105,0.712,0.105h0.178c0.089,0,0.593,0.184,0.653,0.184l0.207,0.053h0.504
				c0.653,0.105,1.217,0.289,1.929,0.342c0.178,0,1.454,0.106,1.661,0.106l0.267,0.078c0.385,0,2.225,0.106,2.611,0.106h0.208
				c1.72-0.106,2.251-0.326,3.972-0.326c0,0.184-0.563,0.58-0.771,0.764l-0.089,0.105c-0.682,0.842-1.895,2.009-3.111,2.009
				c-1.098,0-2.255-0.263-3.204-0.605c-0.089,0-0.385-0.237-0.475-0.237L24.747,19.631z M10.307,5.269c0,0,0.111-0.236-0.083-0.236
				c-0.111,0-0.111,0.157-0.111,0.236c0,0.105,0,0.21,0.194,0.262V5.269z M20.532,14.582h-1.688
				c-0.111,0.183-2.519,0.524-2.879,0.681l-0.415,0.183c-0.249,0-0.886-0.34-0.886-0.576c0-0.445,0.11-0.629,0.47-0.786
				c1.439,0,2.879-0.236,4.318-0.236c0.47-0.341,0.72,0.052,1.245-0.524V12.88c0-0.105,0-0.786-0.166-0.786h-0.083
				c-1.439,0.183-2.879,0.445-4.318,0.523c-0.277-0.079-0.47-0.34-0.47-0.576c0-0.288,0-0.523,0.305-0.523
				c0.249,0,0.415,0.078,0.72,0.078c0.72,0,1.44,0,2.159-0.183c0.526-0.052,1.135-0.052,1.688-0.34
				c0.111-0.236,0.166-0.498,0.166-0.838c0-0.183-0.055-0.419-0.166-0.576h-0.553c-0.886,0-1.799,0.236-2.574,0.392
				c-0.11,0-1.19,0.34-1.273,0.34h-0.277c-0.47,0-0.664-0.157-0.664-0.576V9.66c0-0.105,0.305-0.289,0.36-0.341
				c0.221-0.209,0.664-0.105,0.83-0.105l0.304-0.105c0.055,0,0.609-0.079,0.72-0.079c0.609-0.105,1.246-0.262,1.965-0.34h0.609
				c0.83-0.158,0.553-1.021,0.553-1.519c-0.36,0-0.72,0.158-1.079,0.158c-0.72,0.078-1.44,0.078-2.159,0.236
				c-0.083,0-0.72,0.288-0.803,0.288c-0.11,0-0.637,0.052-0.72,0.052c0,0.105-0.221,0.105-0.277,0.105
				c-0.194,0-0.72-0.262-0.72-0.498c0-0.523,0.609-0.968,0.997-1.204l0.194-0.105l0.166,0.105c0.083,0.078,0.443,0.183,0.443,0.183
				h0.83l0.166-0.105c0.083,0,0.913-0.078,1.08-0.078h0.72c0.083,0,0.443-0.105,0.554-0.105h0.055c0.11,0,0.47-0.052,0.47-0.052
				l0.083-0.105V4.764c0-0.261-0.193-0.34-0.36-0.34h-0.249c-1.273,0.079-2.519,0.34-3.903,0.34c-0.249,0-0.36-0.34-0.36-0.602
				c0-0.078,0.111-0.157,0.111-0.157S16.021,3.9,16.131,3.9c0.083,0,0.443-0.079,0.554-0.079c0.055,0,0.72-0.157,0.775-0.157
				c0.194,0,1.08-0.183,1.384-0.183c0.36,0,0.969,0,1.329-0.262c0-0.576,0-1.701,0.996-1.701c0.803,0,0.249,1.282,0.72,1.701h1.91
				c0.083,0,0.609,0.105,0.803,0.105l0.36,0.079c0.277,0,1.44,0.079,1.716,0.079c0.194,0,0.36,0.34,0.36,0.523
				c0,0.079-0.277,0.419-0.277,0.498l-0.083,0.419l-0.11,0.261c0,0.079-0.056,0.445-0.056,0.524v0.105
				c0,0.052,0.056,0.236,0.056,0.34c0.11,0,0.72,0.052,0.913,0.052h0.47c0.415,0,0.72,0,1.246-0.052l0.249-0.105h0.11
				c0.083,0,0.249,0.105,0.249,0.157c0,0.629-0.775,1.205-1.329,1.205h-0.166c-0.36,0-1.273-0.078-1.384-0.078l-0.249-0.105h-0.47
				c-0.055,0.105-0.415,0.445-0.526,0.523l-0.083,0.158c-0.166,0.288-0.47,0.444-0.526,0.785c-0.36,0.786-2.463,0.419-3.183,0.786
				c-0.166,0.078-0.166,0.916-0.166,1.205v0.157c0,0.079,0.166,0.183,0.166,0.183h1.44l0.194-0.183c0.72,0,1.246-0.157,1.965-0.157
				h0.664c0.055,0.052,0.36,0.157,0.36,0.34l-0.11,0.052l-0.36,0.105l-0.249,0.236c-0.47,0.341-1.19,0.341-1.744,0.341
				c-0.166,0-1.245,0.105-1.439,0.105c-0.886,0-0.886,0.34-0.886,1.126v0.419c0.055,0.105,0.249,0.157,0.36,0.157h4.595
				c0.194,0,0.554,0.289,0.554,0.445v0.183c-0.471,0.236-1.08,0.681-1.633,0.681h-0.277l-0.249-0.105
				c-0.913-0.183-1.799-0.236-2.63-0.236h-0.554l-0.11,0.052c0,0.105-0.055,0.341-0.055,0.445c0,0.183-0.111,1.205-0.111,1.361
				c-0.083,0.236-0.194,0.523-0.553,0.523h-0.056c0,0-0.193-0.288-0.193-0.34c0-0.105-0.111-0.628-0.111-0.681v-1.126L20.532,14.582
				z M16.934,9.555H17.1V9.477h-0.166V9.555z M21.612,5.628c0,0.079,0.111,0.419,0.111,0.419l0.055,0.105h2.99
				c0.11,0,0.36-0.105,0.47-0.183c0.083-0.497,0.083-0.942,0.249-1.466c-0.056,0-0.415-0.079-0.526-0.079l-0.249-0.079
				c-0.11,0-1.19-0.105-1.273-0.105c-0.111,0-0.748-0.079-0.83-0.079h-0.111c-0.166,0-0.415,0-0.609,0.183
				c0,0.079-0.11,0.498-0.11,0.577v0.183c0,0.078-0.166,0.367-0.166,0.419V5.628z M24.878,7.225c0-0.052-0.277-0.157-0.36-0.157
				h-2.546c-0.083,0-0.36,0.157-0.36,0.262v1.02c0,0,0.111,0.183,0.166,0.183h0.553c0.111,0,0.581-0.105,0.637-0.105
				c0.72-0.079,1.273,0,1.744-0.575c0.166-0.183,0.166-0.288,0.166-0.523V7.225z M29.75,18.614c0,0.105,0.055,0.34,0.166,0.34h0.083
				c0.111,0,0.277,0,0.277-0.078c-0.083-0.158-0.277-0.262-0.47-0.262H29.75z M30.193,18.431c0,0,0.083,0.288,0.194,0.288
				c0.083,0,0.166-0.105,0.166-0.105v-0.419h-0.083c-0.083,0-0.277,0.183-0.277,0.183V18.431z"/>
		</g>
	</g>
	<g>
		<path d="M159.933,20.654c0,0,0.245-0.209,0.355-0.209c0.054,0,0.464-0.061,0.518-0.061c1.064-0.328,2.428-0.895,3.301-1.552
			c0.6-0.507,1.501-1.999,1.609-2.835v-0.597c-0.654,0-1.173,0.089-1.718,0.089h-0.71c-0.354-0.089-0.6-0.209-0.6-0.597
			c0-0.567,0.437-1.074,0.955-1.074c0.464,0,0.9,0.119,1.419,0.119h0.654c0.164-0.209,0-0.508,0.055-0.687
			c0.109-0.388,0.354-0.865,0.709-0.865c0.819,0,1.173,0.775,1.173,1.552c0,0.388-0.273,0.776-0.354,1.164
			c-0.109,0.507-0.164,1.074-0.355,1.552c-0.109,0.18-0.518,1.164-0.628,1.344c0,0.119-0.191,0.328-0.245,0.388
			c-0.191,0.209-1.064,1.224-1.255,1.402c-0.709,0.657-1.582,1.164-2.401,1.552c-0.6,0.27-1.664,0.776-2.428,0.776
			c-0.163,0-0.354-0.179-0.354-0.388C159.633,21.43,159.742,20.833,159.933,20.654z M162.416,5.164
			c0.109-0.508,0.273-0.567,0.628-0.776l0.082-0.119c0.273,0,0.518,0.119,0.818,0.119h0.164l0.245-0.119
			c0.71-0.18,1.364-0.269,2.074-0.389c0.054,0,0.873-0.06,0.955-0.06c0.737-0.119,1.446,0,1.446-0.896
			c0-0.656,0.082-0.775-0.355-1.253c-0.109-0.119-0.354-0.508-0.464-0.567V0.896c0-0.507,0.655-0.896,1.064-0.896h0.191
			c0.709,0.12,1.064,0.328,1.582,0.896v0.388c0,0.657-0.245,1.373-0.245,1.94v0.209c0.354,0,1.855,0.179,2.21,0.179
			c1.337,0.09,2.865,0.09,4.174,0.657l0.109,0.119c0.245,0.388,0.6,0.776,0.6,1.283c0,0.478-0.518,0.985-0.709,1.373
			c-0.054,0.179-0.518,0.776-0.518,0.836c-0.191,0.388-0.245,0.775-0.437,1.164c-0.355,0.806-0.819,1.492-1.528,1.79
			c-0.273,0-1.419,0.09-1.692,0.09c-0.9,0-1.855,0.18-2.728,0.299c-1.173,0.09-2.237,0.09-3.41,0.269
			c-0.9,0.119-1.664,0.388-2.565,0.388c-0.164,0-0.464,0-0.518-0.179l-0.191-0.388c-0.164-0.209-0.355-0.09-0.628-0.389
			c-0.437-0.597-0.437-2.925-0.437-3.701C162.334,6.537,162.334,5.939,162.416,5.164z M168.472,5.164h-0.927
			c-0.245,0-1.31,0.119-1.473,0.119c-0.545,0.09-1.173,0.209-1.719,0.388c-0.054,0.09-0.409,0.209-0.409,0.209
			s-0.109,0.269-0.109,0.388v2.776c0,0.328,0.273,0.806,0.464,1.104c0.164,0.298,0.518,0.179,0.764,0.179
			c0.9,0,1.773-0.269,2.701-0.388c1.255-0.18,2.482-0.18,3.792-0.269h0.3c0.054,0,0.409-0.12,0.518-0.12h1.146
			c0.109,0,0.628-0.089,0.71-0.089c0.354-0.299,1.446-2.925,1.446-3.522c0-0.775-0.355-0.775-0.982-0.836
			c-0.191,0-1.01-0.119-1.173-0.119h-0.9l-0.245-0.089h-0.518c-0.109,0-0.355,0.089-0.464,0.089h-1.418
			c-0.191,0-1.146,0.119-1.31,0.119L168.472,5.164z M165.062,7.611c0,0,0.191-0.18,0.3-0.18c0.054-0.119,0.409-0.209,0.409-0.209
			c0.109,0,1.064-0.119,1.173-0.119l0.245-0.06c1.528-0.209,3.056-0.328,4.556-0.328h0.273c0.082,0,1.146,0.119,1.255,0.119
			c0.245,0,0.409,0.09,0.409,0.388c0,0.389-0.409,0.776-0.764,0.866h-1.965c-0.109,0-0.354,0.119-0.464,0.119h-1.31
			c-0.163,0-1.992,0.179-2.155,0.179h-0.191c-0.055,0-0.6,0.209-0.71,0.209c-0.054,0-0.6,0.269-0.709,0.269h-0.054
			c-0.355,0-0.464-0.388-0.464-0.597C164.899,7.999,164.899,7.82,165.062,7.611z M169.073,14.326
			c-0.164-0.388-0.164-0.775-0.164-1.283c0-0.478,0.164-0.955,0.628-1.343h0.437c0.518,0,1.064,0.298,1.064,0.955
			c0,0.687-0.245,1.283-0.245,1.97c0,0,0,0.209,0.054,0.209c0,0,0.3-0.119,0.355-0.119c1.255-0.478,2.428-1.075,3.601-1.762
			l0.054-0.089c0.3-0.209,0.655-0.299,0.819-0.597c0-0.09,0.355-0.479,0.355-0.567c0.191-0.299,0.6-0.299,0.9-0.299
			c0.355,0,0.518,0.478,0.518,0.866c0,0.208,0,0.298-0.109,0.507c-0.409,0.656-4.365,2.119-4.365,2.328
			c0,0.179,0.191,0.179,0.3,0.299c0.054,0,0.355,0.269,0.409,0.269c0.109,0.119,0.819,0.388,0.9,0.507
			c0.273,0.209,0.573,0.388,0.819,0.597c0.273,0.18,0.628,0.27,0.873,0.389c0.819,0.388,1.609,0.656,2.428,0.955l0.164,0.089
			c0.082,0.12,0.437,0.18,0.437,0.18c0.109,0,0.709,0.119,0.818,0.119c0,0.09,0.6,0.328,0.764,0.328c0.655,0.06,1.173,0,1.801,0.18
			l-0.082,0.209c-0.082,0.179-0.355,0.566-0.355,0.566l-1.064,1.164c-0.354,0.09-0.709,0.388-1.064,0.388h-1.364
			c-0.054,0-0.764-0.388-1.064-0.566c-0.873-0.508-1.473-1.373-2.183-2.06c-1.173-1.164-2.701-2.447-4.31-2.447
			c-0.055,0-0.164-0.09-0.246,0.119c0,0.06-0.163,0.269-0.163,0.388c0,0.27-0.109,1.612-0.109,1.94v1.343l-0.082,0.389
			c0,0.119-0.109,0.716-0.109,0.775c0,0.119-0.054,0.508-0.054,0.598c-0.109,0.388-0.3,1.671-0.709,1.671
			c-0.191,0-0.3,0-0.355-0.209C169.018,20.266,169.373,17.341,169.073,14.326z"/>
	</g>
	<g>
		<path d="M150.838,20.304c-0.305,0-0.554,0-0.554-0.328c0-0.179,0-0.179,0.194-0.388l0.61-0.656
			c0.388-0.389,0.832-1.553,0.832-2.06c0.111-0.119,0.277-0.119,0.471-0.119h0.167c0.61,0.238,1.331,0.447,1.331,1.283
			c0,0.209-0.166,0.209-0.25,0.328c-0.832,0.776-1.609,1.552-2.746,1.939H150.838z M152.086,13.47c0-0.598,0.36-1.283,0.915-1.672
			c0.111,0,0.471-0.269,0.527-0.269c0.305-0.209,0.471-0.507,0.721-0.687c0,0,0.305-0.209,0.361-0.298l0.305-0.18
			c0.167-0.209,0.527-0.627,0.527-0.627v-0.06c-0.638-0.119-1.193-0.388-1.802-0.597c-0.527-0.119-1.442-0.179-1.442-0.896
			c0-0.269,0-0.388,0.083-0.656l0.721-0.776l0.166-0.119c0.721-0.687,1.193-1.343,1.803-2.119c0.111-0.119,0.111-0.119,0.305-0.119
			c0.416,0,0.97,0.119,0.97,0.775c0,0.508-0.554,0.687-0.915,0.955c-0.055,0.12-0.527,0.627-0.61,0.717l-0.472,0.388
			c0,0-0.166,0.18-0.166,0.299v0.089c0,0,0.36,0.18,0.471,0.18c0.527,0.209,1.498,0.388,2.052,0.775l0.167-0.06
			c0.666-0.507,1.192-1.164,1.553-1.88c0-0.508-0.832-1.164-0.832-1.463c0.111,0,0.471-0.209,0.554-0.209h0.111
			c0.721,0.12,1.553,0.329,2.163,0.776c0.167,0.209,0.167,0.717,0.167,0.896v0.328c0,0-0.25,0.388-0.361,0.448
			c-0.25,0.328-0.721,0.597-1.082,0.895l-0.167,0.209c-1.386,1.224-2.884,2.418-4.27,3.672c-0.055,0.119-0.361,0.298-0.361,0.388
			v0.119c0.555,0.179,0.916,0.179,1.553,0.179h0.721c0.25-0.179,0.721-0.388,1.081-0.478c0.361-0.089,0.916,0,0.916-0.478
			c0-0.895-0.832-0.984-0.832-1.283c0-0.179,0.166-0.269,0.36-0.388h1.11c0.36,0,0.444,0.299,0.721,0.507
			c0.36,0.27,0.915,0.479,0.915,1.045c0,0.389-0.471,0.597-0.666,0.776c-0.61,0.507-1.137,1.015-1.914,1.283
			c-0.055,0-0.416,0.179-0.527,0.179c-0.61,0.209-1.276,0.508-1.886,0.508h-0.277c-0.083,0-1.082-0.119-1.165-0.119
			c-0.361,0-2.08-0.06-2.274-0.567V13.47z M156.052,20.483c-0.416,0-0.61-0.687-0.61-1.074c0-0.478,0.083-0.985,0.083-1.433
			c0-0.329,0-0.598-0.083-0.896c0-0.09-0.167-0.389-0.167-0.508v-0.09c0-0.179,0.055-0.298,0.25-0.298
			c0.361,0,0.527,0.119,0.999,0.298c0.804,0.27,0.444,1.104,0.554,1.881l0.055,0.269c0,0.119-0.055,0.776-0.055,0.896
			c-0.111,0.388-0.554,0.775-0.832,0.955H156.052z M159.768,16.096c0.721,0.269,1.442,0.269,1.442,1.373
			c0,0.567-0.056,1.164-0.721,1.164c-0.25,0-0.61-0.09-0.777-0.269c-0.305-0.508-0.361-0.985-0.666-1.492
			c-0.167-0.389-0.471-0.687-0.638-1.074c0-0.09,0.167-0.09,0.277-0.09c0.305,0,0.555,0.209,0.832,0.269L159.768,16.096z"/>
	</g>
	<g>
		<path d="M3.611,15.874c0-0.09,0.06-0.955,0.06-1.164c0.119-1.433,0.209-3.015,0.209-4.566H3.611c0,0-0.208,0.119-0.328,0.179
			c-0.507,0.388-1.552,1.164-2.119,1.164c-0.776,0-0.985-0.776-1.164-1.343v-0.09C0,9.635,0.06,8.979,0.388,8.59
			c2.119,0,3.88-0.775,5.82-1.492C6.775,6.92,7.283,6.532,7.879,6.532c0.06,0,0.179,0,0.179,0.119V6.92
			c0,0.955-0.567,1.164-1.283,1.671l-0.06,0.061C6.387,8.859,5.82,8.979,5.611,9.367c0,0-0.06,0.269-0.06,0.388
			c-0.388,1.851-0.388,3.91-0.388,5.73c0,0.896,0.06,1.672,0.06,2.448v0.775c-0.06,0.508-0.269,0.687-0.776,0.896
			C4.388,19.604,4,19.783,4,19.783H3.791c0,0-0.507-0.298-0.567-0.388c-0.329-0.179-0.209-0.687-0.329-0.896v-0.06
			C3.104,17.545,3.492,16.769,3.611,15.874z"/>
	</g>
	<path d="M37.693,17.806c0-0.984,0.388-2.269,0.507-3.224c0.209-1.372,0.209-2.656,0.389-3.999V7.15h-0.18
		c0,0-0.507,0.388-0.716,0.597c-0.567,0.508-1.164,1.074-1.731,1.553l-0.09,0.119c-0.119,0.06-0.507,0.269-0.626,0.269
		c-0.567,0-0.836-0.985-0.836-1.373c0-0.269,0-0.776,0.179-1.044c0-0.12,0.478-0.508,0.478-0.598s0.389-0.478,0.389-0.597
		l0.119-0.09c1.074-0.089,2.119-0.298,3.104-0.687c0.389-0.09,0.776-0.388,1.164-0.478l0.389-0.089c0.119,0,0.388-0.299,0.507-0.299
		c0,0,0.388-0.18,0.448-0.18c0.388-0.209,0.597-0.298,1.104-0.507c0.061,0.119,0.269,0.119,0.269,0.298
		c0,0.209-0.089,0.389-0.269,0.479c-0.119,0.119-0.716,0.507-0.775,0.597l-0.508,0.298c-0.209,0.09-0.984,0.479-0.984,0.776v0.09
		c0,0,0.119,0.388,0.119,0.478L40.021,7.15c-0.18,1.373-0.389,2.925-0.389,4.327c0,0-0.06,5.224-0.06,7.492
		c0,0.775-0.388,1.164-1.104,1.463l-0.179,0.089H38.2l-0.507-0.478V17.806z M50.945,19.865c0,0.269-0.717,0.955-0.896,0.955
		c-0.478,0-0.985-0.955-0.985-1.343c0-0.985,0.328-1.762,0.388-2.776c0.209-1.552,0.329-3.104,0.329-4.566
		c0-0.269,0.06-0.657-0.12-0.865h-0.865c-1.283,0-2.507,0.208-3.79,0.597c-0.598,0.18-1.254,0.389-1.94,0.389h-0.119
		c-0.09,0-0.597-0.329-0.597-0.329s-0.061-0.388-0.061-0.567V11.27c0-0.179,0.18-0.299,0.389-0.388c0.06,0,0.388-0.418,0.447-0.418
		h0.896c0.716,0,1.373-0.09,2.06-0.209c1.045-0.061,3.581-0.27,3.581-0.27l0.18-0.179V9.091l-0.389-0.389
		c-0.06-0.06-0.566-0.388-0.656-0.388c-0.119,0-0.567-0.179-0.776-0.179c-0.119,0-0.687-0.09-0.775-0.09
		c-0.567-0.119-1.553-0.775-1.672-1.373V6.195c0-0.209,0-0.687,0.119-0.896c0.866-1.343,2.149-1.164,3.492-1.343
		c0.09,0,0.269-0.09,0.389-0.09h1.761c1.164,0,2.328,0,3.492,0.269c0.896,0.299,1.462,0.209,1.462,1.283v0.479
		c-0.298,0.388-0.896,0.477-1.283,0.686c-0.836,0.389-1.731,0.896-2.597,1.283c-0.388,0.18-1.283,0.27-1.283,0.776
		c0,0.179,0.09,0.955,0.209,1.164h0.896c1.044,0,1.999-0.119,3.163-0.119h1.373c0.687,0.179,1.283,0.119,1.731,0.776v0.119
		c0,0.566-0.269,0.775-0.776,0.895l-0.269,0.061c-0.119,0-0.687-0.061-0.896-0.18c-1.343-0.388-2.895-0.388-4.268-0.388h-0.836
		l-0.238,0.12c0,0-0.09,0.566-0.09,0.775c0,0.06-0.119,0.955-0.119,1.045c0,0.119-0.06,0.686-0.06,0.775V19.865z M42.349,17.806
		c-0.061,0-0.061-0.09-0.061-0.209c0-0.299,1.045-0.955,1.224-1.074c0.896-0.776,1.284-1.433,2-2.328l0.06-0.09
		c0.389-0.687-0.06-1.015,0.776-1.402c0.328-0.061,0.119-0.061,0.388-0.061c0.328,0,0.597,0.27,0.597,0.657
		c0,1.194-1.044,2.567-1.939,3.343l-0.209,0.06c-0.656,0.388-1.672,1.104-2.447,1.104H42.349z M47.064,6.195
		c0.061,0,0.567,0.388,0.657,0.388l0.119,0.09c0.447,0.18,1.045,0.299,1.611,0.478c0.508,0.209,0.896,0.507,1.373,0.507h0.299
		c0.09,0,0.716-0.507,0.776-0.507c0.716-0.478,1.372-0.955,1.88-1.642v-0.09c0-0.119,0-0.209-0.209-0.209
		c-0.119,0-0.567-0.089-0.687-0.089c-0.09,0-0.478-0.09-0.597-0.09h-0.955c-1.164,0-2.269,0.09-3.313,0.388
		c-0.298,0.09-1.074,0.18-1.074,0.657L47.064,6.195z M53.272,12.702c0-0.061,0.12-0.18,0.18-0.18c0.328,0,0.716,0.18,0.896,0.299
		c1.373,1.373,2.805,2.836,4.536,3.611c0.119,0,0.896,0.389,1.015,0.389c0.09,0,0.567,0.268,0.657,0.268v0.209
		c-0.389,0.896-1.254,1.463-2.239,1.463c-0.388,0-1.044-0.06-1.433-0.389c-0.208-0.059-0.597-0.566-0.716-0.656
		c-0.06-0.119-0.567-1.283-0.656-1.402c-0.18-0.269-0.508-0.656-0.687-0.955l-0.09-0.209l-0.567-0.955
		c-0.119-0.09-0.507-0.717-0.597-0.896l-0.299-0.388V12.702z"/>
	<path d="M76.785,17.417c0-0.209,0.119-1.372,0.119-1.551c0.061-0.776,0.269-1.672,0.269-2.448h-1.253
		c-0.389,0-0.567,1.075-0.687,1.284c-0.776,1.611-2.06,2.596-3.433,3.79c-0.447,0.388-0.955,0.865-1.552,1.253
		c-0.179,0.12-0.955,0.508-1.045,0.567c-0.566,0.209-1.283,0.508-1.851,0.508h-0.209c-0.179,0-0.775-0.12-0.775-0.12
		c-0.06,0-0.448-0.268-0.567-0.388c-0.09-0.06-0.507-0.447-0.597-0.567c-0.18-0.209-0.388-0.597-0.388-0.865
		c0-0.179,0.388-0.179,0.478-0.179h2.179c0.775,0,2.327-0.508,2.984-0.896c0.119-0.119,0.507-0.328,0.507-0.328
		c0.209,0,1.104-0.836,1.225-0.776c0.775-0.656,0.955-0.896,1.611-1.552l0.06-0.06c0.209-0.329,0.597-1.224,0.597-1.224v-0.27
		h-0.775l-0.209,0.09c-0.567,0.18-1.164,0.299-1.672,0.508c-0.06,0-0.656,0.299-0.775,0.388c-0.061,0-0.389,0.299-0.448,0.299
		h-0.209c-0.179,0-0.507-0.179-0.507-0.388v-0.12c0-0.179,0.119-0.776,0.119-0.776l0.209-0.298c0.269-0.478,0.388-0.866,0.388-1.433
		c0-0.717-0.328-1.164-0.896-1.492c0-0.119-0.089-0.508-0.089-0.567V9.688c0-0.269,0.208-0.388,0.478-0.388
		c0.298,0,0.388,0.179,0.686,0.179h0.479c0.895,0,1.671-0.269,2.447-0.388c0.119,0,0.566-0.061,0.687-0.061
		c0.208,0,0.775-0.209,0.865-0.209c0.179,0,0.567-0.298,0.687-0.387c0.269-0.299,1.761-1.94,1.761-2.448
		c0-0.089-0.209-0.179-0.209-0.179c-0.119,0-0.507-0.119-0.567-0.119l-0.388-0.09c-0.328,0-1.104-0.18-1.164-0.18h-0.597v0.18
		c-0.687,0-1.074,0.299-1.582,0.597l-0.09,0.09c-1.283,0.687-2.507,1.194-3.79,1.761c-1.164,0.478-2.328,0.984-3.582,0.984h-0.507
		c-0.299-0.209-0.388-0.507-0.567-0.775c-0.119-0.119-0.209-0.389-0.209-0.389c-0.119-0.507,0.597-0.775,0.866-0.895
		c0.298,0,1.581-0.209,1.85-0.209c0.209,0,1.553-0.061,1.762-0.061c1.343-0.119,4.686-1.402,5.342-2.566
		c0.12-0.09,0.209-0.477,0.209-0.477c0-0.09-0.209-0.389-0.209-0.479v-0.09c0-0.298,0.389-0.686,0.717-0.686
		c0.656,0,1.433,0.388,1.433,1.074c0,0.269-0.09,0.388-0.09,0.566c0,0.209,0,0.209,0.209,0.299c0.06,0,0.776,0.09,0.836,0.09
		c0.896,0.09,1.88,0.09,2.328,0.984c0,0.09,0.119,0.27,0.119,0.27c-0.179,0.806-1.074,1.193-1.552,1.671
		c-0.18,0.12-0.896,0.776-0.955,0.955v0.12c0,0.089,0.06,0.208,0.06,0.208h3.999c0.328-0.119,0.389-0.119,0.717-0.119
		c0.447,0,0.835,0.298,0.835,0.776c0,0.388-0.179,0.775-0.388,1.074l-0.179,0.209v0.179c0,0.12-0.09,0.329-0.09,0.388
		c-0.119,0.328-0.388,1.164-0.388,1.164s-0.567,0.598-0.806,0.896c-0.209,0.208-0.389,0.268-0.598,0.268
		c-0.388,0-0.775-0.06-1.164-0.06h-0.566c-0.09,0.06-0.389,0.776-0.478,0.955l-0.12,0.329l-0.06,0.059
		c-0.119,0.209,0,0.598-0.209,0.776v3.224c0,0,0.269,0.209,0.389,0.209c1.761,0.687,3.432,0.775,5.372,0.775h1.433
		c0.508-0.209,0.955-0.089,1.463-0.209c0.089,0,0.597-0.179,0.775-0.179c0.09,0,0.269-0.089,0.269-0.089l0.328-0.18
		c0.389-0.209,0.955-0.209,1.344-0.508c0.298-0.209,0.687-0.716,1.074-0.716c0,0.12-0.09,0.836-0.09,0.896
		c0,0-0.089,0.328-0.209,0.388c-0.566,0.985-1.164,1.552-2.06,2.269c-0.775,0.566-1.044,0.775-2.118,0.775
		c-1.821,0-3.373-0.507-5.164-0.984c-0.388-0.119-0.775-0.18-1.164-0.299c-0.089,0-0.478-0.209-0.597-0.209
		c-0.776-0.268-1.939-0.447-2.119-1.552V17.417z M72.397,12.821c0.776,0,1.851-0.18,2.627-0.389
		c0.597-0.119,0.597-0.955,0.597-1.462c0-0.209,0.119-0.478-0.209-0.716h-0.836l-0.328,0.119l-2.238,0.328v0.389
		c0,0.447,0.119,1.164,0.18,1.611L72.397,12.821z M77.471,12.255c0.865-0.12,1.82-0.209,2.716-0.209c0.209,0,0.209-0.12,0.269-0.299
		c0.12-0.209,0.329-0.985,0.389-1.164c0-0.09,0.119-0.328,0.119-0.389v-0.119c0-0.09,0-0.209-0.119-0.209H79.62
		c-0.776,0-1.553,0-2.269,0.119l-0.06,0.09c-0.12,0.119-0.209,0.418-0.209,0.418s-0.119,0.865-0.119,1.164v0.09
		C76.964,11.926,77.292,12.135,77.471,12.255z"/>
	<path d="M113.46,11.478c0.119,0,0.388-0.089,0.507-0.089c0.209-0.119,0.597-0.687,0.597-0.985c0-0.179,0-0.388-0.209-0.597
		c-0.119-0.089-0.507-0.269-0.566-0.269c-0.389,0-2.06-0.328-2.447-0.328c-0.09,0-0.985-0.06-1.164-0.06h-0.269
		c-0.389,0-3.611,0.269-4,0.269H105.7c-0.388,0-1.552,0.119-1.671,0.119c-0.388,0-0.776,0.18-1.164,0.269c0,0-0.656,0.12-0.955,0.12
		h-0.09c-0.627,0.179-1.283,0.298-1.851,0.477c-0.896,0.209-1.88,0.688-2.716,1.074c-0.119,0-0.388,0.299-0.507,0.299
		c-0.09,0-0.478,0.27-0.598,0.27c-0.656,0.387-1.164,0.984-2.119,0.984c-0.388,0-0.478-0.299-0.478-0.687v-0.089
		c0.09-0.209,0.478-0.985,0.598-1.164c0.179-0.389,0.955-0.389,1.343-0.479c0.656-0.209,2.418-1.193,2.537-1.97
		c0-0.089-0.119-0.597-0.119-0.656h-0.478l-0.18,0.06h-0.896c0-0.06-0.089-0.447-0.089-0.566V7.39c0-0.389,0.656-1.164,1.044-1.164
		c0.389,0,2.06-0.299,2.447-0.299c0.866-0.09,1.762,0,2.657-0.388l0.06-0.09V4.166c0,0-0.06-0.299-0.18-0.299h-0.089
		c-0.687,0-1.403,0.179-2.06,0.299c-0.567,0.089-1.283,0.089-1.851,0.269c-0.597,0.209-1.164,0.508-1.761,0.508
		c-0.448,0-0.657-0.299-0.657-0.776c0-0.388,0.389-0.687,0.657-0.896c0,0,0.328-0.06,0.388-0.06
		c1.761-0.329,3.433-0.507,5.163-0.597c0.12,0,0.12-0.18,0.12-0.18V2.226c0-0.119-0.18-0.507-0.18-0.566V1.54
		c0-0.209,0.18-0.389,0.389-0.479c0.179-0.119,0.775-0.298,0.835-0.298h0.12c0.775,0,0.984,0.896,0.865,1.462l0.179,0.209h2.149
		c0,0,0.179-0.209,0.298-0.328v-0.06c0-0.209-0.119-0.716-0.119-0.716l-0.06-0.27V0.942c0-0.269,0.836-0.775,1.164-0.775
		l0.269,0.119c0.119,0,0.507,0.09,0.567,0.09c0.209,0.119,0.447,0.566,0.447,0.895c0,0.27-0.447,0.448-0.447,0.836
		c0,0.119,0,0.328,0.119,0.328h0.597c0.388,0,1.94,0.061,2.328,0.061l0.299,0.119c0.209,0,0.984,0.09,1.164,0.09
		c0.208,0.178,0.478,0.387,0.478,0.686v0.09l-0.09,0.299c-0.18,0.209-0.896,0.865-1.074,1.044c-0.269,0.329-0.478,1.104-0.866,1.284
		c-0.388,0.209-1.462,0.328-1.939,0.388c-0.12,0-1.015,0.119-1.075,0.119c-0.507,0.089-0.597,0.776-0.597,1.164
		c0,0.089,0,0.269,0.09,0.269h1.283c0.955,0,1.94-0.06,2.896-0.06h0.209c1.164,0.06,3.014,0.179,3.999,0.955
		c0.269,0.269,0.269,0.656,0.269,1.074c0,0.776-0.984,2.328-1.642,2.806c-0.298,0.209-0.955,0.508-1.343,0.508
		c-0.328-0.209-0.389-0.299-0.389-0.598C113.4,12.255,113.4,11.956,113.46,11.478z M97.701,23.446
		c1.552-0.566,2.925-1.552,3.999-2.716c0.119-0.119,0.388-0.507,0.388-0.507c0-0.061-0.06-0.27-0.06-0.389
		c-0.597,0-1.283,0.508-2,0.508c-0.447,0-0.566-0.567-0.566-1.016v-0.179c0-0.089,0.298-0.478,0.298-0.597
		c0.269-0.836,0.389-1.73,0.389-2.716V15c0-0.119-0.12-0.507-0.12-0.627c0-0.089-0.06-0.656-0.06-0.776l-0.119-0.179l-0.597-0.597
		v-0.18l0.119-0.209l0.09-0.387l0.507-0.09c0.18,0,0.657-0.18,0.776-0.18l0.179-0.119c0.09,0,0.776-0.09,0.896-0.09
		c1.373-0.179,2.806-0.566,4.148-0.686c0.12,0,1.164-0.09,1.493-0.09h0.269c0.119,0,0.388-0.18,0.507-0.18
		c0.06,0,0.269,0.09,0.388,0.18c1.075,0,1.94,0,2.836,0.686c0.06,0.09,0.269,0.299,0.269,0.299v0.18
		c0,0.388-0.269,0.686-0.388,1.074c-0.269,0.865-0.389,1.761-0.478,2.746c0,0.269-0.12,1.552-0.12,1.73
		c0,0.598,0.209,1.254-0.388,1.642c-0.06,0-0.776,0.12-0.955,0.12h-0.209c-0.298,0-2.716-0.12-3.015-0.12h-0.209
		c-0.656,0-1.552-0.089-2.119,0.508c-0.089,0.119-0.208,0.507-0.208,0.567c-0.269,0.716-0.567,1.164-1.045,1.671
		c-1.074,1.164-2.06,2.029-3.611,2.328c-0.18,0-0.896,0.209-0.955,0.209H97.91c-0.269,0-0.598-0.388-0.776-0.597v-0.119
		C97.134,23.536,97.642,23.446,97.701,23.446z M99.641,9.21h0.119c0.09,0,0.776-0.18,0.866-0.18c0.687-0.089,1.402-0.268,2.06-0.388
		V8.374c0-0.388-0.09-0.895-0.209-1.283c-0.06-0.09-0.18-0.09-0.269-0.09h-0.18l-0.209,0.09c-0.119,0-0.896,0.119-1.015,0.119
		c-0.06,0-0.656,0.18-0.776,0.18l-0.06,0.09c0,0.178-0.209,0.895-0.209,0.955l-0.119,0.328c0,0.059-0.06,0.388-0.06,0.388
		L99.641,9.21z M101.641,15.955h0.269c1.164,0,2.447-0.179,3.611-0.298h0.179c0.985-0.09,1.94-0.209,2.806-0.209
		c0.299,0,0.389,0.209,0.687,0.209l0.119-0.209c0-0.061,0.09-0.866,0.09-0.955c0-0.12,0.119-0.598,0.119-0.688v-1.551
		c-0.835-0.09-1.402-0.209-2.179-0.209c-0.775,0-1.433,0-2.148,0.119c-0.06,0-0.567,0.09-0.657,0.09l-0.298,0.089
		c-0.657,0.089-1.254,0.089-1.94,0.298l-0.269,0.09l-0.388,0.09c-0.119,0.119-0.119,0.389-0.119,0.597c0,0.299,0,0.299,0.388,0.299
		c0.508,0,0.955-0.299,1.463-0.299h5.312c0,0,0.209,0.09,0.209,0.179c0,0.209-0.09,0.299-0.209,0.389
		c-0.061,0.119-0.567,0.299-0.567,0.299h-0.776c-0.597,0-1.939,0.089-1.939,0.089l-0.209,0.12c-0.269,0-1.552,0.089-1.82,0.089
		l-0.389,0.09c-0.507,0.119-0.955,0-1.343,0.328c-0.119,0.06-0.119,0.269-0.119,0.388C101.522,15.657,101.522,15.776,101.641,15.955
		z M101.641,17.776v0.775c0.656,0,1.343-0.18,2-0.269c0.388-0.12,1.163-0.179,1.671-0.179c0.985-0.119,2.029-0.119,2.984-0.209
		c0.209,0,0.389-0.119,0.598-0.18c0.119-0.508,0.238-0.984,0.238-1.492v-0.269l-0.508,0.478c0,0-1.283,0.119-1.88,0.119h-0.656
		l-0.299,0.061c-1.164,0.119-2.209,0.119-3.372,0.328L102.088,17l-0.388,0.119c0,0-0.06,0.089-0.06,0.209v0.06l0.06,0.209
		L101.641,17.776z M104.148,8.374h0.478c0.179,0,1.283-0.119,1.463-0.119c0.388-0.269,0.478-0.478,0.478-1.045V6.822
		c-0.09-0.12-0.269-0.12-0.389-0.12c-0.656,0-1.253,0-1.82,0.18c-0.119,0-0.328,0.119-0.388,0.119V7.39
		C103.969,7.777,103.969,7.986,104.148,8.374z M104.357,5.539h0.656c0.567,0,1.164,0,1.731-0.209l0.119-0.06
		c0.09-0.328,0.09-0.627,0.09-0.896c0-0.12,0-0.508-0.09-0.597h-0.388l-0.299-0.119h-0.209c-0.566,0-1.164,0.208-1.611,0.208
		c-0.388,0.12-0.328,0.776-0.328,1.075C104.029,5.151,104.029,5.539,104.357,5.539z M108.296,20.433
		c0.328,0,0.598,0.119,0.836,0.179c1.164,0.328,3.104,0.716,3.104,2.149c0,0.895-0.389,1.163-1.164,1.163
		c-0.209,0-0.389,0-0.508-0.089c-0.209-0.18-0.269-0.508-0.388-0.688l-0.09-0.089c-0.567-0.567-0.955-1.075-1.582-1.671
		c-0.209-0.18-0.597-0.18-0.597-0.567C107.909,20.611,108.118,20.433,108.296,20.433z M108.624,5.33h1.94l0.119-0.06
		c0-0.119,0.269-0.717,0.389-0.896c0.06-0.209,0.06-0.209,0.06-0.388c0-0.12,0-0.209-0.06-0.328
		c-0.508-0.061-0.896-0.061-1.284-0.061h-0.775c-0.717,0.061-0.717,0.836-0.717,1.344C108.296,5.062,108.505,5.33,108.624,5.33z"/>
	<path d="M121.586,9.509l0.389-0.119c0.119-0.061,1.015-0.448,1.193-0.568c0.209-0.089,0.388-0.387,0.656-0.477h0.12
		c0.269,0.09,1.253,0.388,1.253,0.775c0,0.865-0.865,0.865-1.433,0.985c-0.775,0.06-1.283,0.269-1.999,0.269h-0.06l-0.717-0.478
		l-0.06-0.12V9.718C120.99,9.718,121.497,9.509,121.586,9.509z M125.705,19.536c-0.328,0-1.373,0.12-1.672,0.12
		c-0.656,0.269-1.372,0.656-2.059,0.656c-0.478,0-0.776-0.388-0.776-0.865c0-0.955,1.791-1.343,1.791-2.358
		c0-0.209-0.209-0.209-0.209-0.388c0-0.209,0.865-0.776,1.044-0.776c0.329,0,0.896,0.299,0.896,0.567
		c0,0.209-0.119,0.716-0.179,0.896c0,0.09-0.328,0.389-0.328,0.508l0.119,0.268h2.925c0.18,0,1.164,0.12,1.343,0.12l0.389,0.089
		h0.984c1.164,0,2.447,0.12,3.611,0.299c0.389,0.09,0.776,0.209,1.164,0.27c1.433,0.328,2.776,0.596,4.269,0.775
		c0.687,0.119,1.283,0.119,1.939,0.209h4.566c0.209-0.09,0.299-0.09,0.389-0.09h0.119l0.269,0.209l0.209-0.119h0.09
		c0.209,0,0.478,0,0.478,0.119c0,0.18-0.389,0.567-0.478,0.656c-0.09,0.12-0.478,0.688-0.567,0.776
		c-0.209,0.299-0.627,0.507-0.896,0.567c-0.299,0.119-1.671,0.717-1.94,0.775c-0.388,0.119-0.686,0.119-1.074,0.119h-0.209
		l-0.269-0.119h-0.687c-0.209,0-0.597-0.179-0.775-0.268c-0.657-0.299-1.254-0.508-1.94-0.688l-0.209-0.089
		c-0.179-0.12-1.462-0.567-1.671-0.687l-0.18-0.09c-1.164-0.299-2.328-0.775-3.492-0.955c-1.939-0.388-3.88-0.508-5.819-0.508
		H125.705z M124.213,12.104c0.388,0,0.984,0.12,0.984,0.508c0,0.328-0.209,0.508-0.269,0.717c-0.119,0.059-0.209,0.268-0.388,0.268
		c0,0-0.388,0.12-0.597,0.12c-0.567,0.06-1.344,0.269-1.97,0.269c-0.269,0-0.598-0.09-0.657-0.389
		C121.497,13.329,123.765,12.104,124.213,12.104z M121.586,5.718l0.12-0.209l0.06-0.119c0.119,0,0.626-0.06,0.716-0.06
		c0.776-0.209,1.552-0.776,2.447-0.776c0.448,0,0.955,0.061,0.955,0.656c0,0.508-0.298,0.896-0.775,0.896
		c-0.12,0-1.344,0.059-1.851,0.059h-0.269c-0.209,0-0.896-0.059-1.104-0.059C121.766,5.986,121.586,5.777,121.586,5.718z
		 M134.629,16.224h-0.388c-0.776,0-1.642,0.09-2.418,0.269c-0.566,0.12-1.164,0.329-1.791,0.329h-0.566
		c-0.269-0.329-0.389-0.389-0.389-0.776v-0.329c0,0,0.12-0.179,0.18-0.179c0.597-0.388,1.492-0.388,2.06-0.388
		c0.984-0.09,1.88-0.209,2.716-0.269c0.209,0,0.716-0.12,0.716-0.12c0.06,0,0.06-0.209,0.06-0.268c0-0.328,0-0.985-0.179-1.105
		c-0.597,0.209-1.254,0.12-1.82,0.209c-0.717,0.12-1.492,0.299-2.149,0.299c-0.507,0-0.896-0.388-1.193-0.775
		c-0.09-0.119-0.09-0.18-0.09-0.299c0-0.389,0-0.775,0.209-1.104V9.718c0-0.12-0.119-0.598-0.209-0.717
		c-0.119-0.06-0.567-0.566-0.687-0.656v-0.18c0-0.209,0.179-0.508,0.388-0.597c0.508-0.298,0.567-0.179,1.194-0.298
		c0.388-0.09,0.865-0.209,1.254-0.329c0.119,0,1.074-0.06,1.163-0.06l0.18-0.119c0.507-0.09,0.896-0.09,1.373-0.209
		c0.119,0,0.388-0.06,0.388-0.06V4.822c-0.656,0-1.373,0.12-2.029,0.179c-0.776,0.12-1.463,0.508-2.238,0.508
		c-0.329,0-0.508,0-0.717-0.299V4.822c0-0.208,0-0.388,0.119-0.597c0.209-0.389,0.776-0.447,1.164-0.447
		c0.12,0,1.164-0.119,1.284-0.119c0.208,0,1.641-0.09,1.82-0.09c0.328,0,0.507-0.119,0.507-0.299c0-0.209,0-0.389-0.119-0.597
		l-0.06-0.06c-0.119-0.119-0.209-0.389-0.209-0.389s0.09-0.328,0.209-0.328c0.269-0.179,0.447-0.179,0.836-0.179h0.388
		c0.119,0,0.597,0.298,0.717,0.388c0.06,0.119,0.269,0.299,0.269,0.299v0.865h0.566c0.12,0,1.224-0.09,1.283-0.09h0.776l0.209-0.119
		h1.074c0,0,0.269,0.119,0.389,0.209l0.209,0.18v0.119l-0.329,0.388c-0.06,0.209-0.06,0.269-0.269,0.388l-0.775,0.389h-3.015
		c-0.508,0-0.508,0.984-0.508,1.253v0.299l0.12,0.089h4.775c0,0,0.388,0.18,0.566,0.299c0.209,0.09,0.269,0.598,0.269,0.776v0.119
		c-0.955,1.642-0.955,3.104-1.433,4.864c-0.566,0.955-1.851,0.688-2.835,0.777c-0.119,0-0.567,0.119-0.687,0.119
		c-0.09,0-0.656,0.059-0.776,0.059v0.389c0,0.209-0.089,0.597,0.12,0.717h0.955c0.895,0,1.761-0.12,2.656-0.12h0.955
		c0.089,0,0.388,0.179,0.478,0.179c0.119,0,0.298,0.209,0.298,0.209c0,0.299-0.566,0.508-0.687,0.567
		c-0.089,0-0.388,0.508-0.478,0.508l-0.179,0.089h-3.999c0,0-0.209,0.12-0.209,0.18v0.328c0,0.18-0.12,1.283-0.12,1.463
		c-0.06,0.209-0.269,0.477-0.447,0.477c-0.209,0-0.328,0-0.388-0.089l-0.389-0.388v-1.582L134.629,16.224z M132.481,10.94
		c-0.448,0.12-1.344,0-1.433,0.717c0,0.06-0.12,0.896-0.12,0.955h0.209c0.389,0,1.552-0.06,1.552-0.06l0.299-0.12
		c0.09,0,0.985-0.089,1.045-0.089c0.119,0,0.597-0.239,0.716-0.239v-0.566c0-0.209,0.06-0.656-0.119-0.865h-0.269
		C133.644,10.673,133.077,10.882,132.481,10.94z M131.526,8.345c0,0-0.269,0.09-0.269,0.209v1.432h0.06l0.328-0.089
		c0.775-0.179,1.73-0.179,2.507-0.388c0.09,0,0.388-0.119,0.478-0.119V7.956C133.584,7.956,132.481,8.046,131.526,8.345z
		 M136.181,9.21h0.299c0.984,0,1.939-0.209,2.925-0.209c0,0,0.299-0.06,0.299-0.18c0-0.089,0.089-0.596,0.089-0.656V7.837
		c-0.089,0-0.597-0.06-0.656-0.06h-2.835l-0.209,0.179V9.12L136.181,9.21z M136.301,11.926h0.447c0.776,0,1.492-0.089,2.269-0.209
		l0.119-0.06c0.06-0.328,0.179-0.597,0.179-0.984v-0.12l-0.179-0.06h-2.955l-0.089,0.18l0.089,1.164L136.301,11.926z"/>
</g>
</svg>
