<?xml version="1.0" encoding="utf-8"?>
<!-- Generator: Adobe Illustrator 17.0.0, SVG Export Plug-In . SVG Version: 6.00 Build 0)  -->
<!DOCTYPE svg PUBLIC "-//W3C//DTD SVG 1.1//EN" "http://www.w3.org/Graphics/SVG/1.1/DTD/svg11.dtd">
<svg version="1.1" id="Layer_1" xmlns="http://www.w3.org/2000/svg" xmlns:xlink="http://www.w3.org/1999/xlink" x="0px" y="0px"
	 width="86.721px" height="25.399px" viewBox="0 0 86.721 25.399" enable-background="new 0 0 86.721 25.399" xml:space="preserve">
<g>
	<path d="M5.61,10.983c-0.656,0-1.044,0.179-1.611,0.179c-0.597,0-0.985-0.06-0.985-0.656c0-0.299,0.09-0.508,0.269-0.687
		C3.491,9.61,3.79,9.342,4.059,9.222c0.209,0,1.283-0.179,1.492-0.179C5.73,8.655,5.73,8.267,5.73,7.76V7.163
		c0-0.776-1.672-0.179-1.672-1.433c0-0.179,0.209-0.687,0.388-0.896c0.12-0.06,0.598-0.388,0.776-0.388h0.119
		c0.09,0,0.269,0.209,0.269,0.329h6.537c0.507-0.209,1.163-0.12,1.671-0.12c1.164,0,2.507-0.209,3.671-0.269
		c0.985-0.12,1.881-0.328,2.836-0.328c0.388,0,1.373-0.09,1.373,0.507c0,0.388-0.598,0.656-0.896,0.865l-0.09,0.12
		c-0.119,0.06-0.776,0.269-0.896,0.269c0,0.12-0.06,0.567-0.06,0.687l-0.119,0.209c0,0.06-0.09,0.776-0.09,1.044v0.179h2.418
		c0.179,0.328,0.388,0.119,0.388,0.716c0,0.298-0.269,0.567-0.597,0.776c-0.06,0.12-0.448,0.179-0.448,0.179h-1.761
		c0,0-0.119,0.209-0.119,0.328c0,0.06-0.06,0.448-0.06,0.567c0,0.089-0.329,1.044-0.389,1.373l-0.119,0.269v0.388l0.896,0.12h7.073
		c0.09,0,0.09,0.119,0.09,0.179v0.12c-0.865,0.985-1.552,1.433-2.716,1.94c-0.12,0.089-0.567,0.209-0.567,0.209h-1.939
		c-0.776-0.388-1.762-0.388-2.657-0.597l-0.179-0.119c-0.09,0-0.656-0.06-0.776-0.06l-0.269-0.12c-0.209,0-0.626,0.12-0.835-0.089
		H15.55c-1.851,0-3.672,0.209-5.552,0.388c-1.851,0.209-3.611,0.388-5.343,1.045c-0.209,0.119-0.865,0.328-0.984,0.388
		c-0.18,0.12-1.553,0.776-1.731,0.896c-0.388,0.209-0.896,0.388-1.373,0.388H0.269C0.179,17.221,0,16.923,0,16.833v-1.671
		c0-0.269,0.269-0.448,0.447-0.567l0.508-0.09c1.104-0.298,2.268-0.687,3.312-0.895c0.119,0,1.074-0.179,1.164-0.179
		c0.179,0,0.567,0,0.567-0.269C5.999,12.953,5.819,11.103,5.61,10.983z M2.447,18.504c0,0,0.179-0.119,0.269-0.119h2.447
		c0.447-0.179,0.955-0.269,1.433-0.269c0,0.478-0.209,0.985-0.478,1.373c-0.567,1.045-1.164,1.552-2.447,1.552h-0.06
		c-0.12,0-0.329-0.12-0.329-0.12c-0.269-0.209-0.835-2.029-0.835-2.328V18.504z M7.372,8.954c0.895,0,1.671-0.119,2.566-0.179
		c0.179,0,0.06-0.328,0.06-0.328c0-0.687-0.06-1.283-0.179-1.851c0-0.089-0.09-0.089-0.209-0.089h-0.18
		c-0.507,0-1.671,0.089-1.671,0.089L7.372,6.984V8.954z M7.76,13.162c0.119,0,0.567-0.12,0.687-0.12
		c0.089,0,0.478-0.089,0.597-0.089c0.388,0,1.074,0.089,1.074-0.507v-0.179c0-0.209-0.119-1.373-0.119-1.552
		c0-0.209-0.06-0.329-0.269-0.329c-0.896,0-1.402,0.209-2.179,0.329l-0.06,0.179v0.597C7.491,11.938,7.372,12.774,7.76,13.162z
		 M8.715,20.653v-0.209c0.209-0.687,0.388-1.164,0.388-1.851c0-0.388-0.179-0.776-0.179-1.164c0-0.507,0.388-0.716,0.806-0.716
		c0.656,0,1.254,0.209,1.433,0.895v1.373c0,0.179-0.179,0.896-0.179,0.955l-0.09,0.12c-0.119,0.089-0.508,0.597-0.567,0.656
		l-0.388,0.388c0,0-0.508,0.209-0.717,0.328H9.103L8.924,21.31C8.924,21.221,8.715,20.713,8.715,20.653z M11.49,12.655
		c0.388,0,2,0,2.119-0.209l0.209-0.507c0.179-0.448,0.179-0.836,0.179-1.343v-0.478l-0.119-0.12c-0.06,0-0.775,0.12-0.955,0.12
		h-0.269c-0.328,0-1.104,0.209-1.104,0.209l-0.06,0.179V12.655z M11.669,8.655h0.09c0,0,0.389-0.09,0.508-0.09h0.566
		c0.209,0,1.045-0.119,1.254-0.119c0-0.119,0.119-0.776,0.119-0.896c0-0.388-0.119-1.224-0.119-1.224l-0.09-0.119h-0.298
		c-0.657,0-1.373,0.119-2.03,0.179c0,0.329-0.119,1.493-0.119,1.761v0.119C11.55,8.327,11.669,8.565,11.669,8.655z M14.654,18.594
		V17.34c-0.06-0.179-0.269-0.626-0.269-0.895l0.089-0.12h0.508c1.343,0,1.433,0.835,1.433,2.06c0,0.388,0.119,1.104-0.209,1.373
		c-0.06,0.12-0.656,0.687-0.776,0.776h-0.179c-0.478,0-0.597-0.388-0.656-0.776c0-0.209-0.12-0.597-0.12-0.597
		C14.475,19.102,14.654,18.713,14.654,18.594z M15.251,12.535c0.687,0,1.283-0.089,1.94-0.089c0.417-0.179,0.626-1.851,0.626-2.328
		V9.819l-0.119-0.09c-0.09,0-0.388,0.09-0.507,0.09c-0.209,0-1.373,0.119-1.553,0.119c-0.089,0-0.478,2.119-0.597,2.507
		C15.042,12.535,15.161,12.535,15.251,12.535z M15.938,8.446l0.209-0.119c0.06,0,0.656-0.06,0.776-0.06
		c0.179,0,1.074-0.119,1.074-0.209l0.089-0.507l0.12-0.388V6.715c0-0.209-0.209-0.716-0.209-0.716h-2.06
		c-0.388,0-0.299,0.597-0.299,0.776L15.55,7.163v0.328c0,0.06,0.089,0.657,0.089,0.776C15.759,8.327,15.818,8.446,15.938,8.446z
		 M20.026,17.43l0.299,0.119l0.209,0.179c0,0,0.179,0.089,0.269,0.089c0.775,0.12,1.671,0.12,2.447,0.12l0.179,0.06
		c-0.179,0.328-0.299,0.776-0.388,1.164c-0.299,0.776-1.164,1.164-1.94,1.164c-0.687,0-1.343-0.269-1.671-0.955l-0.06-0.269
		c-0.329-0.896-0.896-1.493-0.896-2.448C19.041,16.654,19.549,17.161,20.026,17.43z"/>
	<path d="M45.091,20.235c-2.597,0-5.253,0.388-7.879,0.776c-0.389,0.119-0.776,0.209-1.164,0.388
		c-0.478,0.209-0.985,0.209-1.433,0.388c0,0-0.598,0.328-0.776,0.388c-0.209,0.119-1.283,0.716-1.492,0.776
		c-0.18,0.328-1.074,0.716-1.463,0.716c-0.656,0-0.656-1.284-0.656-1.552c0-0.507,0.179-0.985,0.567-1.283
		c0.208-0.089,0.895-0.209,1.163-0.209c0.717-0.06,1.373-0.179,2.06-0.269c0.209,0,1.045-0.239,1.164-0.239l0.269-0.06
		c0.12,0,1.283-0.12,1.373-0.12c1.164-0.089,2.328-0.388,3.522-0.478h0.269c0.209,0,0.984-0.119,1.164-0.119
		c0.328-0.269,0.597-0.448,0.597-0.955v-0.209c0,0-0.269-0.06-0.388-0.06h-0.09c-0.955,0.06-2.06,0.179-3.015,0.388
		c-0.597,0.06-1.104,0.269-1.671,0.388l-0.27,0.06h-0.328c-0.06,0-0.179-0.179-0.179-0.179v-1.044c0,0,0.179-0.209,0.298-0.209
		c0.209-0.119,0.657-0.298,0.657-0.298h1.552c0.209-0.209,0.627-0.09,0.836-0.09c0.06,0,1.224-0.119,1.343-0.119h0.657
		c0.388,0,0.716-0.448,0.716-0.836l-0.119-0.208h-2.418c-0.507,0-1.79,0.208-1.79,0.208l-0.448,0.448H37.6
		c-0.388,0-0.657-0.656-0.657-0.955V15.58c0.18-0.687,0.389-1.373,0.389-2.149c-0.119-0.388-0.119-0.985-0.389-1.373
		c-0.209-0.269-0.716-0.567-0.716-1.044h2.06c0.478,0,0.865-0.209,1.373-0.298c2.895-0.388,5.939-0.388,8.953-0.478
		c0-0.12,0.209-0.12,0.269-0.12h0.12c0.209,0.12,0.865,0.388,0.984,0.507c0.18,0.09,0.18,0.179,0.18,0.388
		c0,0.567-0.508,0.776-0.687,1.253c-0.269,0.776-0.598,1.462-0.657,2.417c-0.328,0.209-0.716,0.985-0.984,0.985
		c-0.299,0-0.508-0.089-0.806-0.089h-0.269c-0.12,0-0.776,0.089-0.896,0.089h-0.389c-0.597,0-1.761-0.089-1.761,0.776
		c0,0.179,0,0.298,0.328,0.388h0.776c1.164,0,2.328-0.269,3.611-0.269h0.388c0.269,0.06,0.18,0.388,0.18,0.448v0.328l-0.567,0.567
		h-0.985c-0.507,0-2.745,0.089-3.223,0.089c-0.389,0-0.567,0.298-0.567,0.687v0.269c0.06,0.119,0.388,0.209,0.447,0.209h1.104
		c1.164,0,2.328-0.209,3.492-0.209h4.179c0.089,0,0.865-0.06,0.984-0.06c0.269,0,1.463-0.12,1.731-0.12l0.119-0.089h0.657
		c0,0.388-0.09,0.865-0.269,1.253c-1.075,0.806-2.358,1.403-3.731,1.403h-0.06c-0.896-0.209-1.88-0.507-2.716-0.716
		c-0.985-0.179-2.06-0.179-3.044-0.269c-0.12,0-0.896-0.12-0.955-0.12H45.091z M31.779,9.729c-0.328-0.298-0.328-1.164-0.328-1.552
		c0-0.388,0.447-0.687,0.627-1.075c0.209-0.269,0.269-0.776,0.478-1.044c0.179-0.328,0.687-0.597,0.955-0.776
		c0.119-0.12,0.328-0.239,0.328-0.239c0.06,0,0.656-0.09,0.776-0.09c0.388-0.119,0.775-0.179,1.163-0.298
		c0.955-0.209,1.94-0.269,2.896-0.388c0.209,0,1.492-0.089,1.672-0.089c0.089,0,0.597-0.119,0.656-0.119
		c0.209,0,1.104-0.179,1.164-0.388c0-0.06,0.209-0.776,0.209-0.836V1.94l-0.09-0.09l-0.388-0.567V0.507
		C42.106,0.298,42.285,0,42.554,0h0.209l0.119,0.119c0.061,0.06,0.836,0.388,0.955,0.448c0.269,0.12,0.389,0.209,0.389,0.507
		c0,0.388-0.12,0.657-0.18,1.045c0,0.119-0.119,0.597-0.119,0.716V3.79l0.179,0.209h0.717c0.06,0,0.567-0.119,0.656-0.119
		c0.18,0,1.553,0.119,1.791,0.119c0.06,0,0.567-0.119,0.656-0.119h0.12c0.179,0,1.82,0.119,1.999,0.119
		c1.493,0,2.717-0.119,3.82,0.955c0,0,0.18,0.209,0.18,0.329c0.089,0.269,0.478,1.044,0.478,1.164v0.567
		c-0.209,0.985-0.657,1.552-1.433,2.149l-0.209,0.06h-0.119l-0.061-0.179l-0.328-0.089c-0.388-0.179-0.388-0.567-0.388-0.955
		c0-0.507,0.119-0.985,0.119-1.552V5.73c-0.298-0.179-0.507-0.269-0.896-0.269c-0.388-0.12-1.552-0.179-1.611-0.179h-5.552
		c-0.209,0.06-0.209,0.06-0.388,0.06c-0.209,0-0.328-0.06-0.388-0.06c-0.598,0-0.985,0.269-1.492,0.269h-1.045
		c-0.896,0-1.672,0.298-2.447,0.388c-0.119,0-0.776,0.119-0.896,0.119c-0.06,0-1.045,0.179-1.343,0.269
		c-0.209,0-1.045,0.298-1.164,0.298c-0.598,0.209-0.985,0.388-1.045,0.985c0,0.06-0.209,1.045-0.209,1.164
		c0,0.06-0.179,0.657-0.179,0.776l-0.12,0.179c-0.089,0.09-0.597,0.597-0.656,0.687h-0.328l-0.18-0.298L31.779,9.729z
		 M34.495,25.011c-0.089,0-0.269,0-0.269-0.179c0.389-0.388,0.836-0.896,1.224-1.164c0.328-0.329,0.717-0.507,0.985-0.776
		c0.298-0.388,0.119-0.597,0.687-0.716h0.09c0.388,0,1.163,0.388,1.163,0.776c0,0.328,0,0.716-0.269,0.895
		c0,0-0.716,0.388-0.984,0.597c-0.18,0.06-0.687,0.388-0.687,0.388c-0.478,0.179-1.045,0.06-1.552,0.06l-0.269,0.119H34.495z
		 M35.003,2.895c-0.119,0-0.388-0.269-0.508-0.269v-0.12l0.12-0.06c0.06,0,0.656-0.209,0.775-0.209l1.552-0.567
		c0.27-0.209,0.448-0.329,0.836-0.329h0.209c0.119,0.12,0.687,0.716,0.776,0.776c0.119,0.208,0.119,0.328,0.119,0.507
		c0,0,0.06,0.388-0.119,0.388c-0.597,0.209-1.164,0.209-1.761,0.209c-0.776,0-1.225,0-1.94-0.209L35.003,2.895z M47.448,7.879
		c-0.507,0.567-0.806,1.731-1.671,1.731c-0.388,0-0.776-0.06-1.283-0.06c-1.344,0-2.597,0.269-3.94,0.388
		c-0.328,0.299-0.775,0.299-1.283,0.299c-0.119,0-0.209,0.089-0.328-0.12c-0.06-0.179-0.179-0.567-0.179-0.776
		c0-0.388,0.179-0.776,0.179-1.164V7.999l-0.567-0.597V7.014c0-0.119,0.299-0.388,0.389-0.388h0.179c0.209,0,0.388,0,0.508,0.09
		h0.597c0.955,0,2.06-0.209,3.015-0.269c1.253-0.12,2.537-0.12,3.761-0.12h0.896c0,0,0.328,0.12,0.328,0.179v0.716l-0.12,0.06
		L47.448,7.879z M42.375,13.729c0,0-0.985,0.089-1.373,0.089c-0.656,0.09-1.552,0.09-2.238,0.299c-0.09,0-0.209,0.089-0.209,0.089
		v0.687c0,0.089,0.328,0.269,0.388,0.269h0.119c0.717-0.089,1.553-0.089,2.269-0.269l0.269-0.209h0.776
		c0.179-0.089,0.179-0.478,0.179-0.687v-0.179L42.375,13.729z M38.674,12.744c0,0.089,0.209,0.388,0.269,0.388h0.209l0.418-0.09
		c0.09,0,1.045-0.089,1.164-0.089l0.388-0.12c0.597-0.089,1.373,0.12,1.373-0.776c0,0,0-0.388-0.119-0.388h-1.761
		c-0.448,0.208-1.94,0.119-1.94,0.985V12.744z M40.823,21.608l1.283,0.567v2.656l-0.508,0.567h-0.984l-0.061-0.12
		c-0.119-0.179-0.328-0.835-0.328-0.835v-2.537c0-0.119,0.389-0.298,0.508-0.298H40.823z M44.046,7.61
		c-0.119,0-0.507,0.06-0.597,0.06c-0.955,0.119-1.851,0.328-2.835,0.328c-0.061,0.06-0.061,0.269-0.061,0.448
		c0,0.119,0,0.328,0.18,0.388h0.865c0.119,0,0.389-0.06,0.508-0.06c1.044-0.119,2.119-0.119,3.163-0.328
		c0.389-0.06,0.508-0.567,0.508-0.836H44.046z M43.658,14.386c0,0.119,0.269,0.298,0.388,0.298h1.612
		c0.328,0,1.373-0.179,1.671-0.179c0.209-0.209,0.328-0.985,0.328-1.283c-1.015,0-2.059,0.119-3.044,0.298
		c-0.119,0-0.687,0.09-0.776,0.09c0,0.119-0.179,0.597-0.179,0.686V14.386z M47.718,11.282c-1.164,0.119-2.448,0.119-3.612,0.209
		c-0.179,0.089-0.179,0.478-0.179,0.687c0,0.269,0.179,0.388,0.508,0.388c0.656,0,1.224-0.119,1.939-0.119
		c0.389,0,0.657,0.119,0.955,0.298c0.119,0.089,0.328,0.209,0.328,0.209c0.269,0,0.389-1.075,0.389-1.373v-0.179L47.718,11.282z
		 M44.435,23.847c-0.209-0.567-0.329-1.283-0.329-1.85c0-0.269,0.12-0.597,0.508-0.597h0.09c0.775,0.209,0.955,0.388,0.955,1.284
		c0,0.388,0,1.94-0.448,1.94c-0.209,0-0.507,0-0.597-0.179L44.435,23.847z M47.718,2.716c-0.567,0-0.955-0.388-0.955-0.985
		c0-0.388,0-0.388,0.06-0.776c0-0.06,0.119-0.269,0.119-0.269h2.537c0.119,0,0.775-0.299,0.896-0.299h0.06l0.209,0.179
		c0,0.597-0.389,1.373-0.866,1.671c-0.119,0-0.775,0.269-0.896,0.269l-0.179,0.12c0,0-0.656,0.089-0.865,0.089H47.718z
		 M48.881,24.056c-0.06-0.119-0.269-0.716-0.388-0.776c-0.06-0.328-0.388-0.776-0.388-0.985c0-0.119,0-0.179,0.209-0.298h0.687
		l0.388,0.298c0.09,0.089,0.478,0.269,0.597,0.388c0.389,0.269,0.657,0.478,1.045,0.776c0.508,0.388,1.283,0.478,1.283,1.164v0.269
		c0,0.119-0.328,0.328-0.388,0.328c-0.209,0-0.896,0.06-1.104,0.06l-0.269,0.12h-0.119c-0.18,0-0.18,0-0.389-0.12
		c-0.179-0.06-0.566-0.269-0.566-0.269c-0.09-0.119-0.389-0.776-0.478-0.895L48.881,24.056z"/>
	<path d="M65.799,22.563c0-0.179,0.179-1.94,0.179-2.119c0-0.388-0.119-2.328-0.119-2.716c-1.045,1.164-3.373,2.835-5.044,2.835
		h-0.567c-0.507-0.329-0.597-0.776-0.597-1.403c0-0.269,0-0.478,0.209-0.776c0,0,0.09-0.09,0.179-0.09
		c0.389,0,0.776,0.09,1.164,0.09c1.373,0,2.836-0.597,3.88-1.433c0.508-0.388,0.776-0.507,0.776-1.284v-0.388l-0.06-0.09h-0.328
		c-0.776,0-1.612,0.209-2.388,0.388c-0.389,0.089-0.776,0.269-1.164,0.269c-0.389,0-0.717,0-0.717-0.448
		c0-0.328,0.09-0.716,0.389-0.806l0.507-0.09c0.388-0.119,0.657-0.209,1.045-0.298c0.119,0,0.775-0.209,0.984-0.209
		c0.12,0,0.567-0.089,0.687-0.089c0.09,0,1.164-0.298,1.164-0.478v-0.985h-0.775c-0.687,0.119-1.284,0.298-1.94,0.298h-0.507
		c-0.061-0.089-0.27-0.298-0.389-0.388c0-0.179,0.209-0.388,0.328-0.478c1.045-0.089,2.119-0.388,3.164-0.686
		c0-0.09,0.119-0.687,0.119-0.806c0-0.06-0.119-0.269-0.119-0.269h-0.447c-0.717,0-1.284,0.269-1.94,0.269h-0.508
		c-0.208-0.06-0.208-0.269-0.208-0.388c0-1.044,1.492-0.835,2.148-0.955c0.388-0.089,0.896-0.089,0.896-0.597
		c0-0.179-0.119-0.448-0.119-0.657V7.67c0-0.06,0.179-0.269,0.298-0.269l0.389-0.12l0.089-0.06h0.299
		c0.09,0,0.656,0.269,0.776,0.388c0,0,0.089,0.179,0.089,0.269c0,0.119-0.089,0.507-0.089,0.507v0.06l0.089,0.119h1.851
		c0,0,0.388,0.09,0.508,0.209l0.089,0.06v0.119c-0.089,0.209-0.269,0.597-0.597,0.597c-0.06,0-1.283,0.179-1.343,0.179
		c-0.12,0-0.508,0.09-0.508,0.09c-0.089,0-0.209,0.179-0.209,0.179v1.015h1.164c0.119,0,0.508,0.089,0.597,0.089
		c0,0,0.239,0.09,0.239,0.179v0.119c-0.239,0.657-2,0.657-2,0.955v0.985h2.06c0,0,0.209,0.179,0.209,0.269
		c0,0.119,0.119,0.208,0.119,0.208s-0.209,0.179-0.328,0.299c-0.687,0.567-1.074,0.478-1.851,0.776c-0.089,0-0.209,0.12-0.209,0.12
		v0.835c0.12,0,0.508,0.328,0.597,0.328l0.299,0.179c0.597,0.269,1.881,0.597,1.881,1.433c-0.209,0.388-0.896,0.328-1.284,0.328
		c-0.597,0-1.283-0.776-1.671-0.776v6.208c0,0.507-0.478,0.507-0.776,0.507h-0.388c-0.209-0.388-0.269-0.895-0.269-1.373V22.563z
		 M66.844,5.044c-0.478,0-1.045,0.119-1.553,0.179c-0.209,0-1.253,0.508-1.433,0.508H63.53c-0.388,0-0.775,0-0.775-0.388
		c0-0.298,0.328-1.343,0.597-1.462c0.119,0,0.566-0.09,0.687-0.09l0.388-0.119c0.09,0,1.164-0.06,1.254-0.06l0.388-0.12
		c0.179,0,0.687,0.12,0.687-0.209c0-0.388-0.299-0.567-0.299-0.835c0-0.328,0.508-0.388,0.567-0.507
		c0.328-0.09,0.508-0.209,0.776-0.209c0.119,0,0.895,0.119,0.895,0.209v1.283c0.985,0.06,2.06-0.119,2.926,0.448
		c0.119,0.119,0.179,0.328,0.179,0.328L71.41,4.387c-0.836,0-1.553,0.179-2.448,0.269c-0.06,0.12-0.179,0.507-0.179,0.567
		c0,0.388,0.299,1.015,0.299,1.403c0,0.269-0.389,0.269-0.567,0.269c-0.716,0-0.776-1.463-1.283-1.851H66.844z M70.365,10.506
		l0.09-0.179l0.119-0.507l0.06-0.09c0.896-0.507,1.88-0.687,2.148-1.731h0.299c0.478,0,0.985,0.269,0.985,0.836
		c0.06,0,0.447,0.119,0.566,0.119c0.09,0,0.389,0.209,0.478,0.209c0.12,0,0.508,0.269,0.508,0.388c0,0.567-1.164,0.656-1.492,0.656
		c-0.389,0-0.776-0.089-1.045-0.209l-0.119-0.06h-0.18c-0.388,0-0.656,0.269-0.984,0.448c-0.06,0.12-0.776,0.507-0.955,0.627h-0.09
		c-0.179,0-0.388,0-0.388-0.298V10.506z M70.962,14.684c-0.119-0.089-0.119-0.179-0.119-0.388c0-0.776,0.567-0.776,1.164-1.164
		l0.119-0.09l0.269-0.089c0.119-0.12,0.508-0.507,0.567-0.597c0.209-0.298-0.06-0.478,0.328-0.686h0.388
		c0.269,0,1.045,0,0.955,0.507l-0.179,0.388v0.09c0,0.179,1.224,0.179,1.224,0.567v0.119c-0.06,0.09-0.269,0.567-0.388,0.567
		c-0.06,0.089-0.389,0.089-0.567,0.089h-0.09l-0.955-0.478h-0.119c-0.776,0.388-1.433,1.164-2.328,1.164H70.962z M77.946,21.608
		c-0.209,0-2.149,0.179-2.328,0.179c-0.985,0.119-1.881,0.597-2.836,0.597c-0.477,0-0.597-0.388-0.597-0.776
		c0-0.269,0.12-0.478,0.209-0.776c0.18-0.478,0.299-1.044,0.299-1.671c0-0.478,0-1.045-0.299-1.433
		c-0.089-0.12-0.597-0.597-0.656-0.716c-0.119-0.179-0.209-0.179-0.209-0.388c0-0.179,0.388-0.567,0.597-0.567h0.567
		c0.269,0,1.761-0.209,2.148-0.209c0.776-0.06,1.553-0.269,2.328-0.269c0,0,2.627-0.12,3.671-0.12h0.12
		c0.388,0,0.984,0.209,0.984,0.716v0.269c-0.119,0.388-0.388,0.776-0.507,1.164c-0.09,0.179-0.209,0.896-0.209,0.955v1.224
		l-0.06,0.388c0,0.06,0.06,0.179,0.179,0.179v0.776c0,0.09-0.179,0.269-0.299,0.388c-0.209,0.209-0.597,0.089-0.775,0.089
		l-0.269,0.12h-0.508c-0.478,0-0.865-0.12-1.373-0.12H77.946z M75.618,6.059c0.179-0.507,0.388-0.836,0.388-1.283
		c0-0.12,0-0.329-0.119-0.329h-0.09c-0.179,0-1.343,0.209-1.552,0.209h-0.179c-0.389,0-0.776-0.089-0.776-0.597
		c0-1.224,3.104-0.388,3.104-1.224c0-0.328-0.12-0.597-0.12-0.895c0-0.09,0-0.09,0.12-0.209c0.179-0.06,0.687-0.388,0.775-0.388
		h0.18c0.328,0,0.775,0.12,1.104,0.209c0.06,0,0.269,0.179,0.269,0.298v0.269c0,0.388-0.209,0.388-0.209,0.716h2.836
		c0.209,0,0.656,0.388,0.656,0.567c0,0.776-0.955,0.776-1.433,0.865c-0.179,0-0.955,0.12-1.074,0.12h-1.373
		c-0.179,0.06-0.179,0.388-0.269,0.567c-0.388,0.776-0.687,1.373-1.582,1.373h-0.478l-0.179-0.209V6.059z M73.946,17.729l0.12,0.388
		h0.179c1.433,0,3.044-0.328,4.477-0.388c0.299,0,0.687,0.06,0.955-0.12l0.12-0.208v-0.836c-0.12,0-0.508-0.119-0.567-0.119h-0.508
		c-1.552,0-3.312-0.09-4.864,0.507V17.4L73.946,17.729z M74.126,20.624h0.328c0.955,0,1.94-0.179,2.896-0.269h0.716l0.179-0.12
		c0.209,0,0.985-0.06,1.164-0.06l0.09-0.119c0,0,0.119-0.776,0.119-1.104v-0.06h-3.611c-0.597,0.06-1.283,0.06-1.88,0.388
		l-0.06,0.06v1.224L74.126,20.624z M79.408,9.222c-0.566,0-1.462,0.716-2.059,0.716c-0.269,0-0.508-0.119-0.508-0.507
		c0-0.776,1.104-0.657,1.611-1.044c0.06-0.12,0.448-0.507,0.567-0.597c0.209-0.298,0.09-0.567,0.597-0.567
		c0.269,0,0.776,0.179,0.776,0.448c0,0.209,0,0.328-0.119,0.388c0.388,0.209,0.775,0.209,1.164,0.329l0.179,0.06
		c0.119,0,0.776,0.328,0.896,0.328c0.209,0.06,0.209,0.179,0.209,0.269c0,0.687-0.776,0.687-1.283,0.687
		c-0.389,0-0.657,0-1.045-0.119c-0.119,0-0.776-0.388-0.896-0.388H79.408z M86.721,14.207c0,0.567-0.328,0.567-0.716,0.806
		c-0.06,0-0.567,0.269-0.657,0.269C84.96,15.4,84.273,15.4,83.886,15.4c-0.985,0-1.492-0.716-2.149-1.194
		c-0.179-0.089-0.955-0.687-1.164-0.776c-0.298-0.209-0.566-0.388-0.896-0.388c-0.388,0-1.224,0.776-1.611,1.075l-0.209,0.089
		c-0.388,0-0.775-0.209-1.015-0.478c0.239-0.388,0.447-0.597,0.716-0.896l0.687-0.478c0.598-0.686,0.269-1.343,1.373-1.343
		c0.269,0,0.836,0,0.836,0.388v0.657l0.119,0.12c0.478,0.179,0.776,0.269,1.254,0.478c0.567,0.179,1.074,0.478,1.671,0.686
		c1.045,0.388,2.06,0.567,3.224,0.657V14.207z"/>
</g>
</svg>
