<?xml version="1.0" encoding="utf-8"?>
<!-- Generator: Adobe Illustrator 17.0.0, SVG Export Plug-In . SVG Version: 6.00 Build 0)  -->
<!DOCTYPE svg PUBLIC "-//W3C//DTD SVG 1.1//EN" "http://www.w3.org/Graphics/SVG/1.1/DTD/svg11.dtd">
<svg version="1.1" id="Layer_1" xmlns="http://www.w3.org/2000/svg" xmlns:xlink="http://www.w3.org/1999/xlink" x="0px" y="0px"
	 width="110.153px" height="22.74px" viewBox="0 0 110.153 22.74" enable-background="new 0 0 110.153 22.74" xml:space="preserve">
<g>
	<path d="M0,15.86c0-0.388,0.388-0.597,0.597-0.895c1.283-1.552,1.343-2.925,1.552-4.955c0-0.09,0.12-0.776,0.12-0.896V8.518
		c0-0.388,0-0.835-0.209-1.224C1.88,6.966,1.671,6.787,1.671,6.399c0-0.269,0.597-0.985,0.866-1.104c0.119,0,0.776-0.06,0.896-0.06
		C4.597,5.026,5.76,4.847,6.984,4.847c0.388,0,0.776,0,1.104,0.269c0.179,0.12,0.567,0.627,0.567,0.627v0.269
		c0,0.507-0.179,0.687-0.388,1.074C7.76,8.13,7.879,9.414,7.879,10.488v1.164c0,0.985,0.209,1.88,0.209,2.835
		c0,0.478-0.119,1.552-0.716,1.641c-0.179,0-0.567-0.597-0.657-0.656H6.208c-1.164,0-2.597,0.448-3.671,0.955
		c-0.776,0.269-1.164,1.164-2.06,1.164c-0.089,0-0.269-0.06-0.388-0.06L0,17.413V15.86z M5.939,11.264c0,0-0.687,0.209-0.955,0.298
		c-0.328,0.09-1.373,0.298-1.492,0.478c-0.179,0.298-0.179,0.687-0.269,1.075c-0.12,0.418-0.179,0.865-0.179,1.253
		c1.044,0,2.208-0.269,3.283-0.388c0.269-0.388,0.209-0.865,0.209-1.253c0-0.597,0-0.866-0.209-1.462H5.939z M6.715,6.31
		c-0.776,0-1.552,0.09-2.328,0.269L3.88,6.698L3.82,7.175C3.492,8.13,3.492,9.115,3.492,10.1c0.328,0,0.896-0.089,1.283-0.179
		c0,0,0.388-0.119,0.478-0.119h0.687c0.09,0,0.269-0.089,0.388-0.179c0.089-0.896,0.269-1.552,0.269-2.447l0.119-0.209V6.31z
		 M15.849,8.727c-1.821,0.299-3.492,0.806-5.253,1.463c-0.567,0-0.955-0.388-0.955-0.866s0.298-1.075,0.687-1.373
		c0.089,0,0.776-0.089,0.865-0.089c0.179,0,0.955-0.12,1.075-0.12c0.388,0,3.104-0.179,3.193-0.448c0-0.209,0.12-0.985,0.12-1.164
		V5.743h-0.985c-0.776,0.06-1.552,0.269-2.328,0.269H11.7c-0.388-0.089-0.507-0.209-0.507-0.597c0-0.388,0.12-0.508,0.388-0.776
		c0.388-0.507,0.507-0.687,1.164-0.687c0.298,0,0.507,0,0.686,0.12h2.03V3.295c0-0.388-0.388-0.597-0.388-1.104
		c0.12-0.448,0.508-0.776,0.955-0.776c0.716,0,1.493,0.388,1.493,1.104c0,0.388-0.209,0.567-0.209,0.836v0.716h2.268
		c0.06,0,0.776-0.12,0.836-0.12h0.507l0.089,0.12c0.299,0.06,0.687,0.06,0.687,0.448c0,0.716-1.552,1.015-2.119,1.015h-1.492
		c-0.06,0-0.657,0.089-0.776,0.089c-0.269,0.12-0.269,1.343-0.269,1.552c0,0.179,0.089,0.179,0.388,0.179
		c1.164,0,2.328-0.269,3.492-0.269l0.269,0.09c0.12,0,1.104-0.09,1.164-0.09h0.119c0.866,0.09,1.821,0.09,2.716,0.209
		c0,0,0.328,0.06,0.328,0.179c0,0-0.119,0.089-0.119,0.209c-0.478,0.835-1.284,1.642-2.269,1.642c-0.388,0-0.835-0.089-1.224-0.209
		c-0.328-0.089-0.597-0.269-0.896-0.388c-0.597-0.209-1.253-0.089-1.82-0.209l-0.388-0.06h-0.507l-0.269,0.06h-0.985
		c0,0-0.507,0.12-0.687,0.12L15.849,8.727z M16.923,20.427c-0.507-0.179-2.119-0.776-2.119-1.283c0-0.06,0-0.179,0.179-0.179
		c0.269,0,1.94-0.209,2.268-0.209c0.567-0.06,1.224-0.388,1.552-0.955v-3.044c0-0.388-0.209-2.328-0.209-2.716H17.52
		c-0.09,0-0.657,0.09-0.776,0.09c-1.373,0.119-2.656,0.208-3.88,0.597c-0.119,0-0.388,0.179-0.507,0.179
		c-0.089,0-1.044,0.418-1.164,0.418l-0.209,0.089h-0.06c-0.209,0-0.507-0.209-0.597-0.388v-0.687c0,0,0.089-0.298,0.208-0.388
		c0.06-0.209,0.179-0.388,0.388-0.388c0.955-0.209,1.94-0.298,2.895-0.388c0.269,0,1.044,0,1.373-0.209l3.402-0.269
		c0,0,0.089-0.12,0.089-0.209c0,0,0.12-0.179,0.12-0.298l0.06-0.388c0.12-0.089,0.388-0.388,0.507-0.388c0,0,0.388,0.12,0.478,0.209
		l0.508,0.388c0,0,0.179,0.298,0.179,0.388l0.09,0.388c0,0,0.388,0.089,0.507,0.089c0.06,0,0.567-0.089,0.657-0.089h0.119
		c0.06,0,1.552,0,1.552,0.298v0.567c0,0-0.328,0.298-0.388,0.388c-0.12,0.09-0.388,0.298-0.597,0.298h-2.059
		c0,0-0.179,0.388-0.179,0.567c0,0.119-0.089,1.194-0.089,1.582v0.269c0,1.104,0.269,1.94,0.269,3.044
		c0,1.164-0.657,3.224-2.119,3.224h-0.209c-0.06,0-0.657-0.507-0.776-0.507L16.923,20.427z M11.312,14.965
		c0.06-0.09,0.179-0.269,0.388-0.269c0.567,0,1.552,0,2.208-0.119c0.776-0.089,1.851-0.657,2.507-0.657c0,0.179,0,0.448-0.179,0.657
		c-0.089,0.119-0.478,0.507-0.597,0.567c-0.06,0.12-0.448,0.329-0.567,0.388c-0.089,0.119-0.865,0.388-0.985,0.507
		c0,0-0.179,0.209-0.269,0.209c-0.179,0.179-1.462,0.657-1.731,0.657c-0.12,0-0.328,0-0.388-0.209
		c-0.119-0.06-0.388-0.567-0.388-0.657V14.965z"/>
	<path d="M31.811,17.8c0-0.089,0.119-0.388,0.119-0.478v-0.567c0.06-2.268,0.179-4.417,0.269-6.656
		c0.12-1.194,0.298-2.238,0.298-3.402V6.011l-0.119-0.119c0,0-0.567,0.417-0.776,0.626l-1.164,1.164
		c-0.388,0.448-1.284,1.94-1.94,1.94c-0.507,0-0.507-0.716-0.507-0.985V8.339c0-0.388,0.208-1.045,0.328-1.373
		c0.06-0.388,0.657-0.567,0.835-0.776c0.985-0.896,1.552-1.94,1.88-3.224h0.179c0.209,0,0.209,0,0.388,0.209l0.716,0.687h0.06
		c0.388,0,0.776-0.179,1.164-0.298c0.716-0.209,1.552-0.388,2.328-0.597c0.12,0,0.597-0.06,0.717-0.06l0.179-0.12
		c0,0,0.478,0.12,0.597,0.179c0.179,0.12,0.179,0,0.179,0.209c0,0.179-0.12,0.298-0.299,0.507C36.586,4.46,35.69,4.34,34.825,4.728
		c-0.119,0-0.298,0.179-0.298,0.179l-0.09,0.508l-0.119,0.089c-0.567,1.015-0.776,2.059-0.836,3.134v0.269
		c0,0.12-0.119,0.507-0.119,0.597v6.238c0,0.179,0.119,1.791,0.119,1.97v1.373c-0.119,0.179-0.507,0.567-0.776,0.567
		c-0.209,0-0.209-0.119-0.388-0.179c-0.388-0.328-0.507-0.776-0.507-1.283V17.8z M48.524,15.92L47.3,14.488
		c-0.328-0.388-0.507-0.776-0.776-1.164l-0.119-0.12c-0.12-0.06-0.776-1.343-0.896-1.462l-0.09-0.089
		c-0.298-0.388-0.507-0.776-0.686-1.254l-0.09-0.089c-0.567-1.015-0.955-2.179-1.671-3.015h-0.567c-1.642,0-3.313,0.657-4.865,1.164
		c-0.388,0.06-1.075,0.448-1.343,0.448h-0.209c-0.567-0.06-1.075-0.179-1.075-0.835c0-0.12,0.179-0.388,0.179-0.508
		c0.12-0.208,2.149-0.597,2.448-0.656c0.089,0,0.656-0.209,0.776-0.209c0.776-0.179,1.671-0.507,2.447-0.627
		c0.269-0.06,0.985,0,1.253-0.269V5.683c0-0.448-0.656-0.567-0.656-1.045c0-0.179,0-0.179,0.06-0.298
		c0.119-0.089,0.597-0.269,0.597-0.269h1.075c0.478,0.269,0.597,1.552,1.253,1.552c0.119,0,0.298,0,0.298-0.119h1.552
		c0.089,0,0.597-0.089,0.716-0.089c0.06-0.12,0.388-0.567,0.388-0.687c0-0.209,0.06-1.045,0.06-1.254l0.209-0.179h0.388
		c0.687,0,0.955-0.209,1.283,0.447v0.12c-0.208,0.478-0.507,0.657-0.716,1.164v0.209h1.164c0.12,0,0.597-0.12,0.716-0.12h1.343
		c0.269,0.12,0.657,0.299,0.657,0.687c0,0.269-0.06,0.597-0.388,0.776c-1.94,0-4.059,0-5.999,0.12
		c-0.328,0.089-0.896,0.209-1.104,0.209c-0.06,0.06-0.06,0.179-0.06,0.388c0,0.179,0.06,0.388,0.179,0.657
		c0.388,0.896,0.865,1.761,1.492,2.537l0.179,0.298l0.269,0.478l0.328,0.298l0.179,0.298c0.09,0.09,0.269,0.388,0.269,0.388
		c0.209,0.179,1.164,1.164,1.373,1.343c0.896,0.896,2.06,1.283,3.224,1.671c0.567,0.209,1.224,0.209,1.94,0.388
		c0.089,0,0.776,0.269,0.865,0.269c0.298,0.119,1.94,0.328,1.94,0.716c0,0.179-0.298,0.567-0.478,0.687
		c-0.089,0.09-0.597,0.388-0.597,0.388c-0.09,0-0.567,0.089-0.657,0.089l-0.209,0.12c-0.865,0.269-1.85,0.448-2.805,0.448
		c-0.508,0-0.985,0-1.493-0.269c-0.179-0.179-0.269-0.299-0.567-0.388C50.017,17.413,48.853,16.249,48.524,15.92z"/>
	<path d="M74.797,19.517c-0.597-0.209-0.776-0.716-1.164-1.164c-0.478-0.507-0.657-0.716-0.657-1.373
		c0.657,0,1.433,0.089,2.208,0.089h0.687c0.478-0.269,0.985-0.269,1.492-0.597c0.388-0.179,0.776-0.896,0.955-1.283l0.776-1.552
		c0.478-0.955,0.776-1.94,1.254-2.895c0.119-0.209,0.388-0.507,0.507-0.716c0.179-0.388,0.388-0.835,0.656-1.224
		c0-0.12,0.508-0.388,0.508-0.507c0-0.12,0.06-0.388-0.209-0.507h-0.12c-1.044-0.09-2.119-0.269-3.164-0.269
		c-0.209,0-0.209,0-0.507,0.06l-1.164,1.224L76.648,9.07c-2.328,2.447-4.566,4.298-7.491,6.059c0,0-0.298,0.179-0.388,0.179
		l-0.687,0.388c-0.209,0.119-1.373,0.716-1.642,0.776c-1.283,0.597-2.626,1.164-3.999,1.164c-0.955,0-1.343-0.657-1.343-1.433
		v-0.507c0,0,0.388-0.687,0.448-0.955l0.119-0.12c1.284,0,2.537,0,3.701-0.269c0.179-0.119,0.507-0.209,0.687-0.328
		c3.492-1.224,7.193-3.611,9.7-6.328V7.578c0-0.06,0-0.179-0.06-0.179c-0.328,0-1.373-0.089-1.671-0.089l-0.388-0.12
		c-0.09,0-0.776-0.06-0.866-0.06c-0.12,0-0.507-0.209-0.567-0.328c-0.12-0.06-0.12-0.179-0.12-0.269c0-0.776,1.164-1.85,1.851-1.85
		h0.269c0.119,0,0.507,0.298,0.597,0.298l0.388,0.089c0.119,0,1.164,0.507,1.283,0.507c0.269,0.06,0.448,0.179,0.776,0.179
		c0.298,0,0.388-0.179,0.507-0.388c0.388-0.806,0.955-1.582,0.955-2.448c0-0.388-0.12-0.567-0.12-0.865
		c0-0.597,0.209-1.164,0.896-1.164c0.269,0,1.94,0.388,2.149,0.687c0,0,0.06,0.388,0.06,0.478v0.089
		c0,0.089-0.388,0.478-0.388,0.597c-0.388,0.657-0.657,1.254-1.045,1.94c-0.179,0.388-0.687,0.567-0.687,0.955
		c0,0.119,0,0.328,0.179,0.328h5.253c0,0,0.418,0.388,0.507,0.448l0.179,0.209V7.31l-0.388,0.388
		c-0.388,0.269-0.686,0.388-1.074,0.716l-0.089,0.06c-0.687,0.597-1.343,1.164-1.851,1.88c-0.776,1.045-1.254,2.119-1.642,3.283
		c-0.179,0.507-0.507,1.104-0.687,1.552c-0.478,1.224-0.866,2.268-1.433,3.432c-0.716,0.985-1.791,0.896-2.776,0.896H74.797z
		 M82.08,8.473c0.119,0,0.119-0.179,0-0.179C82.021,8.294,82.021,8.473,82.08,8.473z"/>
	<path d="M102.273,7.25h3.522c0.089,0,0.866,0.12,0.985,0.12c0.567,0,1.343-0.12,1.343,0.657v0.209
		c-0.12,0.089-0.567,0.567-0.687,0.686l-0.209,0.09c-1.044-0.09-2-0.298-3.104-0.388c-0.836-0.089-1.851-0.089-2.716-0.089h-0.388
		c-0.179,0-1.075,0.089-1.283,0.089c-0.179,0.09-0.179,0.298-0.179,0.478c0,0.298,0,0.388,0.119,0.597
		c1.612,0.089,3.403,0.089,5.044,0.089c0.508,0,1.075,0.388,1.075,0.866c0,0.507-0.507,1.104-0.687,1.552
		c0,0.12-0.209,0.507-0.209,0.597c0,0.119-0.06,0.776-0.06,0.895c0,0.06-0.12,0.269-0.12,0.269l-0.865,0.895
		c0,0-0.179,0.06-0.298,0.06c-0.657,0.208-1.284,0-1.94,0.119l-0.388,0.089h-0.716c-0.269,0-0.955,0.12-0.955,0.12l-0.09,0.06v0.896
		c1.821,0,3.612-0.12,5.432-0.12h0.716l0.179,0.12v0.089c0,0.298,0,0.239-0.179,0.418l-0.776,0.657h-4.119
		c-0.209,0-0.866,0.119-0.985,0.119c-0.179,0-0.06,0.388-0.06,0.388c0,0.209,0,0.478,0.179,0.597h6.924
		c0.179,0,1.552-0.119,1.94-0.119c0.448,0,0.955-0.209,1.433-0.209c0,0.328,0,0.776-0.089,1.104l-1.164,1.164
		c-0.567,0.448-1.283,0.448-1.94,0.448c-0.776,0-1.462-0.06-2.239-0.269c-0.089-0.179-1.373-0.298-1.552-0.507
		c-0.388,0-2.06-0.06-2.447-0.06h-1.821c-2.835,0-5.283,0.388-7.879,1.224c-0.209,0.119-0.687,0.328-0.896,0.388l-0.089,0.119
		l-0.179,0.089c-0.119,0.12-1.074,0.687-1.164,0.776l-0.209,0.119l-0.298-0.119c-0.567-0.209-0.776-0.269-0.776-0.985
		c0-0.388,0-0.657,0.209-0.955c0,0,0.179-0.209,0.298-0.209c1.433-0.776,3.194-0.657,4.746-0.955
		c0.776-0.209,1.462-0.269,2.238-0.388c0.955-0.209,1.851-0.388,2.835-0.478c0.388-0.179,0.269-0.776,0.269-1.164
		c-1.253,0-2.417,0.09-3.611,0.269c-0.865,0.12-1.642,0.716-2.507,0.716c-0.388,0-0.985-0.119-0.985-0.716
		c0-0.269,0.119-0.388,0.298-0.567c2.238-0.269,4.477-0.657,6.805-0.896c0.179-0.089,0.179-0.388,0.179-0.597
		c0-0.179,0-0.388-0.06-0.448h-1.761c-0.955,0.06-1.851,0.269-2.835,0.269h-0.687c-0.269-0.209-0.776-0.388-0.776-0.776
		c0-0.478,0.208-0.985,0.208-1.552c0-0.776-0.388-1.373-0.388-2.149v-0.388l0.179-0.269c0.597,0,0.985-0.119,1.552-0.208
		c1.582-0.299,2.955-0.209,4.566-0.299V9.578c0-0.657-0.179-0.776-0.835-0.776h-0.507c-0.09,0-0.776,0.119-0.866,0.119
		c-1.194,0.09-2.358,0.09-3.522,0.269l-2.328,0.597c-0.478,0.179-0.955,0.388-1.433,0.388c-0.507,0-0.895-0.09-0.895-0.597
		c0-0.269,0.119-0.865,0.388-0.955c0,0,0.388-0.089,0.507-0.089c0.478-0.12,1.642-0.298,1.731-0.298c0.089,0,1.164-0.09,1.253-0.09
		c0.597-0.119,1.283-0.209,1.851-0.298c0.208,0,0.776-0.089,0.865-0.089 M95.999,6.333c-0.687,0.12-1.295,0.388-1.903,0.388
		c-0.608,0-0.846-0.269-0.846-0.896c0-0.448,0.079-0.955,0.079-1.433c0-0.955-0.343-1.671-1.03-2.328V1.498
		c0-0.119,0.264-0.388,0.343-0.388c0.687,0,1.375-0.208,1.982-0.328c0.767-0.179,1.639-0.269,2.405-0.388
		c0.264,0,1.031-0.179,1.19-0.179l0.291-0.09h0.582c0.264,0,2.564-0.119,2.854-0.119h1.031c0.846,0,2.062-0.12,2.749,0.716
		c0.159,0.179,0.106,0.448,0.106,0.657c0,0.776-0.291,0.895-0.635,1.462c-0.158,0.388-0.396,0.985-0.502,1.433
		c-0.185,0.507-0.185,1.104-0.582,1.373l-0.449,0.119l-0.238,0.06c-1.242,0-2.511,0-3.727,0.12 M101.602,2.274
		c0.158,0,0.343,0.06,0.343,0.269c0,0.388-0.185,0.567-0.449,0.776c-0.687,0.179-1.454,0.179-2.141,0.298
		c-0.687,0.089-1.295,0.209-1.982,0.269c-0.08,0-1.031,0.12-1.11,0.12c-0.106,0-0.502,0.089-0.713,0.209
		c-0.159,0-0.502,0.179-0.502,0.179c-0.185,0.209-0.264,0.776-0.264,0.985c0.687,0,1.322-0.119,2.009-0.208
		c1.189-0.179,2.405-0.179,3.595-0.299h0.423c0.106,0,0.343-0.089,0.449-0.089c0.238,0,1.374-0.12,1.639-0.12l0.185-0.179
		c0.344-0.866,0.502-1.761,0.74-2.597l0.106-0.209V1.498c0-0.209,0-0.328-0.158-0.328c-0.106,0-0.793-0.06-1.031-0.06h-0.185
		c-0.106,0-0.608,0.06-0.713,0.06h-0.925c-1.216,0-2.405,0.209-3.621,0.328c-0.449,0.06-0.846,0.179-1.295,0.269
		c-0.344,0.12-0.793,0.12-1.136,0.298c-0.159,0.09-0.159,0.209-0.159,0.388c0,0.269,0.079,0.776,0.423,0.776
		c0.423,0,0.872-0.119,1.321-0.179c0.687-0.12,1.427-0.329,2.114-0.388c0.978-0.209,1.903-0.328,2.855-0.388H101.602z
		 M93.827,14.353c0,0,0.089,0.179,0.179,0.179h0.298c0.089,0,0.896-0.06,0.985-0.06c0.179,0,1.552-0.12,1.731-0.12
		c0.12,0,0.716-0.089,0.776-0.089c0.119,0,0.388-0.12,0.388-0.12V13.1h-0.06c-0.597,0-3.044,0.209-3.611,0.209
		c-0.507,0.06-0.507,0.388-0.597,0.776L93.827,14.353z M98.304,11.428c0-0.269-0.179-0.388-0.388-0.388
		c-1.164,0-2.447,0-3.522,0.329c-0.269,0.06-0.478,0.179-0.478,0.447c0,0.329,0,0.597,0.388,0.597c1.164,0,2.716-0.269,3.88-0.388
		c0-0.089,0.12-0.388,0.12-0.478V11.428z M102.9,12.801c0,0-0.896,0.179-1.224,0.179h-0.657c-0.179,0-1.075,0.12-1.164,0.12
		c-0.388,0.089-0.388,0.776-0.388,1.044c0.597,0,0.985-0.06,1.552-0.06c0.269,0,1.552-0.119,1.88-0.119
		c0.448-0.09,1.164-2.418,1.164-2.716c0-0.089,0-0.269-0.12-0.269h-2.716c-0.12,0-0.896,0.06-1.104,0.06
		c-0.06,0-0.448,0.12-0.448,0.12v0.776h3.611l0.179,0.269L102.9,12.801z"/>
</g>
</svg>
