<?xml version="1.0" encoding="utf-8"?>
<!-- Generator: Adobe Illustrator 17.0.0, SVG Export Plug-In . SVG Version: 6.00 Build 0)  -->
<!DOCTYPE svg PUBLIC "-//W3C//DTD SVG 1.1//EN" "http://www.w3.org/Graphics/SVG/1.1/DTD/svg11.dtd">
<svg version="1.1" id="Layer_1" xmlns="http://www.w3.org/2000/svg" xmlns:xlink="http://www.w3.org/1999/xlink" x="0px" y="0px"
	 width="79.537px" height="25.399px" viewBox="0 0 79.537 25.399" enable-background="new 0 0 79.537 25.399" xml:space="preserve">
<g>
	<path d="M20.355,22.278l-0.328-0.269l-0.179-0.119c-0.388-0.209-0.657-0.597-1.044-0.866l-1.493-1.283
		c-0.06-0.06-0.776-0.896-0.895-0.955c-0.269-0.329-0.657-0.597-0.836-0.985c-0.507-0.687-1.104-1.284-1.671-1.94
		c-0.388-0.507-1.433-1.97-2.029-1.97c-0.776,0-1.552,0-2.328,0.12l-0.418,0.06c-0.089,0-1.373,0.119-1.433,0.119
		c-0.716,0.09-1.373,0.209-2.059,0.388c-0.209,0-0.657,0.209-0.776,0.209c-0.089,0-0.478,0.179-0.597,0.179
		c-0.567,0.269-0.388,0.985-0.448,1.552c0,0.12-0.12,0.507-0.12,0.597v0.298h1.463c0.089,0,0.597-0.12,0.656-0.12l2.328-0.179h2.776
		c0.269,0.119,0.656,0.388,0.656,0.776c0,0.179-0.269,0.388-0.478,0.388H8.655l-0.179,0.119c-1.164,0-2.268,0.179-3.312,0.388
		c-0.567,0.06-1.284,0.06-1.851,0.388c-0.478,0.298-0.985,0.687-1.433,0.955c-0.209,0.12-1.015,0.507-1.224,0.597
		c0,0-0.179,0.119-0.269,0.119h-0.12C0.209,20.845,0,20.726,0,20.726v-1.433c0,0,0.269-0.507,0.388-0.627l0.388-0.388l0.478-0.09
		c0.179,0,0.806-0.179,0.806-0.179l0.269-0.208l0.119-0.179c0.209-0.776,0.269-1.671,0.269-2.388v-0.269
		c0-0.12-0.06-1.164-0.06-1.284v-1.044c0-0.806-0.507-1.791-1.104-2.239V9.623L1.88,9.295l0.269-0.179h0.567
		c0.507,0,0.896,0.12,1.284,0.567c0.209,0.328,0.089,0.507,0.478,0.507c0.567,0,1.462-0.299,2.059-0.388
		c0.836-0.179,1.612-0.298,2.507-0.388l0.089-0.179v-0.12c0-0.089-0.209-0.507-0.269-0.597C8.745,8.22,8.267,7.444,8.088,7.355
		L7.76,7.444L5.372,7.743l-0.208,0.09c0,0-0.508,0.119-0.567,0.119H4.477C4.208,7.952,4,7.564,4,7.265
		C4,6.878,4.089,6.28,4.477,6.012c3.283-0.119,6.625-0.507,9.938-0.507h1.224c0.12,0,1.612,0.119,2.179,0.209
		c0.478,0,1.373,0,1.373,0.776c0,0.687-1.164,1.343-1.492,2.03C17.52,8.818,17.52,9.236,17.43,9.504
		c-0.12,0.298-0.627,0.687-0.806,0.955l-0.09,0.119h-2.119c-0.388-0.179-0.985-0.119-1.283-0.119h-0.866l-0.179,0.328v0.06
		c0,0.12,0.269,0.507,0.269,0.597l0.179,0.179c0,0,0.209,0.208,0.209,0.328l0.12,0.179c0.06,0.089,0.388,0.388,0.388,0.388h6.716
		c0.06,0,0.447,0.12,0.567,0.12c0.089,0,0.478,0.209,0.597,0.269l0.06,0.12c0,0.478-0.269,1.164-0.836,1.164
		c-0.896,0-1.671-0.119-2.537-0.179c-0.179,0-1.402-0.12-1.582-0.12c-0.388,0-0.776-0.089-1.164-0.089h-0.478l-0.179,0.209v0.06
		c0.06,0.119,0.388,0.388,0.448,0.507l0.209,0.269c0.179,0.209,0.388,0.209,0.507,0.507c0.269,0.269,1.731,1.493,2.06,1.761
		l0.06,0.119c0.119,0,0.507,0.269,0.597,0.269c0.299,0.12,0.388,0.388,0.687,0.507c0.388,0.179,0.388,0.06,0.657,0.448
		c0.329,0.12,1.492,0.836,1.761,0.896c1.074,0.507,2.238,1.164,3.492,1.373c0.12,0,0.687,0.119,0.806,0.119
		c0.179,0,0.865,0.06,0.865,0.388v0.06c-1.074,1.284-1.94,1.284-3.492,1.284h-0.776c-0.209,0-1.373-0.12-1.552-0.12
		C20.624,22.457,20.415,22.278,20.355,22.278z M4.387,13.504c0.985,0,2.03-0.269,2.985-0.388c1.164-0.089,2.388-0.209,3.552-0.388
		c0.06,0,0.269-0.089,0.269-0.089c0-0.298-0.597-0.806-0.657-1.015c-0.119-0.06-0.388-0.836-0.507-0.955l-0.089-0.09H9.64
		c-1.492,0-2.925,0.478-4.268,0.985c-0.119,0-0.507,0.179-0.597,0.179c-0.12,0-0.388,0-0.507,0.209
		c-0.06,0.388-0.179,0.776-0.179,1.164C4.089,13.414,4.089,13.504,4.387,13.504z M9.819,7.833c0.12,0.119,0.597,0.597,0.597,0.687
		c0.119,0.209,0.179,0.597,0.507,0.716h0.448c0.119,0,0.776-0.12,0.895-0.12h2.985c0.328,0,0.328-0.089,0.388-0.298
		c0.209-0.597,0.716-1.164,0.716-1.851c0,0-0.208-0.089-0.328-0.089c-0.06,0-0.567-0.09-0.567-0.09h-3.313
		c-0.836,0.269-1.731,0-2.597,0.388v0.089C9.551,7.564,9.64,7.653,9.819,7.833z"/>
	<path d="M29.525,16.971v-0.567c-0.179-3.433-0.179-6.835-0.179-10.237c-0.12-0.329-0.209-0.597-0.209-0.896
		c0-0.269,0.269-0.657,0.597-0.776c0.179,0,1.224-0.09,1.433-0.09c0.179,0,1.462-0.298,1.671-0.298c0.567-0.089,4-0.269,4.955-0.388
		c0.269,0,2.328-0.09,2.597-0.09c0.119,0,1.164-0.119,1.283-0.119l3.701-0.179c0.179,0,1.85,0.119,2.447,0.179l0.388,0.119
		c0.776,0.09,1.224,0,1.611,0.657c0,0.119,0.209,0.388,0.209,0.388v0.119c0,0.866-0.478,1.642-0.597,2.417
		c0,0.12-0.06,0.806-0.06,0.896c0,0.119-0.12,0.567-0.12,0.687c0,0.089-0.089,2.029-0.089,2.716c0,0.209,0.089,0.388-0.12,0.597
		c0,0.687-0.179,3.791-0.179,4.477v0.388c0,0.985,0.12,2.03,0.12,3.044v1.164c-0.12,0.388-0.388,0.776-0.776,0.776
		c-0.508,0-1.104-0.209-1.552-0.328h-0.119c-0.09,0-1.045-0.06-1.164-0.06h-1.821c-3.223,0-6.447,0.179-9.67,0.657
		c-0.657,0.12-1.373,0.388-1.94,0.567c-0.478,0.208-0.985,0.507-1.433,0.507c-0.716,0-1.104-0.955-1.104-1.552v-4
		C29.406,17.628,29.525,17.061,29.525,16.971z M30.958,19.299c0,0.119,0.12,0.716,0.12,0.776v0.507c0,0.09,0.089,0.269,0.089,0.388
		h0.12l0.06-0.12l0.209,0.12h0.298c0.089,0,0.388-0.12,0.478-0.12c1.164-0.179,2.328-0.269,3.522-0.388
		c1.552-0.06,3.193-0.06,4.746-0.269l0.298-0.12c0.269,0,0.478,0.12,0.657,0.12h0.209c0.119,0,0.567-0.12,0.686-0.12
		c0.209,0,2.716-0.06,3.612-0.06h0.776l0.209-0.12l0.06-0.388l0.119-0.329c0.09-0.179,0.209-0.776,0.209-0.776v-2.597h-0.597
		l-0.179,0.09h-0.716c-0.776,0-1.343-0.09-2.119-0.388c-0.269-0.089-0.388-0.298-0.716-0.298c-0.388,0-0.269,0.209-0.567,0.478
		l-1.045,1.104v0.06c0.269,0,1.612,0.209,1.94,0.209c0.179,0,0.507,0.119,0.507,0.298c0,0.388-0.209,0.865-0.627,0.865h-1.552
		l-0.388-0.089h-0.269c-0.209,0-0.328,0-0.507,0.089c-0.478,0-2.985,0.12-3.492,0.12c-0.089,0-0.657,0.06-0.866,0.06
		c-0.626,0.12-1.015,0.328-1.582,0.388h-0.776c-0.269,0-0.478,0.209-0.657,0.209c-0.329,0-0.388-0.269-0.388-0.597
		c0-0.06,0.179-0.835,0.388-0.955c1.821-0.269,3.671-0.388,5.551-0.478c0.269,0,1.552-0.119,1.821-0.119
		c0.298,0,0.567-0.657,0.687-0.836c0.089-0.119,0.656-1.104,0.776-1.194c0.089-0.209,0.089-0.209,0.089-0.388v-0.089
		c-0.776-0.687-1.253-1.373-1.94-2.149l-0.388-0.388c-0.388-0.478-0.597-1.254-1.164-1.642c-0.209-0.209-0.269-0.12-0.597-0.12
		c-0.776,0-1.552,0.12-2.328,0.179c-0.686,0.119-1.283,0.119-1.85,0.328l-0.09,0.06c-0.179,0.12-0.776,0.329-0.955,0.329
		c-0.388,0-0.716-0.12-0.776-0.507c0-0.09,0.179-0.776,0.269-0.866c0.179-0.388,1.075-0.388,1.462-0.507
		c1.254-0.179,2.656-0.269,3.88-0.567V8.286c0-0.657-0.955-1.164-0.955-1.94c0-0.299,0.388-0.388,0.687-0.508h0.209
		c0.955,0,0.836,0.776,1.164,1.493c0.06,0.179,0.388,0.687,0.388,0.776l0.179,0.179c0.388,0.209,0.865,0,1.253,0.209h1.85
		l0.269-0.269V7.898c0-0.567-0.179-0.567-0.179-0.955c0-0.328,0.567-0.388,0.776-0.388c0.418,0,1.194,0.179,1.194,0.776
		C44.389,7.45,44.21,8.017,44.12,8.107l-0.12,0.119v0.06c0,0.209,0.12,0.388,0.328,0.388c0.06,0,0.657,0.12,0.776,0.12
		c0.179,0.089,0.179,0.209,0.179,0.388c0,0.269-0.119,0.478-0.388,0.657c-0.12,0-0.776,0.209-0.955,0.209h-0.388
		c-0.716,0-1.403-0.089-2.06-0.089c-0.119,0-0.597,0.089-0.716,0.089v0.12c0,0.06,0.119,0.269,0.119,0.269l0.089,0.119
		c0.12,0.06,0.567,0.657,0.687,0.776l0.09,0.089l0.179,0.089l0.896,0.896c0.089,0.089,0.388,0.269,0.597,0.269h0.119
		c0.448-0.388,0.448-1.164,1.164-1.164h0.179c0.209,0.12,0.776,0.388,0.776,0.388v0.507c0,0-0.388,0.478-0.567,0.567
		c-0.329,0.299-0.507,0.209-0.716,0.478c0.507,0.687,2.059,1.373,2.835,1.373c0.388,0,0.269-0.388,0.269-0.687
		c0-0.089,0.119-1.074,0.119-1.164v-0.478c0-0.089,0.089-1.164,0.089-1.283V9.45c0-0.179,0.12-1.343,0.12-1.552v-2.06
		c0-0.06-0.12-0.447-0.209-0.567c0,0-0.507-0.209-0.567-0.209c-0.12,0-0.896-0.06-1.104-0.06h-1.343c-0.09,0-0.388-0.12-0.478-0.12
		h-1.075c-0.985,0-2.06,0.12-3.044,0.179l-0.388,0.12c-0.836,0.089-1.731,0-2.597,0.089c-0.955,0.12-1.97,0.179-2.955,0.298
		c-0.776,0.09-1.82,0.09-2.507,0.478c0,0-0.09,0.12-0.09,0.179c0,0.12-0.119,0.329-0.119,0.329c0,0.06-0.06,0.447-0.06,0.567v0.716
		c0,0.06-0.329,0.776-0.329,0.835c0,0.12-0.06,0.985-0.06,1.373v1.761c-0.119,0.776-0.119,4.477-0.119,5.253L30.958,19.299z
		 M34.062,12.882l0.508-0.298c0.597-0.478,0.656-1.253,1.552-1.253c0.597,0,0.985,0.298,1.492,0.478l0.448,0.089
		c0.507,0.209,0.716,0.388,1.104,0.597c0.388,0.179,0.448,0.478,0.448,0.866v0.388c-0.06,0.478-0.388,0.865-0.776,1.164
		c-0.179,0.209-0.656,0.388-0.955,0.388c-1.253,0.209-2.537,0.329-3.82,0.329c-0.656,0-0.835-0.508-0.835-1.194
		C33.226,13.837,33.614,13.27,34.062,12.882z M35.166,14.046h0.269c0.298,0,1.194-0.09,1.283-0.09c0.299,0,1.075-0.298,1.075-0.597
		c0-0.388-0.567-0.776-0.896-0.955C36.449,12.405,35.166,13.569,35.166,14.046z"/>
	<path d="M68.255,20.235c-2.597,0-5.253,0.388-7.879,0.776c-0.388,0.119-0.776,0.209-1.164,0.388
		c-0.478,0.209-0.985,0.209-1.433,0.388c0,0-0.597,0.328-0.776,0.388c-0.209,0.119-1.283,0.716-1.492,0.776
		c-0.179,0.328-1.075,0.716-1.463,0.716c-0.656,0-0.656-1.284-0.656-1.552c0-0.507,0.179-0.985,0.567-1.283
		c0.209-0.089,0.896-0.209,1.164-0.209c0.716-0.06,1.373-0.179,2.06-0.269c0.208,0,1.044-0.239,1.164-0.239l0.269-0.06
		c0.119,0,1.283-0.12,1.373-0.12c1.164-0.089,2.328-0.388,3.522-0.478h0.269c0.209,0,0.985-0.119,1.164-0.119
		c0.329-0.269,0.597-0.448,0.597-0.955v-0.209c0,0-0.269-0.06-0.388-0.06h-0.089c-0.955,0.06-2.06,0.179-3.015,0.388
		c-0.597,0.06-1.104,0.269-1.671,0.388l-0.269,0.06h-0.329c-0.06,0-0.179-0.179-0.179-0.179v-1.044c0,0,0.179-0.209,0.298-0.209
		c0.209-0.119,0.657-0.298,0.657-0.298h1.552c0.209-0.209,0.627-0.09,0.836-0.09c0.06,0,1.224-0.119,1.343-0.119h0.657
		c0.388,0,0.716-0.448,0.716-0.836l-0.119-0.208h-2.418c-0.507,0-1.791,0.208-1.791,0.208l-0.448,0.448h-0.119
		c-0.388,0-0.657-0.656-0.657-0.955V15.58c0.179-0.687,0.388-1.373,0.388-2.149c-0.12-0.388-0.12-0.985-0.388-1.373
		c-0.209-0.269-0.716-0.567-0.716-1.044h2.06c0.478,0,0.865-0.209,1.373-0.298c2.895-0.388,5.939-0.388,8.954-0.478
		c0-0.12,0.209-0.12,0.269-0.12h0.119c0.209,0.12,0.866,0.388,0.985,0.507c0.179,0.09,0.179,0.179,0.179,0.388
		c0,0.567-0.507,0.776-0.687,1.253c-0.269,0.776-0.597,1.462-0.656,2.417c-0.329,0.209-0.716,0.985-0.985,0.985
		c-0.299,0-0.508-0.089-0.806-0.089h-0.269c-0.12,0-0.776,0.089-0.896,0.089h-0.388c-0.597,0-1.761-0.089-1.761,0.776
		c0,0.179,0,0.298,0.329,0.388h0.776c1.164,0,2.328-0.269,3.611-0.269h0.388c0.269,0.06,0.179,0.388,0.179,0.448v0.328l-0.567,0.567
		h-0.985c-0.507,0-2.746,0.089-3.224,0.089c-0.388,0-0.567,0.298-0.567,0.687v0.269c0.06,0.119,0.388,0.209,0.448,0.209h1.104
		c1.164,0,2.328-0.209,3.492-0.209h4.179c0.089,0,0.865-0.06,0.985-0.06c0.269,0,1.462-0.12,1.731-0.12l0.119-0.089h0.657
		c0,0.388-0.089,0.865-0.269,1.253c-1.074,0.806-2.358,1.403-3.731,1.403h-0.06c-0.896-0.209-1.88-0.507-2.716-0.716
		c-0.985-0.179-2.06-0.179-3.044-0.269c-0.119,0-0.896-0.12-0.955-0.12H68.255z M54.944,9.729c-0.328-0.298-0.328-1.164-0.328-1.552
		c0-0.388,0.448-0.687,0.627-1.075c0.208-0.269,0.269-0.776,0.478-1.044c0.179-0.328,0.686-0.597,0.955-0.776
		c0.119-0.12,0.328-0.239,0.328-0.239c0.06,0,0.657-0.09,0.776-0.09c0.388-0.119,0.776-0.179,1.164-0.298
		c0.955-0.209,1.94-0.269,2.895-0.388c0.209,0,1.492-0.089,1.671-0.089c0.089,0,0.597-0.119,0.657-0.119
		c0.209,0,1.104-0.179,1.164-0.388c0-0.06,0.209-0.776,0.209-0.836V1.94l-0.09-0.09l-0.388-0.567V0.507
		C65.271,0.298,65.45,0,65.718,0h0.209l0.12,0.119c0.06,0.06,0.835,0.388,0.955,0.448c0.269,0.12,0.388,0.209,0.388,0.507
		c0,0.388-0.119,0.657-0.179,1.045c0,0.119-0.12,0.597-0.12,0.716V3.79l0.179,0.209h0.716c0.06,0,0.567-0.119,0.657-0.119
		c0.179,0,1.552,0.119,1.791,0.119c0.06,0,0.567-0.119,0.657-0.119h0.119c0.179,0,1.821,0.119,2,0.119
		c1.492,0,2.716-0.119,3.82,0.955c0,0,0.179,0.209,0.179,0.329c0.089,0.269,0.478,1.044,0.478,1.164v0.567
		c-0.209,0.985-0.657,1.552-1.433,2.149l-0.209,0.06h-0.12l-0.06-0.179l-0.329-0.089C75.15,8.774,75.15,8.387,75.15,7.999
		c0-0.507,0.119-0.985,0.119-1.552V5.73c-0.298-0.179-0.507-0.269-0.895-0.269c-0.388-0.12-1.552-0.179-1.612-0.179h-5.551
		c-0.209,0.06-0.209,0.06-0.388,0.06c-0.209,0-0.328-0.06-0.388-0.06c-0.597,0-0.985,0.269-1.492,0.269h-1.044
		c-0.896,0-1.671,0.298-2.447,0.388c-0.12,0-0.776,0.119-0.896,0.119c-0.06,0-1.045,0.179-1.343,0.269
		c-0.209,0-1.044,0.298-1.164,0.298c-0.597,0.209-0.985,0.388-1.044,0.985c0,0.06-0.209,1.045-0.209,1.164
		c0,0.06-0.179,0.657-0.179,0.776l-0.119,0.179c-0.09,0.09-0.597,0.597-0.657,0.687h-0.328l-0.179-0.298L54.944,9.729z
		 M57.66,25.011c-0.09,0-0.269,0-0.269-0.179c0.388-0.388,0.836-0.896,1.224-1.164c0.328-0.329,0.716-0.507,0.985-0.776
		c0.298-0.388,0.119-0.597,0.687-0.716h0.089c0.388,0,1.164,0.388,1.164,0.776c0,0.328,0,0.716-0.269,0.895
		c0,0-0.716,0.388-0.985,0.597c-0.179,0.06-0.687,0.388-0.687,0.388c-0.478,0.179-1.045,0.06-1.552,0.06l-0.269,0.119H57.66z
		 M58.167,2.895c-0.12,0-0.388-0.269-0.507-0.269v-0.12l0.119-0.06c0.06,0,0.657-0.209,0.776-0.209l1.552-0.567
		c0.269-0.209,0.448-0.329,0.835-0.329h0.209c0.12,0.12,0.687,0.716,0.776,0.776c0.119,0.208,0.119,0.328,0.119,0.507
		c0,0,0.06,0.388-0.119,0.388c-0.597,0.209-1.164,0.209-1.761,0.209c-0.776,0-1.224,0-1.94-0.209L58.167,2.895z M70.613,7.879
		c-0.507,0.567-0.806,1.731-1.671,1.731c-0.388,0-0.776-0.06-1.283-0.06c-1.343,0-2.597,0.269-3.94,0.388
		c-0.328,0.299-0.776,0.299-1.283,0.299c-0.12,0-0.209,0.089-0.329-0.12c-0.06-0.179-0.179-0.567-0.179-0.776
		c0-0.388,0.179-0.776,0.179-1.164V7.999L61.54,7.402V7.014c0-0.119,0.298-0.388,0.388-0.388h0.179c0.209,0,0.388,0,0.507,0.09
		h0.597c0.955,0,2.06-0.209,3.015-0.269c1.253-0.12,2.537-0.12,3.76-0.12h0.896c0,0,0.328,0.12,0.328,0.179v0.716l-0.119,0.06
		L70.613,7.879z M65.54,13.729c0,0-0.985,0.089-1.373,0.089c-0.657,0.09-1.552,0.09-2.238,0.299c-0.09,0-0.209,0.089-0.209,0.089
		v0.687c0,0.089,0.328,0.269,0.388,0.269h0.12c0.716-0.089,1.552-0.089,2.268-0.269l0.269-0.209h0.776
		c0.179-0.089,0.179-0.478,0.179-0.687v-0.179L65.54,13.729z M61.838,12.744c0,0.089,0.209,0.388,0.269,0.388h0.209l0.418-0.09
		c0.089,0,1.044-0.089,1.164-0.089l0.388-0.12c0.597-0.089,1.373,0.12,1.373-0.776c0,0,0-0.388-0.119-0.388h-1.761
		c-0.448,0.208-1.94,0.119-1.94,0.985V12.744z M63.987,21.608l1.284,0.567v2.656l-0.508,0.567h-0.985l-0.06-0.12
		c-0.12-0.179-0.328-0.835-0.328-0.835v-2.537c0-0.119,0.388-0.298,0.507-0.298H63.987z M67.211,7.61c-0.12,0-0.507,0.06-0.597,0.06
		c-0.955,0.119-1.851,0.328-2.835,0.328c-0.06,0.06-0.06,0.269-0.06,0.448c0,0.119,0,0.328,0.179,0.388h0.865
		c0.12,0,0.388-0.06,0.508-0.06c1.044-0.119,2.119-0.119,3.164-0.328c0.388-0.06,0.507-0.567,0.507-0.836H67.211z M66.823,14.386
		c0,0.119,0.269,0.298,0.388,0.298h1.611c0.329,0,1.373-0.179,1.671-0.179c0.209-0.209,0.329-0.985,0.329-1.283
		c-1.015,0-2.06,0.119-3.044,0.298c-0.119,0-0.687,0.09-0.776,0.09c0,0.119-0.179,0.597-0.179,0.686V14.386z M70.882,11.282
		c-1.164,0.119-2.447,0.119-3.611,0.209c-0.179,0.089-0.179,0.478-0.179,0.687c0,0.269,0.179,0.388,0.507,0.388
		c0.657,0,1.224-0.119,1.94-0.119c0.388,0,0.657,0.119,0.955,0.298c0.12,0.089,0.329,0.209,0.329,0.209
		c0.269,0,0.388-1.075,0.388-1.373v-0.179L70.882,11.282z M67.599,23.847c-0.209-0.567-0.328-1.283-0.328-1.85
		c0-0.269,0.119-0.597,0.507-0.597h0.089c0.776,0.209,0.955,0.388,0.955,1.284c0,0.388,0,1.94-0.448,1.94
		c-0.208,0-0.507,0-0.597-0.179L67.599,23.847z M70.882,2.716c-0.567,0-0.955-0.388-0.955-0.985c0-0.388,0-0.388,0.06-0.776
		c0-0.06,0.12-0.269,0.12-0.269h2.537c0.12,0,0.776-0.299,0.896-0.299h0.06l0.209,0.179c0,0.597-0.388,1.373-0.865,1.671
		c-0.12,0-0.776,0.269-0.896,0.269l-0.179,0.12c0,0-0.657,0.089-0.865,0.089H70.882z M72.046,24.056
		c-0.06-0.119-0.269-0.716-0.388-0.776c-0.06-0.328-0.388-0.776-0.388-0.985c0-0.119,0-0.179,0.209-0.298h0.686l0.388,0.298
		c0.089,0.089,0.478,0.269,0.597,0.388c0.388,0.269,0.657,0.478,1.045,0.776c0.507,0.388,1.283,0.478,1.283,1.164v0.269
		c0,0.119-0.328,0.328-0.388,0.328c-0.209,0-0.896,0.06-1.104,0.06l-0.269,0.12h-0.12c-0.179,0-0.179,0-0.388-0.12
		c-0.179-0.06-0.567-0.269-0.567-0.269c-0.089-0.119-0.388-0.776-0.478-0.895L72.046,24.056z"/>
</g>
</svg>
