<?xml version="1.0" encoding="utf-8"?>
<!-- Generator: Adobe Illustrator 17.0.0, SVG Export Plug-In . SVG Version: 6.00 Build 0)  -->
<!DOCTYPE svg PUBLIC "-//W3C//DTD SVG 1.1//EN" "http://www.w3.org/Graphics/SVG/1.1/DTD/svg11.dtd">
<svg version="1.1" id="Layer_1" xmlns="http://www.w3.org/2000/svg" xmlns:xlink="http://www.w3.org/1999/xlink" x="0px" y="0px"
	 width="172.346px" height="22.377px" viewBox="0 0 172.346 22.377" enable-background="new 0 0 172.346 22.377"
	 xml:space="preserve">
<g>
	<g>
		<g>
			<path d="M129.224,7.751c0-0.461,0.323-0.99,0.821-1.289c0.099,0,0.423-0.207,0.473-0.207c0.274-0.161,0.423-0.391,0.647-0.529
				c0,0,0.274-0.161,0.324-0.23l0.274-0.139c0.149-0.161,0.473-0.483,0.473-0.483V4.827c-0.572-0.092-1.07-0.299-1.618-0.46
				c-0.473-0.092-1.294-0.138-1.294-0.691c0-0.207,0-0.299,0.075-0.506l0.647-0.599l0.149-0.092c0.647-0.529,1.07-1.035,1.618-1.634
				c0.099-0.092,0.099-0.092,0.274-0.092c0.373,0,0.871,0.092,0.871,0.598c0,0.392-0.498,0.529-0.821,0.737
				c-0.05,0.093-0.473,0.483-0.547,0.553l-0.423,0.299c0,0-0.149,0.139-0.149,0.23v0.069c0,0,0.323,0.139,0.423,0.139
				c0.473,0.161,1.344,0.299,1.841,0.598l0.149-0.046c0.597-0.391,1.07-0.898,1.394-1.45c0-0.392-0.747-0.898-0.747-1.128
				c0.099,0,0.423-0.161,0.498-0.161h0.1c0.647,0.093,1.394,0.254,1.941,0.599c0.149,0.161,0.149,0.553,0.149,0.691v0.253
				c0,0-0.224,0.299-0.324,0.346c-0.224,0.253-0.647,0.46-0.971,0.69l-0.149,0.161c-1.244,0.944-2.588,1.865-3.832,2.832
				c-0.05,0.092-0.324,0.23-0.324,0.299v0.092c0.498,0.138,0.822,0.138,1.394,0.138h0.647c0.224-0.138,0.647-0.299,0.97-0.368
				c0.324-0.069,0.822,0,0.822-0.368c0-0.69-0.747-0.759-0.747-0.99c0-0.138,0.149-0.207,0.323-0.299h0.996
				c0.323,0,0.398,0.23,0.647,0.391c0.323,0.208,0.821,0.369,0.821,0.806c0,0.3-0.423,0.46-0.597,0.599
				c-0.548,0.391-1.02,0.782-1.717,0.99c-0.05,0-0.373,0.138-0.473,0.138c-0.548,0.161-1.145,0.392-1.692,0.392h-0.249
				c-0.075,0-0.971-0.092-1.045-0.092c-0.324,0-1.867-0.046-2.041-0.438V7.751z M137.694,6.307c0-0.069,0.224-0.507,0.323-0.599
				c0.075-0.138,0.324-0.138,0.498-0.207c0.473-0.185,1.294-0.621,1.618-0.99l-0.099-0.093c-0.075,0-0.498-0.138-0.548-0.138
				c-0.498-0.161-0.971-0.161-1.394-0.368c-0.398-0.23-0.398-0.691-0.398-1.035V2.394c0.174-0.207,0.398-0.207,0.647-0.368
				c0.647-0.392,1.294-0.828,1.841-1.335c0,0,0.174-0.253,0.274-0.299C140.555,0.3,140.705,0,140.779,0c0.324,0,1.12,0.3,1.12,0.691
				v0.046c-0.373,0.461-0.796,0.76-1.344,0.99l-0.373,0.069c-0.149,0.093-0.149,0.3-0.323,0.392l-0.149,0.046
				c-0.075,0.092-0.398,0.392-0.498,0.46c0,0.483,1.668,0.691,1.717,0.829h0.647l1.394-1.289c0.075-0.046,0.324-0.345,0.398-0.438
				V1.727c0-0.392-0.721-0.392-0.721-0.829c0-0.069,0.174-0.161,0.224-0.161h0.423c0.074,0,0.647-0.046,0.722-0.046h0.149
				c0.423,0,0.971,0.438,0.971,0.806c0,0.23-0.05,0.438-0.224,0.599l-0.249,0.138c-0.971,0.852-1.941,1.68-2.986,2.44
				c-0.647,0.437-1.493,0.898-2.041,1.496c0.398,0.23,1.294,0.3,1.717,0.3h0.498c0,0,0.323-0.069,0.373-0.069
				c0.1,0,0.498-0.161,0.598-0.161c0.05,0,0.473-0.23,0.547-0.23c0.149-0.069,0.747-0.207,0.747-0.368c0-0.92-0.647-0.667-1.07-1.22
				l0.149-0.138c0.1-0.069,0.423-0.207,0.498-0.207l0.249,0.046c0.548,0.161,1.618,0.392,1.941,0.852v0.667
				c0,0-0.324,0.368-0.473,0.46l-0.921,0.668c-0.324,0.299-0.697,0.598-1.12,0.667c0,0-0.398,0.069-0.547,0.069
				c-0.174,0-0.174-0.069-0.324,0.092h-1.244l-0.224-0.092h-0.746c-0.647,0-1.219-0.207-1.767-0.368
				c-0.274-0.069-0.498,0-0.647-0.23c-0.174-0.207-0.174-0.207-0.174-0.437V6.307z"/>
		</g>
		<path d="M144.127,9.235c-0.245-0.062-0.354,0-0.544-0.124h-1.806c-0.353,0-1.767,0.124-2.12,0.124
			c-0.435,0.143-0.952,0.143-1.523,0.267c-0.19,0.061-0.19,0.329-0.19,0.411c0,0.596,0.353,0.329,0.544,0.658l0.109,0.329
			c0.163,0.411,0.163,0.884,0.272,1.275c0,0.617-0.109,1.152-0.109,1.749c0,0.349,0,0.617,0.109,0.966v3.8
			c-0.109,0.412-0.163,0.802-0.163,1.214v0.123c0,0.144,0.163,0.617,0.245,0.679c0,0.082,0.109,0.082,0.163,0.082
			c0.19,0,0.299-0.082,0.354-0.144c0.462-0.206,0.897-0.391,0.897-0.884v-0.185c0-0.35-0.082-1.275-0.082-1.337
			c0-0.082-0.109-0.288-0.109-0.349v-2.422c0-0.041,0.109-0.185,0.109-0.267c0-0.041,0.082-0.309,0.082-0.391
			c0,0,0.272-0.144,0.353-0.144c0.517-0.185,1.169-0.308,1.686-0.535c1.251-0.534,2.893-2.612,2.893-3.825
			C145.296,9.77,144.752,9.44,144.127,9.235z M143.546,11.189c0,0-0.391,0.564-0.5,0.688c-0.408,0.678-0.29,1.184-1.16,1.451
			c-0.109,0-0.707,0.185-0.816,0.185c-0.081,0-0.245,0.144-0.354,0.144l-0.081,0.083c-0.109,0-0.272,0.123-0.272,0.123h-0.082
			l-0.109-0.206c0-0.267-0.054-1.604-0.054-1.872c0-0.061-0.109-0.884-0.109-0.946c0-0.061,0.109-0.473,0.109-0.534
			c0.245-0.268,0.761-0.062,1.115-0.268h1.398l0.788,0.144c0.163,0,0.272,0.268,0.272,0.391
			C143.692,10.839,143.736,10.983,143.546,11.189z"/>
		<path d="M135.546,9.476c-0.152,0.316,0.047,0.515,0.047,0.54c0,0.082,0.081,0.35,0.081,0.411v0.556l-0.081,0.185
			c0,0.082-0.109,0.802-0.109,0.884c-0.055,0.719-1.169,0.658-1.876,0.843c-0.598,0.144-1.305,0.349-1.93,0.493h-0.081
			c-0.109,0-0.109-0.061-0.109-0.144v-0.082l0.109-0.185c0-0.082,0.19-0.391,0.19-0.473c0.163-0.411,0.245-0.72,0.353-1.131v-0.082
			l-0.109-0.308c-0.082-0.35-0.082-0.761-0.435-1.029c-0.163-0.061-0.87-0.205-1.06-0.205h-0.163c-0.462,0-0.816,0.411-0.816,0.74
			c0,0.062-0.081,0.226,0.109,0.267c0.245,0.083,0.353,0.083,0.516,0.227l0.19,0.185c0.054,0.082,0.163,0.267,0.163,0.267v1.275
			c0,0-0.109,0.185-0.163,0.267c-0.109,0.062-0.462,0.35-0.544,0.411c-0.272,0.206-1.767,0.741-1.767,1.008v0.062
			c0,0.123,0.081,0.658,0.081,0.802c0.109,0.124,0.163,0.124,0.272,0.124c0.707,0,1.305-0.309,1.957-0.452l0.354-0.083
			c0.054,0,0.761-0.308,0.87-0.308c0.897-0.35,1.604-0.535,2.474-0.884c0.354-0.144,0.816-0.535,1.251-0.535v0.391
			c0,0.267-0.19,0.493-0.245,0.761c-0.462,1.069-0.924,1.995-2.066,2.756c-0.272,0.185-0.625,0.267-0.87,0.391
			c0,0-0.299,0.144-0.353,0.144c-1.006,0.308-1.957,0.534-2.936,0.658c-0.598,0.061-1.359,0.143-1.957,0.185v0.164
			c0,0.267,0.081,0.864,0.354,0.987c0.353,0.267,0.653,0.35,1.169,0.35c1.604,0,3.072-0.658,4.132-1.502
			c0.109-0.042,1.06-0.72,1.169-0.802c0.353-0.185,0.788-0.535,1.06-0.843c0.299-0.35,0.462-0.679,0.652-1.029
			c0.87-1.728,1.06-3.496,1.224-5.368c0-0.083,0.081-0.35,0.081-0.473c0-0.028,0.004-0.234-0.012-0.36
			C136.662,9.056,135.766,9.017,135.546,9.476z"/>
		<g>
			<path d="M127.987,3.766c-0.921,0.227-2.276,0.159-3.389,0.265c-0.079,0-1.032,0.079-1.112,0.079
				c-0.424,0.107-0.953,0.265-1.297,0.45l-0.265,0.053v0.291c0.106,0.503,0.265,0.847,0.344,1.376c0.106,0,0.265,0.107,0.344,0.107
				c0.609,0,1.138-0.185,1.642-0.185h0.529c0.238,0,1.377-0.106,1.615-0.106c0.344,0,0.609,0.344,0.609,0.688
				c0,0.45-0.159,0.636-0.265,0.98c-0.08,0.397-0.159,0.767-0.159,1.297v6.408c0.079,0.159,0.079,0.502,0.079,0.688v0.398
				c0,0.185-0.609,0.979-0.688,0.979h-0.079c-0.08-0.106-0.609-0.635-0.689-0.688c0,0-0.185-0.529-0.185-0.689V15.97
				c0-0.264,0.185-0.609,0.265-0.847c0-0.106,0.079-0.344,0.079-0.344v-1.085c0-0.053-0.159-0.053-0.238-0.053
				c-0.344,0-1.138,0.344-1.483,0.502c-0.079,0-0.768,0.45-0.847,0.45l-0.344,0.08c-0.767,0.264-1.721,0.688-2.409,1.138h-0.106
				c-0.238,0-0.529-0.185-0.688-0.344v-0.636c0-0.238,0-0.609,0.106-0.953c0.159-0.08,0.741-0.689,0.847-0.874
				c0.079-0.053,0.344-0.688,0.45-0.847c0.079-0.185,0.238-1.138,0.238-1.297V8.267c0-0.159-0.079-1.192-0.079-1.377
				c0-0.609,0-1.482-0.53-1.933l-0.344-0.238l-0.079-0.106V4.269c0-0.159,0-0.238,0.079-0.398c0.159-0.185,0.344-0.45,0.609-0.529
				c0.106,0,0.265-0.106,0.344-0.106c0.106,0,0.688-0.053,0.794-0.053l0.159-0.107c0.079,0,0.609-0.079,0.688-0.079
				c0.265,0,4.458-0.854,5.235-0.78c0.776,0.074,1.257,0.074,1.294,0.517S128.908,3.539,127.987,3.766z M121.925,12.767
				c0,0.08,0.265,0.238,0.344,0.345h0.106c0.344,0,0.583-0.107,0.847-0.159l0.344-0.185l0.344,0.08c0.08,0,0.53-0.238,0.609-0.238
				c0.265-0.106,0.847,0,0.953-0.45c0-0.185,0.079-0.953,0.079-1.033c0-0.106-0.079-0.45-0.079-0.529h-0.609
				c-0.874,0-1.721,0.185-2.489,0.424c-0.106,0-0.185,0.106-0.265,0.185c0,0.424-0.185,0.874-0.185,1.298V12.767z M122.189,9.828
				c1.033-0.08,2.409-0.609,3.362-1.112c0.079,0,0.265-0.556,0.265-0.609c0-0.291,0-0.873-0.344-0.873h-0.185l-0.265,0.079h-0.688
				c-0.079,0-0.767,0.159-0.847,0.159c-0.079,0-0.424,0.106-0.529,0.106c-0.159,0-0.688,0.08-0.768,0.238
				c0,0-0.079,0.185-0.079,0.291v0.609C122.11,9.14,122.11,9.485,122.189,9.828z"/>
		</g>
	</g>
	<g>
		<path d="M148.588,19.602c0-0.388,0-1.075,0.328-1.463c0,0,0.179-0.089,0.299-0.089c1.343-0.388,2.805-0.687,4.268-0.955
			c0.269-0.119,0.866-0.209,0.866-0.209l0.179-0.179V16.11c0-0.507,0-1.194-0.09-1.671c-0.179-0.567-0.865-0.687-0.865-1.343
			c0-0.328,0.388-0.716,0.567-0.776c1.462,0.06,2.567-0.209,3.91-0.388c1.433-0.208,2.806-0.328,4.268-0.507
			c0.209,0,1.373-0.208,1.552-0.208h2.06c0.089,0,0.388-0.06,0.478-0.06h0.179c0.507,0,0.776,0.448,0.776,0.955
			c0,0.388-0.179,0.388-0.388,0.776c-0.269,0.776-0.567,1.642-0.567,2.537v0.388l0.119,0.119c0,0,1.224,0.06,1.821,0.06h1.283
			c0.06,0,0.388,0.119,0.448,0.119h2.06l0.208,0.089v0.12l-0.388,0.776c-0.12,0.179-0.329,0.179-0.507,0.388l-0.09,0.179
			c-0.179,0.209-0.776,0.478-0.955,0.597h-0.985c-1.671,0-3.223-0.597-4.835-0.776c-0.329,0-0.716,0.06-1.015-0.12h-4.149
			c-0.119,0-0.597,0.12-0.716,0.12c-0.388,0-2.328,0.269-2.716,0.269c-0.179,0.179-0.567,0.179-0.776,0.179
			c-0.955,0.208-2.03,0.597-2.896,0.985l-2.148,1.074c-0.09,0-0.687,0.269-0.776,0.269c-0.298,0.12-0.089,0.12-0.388,0.12h-0.09
			c-0.089,0-0.328-0.179-0.328-0.298V19.602z M158.646,1.396c0.567,0.269,0.776,0.388,0.776,1.045c0,0.388-0.328,0.895-0.388,1.283
			c0,0.597-0.12,3.432-0.12,4c0,0.089-0.089,0.865-0.089,1.044c-0.12,0.507-0.299,1.493-0.955,1.552
			c-1.492,0.119-2.955,0.328-4.298,0.626c-0.478,0.09-0.866,0.478-1.373,0.478c-0.269,0-0.388-0.089-0.567-0.269
			c0-0.209-0.09-1.224-0.09-1.403V9.484c0.179-1.164,0.478-2.149,0.478-3.313c0-0.388,0-1.015-0.089-1.283
			c0-0.12-0.298-0.567-0.388-0.776l-0.119-0.12l-0.09-0.179V3.544l-0.298-0.328v-0.06c0-0.329,0.209-0.985,0.388-1.104h0.507
			c0.388,0,0.865-0.179,1.253-0.269c0.089,0,1.164-0.119,1.253-0.119l0.388-0.06c0.388,0,1.88-0.209,2.06-0.209H158.646z
			 M157.363,7.932c-1.075,0-1.94,0.06-3.015,0.269c-0.298,0.119-0.866,0.179-1.164,0.388c-0.209,0.12-0.209,0.508-0.209,0.687
			c0,0.09,0.12,0.478,0.298,0.478c0.776,0,1.463-0.269,2.149-0.388c0.089,0,0.656-0.09,0.776-0.09c0.179,0,0.895-0.179,0.955-0.179
			c0.119-0.12,0.209-0.209,0.209-0.329V7.932z M153.364,3.605c0,0.328,0,0.597,0.209,0.776h0.388c0.955,0,1.94-0.269,2.925-0.448
			l0.478-0.12c0.179-0.089,0.179-0.388,0.179-0.597V2.948c-0.388-0.179-1.074-0.179-1.552-0.179h-0.089l-0.388,0.06
			c-0.089,0-0.776,0.12-0.866,0.12c-0.209,0-0.896,0.209-0.985,0.209s-0.298,0.179-0.298,0.179V3.605z M157.542,5.276
			c-1.343,0-2.805,0.089-4.059,0.597c-0.119,0.388-0.119,0.896-0.119,1.283c1.164,0,2.447-0.328,3.611-0.597
			c0.119,0,0.388-0.119,0.388-0.119c0.119-0.06,0.179-0.269,0.179-0.388V5.276z M155.99,16.199c0,0.12,0,0.179,0.089,0.299h0.896
			c0.179,0,1.074-0.179,1.283-0.179c0.06-0.12,0.179-0.209,0.179-0.328v-0.567c0-0.507-0.119-0.985-0.179-1.492
			c-0.119-0.179,0-0.567-0.328-0.657h-0.388c-0.448,0-1.253,0-1.462,0.597c0,0.269-0.089,1.85-0.089,2.119V16.199z M161.243,16.11
			c0.567,0,0.567-0.896,0.687-1.283c0.209-0.687,0.269-1.463,0.269-2.119c-0.657,0-1.433,0-2.208,0.179
			c-0.12,0-0.388,0.209-0.388,0.388v2.835H161.243z M161.541,9.932c-0.119,0.12-0.388,0.597-0.507,0.716
			c-0.179,0.12-0.179,0.12-0.388,0.12c-0.269,0-0.388-0.239-0.447-0.448c0.955-1.731,1.433-3.671,1.433-5.73V3.605
			c0-0.06-0.209-0.388-0.269-0.448l-0.388-0.329l-0.209-0.179V2.56c0.089-0.179,0.269-0.895,0.388-0.955
			c0.597-0.209,1.164-0.328,1.761-0.388c0.269,0,0.835,0,1.164-0.209c0.298,0,1.851-0.12,2.119-0.12h0.776
			c0.716,0,2.268-0.179,2.268,0.896c0,0.597-0.388,1.044-0.507,1.552c-0.089,0.478-0.209,1.045-0.209,1.552
			c0,0.985,0.12,1.94,0.12,2.925v1.284c-0.12,0.388-0.298,0.955-0.776,0.955c-0.299,0-0.567-0.179-0.567-0.508V7.335
			c-0.119,0-0.776-0.119-0.985-0.119h-0.119c-0.776,0.209-1.612,0.119-2.507,0.209c0,0-0.507,0.119-0.597,0.119
			c-0.12,0-0.507,0.06-0.507,0.06s-0.06,0.12-0.06,0.209c-0.328,0.776-0.507,1.284-0.895,2.06L161.541,9.932z M164.078,12.499
			c0,0-0.209,0.089-0.209,0.209c-0.298,0.388-0.388,0.776-0.567,1.224c0,0.119-0.328,0.776-0.328,0.896
			c-0.06,0.269-0.269,0.597-0.269,0.895c0,0.09,0,0.209,0.089,0.209h1.97c0,0,0.209-0.209,0.209-0.328
			c0.269-0.687,0.388-1.731,0.388-2.507v-0.507c0-0.089-0.209-0.209-0.328-0.209L164.078,12.499z M166.705,2.052
			c-0.896,0-1.671,0.12-2.567,0.209c-0.06,0-0.776,0.119-0.836,0.119c-0.328,0.179-0.388,0.388-0.388,0.657
			c0,0.298,0,0.507,0.179,0.567h0.865c0.12,0,1.015-0.06,1.075-0.06c0.985-0.119,2.059,0.179,2.447-0.895V2.56
			c0-0.119-0.119-0.388-0.119-0.507H166.705z M163.094,6.261h0.269c1.283,0,2.447-0.269,3.73-0.269l0.209-0.12V4.38h-0.716
			c-0.06,0-1.343,0.119-1.433,0.119h-0.298c-0.388,0.09-0.716,0.209-1.104,0.269c-0.06,0-0.448,0.12-0.567,0.12
			c-0.089,0-0.269,0.209-0.269,0.269v0.896L163.094,6.261z"/>
	</g>
	<g>
		<path d="M4.298,19.065c0-0.299,0.269-2.507,0.269-2.835v-0.061l0.12-0.328v-1.283c0-0.06,0.089-1.343,0.089-1.433V8.618
			c0.09-0.447,0.09-1.045,0.09-1.671V6.38L4.686,6.171C4.566,6.29,3.91,6.559,3.791,6.679c-0.776,0.388-1.164,1.163-1.552,1.88
			c-0.478,0.776-0.478,1.94-1.671,1.94C0.179,10.499,0,9.782,0,9.514c0-0.179,0-0.179,0.12-0.388c0.06-0.299,0.657-1.672,0.776-1.94
			c0.179-0.627,0.448-1.074,0.448-1.791V5.216c0-0.09-0.179-0.597-0.179-0.656L0.955,4.171V4.052c0-0.09,0.12-0.209,0.209-0.209
			c0.507,0,1.373,0.597,1.671,0.985C3.224,4.738,3.522,4.56,3.91,4.44l0.388-0.089c0.09,0,0.388-0.18,0.478-0.18
			c0.09,0,0.866-0.507,0.955-0.507c0.12,0,0.687-0.09,0.776-0.09c0.686-0.179,1.462-0.508,2.059-0.896h0.269L8.745,3.007
			c-0.09,0.06-0.179,0.448-0.179,0.448C8.447,3.574,8.059,4.052,7.879,4.171c-0.388,0.389-1.94,0.836-1.94,1.224v0.12
			c0.09,0.478,0.179,0.775,0.179,1.253v0.687c0,0.776-0.089,7.223-0.089,7.999c0,1.492,0.089,3.044-0.299,4.477
			c-0.089,0.299-0.269,0.508-0.567,0.508c-0.687,0-0.866-0.776-0.866-1.283V19.065z M7.67,7.395c0,0,0.12-0.119,0.209-0.119
			c0.09,0,0.298-0.09,0.298-0.09c0.776-0.238,1.463-0.418,2.239-0.627c1.373-0.269,2.806-0.388,4.148-0.447
			c1.552-0.119,3.164-0.209,4.775-0.209h2.269c0.955,0,2,0.209,3.104,0.209c0.567,0,1.164-0.119,1.731-0.119
			c0,1.283-1.552,2.059-2.507,2.447h-1.88c-0.06,0-0.657-0.09-0.836-0.209c-0.328-0.06-0.896-0.269-0.985-0.448
			c-0.567,0-1.343-0.209-1.94-0.388h-3.731c-0.06,0-0.388,0.06-0.448,0.06c-1.492,0.209-3.044,0.717-4.387,1.283
			C9.342,8.946,9.133,9.006,8.834,9.215c-0.179,0.18-0.478,0.508-0.776,0.508c-0.179,0-0.269,0-0.388-0.119L7.283,9.215V8.171
			C7.492,7.962,7.581,7.573,7.67,7.395z M11.192,16.05c0-0.328,0.209-0.507,0.478-0.597c1.552,0.09,3.015-0.299,4.566-0.508
			c0.269,0,1.284-0.06,1.373-0.06h3.104c0.507-0.119,0.896-0.209,1.283-0.209c0.179,0,0.388,0.09,0.388,0.269
			c0,0.209,0.06,0.896,0.06,0.985c0,0.418-0.776,1.015-0.955,1.402c-0.269,0.448-0.209,1.164-0.478,1.612
			c-0.179,0.209-0.776,0.388-0.955,0.388h-0.896c-1.433,0-2.537,0.119-3.88,0.328l-0.388,0.06c-0.12,0-0.508,0.12-0.597,0.12
			c-0.119,0-0.776,0.269-0.896,0.269h-0.179c-0.269,0-0.597-0.18-0.657-0.567c0-0.09-0.12-0.985-0.12-1.045
			c-0.089-0.896-0.597-1.671-1.253-2.268V16.05z M12.237,4.231V4.052c0-0.09,0-0.478,0.119-0.597c0,0,0.269-0.18,0.388-0.18
			c1.433-0.269,2.984-0.269,4.477-0.269h1.671c0.269,0,1.94,0.06,2.209,0.06c0.119,0,0.298,0.12,0.298,0.209v0.12
			c0,0.835-1.552,1.044-2.119,1.164c-0.985,0.06-2.06,0.179-3.164,0.179c-1.164,0-2.388-0.119-3.552-0.179
			C12.446,4.56,12.237,4.351,12.237,4.231z M12.237,10.29c0-0.12,0.388-0.567,0.507-0.687l0.208-0.09
			c0.836-0.179,1.821-0.299,2.716-0.388c0.269,0,0.269,0.089,0.567-0.12h1.552c0.328,0,1.552,0.12,1.88,0.12
			c0.388,0.089,0.955,0.269,0.955,0.775c0,0.389-0.299,0.657-0.776,0.657c-0.776,0-1.552-0.06-2.328-0.06
			c-1.015,0-1.97,0-2.835,0.179l-0.179,0.09c-0.507,0.119-0.985,0.179-1.492,0.298l-0.179,0.09h-0.209c-0.179,0-0.179,0-0.388-0.209
			V10.29z M12.625,13.334c0-0.328,0.209-0.776,0.507-0.985c0,0,0.269-0.119,0.388-0.119c1.761-0.179,3.492-0.269,5.253-0.269h0.119
			c0.388,0,1.224,0.09,1.224,0.09s0.329,0.119,0.388,0.179c0.209,0.119,0.12,0.209,0.12,0.388c0,0.598-0.776,0.717-1.284,0.776
			l-0.269,0.119c-0.567,0.209-1.283,0.209-1.851,0.209c-0.716,0-2.447,0.06-2.537,0.06c-0.12,0-1.284,0.12-1.343,0.12h-0.119
			c-0.388,0-0.597-0.18-0.597-0.508V13.334z M13.61,16.826l0.179,0.388c0,0.119,0.209,0.687,0.209,0.776l0.179,0.179h0.388
			c1.493,0,3.044-0.388,4.507-0.269c0.269,0,0.776-1.074,0.776-1.463c0-0.269-0.298-0.208-0.507-0.208h-0.448
			c-0.328,0-2.775,0.119-3.044,0.119H15.46l-0.12,0.089c-0.567,0-1.164,0.18-1.731,0.299V16.826z"/>
		<path d="M29.572,10.887c0.06-0.119,0.269-0.388,0.388-0.388l0.269-0.12c0.507-0.269,0.896-0.597,1.283-0.865
			c0.12,0,0.299-0.179,0.388-0.179l0.298-0.12c0.388-0.328,0.776-0.896,1.253-0.896c0,0.299-0.089,0.567-0.208,0.896
			c-0.06,0.389-0.179,0.776-0.269,1.164c-0.388,0.955-1.283,2.06-2.059,2.746c-0.507,0.209-0.687,0.209-1.075,0.209
			c-0.657,0-0.597-0.508-0.597-0.985C29.244,11.842,29.244,11.275,29.572,10.887z M38.108,13.99c-0.657,0-1.373,0.12-2.03,0.418
			c-0.179,0.09-0.776,0.478-0.955,0.478c-0.209,0-0.209,0-0.328-0.089c-0.06-0.12-0.179-0.508-0.179-0.567v-1.224
			c1.075-0.836,1.671-2.06,1.671-3.402V9.006C36.168,8.887,35.78,8.32,35.78,8.231c0-0.299,0.896-0.896,1.075-0.896
			c0.597,0,1.253,0.328,1.253,0.984c0,0.299-0.089,0.508-0.209,0.807c0,0.089-0.06,0.597-0.06,0.656
			c0,0.119-0.329,0.985-0.388,1.164c0,0.119-0.328,0.627-0.328,0.716v0.18c0,0.119,0,0.209,0.209,0.328
			c0.507,0.179,1.164,0.06,1.731,0.179c0.119,0,0.507,0.09,0.626,0.09l0.209,0.119h0.657c0.298,0,1.343,0.06,1.552,0.06l0.388,0.12
			c0.299,0,1.164,0.209,1.343,0.209c0.119,0,1.373,0.06,1.492,0.06c0.448,0,0.836,0.209,1.343,0.328
			c1.373,0.179,2.835,0.388,4.208,0.388c1.343,0,3.373-0.209,4.656-0.775c0.089,0,0.776-0.508,0.865-0.598
			c0.209-0.119,0.209-0.119,0.388-0.119h0.089c-0.865,1.373-1.731,2.775-2.895,3.82c-0.208,0.119-1.283,0.388-1.492,0.508
			c-0.269,0.06-0.567,0.179-0.835,0.179H51.33c-0.269,0-1.044-0.119-1.164-0.119c-0.06,0-1.224-0.388-1.731-0.567
			c-0.985-0.388-2.06-0.597-3.044-0.865c-0.06,0-0.448-0.18-0.567-0.18c-0.089,0-0.597-0.119-0.657-0.119l-0.119-0.089
			C42.286,14.289,39.958,13.99,38.108,13.99z M42.286,8.499c0-0.567-0.269-0.836-0.447-1.343v-0.09c0-0.388,0.835-0.687,1.224-0.687
			c0.597,0,1.164,0.179,1.164,0.896c0,0.388-0.179,0.566-0.269,1.044c0,0.12-0.119,0.807-0.119,0.896l-0.06,0.18
			c-0.388,1.164-0.896,1.492-1.88,2.179h-0.06c-0.12,0-0.209-0.239-0.209-0.239V10.29C42.018,9.991,42.286,8.887,42.286,8.499z
			 M47.002,8.708c0.388-0.269,0.836-0.597,1.224-0.985c0.12-0.06,0.597-0.388,0.597-0.447c0.119-0.119,0.119-0.687,0-0.776
			l0.179-0.119h0.119c0.866,0.179,1.821,0,2.417,0.776c0.179,0.179,0.388,0.507,0.388,0.775c0,0.18-0.209,0.687-0.478,0.687H49.21
			c-0.269,0.269-0.776,0.209-1.044,0.269c-0.328,0.119-0.507,0.239-0.896,0.239c-0.089,0-0.388-0.12-0.388-0.299L47.002,8.708z"/>
		<path d="M60.635,14.32c-0.567,0-0.567-0.329-0.567-0.836c0-0.448,0.119-1.045,0.298-1.433c0.089-0.18,1.284-0.389,1.552-0.508
			c1.164-0.269,2.268-0.836,3.312-1.343c1.164-0.478,2.239-1.104,3.403-1.672c0.507-0.269,1.104-0.478,1.492-0.984l-0.209-0.18
			c-0.896-0.388-1.462,0-2.179-0.775c-0.06-0.09-0.06-0.209-0.06-0.388c0-0.478,0.657-0.478,0.955-0.598h0.089
			c0.896,0.209,2.179,0.598,3.015,0.598h0.209l0.298-0.389c0.209-0.269,0.388-0.478,0.597-0.775l0.179-0.389
			c0.09-0.209,0.388-0.209,0.597-0.209c0.269,0,1.044,0.598,1.044,0.896c0,0.597-0.866,0.985-0.866,1.373
			c0,0.179,0,0.269,0.209,0.388c0.388,0.269,1.224,0.448,1.612,0.657c0.716,0.298,1.612,0.687,2.388,0.955
			c0.776,0.388,1.612,0.836,2.388,1.104c0.597,0.179,1.283,0.388,1.88,0.507c0.269,0.06,1.044,0.269,1.164,0.269
			c0.06,0,0.388,0.18,0.448,0.18c0.119,0,0.597,0.119,0.806,0.119s0.985,0,0.985,0.209v0.06l-0.119,0.209
			c-0.09,0.119-0.567,0.388-0.657,0.507l-0.418,0.269l-0.388,0.12l-0.09,0.06c-0.119,0.119-0.687,0.328-0.776,0.388
			c-0.388,0.209-0.776,0.388-1.164,0.388h-0.507c0,0-1.045-0.447-1.164-0.566c-0.657-0.389-1.343-0.866-2-1.254
			c-0.12-0.119-0.776-0.388-0.896-0.507l-0.269-0.269l-0.329-0.12c-0.06,0-0.507-0.388-0.567-0.388
			c-1.164-0.687-2.537-0.896-3.701-1.343c-0.179-0.12-0.687-0.389-0.896-0.389h-0.06c-0.12,0.06-0.508,0.389-0.597,0.448
			c-0.179,0.209-0.388,0.209-0.567,0.388l-0.329,0.328c-0.388,0.299-1.044,0.508-1.462,0.687c-0.865,0.478-1.552,1.164-2.417,1.642
			c-1.164,0.687-2.447,1.463-3.671,1.97c-0.12,0.09-1.373,0.389-1.493,0.478l-0.179,0.12H60.635z M64.635,6.201
			c-0.06,0-0.269-0.209-0.388-0.27c0-0.208-0.06-0.895-0.06-1.104l-0.119-0.18V4.351c0-0.09,0.179-0.478,0.179-0.478h0.597
			c0,0,0.388-0.12,0.507-0.12l0.269-0.089c1.671-0.299,3.283-0.478,4.955-0.687c0.209-0.09,0.328-0.09,0.328-0.269
			c0-0.209,0-0.389-0.119-0.508c-0.09-0.09-0.597-0.567-0.657-0.656V1.246c0,0,0.567-0.388,0.776-0.478c0,0,0.388-0.119,0.567-0.119
			h0.089c0.567,0,1.731,0.299,1.851,1.074v0.865c1.373,0,2.716-0.089,4.089-0.089h1.462l1.164,0.209
			c0.089,0,0.269,0.089,0.269,0.179v0.09c0,0.209-0.06,0.298-0.179,0.388c-0.209,0.209-0.657,0.597-0.657,0.597
			c-0.388,0.18-0.716,0.18-1.164,0.18h-0.597l-0.298-0.09c-0.776-0.09-1.164-0.09-1.94-0.09c-1.373,0-2.716,0.18-4.089,0.389
			c-0.12,0-1.075,0.089-1.164,0.089c-0.955,0.09-2.626,0.598-3.522,0.985c-0.089,0-0.478,0.299-0.597,0.299l-0.388,0.089
			c-0.06,0-0.269,0.18-0.388,0.18l-0.06,0.119c0,0-0.388,0.09-0.597,0.09H64.635z M72.335,22.377c-0.478,0-0.776-1.164-0.776-1.462
			c0-1.433,0.179-2.925,0.179-4.388v-0.865c0-0.388-0.179-2.238-0.179-2.627h-0.597c-0.06,0-0.776,0.269-0.835,0.269
			c-0.209,0.12-0.776,0.12-0.985,0.299c-0.239,0.209-0.12,0.388-0.12,0.597c-0.179,1.672-0.567,3.283-1.94,4.388h-0.179
			c-0.12,0-0.329,0-0.329-0.09V18.11c0-0.627,0.209-1.074,0.388-1.582c0-0.09,0.328-0.775,0.328-0.865v-1.94
			c0-0.298-0.597-0.507-0.597-0.896c0-0.388,0.388-0.566,0.656-0.566c0.209,0,0.388,0.06,0.508,0.06h0.089
			c0.567-0.06,1.074-0.388,1.671-0.448c0.119,0,0.507-0.119,0.567-0.119l0.329-0.09c0.06,0,0.656-0.119,0.776-0.119
			c0.06,0,0.269-0.06,0.269-0.269c0-0.567-0.597-0.687-0.597-1.164c0-0.388,0.776-0.566,1.104-0.566h0.06l0.985,0.447
			c0,0,0.119,0.209,0.119,0.328v0.657c0,0.119,0.06,0.179,0.06,0.179h2.716c0,0,0.388,0.209,0.597,0.328
			c1.194,0.448,1.075,1.224,1.194,2.447c0,0.18,0.09,1.433,0.09,1.612v0.328c0,0.388-0.478,1.611-0.985,1.611
			c-0.507,0-0.895-0.447-0.895-0.955v-0.09c0-0.119,0.119-0.775,0.119-0.895v-2.508c0-0.209-0.179-0.328-0.298-0.388
			c-0.209,0-0.866-0.119-1.045-0.119h-0.328c-0.269,0-1.044,0.119-1.044,0.119l-0.179,0.179v4c0,0.089,0.06,0.984,0.06,1.044
			c0,0.239,0.12,2.06,0.12,2.657v0.298c0,0.657-0.179,1.045-0.687,1.433c0,0-0.209,0.119-0.269,0.119H72.335z"/>
		<path d="M88.147,20.348v-0.179c0-0.389,0.329-0.776,0.597-0.896c0.12,0,0.567-0.09,0.687-0.09
			c1.433-0.298,2.835-0.775,4.268-1.074c1.074-0.209,2.238-0.508,3.313-0.597c0.089,0,0.865-0.12,1.074-0.12h0.179
			c1.104-0.179,2.268-0.269,3.313-0.388l0.119-0.179v-1.821h-0.985c-1.851,0.061-3.791,0.448-5.641,0.776
			c-0.209,0-1.463,0.269-1.642,0.269h-0.12c-0.269,0-0.269-0.865-0.269-1.164c0-0.089,0-0.388,0.089-0.478
			c0,0,0.179-0.119,0.299-0.119c0.089,0,0.478-0.06,0.567-0.06c0.209,0,1.373-0.119,1.552-0.119c0.089,0,0.388-0.09,0.478-0.09
			c0.208,0,1.552-0.119,1.761-0.119c0.089,0,0.478-0.06,0.567-0.06c0.896-0.12,1.791-0.12,2.626-0.239
			c0.209,0,0.716-0.09,0.716-0.09l0.06-0.179v-1.283c0-0.09-0.06-0.09-0.179-0.09c-0.597,0-1.164,0.299-1.761,0.388
			c-0.656,0.09-1.462,0.209-2.119,0.209c-0.298,0-1.074-0.209-1.074-0.507c0-0.269,0.298-0.478,0.478-0.567
			c0.089,0,0.478-0.09,0.597-0.09c0.955-0.119,2.239-0.209,3.104-0.775c0.119-0.119,0.507-0.508,0.567-0.597l0.119-0.299
			c0.09-0.09,0.388-0.388,0.478-0.388c0.567,0,0.955,0.687,1.462,0.687h0.09l1.164-0.567c0.179-0.119,0.179-0.239,0.179-0.299
			c0-0.388-0.179-0.716-0.388-0.984l-0.269-0.299v-0.09c0-0.179,0.089-0.298,0.209-0.388h0.388c0.836,0,1.343,0.865,1.94,0.865
			h0.299c0.089,0,0.597-0.269,0.776-0.388l0.209-0.209c-0.329-0.269-1.104-1.045-1.104-1.552c0-0.06,0-0.269,0.12-0.269h0.089
			c0.567,0.209,1.343,0.269,1.94,0.597l0.388,0.269h0.119c0.06-0.09,0.448-0.269,0.567-0.388l0.597-0.597l0.06-0.18
			c0-0.269-0.269-0.507-0.447-0.716c-0.388-0.389-0.985-0.269-1.493-0.448c-0.06,0-0.448-0.328-0.567-0.388l-0.269-0.328h-0.209
			c-0.776,1.104-2.06,1.88-3.343,2.447l-0.388,0.119c-0.776,0.209-1.731,0.776-2.597,0.865c-0.179,0-0.686-0.089-0.686-0.269
			c0-0.388,0.119-1.164,0.507-1.492c0.448-0.298,1.552-0.298,2-0.388c0.985-0.179,3.552-1.074,3.552-2.328
			c0-0.299-0.328-0.508-0.328-0.776c0-0.507,0.597-0.388,0.776-0.687h0.388c0.597,0,1.164,0.299,1.164,1.075
			c-0.06,0.388-0.388,0.775-0.448,1.164c1.045,0,2.119-0.12,3.104,0.269l0.06,0.119c0.776,0.597,1.492,0.597,1.492,1.761v0.388
			c-0.12,0.299-0.507,0.508-0.776,0.687c-0.716,0.389-1.284,0.866-1.94,1.254l-0.209,0.119c-0.776,0.389-1.552,0.955-2.328,1.224
			l-0.388,0.12c-0.119,0-0.388,0.298-0.507,0.298c-0.776,0.389-1.671,0.597-2.507,0.866c-0.329,0.119-0.776,0-0.985,0.208
			c-0.119,0.687-0.119,1.075-0.119,1.642c0,0.389,0,0.598,0.119,0.985c0,0.179,0.269,0.09,0.388,0.09
			c0.985,0,1.821-0.09,2.835-0.209c0.776-0.09,4.537-0.269,5.312-0.269c0.12,0,0.329,0.089,0.388,0.089
			c0.209,0.09,0.119,0.18,0.119,0.299c0,0.508-0.298,0.567-0.686,0.687c-0.269,0.09-0.657,0.269-0.985,0.388h-0.179
			c-1.373,0.209-2.806,0.09-4.208,0.269h-0.269c-0.567,0-2.239,0.12-2.328,0.12c-0.119,0-0.507,0.089-0.567,0.089
			c-0.209,0.119-0.329,1.074-0.329,1.164v0.119c0,0.061,0.12,0.448,0.12,0.448l0.089,0.119c0.12,0,0.388,0.09,0.507,0.09h4.835
			c0.388,0,3.82,0.119,4.208,0.119c0.776,0,1.552,0.06,2.448,0.06c0.567,0,1.343,0,2-0.06c0.209,0.06,0.209,0.179,0.209,0.269
			c0,0.179,0,0.299-0.09,0.508c-0.955,1.074-2.119,1.939-3.611,1.939c-0.507,0-1.074,0-1.462-0.089
			c-0.089,0-0.478-0.299-0.597-0.299c-1.433-0.478-3.104-0.478-4.656-0.656c-0.896-0.12-1.731-0.209-2.626-0.209
			c-1.044,0-2.029,0.089-2.984,0.209c-1.104,0.179-2.06,0.06-3.134,0.269c-0.686,0.119-1.462,0.388-2.148,0.507
			c-0.09,0-0.657,0.06-0.776,0.06c-0.567,0.12-1.044,0.328-1.642,0.508c-0.567,0.209-1.253,0.388-1.85,0.597
			c-0.478,0.179-0.955,0.567-1.343,0.776c-0.597,0.388-0.716,0.775-1.552,0.775c-0.329,0-0.388-0.209-0.597-0.507
			C88.267,21.393,88.147,20.557,88.147,20.348z M92.058,7.395c0-0.119-0.478-0.687-0.567-0.896
			c-0.298-0.269-0.626-0.388-0.626-0.836V5.544l0.507-0.507c0.776,0,1.462,0,2.238-0.09c0.776-0.119,1.373-0.388,2.149-0.388
			c0.179-0.299,0.179-0.687,0.179-1.075c0-0.984-0.776-1.044-0.776-1.82l0.089-0.209c0.12-0.119,0.209-0.299,0.209-0.299
			l0.478-0.089l0.298-0.119h0.09c0.776,0.208,1.462,0.716,1.462,1.552c0,0.597-0.209,0.775-0.478,1.283l-0.12,0.09v0.388h1.97
			c0,0,0.209,0.119,0.269,0.179c0.119,0.12,0.209,0.209,0.209,0.329c0,0.179-0.209,0.507-0.388,0.566
			c-0.209,0.119-0.597,0.389-0.597,0.389h-1.074c-0.089,0-0.776,0.208-0.866,0.208h-0.567c-0.597,0-1.373,0.12-1.94,0.299
			l-0.209,0.09c-0.089,0-0.388,0.119-0.478,0.119v3.015c0.478,0,1.075-0.239,1.462-0.299c0.776-0.119,1.433-0.328,2.208-0.507
			c0.597-0.209,1.075-0.478,1.791-0.478h0.388l0.06,0.209c0,0.179-0.179,0.566-0.388,0.775c-0.06,0.18-0.567,0.687-0.687,0.687
			l-0.388,0.09l-3.194,0.865c-0.089,0-0.388,0.09-0.478,0.09c-0.776,0.119-1.642,0.507-2.417,0.775
			c-0.119,0-0.388,0.209-0.507,0.209l-0.089,0.09c-0.09,0-0.299,0.09-0.299,0.09c-0.179,0-0.388-0.389-0.388-0.478v-1.463
			l0.388-0.388c0.597-0.508,1.075-0.508,1.284-1.343C92.267,8.171,92.147,7.485,92.058,7.395z"/>
	</g>
</g>
</svg>
