<?xml version="1.0" encoding="utf-8"?>
<!-- Generator: Adobe Illustrator 17.0.0, SVG Export Plug-In . SVG Version: 6.00 Build 0)  -->
<!DOCTYPE svg PUBLIC "-//W3C//DTD SVG 1.1//EN" "http://www.w3.org/Graphics/SVG/1.1/DTD/svg11.dtd">
<svg version="1.1" id="Layer_1" xmlns="http://www.w3.org/2000/svg" xmlns:xlink="http://www.w3.org/1999/xlink" x="0px" y="0px"
	 width="143.714px" height="25.399px" viewBox="0 0 143.714 25.399" enable-background="new 0 0 143.714 25.399"
	 xml:space="preserve">
<g>
	<path d="M20.355,20.922l-0.328-0.269l-0.179-0.119c-0.388-0.209-0.657-0.597-1.044-0.866l-1.493-1.283
		c-0.06-0.06-0.776-0.896-0.895-0.955c-0.269-0.329-0.657-0.597-0.836-0.985c-0.507-0.687-1.104-1.284-1.671-1.94
		c-0.388-0.507-1.433-1.97-2.029-1.97c-0.776,0-1.552,0-2.328,0.12l-0.418,0.06c-0.089,0-1.373,0.119-1.433,0.119
		c-0.716,0.09-1.373,0.209-2.06,0.388c-0.208,0-0.656,0.209-0.776,0.209c-0.089,0-0.478,0.179-0.597,0.179
		c-0.567,0.269-0.388,0.985-0.448,1.552c0,0.12-0.12,0.507-0.12,0.597v0.298h1.462c0.09,0,0.597-0.12,0.657-0.12l2.328-0.179h2.776
		c0.269,0.119,0.656,0.388,0.656,0.776c0,0.179-0.269,0.388-0.478,0.388H8.655l-0.179,0.119c-1.164,0-2.268,0.179-3.313,0.388
		c-0.567,0.06-1.283,0.06-1.85,0.388c-0.478,0.298-0.985,0.687-1.433,0.955c-0.209,0.12-1.015,0.507-1.224,0.597
		c0,0-0.179,0.119-0.269,0.119H0.269C0.209,19.489,0,19.37,0,19.37v-1.433c0,0,0.269-0.507,0.388-0.627l0.388-0.388l0.478-0.09
		c0.179,0,0.806-0.179,0.806-0.179l0.269-0.208l0.119-0.179c0.209-0.776,0.269-1.671,0.269-2.388V13.61
		c0-0.12-0.06-1.164-0.06-1.284v-1.044c0-0.806-0.507-1.791-1.104-2.239V8.267L1.88,7.939L2.149,7.76h0.567
		c0.507,0,0.896,0.12,1.284,0.567c0.208,0.328,0.089,0.507,0.478,0.507c0.567,0,1.462-0.299,2.059-0.388
		c0.836-0.179,1.612-0.298,2.507-0.388l0.089-0.179V7.76c0-0.089-0.209-0.507-0.269-0.597C8.745,6.864,8.268,6.088,8.088,5.999
		L7.76,6.088L5.372,6.387l-0.209,0.09c0,0-0.507,0.119-0.567,0.119H4.477C4.208,6.596,4,6.208,4,5.909
		c0-0.388,0.089-0.985,0.478-1.253c3.283-0.119,6.625-0.507,9.938-0.507h1.224c0.12,0,1.612,0.119,2.179,0.209
		c0.478,0,1.373,0,1.373,0.776c0,0.687-1.164,1.343-1.492,2.03C17.52,7.461,17.52,7.879,17.43,8.148
		c-0.12,0.298-0.627,0.687-0.806,0.955l-0.089,0.119h-2.119c-0.388-0.179-0.985-0.119-1.283-0.119h-0.866l-0.179,0.328v0.06
		c0,0.12,0.269,0.507,0.269,0.597l0.179,0.179c0,0,0.209,0.208,0.209,0.328l0.12,0.179c0.06,0.089,0.388,0.388,0.388,0.388h6.715
		c0.06,0,0.448,0.12,0.567,0.12c0.089,0,0.478,0.209,0.597,0.269l0.06,0.12c0,0.478-0.269,1.164-0.836,1.164
		c-0.896,0-1.671-0.119-2.537-0.179c-0.179,0-1.403-0.12-1.582-0.12c-0.388,0-0.776-0.089-1.164-0.089h-0.478l-0.179,0.209v0.06
		c0.06,0.119,0.388,0.388,0.448,0.507l0.209,0.269c0.179,0.209,0.388,0.209,0.507,0.507c0.269,0.269,1.731,1.493,2.06,1.761
		l0.06,0.119c0.12,0,0.507,0.269,0.597,0.269c0.298,0.12,0.388,0.388,0.686,0.507c0.388,0.179,0.388,0.06,0.657,0.448
		c0.328,0.12,1.492,0.836,1.761,0.896c1.075,0.507,2.239,1.164,3.492,1.373c0.12,0,0.687,0.119,0.806,0.119
		c0.179,0,0.866,0.06,0.866,0.388v0.06c-1.074,1.284-1.94,1.284-3.492,1.284h-0.776c-0.209,0-1.373-0.12-1.552-0.12
		C20.624,21.101,20.415,20.922,20.355,20.922z M4.387,12.147c0.985,0,2.03-0.269,2.985-0.388c1.164-0.089,2.388-0.209,3.552-0.388
		c0.06,0,0.269-0.089,0.269-0.089c0-0.298-0.597-0.806-0.657-1.015c-0.12-0.06-0.388-0.836-0.507-0.955l-0.09-0.09H9.64
		c-1.492,0-2.925,0.478-4.268,0.985c-0.119,0-0.507,0.179-0.597,0.179c-0.12,0-0.388,0-0.507,0.209
		c-0.06,0.388-0.179,0.776-0.179,1.164C4.089,12.058,4.089,12.147,4.387,12.147z M9.819,6.477c0.119,0.119,0.597,0.597,0.597,0.687
		c0.12,0.209,0.179,0.597,0.508,0.716h0.447c0.12,0,0.776-0.12,0.896-0.12h2.985c0.328,0,0.328-0.089,0.388-0.298
		c0.209-0.597,0.716-1.164,0.716-1.851c0,0-0.209-0.089-0.328-0.089c-0.06,0-0.567-0.09-0.567-0.09h-3.313
		c-0.836,0.269-1.731,0-2.597,0.388v0.089C9.551,6.208,9.64,6.297,9.819,6.477z"/>
	<path d="M29.064,19.877c0,0,0.089-0.597,0.209-0.776c0-0.12,0.06-0.388,0.179-0.508l0.657-0.656c0.12-0.12,0.507-0.448,0.597-0.448
		c0.119,0,0.895-0.06,1.015-0.06c1.044-0.209,2.119-0.388,3.104-0.597c0.06,0,0.657-0.179,0.776-0.179l0.269-0.119
		c0.12,0,0.776-0.089,0.896-0.089c0.388-0.12,0.776-0.179,1.164-0.299c0.656-0.089,1.343-0.209,2.059-0.269
		c0.388-0.119,1.343-0.209,1.343-0.209l0.089-0.119c0,0,0.12-1.045,0.12-1.462v-0.209c0-0.179-0.12-0.179-0.328-0.179
		c-0.776,0-1.433,0.119-2.119,0.179c-0.12,0-0.985,0.119-1.104,0.119c-0.269,0-1.343,0.209-1.552,0.209
		c-0.776,0.06-1.612,0.388-2.388,0.388c-0.388,0-0.896-0.329-0.896-0.776c0-0.328,0.507-0.776,0.776-0.895
		c0,0,0.388-0.09,0.567-0.09c0.12,0,0.776-0.119,0.896-0.119l0.269-0.06h0.329l2.984-0.329c0.418,0,1.671-0.179,1.851-0.179
		c0.119,0,0.507-0.09,0.597-0.09c0.179-0.119,0.179-0.567,0.179-0.687c0-0.269,0-1.164-0.269-1.283h-0.567
		c-0.985,0-1.88,0.179-2.835,0.298H37.6c-1.164,0.089-2.328,0.388-3.492,0.597h-0.06c-0.388,0-1.104-0.508-1.104-0.985
		c0-0.179,0-0.388,0.209-0.507c0.179,0,0.896-0.06,0.955-0.06l0.209-0.119h0.179c1.671-0.209,3.224-0.478,4.895-0.597
		c0.089,0,1.164-0.06,1.253-0.06c0.896-0.12,1.851-0.12,2.716-0.209c0.776-0.119,1.552-0.179,2.328-0.298
		c0.179,0,1.97-0.09,2.179-0.09c0.06,0,0.955-0.119,1.045-0.119H49.3c0.567,0,0.687,0.209,1.164,0.507
		c0.299,0.089,0.687,0.209,0.687,0.597v0.06c0,0.119-0.298,0.388-0.388,0.507c-0.896,0-4.775,0.089-5.671,0.089
		c-0.269,0-1.552,0.12-1.821,0.12v1.94h4.596c0.06,0,1.343-0.089,1.433-0.089h0.12c0.06,0,0.388,0.208,0.448,0.208
		c0.119,0.06,0.597,0.269,0.716,0.388l0.179,0.179v0.089c-0.12,0.12-0.567,0.388-0.687,0.507l-0.09,0.06
		c-0.388,0.208-0.776,0.119-1.283,0.119l-0.269,0.089h-0.12c-0.06,0-0.567-0.089-0.657-0.089h-2.447
		c-0.119,0-0.298,0.089-0.388,0.089h-0.388c-0.388,0-1.164,0.12-1.164,0.12l-0.179,0.179v1.88h4.179
		c2.149,0,4.268,0.388,6.417,0.388h1.343c0.12,0,0.388-0.119,0.508-0.119c0.478-0.09,1.164-0.209,1.641-0.209
		c0,0.328-0.208,0.776-0.388,1.104c-0.09,0.179-0.687,0.657-0.776,0.776l-0.985,0.567c-0.388,0.328-1.462,0.776-1.94,0.776
		c-0.388,0-0.687-0.179-0.955-0.269c-1.164-0.388-2.447-0.687-3.701-0.896l-0.299-0.119c-0.089,0-0.388-0.06-0.478-0.06
		c-1.074-0.209-2.179-0.329-3.223-0.329H43.36c-0.269,0.209-0.656,0.12-0.985,0.12c-0.388,0-1.611,0.089-1.82,0.089
		c-0.955,0.12-2.06,0.388-3.015,0.687l-0.507,0.119c-0.657,0.209-0.866,0.269-1.433,0.478c-0.388,0.12-0.896,0.179-1.283,0.388
		c-0.09,0-0.597,0.298-0.776,0.388l-0.269,0.179l-0.388,0.12c-0.12,0-0.716,0.478-0.776,0.478c-0.388,0.298-1.402,1.075-1.88,1.075
		c-0.687,0-1.164-0.299-1.164-1.075V19.877z M35.66,6.864c-0.448,0-1.044-0.388-1.044-0.865c0-0.955,0.985-1.462,1.821-1.462
		c1.283,0,2.537,0.119,3.82,0.119h1.94c1.343,0,3.104-0.209,4.447-0.298c0.12,0,1.284-0.209,1.403-0.209h0.269
		c0.388,0,0.507,0.209,0.896,0.388c0.209,0.119,0.776,0.298,0.776,0.597v0.179C49.599,5.521,49.3,5.82,48.912,5.999
		c-0.866,0-5.253,0.209-6.148,0.209h-1.612l-0.328,0.089c-0.179,0-1.552,0.179-1.94,0.179c-0.12,0-1.343,0.119-1.462,0.119
		c-0.09,0-0.478,0.09-0.478,0.09c-0.12,0-0.776,0.089-0.896,0.089l-0.179,0.089H35.66z"/>
	<path d="M60.948,8.058c0,0,0.567-0.388,0.776-0.448c0.388-0.208,0.656-0.328,1.044-0.507c0.12,0,0.687-0.478,0.776-0.478h0.388
		c0.507,0,0.955,0.09,0.955,0.597c0,0.179,0,0.388-0.06,0.448c-0.388,0.507-2.657,1.104-3.313,1.283
		c-0.12,0-0.687,0.209-0.776,0.209c-0.119,0-0.507,0.06-0.507,0.06c-0.179,0-0.507-0.179-0.567-0.388
		C59.934,8.446,60.441,8.267,60.948,8.058z M62.112,19.28c-0.328,0.06-0.896,0.508-1.164,0.508h-0.119
		c-0.597-0.209-0.776-0.329-0.776-0.896v-0.209l0.06-0.12c0.328-0.567,0.328-0.567,0.835-0.955l0.06-0.089
		c0.507-0.388,0.985-0.119,1.283-0.388c0.478-0.507,0.866-0.955,1.164-1.671c0.269-0.567-0.12-1.074,0.866-1.074
		c0.507,0,0.776,0.298,0.776,0.806c0,0.597-0.388,1.164-0.657,1.642c-0.119,0.179-0.328,0.388-0.328,0.567v0.208
		c1.373,0,2.059,0.299,3.312,0.567c0.896,0.209,1.791,0.328,2.627,0.507c0.895,0.269,1.761,0.597,2.656,0.896
		c0.388,0.089,0.835,0.209,1.224,0.269l0.388,0.209c1.612,0.567,3.164,0.687,4.716,1.074c1.552,0.09,3.164,0.09,4.746,0.09
		c0.089,0.119,0.478,0.298,0.478,0.388v0.12c-0.896,1.433-3.223,2.119-4.775,2.119c-0.657,0-1.343-0.298-2-0.507
		c-0.12,0-0.508-0.06-0.597-0.06l-0.179-0.119c-1.015-0.269-1.88-0.657-2.775-1.164c-0.955-0.478-2.119-0.776-3.104-1.253
		c-0.06,0-0.567-0.299-0.657-0.388c-0.507-0.298-1.074-0.388-1.671-0.567l-0.179-0.12c-1.104-0.388-2.268-0.507-3.432-0.716
		c-0.06,0-0.388-0.06-0.448-0.06h-0.328C63.456,18.893,62.68,18.952,62.112,19.28z M60.948,4.387c0.06,0,0.567-0.328,0.657-0.328
		c0.12,0,0.776-0.269,0.896-0.269c0.448-0.179,1.224-1.074,1.821-1.074h0.119c0.06,0,0.388,0.179,0.388,0.179
		s0.179,0.388,0.179,0.597v0.12c0,0.06-0.119,0.388-0.119,0.388c-0.179,0.567-2.985,1.045-3.373,1.045
		c-0.388,0-1.075,0.119-1.075-0.478C60.441,4.447,60.829,4.387,60.948,4.387z M63.067,11.103c0.09-0.089,0.776-0.776,0.866-0.896
		c0.298-0.089,0.507-0.089,0.896-0.089h0.388c0.179,0.089,0.388,0.388,0.388,0.597c0,0.478-1.761,1.552-1.94,1.641
		c-0.716,0.388-1.493,0.597-2.269,0.597c-0.179,0-0.388-0.12-0.388-0.298C61.008,12.446,62.769,11.401,63.067,11.103z
		 M69.275,14.386c0-0.179,0.12-1.642,0.12-1.821c0-0.119,0.089-0.687,0.089-0.776c0-0.209,0.12-1.462,0.12-1.671
		c0-0.12,0.06-0.567,0.06-0.687c0-0.089-0.06-0.657-0.06-0.776V7.223c0.06-0.12,0.179-0.328,0.269-0.388
		c1.552-0.119,3.104-0.328,4.656-0.507l0.12-0.089c0.567-0.418,1.164-0.896,1.462-1.582V4.447c-0.12,0-0.806-0.06-0.896-0.06
		c-0.119,0-0.298-0.12-0.298-0.209h-1.821c-0.119-0.119-0.209-0.119-0.388-0.119c-0.329,0-0.597,0.208-0.896,0.328
		c-0.597,0.179-0.985,0.448-1.552,0.776l-0.269,0.06c-0.597,0.209-1.492,0.717-2.179,0.717c-0.597,0-0.985-0.329-1.373-0.597v-0.12
		c0-0.179,0.507-0.388,0.597-0.388c0.298-0.06,0.687-0.179,0.955-0.269c0.448-0.12,0.835-0.299,1.224-0.507
		c0.657-0.269,1.612-0.567,2.208-1.045l0.687-0.687c0.269-0.388,0.388-0.776,0.985-0.776c0.388,0,0.955,0.507,1.045,0.896
		c0,0.06,0.119,0.567,0.119,0.567s0.388,0.209,0.567,0.209c0.776,0.179,1.373,0.269,2.148,0.269
		c0.299,0.179,0.687,0.388,0.896,0.687v0.269c0,0.776-0.776,1.284-1.164,1.791l0.06,0.089h2.059c0.09,0,0.478,0.179,0.597,0.298
		c0.179,0.09,0.388,0.388,0.388,0.657v0.12c0,0.089-0.208,0.269-0.328,0.269h-1.164c-0.06,0-0.776-0.06-0.835-0.06l-0.388,0.06
		h-0.716c-0.06,0-0.448,0.119-0.567,0.119c-0.12,0.388-0.209,0.776-0.209,1.164l0.209,0.089h3.014c0.269,0,0.776,0.299,0.776,0.687
		c0,0.209-0.388,0.657-0.567,0.657h-3.044l-0.567,0.12c0,0-0.119,0.507-0.119,0.687v0.776c0.179,0.089,0.388,0.089,0.686,0.089
		h0.388c0.328,0,2.269-0.089,2.537-0.089h0.119c0.269,0,0.388,0.298,0.388,0.597c0,0.09,0.06,0.269-0.12,0.388
		c-0.209,0.089-0.776,0.388-0.865,0.388h-0.955c-0.329,0-2,0.09-2.269,0.09c-0.119,0.388-0.179,0.687-0.179,1.074v0.388
		c1.284,0.12,2.716,0.12,4,0.12c0.179,0,0.448,0.269,0.448,0.388c0,0.567-0.657,0.657-0.955,1.045h-1.164
		c-1.373,0-2.716-0.09-4.089-0.09h-1.462l-0.269,0.09c-0.12,0-0.776,0.119-0.896,0.119l-0.089,0.06
		c-0.299,0.597-0.179,1.164-0.896,1.373h-0.179c-0.388,0-0.478-0.597-0.478-0.866C69.007,16.176,69.216,15.281,69.275,14.386z
		 M70.947,15.072h1.761c0.06,0,0.567-0.06,0.656-0.06l0.179-0.239c0-0.089,0.12-0.656,0.12-0.776v-0.089
		c0-0.478-0.567-0.478-0.896-0.478c-0.269,0-1.731,0.089-1.821,0.179c-0.119,0.119-0.179,0.388-0.179,0.388v0.896L70.947,15.072z
		 M71.812,12.356c0,0,0.179-0.089,0.179-0.179h1.671c0,0,0.209-0.12,0.209-0.209c0.179-0.388,0.179-0.955,0.179-1.343
		c-0.896,0-1.851,0-2.716,0.09c-0.12,0.089-0.388,0.089-0.388,0.298c0,0.089-0.119,0.478-0.119,0.567v0.209
		C70.828,12.267,71.335,12.356,71.812,12.356z M71.156,9.431h0.448c0.119,0,0.388-0.089,0.507-0.089h0.657
		c0.328,0,1.164-0.12,1.283-0.299l0.09-0.208V7.79h-2.149c-0.179,0-0.776,0.09-0.776,0.09l-0.06,0.179V9.431z"/>
	<path d="M87.521,19.967c0.269,0,0.985,0.269,1.253,0.388c1.075,0.269,2.149,0.388,3.313,0.388h1.164l0.209-0.12h0.089l0.179,0.12
		h0.388c0.776,0,1.552-0.179,2.328-0.299c0.299,0,1.075-0.209,1.194-0.209c0.09,0,0.776-0.06,0.866-0.06l0.179-0.119
		c0.716-0.209,1.492-0.478,2.149-0.657c0.507-0.209,0.955-0.448,1.343-0.627c0.329-0.089,1.671-0.776,1.94-0.985l0.12-0.06
		c0.896-0.597,1.94-1.164,2.835-1.88c0.269-0.269,1.044-1.075,1.164-1.164l0.208-0.388c0.179-0.298-1.94-0.388-1.94-1.253
		l0.06-0.089c0.388-0.298,0.895-0.209,1.283-0.209c0.089,0,0.597-0.089,0.657-0.089h2.835c0.209,0,0.865,0.179,0.985,0.179
		c0.06,0,0.567,0.299,0.776,0.388c0.388,0.209,0.687,0.507,0.955,0.776c0.119,0.12,0.209,0.298,0.209,0.298s-0.09,0.388-0.209,0.597
		c-0.179,0.388-0.567,0.567-0.955,0.776h-0.089c-0.627-0.209-1.075-0.478-1.671-0.656c-0.388-0.12-0.896-0.329-1.284-0.329h-0.06
		c-2.06,2.06-4,4-6.656,5.283c-0.835,0.478-1.82,0.776-2.775,1.045c-2.06,0.716-4,1.373-6.148,1.761
		c-0.388,0.119-0.866,0.179-1.254,0.298c-0.776,0.09-1.462,0.209-2.238,0.209h-1.074c-1.671-0.507-2.448-1.492-2.448-3.223
		L87.521,19.967z M93.251,14.684c0.478,0.089,0.985,0.209,1.462,0.209c0.776,0,1.343-0.298,2.119-0.507l0.507-0.09
		c0.776-0.179,1.462-0.686,2.238-0.955c0.269,0,0.269,0.09,0.269,0.269c0,0.388-0.388,0.686-0.656,0.985l-0.299,0.418
		c-0.208,0.179-0.478,0.388-0.656,0.567c-0.896,0.776-2.567,2.029-3.731,2.029h-0.388l-0.388-0.388
		c-0.388-0.388-0.657-1.253-0.776-1.821C92.953,15.191,93.072,14.773,93.251,14.684z M93.729,9.938
		c0.507-0.388,1.373-0.209,1.671-0.716c0.089-0.06,0.388-0.567,0.388-0.567V8.387c0-0.597-0.299-0.896-0.508-1.373V6.834
		c-0.089-0.388-0.388-0.507-0.388-1.015c0-0.089,0-0.269,0.209-0.388c0.478-0.089,0.776-0.089,1.253-0.089s0.776,0.209,1.164,0.597
		l0.119,0.179c0,0.09-0.119,0.388-0.119,0.507c0,0.09-0.06,1.552-0.06,2.03v0.388h0.836c0.119,0,0.507-0.089,0.507-0.089
		c0.209,0,1.044-0.179,1.164-0.179c0.388-0.119,0.866-0.119,1.253-0.209c0.179-0.119,0.299-0.179,0.388-0.507
		c0-0.179,0.179-1.224,0.179-1.433V4.268c-0.06-0.597-0.657-0.656-0.657-1.253c0-0.687,0.657-0.895,1.253-0.895
		c0.507,0,1.164,0,1.164,0.716c0,0.388-0.209,0.776-0.209,1.164v2.328c0,0.12-0.06,1.164-0.06,1.283v0.657h1.343
		c0.12,0,0.896-0.089,0.985-0.089h1.164c1.552,0,3.014,0.209,4.566,0.209c0.388,0.06,0.597,0.567,0.597,0.955V9.61l-0.597,0.597
		h-0.687c-1.642,0-3.313-0.478-5.044-0.478c-1.671,0-3.433,0.09-5.044,0.388c-0.597,0.089-1.164,0.269-1.761,0.507
		c-0.687,0.179-1.671,0.388-2.358,0.657c-0.089,0.119-1.253,0.597-1.343,0.687c-0.299,0.089-0.866,0.388-1.164,0.388h-0.09
		c-0.119,0-0.507-0.388-0.507-0.478c0,0-0.089-0.597-0.089-0.776v-0.298C93.251,10.386,93.34,10.207,93.729,9.938z M101.996,15.281
		v-2.448l-0.478-0.567v-0.298c0-0.478,0.776-0.478,1.164-0.478c0.597,0,1.164,0.179,1.164,0.776c0,0.298-0.119,0.567-0.179,0.776
		c0,0.298-0.208,1.462-0.208,1.731c0,0.239-0.12,1.403-0.12,1.582c-0.06,0.478-0.448,1.94-1.044,1.94
		c-0.388,0-0.507-0.507-0.507-0.776C101.787,16.744,101.996,16.057,101.996,15.281z M105.727,5.342
		c0.179-0.12,0.836-0.298,0.955-0.388c0.866-0.388,1.433-1.283,2.417-1.283h0.12c0.06,0,0.448,0.209,0.567,0.328
		c0.089,0,0.478,0.269,0.597,0.388c0.179,0.179,0.179,0.448,0.179,0.657c0,0.507-0.119,0.776-0.507,1.074
		c-1.044,0.09-2.119,0.209-3.164,0.209h-0.896c-0.089,0-0.865-0.597-0.865-0.597C105.13,5.432,105.607,5.432,105.727,5.342z"/>
	<path d="M132.433,20.235c-2.597,0-5.253,0.388-7.879,0.776c-0.388,0.119-0.776,0.209-1.164,0.388
		c-0.478,0.209-0.985,0.209-1.433,0.388c0,0-0.597,0.328-0.776,0.388c-0.209,0.119-1.283,0.716-1.492,0.776
		c-0.179,0.328-1.075,0.716-1.463,0.716c-0.656,0-0.656-1.284-0.656-1.552c0-0.507,0.179-0.985,0.567-1.283
		c0.209-0.089,0.896-0.209,1.164-0.209c0.716-0.06,1.373-0.179,2.06-0.269c0.208,0,1.044-0.239,1.164-0.239l0.269-0.06
		c0.119,0,1.283-0.12,1.373-0.12c1.164-0.089,2.328-0.388,3.522-0.478h0.269c0.209,0,0.985-0.119,1.164-0.119
		c0.329-0.269,0.597-0.448,0.597-0.955v-0.209c0,0-0.269-0.06-0.388-0.06h-0.089c-0.955,0.06-2.06,0.179-3.015,0.388
		c-0.597,0.06-1.104,0.269-1.671,0.388l-0.269,0.06h-0.329c-0.06,0-0.179-0.179-0.179-0.179v-1.044c0,0,0.179-0.209,0.298-0.209
		c0.209-0.119,0.657-0.298,0.657-0.298h1.552c0.209-0.209,0.627-0.09,0.836-0.09c0.06,0,1.224-0.119,1.343-0.119h0.657
		c0.388,0,0.716-0.448,0.716-0.836l-0.119-0.208h-2.418c-0.507,0-1.791,0.208-1.791,0.208l-0.448,0.448h-0.119
		c-0.388,0-0.657-0.656-0.657-0.955V15.58c0.179-0.687,0.388-1.373,0.388-2.149c-0.12-0.388-0.12-0.985-0.388-1.373
		c-0.209-0.269-0.716-0.567-0.716-1.044h2.06c0.478,0,0.865-0.209,1.373-0.298c2.895-0.388,5.939-0.388,8.954-0.478
		c0-0.12,0.209-0.12,0.269-0.12h0.119c0.209,0.12,0.866,0.388,0.985,0.507c0.179,0.09,0.179,0.179,0.179,0.388
		c0,0.567-0.507,0.776-0.687,1.253c-0.269,0.776-0.597,1.462-0.656,2.417c-0.329,0.209-0.716,0.985-0.985,0.985
		c-0.299,0-0.508-0.089-0.806-0.089h-0.269c-0.12,0-0.776,0.089-0.896,0.089h-0.388c-0.597,0-1.761-0.089-1.761,0.776
		c0,0.179,0,0.298,0.329,0.388h0.776c1.164,0,2.328-0.269,3.611-0.269h0.388c0.269,0.06,0.179,0.388,0.179,0.448v0.328l-0.567,0.567
		h-0.985c-0.507,0-2.746,0.089-3.224,0.089c-0.388,0-0.567,0.298-0.567,0.687v0.269c0.06,0.119,0.388,0.209,0.448,0.209h1.104
		c1.164,0,2.328-0.209,3.492-0.209h4.179c0.089,0,0.865-0.06,0.985-0.06c0.269,0,1.462-0.12,1.731-0.12l0.119-0.089h0.657
		c0,0.388-0.089,0.865-0.269,1.253c-1.074,0.806-2.358,1.403-3.731,1.403h-0.06c-0.896-0.209-1.88-0.507-2.716-0.716
		c-0.985-0.179-2.06-0.179-3.044-0.269c-0.119,0-0.896-0.12-0.955-0.12H132.433z M119.121,9.729
		c-0.328-0.298-0.328-1.164-0.328-1.552c0-0.388,0.448-0.687,0.627-1.075c0.208-0.269,0.269-0.776,0.478-1.044
		c0.179-0.328,0.686-0.597,0.955-0.776c0.119-0.12,0.328-0.239,0.328-0.239c0.06,0,0.657-0.09,0.776-0.09
		c0.388-0.119,0.776-0.179,1.164-0.298c0.955-0.209,1.94-0.269,2.895-0.388c0.209,0,1.492-0.089,1.671-0.089
		c0.089,0,0.597-0.119,0.657-0.119c0.209,0,1.104-0.179,1.164-0.388c0-0.06,0.209-0.776,0.209-0.836V1.94l-0.09-0.09l-0.388-0.567
		V0.507C129.448,0.298,129.627,0,129.896,0h0.209l0.12,0.119c0.06,0.06,0.835,0.388,0.955,0.448c0.269,0.12,0.388,0.209,0.388,0.507
		c0,0.388-0.119,0.657-0.179,1.045c0,0.119-0.12,0.597-0.12,0.716V3.79l0.179,0.209h0.716c0.06,0,0.567-0.119,0.657-0.119
		c0.179,0,1.552,0.119,1.791,0.119c0.06,0,0.567-0.119,0.657-0.119h0.119c0.179,0,1.821,0.119,2,0.119
		c1.492,0,2.716-0.119,3.82,0.955c0,0,0.179,0.209,0.179,0.329c0.089,0.269,0.478,1.044,0.478,1.164v0.567
		c-0.209,0.985-0.657,1.552-1.433,2.149l-0.209,0.06h-0.12l-0.06-0.179l-0.329-0.089c-0.388-0.179-0.388-0.567-0.388-0.955
		c0-0.507,0.119-0.985,0.119-1.552V5.73c-0.298-0.179-0.507-0.269-0.895-0.269c-0.388-0.12-1.552-0.179-1.612-0.179h-5.551
		c-0.209,0.06-0.209,0.06-0.388,0.06c-0.209,0-0.328-0.06-0.388-0.06c-0.597,0-0.985,0.269-1.492,0.269h-1.044
		c-0.896,0-1.671,0.298-2.447,0.388c-0.12,0-0.776,0.119-0.896,0.119c-0.06,0-1.045,0.179-1.343,0.269
		c-0.209,0-1.044,0.298-1.164,0.298c-0.597,0.209-0.985,0.388-1.044,0.985c0,0.06-0.209,1.045-0.209,1.164
		c0,0.06-0.179,0.657-0.179,0.776l-0.119,0.179c-0.09,0.09-0.597,0.597-0.657,0.687h-0.328l-0.179-0.298L119.121,9.729z
		 M121.837,25.011c-0.09,0-0.269,0-0.269-0.179c0.388-0.388,0.836-0.896,1.224-1.164c0.328-0.329,0.716-0.507,0.985-0.776
		c0.298-0.388,0.119-0.597,0.687-0.716h0.089c0.388,0,1.164,0.388,1.164,0.776c0,0.328,0,0.716-0.269,0.895
		c0,0-0.716,0.388-0.985,0.597c-0.179,0.06-0.687,0.388-0.687,0.388c-0.478,0.179-1.045,0.06-1.552,0.06l-0.269,0.119H121.837z
		 M122.345,2.895c-0.12,0-0.388-0.269-0.507-0.269v-0.12l0.119-0.06c0.06,0,0.657-0.209,0.776-0.209l1.552-0.567
		c0.269-0.209,0.448-0.329,0.835-0.329h0.209c0.12,0.12,0.687,0.716,0.776,0.776c0.119,0.208,0.119,0.328,0.119,0.507
		c0,0,0.06,0.388-0.119,0.388c-0.597,0.209-1.164,0.209-1.761,0.209c-0.776,0-1.224,0-1.94-0.209L122.345,2.895z M134.791,7.879
		c-0.507,0.567-0.806,1.731-1.671,1.731c-0.388,0-0.776-0.06-1.283-0.06c-1.343,0-2.597,0.269-3.94,0.388
		c-0.328,0.299-0.776,0.299-1.283,0.299c-0.12,0-0.209,0.089-0.329-0.12c-0.06-0.179-0.179-0.567-0.179-0.776
		c0-0.388,0.179-0.776,0.179-1.164V7.999l-0.567-0.597V7.014c0-0.119,0.298-0.388,0.388-0.388h0.179c0.209,0,0.388,0,0.507,0.09
		h0.597c0.955,0,2.06-0.209,3.015-0.269c1.253-0.12,2.537-0.12,3.76-0.12h0.896c0,0,0.328,0.12,0.328,0.179v0.716l-0.119,0.06
		L134.791,7.879z M129.717,13.729c0,0-0.985,0.089-1.373,0.089c-0.657,0.09-1.552,0.09-2.238,0.299c-0.09,0-0.209,0.089-0.209,0.089
		v0.687c0,0.089,0.328,0.269,0.388,0.269h0.12c0.716-0.089,1.552-0.089,2.268-0.269l0.269-0.209h0.776
		c0.179-0.089,0.179-0.478,0.179-0.687v-0.179L129.717,13.729z M126.016,12.744c0,0.089,0.209,0.388,0.269,0.388h0.209l0.418-0.09
		c0.089,0,1.044-0.089,1.164-0.089l0.388-0.12c0.597-0.089,1.373,0.12,1.373-0.776c0,0,0-0.388-0.119-0.388h-1.761
		c-0.448,0.208-1.94,0.119-1.94,0.985V12.744z M128.165,21.608l1.284,0.567v2.656l-0.508,0.567h-0.985l-0.06-0.12
		c-0.12-0.179-0.328-0.835-0.328-0.835v-2.537c0-0.119,0.388-0.298,0.507-0.298H128.165z M131.388,7.61
		c-0.12,0-0.507,0.06-0.597,0.06c-0.955,0.119-1.851,0.328-2.835,0.328c-0.06,0.06-0.06,0.269-0.06,0.448
		c0,0.119,0,0.328,0.179,0.388h0.865c0.12,0,0.388-0.06,0.508-0.06c1.044-0.119,2.119-0.119,3.164-0.328
		c0.388-0.06,0.507-0.567,0.507-0.836H131.388z M131,14.386c0,0.119,0.269,0.298,0.388,0.298H133c0.329,0,1.373-0.179,1.671-0.179
		C134.88,14.296,135,13.52,135,13.222c-1.015,0-2.06,0.119-3.044,0.298c-0.119,0-0.687,0.09-0.776,0.09
		c0,0.119-0.179,0.597-0.179,0.686V14.386z M135.059,11.282c-1.164,0.119-2.447,0.119-3.611,0.209
		c-0.179,0.089-0.179,0.478-0.179,0.687c0,0.269,0.179,0.388,0.507,0.388c0.657,0,1.224-0.119,1.94-0.119
		c0.388,0,0.657,0.119,0.955,0.298c0.12,0.089,0.329,0.209,0.329,0.209c0.269,0,0.388-1.075,0.388-1.373v-0.179L135.059,11.282z
		 M131.776,23.847c-0.209-0.567-0.328-1.283-0.328-1.85c0-0.269,0.119-0.597,0.507-0.597h0.089c0.776,0.209,0.955,0.388,0.955,1.284
		c0,0.388,0,1.94-0.448,1.94c-0.208,0-0.507,0-0.597-0.179L131.776,23.847z M135.059,2.716c-0.567,0-0.955-0.388-0.955-0.985
		c0-0.388,0-0.388,0.06-0.776c0-0.06,0.12-0.269,0.12-0.269h2.537c0.12,0,0.776-0.299,0.896-0.299h0.06l0.209,0.179
		c0,0.597-0.388,1.373-0.865,1.671c-0.12,0-0.776,0.269-0.896,0.269l-0.179,0.12c0,0-0.657,0.089-0.865,0.089H135.059z
		 M136.223,24.056c-0.06-0.119-0.269-0.716-0.388-0.776c-0.06-0.328-0.388-0.776-0.388-0.985c0-0.119,0-0.179,0.209-0.298h0.686
		l0.388,0.298c0.089,0.089,0.478,0.269,0.597,0.388c0.388,0.269,0.657,0.478,1.045,0.776c0.507,0.388,1.283,0.478,1.283,1.164v0.269
		c0,0.119-0.328,0.328-0.388,0.328c-0.209,0-0.896,0.06-1.104,0.06l-0.269,0.12h-0.12c-0.179,0-0.179,0-0.388-0.12
		c-0.179-0.06-0.567-0.269-0.567-0.269c-0.089-0.119-0.388-0.776-0.478-0.895L136.223,24.056z"/>
</g>
</svg>
