<?xml version="1.0" encoding="utf-8"?>
<!-- Generator: Adobe Illustrator 17.0.0, SVG Export Plug-In . SVG Version: 6.00 Build 0)  -->
<!DOCTYPE svg PUBLIC "-//W3C//DTD SVG 1.1//EN" "http://www.w3.org/Graphics/SVG/1.1/DTD/svg11.dtd">
<svg version="1.1" id="Layer_1" xmlns="http://www.w3.org/2000/svg" xmlns:xlink="http://www.w3.org/1999/xlink" x="0px" y="0px"
	 width="88.203px" height="25.399px" viewBox="0 0 88.203 25.399" enable-background="new 0 0 88.203 25.399" xml:space="preserve">
<g>
	<path d="M8.566,19.28v-3.343H8.387l-0.119,0.12c-0.478,0.597-0.985,1.164-1.433,1.761l-0.209,0.179
		c-0.12,0.119-1.075,0.985-1.164,1.104c-0.12,0.06-0.776,0.776-0.896,0.835c-0.388,0.388-0.955,0.507-1.552,0.507
		c-0.12,0-0.388,0-0.567-0.119c-0.119-0.06-0.507-0.448-0.597-0.567l-0.12-0.478l-0.06-0.179v-0.12l0.06-0.388
		c0-0.089,0.12-0.597,0.12-0.656H1.94l0.567,0.448h0.209l0.12-0.06c0.06,0,0.776-0.328,0.835-0.328c0.12,0,0.716-0.298,0.836-0.388
		c1.224-0.776,3.373-2.059,3.761-3.611H8.059c-0.776,0.209-1.552,0.507-2.328,0.776c-0.657,0.209-1.224,0.508-1.851,0.776
		c-0.089,0-0.388,0.328-0.478,0.328c-0.567,0.269-1.074,0.776-1.851,0.776H1.283l-0.209-0.208v-0.299c0-0.269,0-0.985,0.388-1.164
		l0.478-0.089c0.179-0.12,1.851-0.627,2.358-0.806c0.478-0.209,0.776-0.388,1.253-0.478c0.298-0.12,2.895-0.567,2.895-0.896V11.67
		c-0.448,0-0.567,0.089-1.044,0.208c-0.776,0.179-1.552,0.269-2.328,0.567c-0.567,0.209-1.194,0.478-1.791,0.657
		c-0.06,0-0.567,0.119-0.657,0.119l-0.298,0.089c-0.09,0-0.209-0.089-0.269-0.208v-0.388c0-0.179,0.06-0.776,0.388-0.836
		c0.06,0,0.567-0.119,0.657-0.119l0.179-0.089c0.895-0.299,1.88-0.388,2.775-0.687c0.179-0.12,0.269-0.388,0.269-0.597
		c0-0.388-0.209-1.164-0.776-1.164H5.342c0,0-0.388,0.09-0.567,0.209c-0.09,0-0.985,0.388-1.104,0.388l-2.119,0.835
		c-0.269,0.12-0.597,0.329-0.865,0.329C0.298,10.983,0,10.774,0,10.476c0-0.269,0.119-1.044,0.298-1.164
		c0.597-0.388,1.373-0.388,2.03-0.597l1.731-0.567c3.611-0.896,7.312-1.164,10.924-1.164c0,0.388-0.388,1.164-0.866,1.164h-2.179
		c-0.179,0-0.388,0.507-0.448,0.567c0,0.12-0.328,0.507-0.388,0.597L10.774,9.7c0,0,0.119,0.179,0.119,0.298
		c0.478,0,0.985-0.119,1.552-0.119c0.209,0,0.985-0.06,0.985,0.328c0,0.448-0.597,1.075-1.044,1.075h-2.269
		c-0.179,0-0.298,1.044-0.298,1.164c0,0.089,0,0.209,0.179,0.209c0.597,0,1.104-0.12,1.671-0.12h0.388
		c0.508,0,1.552,0.12,1.552,0.12l0.209,0.179v0.269c0,0.507-0.269,0.895-0.776,0.895c-0.866,0-1.672-0.298-2.537-0.298h-0.298
		c-0.09,0-0.388,0.119-0.388,0.119v0.896c0,0.06,1.731,0.567,2.06,0.657l0.895,0.896v0.179c0,0-0.328,0.089-0.507,0.208
		c-0.328,0.06-0.388,0.06-0.776,0.06c-0.597,0-0.896-0.567-1.492-0.776H9.819v1.104l0.119,0.269c0,0.12,0.06,1.194,0.06,1.283
		c0.119,0.508,0.388,0.955,0.388,1.463c0,0.656-0.567,1.164-1.164,1.164c-0.388,0-0.448-0.12-0.567-0.508
		C8.655,20.534,8.566,19.489,8.566,19.28z M4.566,6.088c0-0.269,0.328-0.776,0.597-0.866c0.388-0.179,0.896-0.179,1.284-0.298
		l0.269-0.089c0.896-0.298,1.671-0.388,2.626-0.478c0.776-0.09,1.433-0.209,2.208-0.209c0.716,0,1.104,0,1.88,0.119v0.269
		l-0.269,0.298c-0.119,0.209-0.328,0.597-0.507,0.687c-0.089,0.089-0.478,0.298-0.597,0.298H11.67c-0.179,0-1.462-0.12-1.671-0.12
		c-0.955,0-2,0.209-2.985,0.388C6.447,6.208,5.85,6.596,5.283,6.596h-0.12c-0.089,0-0.478-0.209-0.597-0.298V6.088z M7.402,9.043
		l0.089,0.388v1.164c0.388,0,0.955-0.12,1.284-0.209c0,0,0.269-0.119,0.388-0.119c0.06,0,0.269-0.06,0.269-0.06
		c0.388-0.388,0.507-1.283,0.507-1.88c-0.776,0-1.671,0.119-2.447,0.388c-0.089,0-0.089,0.12-0.089,0.209V9.043z M21.221,18.385
		c0-0.06,0.089-0.687,0.089-0.776v-2.895l-0.089-0.119c0,0-0.299,0.119-0.388,0.119c-0.388,0.06-0.507,0.836-0.567,1.164
		c-0.507,1.343-1.671,2.507-2.776,3.402c-0.657,0.597-1.343,1.164-2.119,1.433l-0.478,0.12l-0.179,0.089h-0.119
		c-0.209,0-0.388-0.388-0.388-0.597c-0.089-0.657-0.089-1.224-0.089-1.94h1.642c1.164-0.06,3.223-1.851,3.402-2.895v-0.388h-0.119
		c-0.06,0-0.388,0.06-0.388,0.06c-0.179,0.12-1.164,0.597-1.343,0.716h-0.478c0,0-0.119-0.209-0.119-0.328
		c-0.06-0.269-0.269-0.567-0.269-0.955v-0.09l0.089-0.239c0.12-0.269,0.388-1.044,0.388-1.164c0-0.06,0.119-0.836,0.119-0.955
		l0.06-0.209V9.491c0,0-0.06-0.567-0.179-0.776c-0.09-0.388-0.209-0.776-0.388-1.044c0-0.12-0.388-0.418-0.388-0.507V6.984
		l0.388-0.298l0.298-0.299c0,0,0.209-0.089,0.269-0.089c0.209,0,0.776-0.209,0.896-0.209c0.209,0,1.254-0.179,1.433-0.179h0.448
		c0.388-0.089,0.657-0.209,1.044-0.298h0.179c0.716-0.089,1.284-0.298,1.94-0.388c0.776-0.089,1.552-0.179,2.328-0.179h0.507
		l0.209,0.269v1.373c0,0-0.328,0.179-0.388,0.298c-0.119,0.089-0.388,0.179-0.507,0.388c-0.478,0.776-0.776,1.552-0.776,2.507
		c0,0.597-0.089,3.224-0.089,3.82c-0.388,0.687-0.955,0.806-1.671,0.896c-0.179,0.179-0.179,0.567-0.179,0.776
		c0,0.298-0.089,1.462-0.089,1.671c0,0.567,0.089,1.164,0.656,1.343c0.209,0.119,0.896,0.208,0.985,0.208h3.79
		c0.299-0.089,0.508-0.089,0.896-0.208c0.09,0,0.657-0.179,0.866-0.179c0.179,0,0.687-0.209,0.776-0.209
		c0.478-0.06,0.776-0.388,1.343-0.388c0.119,0,0.119,0.09,0.119,0.209v0.12c0,0.06-0.119,0.269-0.119,0.388
		c-0.269,0.836-0.776,2-1.731,2.388c-0.208,0.12-1.074,0.388-1.164,0.388h-0.597c-1.462,0-2.716-0.657-4.059-0.835
		c-0.597-0.12-1.164-0.12-1.761-0.329c-0.508-0.179-1.164-0.835-1.164-1.343V18.385z M18.594,7.76c0,0.179,0.179,0.896,0.179,1.075
		h0.269c0.119,0,1.402-0.299,1.492-0.299c0.896-0.208,1.731-0.208,2.626-0.388l0.209-0.09c0-0.119,0.179-0.597,0.179-0.686
		c0-0.209,0.089-0.597,0.089-0.597l-0.089-0.089h-0.687c-0.866,0-1.552,0.089-2.418,0.298c-0.179,0-1.85,0.388-1.85,0.687V7.76z
		 M19.877,12.326c-0.328,0.12-0.835,0-1.104,0.329c-0.179,0.179-0.179,0.448-0.179,0.776v0.448c0.776-0.06,1.552-0.388,2.328-0.448
		c0.567-0.12,1.075-0.12,1.672-0.328c0.06,0,0.179-0.06,0.179-0.06v-0.985C21.698,12.058,20.833,12.147,19.877,12.326z
		 M21.698,9.312L21.43,9.431c-0.716,0.06-2,0.179-2.448,0.657c-0.119,0.119-0.208,0.298-0.208,0.298v0.985
		c0.478,0,1.104-0.209,1.552-0.269c0.716-0.119,1.373-0.239,2.06-0.328c0.089,0,0.269-0.12,0.388-0.12
		c0.09,0,0.209-0.179,0.209-0.269c0.06-0.298,0.06-0.776,0.06-1.074H21.698z"/>
	<path d="M54.253,20.922l-0.328-0.269l-0.179-0.119c-0.388-0.209-0.657-0.597-1.044-0.866l-1.493-1.283
		c-0.06-0.06-0.776-0.896-0.895-0.955c-0.269-0.329-0.657-0.597-0.836-0.985c-0.507-0.687-1.104-1.284-1.671-1.94
		c-0.388-0.507-1.433-1.97-2.029-1.97c-0.776,0-1.552,0-2.328,0.12l-0.418,0.06c-0.089,0-1.373,0.119-1.433,0.119
		c-0.716,0.09-1.373,0.209-2.06,0.388c-0.208,0-0.656,0.209-0.776,0.209c-0.089,0-0.478,0.179-0.597,0.179
		c-0.567,0.269-0.388,0.985-0.448,1.552c0,0.12-0.12,0.507-0.12,0.597v0.298h1.462c0.09,0,0.597-0.12,0.657-0.12l2.328-0.179h2.776
		c0.269,0.119,0.656,0.388,0.656,0.776c0,0.179-0.269,0.388-0.478,0.388h-2.447l-0.179,0.119c-1.164,0-2.268,0.179-3.313,0.388
		c-0.567,0.06-1.283,0.06-1.85,0.388c-0.478,0.298-0.985,0.687-1.433,0.955c-0.209,0.12-1.015,0.507-1.224,0.597
		c0,0-0.179,0.119-0.269,0.119h-0.119c-0.06,0-0.269-0.119-0.269-0.119v-1.433c0,0,0.269-0.507,0.388-0.627l0.388-0.388l0.478-0.09
		c0.179,0,0.806-0.179,0.806-0.179l0.269-0.208l0.119-0.179c0.209-0.776,0.269-1.671,0.269-2.388V13.61
		c0-0.12-0.06-1.164-0.06-1.284v-1.044c0-0.806-0.507-1.791-1.104-2.239V8.267l0.329-0.328l0.269-0.179h0.567
		c0.507,0,0.896,0.12,1.284,0.567c0.208,0.328,0.089,0.507,0.478,0.507c0.567,0,1.462-0.299,2.059-0.388
		c0.836-0.179,1.612-0.298,2.507-0.388l0.089-0.179V7.76c0-0.089-0.209-0.507-0.269-0.597c-0.119-0.299-0.597-1.075-0.776-1.164
		l-0.329,0.089L39.27,6.387l-0.209,0.09c0,0-0.507,0.119-0.567,0.119h-0.119c-0.269,0-0.478-0.388-0.478-0.687
		c0-0.388,0.089-0.985,0.478-1.253c3.283-0.119,6.625-0.507,9.938-0.507h1.224c0.12,0,1.612,0.119,2.179,0.209
		c0.478,0,1.373,0,1.373,0.776c0,0.687-1.164,1.343-1.492,2.03c-0.179,0.298-0.179,0.716-0.269,0.985
		c-0.12,0.298-0.627,0.687-0.806,0.955l-0.089,0.119h-2.119c-0.388-0.179-0.985-0.119-1.283-0.119h-0.866l-0.179,0.328v0.06
		c0,0.12,0.269,0.507,0.269,0.597l0.179,0.179c0,0,0.209,0.208,0.209,0.328l0.12,0.179c0.06,0.089,0.388,0.388,0.388,0.388h6.715
		c0.06,0,0.448,0.12,0.567,0.12c0.089,0,0.478,0.209,0.597,0.269l0.06,0.12c0,0.478-0.269,1.164-0.836,1.164
		c-0.896,0-1.671-0.119-2.537-0.179c-0.179,0-1.403-0.12-1.582-0.12c-0.388,0-0.776-0.089-1.164-0.089h-0.478l-0.179,0.209v0.06
		c0.06,0.119,0.388,0.388,0.448,0.507l0.209,0.269c0.179,0.209,0.388,0.209,0.507,0.507c0.269,0.269,1.731,1.493,2.06,1.761
		l0.06,0.119c0.12,0,0.507,0.269,0.597,0.269c0.298,0.12,0.388,0.388,0.686,0.507c0.388,0.179,0.388,0.06,0.657,0.448
		c0.328,0.12,1.492,0.836,1.761,0.896c1.075,0.507,2.239,1.164,3.492,1.373c0.12,0,0.687,0.119,0.806,0.119
		c0.179,0,0.866,0.06,0.866,0.388v0.06c-1.074,1.284-1.94,1.284-3.492,1.284h-0.776c-0.209,0-1.373-0.12-1.552-0.12
		C54.522,21.101,54.313,20.922,54.253,20.922z M38.285,12.147c0.985,0,2.03-0.269,2.985-0.388c1.164-0.089,2.388-0.209,3.552-0.388
		c0.06,0,0.269-0.089,0.269-0.089c0-0.298-0.597-0.806-0.657-1.015c-0.12-0.06-0.388-0.836-0.507-0.955l-0.09-0.09h-0.298
		c-1.492,0-2.925,0.478-4.268,0.985c-0.119,0-0.507,0.179-0.597,0.179c-0.12,0-0.388,0-0.507,0.209
		c-0.06,0.388-0.179,0.776-0.179,1.164C37.987,12.058,37.987,12.147,38.285,12.147z M43.717,6.477
		c0.119,0.119,0.597,0.597,0.597,0.687c0.12,0.209,0.179,0.597,0.508,0.716h0.447c0.12,0,0.776-0.12,0.896-0.12h2.985
		c0.328,0,0.328-0.089,0.388-0.298c0.209-0.597,0.716-1.164,0.716-1.851c0,0-0.209-0.089-0.328-0.089c-0.06,0-0.567-0.09-0.567-0.09
		h-3.313c-0.836,0.269-1.731,0-2.597,0.388v0.089C43.449,6.208,43.538,6.297,43.717,6.477z"/>
	<path d="M76.921,20.235c-2.597,0-5.253,0.388-7.879,0.776c-0.388,0.119-0.776,0.209-1.164,0.388
		c-0.478,0.209-0.985,0.209-1.433,0.388c0,0-0.597,0.328-0.776,0.388c-0.209,0.119-1.283,0.716-1.492,0.776
		c-0.179,0.328-1.075,0.716-1.463,0.716c-0.656,0-0.656-1.284-0.656-1.552c0-0.507,0.179-0.985,0.567-1.283
		c0.209-0.089,0.896-0.209,1.164-0.209c0.716-0.06,1.373-0.179,2.06-0.269c0.208,0,1.044-0.239,1.164-0.239l0.269-0.06
		c0.119,0,1.283-0.12,1.373-0.12c1.164-0.089,2.328-0.388,3.522-0.478h0.269c0.209,0,0.985-0.119,1.164-0.119
		c0.329-0.269,0.597-0.448,0.597-0.955v-0.209c0,0-0.269-0.06-0.388-0.06h-0.089c-0.955,0.06-2.06,0.179-3.015,0.388
		c-0.597,0.06-1.104,0.269-1.671,0.388l-0.269,0.06h-0.329c-0.06,0-0.179-0.179-0.179-0.179v-1.044c0,0,0.179-0.209,0.298-0.209
		c0.209-0.119,0.657-0.298,0.657-0.298h1.552c0.209-0.209,0.627-0.09,0.836-0.09c0.06,0,1.224-0.119,1.343-0.119h0.657
		c0.388,0,0.716-0.448,0.716-0.836l-0.119-0.208h-2.418c-0.507,0-1.791,0.208-1.791,0.208l-0.448,0.448H69.43
		c-0.388,0-0.657-0.656-0.657-0.955V15.58c0.179-0.687,0.388-1.373,0.388-2.149c-0.12-0.388-0.12-0.985-0.388-1.373
		c-0.209-0.269-0.716-0.567-0.716-1.044h2.06c0.478,0,0.865-0.209,1.373-0.298c2.895-0.388,5.939-0.388,8.954-0.478
		c0-0.12,0.209-0.12,0.269-0.12h0.119c0.209,0.12,0.866,0.388,0.985,0.507c0.179,0.09,0.179,0.179,0.179,0.388
		c0,0.567-0.507,0.776-0.687,1.253c-0.269,0.776-0.597,1.462-0.656,2.417c-0.329,0.209-0.716,0.985-0.985,0.985
		c-0.299,0-0.508-0.089-0.806-0.089h-0.269c-0.12,0-0.776,0.089-0.896,0.089h-0.388c-0.597,0-1.761-0.089-1.761,0.776
		c0,0.179,0,0.298,0.329,0.388h0.776c1.164,0,2.328-0.269,3.611-0.269h0.388c0.269,0.06,0.179,0.388,0.179,0.448v0.328l-0.567,0.567
		h-0.985c-0.507,0-2.746,0.089-3.224,0.089c-0.388,0-0.567,0.298-0.567,0.687v0.269c0.06,0.119,0.388,0.209,0.448,0.209h1.104
		c1.164,0,2.328-0.209,3.492-0.209h4.179c0.089,0,0.865-0.06,0.985-0.06c0.269,0,1.462-0.12,1.731-0.12l0.119-0.089h0.657
		c0,0.388-0.089,0.865-0.269,1.253c-1.074,0.806-2.358,1.403-3.731,1.403h-0.06c-0.896-0.209-1.88-0.507-2.716-0.716
		c-0.985-0.179-2.06-0.179-3.044-0.269c-0.119,0-0.896-0.12-0.955-0.12H76.921z M63.61,9.729c-0.328-0.298-0.328-1.164-0.328-1.552
		c0-0.388,0.448-0.687,0.627-1.075c0.208-0.269,0.269-0.776,0.478-1.044c0.179-0.328,0.686-0.597,0.955-0.776
		c0.119-0.12,0.328-0.239,0.328-0.239c0.06,0,0.657-0.09,0.776-0.09c0.388-0.119,0.776-0.179,1.164-0.298
		c0.955-0.209,1.94-0.269,2.895-0.388c0.209,0,1.492-0.089,1.671-0.089c0.089,0,0.597-0.119,0.657-0.119
		c0.209,0,1.104-0.179,1.164-0.388c0-0.06,0.209-0.776,0.209-0.836V1.94l-0.09-0.09l-0.388-0.567V0.507
		C73.937,0.298,74.116,0,74.384,0h0.209l0.12,0.119c0.06,0.06,0.835,0.388,0.955,0.448c0.269,0.12,0.388,0.209,0.388,0.507
		c0,0.388-0.119,0.657-0.179,1.045c0,0.119-0.12,0.597-0.12,0.716V3.79l0.179,0.209h0.716c0.06,0,0.567-0.119,0.657-0.119
		c0.179,0,1.552,0.119,1.791,0.119c0.06,0,0.567-0.119,0.657-0.119h0.119c0.179,0,1.821,0.119,2,0.119
		c1.492,0,2.716-0.119,3.82,0.955c0,0,0.179,0.209,0.179,0.329c0.089,0.269,0.478,1.044,0.478,1.164v0.567
		c-0.209,0.985-0.657,1.552-1.433,2.149l-0.209,0.06h-0.12l-0.06-0.179l-0.329-0.089c-0.388-0.179-0.388-0.567-0.388-0.955
		c0-0.507,0.119-0.985,0.119-1.552V5.73c-0.298-0.179-0.507-0.269-0.895-0.269c-0.388-0.12-1.552-0.179-1.612-0.179h-5.551
		c-0.209,0.06-0.209,0.06-0.388,0.06c-0.209,0-0.328-0.06-0.388-0.06c-0.597,0-0.985,0.269-1.492,0.269h-1.044
		c-0.896,0-1.671,0.298-2.447,0.388c-0.12,0-0.776,0.119-0.896,0.119c-0.06,0-1.045,0.179-1.343,0.269
		c-0.209,0-1.044,0.298-1.164,0.298c-0.597,0.209-0.985,0.388-1.044,0.985c0,0.06-0.209,1.045-0.209,1.164
		c0,0.06-0.179,0.657-0.179,0.776l-0.119,0.179c-0.09,0.09-0.597,0.597-0.657,0.687h-0.328l-0.179-0.298L63.61,9.729z
		 M66.326,25.011c-0.09,0-0.269,0-0.269-0.179c0.388-0.388,0.836-0.896,1.224-1.164c0.328-0.329,0.716-0.507,0.985-0.776
		c0.298-0.388,0.119-0.597,0.687-0.716h0.089c0.388,0,1.164,0.388,1.164,0.776c0,0.328,0,0.716-0.269,0.895
		c0,0-0.716,0.388-0.985,0.597c-0.179,0.06-0.687,0.388-0.687,0.388c-0.478,0.179-1.045,0.06-1.552,0.06l-0.269,0.119H66.326z
		 M66.833,2.895c-0.12,0-0.388-0.269-0.507-0.269v-0.12l0.119-0.06c0.06,0,0.657-0.209,0.776-0.209l1.552-0.567
		c0.269-0.209,0.448-0.329,0.835-0.329h0.209c0.12,0.12,0.687,0.716,0.776,0.776c0.119,0.208,0.119,0.328,0.119,0.507
		c0,0,0.06,0.388-0.119,0.388c-0.597,0.209-1.164,0.209-1.761,0.209c-0.776,0-1.224,0-1.94-0.209L66.833,2.895z M79.279,7.879
		c-0.507,0.567-0.806,1.731-1.671,1.731c-0.388,0-0.776-0.06-1.283-0.06c-1.343,0-2.597,0.269-3.94,0.388
		c-0.328,0.299-0.776,0.299-1.283,0.299c-0.12,0-0.209,0.089-0.329-0.12c-0.06-0.179-0.179-0.567-0.179-0.776
		c0-0.388,0.179-0.776,0.179-1.164V7.999l-0.567-0.597V7.014c0-0.119,0.298-0.388,0.388-0.388h0.179c0.209,0,0.388,0,0.507,0.09
		h0.597c0.955,0,2.06-0.209,3.015-0.269c1.253-0.12,2.537-0.12,3.76-0.12h0.896c0,0,0.328,0.12,0.328,0.179v0.716l-0.119,0.06
		L79.279,7.879z M74.205,13.729c0,0-0.985,0.089-1.373,0.089c-0.657,0.09-1.552,0.09-2.238,0.299c-0.09,0-0.209,0.089-0.209,0.089
		v0.687c0,0.089,0.328,0.269,0.388,0.269h0.12c0.716-0.089,1.552-0.089,2.268-0.269l0.269-0.209h0.776
		c0.179-0.089,0.179-0.478,0.179-0.687v-0.179L74.205,13.729z M70.504,12.744c0,0.089,0.209,0.388,0.269,0.388h0.209l0.418-0.09
		c0.089,0,1.044-0.089,1.164-0.089l0.388-0.12c0.597-0.089,1.373,0.12,1.373-0.776c0,0,0-0.388-0.119-0.388h-1.761
		c-0.448,0.208-1.94,0.119-1.94,0.985V12.744z M72.653,21.608l1.284,0.567v2.656l-0.508,0.567h-0.985l-0.06-0.12
		c-0.12-0.179-0.328-0.835-0.328-0.835v-2.537c0-0.119,0.388-0.298,0.507-0.298H72.653z M75.877,7.61c-0.12,0-0.507,0.06-0.597,0.06
		c-0.955,0.119-1.851,0.328-2.835,0.328c-0.06,0.06-0.06,0.269-0.06,0.448c0,0.119,0,0.328,0.179,0.388h0.865
		c0.12,0,0.388-0.06,0.508-0.06c1.044-0.119,2.119-0.119,3.164-0.328c0.388-0.06,0.507-0.567,0.507-0.836H75.877z M75.489,14.386
		c0,0.119,0.269,0.298,0.388,0.298h1.611c0.329,0,1.373-0.179,1.671-0.179c0.209-0.209,0.329-0.985,0.329-1.283
		c-1.015,0-2.06,0.119-3.044,0.298c-0.119,0-0.687,0.09-0.776,0.09c0,0.119-0.179,0.597-0.179,0.686V14.386z M79.548,11.282
		c-1.164,0.119-2.447,0.119-3.611,0.209c-0.179,0.089-0.179,0.478-0.179,0.687c0,0.269,0.179,0.388,0.507,0.388
		c0.657,0,1.224-0.119,1.94-0.119c0.388,0,0.657,0.119,0.955,0.298c0.12,0.089,0.329,0.209,0.329,0.209
		c0.269,0,0.388-1.075,0.388-1.373v-0.179L79.548,11.282z M76.264,23.847c-0.209-0.567-0.328-1.283-0.328-1.85
		c0-0.269,0.119-0.597,0.507-0.597h0.089c0.776,0.209,0.955,0.388,0.955,1.284c0,0.388,0,1.94-0.448,1.94
		c-0.208,0-0.507,0-0.597-0.179L76.264,23.847z M79.548,2.716c-0.567,0-0.955-0.388-0.955-0.985c0-0.388,0-0.388,0.06-0.776
		c0-0.06,0.12-0.269,0.12-0.269h2.537c0.12,0,0.776-0.299,0.896-0.299h0.06l0.209,0.179c0,0.597-0.388,1.373-0.865,1.671
		c-0.12,0-0.776,0.269-0.896,0.269l-0.179,0.12c0,0-0.657,0.089-0.865,0.089H79.548z M80.712,24.056
		c-0.06-0.119-0.269-0.716-0.388-0.776c-0.06-0.328-0.388-0.776-0.388-0.985c0-0.119,0-0.179,0.209-0.298h0.686l0.388,0.298
		c0.089,0.089,0.478,0.269,0.597,0.388c0.388,0.269,0.657,0.478,1.045,0.776c0.507,0.388,1.283,0.478,1.283,1.164v0.269
		c0,0.119-0.328,0.328-0.388,0.328c-0.209,0-0.896,0.06-1.104,0.06l-0.269,0.12h-0.12c-0.179,0-0.179,0-0.388-0.12
		c-0.179-0.06-0.567-0.269-0.567-0.269c-0.089-0.119-0.388-0.776-0.478-0.895L80.712,24.056z"/>
</g>
</svg>
