<?xml version="1.0" encoding="utf-8"?>
<!-- Generator: Adobe Illustrator 17.0.0, SVG Export Plug-In . SVG Version: 6.00 Build 0)  -->
<!DOCTYPE svg PUBLIC "-//W3C//DTD SVG 1.1//EN" "http://www.w3.org/Graphics/SVG/1.1/DTD/svg11.dtd">
<svg version="1.1" id="Layer_1" xmlns="http://www.w3.org/2000/svg" xmlns:xlink="http://www.w3.org/1999/xlink" x="0px" y="0px"
	 width="114.472px" height="24.265px" viewBox="0 0 114.472 24.265" enable-background="new 0 0 114.472 24.265"
	 xml:space="preserve">
<g>
	<path d="M1.94,14.027c0.208,0.09,0,0.299,0.208,0.389c0.299,0.089,0.388,0.089,0.687,0.089c0.478,0,0.985-0.179,1.433-0.298
		c2.269-0.567,4.477-1.552,6.328-2.985c0.776-0.597,0.597-2.059,1.761-2.059c0.179,0,0.687,0,0.776,0.209
		c0,0.06,0.12,0.566,0.12,0.687c0.567,0.388,1.164,0.269,1.731,0.478c0.089,0,0.478,0.298,0.597,0.298c0.06,0,0.447,0.09,0.567,0.09
		c0.388,0.09,0.657,0.298,1.044,0.388c1.104,0.299,2.179,0.687,3.224,0.955c0.507,0.119,0.896,0.389,1.373,0.508
		c0.687,0.179,1.462,0.269,2.119,0.478l0.328,0.089c0.179,0.09,0.657,0.209,0.657,0.209h2.626l0.328,0.09
		c0,0.299-0.209,0.776-0.328,0.865c-0.06,0.209-0.179,0.508-0.388,0.598c-1.224,0.775-2.895,0.775-4.268,0.895
		c-1.074-0.507-1.94-1.163-2.895-1.79c-0.507-0.269-1.104-0.567-1.552-0.866c-0.716-0.298-0.895-0.566-1.611-0.865
		c-0.448-0.209-0.955-0.299-1.433-0.478c-0.896-0.298-1.671-0.776-2.507-0.984c-0.716,0.478-1.283,1.163-1.94,1.642l-0.119,0.119
		c-0.09,0.089-0.478,0.388-0.478,0.388l-0.299,0.09c-0.716,0.388-1.283,0.865-1.94,1.253c-0.985,0.598-2.149,0.896-3.223,1.284
		c-0.776,0.269-1.433,0.478-2.209,0.775c-0.626,0.209-1.104,0.388-1.791,0.388C0.388,16.952,0,16.773,0,16.267
		C0,15.103,0.985,14.416,1.94,14.027z M2.716,10.237c0.119-0.09,0.209-0.478,0.209-0.478c0.119-0.119,0.567-0.597,0.776-0.776
		L3.88,8.864c0.597-0.478,0.985-1.045,1.492-1.642c0-0.119,0.179-0.298,0.179-0.298C5.761,6.536,6.029,5.88,6.596,5.939
		c0.12,0,0.328,0.119,0.328,0.209c0.269,0.119,1.343,0.298,1.612,0.298h0.328c0.567,0.09,1.164,0.598,1.552,0.985
		c0.179,0.179,0.298,0.269,0.298,0.567c0,0.388,0,1.044-0.298,1.253L9.641,9.641c-0.716,0.298-1.492,0.507-2.149,0.687
		c-1.343,0.507-2.716,0.895-4.059,0.895H2.925c-0.209-0.119-0.269-0.388-0.269-0.686C2.656,10.536,2.716,10.327,2.716,10.237z
		 M5.82,9.432h0.209c0,0,0.687-0.06,0.895-0.18c0.448-0.089,1.224-0.209,1.612-0.597c0.12-0.06,0.12-0.179,0.12-0.388
		c0-0.567-0.687-0.448-1.075-0.567L7.193,7.491h-0.09c-0.119,0-0.507,0.717-0.567,0.776L5.641,9.163L5.552,9.372
		C5.552,9.432,5.82,9.432,5.82,9.432z M6.596,21.997h0.507c0.388,0,0.866,0.119,1.253,0.119h0.12
		c0.835-0.18,1.552-0.508,2.447-0.687c1.045-0.269,2.119-0.597,3.164-1.045c0.12-0.119,0.716-0.328,0.776-0.388l0.119-0.119
		c0.089-0.09,0.597-0.389,0.597-0.389c0.06,0,0.776-0.269,0.835-0.269l0.12-0.119h0.269c0.328,0,0.388,0,0.776,0.179v0.598
		l-0.06,0.119c-0.388,0.269-0.716,0.567-1.164,0.775c-0.388,0.18-0.776,0.27-1.164,0.448c-0.896,0.597-1.761,1.104-2.716,1.492
		c-0.388,0.06-0.716,0.388-1.104,0.567c-0.955,0.388-1.94,0.597-2.895,0.597H7.581l-0.089-0.119
		c-0.507-0.269-1.075-0.657-1.075-1.373C6.417,22.325,6.417,22.206,6.596,21.997z M8.536,3.82c0-0.119,0.209-0.388,0.328-0.508
		c0.657-0.388,1.343-0.656,1.94-1.163c0.119-0.09,0.567-0.479,0.567-0.598C11.7,1.104,11.7,0.508,12.356,0.388h0.567
		c0.119,0,0.388,0.12,0.507,0.12h1.164c0,0,0.388,0.089,0.478,0.208c0.12,0,0.388,0.18,0.388,0.18c0.12,0,0.507,0.269,0.567,0.388
		c0.597,0.388,1.164,0.776,1.164,1.642c0,0.299-0.06,0.388-0.269,0.567c-0.567,0.716-0.955,1.104-1.94,1.104
		c-1.283,0.06-2.626,0.179-3.88,0.447c-0.12,0-0.776,0.328-0.896,0.328H9.521c0,0-0.478-0.209-0.657-0.328
		c-0.208-0.06-0.507-0.447-0.507-0.776C8.357,4.268,8.477,3.88,8.536,3.82z M8.745,18.893c0.119-0.119,0.179-0.507,0.179-0.507
		s0.119-0.061,0.209-0.061C9.252,18.206,9.7,18.116,9.7,18.116h0.716c0.955-0.119,2.238-0.388,3.104-0.895
		c0.179-0.061,0.776-0.448,0.776-0.448c0.12-0.119,0.507-0.597,0.567-0.597c0.328-0.18,0.597-0.18,0.895-0.18h0.269l0.209,0.18
		v0.775c0,0-0.089,0.209-0.209,0.209c-0.835,0.567-1.82,0.955-2.775,1.344c-1.164,0.478-2.447,1.104-3.82,1.104
		c-0.298,0-0.567,0-0.776-0.209v-0.12C8.656,19.102,8.656,19.102,8.745,18.893z M9.521,15.222c0.12,0,0.627-0.119,0.687-0.119
		c0.776-0.209,1.671-0.389,2.269-0.776c0.06,0,0.448-0.299,0.567-0.388c0.269-0.209,0.269-0.508,0.657-0.687
		c0.119-0.09,0.597-0.209,0.597-0.209c0.12,0,0.687,0.119,0.776,0.209c0.179,0.179,0.179,0.298,0.179,0.478
		c0,0.298-0.06,0.597-0.388,0.775l-0.269,0.12c-1.552,0.656-3.492,1.82-5.342,1.82c-0.209,0-0.328,0-0.328-0.269
		C8.924,15.789,9.252,15.4,9.521,15.222z M11.7,3.82h0.06c0,0,0.388-0.119,0.507-0.119c0.089,0,1.373-0.09,1.433-0.09
		c0.507-0.119,1.552-0.388,1.552-1.074c0-0.209-0.388-0.478-0.567-0.597c-0.09,0-0.478-0.061-0.597-0.061
		c-0.06,0-0.448-0.328-0.567-0.328h-0.209c-0.06,0.119-0.269,0.389-0.388,0.508c-0.179,0.209-1.224,1.253-1.433,1.433v0.119
		C11.491,3.701,11.581,3.82,11.7,3.82z M14.296,7.88c0,0,0.179-0.27,0.298-0.389l0.09-0.06c0.119-0.119,0.896-0.776,0.955-0.896
		c0.119-0.09,0.985-0.984,1.104-1.045c0.388-0.447,0.955-0.835,1.462-0.835c0.597,0,0.388,0.209,0.776,0.328
		c0.657,0.299,2.029,0.388,2.537,0.896c0.179,0.06,0.835,0.775,0.955,0.955v0.269c0,0.328,0,0.507-0.179,0.716
		C22.176,7.88,21.52,8.268,21.4,8.387c-1.253,0.865-3.582,1.045-5.164,1.045h-1.044c-0.12,0-0.507-0.18-0.597-0.269
		c-0.298-0.18-0.298-0.567-0.298-0.896V7.88z M16.625,7.88h1.97c0.09-0.389,1.373,0,1.373-0.836c0-0.717-1.164-0.985-1.671-0.985
		c-0.388,0-0.776,0.478-1.104,0.657c-0.06,0.119-0.567,0.388-0.656,0.507c-0.12,0.09-0.299,0.269-0.388,0.388
		C16.147,7.88,16.535,7.88,16.625,7.88z"/>
	<path d="M38.197,20.444c0,0.18-0.089,1.075-0.089,1.283c-0.179,0.389-0.567,0.776-1.075,0.776c-0.269,0-0.597-0.388-0.776-0.597
		c0-0.18-0.089-1.164-0.089-1.343v-0.12c0-0.089,0.089-0.269,0.089-0.388c0-0.09,0.298-0.776,0.298-0.865
		c0-0.12,0.09-0.567,0.09-0.687V17.52h-0.985l-0.269,0.119c-1.075,0.269-2.119,0.389-3.224,0.866l-0.06,0.119
		c-0.418,0.179-1.403,0.567-1.791,0.567c-0.388,0-0.179-0.18-0.478-0.389v-0.507c0-0.389,0-0.657,0.09-1.074l0.119-0.09
		c0.09,0,0.567-0.09,0.657-0.09l0.388-0.09l3.134-0.597l1.94-0.298c0.209,0,0.597-0.18,0.597-0.18s0.06-0.388,0.06-0.478v-0.775
		h-1.433c-0.567,0.179-1.164,0.388-1.731,0.478h-0.119c-0.089,0-0.388-0.209-0.478-0.209h-0.687c-0.209,0-0.597-0.478-0.597-0.567
		c0-0.388,0.209-0.776,0.329-1.074c0.06-0.687,0.06-1.075,0.06-1.761v-0.598c-0.179-0.656-0.955-0.775-1.343-1.343v-0.09
		c0-0.298,0.567-0.507,0.776-0.507c0.776-0.06,1.671-0.18,2.447-0.269c1.164-0.18,2.388-0.389,3.552-0.508h0.328
		c0.269,0,2.447-0.06,2.716-0.06h0.179c0.12,0,0.716-0.119,0.776-0.119h0.119c0.388,0,1.373,0.119,1.373,0.119
		c0.179,0,0.835,0.269,0.835,0.447c0,0.896-0.835,1.164-1.044,1.94c0,0.119-0.179,0.985-0.179,1.283
		c-0.209,1.373-0.119,1.672-1.373,2.328c-0.179,0.119-0.776,0.388-0.895,0.388h-0.179c-0.507,0-1.104-0.089-1.552-0.089
		c-0.209,0-0.329,0.209-0.329,0.388c0,0.09-0.06,0.597-0.06,0.597c0,0.09,0.179,0.389,0.269,0.389h4
		c0.119,0,0.298,0.269,0.388,0.388v0.478c0,0.09-0.269,0.478-0.388,0.567l-0.209,0.119c-0.179,0-0.836,0.119-0.955,0.119
		c-0.09,0-0.269-0.119-0.388-0.119h-2.716l-0.12,0.179V20.444z M30.438,6.835c0-0.389,0.269-0.776,0.478-1.104l0.089-0.269
		c0.09-0.119,0.209-0.508,0.209-0.508c0.269-0.388,0.955-0.955,1.284-1.343c0.06-0.09,0.388-0.478,0.388-0.478l0.06-0.179
		c0.12-0.12,0.329-0.389,0.388-0.389h0.12l0.208,0.06c0.06,0,0.955,0.12,1.045,0.12l0.179,0.089c0.328,0.12,0.776,0.12,1.104,0.299
		c0.06,0.09,0.657,0.597,0.776,0.776c0,0,0.179,0.388,0.179,0.478c0,1.671-1.343,2.119-2.716,2.328c-0.12,0-1.075,0.119-1.164,0.119
		c-0.388,0-0.776,0.179-1.194,0.298c-0.09,0-0.567,0.09-0.657,0.09l-0.388,0.119c-0.119,0-0.298-0.328-0.388-0.447V6.835z
		 M32.944,5.163c0,0.389,0.329,0.299,0.508,0.299c0.597,0,1.761-0.119,1.761-0.896v-0.06c-0.209-0.328-0.776-0.776-1.164-0.776
		c-0.209,0-0.209,0-0.328,0.18c-0.06,0.209-0.657,0.984-0.776,1.164V5.163z M36.944,11.879c-0.179,0-0.896,0.119-0.955,0.119
		c-0.507,0.06-1.552,0.179-2.059,0.478c-0.209,0.09-0.269,0.985-0.269,1.254c0.657,0,1.343-0.18,2-0.269
		c0.119,0,0.716-0.12,0.776-0.12c0.119,0,0.507-0.179,0.507-0.388V11.879z M36.944,9.551c-0.955,0-2.119-0.09-3.104,0.179
		l-0.119,0.12v1.164c0.985,0,2.149-0.18,3.104-0.389l0.119-0.179V9.551z M38.317,6.626c-0.388,0-0.716-0.119-0.716-0.567
		c0-0.388,0.119-0.896,0.209-1.283c0-0.209,0.507-0.09,0.687-0.388c0.269-0.389,0.776-1.045,0.985-1.553
		c0.179-0.388,0-0.984,0.567-0.984c0.12,0,0.507,0.209,0.597,0.209c0.179,0,0.955,0.298,1.164,0.298l0.12,0.09
		c0.657,0.388,2,1.074,2,2.06c0,0.447-0.388,0.567-0.776,0.836l-0.448,0.328l-0.328,0.269h-0.269l-0.12,0.179
		c-0.179,0.328-0.657,0.389-1.044,0.389c-0.179,0-1.791,0.119-2.238,0.119H38.317z M37.81,13.938V13.64l-0.09,0.09L37.81,13.938z
		 M39.272,13.072c0.478,0,1.283,0.18,1.373-0.507c0-0.09,0.119-0.687,0.119-0.776c-0.776,0-1.492,0-2.268,0.09
		c-0.12,0.179-0.12,0.418-0.12,0.597c0,0.209,0,0.597,0.329,0.597H39.272z M38.765,10.506h0.119c0.09,0,1.373,0.119,1.492,0.119
		h0.269c0.686,0,0.567-0.687,0.567-1.283h-2.238c-0.388,0-0.388,0.597-0.388,0.776v0.328L38.765,10.506z M40.555,3.224
		c-0.119,0.119-0.507,0.775-0.567,0.896c-0.239,0.269-0.507,0.656-0.507,1.044h1.343c0.12,0,0.507-0.209,0.597-0.269
		c0.119-0.119,0.388-0.328,0.388-0.388V4.388c0-0.598-0.597-1.164-1.164-1.164H40.555z M49.3,14.894
		c-0.985,0.896-2.835,2.059-4.089,2.059c-0.388,0-1.075,0-1.284-0.388c0.12-0.119,1.164-0.597,1.373-0.687
		c0.12,0,0.507-0.298,0.567-0.298l0.388-0.09l0.328-0.299l0.179-0.089c0.09-0.09,0.985-0.598,1.104-0.687l0.179-0.09
		c0.089-0.09,0.656-0.687,0.776-0.776v-0.209c0-0.566-0.507-1.462-0.687-1.939c-0.209-0.388-0.388-1.731-0.985-1.731
		c-0.567,0-1.164,0.269-1.731,0.448c0,0-0.388,0.209-0.507,0.209c-0.209,0-0.478-0.209-0.478-0.269V8.774
		c0,0,0.089-0.089,0.208-0.089c0.657-0.299,1.552,0.089,2.209-0.299V8.118c0-0.776-0.269-1.672-0.597-2.447
		c-0.179-0.388-0.448-0.717-0.448-1.104V4.388c0.269-0.598,0.776-0.866,1.433-0.866c0.179,0,0.687,0,0.806,0.269v2.328
		c0,0.389,0.209,1.015,0.269,1.403c0.209,0.388,0.388,0.597,0.776,0.597h0.328c0.06,0,0.448-0.119,0.448-0.119
		c0.12,0,0.716-0.09,0.776-0.09c0.507-0.119,0.716-0.776,0.716-1.193c0-0.27-0.119-0.27-0.119-0.657s0.567-0.597,0.955-0.597
		c0.209,0,0,0,0.209,0.09c0.388,0.298,0.776,0.388,0.776,0.895c0,0.448-0.478,0.776-0.776,1.164c-0.09,0.12-0.209,0.299-0.209,0.299
		c0,0.269,0.896,0.269,0.896,0.985c0,0.388-0.179,0.447-0.507,0.775h-0.388c-0.776,0-1.552-0.209-2.328-0.209
		c-0.269,0-0.448,0-0.835,0.09l-0.12,0.179l0.12,0.209c0,0.12,0.06,0.508,0.06,0.567c0.12,0.328,0.388,1.671,0.776,1.671h0.12
		c0.089-0.119,0.269-0.507,0.388-0.566l0.09-0.209c0-0.119,0.179-0.299,0.179-0.299l0.328-0.089c0.06-0.12,0.448-0.389,0.567-0.508
		c0.269,0.388,0.776,0.388,0.776,0.985v0.298c-0.119,0.209-0.686,0.896-0.776,0.985c-0.119,0.089-0.567,0.566-0.687,0.687
		c-0.089,0.089-0.208,0.269-0.208,0.269l0.776,1.552c0.328,0.209,0.388,0.597,0.597,0.776c0.298,0.298,1.284,1.283,1.343,1.402
		c0.985,0.776,2.06,1.164,3.223,1.552c0.12,0,0.716,0.18,0.776,0.18c0.119,0,0.328,0.089,0.328,0.089v0.12
		c0,0.179,0,0.06-0.209,0.269c-0.388,0.507-0.687,0.896-1.283,1.074c-0.06,0.09-0.567,0.209-0.567,0.209h-2.268
		c0,0-0.388-0.119-0.448-0.209c0,0-0.209-0.179-0.328-0.179c-0.448-0.329-0.657-0.776-0.955-1.284
		c-0.388-0.775-0.657-1.761-1.045-2.536c0-0.09-0.328-0.389-0.328-0.478c0-0.09-0.269-0.478-0.269-0.598
		c0,0-0.179-0.179-0.179-0.269c-0.119-0.209-0.119-0.507-0.388-0.507H49.3z M47.659,8.565c0-0.06,0.089-0.179,0.209-0.179
		c0-0.209-0.209-0.209-0.329-0.209C47.539,8.178,47.42,8.565,47.659,8.565z"/>
	<path d="M68.41,14.714c-0.089,0-0.657,0.299-0.776,0.299c-0.089,0-0.388,0.269-0.478,0.269c-0.12,0-0.776,0.328-0.896,0.328
		c-0.06,0-0.388,0.269-0.448,0.269c-0.388,0.18-0.985,0.299-1.373,0.508c-1.283,0.447-1.85,0.836-3.283,0.836
		c-0.627,0-1.403-0.18-1.403-0.836c0,0,0.119-0.328,0.119-0.389l0.06-0.119l0.119-0.388l0.269-0.388
		c0.209-0.269,0.388-0.776,0.716-1.045c0.388-0.508,1.075-0.806,1.552-1.194v1.194h0.507c0.955-0.119,1.731-0.328,2.597-0.627
		c0.896-0.179,1.671-0.388,2.507-0.656c1.224-0.389,2.388-0.985,3.552-1.283c0.06,0,0.567-0.09,0.657-0.09l0.298-0.299l0.478-0.179
		c0.12-0.09,0.896-0.388,1.075-0.478c0.208-0.119,0.656-0.299,0.656-0.508V9.819c-0.06-0.06-0.448-0.567-0.567-0.656l-0.269-0.299
		c-0.12-0.09-0.388-0.597-0.507-0.656c-0.09-0.12-0.269-0.328-0.269-0.328s-0.209,0.119-0.329,0.119
		c-1.224,0.478-2.597,0.984-3.88,0.984c-0.179,0-0.687,0-0.896-0.119c-0.06,0-0.388-0.269-0.388-0.388V8.268
		c0-0.567,0.328-1.045,0.507-1.552l0.089,0.119c0.179,0,0.298-0.119,0.418-0.239c0.388,0,2.417-0.06,2.806-0.06
		c0.119,0,0.955-0.119,1.164-0.209c0.507-0.119,0.955-0.388,1.343-0.566c0.12,0,0.507-0.209,0.597-0.209
		c0.567-0.299,1.074-0.687,1.671-1.075l0.179-0.089c0.329-0.18,0.329-0.18,0.508-0.508c0-0.06,0.269-0.567,0.269-0.567l0.507-0.089
		l0.269-0.119h0.328c0.06,0,0.567,0.328,0.776,0.388c0.06,0,0.269,0.209,0.269,0.209v0.775c0,0.18,1.85,0.687,2.119,0.896
		c0.896,0.567,1.552,0.657,1.552,1.851c0,0.209-0.06,0.388-0.269,0.478c0,0-0.298,0.18-0.388,0.18
		c-0.776,0.328-1.462,0.597-2.238,0.895c-0.09,0-0.269,0.209-0.388,0.209c-1.373,0.776-2.805,1.344-4.208,2.119
		c0,0-0.179,0.209-0.269,0.209c-0.179,0.09-0.388,0.18-0.567,0.299c-1.492,0.865-3.104,1.433-4.656,2.208L68.41,14.714z
		 M70.977,21.161c-0.12,0-0.329-0.328-0.388-0.389c-0.119-0.119-0.328-0.507-0.328-0.597c0-0.119,0.119-0.687,0.119-0.896
		c0-0.06,0.209-0.388,0.209-0.388l0.388-0.06c0.776-0.388,1.552-1.492,1.552-2.447c0-0.328,0-0.508-0.119-0.776
		c0-0.119-0.269-0.388-0.269-0.507v-0.657c0-0.119,0.269-0.507,0.388-0.627h0.388c0.388,0,0.776,0.239,1.164,0.239
		c0.835,0,1.612-0.239,2.507-0.418c1.671-0.299,3.313-0.687,4.984-0.865c0.179,0,1.045-0.209,1.164-0.209l0.269-0.09
		c0.12,0,0.507-0.09,0.507-0.09s0.269,0.09,0.388,0.09c0.478,0.18,1.462,0.567,1.462,1.254c0,0.209,0,0.507-0.209,0.597
		c-0.776,0.508-1.194,0.687-1.761,1.343c-0.597,0.776-0.776,2-1.253,2.836c-0.179,0.328-0.508,0.328-0.776,0.328h-0.298
		l-0.269-0.119c-0.716-0.09-1.104-0.09-1.671-0.09c-2.029,0-4,0.478-5.82,1.254c-0.597,0.298-1.671,1.283-2.269,1.283H70.977z
		 M79.901,16.773c0.388-0.119,0.896-0.119,1.284-0.328c0.269-0.448,0.656-1.224,0.656-1.82c0-0.18-0.597-0.18-0.656-0.18
		c-0.329,0-0.597,0.06-0.896,0.06c-0.269,0-1.045,0.12-1.164,0.12l-0.269,0.089c-0.209,0-1.761,0.299-1.94,0.299
		c-0.836,0.09-1.612,0.209-2.269,0.478c-0.298,0.119-0.298,0.567-0.298,0.776c-0.089,0.507-0.209,0.895-0.209,1.402
		c0.776,0,1.492-0.238,2.269-0.328L79.901,16.773z M74.917,7.61c0.12,0.09,0.507,0.389,0.597,0.389
		c0.388,0.269,0.687,0.775,0.896,1.253h0.507c0-0.269,0.388-0.269,0.448-0.388c0.328-0.09,0.388-0.388,0.716-0.478
		c0.179-0.119,0.567-0.179,0.776-0.299c0.388-0.208,0.776-0.478,1.164-0.775c0.06-0.09,0.567-0.269,0.567-0.597
		c-0.896-0.567-1.552-0.896-2.507-1.075h-0.12c-0.657,0.18-1.373,0.567-2.06,0.955c-0.269,0.239-1.044,0.627-1.044,0.627
		l-0.209,0.209L74.917,7.61z"/>
	<path d="M101.041,24.265c-0.388,0-0.388-0.597-0.388-0.984c0-0.687,0-1.553,0.12-2.238c0-0.09,0.089-0.478,0.089-0.598v-1.939
		c-2.925,0-5.76,0.478-8.476,1.373l-1.552,0.566c-0.06,0-0.835,0.508-0.955,0.508c-0.328,0.09-0.388,0.09-0.716,0.09
		c-0.567,0-0.835-0.09-0.835-0.776v-0.09c0-0.119,0.179-0.507,0.179-0.566c0.089-0.329,0-0.627,0.208-0.896
		c1.851-0.389,3.791-0.717,5.611-0.896c2.149-0.269,4.387-0.597,6.536-0.657c0.179-0.119,0.179-0.388,0.179-0.507v-1.552
		c-1.433,0-2.776,0.298-4.179,0.566c-0.597,0.12-1.253,0.328-1.82,0.389c-0.12,0-0.776,0.209-0.985,0.209
		c-0.12,0-0.507,0.119-0.567,0.119c-0.119,0-0.388,0.269-0.507,0.269h-0.209c-0.388-0.209-0.447-0.478-0.447-0.865
		c0-0.299,0-1.075,0.269-1.284c1.074-0.775,1.343-2.029,1.343-3.283c0-0.208,0-0.507-0.06-0.686
		c-0.119-0.09-0.507-0.478-0.597-0.598l-0.508-0.298c-0.06,0-0.179-0.209-0.179-0.209V8.596l0.119-0.119
		c0.269-0.09,0.388-0.09,0.657-0.09c0.567,0,0.687,0.269,0.955,0.269h0.119c0.09,0,0.478-0.06,0.597-0.06
		c1.224-0.328,2.626-0.388,3.88-0.597c0.388-0.119,1.851-0.299,2.06-0.299c1.224-0.209,2.507-0.269,3.88-0.269h0.687l0.269,0.06
		l0.119-0.06c0.388,0,2.209-0.119,2.597-0.119h0.985c0.567,0,1.85-0.09,1.85,0.775c0,0.299-0.179,0.508-0.298,0.687
		c-0.388,0.776-0.866,1.672-0.985,2.537c0,0.18-0.179,1.642-0.179,1.851c-0.089,0.478-0.089,0.865-0.597,1.164l-0.388,0.09
		c-0.269,0.089-0.448,0.597-0.835,0.687h-0.597c-1.075,0-2.119-0.09-3.223-0.09h-1.552c-0.12,0-0.298,0.209-0.298,0.269v0.716
		c0,0.27,0.119,0.836,0.119,0.836l0.179,0.209h4.775c0.478,0,2.537,0.119,2.925,0.119c0.06,0,0.388,0.061,0.448,0.061h2.149
		c0.12,0,0.597-0.18,0.687-0.18c0.209-0.09,0.597-0.269,0.776-0.269c0,1.731-1.671,2.836-3.283,2.836
		c-1.164,0-2.268-0.717-3.312-0.896c-0.687-0.12-1.284-0.12-1.94-0.209h-3.402c0,0.597-0.119,3.223-0.119,3.82v1.343
		c-0.209,0.388-0.657,0.388-1.045,0.478l-0.119,0.119H101.041z M94.057,2.716c0.089-0.06,0.597-0.656,0.657-0.775
		c0-0.061,0.507-0.389,0.507-0.448c0.269-0.328,0.208-0.597,0.656-0.597c0.209,0,0.209,0.209,0.388,0.209
		c0.119,0,0.597,0.06,0.716,0.06c1.075,0.209,2.119,0.716,3.015,1.373c0.208,0.179,0.656,0.687,0.656,0.687v0.865l-0.06,0.119
		c-0.119,0-0.328,0.18-0.328,0.18c-0.06,0.089-0.657,0.269-0.776,0.269c-0.06,0.238-0.06,0.507-0.269,0.716
		c0,0-0.507,0.389-0.686,0.508l-0.209,0.06c-0.896,0.119-1.671,0.119-2.507,0.119h-1.283c-0.09,0-0.597-0.119-0.657-0.119
		c-0.209,0-0.776-0.06-0.776-0.06c-0.209,0-1.284-0.119-1.284-0.389V4.656c0,0,0.12-0.18,0.179-0.18
		c0.716-0.597,1.284-1.044,1.94-1.642L94.057,2.716z M94.057,4.597h2.716c0.657-0.12,1.164-0.209,1.761-0.598V3.611
		c0-0.567-0.388-0.896-0.985-1.074c-0.179-0.09-0.776-0.269-1.074-0.269l-0.209,0.06l-0.567,0.388
		c-0.09,0.119-0.985,0.985-1.045,1.104l-0.328,0.179c-0.06,0.09-0.388,0.478-0.388,0.478L94.057,4.597z M95.102,14.505h0.716
		l0.06-0.089c0.12,0,0.776-0.09,0.896-0.09c0,0,0.388-0.119,0.478-0.119c0.627-0.09,3.224-0.389,3.791-0.478
		c0.209-0.09,0.209-0.567,0.209-0.776c0-0.298,0-1.074-0.209-1.074h-0.06l-0.209,0.119c-1.075,0.179-2.06,0.388-3.015,0.567
		c-0.776,0.209-1.671,0.298-2.447,0.597c-0.089,0.388-0.269,0.776-0.388,1.164v0.09L95.102,14.505z M95.311,11.491l0.119,0.119
		h0.567c0.089,0,1.373-0.299,1.433-0.299c0.448-0.09,2.179-0.388,2.447-0.388c0.12,0,0.896-0.09,0.985-0.09l0.179-0.119v-0.269
		c0-0.388-0.06-0.896-0.179-1.283h-0.597c-1.612,0-3.224,0.388-4.835,0.775l-0.119,0.12V11.491z M103.31,11.7
		c-0.12,0-0.597,0.179-0.717,0.179l-0.06,0.119v1.433c0,0.119,0.179,0.299,0.269,0.299l0.179-0.09h0.776
		c0.12,0,0.896-0.09,0.985-0.09c0.179,0,0.388,0.09,0.626-0.119h2.507c0,0,0.209-0.388,0.209-0.478
		c0.06-0.298,0.06-0.865,0.06-1.253h-0.179l-0.388,0.089h-0.656c-0.896,0-1.671-0.089-2.448-0.089H103.31z M106.801,10.625
		l0.179-0.089h1.373c0.388,0,0.687-1.284,0.687-1.493v-0.06c-1.463-0.388-2.896-0.328-4.388-0.328h-0.567
		c-0.329,0-1.104,0.119-1.104,0.119l-0.179,0.209v1.164c0,0,0.12,0.18,0.179,0.299l0.12,0.09h3.611L106.801,10.625z M107.189,0.985
		c0.896,0,1.731,0.119,2.507,0.298c1.284,0.388,2.328,0.597,2.328,2.209c0,0.984-0.776,0.716-1.343,0.984
		c-0.089,0-0.478,0.508-0.597,0.508c-0.06,0-0.269,0.179-0.388,0.179c-0.06,0-0.776,0.12-0.835,0.12
		c-0.985,0.089-1.88,0.208-2.835,0.208c-0.776,0-1.283,0-2.149-0.119c-0.298,0-0.567-0.269-0.567-0.597
		c0-0.388,0.388-0.776,0.656-0.955l0.388-0.209c0.567-0.507,1.015-1.164,1.015-1.94c0-0.507-0.328-0.775-0.328-1.283
		c0-0.269,0.328-0.388,0.597-0.388c0.388,0,0.955,0.209,1.284,0.597l0.06,0.18L107.189,0.985z M105.548,3.999l0.089,0.209h0.567
		c0.507,0,1.104-0.119,1.671-0.119c0.089,0,0.656-0.09,0.776-0.09c0.269,0,0.985-0.179,0.985-0.179l0.179-0.209V2.716
		c-0.12-0.566-1.671-0.955-2.119-0.955h-0.507c-0.209,0.18-0.209,0.18-0.388,0.508c-0.388,0.566-0.866,1.044-1.253,1.611V3.999z"/>
</g>
</svg>
