<?xml version="1.0" encoding="utf-8"?>
<!-- Generator: Adobe Illustrator 17.0.0, SVG Export Plug-In . SVG Version: 6.00 Build 0)  -->
<!DOCTYPE svg PUBLIC "-//W3C//DTD SVG 1.1//EN" "http://www.w3.org/Graphics/SVG/1.1/DTD/svg11.dtd">
<svg version="1.1" id="Layer_1" xmlns="http://www.w3.org/2000/svg" xmlns:xlink="http://www.w3.org/1999/xlink" x="0px" y="0px"
	 width="232px" height="174px" viewBox="0 0 232 174" enable-background="new 0 0 232 174" xml:space="preserve">
<g>
	<rect x="27" y="90.5" fill="#00FFB0" width="20" height="20"/>
</g>
<g>
	<rect x="7" y="119.5" fill="#00FFB0" width="40" height="40"/>
</g>
<g>
	<rect x="37" y="71.5" fill="#00FFB0" width="10" height="10"/>
</g>
<g>
	<rect x="83" y="90.5" fill="#FFF800" width="20" height="20"/>
</g>
<g>
	<rect x="63" y="119.5" fill="#FFF800" width="40" height="40"/>
</g>
<g>
	<rect x="93" y="71.5" fill="#FFF800" width="10" height="10"/>
</g>
<g>
	<rect x="139" y="90.5" fill="#FF0055" width="20" height="20"/>
</g>
<g>
	<rect x="119" y="119.5" fill="#FF0055" width="40" height="40"/>
</g>
<g>
	<rect x="149" y="71.5" fill="#FF0055" width="10" height="10"/>
</g>
<g>
	<rect x="196" y="84.5" fill="#808080" width="10" height="10"/>
</g>
<g>
	<path d="M21.417,48.744v1.571h4.713v0.84h-4.713v1.835h3.226v0.768c-0.671,1.343-1.643,2.494-2.914,3.454
		c0.6,0.336,1.259,0.659,1.979,0.947c0.852,0.324,1.763,0.6,2.735,0.84l-0.504,0.755c-1.031-0.275-2.015-0.6-2.938-0.983
		c-0.744-0.323-1.403-0.671-2.003-1.055c-1.367,0.863-2.998,1.547-4.905,2.062L15.6,59.011c1.823-0.432,3.382-1.031,4.666-1.799
		c-0.624-0.479-1.175-1.008-1.631-1.596c-0.443-0.552-0.755-1.163-0.935-1.822h-0.924V52.99h3.754v-1.835h-4.666v-0.84h4.666v-1.571
		H21.417z M23.671,53.794H18.55c0.216,0.647,0.552,1.211,1.008,1.703c0.408,0.468,0.887,0.887,1.427,1.247
		C22.148,55.929,23.047,54.945,23.671,53.794z"/>
	<path d="M27.947,59.635l-0.18-0.828c0.324,0.036,0.636,0.061,0.936,0.061c0.324,0,0.492-0.181,0.492-0.54v-2.843
		c-0.456,0.168-0.923,0.336-1.403,0.48l-0.216-0.864c0.552-0.132,1.091-0.287,1.619-0.479v-2.746h-1.487v-0.828h1.487V48.9h0.839
		v2.146h1.248v0.828h-1.248v2.422c0.432-0.191,0.852-0.396,1.271-0.611v0.876c-0.42,0.216-0.839,0.407-1.271,0.587v3.395
		c0,0.72-0.348,1.092-1.031,1.092H27.947z M36.019,54.562v-0.924h0.839v0.924h1.463v0.803h-1.463v3.263
		c0,0.684-0.348,1.031-1.031,1.031h-1.559L34.1,58.843c0.504,0.036,0.983,0.06,1.439,0.06c0.312,0,0.48-0.168,0.48-0.479v-3.059
		h-4.45v-0.803H36.019z M35.312,48.78v1.235h2.842v0.804h-2.842v1.403h2.519v0.791h-5.781v-0.791h2.422v-1.403h-2.854v-0.804h2.854
		V48.78H35.312z M34.256,57.859l-0.684,0.479c-0.36-0.6-0.839-1.259-1.451-1.99l0.696-0.42C33.44,56.66,33.92,57.308,34.256,57.859z
		"/>
</g>
<g>
	<path d="M74.022,59.706h-0.815v-6.057c-0.372,1.164-0.852,2.219-1.452,3.167l-0.372-0.936c0.839-1.176,1.427-2.495,1.787-3.982
		h-1.355v-0.779h1.392v-2.327h0.815v2.327h1.307v0.779h-1.307v0.792c0.516,0.623,1.043,1.343,1.571,2.135l-0.456,0.684
		c-0.432-0.792-0.804-1.428-1.115-1.907V59.706z M81.566,51.778v3.635h-2.459c-0.048,0.323-0.108,0.623-0.18,0.911h3.442v0.792
		h-3.73c-0.168,0.359-0.36,0.684-0.6,0.971c-0.552,0.684-1.511,1.224-2.902,1.607l-0.3-0.708c1.199-0.335,2.063-0.791,2.591-1.391
		c0.132-0.156,0.251-0.312,0.348-0.479h-2.818v-0.792h3.178c0.096-0.288,0.168-0.6,0.216-0.911h-2.531v-3.635H81.566z M76.805,49.74
		v-0.984h0.78v0.984h0.947v0.707h-0.947v0.936h-0.78v-0.936h-1.727V49.74H76.805z M80.787,53.278v-0.804h-4.186v0.804H80.787z
		 M80.787,53.926h-4.186v0.815h4.186V53.926z M80.583,48.756v0.984h1.739v0.707h-1.739v0.936h-0.779v-0.936h-0.948V49.74h0.948
		v-0.984H80.583z M82.538,59.143l-0.432,0.66c-1.007-0.684-2.051-1.224-3.118-1.607l0.419-0.624
		C80.547,58.003,81.59,58.531,82.538,59.143z"/>
	<path d="M84.631,54.777c-0.144,1.211-0.335,2.278-0.563,3.202l-0.636-0.229c0.228-0.815,0.42-1.858,0.588-3.13L84.631,54.777z
		 M84.643,52.223l-0.576,0.144c-0.12-0.84-0.276-1.643-0.456-2.41l0.563-0.181C84.343,50.483,84.499,51.299,84.643,52.223z
		 M85.087,53.014v-4.222h0.768v4.222h1.199v0.756h-1.199v5.937h-0.768V53.77h-1.259v-0.756H85.087z M87.198,49.68
		c-0.06,0.96-0.216,1.823-0.468,2.591l-0.504-0.168c0.228-0.72,0.372-1.56,0.42-2.495L87.198,49.68z M87.306,57.703l-0.636,0.168
		c-0.108-1.104-0.24-2.171-0.408-3.202l0.563-0.18C87.006,55.425,87.162,56.504,87.306,57.703z M90.376,58.303h-2.195v0.72h-0.696
		v-4.749h1.067v-2.339h-1.247v-0.756h1.247v-2.087h0.792v2.087h1.259v0.756h-1.259v2.339h1.031V58.303z M89.668,57.607v-2.639
		h-1.487v2.639H89.668z M90.808,59.742l-0.611-0.552c0.54-1.104,0.815-2.494,0.827-4.186V49.2h3.059v9.618
		c0,0.576-0.3,0.876-0.899,0.876h-0.816l-0.192-0.72c0.276,0.024,0.528,0.036,0.768,0.036c0.24,0,0.372-0.156,0.372-0.468v-2.902
		c-0.492,0.144-1.02,0.275-1.583,0.384C91.635,57.512,91.323,58.759,90.808,59.742z M91.779,54.957c0,0.096-0.012,0.191-0.012,0.288
		c0.576-0.108,1.091-0.229,1.547-0.36v-1.787c-0.504-0.144-1.02-0.252-1.535-0.336V54.957z M93.314,49.956h-1.535v2.087
		c0.527,0.084,1.031,0.191,1.535,0.335V49.956z"/>
</g>
<g>
	<path d="M129.999,53.29c-0.096,2.662-0.708,4.81-1.859,6.44l-0.671-0.6c1.08-1.464,1.631-3.502,1.679-6.104V49.26h8.779v0.84
		h-7.916v2.375h7.172v0.768c-0.432,1.511-1.224,2.807-2.375,3.886c0.983,0.731,2.183,1.367,3.61,1.919l-0.468,0.756
		c-1.511-0.624-2.759-1.332-3.766-2.136c-1.104,0.864-2.447,1.584-4.03,2.159l-0.48-0.731c1.535-0.54,2.819-1.199,3.85-1.991
		c-1.199-1.115-2.003-2.387-2.411-3.813H129.999z M136.319,53.29h-4.39c0.384,1.247,1.116,2.339,2.207,3.298
		C135.167,55.629,135.887,54.537,136.319,53.29z"/>
	<path d="M141.015,51.059l-0.647,0.288c-0.264-0.707-0.54-1.331-0.839-1.883l0.684-0.216
		C140.523,49.8,140.787,50.411,141.015,51.059z M142.178,48.78v2.975h0.923V48.78h0.792v2.975h1.499v0.815h-0.852l-0.504,1.511
		h1.248v0.756h-2.219v1.308h1.991v0.755h-1.991v1.523c0.875-0.084,1.655-0.18,2.327-0.3v0.779c-1.248,0.217-3.106,0.396-5.577,0.528
		l-0.12-0.804c0.911-0.036,1.751-0.084,2.519-0.132v-1.596h-1.991v-0.755h1.991v-1.308h-2.291v-0.756h1.259l-0.408-1.511h-1.103
		v-0.815h1.727V48.78H142.178z M143.246,54.081l0.504-1.511h-2.183l0.396,1.511H143.246z M145.729,49.368
		c-0.216,0.743-0.492,1.391-0.816,1.967l-0.684-0.252c0.288-0.504,0.552-1.14,0.768-1.907L145.729,49.368z M147.719,56.229
		l-0.731,0.336c-0.396-1.104-0.828-2.087-1.308-2.927l0.744-0.24C146.916,54.285,147.348,55.221,147.719,56.229z M148.499,51.215
		v-2.471h0.839v2.471h1.104v0.84h-1.104v6.584c0,0.708-0.36,1.067-1.067,1.067h-1.511l-0.18-0.827
		c0.492,0.036,0.959,0.06,1.403,0.06c0.336,0,0.516-0.18,0.516-0.516v-6.368H145.8v-0.84H148.499z"/>
</g>
<g>
	<path d="M185.902,59.754l-0.636-0.575c0.72-0.768,1.092-1.739,1.116-2.938v-2.795c-0.672,0.828-1.439,1.596-2.315,2.303
		l-0.552-0.719c1.499-1.2,2.663-2.567,3.49-4.126h-3.178v-0.828h3.574c0.204-0.468,0.384-0.935,0.528-1.402l0.875,0.096
		c-0.132,0.455-0.288,0.888-0.456,1.307h5.96v0.828h-6.32c-0.24,0.479-0.504,0.947-0.792,1.403h5.589v6.416
		c0,0.647-0.36,0.972-1.055,0.972h-1.26l-0.204-0.779c0.432,0.023,0.839,0.036,1.211,0.036c0.312,0,0.479-0.181,0.479-0.517v-1.283
		h-4.845C186.946,58.184,186.538,59.059,185.902,59.754z M187.186,56.192c0,0.072-0.012,0.132-0.012,0.204h4.785v-1.271h-4.773
		V56.192z M191.959,53.062h-4.773v1.308h4.773V53.062z"/>
	<path d="M197.435,53.578c-0.048,2.542-0.479,4.593-1.295,6.128l-0.647-0.575c0.696-1.344,1.056-3.19,1.08-5.553V49.68h4.617
		c-0.144-0.312-0.288-0.588-0.456-0.852l0.912-0.144c0.144,0.3,0.288,0.636,0.419,0.995h4.09v0.815h-8.72v1.367h2.015v-0.971h0.839
		v0.971h3.178v-0.983h0.839v0.983h1.848v0.792h-1.848v1.871h-2.002v0.995h3.262v2.446c0,0.672-0.336,1.02-1.008,1.02h-0.959
		l-0.228-0.803l0.912,0.035c0.287,0,0.443-0.155,0.443-0.443V56.3h-2.422v3.454h-0.852V56.3h-2.339v2.735h-0.839v-3.515h3.178
		v-0.995h-2.003v-1.871h-2.015V53.578z M200.289,53.806h3.178v-1.151h-3.178V53.806z"/>
	<path d="M211.426,56.372l-3.946,0.264v-0.852l3.946-0.252V56.372z M211.186,50.951v0.827h-3.406v-0.827H211.186z M214.988,52.234
		c0,0.684-0.037,1.319-0.108,1.895c0.695,2.087,1.919,3.742,3.646,4.954l-0.575,0.659c-1.464-1.14-2.567-2.543-3.311-4.222
		c-0.071,0.252-0.132,0.492-0.204,0.72c-0.479,1.439-1.57,2.614-3.273,3.526l-0.564-0.684c1.487-0.792,2.482-1.787,2.975-2.986
		c0.372-1.02,0.564-2.303,0.576-3.862H214.988z M211.726,54.129l-0.72-0.516c0.912-1.175,1.499-2.806,1.764-4.893l0.851,0.132
		c-0.083,0.611-0.191,1.188-0.323,1.715h4.737v0.563c-0.252,1.08-0.588,2.147-0.995,3.202l-0.852-0.252
		c0.383-0.779,0.684-1.679,0.923-2.687h-4.03C212.744,52.522,212.289,53.434,211.726,54.129z"/>
	<path d="M189.44,63.192v1.644h4.114v0.84h-4.114v2.122h4.75v0.84h-3.958c0.804,1.511,2.195,2.854,4.162,4.042l-0.6,0.768
		c-2.039-1.439-3.466-3.034-4.257-4.81h-0.096v5.469h-0.888v-5.469h-0.108c-0.863,1.967-2.314,3.574-4.354,4.846L183.6,72.68
		c1.919-1.056,3.31-2.398,4.174-4.042h-3.97v-0.84h4.749v-2.122h-4.03v-0.84h4.03v-1.644H189.44z"/>
	<path d="M200.553,64.188v-1.02h0.888v1.02h4.329v0.791h-4.329v1.14h3.634v0.792h-3.634v1.163h4.63v0.779h-5.493
		c-0.42,0.6-0.959,1.14-1.607,1.644v2.578c0.899-0.275,1.787-0.6,2.675-0.983l0.168,0.804c-1.2,0.504-2.411,0.911-3.658,1.224
		l-0.288-0.744c0.168-0.072,0.252-0.18,0.252-0.323v-1.979c-0.647,0.384-1.367,0.744-2.171,1.079l-0.468-0.755
		c1.919-0.672,3.311-1.512,4.198-2.543h-3.754v-0.779h4.629v-1.163h-3.634v-0.792h3.634v-1.14h-4.33v-0.791H200.553z
		 M205.578,70.053c-0.636,0.647-1.355,1.14-2.147,1.476c0.792,0.815,1.811,1.439,3.035,1.847l-0.516,0.744
		c-2.147-0.78-3.67-2.219-4.57-4.33l0.66-0.372c0.24,0.576,0.54,1.104,0.899,1.56c0.72-0.312,1.403-0.815,2.051-1.512
		L205.578,70.053z"/>
	<path d="M209.615,71.217c-0.289,1.103-0.672,2.062-1.176,2.866l-0.72-0.444c0.503-0.779,0.863-1.643,1.104-2.59L209.615,71.217z
		 M212.613,69.765c0,0.588-0.336,0.888-0.996,0.888h-0.995l-0.204-0.707c0.359,0.023,0.684,0.036,0.983,0.036
		c0.288,0,0.444-0.168,0.444-0.48v-0.527c-0.768,0.24-1.619,0.468-2.566,0.684l-0.181-0.624c0.995-0.216,1.907-0.443,2.747-0.707
		v-1.644h-2.734v0.528c0.768,0.096,1.511,0.228,2.206,0.396l-0.228,0.563c-0.648-0.156-1.308-0.275-1.979-0.372
		c-0.024,1.26-0.264,2.279-0.708,3.07l-0.612-0.552c0.36-0.684,0.553-1.547,0.564-2.603v-1.727h4.258V69.765z M213.248,65.327
		l-0.611,0.433c-0.119-0.192-0.252-0.372-0.396-0.564c-0.888,0.097-2.278,0.181-4.149,0.252l-0.096-0.623
		c0.239-0.036,0.491-0.168,0.73-0.396c0.348-0.359,0.708-0.815,1.08-1.379l0.743,0.275c-0.443,0.6-0.876,1.092-1.283,1.451
		c0.899-0.048,1.739-0.084,2.53-0.132c-0.203-0.239-0.42-0.479-0.635-0.72l0.588-0.371C212.396,64.225,212.9,64.824,213.248,65.327z
		 M211.426,74.095c-0.648,0-0.972-0.324-0.972-0.947v-2.135h0.827v1.967c0,0.239,0.12,0.359,0.385,0.359h2.854
		c0.252,0,0.432-0.06,0.54-0.18c0.144-0.144,0.239-0.588,0.288-1.319l0.779,0.252c-0.084,0.947-0.24,1.523-0.479,1.739
		c-0.204,0.168-0.528,0.264-0.972,0.264H211.426z M214.279,72.319l-0.646,0.456c-0.336-0.563-0.792-1.188-1.367-1.871l0.623-0.384
		C213.488,71.204,213.956,71.804,214.279,72.319z M214.447,63.169v0.911l3.467-0.204v0.708l-3.467,0.191v0.78
		c0,0.228,0.121,0.348,0.36,0.348h3.322v0.743h-3.538c-0.623,0-0.936-0.312-0.936-0.911v-2.566H214.447z M217.902,68.313
		l-3.431,0.192v0.863c0,0.276,0.132,0.42,0.408,0.42h1.774c0.24,0,0.408-0.048,0.516-0.132c0.133-0.096,0.217-0.396,0.264-0.888
		l0.721,0.24c-0.072,0.695-0.229,1.127-0.444,1.295c-0.192,0.12-0.503,0.192-0.911,0.192h-2.146c-0.672,0-0.996-0.324-0.996-0.972
		v-2.482h0.815v0.755l3.431-0.191V68.313z M218.49,73.268l-0.672,0.479c-0.408-0.744-0.972-1.571-1.68-2.482l0.672-0.42
		C217.542,71.768,218.105,72.571,218.49,73.268z"/>
</g>
<g>
	<path fill="#DDDDDD" d="M206,150.5h-11v-11h11V150.5z M196,149.5h9v-9h-9V149.5z"/>
</g>
<g>
	<path d="M184.127,121.887l-0.528-0.695c0.923-0.672,1.547-1.5,1.871-2.471l0.839,0.107c-0.12,0.372-0.276,0.72-0.456,1.056h7.939
		v0.815h-8.467C184.991,121.131,184.583,121.526,184.127,121.887z M186.19,121.311v1.5h1.379v-1.5h0.84v1.5h1.403v-1.5h0.827v1.5
		h1.379v-1.5h0.839v1.5h1.188v0.791h-1.188v2.003h1.343v0.804h-10.41v-0.804h1.571v-2.003h-1.403v-0.791h1.403v-1.5H186.19z
		 M186.022,127.271c-0.408,0.972-0.899,1.812-1.475,2.519l-0.696-0.516c0.552-0.659,1.043-1.439,1.451-2.351L186.022,127.271z
		 M187.569,125.604v-2.003h-1.379v2.003H187.569z M188.553,129.526l-0.863,0.192c-0.156-0.9-0.348-1.691-0.563-2.387l0.792-0.181
		C188.157,127.884,188.361,128.675,188.553,129.526z M189.812,125.604v-2.003h-1.403v2.003H189.812z M191.348,129.454l-0.876,0.192
		c-0.204-0.899-0.456-1.691-0.743-2.387l0.792-0.18C190.832,127.812,191.107,128.603,191.348,129.454z M192.019,125.604v-2.003
		h-1.379v2.003H192.019z M194.334,129.227l-0.72,0.504c-0.384-0.744-0.912-1.56-1.583-2.471l0.659-0.408
		C193.41,127.764,193.95,128.555,194.334,129.227z"/>
	<path d="M197.435,123.578c-0.048,2.542-0.479,4.593-1.295,6.128l-0.647-0.575c0.696-1.344,1.056-3.19,1.08-5.553v-3.898h4.617
		c-0.144-0.312-0.288-0.588-0.456-0.852l0.912-0.144c0.144,0.3,0.288,0.636,0.419,0.995h4.09v0.815h-8.72v1.367h2.015v-0.971h0.839
		v0.971h3.178v-0.983h0.839v0.983h1.848v0.792h-1.848v1.871h-2.002v0.995h3.262v2.446c0,0.672-0.336,1.02-1.008,1.02h-0.959
		l-0.228-0.803l0.912,0.035c0.287,0,0.443-0.155,0.443-0.443V126.3h-2.422v3.454h-0.852V126.3h-2.339v2.735h-0.839v-3.515h3.178
		v-0.995h-2.003v-1.871h-2.015V123.578z M200.289,123.806h3.178v-1.151h-3.178V123.806z"/>
	<path d="M211.426,126.372l-3.946,0.264v-0.852l3.946-0.252V126.372z M211.186,120.951v0.827h-3.406v-0.827H211.186z
		 M214.988,122.234c0,0.684-0.037,1.319-0.108,1.895c0.695,2.087,1.919,3.742,3.646,4.954l-0.575,0.659
		c-1.464-1.14-2.567-2.543-3.311-4.222c-0.071,0.252-0.132,0.492-0.204,0.72c-0.479,1.439-1.57,2.614-3.273,3.526l-0.564-0.684
		c1.487-0.792,2.482-1.787,2.975-2.986c0.372-1.02,0.564-2.303,0.576-3.862H214.988z M211.726,124.129l-0.72-0.516
		c0.912-1.175,1.499-2.806,1.764-4.893l0.851,0.132c-0.083,0.611-0.191,1.188-0.323,1.715h4.737v0.563
		c-0.252,1.08-0.588,2.147-0.995,3.202l-0.852-0.252c0.383-0.779,0.684-1.679,0.923-2.687h-4.03
		C212.744,122.522,212.289,123.434,211.726,124.129z"/>
</g>
<g>
	<path d="M60.102,26.358c-0.432,0.432-0.72,1.008-0.815,1.464c-2.833,0-5.953-0.024-8.785-0.265c-1.272-0.119-2.4-0.287-3.408-0.768
		c-1.104-0.504-2.017-1.368-2.76-2.88c-1.009,1.607-2.568,3.168-4.129,4.296l-0.264-0.24c1.92-2.64,3.312-5.712,3.84-8.977h-0.479
		c-0.217,0.216-0.48,0.552-0.721,0.744c-0.071,0.048-0.264,0.096-0.336,0.048c-0.696-0.432-1.224-0.84-1.728-1.392
		c-0.097-0.072-0.049-0.288,0.048-0.336c0.288-0.168,0.6-0.385,0.792-0.673c0.792-1.319,1.416-2.592,2.04-3.96h-1.44
		c-0.312,0-0.768,0.048-1.104,0.192l-0.601-0.937h3.265c0.24-0.216,0.744-0.6,1.008-0.84c0.096-0.096,0.265-0.072,0.36,0
		c0.624,0.432,1.32,0.96,1.848,1.464c0.12,0.145,0.048,0.433-0.096,0.456c-0.384,0.072-0.84,0.408-0.984,0.72
		c-0.6,1.32-1.271,2.568-1.992,3.816h0.336c0.24-0.288,0.576-0.624,0.721-0.792c0.12-0.12,0.264-0.12,0.384-0.023
		c0.432,0.336,1.296,1.056,1.729,1.416c0.144,0.12,0.071,0.408-0.097,0.479c-0.216,0.097-0.479,0.24-0.552,0.48
		c-0.384,1.176-0.864,2.28-1.416,3.36c0.792,1.008,1.776,1.56,2.856,1.872c1.08,0.288,2.231,0.36,3.432,0.36
		c3.48,0.023,6.961,0.023,10.346-0.168v0.359C60.87,25.806,60.438,26.022,60.102,26.358z M44.597,11.309
		c-0.36,0.288-0.696,0.312-0.96,0.168c-0.288-0.144-0.48-0.504-0.601-0.912c-0.359-1.296-0.864-2.448-1.896-3.384l0.144-0.24
		c1.057,0.216,2.185,0.408,3.024,1.008c0.552,0.408,0.912,0.96,1.008,1.561C45.413,10.133,45.196,10.78,44.597,11.309z
		 M60.63,16.062c-0.264,0.071-0.6,0.312-0.6,0.647v5.713c0,0.864-0.336,1.464-0.841,1.872c-0.552,0.408-1.319,0.6-2.111,0.696
		c0.048-0.553-0.169-0.984-0.505-1.32c-0.479-0.504-1.224-0.84-1.8-1.104v-0.312c0.624,0.048,1.824,0.12,2.376,0.12
		c0.216,0.023,0.504-0.217,0.504-0.48v-6.169h-8.064v5.688c0,0.648,0.048,1.272,0.12,1.921c0.024,0.24-0.096,0.456-0.312,0.624
		c-0.528,0.432-1.633,0.696-2.041,0.72c-0.12,0.024-0.288-0.12-0.288-0.24c0.072-0.576,0.097-1.607,0.097-2.832v-6.337
		c0-0.359-0.024-0.815-0.072-1.248c0.576,0.24,1.272,0.553,1.656,0.721V9.028c0-0.432-0.024-1.32-0.072-1.728
		c0.721,0.288,1.872,0.815,2.448,1.08h4.633c0.288-0.265,0.768-0.721,1.008-0.961c0.144-0.144,0.312-0.096,0.48,0.024
		c0.6,0.408,1.224,0.96,1.752,1.536c0.144,0.168,0.096,0.384-0.024,0.408c-0.264,0.096-0.6,0.312-0.6,0.647v4.753
		c0.191-0.192,0.384-0.384,0.6-0.504c0.12-0.072,0.265-0.097,0.384,0c0.553,0.456,1.057,0.983,1.393,1.392
		C60.846,15.797,60.75,16.037,60.63,16.062z M57.149,18.461c-0.191,0.072-0.576,0.288-0.576,0.505c0,0.575,0.024,1.344,0.072,1.872
		c0,0.216-0.048,0.384-0.192,0.504c-0.407,0.288-1.224,0.504-1.655,0.552c-0.24,0-0.408-0.144-0.408-0.336V21.27h-1.513v0.624
		c0,0.168-0.12,0.36-0.312,0.528c-0.384,0.336-1.008,0.504-1.561,0.504c-0.24,0-0.408-0.096-0.384-0.312
		c0.024-0.672,0.048-1.439,0.048-2.111v-2.353c0-0.456,0-1.176-0.048-1.681c0.768,0.312,1.488,0.648,2.208,1.032h1.44
		c0.216-0.216,0.6-0.624,0.864-0.864c0.096-0.096,0.359-0.071,0.432,0c0.432,0.337,1.176,0.961,1.632,1.368
		C57.39,18.149,57.317,18.413,57.149,18.461z M55.974,9.124h-4.801v5.857h1.225v-4.753c0.576,0.216,1.488,0.672,2.232,1.008h1.344
		V9.124z M54.39,18.245h-1.513v2.28h1.513V18.245z M55.974,11.98h-1.248v3.024h1.248V11.98z"/>
	<path d="M84.238,18.365H74.062c0.408,0.168,0.864,0.408,1.2,0.624c0.192,0.145,0.097,0.408-0.072,0.504
		c-0.144,0.072-0.336,0.12-0.504,0.145c-0.168,0.048-0.336,0.071-0.479,0.216c-1.608,1.632-3.721,3.528-5.881,4.824
		c3.385,0.048,6.696-0.12,9.937-0.552c-0.647-1.152-1.823-2.257-2.855-3.12l0.312-0.288c1.824,0.768,4.776,2.232,5.977,3.72
		c0.384,0.48,0.576,1.032,0.601,1.585c0,0.527-0.12,1.056-0.408,1.535c-0.288,0.456-0.648,0.721-1.009,0.721
		c-0.407-0.024-0.84-0.36-1.104-1.032c-0.336-0.864-0.72-1.776-1.104-2.496c-2.952,0.864-7.896,1.896-11.137,2.472
		c-0.408,0.072-0.768,0.288-0.912,0.648c-0.072,0.168-0.36,0.216-0.432,0c-0.336-0.912-0.696-2.017-0.889-3
		c-0.023-0.168,0.145-0.288,0.288-0.265c0.553,0.072,1.248,0.024,1.824-0.456c1.608-1.344,3.601-4.271,4.32-5.784h-6.96
		c-0.337,0-0.816,0.024-1.104,0.12l-0.528-0.864h9.217v-4.704h-5.712c-0.217,0-0.648,0.096-0.912,0.144l-0.504-0.912h7.128V8.452
		c0-0.576-0.023-1.176-0.071-1.752c1.151,0.192,2.231,0.456,3.312,0.769c0.265,0.071,0.265,0.384,0.072,0.504
		c-0.12,0.071-0.312,0.191-0.48,0.264c-0.144,0.072-0.239,0.168-0.239,0.336v3.576h3.576c0.432-0.647,0.912-1.224,1.368-1.728
		c0.072-0.072,0.24-0.048,0.336,0c0.72,0.479,1.776,1.488,2.376,2.208c0.12,0.12,0,0.288-0.168,0.288H74.95v4.704h5.712
		c0.36-0.552,0.816-1.224,1.2-1.608c0.072-0.096,0.288-0.096,0.36-0.048c0.744,0.648,1.608,1.393,2.136,2.112
		C84.431,18.197,84.311,18.365,84.238,18.365z"/>
	<path d="M107.785,25.182c-0.672,0.024-1.271,0.265-1.8,0.624c-0.601,0.408-1.128,0.984-1.561,1.656
		c-2.04-0.815-4.104-2.16-5.521-3.984c-1.296-1.704-1.92-3.792-2.352-5.856c-0.673,1.008-1.368,2.04-2.16,3v4.033
		c1.296-0.408,2.616-0.937,3.888-1.465l0.216,0.336c-1.584,1.32-3.24,2.736-4.824,3.984c-0.288,0.217-0.576,0.433-0.768,0.673
		c-0.097,0.144-0.288,0.191-0.433,0.071c-0.6-0.456-1.032-1.08-1.368-1.728c-0.096-0.192-0.071-0.408,0.097-0.504
		c0.432-0.265,0.576-0.696,0.576-1.272v-1.824c-1.656,1.176-3.457,2.04-5.281,2.76l-0.168-0.264
		c2.856-1.848,5.905-5.208,7.033-7.801h-4.608c-0.48,0-1.032,0.12-1.465,0.312l-0.72-1.057h8.617v-2.544H91.08
		c-0.552,0-1.248,0.144-1.752,0.288l-0.648-1.032h6.505v-2.521h-5.688c-0.601,0-1.225,0.12-1.704,0.36l-0.744-1.104h8.137V8.236
		c0-0.456-0.024-0.96-0.097-1.392c1.177,0.144,2.377,0.407,3.457,0.815c0.191,0.048,0.191,0.336,0.023,0.433
		c-0.336,0.191-0.744,0.504-0.744,0.912v1.319h4.896c0.384-0.575,0.769-1.031,1.248-1.512c0.12-0.12,0.288-0.12,0.456,0
		c0.721,0.504,1.584,1.296,2.089,1.92c0.096,0.12,0.023,0.336-0.145,0.336h-8.545v2.521h3.265c0.384-0.576,0.72-1.008,1.152-1.488
		c0.096-0.12,0.288-0.096,0.384-0.023c0.72,0.552,1.44,1.2,2.04,1.896c0.12,0.12,0.048,0.36-0.12,0.36h-6.721v2.544h6.049
		c0.432-0.624,0.96-1.152,1.416-1.584c0.072-0.072,0.216-0.096,0.288-0.024c0.648,0.553,1.393,1.249,1.92,1.944
		c0.097,0.12,0.048,0.408-0.144,0.408H97.2c0.48,1.296,1.177,2.593,2.28,3.648c1.272-1.008,2.496-2.304,3.337-3.504
		c0.815,0.647,1.704,1.464,2.376,2.28c0.144,0.191,0.023,0.432-0.192,0.407c-0.24-0.023-0.552-0.071-0.96,0.097
		c-1.152,0.456-2.4,0.936-3.672,1.416c1.968,1.656,4.968,2.496,7.464,2.856L107.785,25.182z"/>
	<path d="M113.167,26.574c-0.265,0.432-0.769,0.72-1.297,0.792c-0.479,0.072-0.983-0.024-1.368-0.312
		c-0.239-0.168-0.407-0.456-0.432-0.72c-0.048-0.336,0.096-0.696,0.432-0.888c1.2-0.673,2.761-1.753,3.097-3.072l0.36,0.048
		C114.055,23.838,113.935,25.397,113.167,26.574z M120.319,12.725c-0.24,0.265-0.504,0.36-0.769,0.336
		c-0.288-0.023-0.575-0.239-0.72-0.6c-0.168-0.36-0.336-0.769-0.528-1.057c-1.824,0.433-3.648,0.841-5.472,1.225
		c0.407,0.192,1.031,0.552,1.416,0.768h3.192c0.168-0.168,0.384-0.432,0.6-0.624c0.12-0.096,0.312-0.096,0.456-0.023
		c0.6,0.359,1.176,0.696,1.729,1.176c0.119,0.12,0.096,0.36,0.023,0.384c-0.264,0.145-0.504,0.408-0.504,0.673v4.968
		c0,0.696-0.288,1.177-0.744,1.513c-0.504,0.359-1.224,0.552-2.016,0.695c-0.097-0.768-0.312-1.296-0.648-1.655
		c-0.336-0.36-0.769-0.553-1.344-0.721v-0.336c0.6,0.048,1.344,0.096,1.968,0.096c0.168,0,0.384-0.144,0.384-0.312v-0.84h-3.168
		c-0.024,0.624,0.023,1.872,0.048,2.52c0.024,0.312-0.096,0.504-0.24,0.624c-0.336,0.288-1.416,0.576-1.992,0.528
		c-0.288-0.023-0.359-0.192-0.336-0.479c0.097-0.984,0.12-1.969,0.12-2.977v-3.408c0-0.528-0.023-1.561-0.072-2.089
		c-0.191-0.023-0.264-0.119-0.359-0.312c-0.312-0.576-0.576-1.225-0.624-1.752c-0.024-0.192,0.12-0.288,0.264-0.288
		c0.528,0,1.08-0.216,1.561-0.601c1.008-0.815,1.848-2.304,2.304-3.479c0.937,0.432,1.92,0.983,2.784,1.607
		c0.12,0.072,0.048,0.312-0.12,0.288c-0.288-0.023-0.744,0.12-0.96,0.265c-1.032,0.672-2.28,1.368-3.336,1.92
		c1.344,0,3.48-0.024,4.632-0.024c-0.288-0.432-0.695-0.864-1.104-1.224l0.168-0.265c1.008,0.24,2.064,0.528,2.952,1.129
		c0.408,0.264,0.696,0.624,0.792,1.008C120.775,11.837,120.68,12.293,120.319,12.725z M117.343,14.141h-3.145v1.393h3.145V14.141z
		 M117.343,16.277h-3.145v1.368h3.145V16.277z M125.264,27.15c-0.456,0.359-1.032,0.527-1.776,0.527
		c-1.608,0-4.584-0.023-6.36-0.023c-0.408,0-0.768-0.192-1.056-0.48s-0.456-0.72-0.456-1.176v-2.28c0-0.408-0.024-1.224-0.072-1.608
		c1.056,0.168,2.088,0.433,3.072,0.816c0.12,0.024,0.144,0.24,0.072,0.264c-0.312,0.168-0.648,0.528-0.648,0.744v0.769
		c0,0.408,0.192,0.695,0.624,0.695c1.032,0,3.048-0.023,4.104-0.071c0.288,0,0.6-0.192,0.744-0.456
		c0.288-0.456,0.624-1.393,0.768-1.92h0.385c-0.024,0.72,0.048,1.344,0.336,1.8c0.239,0.432,0.647,0.696,1.248,0.816
		C126.008,26.286,125.695,26.814,125.264,27.15z M121.831,24.51c-0.336,0.36-0.72,0.528-1.056,0.432
		c-0.288-0.071-0.528-0.336-0.601-0.815c-0.119-0.912-0.407-1.608-0.936-2.376l0.168-0.24c0.72,0.168,1.512,0.359,2.088,0.792
		c0.36,0.264,0.601,0.6,0.672,0.984C122.264,23.693,122.191,24.126,121.831,24.51z M129.8,13.925
		c-0.312,0.312-0.672,0.552-1.176,0.601c-1.849,0.096-3.841,0.168-5.761,0.071c-0.479,0-0.84-0.216-1.104-0.527
		c-0.265-0.312-0.408-0.744-0.408-1.152V8.788c0-0.72-0.024-1.296-0.12-1.896c1.056,0.24,2.088,0.552,3.096,0.888
		c0.169,0.048,0.169,0.288,0.049,0.336c-0.312,0.12-0.601,0.384-0.601,0.696v1.8c0.889-0.576,2.208-1.752,2.856-2.568
		c0.672,0.505,1.368,1.057,1.992,1.656c0.144,0.145,0.024,0.385-0.145,0.36c-0.191-0.048-0.527-0.048-0.815,0.072
		c-1.2,0.479-2.616,0.912-3.889,1.2v0.624c0,0.191,0.24,0.432,0.384,0.456c0.769,0,2.305-0.024,3.049-0.024
		c0.456-0.023,0.72-0.216,0.864-0.504c0.191-0.408,0.336-1.008,0.432-1.464h0.384c0.024,0.479,0.097,0.936,0.312,1.32
		c0.312,0.504,0.84,0.768,1.344,0.983C130.376,13.157,130.136,13.589,129.8,13.925z M130.112,21.342
		c-0.456,0.384-0.912,0.6-1.536,0.624c-1.704,0.048-3.841,0.096-5.568,0.072c-0.48,0-0.912-0.24-1.2-0.576s-0.48-0.792-0.48-1.272
		v-3.864c0-0.432,0-1.32-0.048-1.729c1.032,0.192,2.112,0.433,3.072,0.841c0.145,0.071,0.168,0.264,0.024,0.336
		c-0.24,0.12-0.601,0.456-0.601,0.744v1.56c0.984-0.647,2.185-1.8,2.929-2.736c0.72,0.48,1.416,1.009,2.112,1.584
		c0.144,0.145,0.096,0.36-0.145,0.385c-0.479,0.048-0.936,0.191-1.368,0.359c-1.008,0.408-1.992,0.672-3.528,1.009v0.527
		c0,0.336,0.312,0.576,0.672,0.576c0.769,0,2.377-0.023,3.217-0.048c0.384,0,0.624-0.192,0.768-0.456
		c0.192-0.408,0.36-1.056,0.48-1.632l0.432-0.024c0,0.624,0.072,1.2,0.433,1.656c0.239,0.312,0.72,0.624,1.056,0.769
		C130.736,20.55,130.472,21.006,130.112,21.342z M130.112,26.982c-0.312,0.407-0.672,0.552-0.984,0.479
		c-0.36-0.072-0.672-0.384-0.84-0.888c-0.408-1.368-1.2-2.881-2.232-3.841l0.192-0.264c1.439,0.36,2.856,0.912,3.864,2.112
		c0.288,0.312,0.432,0.696,0.456,1.08C130.592,26.118,130.424,26.598,130.112,26.982z"/>
	<path d="M137.822,19.878c-0.216,0.6-0.312,1.224-0.312,1.872c0.048,1.08,0.288,2.208,0.624,3.191
		c0.145,0.48,0.145,1.104-0.144,1.513c-0.192,0.288-0.504,0.479-0.96,0.408c-0.553-0.072-1.177-0.408-1.561-0.889
		c-0.288-0.312-0.432-0.624-0.456-0.912c-0.048-0.336,0.048-0.695,0.168-1.128c0.145-0.479,0.312-1.224,0.36-1.8
		c0.048-0.504-0.048-1.104-0.48-1.464c-0.504-0.433-1.128-0.721-1.752-0.912l0.12-0.408c0.552,0.096,1.2,0.191,1.752,0.191
		c0.36,0,0.696-0.168,0.937-0.552c1.68-2.568,3.096-5.4,4.464-8.209l0.384,0.145C139.886,13.853,138.854,16.877,137.822,19.878z
		 M137.03,13.661c-0.385-0.024-0.769-0.288-0.864-0.937c-0.288-1.584-1.032-3.456-2.4-4.752l0.192-0.288
		c1.607,0.504,3.36,1.2,4.416,2.64c0.456,0.648,0.456,1.465,0.168,2.16C138.254,13.181,137.678,13.709,137.03,13.661z
		 M154.911,26.478c-0.576-0.048-1.128,0.12-1.607,0.36c-0.576,0.336-1.057,0.816-1.416,1.345c-1.608-1.297-2.736-2.833-3.505-4.537
		c-0.768-1.728-1.152-3.6-1.248-5.592c-0.264,2.448-1.368,4.944-3.12,6.696c-1.92,1.896-4.633,2.952-7.249,3.456l-0.096-0.336
		c3.072-1.152,6.456-3.769,7.488-7.081c0.744-2.424,0.912-5.184,0.816-7.824c1.152,0.216,2.328,0.528,3.385,0.937
		c0.144,0.048,0.168,0.336,0.071,0.456c-0.144,0.168-0.336,0.239-0.479,0.287c-0.168,0.049-0.265,0.192-0.24,0.408
		c0.023,2.208,0.528,4.249,1.44,6.097c1.128,2.256,3.528,4.129,5.76,5.017V26.478z M154.167,13.301
		c-0.312,0.12-0.815,0.192-1.271,0.24c-0.288,0.023-0.912,0.312-1.32,0.624c-0.72,0.6-1.488,1.2-2.305,1.752l-0.239-0.168
		c0.527-0.984,1.08-2.136,1.512-3.192h-6.049c-1.224,2.376-2.712,4.656-4.704,6.673l-0.312-0.192
		c1.8-2.856,3.576-7.488,4.272-12.289c1.151,0.192,2.424,0.504,3.384,0.864c0.192,0.072,0.145,0.408-0.024,0.48
		c-0.336,0.144-0.72,0.359-0.863,0.72c-0.408,0.96-0.889,2.064-1.393,3h5.713c0.264-0.359,0.72-0.936,0.96-1.2
		c0.072-0.096,0.288-0.12,0.384-0.048c0.816,0.648,1.656,1.464,2.376,2.257C154.407,12.965,154.335,13.253,154.167,13.301z"/>
	<path d="M178.278,26.598c-0.408-0.023-0.912,0.192-1.417,0.505c-0.384,0.239-0.768,0.575-1.08,0.96
		c-1.271-1.129-2.304-2.377-3.048-3.769c-1.824,2.04-4.177,3.145-6.576,3.96l-0.217-0.288c2.232-1.224,4.801-3.12,6.001-5.521
		c-0.816-2.52-1.032-4.848-1.08-7.44c-0.576,1.008-1.2,2.017-1.872,3l-0.336-0.168c0.72-1.752,1.271-3.6,1.656-5.496h-2.16
		c0,0.384,0,1.152,0.023,1.68c0.024,0.192-0.096,0.36-0.288,0.456c-0.384,0.24-1.08,0.48-1.656,0.433
		c-0.168,0-0.336-0.216-0.288-0.504h-1.487v1.344h1.512c0.216-0.216,0.408-0.432,0.624-0.6c0.145-0.12,0.408-0.12,0.576-0.024
		c0.528,0.312,1.176,0.696,1.536,0.912c0.096,0.048,0.144,0.288,0.023,0.384c-0.191,0.145-0.455,0.408-0.479,0.624
		c-0.048,0.601-0.024,1.225,0.024,1.872c0,0.217-0.12,0.408-0.337,0.528c-0.384,0.264-1.056,0.408-1.464,0.433
		c-0.264,0-0.456-0.12-0.456-0.36v-0.744h-1.56v0.768c0,0.192-0.12,0.312-0.288,0.408c-0.312,0.145-0.744,0.24-1.08,0.288
		c-0.145,0.265-0.336,0.601-0.456,0.792h4.44c0.312-0.359,0.815-0.912,1.128-1.224c0.144-0.12,0.359-0.12,0.479-0.024
		c0.456,0.384,1.272,1.08,1.849,1.632c0.096,0.097,0.048,0.337-0.096,0.337h-2.545c-0.408,0.768-0.864,1.487-1.392,2.16
		c0.624,0.239,1.176,0.815,1.416,1.464c0.144,0.408,0.072,0.792-0.12,0.984c-0.192,0.191-0.624,0.239-0.912,0.096
		c-0.624-0.288-1.344-0.696-1.968-1.032c-2.377,1.584-5.089,2.376-8.041,2.568l-0.096-0.312c2.208-0.6,4.224-1.536,6.048-3.023
		c-1.32-0.456-2.76-0.648-4.2-0.816c0.408-0.696,0.816-1.344,1.152-2.088h-1.2c-0.432,0-0.84,0.071-1.2,0.216l-0.552-0.937h3.336
		c0.288-0.647,0.552-1.296,0.792-1.944c0.384,0.097,0.864,0.217,1.272,0.385v-0.696h-1.872c0,0.216-0.145,0.479-0.288,0.576
		c-0.553,0.312-1.104,0.528-1.729,0.479c-0.216-0.023-0.36-0.216-0.336-0.432c0.048-0.384,0.072-0.937,0.072-1.393v-1.752
		c0-0.408,0-0.84-0.024-1.248c0.576,0.168,1.584,0.504,2.305,0.744h1.872v-1.344h-1.632c-0.217,0.191-0.433,0.336-0.696,0.432
		c-0.36,0.145-0.769,0.192-1.2,0.145c-0.216-0.024-0.312-0.168-0.288-0.385c0.048-0.695,0.072-1.464,0.072-2.304
		c-0.456-0.048-0.984,0-1.44,0.144l-0.384-0.84h1.824v-1.536c0-0.576,0-1.176-0.049-1.584c0.793,0.264,1.536,0.647,2.257,1.032
		h1.536V8.213c0-0.505-0.024-1.032-0.096-1.513c0.983,0.216,1.991,0.504,2.903,0.889c0.192,0.071,0.24,0.384,0.049,0.455
		c-0.288,0.097-0.624,0.288-0.624,0.553v0.912h1.319c0.217-0.288,0.456-0.576,0.696-0.889c0.145-0.168,0.336-0.144,0.504-0.048
		l1.752,1.128c0.145,0.097,0.169,0.408-0.023,0.48c-0.288,0.072-0.576,0.312-0.576,0.576v0.888c0.264-0.359,0.576-0.84,0.72-1.08
		c0.097-0.144,0.265-0.12,0.385-0.023c0.359,0.312,0.888,0.815,1.2,1.104c0.287-1.584,0.504-3.24,0.527-4.872
		c1.057,0.288,2.064,0.576,3.072,0.984c0.192,0.071,0.192,0.384,0.024,0.456c-0.312,0.144-0.624,0.359-0.721,0.695
		c-0.407,1.225-0.96,2.784-1.439,3.841h2.688c0.359-0.504,0.743-0.984,1.151-1.416c0.12-0.145,0.288-0.12,0.408-0.024
		c0.672,0.552,1.345,1.2,1.872,1.824c0.097,0.12,0,0.36-0.168,0.36h-2.568c0.528,0.216,1.248,0.552,1.633,0.72
		c0.12,0.072,0.144,0.336-0.024,0.408c-0.456,0.192-0.648,0.552-0.696,0.984c-0.264,2.496-0.888,4.8-2.184,7.057
		c1.08,1.607,2.76,2.784,4.32,3.672L178.278,26.598z M162.221,16.493h-1.92v1.512h1.92V16.493z M162.221,10.253h-1.513v1.344h1.513
		V10.253z M162.221,12.341h-1.513v1.32h1.513V12.341z M162.221,21.75c-0.288,0.479-0.721,1.128-0.984,1.487
		c0.696,0.024,1.92,0.097,2.761,0.168c0.432-0.504,0.815-1.08,1.104-1.655H162.221z M165.94,10.253h-1.487v1.344h1.487V10.253z
		 M165.94,12.341h-1.487v1.32h1.487V12.341z M166.013,16.493h-1.56v1.512h1.56V16.493z M171.581,13.493l-0.12,0.336
		c0.168,2.328,0.48,4.608,1.345,6.624c0.72-2.208,1.056-4.488,1.176-6.96H171.581z"/>
</g>
<g>
	<path d="M20.67,71.979v8.563h-0.983v-7.364c-0.539,0.552-1.211,0.936-2.015,1.176v-0.983c0.396-0.108,0.792-0.288,1.199-0.528
		c0.408-0.251,0.744-0.539,1.031-0.863H20.67z"/>
	<path d="M30.196,77.029v0.815H24.14v-0.815H30.196z"/>
	<path d="M37.037,71.979v0.876h-4.174l-0.288,2.866h0.048c0.24-0.288,0.552-0.504,0.924-0.647c0.336-0.145,0.695-0.204,1.092-0.204
		c0.815,0,1.475,0.252,1.979,0.768c0.504,0.527,0.768,1.247,0.768,2.171c0,0.863-0.312,1.571-0.924,2.123
		c-0.575,0.516-1.295,0.779-2.135,0.779c-0.755,0-1.402-0.204-1.931-0.611c-0.6-0.456-0.924-1.08-0.983-1.859h0.972
		c0.048,0.54,0.264,0.959,0.647,1.247c0.336,0.252,0.779,0.384,1.308,0.384c0.6,0,1.091-0.191,1.487-0.575
		c0.384-0.384,0.587-0.876,0.587-1.476c0-0.684-0.191-1.211-0.552-1.583c-0.348-0.384-0.839-0.563-1.463-0.563
		c-0.407,0-0.768,0.084-1.091,0.264c-0.336,0.168-0.601,0.432-0.768,0.768h-0.936l0.455-4.726H37.037z"/>
</g>
<g>
	<path d="M15.377,96.375v0.876h-4.174l-0.288,2.866h0.049c0.239-0.288,0.551-0.504,0.923-0.647c0.336-0.145,0.695-0.204,1.092-0.204
		c0.815,0,1.475,0.252,1.979,0.768c0.504,0.527,0.768,1.247,0.768,2.171c0,0.863-0.312,1.571-0.923,2.123
		c-0.576,0.516-1.296,0.779-2.136,0.779c-0.755,0-1.402-0.204-1.931-0.611c-0.6-0.456-0.923-1.08-0.983-1.859h0.972
		c0.048,0.54,0.264,0.959,0.647,1.247c0.336,0.252,0.779,0.384,1.308,0.384c0.6,0,1.091-0.191,1.487-0.575
		c0.384-0.384,0.587-0.876,0.587-1.476c0-0.684-0.191-1.211-0.552-1.583c-0.348-0.384-0.839-0.563-1.463-0.563
		c-0.407,0-0.768,0.084-1.091,0.264c-0.336,0.168-0.601,0.432-0.768,0.768H9.944l0.455-4.726H15.377z"/>
	<path d="M22.996,101.425v0.815h-6.057v-0.815H22.996z"/>
	<path d="M29.273,96.891c0.504,0.456,0.768,1.067,0.768,1.812c0,0.743-0.288,1.415-0.84,2.015c-0.3,0.312-0.888,0.779-1.775,1.379
		c-1.091,0.731-1.715,1.392-1.87,1.967h4.497v0.876h-5.709c0-0.779,0.276-1.487,0.852-2.123c0.336-0.384,0.947-0.899,1.859-1.523
		c0.672-0.479,1.115-0.827,1.343-1.067c0.432-0.468,0.66-0.983,0.66-1.535c0-0.527-0.156-0.923-0.468-1.211
		c-0.312-0.288-0.756-0.432-1.308-0.432c-0.588,0-1.043,0.191-1.355,0.6c-0.336,0.384-0.516,0.96-0.527,1.715h-0.983
		c0-0.959,0.275-1.727,0.804-2.29c0.527-0.576,1.235-0.864,2.099-0.864C28.11,96.208,28.758,96.436,29.273,96.891z"/>
	<path d="M37.037,96.375v0.876h-4.174l-0.288,2.866h0.048c0.24-0.288,0.552-0.504,0.924-0.647c0.336-0.145,0.695-0.204,1.091-0.204
		c0.815,0,1.476,0.252,1.979,0.768c0.503,0.527,0.768,1.247,0.768,2.171c0,0.863-0.312,1.571-0.924,2.123
		c-0.575,0.516-1.295,0.779-2.135,0.779c-0.756,0-1.403-0.204-1.931-0.611c-0.6-0.456-0.924-1.08-0.983-1.859h0.971
		c0.049,0.54,0.265,0.959,0.648,1.247c0.335,0.252,0.779,0.384,1.307,0.384c0.6,0,1.092-0.191,1.487-0.575
		c0.384-0.384,0.588-0.876,0.588-1.476c0-0.684-0.192-1.211-0.552-1.583c-0.348-0.384-0.84-0.563-1.463-0.563
		c-0.408,0-0.768,0.084-1.092,0.264c-0.336,0.168-0.6,0.432-0.768,0.768h-0.936l0.456-4.726H37.037z"/>
</g>
<g>
	<path d="M21.843,136.326c0.504,0.456,0.768,1.067,0.768,1.812c0,0.743-0.287,1.415-0.839,2.015c-0.3,0.312-0.888,0.779-1.775,1.379
		c-1.092,0.731-1.715,1.392-1.871,1.967h4.498v0.876h-5.709c0-0.779,0.275-1.487,0.852-2.123c0.336-0.384,0.947-0.899,1.858-1.523
		c0.672-0.479,1.115-0.827,1.344-1.067c0.432-0.468,0.659-0.983,0.659-1.535c0-0.527-0.155-0.923-0.468-1.211
		c-0.312-0.288-0.755-0.432-1.307-0.432c-0.588,0-1.044,0.191-1.355,0.6c-0.336,0.384-0.516,0.96-0.528,1.715h-0.983
		c0-0.959,0.276-1.727,0.804-2.29c0.528-0.576,1.235-0.864,2.099-0.864C20.68,135.642,21.327,135.871,21.843,136.326z"/>
	<path d="M29.606,135.81v0.876h-4.174l-0.288,2.866h0.048c0.24-0.288,0.552-0.504,0.924-0.647c0.336-0.145,0.695-0.204,1.092-0.204
		c0.815,0,1.475,0.252,1.979,0.768c0.504,0.527,0.768,1.247,0.768,2.171c0,0.863-0.312,1.571-0.924,2.123
		c-0.575,0.516-1.295,0.779-2.135,0.779c-0.755,0-1.402-0.204-1.931-0.611c-0.6-0.456-0.924-1.08-0.983-1.859h0.972
		c0.048,0.54,0.264,0.959,0.647,1.247c0.336,0.252,0.779,0.384,1.308,0.384c0.6,0,1.091-0.191,1.487-0.575
		c0.384-0.384,0.587-0.876,0.587-1.476c0-0.684-0.191-1.211-0.552-1.583c-0.348-0.384-0.839-0.563-1.463-0.563
		c-0.407,0-0.768,0.084-1.091,0.264c-0.336,0.168-0.601,0.432-0.768,0.768h-0.936l0.455-4.726H29.606z"/>
	<path d="M34.612,138.245v2.615h2.614v0.815h-2.614v2.626h-0.816v-2.626H31.17v-0.815h2.626v-2.615H34.612z"/>
</g>
<g>
	<rect x="5" y="37.5" fill="#999999" width="222" height="1"/>
</g>
<g>
	<rect x="174" y="38.5" fill="#DDDDDD" width="1" height="132"/>
</g>
<g>
	<rect x="174" y="106.5" fill="#DDDDDD" width="53" height="1"/>
</g>
</svg>
