<?xml version="1.0" encoding="utf-8"?>
<!-- Generator: Adobe Illustrator 17.0.0, SVG Export Plug-In . SVG Version: 6.00 Build 0)  -->
<!DOCTYPE svg PUBLIC "-//W3C//DTD SVG 1.1//EN" "http://www.w3.org/Graphics/SVG/1.1/DTD/svg11.dtd">
<svg version="1.1" id="Layer_1" xmlns="http://www.w3.org/2000/svg" xmlns:xlink="http://www.w3.org/1999/xlink" x="0px" y="0px"
	 width="310px" height="62px" viewBox="0 0 310 62" enable-background="new 0 0 310 62" xml:space="preserve">
<g>
	<rect x="144" y="26" fill="#00FFB0" width="20" height="20"/>
</g>
<g>
	<rect x="175" y="16" fill="#00FFB0" width="40" height="40"/>
</g>
<g>
	<rect x="119" y="16" fill="#00FFB0" width="10" height="10"/>
</g>
<g>
	<rect x="119" y="31" fill="#FFF800" width="10" height="10"/>
</g>
<g>
	<rect x="119" y="46" fill="#FF0055" width="10" height="10"/>
</g>
<g>
	<rect x="236" y="46" fill="#808080" width="10" height="10"/>
</g>
<g>
	<path d="M92.083,14.578v1.571h4.713v0.84h-4.713v1.835h3.226v0.768c-0.671,1.343-1.643,2.494-2.914,3.454
		c0.6,0.336,1.259,0.659,1.979,0.947c0.852,0.324,1.763,0.6,2.735,0.84l-0.504,0.755c-1.031-0.275-2.015-0.6-2.938-0.983
		c-0.744-0.323-1.403-0.671-2.003-1.055c-1.367,0.863-2.998,1.547-4.905,2.062l-0.492-0.768c1.823-0.432,3.382-1.031,4.666-1.799
		c-0.624-0.479-1.175-1.008-1.631-1.596c-0.443-0.552-0.755-1.163-0.935-1.822h-0.924v-0.804h3.754v-1.835H86.53v-0.84h4.666v-1.571
		H92.083z M94.338,19.627h-5.122c0.216,0.647,0.552,1.211,1.008,1.703c0.408,0.468,0.887,0.887,1.427,1.247
		C92.814,21.762,93.714,20.779,94.338,19.627z"/>
	<path d="M98.614,25.468l-0.18-0.828c0.324,0.036,0.636,0.061,0.936,0.061c0.324,0,0.492-0.181,0.492-0.54v-2.843
		c-0.456,0.168-0.923,0.336-1.403,0.48l-0.216-0.864c0.552-0.132,1.091-0.287,1.619-0.479v-2.746h-1.487V16.88h1.487v-2.146h0.839
		v2.146h1.248v0.828h-1.248v2.422c0.432-0.191,0.852-0.396,1.271-0.611v0.876c-0.42,0.216-0.839,0.407-1.271,0.587v3.395
		c0,0.72-0.348,1.092-1.031,1.092H98.614z M106.686,20.395v-0.924h0.839v0.924h1.463v0.803h-1.463v3.263
		c0,0.684-0.348,1.031-1.031,1.031h-1.559l-0.168-0.815c0.504,0.036,0.983,0.06,1.439,0.06c0.312,0,0.48-0.168,0.48-0.479v-3.059
		h-4.45v-0.803H106.686z M105.978,14.614v1.235h2.842v0.804h-2.842v1.403h2.519v0.791h-5.781v-0.791h2.422v-1.403h-2.854v-0.804
		h2.854v-1.235H105.978z M104.922,23.693l-0.684,0.479c-0.36-0.6-0.839-1.259-1.451-1.99l0.696-0.42
		C104.107,22.494,104.587,23.141,104.922,23.693z"/>
</g>
<g>
	<path d="M88.689,40.706h-0.815v-6.057c-0.372,1.164-0.852,2.219-1.452,3.167l-0.372-0.936c0.839-1.176,1.427-2.495,1.787-3.982
		h-1.355v-0.779h1.392v-2.327h0.815v2.327h1.307v0.779h-1.307v0.792c0.516,0.623,1.043,1.343,1.571,2.135l-0.456,0.684
		c-0.432-0.792-0.804-1.428-1.115-1.907V40.706z M96.233,32.778v3.635h-2.459c-0.048,0.323-0.108,0.623-0.18,0.911h3.442v0.792
		h-3.73c-0.168,0.359-0.36,0.684-0.6,0.971c-0.552,0.684-1.511,1.224-2.902,1.607l-0.3-0.708c1.199-0.335,2.063-0.791,2.591-1.391
		c0.132-0.156,0.251-0.312,0.348-0.479h-2.818v-0.792h3.178c0.096-0.288,0.168-0.6,0.216-0.911h-2.531v-3.635H96.233z M91.471,30.74
		v-0.984h0.78v0.984h0.947v0.707h-0.947v0.936h-0.78v-0.936h-1.727V30.74H91.471z M95.453,34.278v-0.804h-4.186v0.804H95.453z
		 M95.453,34.926h-4.186v0.815h4.186V34.926z M95.249,29.756v0.984h1.739v0.707h-1.739v0.936H94.47v-0.936h-0.948V30.74h0.948
		v-0.984H95.249z M97.204,40.143l-0.432,0.66c-1.007-0.684-2.051-1.224-3.118-1.607l0.419-0.624
		C95.213,39.003,96.257,39.531,97.204,40.143z"/>
	<path d="M99.297,35.777c-0.144,1.211-0.335,2.278-0.563,3.202l-0.636-0.229c0.228-0.815,0.42-1.858,0.588-3.13L99.297,35.777z
		 M99.31,33.223l-0.576,0.144c-0.12-0.84-0.276-1.643-0.456-2.41l0.563-0.181C99.01,31.483,99.166,32.299,99.31,33.223z
		 M99.753,34.014v-4.222h0.768v4.222h1.199v0.756h-1.199v5.937h-0.768V34.77h-1.259v-0.756H99.753z M101.864,30.68
		c-0.06,0.96-0.216,1.823-0.468,2.591l-0.504-0.168c0.228-0.72,0.372-1.56,0.42-2.495L101.864,30.68z M101.972,38.703l-0.636,0.168
		c-0.108-1.104-0.24-2.171-0.408-3.202l0.563-0.18C101.672,36.425,101.828,37.504,101.972,38.703z M105.042,39.303h-2.195v0.72
		h-0.696v-4.749h1.067v-2.339h-1.247v-0.756h1.247v-2.087h0.792v2.087h1.259v0.756h-1.259v2.339h1.031V39.303z M104.335,38.607
		v-2.639h-1.487v2.639H104.335z M105.474,40.742l-0.611-0.552c0.54-1.104,0.815-2.494,0.827-4.186V30.2h3.059v9.618
		c0,0.576-0.3,0.876-0.899,0.876h-0.816l-0.192-0.72c0.276,0.024,0.528,0.036,0.768,0.036c0.24,0,0.372-0.156,0.372-0.468v-2.902
		c-0.492,0.144-1.02,0.275-1.583,0.384C106.302,38.512,105.99,39.759,105.474,40.742z M106.446,35.957
		c0,0.096-0.012,0.191-0.012,0.288c0.576-0.108,1.091-0.229,1.547-0.36v-1.787c-0.504-0.144-1.02-0.252-1.535-0.336V35.957z
		 M107.981,30.956h-1.535v2.087c0.527,0.084,1.031,0.191,1.535,0.335V30.956z"/>
</g>
<g>
	<path d="M88.665,49.457c-0.096,2.662-0.708,4.81-1.859,6.44l-0.671-0.6c1.08-1.464,1.631-3.502,1.679-6.104v-3.767h8.779v0.84
		h-7.916v2.375h7.172v0.768c-0.432,1.511-1.224,2.807-2.375,3.886c0.983,0.731,2.183,1.367,3.61,1.919l-0.468,0.756
		c-1.511-0.624-2.759-1.332-3.766-2.136c-1.104,0.864-2.447,1.584-4.03,2.159l-0.48-0.731c1.535-0.54,2.819-1.199,3.85-1.991
		c-1.199-1.115-2.003-2.387-2.411-3.813H88.665z M94.985,49.457h-4.39c0.384,1.247,1.116,2.339,2.207,3.298
		C93.834,51.796,94.554,50.704,94.985,49.457z"/>
	<path d="M99.681,47.226l-0.647,0.288c-0.264-0.707-0.54-1.331-0.839-1.883l0.684-0.216C99.189,45.967,99.454,46.578,99.681,47.226z
		 M100.845,44.947v2.975h0.923v-2.975h0.792v2.975h1.499v0.815h-0.852l-0.504,1.511h1.248v0.756h-2.219v1.308h1.991v0.755h-1.991
		v1.523c0.875-0.084,1.655-0.18,2.327-0.3v0.779c-1.248,0.217-3.106,0.396-5.577,0.528l-0.12-0.804
		c0.911-0.036,1.751-0.084,2.519-0.132v-1.596H98.89v-0.755h1.991v-1.308H98.59v-0.756h1.259l-0.408-1.511h-1.103v-0.815h1.727
		v-2.975H100.845z M101.912,50.248l0.504-1.511h-2.183l0.396,1.511H101.912z M104.395,45.535c-0.216,0.743-0.492,1.391-0.816,1.967
		l-0.684-0.252c0.288-0.504,0.552-1.14,0.768-1.907L104.395,45.535z M106.386,52.396l-0.731,0.336
		c-0.396-1.104-0.828-2.087-1.308-2.927l0.744-0.24C105.582,50.452,106.014,51.388,106.386,52.396z M107.166,47.382v-2.471h0.839
		v2.471h1.104v0.84h-1.104v6.584c0,0.708-0.36,1.067-1.067,1.067h-1.511l-0.18-0.827c0.492,0.036,0.959,0.06,1.403,0.06
		c0.336,0,0.516-0.18,0.516-0.516v-6.368h-2.699v-0.84H107.166z"/>
</g>
<g>
	<path d="M227.236,27.854l-0.636-0.575c0.72-0.768,1.092-1.739,1.116-2.938v-2.795c-0.672,0.828-1.439,1.596-2.315,2.303
		l-0.552-0.719c1.499-1.2,2.663-2.567,3.49-4.126h-3.178v-0.828h3.574c0.204-0.468,0.384-0.935,0.528-1.402l0.875,0.096
		c-0.132,0.455-0.288,0.888-0.456,1.307h5.96v0.828h-6.32c-0.24,0.479-0.504,0.947-0.792,1.403h5.589v6.416
		c0,0.647-0.36,0.972-1.055,0.972h-1.26l-0.204-0.779c0.432,0.023,0.839,0.036,1.211,0.036c0.312,0,0.479-0.181,0.479-0.517v-1.283
		h-4.845C228.279,26.283,227.872,27.158,227.236,27.854z M228.519,24.292c0,0.072-0.012,0.132-0.012,0.204h4.785v-1.271h-4.773
		V24.292z M233.292,21.161h-4.773v1.308h4.773V21.161z"/>
	<path d="M238.768,21.678c-0.048,2.542-0.479,4.593-1.295,6.128l-0.647-0.575c0.696-1.344,1.056-3.19,1.08-5.553v-3.898h4.617
		c-0.144-0.312-0.288-0.588-0.456-0.852l0.912-0.144c0.144,0.3,0.288,0.636,0.419,0.995h4.09v0.815h-8.719v1.367h2.015v-0.971h0.839
		v0.971h3.178v-0.983h0.839v0.983h1.847v0.792h-1.847v1.871h-2.002v0.995h3.262v2.446c0,0.672-0.336,1.02-1.008,1.02h-0.959
		l-0.228-0.803l0.911,0.035c0.288,0,0.444-0.155,0.444-0.443v-1.476h-2.422v3.454h-0.852v-3.454h-2.339v2.735h-0.839V23.62h3.178
		v-0.995h-2.003v-1.871h-2.015V21.678z M241.623,21.905h3.178v-1.151h-3.178V21.905z"/>
	<path d="M252.759,24.472l-3.946,0.264v-0.852l3.946-0.252V24.472z M252.519,19.051v0.827h-3.406v-0.827H252.519z M256.321,20.334
		c0,0.684-0.036,1.319-0.108,1.895c0.695,2.087,1.919,3.742,3.646,4.954l-0.576,0.659c-1.463-1.14-2.566-2.543-3.311-4.222
		c-0.071,0.252-0.132,0.492-0.203,0.72c-0.48,1.439-1.571,2.614-3.274,3.526l-0.563-0.684c1.487-0.792,2.482-1.787,2.974-2.986
		c0.372-1.02,0.564-2.303,0.576-3.862H256.321z M253.059,22.229l-0.72-0.516c0.912-1.175,1.499-2.806,1.763-4.893l0.851,0.132
		c-0.083,0.611-0.191,1.188-0.323,1.715h4.737v0.563c-0.252,1.08-0.588,2.147-0.995,3.202l-0.852-0.252
		c0.384-0.779,0.684-1.679,0.923-2.687h-4.029C254.078,20.622,253.623,21.533,253.059,22.229z"/>
	<path d="M230.774,31.292v1.644h4.114v0.84h-4.114v2.122h4.75v0.84h-3.958c0.804,1.511,2.195,2.854,4.162,4.042l-0.6,0.768
		c-2.039-1.439-3.466-3.034-4.257-4.81h-0.096v5.469h-0.888v-5.469h-0.108c-0.863,1.967-2.314,3.574-4.354,4.846l-0.492-0.804
		c1.919-1.056,3.31-2.398,4.174-4.042h-3.97v-0.84h4.749v-2.122h-4.03v-0.84h4.03v-1.644H230.774z"/>
	<path d="M241.886,32.288v-1.02h0.888v1.02h4.33v0.791h-4.33v1.14h3.634v0.792h-3.634v1.163h4.629v0.779h-5.493
		c-0.42,0.6-0.959,1.14-1.607,1.644v2.578c0.899-0.275,1.787-0.6,2.675-0.983l0.168,0.804c-1.2,0.504-2.411,0.911-3.658,1.224
		l-0.288-0.744c0.168-0.072,0.252-0.18,0.252-0.323v-1.979c-0.647,0.384-1.367,0.744-2.171,1.079l-0.468-0.755
		c1.919-0.672,3.311-1.512,4.198-2.543h-3.754v-0.779h4.629v-1.163h-3.634v-0.792h3.634v-1.14h-4.33v-0.791H241.886z
		 M246.912,38.152c-0.636,0.647-1.355,1.14-2.147,1.476c0.792,0.815,1.811,1.439,3.035,1.847l-0.516,0.744
		c-2.147-0.78-3.67-2.219-4.57-4.33l0.66-0.372c0.24,0.576,0.54,1.104,0.899,1.56c0.72-0.312,1.403-0.815,2.051-1.512
		L246.912,38.152z"/>
	<path d="M250.948,39.316c-0.288,1.103-0.672,2.062-1.175,2.866l-0.72-0.444c0.503-0.779,0.863-1.643,1.104-2.59L250.948,39.316z
		 M253.946,37.864c0,0.588-0.335,0.888-0.995,0.888h-0.996l-0.204-0.707c0.36,0.023,0.684,0.036,0.983,0.036
		c0.288,0,0.444-0.168,0.444-0.48v-0.527c-0.768,0.24-1.619,0.468-2.566,0.684l-0.18-0.624c0.996-0.216,1.907-0.443,2.747-0.707
		v-1.644h-2.734v0.528c0.768,0.096,1.511,0.228,2.207,0.396l-0.228,0.563c-0.648-0.156-1.308-0.275-1.979-0.372
		c-0.024,1.26-0.264,2.279-0.708,3.07l-0.612-0.552c0.36-0.684,0.552-1.547,0.564-2.603v-1.727h4.257V37.864z M254.582,33.427
		l-0.612,0.433c-0.12-0.192-0.251-0.372-0.396-0.564c-0.888,0.097-2.279,0.181-4.15,0.252l-0.096-0.623
		c0.24-0.036,0.492-0.168,0.731-0.396c0.348-0.359,0.708-0.815,1.08-1.379l0.743,0.275c-0.443,0.6-0.875,1.092-1.283,1.451
		c0.899-0.048,1.739-0.084,2.531-0.132c-0.204-0.239-0.42-0.479-0.636-0.72l0.588-0.371
		C253.73,32.324,254.234,32.924,254.582,33.427z M252.759,42.194c-0.648,0-0.972-0.324-0.972-0.947v-2.135h0.828v1.967
		c0,0.239,0.12,0.359,0.384,0.359h2.854c0.251,0,0.432-0.06,0.539-0.18c0.145-0.144,0.24-0.588,0.288-1.319l0.779,0.252
		c-0.084,0.947-0.239,1.523-0.479,1.739c-0.204,0.168-0.527,0.264-0.972,0.264H252.759z M255.613,40.419l-0.647,0.456
		c-0.336-0.563-0.792-1.188-1.367-1.871l0.623-0.384C254.821,39.304,255.289,39.903,255.613,40.419z M255.781,31.269v0.911
		l3.466-0.204v0.708l-3.466,0.191v0.78c0,0.228,0.12,0.348,0.359,0.348h3.322v0.743h-3.538c-0.623,0-0.936-0.312-0.936-0.911v-2.566
		H255.781z M259.235,36.413l-3.431,0.192v0.863c0,0.276,0.133,0.42,0.408,0.42h1.775c0.239,0,0.407-0.048,0.516-0.132
		c0.132-0.096,0.216-0.396,0.264-0.888l0.72,0.24c-0.072,0.695-0.229,1.127-0.444,1.295c-0.191,0.12-0.503,0.192-0.911,0.192h-2.146
		c-0.672,0-0.996-0.324-0.996-0.972v-2.482h0.815v0.755l3.431-0.191V36.413z M259.823,41.367l-0.672,0.479
		c-0.408-0.744-0.972-1.571-1.679-2.482l0.671-0.42C258.875,39.867,259.439,40.671,259.823,41.367z"/>
</g>
<g>
	<path fill="#DDDDDD" d="M289,47v8h-8v-8H289 M290,46h-10v10h10V46L290,46z"/>
</g>
<g>
	<path d="M269.461,34.387l-0.528-0.695c0.924-0.672,1.548-1.5,1.871-2.471l0.84,0.107c-0.12,0.372-0.276,0.72-0.456,1.056h7.939
		v0.815h-8.467C270.324,33.631,269.916,34.026,269.461,34.387z M271.523,33.811v1.5h1.379v-1.5h0.84v1.5h1.403v-1.5h0.827v1.5h1.38
		v-1.5h0.839v1.5h1.188v0.791h-1.188v2.003h1.344v0.804h-10.41v-0.804h1.571v-2.003h-1.403v-0.791h1.403v-1.5H271.523z
		 M271.355,39.771c-0.407,0.972-0.899,1.812-1.475,2.519l-0.696-0.516c0.552-0.659,1.044-1.439,1.451-2.351L271.355,39.771z
		 M272.902,38.104v-2.003h-1.379v2.003H272.902z M273.886,42.026l-0.863,0.192c-0.155-0.9-0.348-1.691-0.563-2.387l0.792-0.181
		C273.49,40.384,273.694,41.175,273.886,42.026z M275.146,38.104v-2.003h-1.403v2.003H275.146z M276.681,41.954l-0.876,0.192
		c-0.203-0.899-0.455-1.691-0.743-2.387l0.792-0.18C276.165,40.312,276.44,41.103,276.681,41.954z M277.353,38.104v-2.003h-1.38
		v2.003H277.353z M279.667,41.727l-0.72,0.504c-0.384-0.744-0.911-1.56-1.583-2.471l0.659-0.408
		C278.743,40.264,279.283,41.055,279.667,41.727z"/>
	<path d="M282.768,36.078c-0.048,2.542-0.479,4.593-1.295,6.128l-0.647-0.575c0.695-1.344,1.056-3.19,1.079-5.553V32.18h4.617
		c-0.144-0.312-0.287-0.588-0.455-0.852l0.911-0.144c0.144,0.3,0.288,0.636,0.42,0.995h4.09v0.815h-8.72v1.367h2.016v-0.971h0.839
		v0.971h3.179v-0.983h0.839v0.983h1.848v0.792h-1.848v1.871h-2.002v0.995h3.262v2.446c0,0.672-0.336,1.02-1.008,1.02h-0.959
		l-0.228-0.803l0.911,0.035c0.288,0,0.443-0.155,0.443-0.443V38.8h-2.422v3.454h-0.852V38.8h-2.339v2.735h-0.84v-3.515h3.179v-0.995
		h-2.003v-1.871h-2.016V36.078z M285.622,36.306h3.179v-1.151h-3.179V36.306z"/>
	<path d="M296.759,38.872l-3.946,0.264v-0.852l3.946-0.252V38.872z M296.519,33.451v0.827h-3.405v-0.827H296.519z M300.321,34.734
		c0,0.684-0.036,1.319-0.108,1.895c0.695,2.087,1.919,3.742,3.646,4.954l-0.576,0.659c-1.463-1.14-2.566-2.543-3.311-4.222
		c-0.071,0.252-0.132,0.492-0.203,0.72c-0.48,1.439-1.571,2.614-3.274,3.526l-0.563-0.684c1.486-0.792,2.482-1.787,2.974-2.986
		c0.372-1.02,0.564-2.303,0.576-3.862H300.321z M297.059,36.629l-0.72-0.516c0.912-1.175,1.499-2.806,1.764-4.893l0.851,0.132
		c-0.083,0.611-0.191,1.188-0.323,1.715h4.737v0.563c-0.252,1.08-0.588,2.147-0.995,3.202l-0.852-0.252
		c0.384-0.779,0.684-1.679,0.923-2.687h-4.029C298.078,35.022,297.622,35.934,297.059,36.629z"/>
</g>
<g>
	<path d="M13.299,26.781c-0.324,1.639-0.792,3.331-1.405,4.682c0.288,0.18,0.63,0.432,1.099,0.72
		c1.242,0.738,2.935,0.847,5.042,0.847c2.052,0,5.293-0.181,7.292-0.469c-0.252,0.576-0.612,1.621-0.63,2.197
		c-1.476,0.09-4.663,0.216-6.77,0.216c-2.395,0-3.907-0.198-5.204-0.954c-0.756-0.414-1.405-1.009-1.765-1.009
		c-0.414,0-1.062,1.225-1.513,2.251l-1.422-2.035c0.63-0.756,1.278-1.35,1.891-1.729c0.414-0.882,0.774-2.017,1.044-3.114H8.69
		c0.414-1.062,0.882-2.503,1.296-3.907H8.366v-1.909h4.213c-0.378,1.261-0.811,2.701-1.243,3.962h0.738l0.324-0.072L13.299,26.781z
		 M10.274,22.046c-0.198-0.811-0.685-2.106-0.99-3.098l1.89-0.576c0.342,0.973,0.811,2.179,1.062,2.989L10.274,22.046z
		 M15.568,32.236h-1.854v-7.832h1.333v-5.51h7.76v5.51h1.314v6.014c0,0.847-0.144,1.297-0.702,1.585
		c-0.522,0.27-1.26,0.288-2.232,0.288c-0.054-0.469-0.252-1.081-0.468-1.549h-2.701v0.559h-1.53v-4.538h4.699v3.871
		c0.342,0,0.63,0,0.738,0c0.198,0,0.252-0.054,0.252-0.233v-4.376h-6.608V32.236z M16.9,24.404h1.008v-2.827h2.971v-1.098H16.9
		V24.404z M19.637,28.132h-1.621v1.26h1.621V28.132z M20.879,22.91h-1.422v1.494h1.422V22.91z"/>
	<path d="M34.147,27.717c-0.99,1.585-2.179,3.115-3.349,4.412l7.292-0.433c-0.63-0.918-1.296-1.818-1.927-2.593l1.98-0.864
		c1.566,1.801,3.205,4.159,3.997,5.798l-2.088,1.08c-0.198-0.45-0.45-0.954-0.756-1.494c-9.075,0.721-10.335,0.774-11.235,1.116
		c-0.126-0.432-0.486-1.513-0.738-2.106c0.468-0.108,0.847-0.468,1.387-1.08c0.432-0.45,1.71-2.071,2.719-3.836h-5.06v-2.16h7.004
		V23h-5.636v-2.161h5.636v-2.484h2.269v2.484h5.797V23h-5.797v2.557h7.094v2.16H34.147z"/>
	<path d="M60.237,28.617c-1.008,0.757-2.197,1.495-3.223,2.107c1.099,0.954,2.449,1.71,4.069,2.16
		c-0.468,0.433-1.098,1.314-1.404,1.891c-3.727-1.278-5.96-3.889-7.31-7.616c-0.685,0.702-1.477,1.387-2.323,1.999v3.061
		l3.889-1.062c0.054,0.576,0.216,1.44,0.36,1.908c-5.149,1.531-5.959,1.783-6.5,2.107c-0.126-0.505-0.558-1.459-0.882-1.891
		c0.396-0.198,0.9-0.631,0.9-1.423v-1.314c-0.828,0.433-1.638,0.811-2.467,1.099c-0.288-0.486-0.936-1.297-1.386-1.729
		c2.017-0.612,4.159-1.711,5.744-2.953h-5.113v-1.818h6.824v-1.009h-5.167v-1.71h5.167v-0.937h-6.05v-1.818h6.05v-1.297h2.161v1.297
		h6.266v1.818h-6.266v0.937h5.564v1.71h-5.564v1.009h6.878v1.818h-6.05c0.342,0.9,0.829,1.711,1.387,2.449
		c0.954-0.648,1.98-1.459,2.665-2.107L60.237,28.617z"/>
	<path d="M62.463,33.785c0.576-0.864,1.116-2.161,1.386-3.277l1.836,0.721c-0.324,1.152-0.774,2.593-1.35,3.493L62.463,33.785z
		 M69.719,22.91c-0.126-0.252-0.306-0.559-0.504-0.883c-4.934,0.469-5.654,0.576-6.104,0.793c-0.108-0.396-0.396-1.225-0.594-1.693
		c0.306-0.071,0.63-0.252,0.973-0.54c0.342-0.233,1.458-1.188,2.161-2.232l1.89,0.559c-0.576,0.702-1.278,1.386-1.98,1.962
		l2.719-0.216c-0.234-0.288-0.468-0.594-0.702-0.864l1.44-0.738c0.811,0.937,1.783,2.196,2.233,3.025L69.719,22.91z M65.146,27.97
		c-0.18,0.899-0.522,1.765-1.116,2.431c-0.306-0.307-1.116-0.883-1.513-1.081c0.955-1.062,1.026-2.448,1.026-3.601V23h6.626v5.636
		c0,0.774-0.162,1.116-0.684,1.368c-0.504,0.234-1.224,0.234-2.179,0.234c-0.09-0.433-0.342-1.009-0.54-1.387
		c0.558,0.036,1.134,0.036,1.296,0.018c0.198-0.018,0.252-0.071,0.252-0.233v-0.9c-0.954,0.432-1.909,0.847-2.773,1.225
		L65.146,27.97z M65.326,25.755c0,0.522-0.018,1.08-0.09,1.656c0.648-0.18,1.423-0.414,2.269-0.666
		c-0.522-0.307-1.44-0.738-2.179-1.08V25.755z M65.326,24.477v0.972l0.648-0.792c0.738,0.288,1.783,0.721,2.341,1.009v-1.188H65.326
		z M72.582,33.191c0.792,0,0.936-0.253,1.026-1.819c0.432,0.307,1.279,0.576,1.819,0.685c-0.234,2.269-0.792,2.827-2.665,2.827
		h-3.349c-2.395,0-3.025-0.522-3.025-2.215v-1.837h2.089v1.801c0,0.486,0.18,0.559,1.134,0.559H72.582z M68.314,26.493v-0.792
		l-0.72,1.008L68.314,26.493z M70.961,29.626c0.558,0.63,1.333,1.494,1.71,2.053l-1.548,1.062c-0.36-0.576-1.081-1.531-1.639-2.197
		L70.961,29.626z M74.004,24.08c-1.981,0-2.485-0.684-2.485-2.431v-3.133h1.98v1.062h4.25v1.584H73.5v0.522
		c0,0.504,0.072,0.702,0.576,0.702h2.521c0.486,0,1.26-0.054,1.638-0.144c0.036,0.521,0.09,1.242,0.18,1.692
		c-0.36,0.107-1.098,0.144-1.747,0.144H74.004z M74.058,30.184c-2.052,0-2.539-0.521-2.539-2.269v-3.547h1.962v1.152h4.321v1.566
		h-4.321v0.828c0,0.505,0.144,0.559,0.811,0.559h2.088c0.486,0,0.612-0.126,0.684-0.9c0.396,0.252,1.207,0.54,1.729,0.648
		c-0.216,1.53-0.774,1.962-2.214,1.962H74.058z M77.389,30.472c0.486,1.026,1.081,2.396,1.351,3.241l-1.963,0.612
		c-0.234-0.847-0.756-2.269-1.224-3.312L77.389,30.472z"/>
	<path d="M31.987,51.91h-5.708v-2.144h5.708V51.91z M31.591,44.636h-4.952v-2.071h4.952V44.636z M37.568,47.517
		c0.756,3.438,2.323,6.122,5.401,7.274c-0.486,0.432-1.134,1.332-1.422,1.908c-2.305-1.026-3.763-2.773-4.735-5.113
		c-0.756,1.926-2.287,3.871-5.257,5.293c-0.324-0.521-1.099-1.351-1.621-1.765c4.826-2.214,5.33-5.726,5.33-8.048V45.41h2.305v1.71
		V47.517z M34.417,44.941c-0.558,1.459-1.243,2.737-1.962,3.745c-0.468-0.36-1.567-0.972-2.143-1.242
		c1.495-1.675,2.557-4.556,3.079-7.454l2.376,0.396c-0.18,0.828-0.378,1.638-0.612,2.431h5.419l0.414-0.126l1.566,0.918
		c-0.468,1.908-1.224,3.835-1.873,5.222c-0.432-0.252-1.314-0.685-1.836-0.883c0.342-0.756,0.756-1.908,1.062-3.007H34.417z"/>
	<path d="M60.069,45.122c-0.288,2.646-0.756,4.897-1.548,6.788c0.702,1.368,1.639,2.466,2.845,3.187
		c-0.415,0.306-0.937,0.99-1.207,1.458c-1.081-0.72-1.909-1.674-2.611-2.845c-0.81,1.278-1.873,2.323-3.223,3.188
		c-0.126-0.307-0.486-0.883-0.81-1.297l-1.152,0.99c-0.612-0.396-1.422-0.828-2.323-1.242c-1.188,0.54-2.809,1.009-5.042,1.332
		c-0.144-0.414-0.504-1.026-0.774-1.368c1.585-0.216,2.827-0.486,3.799-0.811c-0.81-0.323-1.638-0.611-2.395-0.828
		c0.252-0.288,0.54-0.647,0.792-1.044l-1.621,0.09l-0.162-1.422c0.792-0.036,1.729-0.072,2.772-0.126
		c0.234-0.36,0.45-0.757,0.63-1.117h-2.647v-3.259h3.223v-0.504h-2.737v-1.891h-1.369v-1.513h1.369V41.07h2.737v-1.099h1.621v1.099
		h2.899v1.818h1.224v1.513h-1.224v1.891h-2.899v0.504h3.295v1.314c1.188-1.927,1.783-4.987,2.106-8.084l1.801,0.233
		c-0.126,1.009-0.27,2.017-0.468,2.989h4.267v1.873H60.069z M47.142,48.759h1.477v-0.666h-1.477V48.759z M47.646,42.421v0.576h0.972
		v-0.576H47.646z M48.618,44.941v-0.648h-0.972v0.648H48.618z M48.132,53.008c0.594,0.198,1.207,0.414,1.801,0.648
		c0.666-0.396,1.044-0.847,1.26-1.278l-2.737,0.144L48.132,53.008z M53.029,52.27c-0.162,0.721-0.558,1.44-1.368,2.125
		c0.648,0.288,1.224,0.576,1.729,0.828c1.44-0.847,2.485-1.98,3.205-3.439c-0.414-1.08-0.774-2.286-1.062-3.583
		c-0.198,0.469-0.432,0.919-0.684,1.314c-0.27-0.324-0.918-1.008-1.314-1.314v1.854h-3.601c-0.18,0.343-0.378,0.685-0.576,1.045
		l2.106-0.108v-0.63h1.675v0.558l0.576-0.035l-0.018,1.35L53.029,52.27z M50.239,42.421v0.576h1.044v-0.576H50.239z M51.283,44.941
		v-0.648h-1.044v0.648H51.283z M50.239,48.093v0.666h1.44v-0.666H50.239z M56.577,45.122c0.216,1.53,0.522,2.988,0.918,4.321
		c0.378-1.279,0.612-2.719,0.774-4.321H56.577z"/>
</g>
<g>
	<path d="M118.738,4.574v7.136h-1.169V5.983c-0.43,0.39-0.97,0.68-1.63,0.869V5.693c0.32-0.08,0.66-0.22,1.03-0.42
		c0.359-0.22,0.649-0.449,0.889-0.699H118.738z"/>
	<path d="M126.497,8.651v0.939h-5.047V8.651H126.497z"/>
	<path d="M132.268,4.574v1.029h-3.408l-0.2,1.959h0.03c0.22-0.22,0.47-0.38,0.76-0.48c0.26-0.1,0.55-0.149,0.869-0.149
		c0.67,0,1.22,0.22,1.639,0.659c0.42,0.44,0.64,1.05,0.64,1.819c0,0.739-0.279,1.34-0.839,1.81c-0.52,0.419-1.13,0.629-1.839,0.629
		c-0.65,0-1.21-0.18-1.669-0.529c-0.521-0.39-0.8-0.92-0.85-1.579h1.149c0.05,0.39,0.199,0.68,0.459,0.869
		c0.221,0.16,0.53,0.25,0.92,0.25c0.42,0,0.779-0.13,1.069-0.39c0.28-0.26,0.43-0.609,0.43-1.05c0-0.479-0.13-0.859-0.37-1.129
		c-0.239-0.28-0.6-0.41-1.059-0.41c-0.311,0-0.58,0.05-0.8,0.16c-0.25,0.12-0.44,0.3-0.58,0.55h-1.089l0.39-4.018H132.268z"/>
</g>
<g>
	<path d="M146.55,13.97v1.029h-3.408l-0.2,1.959h0.03c0.22-0.22,0.47-0.38,0.76-0.48c0.26-0.1,0.55-0.149,0.87-0.149
		c0.669,0,1.219,0.22,1.639,0.659c0.42,0.44,0.64,1.05,0.64,1.819c0,0.739-0.28,1.34-0.839,1.81
		c-0.52,0.419-1.129,0.629-1.839,0.629c-0.65,0-1.209-0.18-1.669-0.529c-0.52-0.39-0.8-0.92-0.85-1.579h1.149
		c0.05,0.39,0.2,0.68,0.459,0.869c0.22,0.16,0.53,0.25,0.919,0.25c0.42,0,0.78-0.13,1.07-0.39c0.28-0.26,0.43-0.609,0.43-1.05
		c0-0.479-0.13-0.859-0.37-1.129c-0.24-0.28-0.6-0.41-1.059-0.41c-0.31,0-0.58,0.05-0.8,0.16c-0.25,0.12-0.44,0.3-0.58,0.55h-1.089
		l0.39-4.018H146.55z"/>
	<path d="M152.83,18.047v0.939h-5.047v-0.939H152.83z"/>
	<path d="M158.15,14.429c0.44,0.4,0.66,0.91,0.66,1.55c0,0.619-0.24,1.179-0.7,1.688c-0.28,0.3-0.779,0.68-1.479,1.149
		c-0.73,0.48-1.169,0.899-1.33,1.26h3.518v1.029h-4.977c0-0.729,0.23-1.359,0.709-1.899c0.26-0.3,0.81-0.739,1.639-1.309
		c0.46-0.32,0.78-0.59,0.979-0.8c0.31-0.35,0.47-0.729,0.47-1.129c0-0.391-0.11-0.68-0.31-0.87c-0.21-0.189-0.52-0.279-0.93-0.279
		c-0.44,0-0.77,0.149-0.989,0.449c-0.22,0.28-0.34,0.71-0.36,1.27h-1.169c0.01-0.8,0.24-1.439,0.7-1.929
		c0.47-0.521,1.089-0.78,1.859-0.78C157.131,13.829,157.701,14.029,158.15,14.429z"/>
	<path d="M164.6,13.97v1.029h-3.408l-0.2,1.959h0.03c0.22-0.22,0.47-0.38,0.76-0.48c0.26-0.1,0.55-0.149,0.87-0.149
		c0.669,0,1.219,0.22,1.639,0.659c0.42,0.44,0.64,1.05,0.64,1.819c0,0.739-0.28,1.34-0.839,1.81
		c-0.52,0.419-1.129,0.629-1.839,0.629c-0.65,0-1.209-0.18-1.669-0.529c-0.52-0.39-0.8-0.92-0.85-1.579h1.149
		c0.05,0.39,0.2,0.68,0.459,0.869c0.22,0.16,0.53,0.25,0.919,0.25c0.42,0,0.78-0.13,1.07-0.39c0.28-0.26,0.43-0.609,0.43-1.05
		c0-0.479-0.13-0.859-0.37-1.129c-0.24-0.28-0.6-0.41-1.059-0.41c-0.31,0-0.58,0.05-0.8,0.16c-0.25,0.12-0.44,0.3-0.58,0.55h-1.089
		l0.39-4.018H164.6z"/>
</g>
<g>
	<path d="M192.126,33.197c0.44,0.4,0.66,0.91,0.66,1.55c0,0.619-0.24,1.179-0.7,1.688c-0.28,0.3-0.78,0.68-1.479,1.149
		c-0.73,0.48-1.169,0.899-1.33,1.26h3.518v1.029h-4.977c0-0.729,0.23-1.359,0.709-1.899c0.26-0.3,0.81-0.739,1.639-1.309
		c0.46-0.32,0.78-0.59,0.979-0.8c0.31-0.35,0.47-0.729,0.47-1.129c0-0.391-0.11-0.68-0.31-0.87c-0.209-0.189-0.52-0.279-0.929-0.279
		c-0.44,0-0.77,0.149-0.99,0.449c-0.22,0.28-0.339,0.71-0.359,1.27h-1.169c0.01-0.8,0.24-1.439,0.7-1.929
		c0.47-0.521,1.089-0.78,1.859-0.78C191.106,32.597,191.676,32.797,192.126,33.197z"/>
	<path d="M198.576,32.738v1.029h-3.408l-0.2,1.959h0.03c0.22-0.22,0.47-0.38,0.76-0.48c0.26-0.1,0.55-0.149,0.87-0.149
		c0.669,0,1.219,0.22,1.639,0.659c0.419,0.44,0.64,1.05,0.64,1.819c0,0.739-0.28,1.34-0.84,1.81
		c-0.52,0.419-1.129,0.629-1.839,0.629c-0.65,0-1.209-0.18-1.669-0.529c-0.52-0.39-0.8-0.92-0.85-1.579h1.149
		c0.05,0.39,0.2,0.68,0.459,0.869c0.22,0.16,0.53,0.25,0.919,0.25c0.42,0,0.78-0.13,1.069-0.39c0.28-0.26,0.43-0.609,0.43-1.05
		c0-0.479-0.13-0.859-0.37-1.129c-0.24-0.28-0.6-0.41-1.059-0.41c-0.31,0-0.58,0.05-0.8,0.16c-0.25,0.12-0.439,0.3-0.58,0.55h-1.089
		l0.39-4.018H198.576z"/>
	<path d="M202.807,34.766v2.049h2.049v0.939h-2.049v2.06h-0.939v-2.06h-2.059v-0.939h2.059v-2.049H202.807z"/>
</g>
</svg>
