<?xml version="1.0" encoding="utf-8"?>
<!-- Generator: Adobe Illustrator 18.1.1, SVG Export Plug-In . SVG Version: 6.00 Build 0)  -->
<svg version="1.1" id="圖層_1" xmlns="http://www.w3.org/2000/svg" xmlns:xlink="http://www.w3.org/1999/xlink" x="0px" y="0px"
	 viewBox="0 0 50 50" enable-background="new 0 0 50 50" xml:space="preserve">
<g>
	<circle fill="#CCCCCC" cx="25" cy="25" r="24.5"/>
	<path fill="#FFFFFF" d="M24.9,34h0.3c4.7,0,8.9,2.1,11.8,5.4C41,36,43.7,30.8,43.7,25c0-10.3-8.4-18.7-18.7-18.7S6.3,14.7,6.3,25
		c0,5.8,2.6,11,6.7,14.4C15.9,36.1,20.1,34,24.9,34z"/>
	<path fill="#CCCCCC" d="M27.9,34.2c4.7-1.3,8.1-5.6,8.1-10.6c0-6.1-4.9-11.1-11.1-11.1S14,17.4,14,23.5c0,5.1,3.4,9.4,8.1,10.6
		c-3.6,0.7-6.7,2.5-9,5.2c3.2,2.7,7.4,4.3,11.9,4.3c4.5,0,8.7-1.6,11.9-4.3C34.7,36.7,31.5,34.8,27.9,34.2z"/>
</g>
<g>
	<circle cx="25" cy="25" r="24.5"/>
	<path fill="#FFFFFF" d="M24.9,34h0.3c4.7,0,8.9,2.1,11.8,5.4C41,36,43.7,30.8,43.7,25c0-10.3-8.4-18.7-18.7-18.7S6.3,14.7,6.3,25
		c0,5.8,2.6,11,6.7,14.4C15.9,36.1,20.1,34,24.9,34z"/>
	<path d="M27.9,34.2c4.7-1.3,8.1-5.6,8.1-10.6c0-6.1-4.9-11.1-11.1-11.1S14,17.4,14,23.5c0,5.1,3.4,9.4,8.1,10.6
		c-3.6,0.7-6.7,2.5-9,5.2c3.2,2.7,7.4,4.3,11.9,4.3c4.5,0,8.7-1.6,11.9-4.3C34.7,36.7,31.5,34.8,27.9,34.2z"/>
</g>
</svg>
