<?xml version="1.0" encoding="utf-8"?>
<!-- Generator: Adobe Illustrator 17.0.0, SVG Export Plug-In . SVG Version: 6.00 Build 0)  -->
<!DOCTYPE svg PUBLIC "-//W3C//DTD SVG 1.1//EN" "http://www.w3.org/Graphics/SVG/1.1/DTD/svg11.dtd">
<svg version="1.1" id="Layer_1" xmlns="http://www.w3.org/2000/svg" xmlns:xlink="http://www.w3.org/1999/xlink" x="0px" y="0px"
	 width="900px" height="900px" viewBox="0 0 900 900" enable-background="new 0 0 900 900" xml:space="preserve">
<g>
	<path fill="#9CE5FF" d="M677.077,755.854c-1.072-1.856-3.053-3-5.196-3s-4.124,1.144-5.196,3l-6.365,11.024l-6.365-11.024
		c-1.072-1.856-3.053-3-5.196-3s-4.124,1.144-5.196,3l-19.822,34.333c-1.071,1.856-1.071,4.144,0,6c1.072,1.856,3.053,3,5.196,3
		h62.768c2.144,0,4.124-1.144,5.196-3c1.071-1.856,1.071-4.144,0-6L677.077,755.854z"/>
	<path fill="#9CE5FF" d="M807.261,790.188l-5.196-9c-1.072-1.856-3.053-3-5.196-3H751.94c-2.144,0-4.124,1.144-5.196,3l-5.196,9
		c-1.071,1.856-1.071,4.144,0,6c1.072,1.856,3.053,3,5.196,3h55.32c2.144,0,4.124-1.144,5.196-3
		C808.332,794.331,808.332,792.044,807.261,790.188z"/>
	<path fill="#9CE5FF" d="M231.566,635.18c0-1.592-0.632-3.118-1.758-4.243l-3.33-3.329c-2.342-2.341-6.141-2.343-8.484,0
		l-2.295,2.295c-0.202,0.201-0.387,0.416-0.556,0.641c-1.744,1.05-2.91,2.961-2.91,5.145v1.667c0,3.313,2.687,6,6,6h7.333
		c3.313,0,6-2.687,6-6V635.18z"/>
	<path fill="#9CE5FF" d="M771.233,306.854c0.959,0,1.865-0.225,2.669-0.625h4.269c3.313,0,6-2.686,6-6v-2.312
		c0-1.591-0.632-3.118-1.758-4.243l-3.871-3.87c1.045-1.111,1.629-2.581,1.629-4.11v-3.652c0-0.39-0.038-0.776-0.111-1.153
		l0.729-0.729c1.126-1.125,1.758-2.651,1.758-4.243s-0.632-3.118-1.758-4.243l-12.68-12.68v-0.14c0-1.591-0.632-3.118-1.758-4.243
		l-7.132-7.13c-0.251-0.251-0.521-0.478-0.809-0.678c-0.157-1.282-0.729-2.523-1.713-3.507l-1.56-1.56v-0.602
		c0-0.557-0.076-1.096-0.218-1.607c1.082-1.118,1.688-2.614,1.688-4.172v-1.404c0-3.313-2.687-6-6-6h-0.146v-12.325
		c0-1.591-0.632-3.117-1.757-4.242l-0.139-0.139v-0.723c0-1.591-0.632-3.117-1.758-4.243l-5.417-5.417
		c-1.125-1.125-2.65-1.757-4.242-1.757h-3.265l-0.783-0.784c-1.125-1.125-2.651-1.758-4.243-1.758h-9.125
		c-1.592,0-3.117,0.632-4.242,1.757l-0.181,0.18h-2.577c-1.592,0-3.117,0.632-4.242,1.757l-3.337,3.336h-0.927
		c-1.592,0-3.117,0.632-4.243,1.758l-4.744,4.745h-8.688l-3.156-3.156c-1.125-1.125-2.651-1.757-4.242-1.757
		c-0.001,0-0.003,0-0.004,0l-4.641,0.002l-0.907-0.907c-1.125-1.125-2.651-1.758-4.243-1.758h-19.974l-2.158-2.159
		c-1.125-1.125-2.651-1.758-4.243-1.758h-22.75c-1.591,0-3.117,0.632-4.242,1.757l-10.577,10.576h-4.765
		c-1.592,0-3.117,0.632-4.243,1.757l-8.158,8.159h-7.64c-1.592,0-3.117,0.632-4.242,1.757l-11,11
		c-1.027,1.027-1.644,2.387-1.743,3.826h-2.474c-1.592,0-3.118,0.632-4.243,1.757l-2.825,2.826h-18.848
		c-1.592,0-3.117,0.632-4.242,1.757l-2.743,2.743h-6.849c-1.592,0-3.117,0.632-4.243,1.757l-18.242,18.243h-9.431
		c-1.591,0-3.117,0.632-4.242,1.757l-3.91,3.909h-7.223c-1.591,0-3.117,0.632-4.242,1.757l-8.649,8.649
		c-1.01-0.72-2.227-1.115-3.483-1.115c-1.591,0-3.117,0.632-4.242,1.757l-2.732,2.731c-0.575,0.575-1.021,1.254-1.32,1.993h-3.332
		c-3.005,0-5.495,2.209-5.932,5.093c-1.762-0.211-3.61,0.358-4.967,1.714l-1.531,1.531c-1.242,1.242-1.826,2.894-1.751,4.521
		c-1.451,0.093-2.824,0.711-3.858,1.745l-0.571,0.571h-9.858c-1.591,0-3.118,0.632-4.243,1.757l-2.5,2.5
		c-0.83,0.83-1.366,1.843-1.608,2.91c-1.326,0.135-2.615,0.71-3.631,1.726l-1.946,1.946c-0.865,0.865-1.438,1.966-1.658,3.151
		c-2.13-0.789-4.622-0.329-6.334,1.383l-3.639,3.639h-2.14c-1.591,0-3.118,0.632-4.243,1.757l-13.618,13.618h-5.848
		c-1.591,0-3.117,0.632-4.243,1.757l-1.576,1.576H344.9c-1.554,0-3.046,0.603-4.165,1.681l-4.667,4.5
		c-1.173,1.131-1.835,2.69-1.835,4.319v2.5c0,1.056,0.273,2.049,0.752,2.911l-27.022,27.374c-1.108,1.123-1.73,2.638-1.73,4.215v1.5
		h-1c-3.314,0-6,2.686-6,6v4.5c0,1.166,0.339,2.297,0.963,3.261l-5.35,5.361c-1.125,1.127-1.756,2.656-1.753,4.25l0.004,2.042
		l-2.101,0.013c-1.579,0.01-3.09,0.643-4.207,1.76l-5.567,5.573c-0.187,0.187-0.359,0.384-0.516,0.59l-21.544,21.778
		c-0.256,0.186-0.499,0.394-0.725,0.621l-8.201,8.252h-1.441c-1.582,0-3.099,0.624-4.222,1.737l-6.562,6.5
		c-1.138,1.127-1.778,2.661-1.778,4.263v5.438c0,1.482,0.549,2.913,1.541,4.015l4.221,4.688c0.623,0.691,1.391,1.222,2.238,1.56
		v33.701l-3.103,2.908c-1.21,1.135-1.897,2.719-1.897,4.378v27.496c-0.632,0.95-1,2.091-1,3.317v3.062
		c-1.522,0.005-3.044,0.585-4.209,1.742l-4.018,3.989c-1.134,1.126-1.772,2.659-1.772,4.258v4.485c-1.225,1.099-2,2.688-2,4.463
		v18.333c0,0.855,0.182,1.666,0.504,2.402c-0.159,1.721,0.405,3.491,1.712,4.798l4.784,4.785v8.682c0,3.125,2.389,5.692,5.44,5.975
		l0.06,10.062c0.009,1.578,0.641,3.09,1.757,4.206l14.743,14.743v22.919l-1.409,1.526c-1.023,1.108-1.591,2.561-1.591,4.069v32.277
		l-15.883,15.995c-1.128,1.136-1.755,2.676-1.742,4.277c0.013,1.601,0.666,3.13,1.813,4.248l0.521,0.508l-3.952,3.952
		c-2.343,2.343-2.343,6.142,0,8.484l3.826,3.826c2.001,2.002,5.065,2.295,7.376,0.876l5.041,5.041v9.015c0,3.313,2.686,6,6,6h4
		c3.314,0,6-2.687,6-6v-11.183l1.904-1.817h3.096c1.624,0,3.177-0.658,4.308-1.823l16-16.5c1.085-1.119,1.692-2.617,1.692-4.177
		v-8.971l11.18-11.162c0.106-0.093,0.21-0.188,0.311-0.289l67.16-67.078h43.85c1.594,0,3.123-0.635,4.249-1.764l26.158-26.236
		h15.593c1.592,0,3.117-0.632,4.242-1.758l65.177-65.178c1.037-0.251,2.019-0.781,2.827-1.591l38.964-39.021
		c1.123-1.125,1.754-2.649,1.754-4.239v-4.479l39.128-39.129h2.158c3.313,0,6-2.687,6-6v-11.872l17.814-17.814l22.381,0.033
		c0.003,0,0.006,0,0.009,0c1.579,0,3.095-0.623,4.218-1.733l13.827-13.669c1.139-1.125,1.78-2.659,1.782-4.26
		s-0.636-3.136-1.772-4.264l-1.029-1.022l11.006-11.005h12.598c1.596,0,3.126-0.636,4.252-1.767l19.417-19.5
		c1.119-1.125,1.748-2.646,1.748-4.233v-27.593l28.98-28.907H771.233z"/>
	<path fill="#9CE5FF" d="M752.703,318.708c-3.313,0-6,2.687-6,6v1c0,1.591,0.632,3.117,1.758,4.243l4,4
		c1.147,1.148,2.682,1.757,4.243,1.757c0.773,0,1.553-0.149,2.295-0.457c2.242-0.929,3.704-3.117,3.704-5.543v-5
		c0-3.313-2.687-6-6-6H752.703z"/>
	<path fill="#9CE5FF" d="M159.929,375.971c-1.125-1.125-2.651-1.757-4.243-1.757h-0.16c-1.754-1.152-4-1.311-5.913-0.382
		c-2.068,1.003-3.38,3.1-3.38,5.398v5.375c0,1.591,0.632,3.117,1.757,4.243l1.438,1.438c1.171,1.171,2.707,1.757,4.243,1.757
		s3.071-0.586,4.243-1.757l0.243-0.243c3.292-0.026,5.952-2.702,5.952-6v-1.406c0-1.591-0.632-3.117-1.757-4.243L159.929,375.971z"
		/>
	<path fill="#9CE5FF" d="M194.052,358.115c0.11-1.615-0.409-3.265-1.606-4.53l-2.938-3.104c-1.114-1.177-2.656-1.853-4.275-1.875
		c-1.631-0.035-3.18,0.611-4.326,1.757l-2.333,2.333c-0.442,0.442-0.808,0.946-1.089,1.491c-1.931,0.997-3.251,3.012-3.251,5.335v2
		c0,1.592,0.632,3.118,1.758,4.243l2.021,2.021c1.172,1.171,2.707,1.757,4.242,1.757c0.462,0,0.921-0.071,1.373-0.177
		c0.888,0.52,1.919,0.823,3.023,0.823h0.809c0.721,0.292,1.487,0.438,2.253,0.438c1.536,0,3.071-0.586,4.243-1.757l1.182-1.182
		c2.343-2.343,2.343-6.142,0-8.485L194.052,358.115z"/>
	<path fill="#9CE5FF" d="M252.647,294.081c0-1.591-0.632-3.117-1.757-4.243l-1.352-1.352c-1.716-1.715-4.296-2.229-6.539-1.301
		c-1.927,0.798-3.277,2.525-3.619,4.536l-0.765,0.765c-0.972,0.972-1.565,2.241-1.713,3.588l-0.912,0.912
		c-1.125,1.125-1.757,2.651-1.757,4.243v2c0,2.469,1.512,4.686,3.811,5.586c1.17,0.458,2.424,0.528,3.595,0.247
		c0.646,0.232,1.333,0.354,2.032,0.354c1.591,0,3.118-0.632,4.243-1.757l1.812-1.812c1.974-1.974,2.264-4.972,0.912-7.272
		l0.252-0.252C252.015,297.198,252.647,295.672,252.647,294.081z"/>
	<path fill="#9CE5FF" d="M215.733,350.688c1.591,0,3.117-0.632,4.243-1.757l3.576-3.576h4.863l2.576,2.576
		c2.342,2.343,6.141,2.344,8.484,0.001l1.417-1.417c1.126-1.125,1.758-2.651,1.758-4.243v-2.182l1.076-1.076
		c2.343-2.343,2.343-6.142,0-8.485l-1.25-1.25c-0.365-0.365-0.771-0.678-1.209-0.934c-0.187-0.259-0.396-0.505-0.624-0.733
		l-1.667-1.667c-0.694-0.693-1.516-1.175-2.389-1.458c1.594-1.079,2.646-2.896,2.646-4.966v-5.333c0-1.591-0.632-3.117-1.757-4.242
		l-2.708-2.708c-1.027-1.027-2.388-1.644-3.828-1.743l-0.278-0.278c-1.125-1.125-2.651-1.757-4.242-1.757c-0.007,0-0.015,0-0.023,0
		c-1.352,0.005-2.651,0.471-3.699,1.301c-2.356-2.091-5.951-2.03-8.208,0.227l-1.593,1.593c-1.206,0.211-2.329,0.788-3.208,1.667
		l-2.094,2.094c-0.767,0.768-1.283,1.691-1.548,2.668c-0.281,0.197-0.545,0.419-0.791,0.665l-0.608,0.608
		c-0.168-0.014-0.338-0.021-0.509-0.021h-5.281c-1.547,0-3.035,0.598-4.151,1.668l-0.75,0.719c-1.165,1.117-1.831,2.655-1.848,4.268
		s0.616,3.166,1.757,4.307l2.625,2.625c1.446,1.445,3.616,2.053,5.578,1.607c0.163,0.094,0.333,0.17,0.502,0.248
		c-0.053,0.322-0.088,0.649-0.088,0.986v1.746c-2.296-1.332-5.277-1.038-7.243,0.927l-1.375,1.375
		c-1.125,1.125-1.757,2.651-1.757,4.243v1.25c0,2.997,2.197,5.48,5.068,5.928l1.189,1.189c1.172,1.172,2.707,1.757,4.243,1.757
		c1.535,0,3.071-0.586,4.243-1.757l0.275-0.275c0.012,0.012,0.021,0.025,0.033,0.036l1.844,1.833
		c1.125,1.118,2.646,1.746,4.231,1.746H215.733z"/>
	<path fill="#9CE5FF" d="M451.038,675.049c-1.214-1.214-2.891-1.845-4.604-1.746c-1.714,0.104-3.301,0.937-4.36,2.288l-1.812,2.312
		c-0.828,1.056-1.278,2.359-1.278,3.701v7.25c0,1.591,0.632,3.117,1.757,4.242l3.75,3.75c1.171,1.172,2.707,1.758,4.243,1.758
		s3.071-0.586,4.243-1.758l1.375-1.375c1.546-1.545,2.071-3.725,1.578-5.702l0.672-0.672c1.126-1.126,1.758-2.651,1.758-4.243
		s-0.632-3.117-1.758-4.243L451.038,675.049z"/>
	<path fill="#9CE5FF" d="M395.309,787.778c-1.217-1.218-2.899-1.855-4.615-1.746c-1.718,0.106-3.307,0.946-4.363,2.305l-2.333,3
		c-0.819,1.053-1.264,2.35-1.264,3.684v13c0,1.591,0.632,3.117,1.757,4.242l2.076,2.077v3.015c0,3.313,2.687,6,6,6h5.833
		c3.313,0,6-2.687,6-6v-2.667c0-1.591-0.632-3.117-1.757-4.242l-1.049-1.05l3.424-3.423c1.125-1.125,1.758-2.651,1.758-4.243
		c0-1.591-0.632-3.117-1.757-4.242L395.309,787.778z"/>
	<path fill="#9CE5FF" d="M182.704,126.021h15.091c-0.055,0.327-0.091,0.66-0.091,1v12.667c0,1.591,0.632,3.117,1.757,4.243
		l6.833,6.833c1.125,1.125,2.651,1.757,4.243,1.757h5.167c1.591,0,3.118-0.632,4.243-1.757l5.826-5.826h5.113l7.86,7.86v8.89
		c0,3.313,2.687,6,6,6h13.625c1.591,0,3.117-0.632,4.243-1.757l8.667-8.667c1.125-1.125,1.757-2.651,1.757-4.243v-4.848l1.576-1.576
		c1.125-1.125,1.757-2.651,1.757-4.243v-12.333c0-1.591-0.632-3.117-1.757-4.243l-1.076-1.076v-5.348c0-3.313-2.687-6-6-6h-2.833
		c-1.591,0-3.118,0.632-4.243,1.757l-0.743,0.743h-3.348c-2.207,0-4.216,1.208-5.26,3.113c-0.05,0.047-0.1,0.095-0.149,0.144
		l-6.66,6.66h-2.779l-4.693-4.694v-11.39c0-3.313-2.687-6-6-6h-9.458c-1.591,0-3.118,0.632-4.243,1.757l-4,4
		c-1.716,1.716-2.229,4.297-1.301,6.539c0.224,0.541,0.521,1.036,0.877,1.476v3.743l-3.167,3.167l-1.59-1.59
		c-0.13-0.13-0.274-0.24-0.413-0.356c0.322-0.736,0.504-1.547,0.504-2.402v-9.5c0-3.313-2.687-6-6-6h-1.348l-2.576-2.576
		c-1.125-1.125-2.651-1.757-4.243-1.757s-3.117,0.632-4.243,1.757l-11.167,11.167c-1.125,1.125-1.757,2.651-1.757,4.243v2.667
		C176.704,123.334,179.39,126.021,182.704,126.021z"/>
	<path fill="#9CE5FF" d="M134.886,108.75c0-2.168-1.149-4.067-2.873-5.122c-0.359-0.848-0.911-1.61-1.625-2.221l-2.451-2.097
		c-2.38-2.036-5.927-1.899-8.144,0.317l-2.239,2.24c-1.125,1.125-1.757,2.651-1.757,4.242v1.254l-0.091,0.091
		c-0.628,0.628-1.096,1.383-1.393,2.203c0.081-0.395,0.125-0.8,0.125-1.21v-2.266c0-1.591-0.632-3.117-1.757-4.243l-2.773-2.773
		c-1.098-1.098-2.578-1.727-4.129-1.756l-7.034-0.133c-1.652-0.016-3.203,0.604-4.356,1.756l-2.645,2.646
		c-0.603-0.441-1.278-0.771-1.997-0.962v-1.201c0-3.313-2.687-6-6-6H82.87c-1.591,0-3.117,0.632-4.243,1.757l-4.799,4.799
		l-2.757-2.757c-1.203-1.202-2.853-1.829-4.558-1.749l-2.375,0.125c-3.187,0.167-5.685,2.801-5.685,5.992v4.5
		c0,1.341,0.446,2.576,1.19,3.575l-0.224,0.224c-1.716,1.716-2.229,4.297-1.301,6.539c0.929,2.242,3.117,3.704,5.543,3.704h11.542
		c2.284,0,4.342-1.305,5.353-3.326c0.582,0.185,1.192,0.284,1.814,0.284h8.333c1.181,0,2.279-0.346,3.207-0.935
		c0.125,0.008,0.25,0.019,0.376,0.019c1.591,0,3.118-0.632,4.243-1.757l0.001-0.001c0.148,3.183,2.775,5.717,5.994,5.717h1.18
		c3.313,0,6-2.687,6-6v-0.557l0.977-0.977c0.628-0.628,1.096-1.384,1.392-2.203c-0.081,0.395-0.125,0.8-0.125,1.209
		c0,1.592,0.632,3.118,1.757,4.243l2.073,2.073c1.125,1.125,2.651,1.758,4.243,1.758c0,0,0,0,0,0c0.689,0,1.366-0.119,2.004-0.345
		l0.238,0.238c1.125,1.125,2.651,1.758,4.243,1.758s3.118-0.632,4.243-1.757l1.531-1.531c2.12-2.12,2.322-5.431,0.606-7.778V108.75z
		"/>
</g>
<g>
	<path fill="#9CE5FF" d="M854.329,762.753l-5.196-9c-10.718-18.564-30.526-30-51.962-30h-44.928c-9.568,0-18.808,2.284-27.064,6.457
		l-1.034-1.791c-10.717-18.563-30.527-30-51.961-30c-0.001,0,0.001,0,0,0c-3.924,0-7.792,0.383-11.561,1.123
		c-3.769-0.74-7.638-1.123-11.562-1.123c-21.436,0-41.244,11.436-51.962,30l-19.822,34.333c-10.718,18.564-10.718,41.436,0,60
		c10.718,18.564,30.526,30,51.962,30h23.123h16.522h23.123c9.745,0,19.149-2.37,27.52-6.692c8.371,4.322,17.776,6.692,27.52,6.692
		h55.32c21.436,0,41.244-11.436,51.962-30C865.047,804.189,865.047,781.317,854.329,762.753z"/>
	<path fill="#9CE5FF" d="M563.596,591.713c2.773-1.958,5.418-4.18,7.898-6.664l38.964-39.02c5.831-5.84,10.336-12.758,13.32-20.284
		l17.743-17.743c12.908-6.285,23.223-17.061,28.914-30.299c12.487-1.882,24.149-7.674,33.239-16.66l13.828-13.67
		c2.994-2.96,5.645-6.203,7.925-9.665c7.117-3,13.656-7.374,19.211-12.953l19.417-19.5c5.592-5.616,9.958-12.224,12.929-19.409
		c1.001-0.354,1.997-0.731,2.985-1.14c16.375-6.783,28.579-20.285,33.975-36.527c14.871-10.92,24.531-28.521,24.531-48.385v-2.313
		c0-5.222-0.681-10.376-1.994-15.339c1.942-17.491-3.793-35.675-17.205-49.087l-5.278-5.278c-1.292-2.174-2.723-4.271-4.289-6.277
		c-1.152-5.669-3.104-11.048-5.732-16.013c-0.775-4.729-2.112-9.333-3.97-13.718c-2.889-9.01-7.895-17.296-14.71-24.111
		l-5.417-5.417c-8.039-8.039-18.126-13.561-29.034-16.059c-6.85-2.655-14.195-4.055-21.683-4.055h-9.125
		c-6.69,0-13.264,1.117-19.475,3.249c-4.994,1.062-9.822,2.754-14.373,5.031c-5.328-1.527-10.886-2.321-16.527-2.321h-4.792h-0.261
		c-6.747-2.565-13.965-3.917-21.322-3.917h-22.75c-15.326,0-30.048,5.864-41.166,16.349c-5.194,2.002-10.106,4.726-14.582,8.107
		c-9.858,2.75-18.94,8.003-26.304,15.367l-3.596,3.596c-8.614,0.093-17.022,2.037-24.692,5.61
		c-11.63,2.273-22.419,7.959-30.92,16.46L475,213.936c-4.681,1.19-9.2,2.942-13.456,5.212c-8.95,1.965-17.362,5.962-24.565,11.712
		c-4.862,1.822-9.481,4.273-13.737,7.302c-5.977,2.505-11.465,5.95-16.275,10.149c-0.979,0.64-1.94,1.309-2.888,2.012
		c-10.728,2.548-20.639,8.026-28.563,15.95l-2.381,2.381c-0.15,0.118-0.299,0.236-0.449,0.356c-1.983,1.027-3.923,2.173-5.805,3.436
		c-7.055,2.983-13.542,7.317-19.063,12.838l-1.135,1.135h-1.481c-14.197,0-27.879,5.046-38.667,14.142
		c2.028-17.571-3.681-35.864-17.159-49.342l-1.352-1.352c-11.478-11.478-26.825-17.575-42.44-17.575
		c-7.729,0-15.524,1.494-22.948,4.569c-8.085,3.349-15.152,8.34-20.888,14.486c-6.747,2.031-13.111,5.233-18.778,9.495
		c-1.189,0.726-2.354,1.494-3.493,2.303c-8.079,2.806-15.54,7.332-21.827,13.356l-0.75,0.719
		c-10.76,10.309-17.253,24.222-18.321,38.998c-1.836,1.797-3.567,3.7-5.161,5.718c-2.398,0.807-4.766,1.755-7.081,2.878
		c-20.675,10.034-33.803,30.997-33.803,53.979v5.375c0,15.913,6.321,31.174,17.574,42.426l1.438,1.438
		c11.716,11.716,27.071,17.574,42.426,17.574c9.217,0,18.434-2.111,26.863-6.331c4.067-1.64,7.912-3.716,11.48-6.164
		c-6.325,9.682-9.781,21.063-9.781,32.808v5.437c0,10.137,2.566,20.029,7.36,28.794c-2.851,7.064-4.36,14.678-4.36,22.455v9.239
		c-5.441,7.699-8.989,16.585-10.358,25.929c-1.715,5.58-2.642,11.504-2.642,17.646v18.333c0,0.973,0.028,1.939,0.073,2.901
		c-8.779,10.434-14.073,23.896-14.073,38.599v1.667c0,24.706,14.937,45.917,36.269,55.115c-7.129,8.562-11.724,18.922-13.292,29.905
		c-2.605,6.793-3.977,14.066-3.977,21.482c0,15.913,6.322,31.175,17.575,42.427l3.826,3.826c0.719,0.719,1.454,1.418,2.2,2.093
		c9.553,20.47,30.319,34.654,54.399,34.654h4c26.02,0,48.17-16.56,56.485-39.718l13.589-14.013
		c7.189-7.414,12.28-16.489,14.898-26.302l42.762-42.71c2.68,10.19,8.01,19.592,15.589,27.171l2.379,2.379
		c-4.513-1.073-9.162-1.639-13.866-1.639c-1.242,0-2.485,0.038-3.732,0.116c-17.177,1.07-33.067,9.464-43.633,23.049l-2.333,3
		c-8.191,10.532-12.638,23.493-12.638,36.835v13c0,9.578,2.291,18.922,6.568,27.296c7.634,24.362,30.385,42.037,57.265,42.037h5.833
		c32.747,0,59.366-26.235,59.989-58.833c5.909-20.338,0.846-43.185-15.188-59.219l-8.32-8.32c4.55,1.075,9.2,1.622,13.852,1.622
		c15.355,0,30.711-5.858,42.426-17.574l1.375-1.375c7.398-7.398,12.461-16.249,15.187-25.633
		c7.503-17.946,5.891-38.794-4.816-55.499c0.083-0.082,0.17-0.16,0.253-0.243L563.596,591.713z"/>
	<path fill="#9CE5FF" d="M104.828,173.789h1.18c2.82,0,5.591-0.205,8.307-0.581c4.755,1.179,9.625,1.779,14.495,1.779
		c7.684,0,15.368-1.467,22.596-4.401c0.757,0.47,1.526,0.921,2.305,1.357c2.264,3.483,4.888,6.754,7.87,9.736l6.833,6.833
		c9.829,9.828,22.715,15.895,36.424,17.273c10.64,9.613,24.742,15.467,40.211,15.467h13.625c15.913,0,31.174-6.321,42.426-17.573
		l8.667-8.667c8.262-8.262,13.866-18.687,16.261-29.942c3.038-7.264,4.646-15.125,4.646-23.151v-12.333
		c0-7.104-1.26-14.078-3.656-20.623c-4.743-28.399-29.432-50.043-59.178-50.043h-2.833c-0.395,0-0.792,0.004-1.186,0.012
		c-9.405-6.122-20.631-9.678-32.689-9.678h-9.458c-2.13,0-4.247,0.122-6.346,0.345c-6.805-2.559-13.979-3.845-21.154-3.845
		c-11.632,0-23.259,3.367-33.308,10.089c-10.792-8.294-23.668-12.407-36.514-12.407c-2.579,0-5.155,0.18-7.714,0.511
		c-3.13-0.566-6.316-0.9-9.536-0.961l-1.817-0.034c-6.602-2.499-13.758-3.87-21.236-3.87h-0.875c-5.284,0-10.491,0.712-15.508,2.055
		c-0.177-0.002-0.353-0.013-0.53-0.013c-1.05,0-2.1,0.028-3.155,0.083l-2.375,0.125C29.737,43.006,4.757,69.335,4.757,101.247v2.842
		c-1.77,10.801-0.596,22.106,3.776,32.661c9.287,22.42,31.165,37.039,55.433,37.039h11.542c5.017,0,9.928-0.634,14.651-1.823
		C94.854,173.146,99.764,173.789,104.828,173.789z"/>
</g>
</svg>
