<?xml version="1.0" encoding="utf-8"?>
<!-- Generator: Adobe Illustrator 17.0.0, SVG Export Plug-In . SVG Version: 6.00 Build 0)  -->
<!DOCTYPE svg PUBLIC "-//W3C//DTD SVG 1.1//EN" "http://www.w3.org/Graphics/SVG/1.1/DTD/svg11.dtd">
<svg version="1.1" id="Layer_1" xmlns="http://www.w3.org/2000/svg" xmlns:xlink="http://www.w3.org/1999/xlink" x="0px" y="0px"
	 width="20px" height="20px" viewBox="0 0 20 20" enable-background="new 0 0 20 20" xml:space="preserve">
<path fill="#FFFFFF" d="M20,20H0V0h20V20z M18,2H2v16h16V2z"/>
<g>
	<g>
		<path fill="#FFFFFF" d="M9.978,3.073c0.326,0,0.653,0.119,0.861,0.356c1.575,1.975,3.594,3.46,5.806,4.514
			c0.223,0.104,0.342,0.342,0.342,0.579c0,0.104-0.014,0.193-0.06,0.282c-0.089,0.193-0.282,0.342-0.535,0.342
			c-0.103,0-0.223-0.029-0.342-0.089c-2.271-1.128-4.558-2.955-5.85-4.677c-0.074-0.089-0.133-0.134-0.193-0.134
			c-0.074,0-0.133,0.044-0.193,0.134C8.403,6.266,6.177,7.988,3.978,9.117C3.875,9.161,3.756,9.191,3.652,9.191
			c-0.237,0-0.46-0.119-0.579-0.342c-0.045-0.074-0.06-0.163-0.06-0.237c0-0.222,0.148-0.46,0.371-0.564
			c2.138-1.04,4.173-2.584,5.747-4.618C9.324,3.192,9.651,3.073,9.978,3.073z M5.062,11.151c-0.267,0-0.43-0.223-0.43-0.52
			s0.163-0.535,0.43-0.535h8.82c0.891,0,1.277,0.371,1.277,1.262v2.761c0,1.129-0.624,1.545-1.722,1.545
			c-0.564,0-1.099-0.059-1.53-0.163c-0.237-0.059-0.43-0.238-0.43-0.535c0-0.03,0-0.074,0.014-0.119
			c0.06-0.297,0.253-0.476,0.476-0.476c0.03,0,0.074,0,0.119,0.015c0.327,0.089,0.787,0.149,1.218,0.149
			c0.52,0,0.698-0.12,0.698-0.64v-2.33c0-0.327-0.149-0.416-0.46-0.416H9.665v5.33c0,0.268-0.207,0.446-0.579,0.446
			c-0.356,0-0.609-0.178-0.609-0.446v-5.33H5.062V11.151z M12.755,7.424c0.267,0,0.43,0.237,0.43,0.535
			c0,0.297-0.163,0.535-0.43,0.535H7.32c-0.283,0-0.431-0.238-0.431-0.535S7.038,7.424,7.32,7.424H12.755z"/>
		<path fill="#FFFFFF" d="M9.087,17.159c-0.495,0-0.841-0.279-0.841-0.678v-5.099H5.062c-0.384,0-0.662-0.316-0.662-0.751
			c0-0.444,0.279-0.767,0.662-0.767h8.82c1.03,0,1.509,0.475,1.509,1.494v2.761c0,1.196-0.64,1.777-1.954,1.777
			c-0.577,0-1.125-0.059-1.585-0.169c-0.376-0.093-0.608-0.384-0.608-0.76c0-0.039,0-0.111,0.026-0.19
			c0.072-0.37,0.355-0.636,0.696-0.636c0.04,0,0.113,0,0.195,0.028c0.303,0.082,0.747,0.136,1.142,0.136
			c0.434,0,0.466-0.056,0.466-0.408v-2.33c0-0.157,0-0.185-0.228-0.185H9.897v5.099C9.897,16.893,9.579,17.159,9.087,17.159z
			 M5.062,10.328c-0.157,0-0.198,0.191-0.198,0.303c0,0.048,0.01,0.287,0.198,0.287H8.71v5.563c0,0.147,0.195,0.214,0.377,0.214
			c0.158,0,0.347-0.037,0.347-0.214v-5.563h4.108c0.171,0,0.692,0,0.692,0.649v2.33c0,0.723-0.371,0.872-0.93,0.872
			c-0.439,0-0.917-0.059-1.278-0.157l-0.058-0.007c-0.115,0-0.213,0.113-0.248,0.289l-0.01,0.073c0,0.204,0.139,0.281,0.255,0.31
			c0.416,0.101,0.94,0.156,1.474,0.156c1.058,0,1.49-0.381,1.49-1.313v-2.761c0-0.761-0.274-1.031-1.045-1.031
			C13.884,10.328,5.062,10.328,5.062,10.328z M3.652,9.423c-0.336,0-0.628-0.173-0.784-0.464c-0.07-0.116-0.087-0.254-0.087-0.347
			c0-0.318,0.207-0.636,0.505-0.774c2.245-1.091,4.203-2.665,5.661-4.55c0.228-0.281,0.612-0.447,1.031-0.447
			c0.416,0,0.794,0.159,1.036,0.436c1.476,1.85,3.402,3.348,5.731,4.457c0.287,0.134,0.474,0.444,0.474,0.789
			c0,0.15-0.027,0.273-0.085,0.387c-0.188,0.411-0.705,0.597-1.186,0.355c-0.869-0.432-1.742-0.967-2.563-1.559
			c0.021,0.078,0.033,0.163,0.033,0.252c0,0.444-0.278,0.766-0.662,0.766H7.32c-0.39,0-0.663-0.315-0.663-0.766
			c0-0.089,0.01-0.173,0.031-0.25c-0.819,0.602-1.7,1.151-2.603,1.614C3.929,9.39,3.781,9.423,3.652,9.423z M9.978,3.305
			c-0.28,0-0.53,0.101-0.667,0.271c-1.498,1.937-3.514,3.556-5.825,4.68C3.347,8.321,3.245,8.473,3.245,8.612
			c0,0.047,0.01,0.091,0.026,0.118c0.111,0.208,0.335,0.293,0.616,0.174c2.286-1.175,4.438-2.92,5.741-4.663
			c0.098-0.147,0.228-0.226,0.379-0.226c0.169,0,0.287,0.116,0.371,0.217c1.273,1.697,3.537,3.506,5.776,4.619
			c0.253,0.126,0.474,0.051,0.562-0.142c0.029-0.057,0.039-0.107,0.039-0.185c0-0.165-0.082-0.31-0.207-0.369
			c-2.395-1.141-4.377-2.682-5.89-4.58C10.513,3.409,10.256,3.305,9.978,3.305z M7.32,7.656c-0.18,0-0.199,0.212-0.199,0.303
			S7.14,8.261,7.32,8.261h5.435c0.157,0,0.198-0.19,0.198-0.303s-0.042-0.303-0.198-0.303H7.32V7.656z M7.359,7.192h5.345
			c-1.072-0.847-2.017-1.776-2.69-2.673c-0.002-0.003-0.005-0.006-0.008-0.009L10,4.519C9.314,5.436,8.402,6.353,7.359,7.192z"/>
	</g>
</g>
</svg>
