<?xml version="1.0" encoding="utf-8"?>
<!-- Generator: Adobe Illustrator 17.0.0, SVG Export Plug-In . SVG Version: 6.00 Build 0)  -->
<!DOCTYPE svg PUBLIC "-//W3C//DTD SVG 1.1//EN" "http://www.w3.org/Graphics/SVG/1.1/DTD/svg11.dtd">
<svg version="1.1" id="icon1" xmlns="http://www.w3.org/2000/svg" xmlns:xlink="http://www.w3.org/1999/xlink" x="0px" y="0px"
	 width="20px" height="20px" viewBox="0 0 800 800" enable-background="new 0 0 800 800" xml:space="preserve">
<g>
	<path fill="#FFFFFF" stroke="#FFFFFF" stroke-miterlimit="10" d="M520,440c-22.12,0-40,17.92-40,40v120H200V320h120
		c22.12,0,40-17.92,40-40s-17.88-40-40-40H160c-22.12,0-40,17.92-40,40v360c0,22.08,17.88,40,40,40h360c22.12,0,40-17.92,40-40V480
		C560,457.92,542.12,440,520,440z"/>
	<path fill="#FFFFFF" stroke="#FFFFFF" stroke-miterlimit="10" d="M640,120H440c-22.12,0-40,17.92-40,40s17.88,40,40,40h103.44
		L291.72,451.72c-15.64,15.64-15.64,40.92,0,56.56c7.8,7.8,18.04,11.72,28.28,11.72c10.24,0,20.48-3.92,28.28-11.72L600,256.56V360
		c0,22.08,17.88,40,40,40c22.12,0,40-17.92,40-40V160C680,137.92,662.12,120,640,120z"/>
</g>
</svg>
