<?xml version="1.0" encoding="utf-8"?>
<!-- Generator: Adobe Illustrator 17.0.0, SVG Export Plug-In . SVG Version: 6.00 Build 0)  -->
<!DOCTYPE svg PUBLIC "-//W3C//DTD SVG 1.1//EN" "http://www.w3.org/Graphics/SVG/1.1/DTD/svg11.dtd">
<svg version="1.1" id="Layer_1" xmlns="http://www.w3.org/2000/svg" xmlns:xlink="http://www.w3.org/1999/xlink" x="0px" y="0px"
	 width="70px" height="112px" viewBox="0 0 70 112" enable-background="new 0 0 70 112" xml:space="preserve">
<g>
	<path stroke="#000000" stroke-miterlimit="10" d="M12.123,75.529c15.127,0,3.72,22.69,20.707,22.69
		c10.911,0,17.979-7.936,17.979-20.583c0-13.763-8.803-20.83-17.979-20.83c-2.852,0-3.844,0-3.844-0.992
		c0-0.868,0.62-1.24,1.364-1.24c5.455,0,14.507-5.084,14.507-16.491c0-7.936-4.588-15.003-14.879-15.003
		c-4.96,0-8.804,2.108-11.655,4.96c-3.473,3.472-3.473,4.836-4.588,4.836c-0.62,0-0.868-0.496-0.868-0.992
		c0-2.604,7.067-17.483,23.187-17.483c11.655,0,22.938,8.432,22.938,20.335c0,6.323-3.348,10.663-7.439,14.507
		c4.712,2.976,13.392,9.919,13.392,21.947c0,11.779-10.911,29.263-34.223,29.263c-16.738,0-25.666-8.308-25.666-16.863
		C5.056,79.373,7.535,75.529,12.123,75.529z"/>
</g>
</svg>
