<?xml version="1.0" encoding="utf-8"?>
<!-- Generator: Adobe Illustrator 17.0.0, SVG Export Plug-In . SVG Version: 6.00 Build 0)  -->
<!DOCTYPE svg PUBLIC "-//W3C//DTD SVG 1.1//EN" "http://www.w3.org/Graphics/SVG/1.1/DTD/svg11.dtd">
<svg version="1.1" id="Layer_1" xmlns="http://www.w3.org/2000/svg" xmlns:xlink="http://www.w3.org/1999/xlink" x="0px" y="0px"
	 width="70px" height="112px" viewBox="0 0 70 112" enable-background="new 0 0 70 112" xml:space="preserve">
<g>
	<path stroke="#000000" stroke-miterlimit="10" d="M7.412,99.459c0.992-28.519,41.042-33.479,41.042-57.533
		c0-10.292-8.308-18.351-17.979-18.351c-17.607,0-19.096,15.747-21.203,15.747c-0.744,0-0.992-0.372-0.992-1.24
		c0-3.224,7.439-23.683,27.898-23.683c16.863,0,26.41,14.011,26.41,24.055c0,26.535-33.85,24.798-47.117,46.622h31.742
		c12.896,0,11.655-9.3,14.26-9.3c0.868,0,0.868,0.62,0.868,1.24c0,0.372-0.124,0.867-0.248,1.239l-5.58,21.203H7.412z"/>
</g>
</svg>
