<?xml version="1.0" encoding="utf-8"?>
<!-- Generator: Adobe Illustrator 17.0.0, SVG Export Plug-In . SVG Version: 6.00 Build 0)  -->
<!DOCTYPE svg PUBLIC "-//W3C//DTD SVG 1.1//EN" "http://www.w3.org/Graphics/SVG/1.1/DTD/svg11.dtd">
<svg version="1.1" id="Layer_1" xmlns="http://www.w3.org/2000/svg" xmlns:xlink="http://www.w3.org/1999/xlink" x="0px" y="0px"
	 width="70px" height="112px" viewBox="0 0 70 112" enable-background="new 0 0 70 112" xml:space="preserve">
<g>
	<path stroke="#000000" stroke-miterlimit="10" d="M29.429,29.032c0-1.984-0.868-2.728-2.604-2.728H11.077
		c-1.24,0-1.611-0.496-1.611-1.364c0-2.604,7.936,0.496,23.435-5.332c8.184-2.976,8.308-5.208,10.167-5.208
		c0.868,0,1.24,1.116,1.24,3.72v69.312c0,8.308,3.224,9.3,14.631,9.3c2.604,0,3.596,0.248,3.596,1.611
		c0,0.992-0.744,1.364-1.983,1.364c-6.076,0-14.012-0.248-24.179-0.248c-10.168,0-18.352,0.248-23.559,0.248
		c-1.86,0-2.729-0.62-2.729-1.364c0-1.115,0.62-1.611,3.101-1.611c14.383,0,16.243-0.992,16.243-9.3V29.032z"/>
</g>
</svg>
