<?xml version="1.0" encoding="utf-8"?>
<!-- Generator: Adobe Illustrator 17.0.0, SVG Export Plug-In . SVG Version: 6.00 Build 0)  -->
<!DOCTYPE svg PUBLIC "-//W3C//DTD SVG 1.1//EN" "http://www.w3.org/Graphics/SVG/1.1/DTD/svg11.dtd">
<svg version="1.1" id="Layer_1" xmlns="http://www.w3.org/2000/svg" xmlns:xlink="http://www.w3.org/1999/xlink" x="0px" y="0px"
	 width="70px" height="112px" viewBox="0 0 70 112" enable-background="new 0 0 70 112" xml:space="preserve">
<g>
	<path stroke="#000000" stroke-miterlimit="10" d="M51.677,69.578H66.68l-2.604,6.447H51.677v12.523
		c0,11.159,12.027,6.571,12.027,9.795c0,1.24-0.744,1.364-2.852,1.364c-5.084,0-10.292-0.248-15.623-0.248
		c-5.332,0-10.54,0.248-15.623,0.248c-2.108,0-2.853-0.124-2.853-1.364c0-3.596,11.284,1.364,11.284-8.06V76.025H4.808l-1.488-4.96
		l44.886-55.673h3.472V69.578z M38.039,33.247h-0.248L8.404,69.578h29.635V33.247z"/>
</g>
</svg>
