<?xml version="1.0" encoding="utf-8"?>
<!-- Generator: Adobe Illustrator 17.0.0, SVG Export Plug-In . SVG Version: 6.00 Build 0)  -->
<!DOCTYPE svg PUBLIC "-//W3C//DTD SVG 1.1//EN" "http://www.w3.org/Graphics/SVG/1.1/DTD/svg11.dtd">
<svg version="1.1" id="Layer_1" xmlns="http://www.w3.org/2000/svg" xmlns:xlink="http://www.w3.org/1999/xlink" x="0px" y="0px"
	 width="70px" height="112px" viewBox="0 0 70 112" enable-background="new 0 0 70 112" xml:space="preserve">
<g>
	<path stroke="#000000" stroke-miterlimit="10" d="M50.445,53.458c9.92,4.34,15.499,9.547,15.499,21.699
		c0,15.995-14.135,25.295-31.122,25.295c-16.739,0-28.767-10.788-28.767-22.567c0-10.787,6.82-17.358,15.623-21.822
		c-5.827-3.472-11.655-10.167-11.655-18.475c0-13.639,12.523-23.187,26.907-23.187c14.879,0,24.798,10.043,24.798,20.211
		C61.729,42.795,56.77,48.871,50.445,53.458z M23.663,57.426c-6.199,4.216-9.672,10.663-9.672,17.979
		c0,12.771,6.944,22.071,20.211,22.071c9.92,0,18.6-4.712,18.6-16.367C52.802,67.841,35.69,63.874,23.663,57.426z M21.927,30.147
		c0,12.399,10.416,16.119,25.419,21.947c4.34-2.852,7.439-9.052,7.439-17.235c0-9.3-4.464-17.483-16.615-17.483
		C28.499,17.376,21.927,23.08,21.927,30.147z"/>
</g>
</svg>
