<?xml version="1.0" encoding="utf-8"?>
<!-- Generator: Adobe Illustrator 17.0.0, SVG Export Plug-In . SVG Version: 6.00 Build 0)  -->
<!DOCTYPE svg PUBLIC "-//W3C//DTD SVG 1.1//EN" "http://www.w3.org/Graphics/SVG/1.1/DTD/svg11.dtd">
<svg version="1.1" id="Layer_1" xmlns="http://www.w3.org/2000/svg" xmlns:xlink="http://www.w3.org/1999/xlink" x="0px" y="0px"
	 width="70px" height="112px" viewBox="0 0 70 112" enable-background="new 0 0 70 112" xml:space="preserve">
<g>
	<path stroke="#000000" stroke-miterlimit="10" d="M4.064,39.447c0-13.639,12.523-25.046,30.13-25.046
		c19.22,0,31.742,17.359,31.742,35.586c0,40.049-49.473,50.465-50.465,50.465c-0.62,0-1.239-0.248-1.239-0.868
		c0-1.116,2.479-1.612,5.331-2.852c16.739-7.315,27.402-21.203,31.246-38.687l-0.248-0.247c-4.216,4.339-10.043,8.307-18.227,8.307
		C15.223,66.105,4.064,54.574,4.064,39.447z M35.062,63.129c7.067,0,13.764-4.464,16.367-9.547c0.372-1.736,0.372-5.58,0.372-11.655
		c0-17.979-5.951-24.551-17.111-24.551c-13.391,0-16.49,10.167-16.49,24.675C18.2,55.814,24.647,63.129,35.062,63.129z"/>
</g>
</svg>
