<?xml version="1.0" encoding="utf-8"?>
<!-- Generator: Adobe Illustrator 17.0.0, SVG Export Plug-In . SVG Version: 6.00 Build 0)  -->
<!DOCTYPE svg PUBLIC "-//W3C//DTD SVG 1.1//EN" "http://www.w3.org/Graphics/SVG/1.1/DTD/svg11.dtd">
<svg version="1.1" id="Layer_1" xmlns="http://www.w3.org/2000/svg" xmlns:xlink="http://www.w3.org/1999/xlink" x="0px" y="0px"
	 width="70px" height="112px" viewBox="0 0 70 112" enable-background="new 0 0 70 112" xml:space="preserve">
<g>
	<path stroke="#000000" stroke-miterlimit="10" d="M65.936,75.405c0,13.64-12.523,25.047-30.13,25.047
		c-19.22,0-31.742-17.359-31.742-35.586c0-40.05,49.473-50.465,50.465-50.465c0.62,0,1.24,0.248,1.24,0.868
		c0,1.116-2.48,1.612-5.332,2.852c-16.739,7.315-27.402,21.203-31.246,38.686l0.248,0.248c4.216-4.34,10.043-8.308,18.227-8.308
		C54.777,48.747,65.936,60.278,65.936,75.405z M34.938,51.722c-7.067,0-13.764,4.464-16.367,9.548
		c-0.372,1.735-0.372,5.579-0.372,11.655c0,17.979,5.951,24.551,17.111,24.551c13.391,0,16.491-10.168,16.491-24.675
		C51.801,59.038,45.353,51.722,34.938,51.722z"/>
</g>
</svg>
