<?xml version="1.0" encoding="utf-8"?>
<!-- Generator: Adobe Illustrator 17.0.0, SVG Export Plug-In . SVG Version: 6.00 Build 0)  -->
<!DOCTYPE svg PUBLIC "-//W3C//DTD SVG 1.1//EN" "http://www.w3.org/Graphics/SVG/1.1/DTD/svg11.dtd">
<svg version="1.1" id="Layer_1" xmlns="http://www.w3.org/2000/svg" xmlns:xlink="http://www.w3.org/1999/xlink" x="0px" y="0px"
	 width="70px" height="112px" viewBox="0 0 70 112" enable-background="new 0 0 70 112" xml:space="preserve">
<g>
	<path stroke="#000000" stroke-miterlimit="10" d="M20.121,29.775l-2.107,12.399h3.472c23.559,0,41.413,12.523,41.413,31.247
		c0,14.011-13.143,27.03-30.13,27.03c-18.351,0-25.667-10.044-25.667-15.995c0-4.34,2.977-7.439,7.192-7.439
		c5.455,0,7.812,3.844,9.299,9.671c1.736,6.696,4.712,10.788,11.903,10.788c12.275,0,15.995-9.796,15.995-17.483
		c0-9.548-8.06-24.179-32.238-24.179c-4.216,0-5.207,0.248-6.819,0.744c2.852-12.399,6.076-31.247,6.819-41.166h35.214
		c6.448,0,4.712-3.844,6.696-3.844c0.62,0,0.991,0.372,0.991,1.116c0,0.62-0.495,2.108-1.239,4.34l-4.092,12.771H20.121z"/>
</g>
</svg>
