<?xml version="1.0" encoding="utf-8"?>
<!-- Generator: Adobe Illustrator 17.0.0, SVG Export Plug-In . SVG Version: 6.00 Build 0)  -->
<!DOCTYPE svg PUBLIC "-//W3C//DTD SVG 1.1//EN" "http://www.w3.org/Graphics/SVG/1.1/DTD/svg11.dtd">
<svg version="1.1" id="Layer_1" xmlns="http://www.w3.org/2000/svg" xmlns:xlink="http://www.w3.org/1999/xlink" x="0px" y="0px"
	 width="640px" height="120px" viewBox="0 0 640 120" enable-background="new 0 0 640 120" xml:space="preserve">
<path fill="#4D4D4D" d="M96.05,63.416c0,0.219-0.094,0.406-0.281,0.562c-0.781,0.625-1.172,1.062-1.172,1.312v4.125
	c0,0.281,0.094,3.312,0.281,9.094v0.047c0,1.125-1.391,1.688-4.172,1.688c-1.219,0-1.828-0.297-1.828-0.891l0.047-1.734h-7.453
	v2.766c0,0.969-1.328,1.453-3.984,1.453c-1.312,0-1.969-0.297-1.969-0.891V80.9c0.156-5.469,0.234-8.578,0.234-9.328v-4.359
	c0-2.875-0.094-5.156-0.281-6.844c3,0.812,5.188,1.5,6.562,2.062h0.375V52.072h-1.734c-2.844,0-4.906,0.094-6.188,0.281
	l-0.938-2.016c1.562,0.344,3.766,0.516,6.609,0.516c0.406,0,0.703,0,0.891,0h1.359v-4.781c0-2.219-0.094-4.391-0.281-6.516
	c2.219,0.312,4.062,0.594,5.531,0.844c1.469,0.281,2.203,0.609,2.203,0.984c0,0.25-0.125,0.438-0.375,0.562
	c-0.906,0.5-1.359,0.844-1.359,1.031v7.875h0.797c1.688-2.969,2.719-4.453,3.094-4.453c0.312,0,1.234,0.781,2.766,2.344
	c1.5,1.531,2.25,2.422,2.25,2.672c0,0.406-0.156,0.609-0.469,0.609h-8.484v10.359h0.328c1.562-1.844,2.5-2.766,2.812-2.766
	c0.25,0,1.312,0.672,3.188,2.016c2.531-6.812,3.797-13.969,3.797-21.469c0-0.281,0-0.5,0-0.656c2.469,0.5,4.5,0.922,6.094,1.266
	c1.625,0.312,2.438,0.656,2.438,1.031c0,0.281-0.188,0.484-0.562,0.609c-0.688,0.25-1.031,0.422-1.031,0.516
	c-0.656,2.812-1.453,5.359-2.391,7.641h5.297c1.906-2.812,3.016-4.219,3.328-4.219c0.344,0,1.344,0.734,3,2.203
	c1.688,1.5,2.531,2.406,2.531,2.719s-0.156,0.469-0.469,0.469h-2.531c-0.688,8.375-2.797,14.844-6.328,19.406
	c0,0.281,1,1.078,3,2.391c2.031,1.312,4.359,2.406,6.984,3.281l-0.094,0.656c-1.219,0.125-2.109,1.641-2.672,4.547
	c-0.219,1-0.547,1.5-0.984,1.5c-0.719,0-2.25-0.953-4.594-2.859c-2.344-1.938-4.062-3.766-5.156-5.484
	c-3.719,3.781-8.25,6.547-13.594,8.297l-0.422-0.703c5-3.094,8.938-7.016,11.812-11.766c-1.719-3.656-2.656-8.141-2.812-13.453
	c0,0.781-1.266,2.359-3.797,4.734C95.69,62.666,95.956,63.041,96.05,63.416z M88.925,63.697h-7.453v12.656h7.453V63.697z
	 M107.628,51.885h-5.344c-0.781,1.781-1.484,3.172-2.109,4.172c0,0.969,0.406,2.688,1.219,5.156
	c0.781,2.469,1.688,4.453,2.719,5.953C106.206,62.947,107.378,57.854,107.628,51.885z"/>
<path fill="#4D4D4D" d="M126.484,45.697c-3.594,0-6.219,0.109-7.875,0.328l-0.984-1.969c2,0.312,5.203,0.469,9.609,0.469h9.141
	c0-1.781-0.109-3.422-0.328-4.922c5.5,0.719,8.25,1.312,8.25,1.781c0,0.281-0.141,0.469-0.422,0.562
	c-0.969,0.344-1.453,0.641-1.453,0.891v1.688h9.094c2.125-2.5,3.328-3.75,3.609-3.75c0.312,0,1.281,0.656,2.906,1.969
	s2.438,2.125,2.438,2.438s-0.125,0.469-0.375,0.469h-17.719v3.562h7.078c1.625-1.406,2.578-2.109,2.859-2.109
	c0.344,0,1.188,0.438,2.531,1.312c1.344,0.906,2.016,1.531,2.016,1.875c0,0.188-0.078,0.359-0.234,0.516
	c-0.688,0.562-1.031,0.859-1.031,0.891v1.734c0,0.375,0,0.703,0,0.984c0.062,0.906,0.094,1.719,0.094,2.438
	c0,0.812-1.312,1.219-3.938,1.219c-1.375,0-2.062-0.219-2.062-0.656v-0.891h-7.359v4.312h7.922c1.781-1.531,2.781-2.297,3-2.297
	c0.281,0,1.109,0.453,2.484,1.359s2.062,1.547,2.062,1.922c0,0.188-0.141,0.391-0.422,0.609c-0.656,0.5-0.984,0.781-0.984,0.844
	v2.953c1.094-2.281,1.781-3.422,2.062-3.422c0.344,0,0.938,0.594,1.781,1.781c0.875,1.219,1.312,1.969,1.312,2.25
	c0,0.344-0.141,0.516-0.422,0.516h-4.734v1.781c0,0.812,0.078,2.75,0.234,5.812c0,1.062-1.328,1.594-3.984,1.594
	c-1.406,0-2.109-0.312-2.109-0.938v-2.109h-8.203v4.453c0,1.875-0.812,3.25-2.438,4.125c-1.625,0.906-3,1.359-4.125,1.359
	c-0.531,0-0.844-0.312-0.938-0.938c-0.375-2.125-1.031-3.469-1.969-4.031c-0.969-0.531-2.031-0.906-3.188-1.125l0.047-0.984
	c1.188,0.125,2.5,0.188,3.938,0.188c1.344,0,2.109-0.078,2.297-0.234s0.281-0.484,0.281-0.984v-1.781h-6.188
	c-3.594,0-6.234,0.109-7.922,0.328l-0.938-2.016c1.969,0.312,5.172,0.469,9.609,0.469h5.438V67.4h-9.984
	c-3.594,0-6.234,0.109-7.922,0.328l-0.938-1.969c1.969,0.312,5.172,0.469,9.609,0.469h9.234v-4.359h-5.391
	c-3.625,0-6.266,0.109-7.922,0.328l-0.984-1.922c2,0.344,5.203,0.516,9.609,0.516h4.688v-4.312h-7.219v1.031
	c0,0.844-1.281,1.266-3.844,1.266c-1.438,0-2.156-0.312-2.156-0.938v-0.047c0.094-1.562,0.141-2.719,0.141-3.469v-2.578
	c0-1.188-0.078-2.5-0.234-3.938c0.938,0.188,1.969,0.406,3.094,0.656c1.188,0.281,2.234,0.516,3.141,0.703h7.078v-3.562
	L126.484,45.697z M136.375,55.447v-5.062h-7.219v5.062H136.375z M142.422,50.385v5.062h7.359v-5.062H142.422z M142.422,61.963v4.359
	h8.25v-4.359H142.422z M150.672,67.494h-8.25v4.922h8.25V67.494z"/>
<path fill="#4D4D4D" d="M197.646,61.213c2.125-2.875,3.344-4.312,3.656-4.312c0.375,0,1.344,0.75,2.906,2.25
	s2.344,2.391,2.344,2.672c0,0.344-0.125,0.516-0.375,0.516h-17.484v6.797h5.531c1.969-2.812,3.141-4.219,3.516-4.219
	c0.344,0,1.297,0.734,2.859,2.203s2.344,2.328,2.344,2.578c0,0.344-0.125,0.516-0.375,0.516h-13.875v6.281
	c1.531,0.219,3.578,0.328,6.141,0.328c4.688,0,8.625-0.281,11.812-0.844l0.047,0.75c-1.219,0.562-1.828,1.906-1.828,4.031
	c0,0.188,0,0.391,0,0.609c0,0.125,0,0.234,0,0.328c0,0.875-0.469,1.312-1.406,1.312c-9.344,0-15.969-0.922-19.875-2.766
	c-3.875-1.812-6.625-4.688-8.25-8.625c0,0.719-0.594,2.094-1.781,4.125c-1.156,2.062-2.703,3.781-4.641,5.156
	c-1.906,1.375-3.812,2.297-5.719,2.766l-0.328-0.562c4.562-3.375,6.844-9.062,6.844-17.062c0-0.562-0.016-1.016-0.047-1.359
	c5.562,1.031,8.344,1.781,8.344,2.25c0,0.281-0.188,0.484-0.562,0.609c-0.688,0.25-1.047,0.484-1.078,0.703
	c-0.156,0.906-0.328,1.688-0.516,2.344c0,0.281,0.734,1,2.203,2.156c1.469,1.125,2.938,1.938,4.406,2.438V62.291h-10.594
	c-3.625,0-6.266,0.125-7.922,0.375l-0.984-1.969c2,0.312,5.203,0.469,9.609,0.469L197.646,61.213z M199.24,49.4
	c0,0.469,0.078,3.047,0.234,7.734c0,0.969-1.328,1.453-3.984,1.453c-1.594,0-2.391-0.281-2.391-0.844v-0.047l0.047-1.219h-17.344
	l0.047,1.219v0.047c0,1-1.422,1.5-4.266,1.5c-1.344,0-2.016-0.328-2.016-0.984v-0.047c0.156-3.344,0.234-5.609,0.234-6.797V47.76
	c0-2.656-0.141-4.938-0.422-6.844c2.031,0.406,4.344,0.969,6.938,1.688h16.312c1.812-1.906,2.906-2.859,3.281-2.859
	c0.344,0,1.312,0.562,2.906,1.688s2.391,1.891,2.391,2.297c0,0.281-0.094,0.484-0.281,0.609c-1.125,0.844-1.688,1.359-1.688,1.547
	V49.4z M175.896,43.822v5.016h17.25v-5.016H175.896z M175.896,49.963v5.344h17.25v-5.344H175.896z"/>
<path fill="#4D4D4D" d="M214.717,52.072c1.562-1.375,2.469-2.062,2.719-2.062c0.375,0,1.219,0.469,2.531,1.406
	s1.969,1.594,1.969,1.969c0,0.312-0.188,0.547-0.562,0.703c-0.875,0.406-1.328,0.641-1.359,0.703l-3.188,8.719h1.5
	c1.344-1.438,2.188-2.156,2.531-2.156s1.203,0.5,2.578,1.5c1.375,0.969,2.062,1.625,2.062,1.969c0,0.281-0.141,0.484-0.422,0.609
	c-0.656,0.344-1,0.547-1.031,0.609c-0.875,3.781-2.188,6.828-3.938,9.141c0,0.375,1.016,0.828,3.047,1.359
	c2.062,0.562,5.5,0.844,10.312,0.844c8.188,0,14.547-0.438,19.078-1.312l-0.047,0.844c-0.812,0.344-1.297,1.672-1.453,3.984
	c-0.094,1.219-0.531,1.828-1.312,1.828c-4.531,0-8.5-0.109-11.906-0.328c-0.031,0-0.062,0-0.094,0
	c-6.625-0.344-11.125-1.094-13.5-2.25s-4-2.562-4.875-4.219c-2.688,3.5-6.203,6.078-10.547,7.734l-0.422-0.562
	c2.469-2.125,4.578-4.938,6.328-8.438c1.75-3.531,2.922-6.859,3.516-9.984h-2.109l-0.516,1.125
	c-0.344,0.812-1.297,1.219-2.859,1.219c-2.219,0-3.328-0.375-3.328-1.125c0-0.094,0.016-0.203,0.047-0.328
	c1.281-2.406,1.953-3.719,2.016-3.938l3.234-8.438h-0.703c-1.875,0-3.531,0.078-4.969,0.234l-0.703-1.828
	c1.438,0.281,3.422,0.422,5.953,0.422L214.717,52.072z M211.857,40.166l0.375-0.562c5.688,0.562,8.531,2.562,8.531,6
	c0,2.188-1.172,3.281-3.516,3.281c-1.625,0-2.484-0.875-2.578-2.625C214.514,43.291,213.576,41.26,211.857,40.166z M243.686,46.541
	c2.062-2.844,3.25-4.266,3.562-4.266c0.344,0,1.281,0.75,2.812,2.25c1.531,1.531,2.297,2.422,2.297,2.672
	c0,0.344-0.141,0.516-0.422,0.516h-21.844c-2.75,0-4.828,0.109-6.234,0.328l-0.891-2.016c2.281,0.344,4.906,0.516,7.875,0.516
	H243.686z M241.107,52.025c1.938-2.562,3.031-3.844,3.281-3.844c0.312,0,1.203,0.672,2.672,2.016s2.203,2.188,2.203,2.531
	c0,0.312-0.141,0.469-0.422,0.469h-15.141c-2.781,0-4.875,0.109-6.281,0.328l-0.844-2.016c2.281,0.344,4.906,0.516,7.875,0.516
	H241.107z M241.904,58.025c1.906-2.562,2.984-3.844,3.234-3.844c0.344,0,1.25,0.672,2.719,2.016s2.203,2.188,2.203,2.531
	c0,0.312-0.141,0.469-0.422,0.469h-15.938c-2.781,0-4.875,0.109-6.281,0.328l-0.75-2.016c2.188,0.344,4.781,0.516,7.781,0.516
	H241.904z M248.607,68.666c0,0.375,0.078,2.031,0.234,4.969v0.047c0,0.906-1.516,1.359-4.547,1.359
	c-1.094,0-1.641-0.297-1.641-0.891v-1.312h-9.188v1.547c0,0.969-1.5,1.453-4.5,1.453c-1.125,0-1.688-0.281-1.688-0.844v-0.047
	c0.156-3.469,0.234-5.438,0.234-5.906v-1.219c0-2.625-0.141-4.656-0.422-6.094c2.125,0.469,4.344,1.047,6.656,1.734h8.531
	c1.562-1.656,2.5-2.484,2.812-2.484c0.375,0,1.297,0.469,2.766,1.406c1.469,0.969,2.203,1.641,2.203,2.016
	c0,0.281-0.109,0.516-0.328,0.703c-0.75,0.594-1.125,1-1.125,1.219V68.666z M230.514,40.26l0.281-0.656c0.281,0,0.641,0,1.078,0
	c5.156,0,7.734,1.312,7.734,3.938c0,1.969-1.188,2.953-3.562,2.953c-1.25,0-2.031-0.688-2.344-2.062
	C233.139,42.244,232.076,40.854,230.514,40.26z M242.654,64.588h-9.188v7.078h9.188V64.588z"/>
<path fill="#4D4D4D" d="M259.461,51.744c-2,0-3.438,0.094-4.312,0.281l-0.797-1.969c1.562,0.312,3.328,0.469,5.297,0.469
	c0.188,0,0.328,0,0.422,0h0.703v-3.188c0-3.812-0.141-6.391-0.422-7.734c5.094,0.531,7.641,1.078,7.641,1.641
	c0,0.25-0.172,0.438-0.516,0.562c-0.812,0.281-1.219,0.578-1.219,0.891v7.828c1.312-2.375,2.109-3.562,2.391-3.562
	c0.312,0,0.984,0.641,2.016,1.922s1.547,2.031,1.547,2.25c0,0.375-0.125,0.562-0.375,0.562h-5.625v4.5
	c1.5,0.219,2.844,0.859,4.031,1.922s1.781,2.234,1.781,3.516c0,1.781-0.875,2.672-2.625,2.672c-1.438,0-2.156-0.641-2.156-1.922
	c0-0.25,0.031-0.516,0.094-0.797c0.125-0.531,0.188-1.047,0.188-1.547c0-1.531-0.453-2.516-1.359-2.953v17.953
	c0,0.438,0.047,2.844,0.141,7.219c0,0.906-1.312,1.359-3.938,1.359c-1.188,0-1.781-0.359-1.781-1.078
	c0.062-3.281,0.094-6.016,0.094-8.203v-9.609c-1.312,3.312-3.25,6.203-5.812,8.672l-0.609-0.422
	c3.156-7.156,5.125-14.266,5.906-21.328L259.461,51.744z M272.773,68.197c1.531-1.312,2.469-1.969,2.812-1.969
	s1.141,0.406,2.391,1.219s1.875,1.375,1.875,1.688c0,0.344-0.344,0.625-1.031,0.844c-0.344,0.125-0.562,0.297-0.656,0.516
	c-1,2.969-2.594,5.406-4.781,7.312c-2.156,1.938-4.281,3.141-6.375,3.609l-0.328-0.469c3.375-3.469,5.438-7.359,6.188-11.672
	c-2.25,0-3.953,0.094-5.109,0.281l-0.984-1.875C268.805,67.963,270.805,68.135,272.773,68.197z M276.711,47.338
	c-2.938,0-4.984,0.094-6.141,0.281l-0.938-1.875c2,0.281,4.516,0.422,7.547,0.422h7.594c0.781-2.312,1.219-4.516,1.312-6.609
	c4.719,1,7.078,1.719,7.078,2.156c0,0.375-0.469,0.625-1.406,0.75c-0.438,0.062-0.672,0.109-0.703,0.141
	c-1.656,1.875-3.438,3.062-5.344,3.562h5.438c1.562-2.094,2.469-3.141,2.719-3.141c0.344,0,1.125,0.562,2.344,1.688
	c1.219,1.094,1.828,1.812,1.828,2.156c0,0.312-0.125,0.469-0.375,0.469h-12v3.375h3.375c1.469-2.031,2.359-3.047,2.672-3.047
	c0.25,0,0.984,0.547,2.203,1.641s1.828,1.766,1.828,2.016c0,0.281-0.141,0.422-0.422,0.422h-9.703v3.938h4.922
	c1.625-2.219,2.578-3.328,2.859-3.328c0.344,0,1.172,0.594,2.484,1.781s1.969,1.906,1.969,2.156c0,0.344-0.125,0.516-0.375,0.516
	h-21.188c-2.938,0-4.984,0.094-6.141,0.281l-0.984-1.875c2.031,0.281,4.562,0.422,7.594,0.422h3.047v-3.938h-0.75
	c-2.938,0-4.984,0.094-6.141,0.281l-0.938-1.828c2,0.281,4.531,0.422,7.594,0.422h0.234v-3.328L276.711,47.338z M285.711,77.76
	c0,3.938-2.047,5.906-6.141,5.906c-0.469,0-0.734-0.25-0.797-0.75c-0.25-1.969-0.641-3.203-1.172-3.703
	c-0.562-0.531-1.453-0.953-2.672-1.266l0.141-0.891c0.781,0.094,1.828,0.141,3.141,0.141c0.281,0,0.547,0,0.797,0
	c0.656,0,0.984-0.344,0.984-1.031V64.588h-0.938c-2.938,0-4.984,0.109-6.141,0.328l-0.938-1.875c2,0.281,4.531,0.422,7.594,0.422
	h0.281c0.688-0.656,1.359-1.281,2.016-1.875c0.156-0.156,0.344-0.234,0.562-0.234c0.25,0,1.156,0.484,2.719,1.453
	c1.594,0.938,2.391,1.578,2.391,1.922s-0.453,0.672-1.359,0.984c0.594,1.219,1.203,2.266,1.828,3.141
	c1.844-1.938,3.062-4.078,3.656-6.422c4.469,1.875,6.703,3.031,6.703,3.469c0,0.344-0.25,0.516-0.75,0.516c-0.219,0-0.484,0-0.797,0
	c-0.219,0-0.359,0-0.422,0c-0.219,0-0.344,0-0.375,0c-2.469,2.062-4.969,3.094-7.5,3.094c0.844,1.25,2.266,2.438,4.266,3.562
	c2.031,1.125,3.938,1.75,5.719,1.875l-0.094,0.75c-0.938,0.344-1.484,1.656-1.641,3.938c-0.062,0.969-0.359,1.453-0.891,1.453
	c-1.531,0-3.438-1.375-5.719-4.125s-3.75-6.328-4.406-10.734L285.711,77.76z M274.555,40.072l0.375-0.422
	c4.188,0.125,6.281,1.391,6.281,3.797c0,1.75-1,2.625-3,2.625c-1.375,0-2.078-0.703-2.109-2.109
	C276.07,42.025,275.555,40.729,274.555,40.072z M276.758,58.541l0.047-0.656c1.5-0.156,3.141-0.234,4.922-0.234
	c5.812,0,8.719,1.172,8.719,3.516c0,1.438-0.656,2.156-1.969,2.156c-0.719,0-1.812-0.594-3.281-1.781
	C283.039,59.791,280.227,58.791,276.758,58.541z"/>
<path fill="#4D4D4D" d="M320.098,49.213c0,0.812,0.078,2.75,0.234,5.812v0.047c0,0.969-1.328,1.453-3.984,1.453
	c-1.219,0-1.828-0.344-1.828-1.031v-1.125h-6.234v16.078c0,1.656,0.047,5.594,0.141,11.812c0,0.969-1.5,1.453-4.5,1.453
	c-1.094,0-1.641-0.328-1.641-0.984v-0.047c0.156-5.969,0.234-10.188,0.234-12.656V49.307c0-3.625-0.141-6.625-0.422-9
	c1.812,0.438,3.953,1.031,6.422,1.781h5.625c1.719-1.594,2.734-2.391,3.047-2.391c0.281,0,1.125,0.453,2.531,1.359
	c1.406,0.875,2.109,1.516,2.109,1.922c0,0.25-0.094,0.453-0.281,0.609c-0.969,0.875-1.453,1.406-1.453,1.594V49.213z M308.285,43.26
	v4.078h6.234V43.26H308.285z M314.52,48.463h-6.234v4.734h6.234V48.463z M327.223,59.197c1.594-2.375,2.547-3.562,2.859-3.562
	c0.375,0,1.188,0.625,2.438,1.875s1.875,2.016,1.875,2.297c0,0.375-0.172,0.562-0.516,0.562h-5.297v7.172
	c1.438-2.688,2.375-4.031,2.812-4.031c0.312,0,1.078,0.688,2.297,2.062s1.828,2.219,1.828,2.531c0,0.406-0.219,0.609-0.656,0.609
	h-6.281v3.891c0,0.938,0.047,3.531,0.141,7.781c0,0.875-1.219,1.312-3.656,1.312c-1.281,0-1.922-0.375-1.922-1.125v-0.047
	c0.062-3.156,0.094-6.094,0.094-8.812v-3h-3.422c-0.125,6.531-3.609,10.875-10.453,13.031l-0.562-0.656
	c3.75-2.812,5.625-6.891,5.625-12.234c0-0.062,0-0.109,0-0.141c-2.406,0-4.078,0.094-5.016,0.281l-0.844-1.969
	c1.75,0.344,3.594,0.516,5.531,0.516c0.188,0,0.312,0,0.375,0c0.031-0.969,0.047-2.109,0.047-3.422v-3.75
	c-1.562,0-2.938,0.078-4.125,0.234l-0.844-1.922c1.719,0.344,4.406,0.516,8.062,0.516H327.223z M320.051,64.166
	c0,1.219-0.031,2.344-0.094,3.375h3.328v-7.172h-3.234V64.166z M341.66,77.385c0,2.25-0.828,3.844-2.484,4.781
	c-1.688,0.969-3.172,1.453-4.453,1.453c-0.531,0-0.844-0.281-0.938-0.844c-0.531-2.312-1-3.75-1.406-4.312
	c-0.406-0.531-1.25-0.953-2.531-1.266l0.141-0.938c1.344,0.062,2.656,0.094,3.938,0.094c0.312,0,0.609,0,0.891,0
	c0.719,0,1.078-0.328,1.078-0.984V54.322h-6.703v0.469c0,0.938-1.328,1.406-3.984,1.406c-1.156,0-1.734-0.281-1.734-0.844v-0.047
	c0.094-2.156,0.141-4.188,0.141-6.094V48.51c0-3.25-0.125-6-0.375-8.25c2.281,0.562,4.391,1.156,6.328,1.781h5.953
	c1.781-1.594,2.797-2.391,3.047-2.391c0.406,0,1.312,0.453,2.719,1.359c1.406,0.875,2.109,1.531,2.109,1.969
	c0,0.25-0.094,0.438-0.281,0.562c-0.969,0.688-1.453,1.266-1.453,1.734V77.385z M329.145,43.26v4.078h6.703V43.26H329.145z
	 M329.145,53.197h6.703v-4.734h-6.703V53.197z"/>
<path fill="#4D4D4D" d="M365.361,52.307c-0.719,0.469-1.078,0.828-1.078,1.078c-0.781,6.438-2.078,11.766-3.891,15.984
	c2.562,1.406,3.844,3.125,3.844,5.156c0,2-0.984,3-2.953,3c-1.062,0-1.781-0.656-2.156-1.969c-0.156-0.594-0.484-1.266-0.984-2.016
	c-2.812,4.094-6.688,7.328-11.625,9.703l-0.422-0.562c4.094-3.812,7.031-8.172,8.812-13.078c-0.656-0.719-1.547-1.438-2.672-2.156
	l-0.281,1.125c-0.188,0.844-1.297,1.266-3.328,1.266c-1.938,0-2.906-0.344-2.906-1.031c0-0.062,0.016-0.156,0.047-0.281
	c0.625-1.625,0.984-2.609,1.078-2.953c2.406-7.969,3.609-12.641,3.609-14.016c-1.531,0-2.875,0.156-4.031,0.469l-0.844-2.109
	c1.344,0.281,2.891,0.422,4.641,0.422c0.188,0,0.312,0,0.375,0c0.781-3.844,1.172-7.172,1.172-9.984c0-0.188,0-0.328,0-0.422
	c5,0.781,7.5,1.391,7.5,1.828c0,0.312-0.219,0.547-0.656,0.703c-0.719,0.281-1.078,0.484-1.078,0.609
	c-0.438,3-0.875,5.422-1.312,7.266h1.922c1.594-1.5,2.531-2.25,2.812-2.25c0.406,0,1.281,0.531,2.625,1.594s2.016,1.75,2.016,2.062
	C365.596,51.963,365.518,52.15,365.361,52.307z M358.564,51.557h-2.578c-0.906,4.75-2.047,9.703-3.422,14.859
	c1.312,0.375,2.328,0.703,3.047,0.984C357.174,62.182,358.158,56.9,358.564,51.557z M364.189,54.369l3.938,0.375
	c2.062-4.594,3.188-9.656,3.375-15.188c5.875,1.625,8.812,2.719,8.812,3.281c0,0.312-0.219,0.516-0.656,0.609
	c-1.031,0.219-1.547,0.344-1.547,0.375c-1.781,5.25-4.656,8.938-8.625,11.062c1.75,0.156,3.969,0.234,6.656,0.234
	c2.594,0,4.906-0.078,6.938-0.234c-0.5-2.031-1.469-3.984-2.906-5.859l0.562-0.562c6,2.375,9,5.312,9,8.812
	c0,2.469-1.172,3.703-3.516,3.703c-1.625,0-2.5-0.859-2.625-2.578c-0.094-1.156-0.188-1.984-0.281-2.484
	c-4.469,3.188-9.891,4.828-16.266,4.922c-0.094,0-0.234,0.312-0.422,0.938c-0.094,0.375-0.281,0.562-0.562,0.562
	C365.471,62.338,364.846,59.682,364.189,54.369z M371.783,79.354v2.719c0,1.062-1.25,1.594-3.75,1.594
	c-1.594,0-2.391-0.359-2.391-1.078c0.031-0.781,0.062-1.844,0.094-3.188c0.094-4.312,0.141-6.578,0.141-6.797v-2.156
	c0-3.594-0.141-6.266-0.422-8.016c2.375,0.438,4.703,1.078,6.984,1.922h7.688c1.781-1.75,2.812-2.625,3.094-2.625
	c0.375,0,1.297,0.531,2.766,1.594s2.203,1.797,2.203,2.203c0,0.281-0.109,0.484-0.328,0.609c-0.938,0.688-1.406,1.156-1.406,1.406
	v3.891c0,0.469,0.094,3.938,0.281,10.406v0.047c0,1.031-1.344,1.547-4.031,1.547c-1.469,0-2.203-0.312-2.203-0.938l0.047-3.141
	H371.783z M380.596,65.619h-8.812v12.469h8.812V65.619z"/>
<path fill="#4D4D4D" d="M410.901,52.025V71.76c0,2.156,0.062,5.188,0.188,9.094c0,0.969-1.391,1.453-4.172,1.453
	c-1,0-1.5-0.297-1.5-0.891v-2.672h-6.422v3.094c0,0.938-1.375,1.406-4.125,1.406c-1.031,0-1.547-0.344-1.547-1.031
	c0.125-5.344,0.188-9.047,0.188-11.109V54.369c0-3.062-0.094-5.5-0.281-7.312c0.969,0.281,1.953,0.594,2.953,0.938
	c1.125,0.375,2.078,0.703,2.859,0.984h0.141c0.094-0.938,0.141-2.125,0.141-3.562c0-1.906-0.109-3.797-0.328-5.672
	c5.281,0.969,7.922,1.75,7.922,2.344c0,0.469-0.484,0.75-1.453,0.844c-0.281,0.031-0.438,0.078-0.469,0.141
	c-1.125,2.406-2.672,4.375-4.641,5.906h4.688c1.594-1.688,2.516-2.531,2.766-2.531c0.344,0,1.25,0.547,2.719,1.641
	c1.438,1.094,2.156,1.781,2.156,2.062c0,0.219-0.109,0.422-0.328,0.609C411.386,51.572,410.901,51.994,410.901,52.025z
	 M405.417,50.104h-6.422v11.859h6.422V50.104z M398.995,77.572h6.422V63.135h-6.422V77.572z M419.526,50.338
	c-1.719,4.156-4.344,7.797-7.875,10.922l-0.516-0.516c2.75-6.844,4.234-13.906,4.453-21.188c5.594,1.312,8.391,2.219,8.391,2.719
	c0,0.344-0.219,0.578-0.656,0.703c-1.031,0.25-1.547,0.406-1.547,0.469c-0.562,2.156-1.172,4.062-1.828,5.719h7.219
	c1.844-1.906,2.922-2.859,3.234-2.859c0.469,0,1.391,0.562,2.766,1.688s2.062,1.875,2.062,2.25c0,0.344-0.094,0.562-0.281,0.656
	c-1.125,0.625-1.688,1.016-1.688,1.172c0,7.469-0.516,14.594-1.547,21.375s-3.891,10.172-8.578,10.172
	c-0.781,0-1.188-0.344-1.219-1.031c-0.031-1.25-0.266-2.328-0.703-3.234s-1.969-1.844-4.594-2.812l0.188-0.891
	c2.594,0.375,4.547,0.562,5.859,0.562c1.156,0,1.953-0.25,2.391-0.75c0.625-0.812,1.188-3.641,1.688-8.484
	c0.469-4.875,0.797-10.406,0.984-16.594L419.526,50.338z M415.87,58.119l0.562-0.469c1.844,0.625,3.516,1.719,5.016,3.281
	c1.5,1.531,2.25,3.047,2.25,4.547c0,2.688-1.25,4.031-3.75,4.031h-0.047c-1.531-0.031-2.297-1.156-2.297-3.375
	c0-0.281,0.016-0.672,0.047-1.172c0-0.188,0-0.375,0-0.562C417.651,61.807,417.058,59.713,415.87,58.119z"/>
<circle fill="#4D4D4D" cx="450.803" cy="61.705" r="5.922"/>
<circle fill="#4D4D4D" cx="470.083" cy="61.705" r="5.922"/>
<circle fill="#4D4D4D" cx="488.587" cy="61.705" r="5.922"/>
<polygon fill="#4D4D4D" points="509,26.532 567.257,60.167 509,93.801 "/>
</svg>
