<?xml version="1.0" encoding="utf-8"?>
<!-- Generator: Adobe Illustrator 17.0.0, SVG Export Plug-In . SVG Version: 6.00 Build 0)  -->
<!DOCTYPE svg PUBLIC "-//W3C//DTD SVG 1.1//EN" "http://www.w3.org/Graphics/SVG/1.1/DTD/svg11.dtd">
<svg version="1.1" id="Layer_1" xmlns="http://www.w3.org/2000/svg" xmlns:xlink="http://www.w3.org/1999/xlink" x="0px" y="0px"
	 width="360px" height="197px" viewBox="0 0 360 197" enable-background="new 0 0 360 197" xml:space="preserve">
<polygon fill="#FFFFFF" points="208.354,100.435 180.128,149.322 151.903,100.435 "/>
<polygon fill="#FFFFFF" points="197.576,137.435 180.128,167.656 162.681,137.435 "/>
<path fill="#FFFFFF" d="M67.453,69.796c2.5-3.438,3.875-5.156,4.125-5.156s1.328,0.922,3.234,2.766
	c1.875,1.812,2.812,2.859,2.812,3.141c0,0.344-0.172,0.516-0.516,0.516H43.078c-3.469,0-6.359,0.125-8.672,0.375l-0.938-2.156
	c2.875,0.312,6.375,0.469,10.5,0.469h13.219c2.656-6.906,3.984-15.359,3.984-25.359c0-0.156,0-0.266,0-0.328
	c2.688,0.75,5.047,1.406,7.078,1.969c2.062,0.562,3.094,1.078,3.094,1.547c0,0.438-0.672,0.797-2.016,1.078
	c-0.406,0.094-0.609,0.156-0.609,0.188c-2.094,8.375-5.406,15.328-9.938,20.859L67.453,69.796z M66.094,40.687
	c1.719-2.281,2.859-3.812,3.422-4.594c0.094-0.156,0.25-0.234,0.469-0.234c0.281,0,1.344,0.859,3.188,2.578
	c1.812,1.719,2.719,2.734,2.719,3.047c0,0.344-0.234,0.516-0.703,0.516H44.484c-3.375,0-6.047,0.109-8.016,0.328l-0.938-2.156
	c2.25,0.312,5.531,0.469,9.844,0.469L66.094,40.687z M42.984,46.03l0.75-0.422c2.469,2.188,4.609,4.781,6.422,7.781
	c1.844,2.969,2.766,5.391,2.766,7.266c0,1.406-0.438,2.609-1.312,3.609s-1.953,1.5-3.234,1.5c-1.906,0-2.859-1.297-2.859-3.891
	c0-0.25,0-0.531,0-0.844c0.031-0.5,0.047-1.016,0.047-1.547C45.562,54.077,44.703,49.593,42.984,46.03z M48.797,30.89l0.422-0.609
	c0.094,0,0.219,0,0.375,0c2.719,0,4.938,0.516,6.656,1.547c1.75,1.031,2.625,2.375,2.625,4.031c0,2.781-1.328,4.172-3.984,4.172
	c-1.594,0-2.516-0.875-2.766-2.625C51.656,34.343,50.547,32.171,48.797,30.89z"/>
<path fill="#FFFFFF" d="M101.135,54.233c0,1-1.469,1.5-4.406,1.5c-1.062,0-1.594-0.266-1.594-0.797v-1.875h-6.609V64.03
	c2.656-0.281,5.031-0.734,7.125-1.359c-0.438-1.781-1.281-3.469-2.531-5.062l0.469-0.422c5.781,2.156,8.672,5.078,8.672,8.766
	c0,2.375-1.172,3.562-3.516,3.562c-1.531,0-2.359-0.969-2.484-2.906c-0.062-1.125-0.172-2.047-0.328-2.766
	c-3.594,3.062-7.578,5.344-11.953,6.844c-0.062,0.031-0.094,0.5-0.094,1.406c0,0.5-0.219,0.75-0.656,0.75
	c-0.594,0-1.797-2.703-3.609-8.109c0.469,0,0.984-0.016,1.547-0.047c0.656-0.031,1.156-0.062,1.5-0.094V39.046
	c0-2.719-0.141-5.016-0.422-6.891c2.562,0.688,4.781,1.391,6.656,2.109h5.812c1.812-1.531,2.859-2.297,3.141-2.297
	c0.406,0,1.297,0.469,2.672,1.406c1.375,0.906,2.062,1.531,2.062,1.875c0,0.281-0.141,0.516-0.422,0.703
	c-0.781,0.594-1.172,0.969-1.172,1.125v10.172C100.994,48.03,101.041,50.358,101.135,54.233z M88.525,35.437v7.453h6.609v-7.453
	H88.525z M88.525,44.062v7.828h6.609v-7.828H88.525z M121.15,62.155c0,2.406-0.75,4.047-2.25,4.922
	c-1.5,0.906-2.812,1.359-3.938,1.359c-0.469,0-0.75-0.234-0.844-0.703c-0.344-1.688-0.672-2.844-0.984-3.469
	c-0.312-0.594-1.188-1.125-2.625-1.594l0.141-0.844c1.062,0.125,2.141,0.188,3.234,0.188c0.156,0,0.312,0,0.469,0
	c0.688-0.031,1.031-0.391,1.031-1.078V35.249h-5.531v37.547c0,0.969-1.312,1.453-3.938,1.453c-1.406,0-2.109-0.297-2.109-0.891
	c0.125-4.688,0.188-8.906,0.188-12.656V41.765c0-4.031-0.172-7.25-0.516-9.656c2.344,0.594,4.578,1.25,6.703,1.969h4.594
	c1.906-1.625,2.984-2.437,3.234-2.437c0.344,0,1.219,0.469,2.625,1.406c1.406,0.969,2.109,1.625,2.109,1.969
	c0,0.25-0.094,0.453-0.281,0.609c-0.844,0.688-1.266,1.062-1.266,1.125L121.15,62.155z"/>
<path fill="#FFFFFF" d="M135.41,64.827c0,0.219,0.844,0.688,2.531,1.406c3.688-2.188,6.219-4.625,7.594-7.312
	c4.969,1.906,7.453,3.078,7.453,3.516c0,0.375-0.234,0.562-0.703,0.562c-0.219,0-0.516-0.016-0.891-0.047c-0.25,0-0.422,0-0.516,0
	c-0.156,0-0.25,0.016-0.281,0.047c-3.062,2-6.766,3.266-11.109,3.797c2.281,0.656,5.828,0.984,10.641,0.984
	c8.062,0,14.406-0.359,19.031-1.078l-0.047,0.844c-0.75,0.406-1.234,1.703-1.453,3.891c-0.125,1.219-0.562,1.828-1.312,1.828
	c-10.188,0-17.484-0.516-21.891-1.547c-4.438-1.031-7.625-3.016-9.562-5.953c-2.219,3.719-5.359,6.547-9.422,8.484l-0.422-0.562
	c4.469-5.312,7.141-11.453,8.016-18.422h-1.125l-0.469,1.266c-0.25,0.688-1.094,1.031-2.531,1.031c-2.281,0-3.422-0.375-3.422-1.125
	c0-0.094,0.031-0.188,0.094-0.281c1.156-2.312,1.812-3.703,1.969-4.172l2.906-8.203h-0.703c-0.188,0-0.766,0.016-1.734,0.047
	c-0.938,0.031-1.672,0.109-2.203,0.234l-0.75-1.875c1.219,0.281,2.906,0.422,5.062,0.422h0.328c1.438-1.375,2.312-2.062,2.625-2.062
	c0.375,0,1.172,0.453,2.391,1.359s1.828,1.562,1.828,1.969c0,0.312-0.156,0.547-0.469,0.703c-0.906,0.406-1.375,0.641-1.406,0.703
	l-3,8.719h0.797c1.344-1.438,2.188-2.156,2.531-2.156c0.406,0,1.25,0.5,2.531,1.5c1.281,0.969,1.922,1.625,1.922,1.969
	c0,0.25-0.156,0.438-0.469,0.562c-0.75,0.375-1.125,0.578-1.125,0.609c-0.031,0.188-0.078,0.422-0.141,0.703
	c1.469,0.25,3.469,0.375,6,0.375v-5.156c-2.156,0-3.734,0.094-4.734,0.281l-0.938-1.922c1.281,0.312,3.172,0.469,5.672,0.469
	c0-0.031,0-0.125,0-0.281c0-1.969-0.172-3.422-0.516-4.359c5.281,0.562,7.922,1.109,7.922,1.641c0,0.281-0.141,0.484-0.422,0.609
	c-0.812,0.406-1.219,0.719-1.219,0.938v1.453h4.125c0-0.094,0-0.219,0-0.375c0-1.656-0.172-3.078-0.516-4.266
	c5.094,0.656,7.641,1.203,7.641,1.641c0,0.281-0.141,0.5-0.422,0.656c-0.625,0.406-0.938,0.656-0.938,0.75v1.594h0.469
	c1.656-2.219,2.625-3.328,2.906-3.328c0.312,0,1.094,0.609,2.344,1.828s1.875,1.953,1.875,2.203c0,0.312-0.141,0.469-0.422,0.469
	h-7.172v5.156h1.031c1.781-2.438,2.844-3.656,3.188-3.656c0.375,0,1.219,0.656,2.531,1.969s1.969,2.109,1.969,2.391
	c0,0.312-0.125,0.469-0.375,0.469h-23.531c-2.938,0-4.984,0.094-6.141,0.281l-0.562-1.125c-0.688,2.469-1.625,4.766-2.812,6.891
	L135.41,64.827z M127.395,30.655l0.375-0.562c5.719,0.562,8.578,2.562,8.578,6c0,2.188-1.156,3.281-3.469,3.281
	c-1.594,0-2.469-0.875-2.625-2.625C129.941,33.78,128.988,31.749,127.395,30.655z M138.738,36.187c0-1.406-0.109-3.188-0.328-5.344
	c1.656,0.5,3.641,1.187,5.953,2.062h1.5c1.531-1.469,2.453-2.203,2.766-2.203s1.016,0.438,2.109,1.312
	c1.094,0.875,1.641,1.453,1.641,1.734c0,0.219-0.141,0.438-0.422,0.656c-0.594,0.5-0.891,0.844-0.891,1.031v1.125
	c0,0.594,0.047,1.328,0.141,2.203c0,0.062,0,0.109,0,0.141c0,0.875-1.203,1.312-3.609,1.312c-0.844,0-1.266-0.281-1.266-0.844
	v-0.328h-2.438v1.594c0,0.969,1.047,1.453,3.141,1.453c2.281,0,3.578-0.359,3.891-1.078c0.312-0.688,0.531-1.469,0.656-2.344
	l0.75,0.094c-0.031,0.656-0.062,1.297-0.094,1.922c0,0.188,0.25,0.578,0.75,1.172c0.312,0.312,0.469,0.719,0.469,1.219
	c0,2.094-2.25,3.141-6.75,3.141c-3.531,0-5.75-0.312-6.656-0.938c-0.875-0.656-1.312-1.734-1.312-3.234V36.187z M146.332,34.077
	h-2.438v3.844h2.438V34.077z M154.301,57.608v-5.156h-4.125v5.156H154.301z M153.551,36.187c0-1.406-0.109-3.188-0.328-5.344
	c1.656,0.5,3.641,1.187,5.953,2.062h1.641c1.5-1.469,2.406-2.203,2.719-2.203s1.016,0.438,2.109,1.312
	c1.094,0.875,1.641,1.453,1.641,1.734c0,0.219-0.125,0.438-0.375,0.656c-0.625,0.5-0.938,0.844-0.938,1.031v1.125
	c0,0.594,0.062,1.328,0.188,2.203c0,0.062,0,0.109,0,0.141c0,0.875-1.203,1.312-3.609,1.312c-0.875,0-1.312-0.281-1.312-0.844
	v-0.328h-2.484v1.594c0,0.969,1.047,1.453,3.141,1.453c2.375,0,3.703-0.359,3.984-1.078c0.312-0.688,0.547-1.469,0.703-2.344
	l0.703,0.094c-0.031,0.656-0.062,1.297-0.094,1.922c0,0.094,0.312,0.484,0.938,1.172c0.312,0.312,0.469,0.719,0.469,1.219
	c0,2.094-2.312,3.141-6.938,3.141c-3.625,0-5.891-0.297-6.797-0.891c-0.906-0.625-1.359-1.719-1.359-3.281L153.551,36.187z
	 M154.441,60.374l0.234-0.656c0.781-0.062,1.719-0.094,2.812-0.094c6.375,0,9.562,1.406,9.562,4.219
	c0,2.094-0.875,3.141-2.625,3.141c-0.906,0-1.984-0.75-3.234-2.25C159.191,62.296,156.941,60.843,154.441,60.374z M161.238,34.077
	h-2.484v3.844h2.484V34.077z"/>
<path fill="#FFFFFF" d="M182.994,54.843v13.312c0,2.156-0.766,3.656-2.297,4.5c-1.5,0.875-2.844,1.312-4.031,1.312
	c-0.438,0-0.688-0.219-0.75-0.656c-0.281-1.812-0.641-3.047-1.078-3.703c-0.406-0.688-1.344-1.25-2.812-1.688l0.141-0.938
	c0.969,0.125,2.109,0.188,3.422,0.188c0.25,0,0.5,0,0.75,0c0.656,0,0.984-0.344,0.984-1.031v-9.047
	c-0.562,0.312-1.219,0.594-1.969,0.844c-0.219,0.062-0.406,0.469-0.562,1.219c-0.062,0.375-0.25,0.562-0.562,0.562
	c-0.344,0-0.688-0.781-1.031-2.344c-0.375-1.594-0.812-3.531-1.312-5.812c0.75,0.062,1.641,0.094,2.672,0.094
	c1.094,0,2.031-0.031,2.812-0.094v-9.047c-2.25,0-3.812,0.094-4.688,0.281l-0.797-1.922c1.469,0.344,3.172,0.516,5.109,0.516
	c0.188,0,0.312,0,0.375,0v-4.172c0-2.906-0.125-5.297-0.375-7.172c5.094,0.594,7.641,1.141,7.641,1.641
	c0,0.25-0.125,0.437-0.375,0.562c-0.812,0.344-1.219,0.703-1.219,1.078v8.062h0.094c0.875-2.812,1.5-4.219,1.875-4.219
	c0.344,0,0.844,0.672,1.5,2.016c0.688,1.344,1.031,2.234,1.031,2.672c0,0.406-0.188,0.609-0.562,0.609h-3.938v8.438
	c1.719-0.344,3.391-0.859,5.016-1.547l0.281,0.656l-0.703,0.844c1.188,0.25,3.406,0.375,6.656,0.375h3.188v-4.359h-1.922
	c-2.938,0-4.984,0.109-6.141,0.328l-0.984-1.875c2.031,0.281,4.562,0.422,7.594,0.422h1.453v-3.75h-4.406v0.516
	c0,0.844-1.219,1.266-3.656,1.266c-1.25,0-1.875-0.281-1.875-0.844V42.89c0.062-1.75,0.094-3.312,0.094-4.688V36.14
	c0-2.438-0.109-4.281-0.328-5.531c1.875,0.406,3.938,1.016,6.188,1.828h14.531c1.531-1.531,2.516-2.297,2.953-2.297
	c0.375,0,1.156,0.422,2.344,1.266c1.188,0.812,1.781,1.422,1.781,1.828c0,0.281-0.078,0.469-0.234,0.562
	c-0.719,0.625-1.078,1.016-1.078,1.172v1.828c0,0.531,0.016,2.047,0.047,4.547v0.047c0,0.844-1.312,1.266-3.938,1.266
	c-1.062,0-1.594-0.188-1.594-0.562v-0.141h-4.922v3.75h2.906c1.469-2.031,2.391-3.047,2.766-3.047c0.281,0,1.109,0.562,2.484,1.688
	s2.062,1.812,2.062,2.062c0,0.281-0.156,0.422-0.469,0.422h-9.75v4.359h4.641c1.625-2.406,2.656-3.609,3.094-3.609
	c0.344,0,1.234,0.641,2.672,1.922s2.156,2.062,2.156,2.344c0,0.312-0.156,0.469-0.469,0.469h-21.656
	c-2.938,0-4.984,0.094-6.141,0.281l-0.562-1.125C185.4,53.062,184.025,54.187,182.994,54.843z M194.15,65.671
	c-2.938,0-4.984,0.094-6.141,0.281l-0.938-1.875c2,0.281,4.516,0.422,7.547,0.422h2.812v-4.594h-4.594
	c-2.938,0-4.984,0.094-6.141,0.281l-0.938-1.875c2,0.281,4.766,0.422,8.297,0.422c-0.562-0.062-0.906-0.609-1.031-1.641
	c-0.281-2.156-1.047-3.391-2.297-3.703l0.234-0.656c0.531-0.062,1.141-0.094,1.828-0.094c3.719,0,5.578,1.156,5.578,3.469
	c0,1.344-0.609,2.219-1.828,2.625h5.766c0.906-1.875,1.469-3.969,1.688-6.281c4.938,0.812,7.406,1.453,7.406,1.922
	c0,0.312-0.359,0.516-1.078,0.609l-0.891,0.188c-1.594,1.875-3.578,3.062-5.953,3.562h4.781c1.719-2.5,2.766-3.75,3.141-3.75
	s1.234,0.656,2.578,1.969s2.016,2.109,2.016,2.391c0,0.344-0.141,0.516-0.422,0.516h-12.234v4.594h4.078
	c1.781-2.531,2.828-3.797,3.141-3.797c0.344,0,1.219,0.672,2.625,2.016s2.109,2.188,2.109,2.531c0,0.281-0.172,0.422-0.516,0.422
	h-11.484v1.172c0,0.969,0,1.703,0,2.203c0.062,1.062,0.109,2.344,0.141,3.844c0,0.875-1.375,1.312-4.125,1.312
	c-1.375,0-2.062-0.297-2.062-0.891c0.031-0.812,0.062-1.719,0.094-2.719c0.031-1.281,0.047-2.062,0.047-2.344
	c0-0.062,0-0.188,0-0.375c0-0.375,0-0.766,0-1.172v-1.031L194.15,65.671z M195.088,33.702h-2.062v7.219h2.062V33.702z
	 M199.635,33.702v7.219h1.969v-7.219H199.635z M206.15,40.921h2.156v-7.219h-2.156V40.921z"/>
<path fill="#FFFFFF" d="M230.182,63.749c0,0.812,0.062,3.844,0.188,9.094c0,0.906-1.609,1.359-4.828,1.359
	c-1.219,0-1.828-0.328-1.828-0.984c0.094-4.562,0.141-8.094,0.141-10.594V50.249c-1.781,1.875-3.438,3.375-4.969,4.5l-0.516-0.516
	c1.812-2.875,3.547-6.734,5.203-11.578c1.625-4.812,2.641-9.016,3.047-12.609c5.625,1.125,8.438,1.969,8.438,2.531
	c0,0.281-0.172,0.484-0.516,0.609c-1.094,0.344-1.641,0.531-1.641,0.562c-0.938,3.531-1.984,6.406-3.141,8.625
	c1.375,0.344,2.062,0.703,2.062,1.078c0,0.25-0.188,0.469-0.562,0.656c-0.719,0.375-1.078,0.578-1.078,0.609V63.749z
	 M239.885,71.062c-2.938,0-4.984,0.109-6.141,0.328l-0.984-2.062c2.031,0.281,4.562,0.422,7.594,0.422h3V52.358h-4.688
	c-2.938,0-4.984,0.094-6.141,0.281l-0.938-2.016c2,0.281,4.516,0.422,7.547,0.422h4.219V38.624c-1.75,0.062-3.406,0.094-4.969,0.094
	h-4.875l-0.234-0.75c9.188-1.594,16.5-3.891,21.938-6.891c3.969,3.5,5.953,5.391,5.953,5.672c0,0.438-0.219,0.656-0.656,0.656
	c-0.156,0-0.609-0.109-1.359-0.328c-0.25-0.062-0.406-0.094-0.469-0.094h-0.047c-2.781,0.688-5.734,1.141-8.859,1.359v12.703h3.562
	c2.188-3.031,3.422-4.547,3.703-4.547c0.312,0,1.297,0.797,2.953,2.391c1.656,1.625,2.484,2.594,2.484,2.906
	c0,0.344-0.109,0.516-0.328,0.516h-12.422v17.391h3.328c2.188-2.938,3.375-4.406,3.562-4.406c0.25,0,1.141,0.797,2.672,2.391
	c1.562,1.594,2.344,2.531,2.344,2.812c0,0.344-0.172,0.516-0.516,0.516L239.885,71.062z"/>
<path fill="#FFFFFF" d="M264.328,47.812l-0.891-1.922c1.812,0.312,4.484,0.469,8.016,0.469h7.969c1.781-1.5,2.844-2.25,3.188-2.25
	c0.25,0,1.031,0.547,2.344,1.641s1.969,1.828,1.969,2.203c0,0.438-0.531,0.75-1.594,0.938c-0.375,0.062-0.578,0.109-0.609,0.141
	c-1.344,1.812-3.125,3.453-5.344,4.922l-0.562-0.328c0.312-1.438,0.625-3.484,0.938-6.141h-1.828v20.484
	c0,3.094-1.828,5.062-5.484,5.906c-0.406,0.094-0.719,0.141-0.938,0.141c-0.5,0-0.781-0.234-0.844-0.703
	c-0.312-1.719-0.688-2.828-1.125-3.328s-1.875-1.062-4.312-1.688l0.141-0.891c2.062,0.156,4.094,0.234,6.094,0.234
	c0.656,0,0.984-0.344,0.984-1.031v-9.609c-1.969,3.875-4.844,7.031-8.625,9.469l-0.469-0.469c1.531-1.969,3.047-4.844,4.547-8.625
	c1.5-3.812,2.359-7.078,2.578-9.797h-0.422C267.016,47.577,265.109,47.655,264.328,47.812z M272.109,34.218
	c-3.25,0-5.5,0.094-6.75,0.281l-0.891-1.922c1.812,0.312,4.484,0.469,8.016,0.469h4.453c2.219-1.594,3.469-2.391,3.75-2.391
	c0.375,0,1.297,0.578,2.766,1.734c1.469,1.156,2.203,1.922,2.203,2.297c0,0.406-0.531,0.734-1.594,0.984
	c-0.438,0.094-0.672,0.156-0.703,0.188c-2.281,1.969-4.703,3.438-7.266,4.406c0.969,0.844,1.453,1.781,1.453,2.812
	c0,2.094-1.094,3.141-3.281,3.141c-1.219,0-2-0.875-2.344-2.625c-0.406-2.375-1.531-4.219-3.375-5.531l0.422-0.516
	c2.75,0.281,4.875,0.969,6.375,2.062c0.969-1.531,1.625-3.344,1.969-5.438L272.109,34.218z M288.938,57.187
	c0.188-1,0.281-2.562,0.281-4.688c0-0.281,0-0.5,0-0.656c5.156,0.719,7.734,1.328,7.734,1.828c0,0.25-0.109,0.422-0.328,0.516
	c-0.906,0.375-1.375,0.641-1.406,0.797c-0.031,0.719-0.125,1.453-0.281,2.203h4.266c1.875-1.625,2.969-2.438,3.281-2.438
	s1.141,0.438,2.484,1.312s2.016,1.5,2.016,1.875c0,0.25-0.109,0.453-0.328,0.609c-0.875,0.719-1.312,1.094-1.312,1.125
	c-0.531,5.531-1.109,8.938-1.734,10.219c-0.594,1.281-1.531,2.234-2.812,2.859c-1.281,0.656-2.453,0.984-3.516,0.984
	c-0.5,0-0.781-0.344-0.844-1.031c-0.125-1.438-0.484-2.469-1.078-3.094c-0.594-0.656-1.859-1.234-3.797-1.734l0.141-0.938
	c2.188,0.344,3.891,0.516,5.109,0.516c1.125,0,1.844-0.875,2.156-2.625c0.312-1.719,0.562-3.969,0.75-6.75h-4.922
	c-1.594,8.781-6.969,14.078-16.125,15.891l-0.469-0.703c6.062-3.375,9.609-8.438,10.641-15.188h-0.141
	c-3.281,0-5.547,0.094-6.797,0.281l-0.891-1.828c1.844,0.312,4.25,0.469,7.219,0.469C288.609,56.999,288.844,57.062,288.938,57.187z
	 M280.828,53.53c5.344-2.375,9.141-4.969,11.391-7.781c-1.344-1.688-2.406-3.75-3.188-6.188c-2,2.031-4.047,3.438-6.141,4.219
	l-0.469-0.469c3.094-3.312,4.969-7.719,5.625-13.219c4.906,1.031,7.359,1.75,7.359,2.156c0,0.312-0.219,0.531-0.656,0.656
	c-0.875,0.25-1.312,0.391-1.312,0.422c-0.5,1-1.016,1.875-1.547,2.625h7.078c1.938-2.594,3.109-3.891,3.516-3.891
	c0.312,0,1.188,0.688,2.625,2.062s2.156,2.219,2.156,2.531c0,0.375-0.172,0.562-0.516,0.562h-2.438
	c-1.375,3.406-3.281,6.203-5.719,8.391c2.062,0.781,4.641,1.172,7.734,1.172c0.406,0,0.719-0.016,0.938-0.047l-0.094,0.844
	c-0.969,0.312-1.609,1.828-1.922,4.547c-0.094,0.875-0.422,1.312-0.984,1.312c-0.844,0-2.25-0.484-4.219-1.453
	c-1.938-0.969-3.625-2.078-5.062-3.328c-3.469,2.375-8.047,4.234-13.734,5.578L280.828,53.53z M291.094,37.218
	c-0.312,0.438-0.75,0.969-1.312,1.594c0,0.125,0.469,0.766,1.406,1.922s1.875,2.062,2.812,2.719
	c1.844-2.438,2.922-4.531,3.234-6.281L291.094,37.218z"/>
<path fill="#FFFFFF" d="M321.375,58.78c0.031-0.969,0.047-1.703,0.047-2.203c0-1.531-0.562-5.125-1.688-10.781
	c-0.719-3.469-1.078-6.031-1.078-7.688c0-0.094,0-0.188,0-0.281c0-0.875,0.422-1.734,1.266-2.578
	c0.812-0.875,1.703-1.312,2.672-1.312c1.031,0,1.938,0.422,2.719,1.266c0.812,0.812,1.219,1.688,1.219,2.625
	c0,0.031,0,0.062,0,0.094c0,1.094-0.422,4.031-1.266,8.812c-1,6.125-1.5,9.406-1.5,9.844c0,0.25,0,0.625,0,1.125
	c0.031,0.5,0.047,0.859,0.047,1.078H321.375z M318.938,65.905c0-2.5,1.25-3.75,3.75-3.75c2.531,0,3.797,1.25,3.797,3.75
	s-1.266,3.75-3.797,3.75C320.188,69.655,318.938,68.405,318.938,65.905z"/>
</svg>
