<?xml version="1.0" encoding="utf-8"?>
<!-- Generator: Adobe Illustrator 17.0.0, SVG Export Plug-In . SVG Version: 6.00 Build 0)  -->
<!DOCTYPE svg PUBLIC "-//W3C//DTD SVG 1.1//EN" "http://www.w3.org/Graphics/SVG/1.1/DTD/svg11.dtd">
<svg version="1.1" id="Layer_1" xmlns="http://www.w3.org/2000/svg" xmlns:xlink="http://www.w3.org/1999/xlink" x="0px" y="0px"
	 width="1280px" height="360px" viewBox="0 0 1280 360" enable-background="new 0 0 1280 360" xml:space="preserve">
<path d="M137.921,148.969c6.354-8.736,9.848-13.105,10.484-13.105c0.635,0,3.375,2.344,8.221,7.029
	c4.766,4.605,7.148,7.268,7.148,7.982c0,0.873-0.438,1.311-1.311,1.311H75.968c-8.816,0-16.164,0.316-22.041,0.953l-2.383-5.48
	c7.307,0.793,16.203,1.191,26.688,1.191h33.598c6.75-17.553,10.127-39.037,10.127-64.455c0-0.396,0-0.674,0-0.834
	c6.83,1.906,12.826,3.574,17.99,5.004c5.242,1.43,7.863,2.74,7.863,3.932c0,1.113-1.709,2.025-5.123,2.74
	c-1.033,0.238-1.549,0.398-1.549,0.477c-5.322,21.287-13.742,38.959-25.258,53.018L137.921,148.969z M134.466,74.982
	c4.367-5.797,7.268-9.689,8.697-11.676c0.238-0.396,0.635-0.596,1.191-0.596c0.715,0,3.414,2.186,8.102,6.553
	c4.605,4.369,6.91,6.951,6.91,7.744c0,0.875-0.596,1.311-1.787,1.311H79.542c-8.578,0-15.369,0.279-20.373,0.834l-2.383-5.48
	c5.719,0.795,14.059,1.191,25.02,1.191L134.466,74.982z M75.729,88.564l1.906-1.072c6.273,5.561,11.715,12.152,16.322,19.777
	c4.686,7.547,7.029,13.701,7.029,18.467c0,3.574-1.113,6.633-3.336,9.174c-2.225,2.543-4.965,3.812-8.221,3.812
	c-4.846,0-7.268-3.295-7.268-9.889c0-0.635,0-1.35,0-2.145c0.078-1.27,0.119-2.58,0.119-3.932
	C82.282,109.018,80.097,97.619,75.729,88.564z M90.503,50.082l1.072-1.549c0.238,0,0.555,0,0.953,0
	c6.91,0,12.549,1.311,16.918,3.932c4.447,2.621,6.672,6.037,6.672,10.246c0,7.07-3.377,10.604-10.127,10.604
	c-4.051,0-6.395-2.223-7.029-6.672C97.771,58.859,94.95,53.34,90.503,50.082z"/>
<path d="M252.692,76.412c5.797-7.068,9.014-10.604,9.65-10.604c0.793,0,3.217,1.867,7.268,5.6c4.129,3.654,6.195,5.879,6.195,6.672
	c0,0.953-0.398,1.43-1.191,1.43h-39.912c3.574,3.098,9.332,5.719,17.275,7.863c7.941,2.066,15.924,3.098,23.947,3.098
	c0.635,0,1.15,0,1.549,0l-0.238,2.025c-2.859,1.271-4.408,4.646-4.646,10.127c-0.08,2.145-0.875,3.217-2.383,3.217
	c-5.561,0-12.432-2.502-20.611-7.506c-8.102-5.082-14.059-11.357-17.871-18.824h-1.43v2.74c0,2.145,0.158,7.863,0.477,17.156
	c0,2.305-3.973,3.455-11.914,3.455c-2.781,0-4.17-0.793-4.17-2.383v-0.119c0.238-7.625,0.357-13.303,0.357-17.037v-0.596
	c-3.178,5.164-9.174,10.445-17.99,15.846c-8.816,5.402-18.348,9.174-28.594,11.318l-1.072-2.025
	c14.375-8.34,24.701-17.791,30.977-28.355h-12.152c-6.434,0-11.479,0.279-15.131,0.834l-2.145-5.004
	c5.004,0.715,13.064,1.072,24.186,1.072h21.922V64.379c-5.084,0.238-10.842,0.357-17.275,0.357c-7.863,0-14.695-0.078-20.492-0.238
	l-0.477-2.145c31.373-3.336,55.639-8.021,72.795-14.059c12.311,7.547,18.467,11.836,18.467,12.867c0,0.795-0.596,1.191-1.787,1.191
	c-0.16,0-1.43-0.158-3.812-0.477l-2.264-0.238c-8.738,1.352-18.705,2.145-29.904,2.383v12.391H252.692z M253.288,119.66
	c-1.828,6.832-5.084,12.828-9.77,17.99c16.68,2.621,25.02,7.545,25.02,14.773c0,4.924-1.906,7.387-5.719,7.387
	c-1.59,0-4.488-1.232-8.697-3.693c-10.645-6.195-17.197-9.293-19.658-9.293c-11.836,8.816-32.645,13.225-62.43,13.225
	c-0.398,0-0.715,0-0.953,0l-0.596-2.025c21.684-2.066,38.482-7.387,50.396-15.965c-7.943-3.098-14.219-5.004-18.824-5.719
	l-3.812,5.004c-1.033,1.43-3.297,2.145-6.791,2.145c-7.625,0-11.438-0.756-11.438-2.264c0-0.238,0.158-0.516,0.477-0.834
	c1.826-1.984,3.176-3.494,4.051-4.527l12.51-16.203h-11.676c-6.514,0-11.479,0.318-14.893,0.953l-2.502-5.957
	c5.877,1.033,13.859,1.549,23.947,1.549h7.268c3.256-4.447,5.797-9.293,7.625-14.535c12.787,2.701,19.182,4.607,19.182,5.719
	c0,0.953-0.637,1.51-1.906,1.668c-2.145,0.318-3.377,0.715-3.693,1.191c-1.352,2.145-2.662,4.131-3.932,5.957h37.887
	c5.242-6.988,8.34-10.484,9.293-10.484c0.793,0,3.295,1.867,7.506,5.6c4.129,3.812,6.195,6.156,6.195,7.029
	c0,0.875-0.318,1.311-0.953,1.311H253.288z M213.972,119.66l-10.127,14.178c3.256,0.238,7.268,0.518,12.033,0.834
	c4.129,0.318,7.863,0.637,11.199,0.953c3.494-4.051,6.473-9.371,8.936-15.965H213.972z"/>
<path d="M323.92,125.855c0.555-2.621,0.834-6.195,0.834-10.723c5.639,0.795,10.682,1.59,15.131,2.383
	c4.447,0.715,6.672,1.549,6.672,2.502c0,0.795-0.398,1.352-1.191,1.668c-2.463,0.875-3.734,1.471-3.812,1.787
	c-0.16,0.875-0.357,1.629-0.596,2.264h25.615c5.559-3.971,8.697-5.957,9.412-5.957c0.793,0,2.979,1.311,6.553,3.932
	s5.361,4.369,5.361,5.242c0,0.715-0.279,1.232-0.834,1.549c-2.463,1.59-3.693,2.543-3.693,2.859c0,1.43-0.676,4.807-2.025,10.127
	c-1.352,5.242-3.02,8.775-5.004,10.604c-1.906,1.746-5.998,3.375-12.271,4.885c-1.352,0.316-2.424,0.477-3.217,0.477
	c-2.066,0-3.139-1.072-3.217-3.217c-0.16-4.131-1.113-6.871-2.859-8.221c-1.828-1.43-4.885-2.9-9.174-4.408l0.477-2.383
	c3.176,0.477,6.91,0.953,11.199,1.43c2.145,0.238,3.574,0.357,4.289,0.357c2.223,0,3.732-1.51,4.527-4.527
	c0.793-3.018,1.389-6.273,1.787-9.77H340.48c-2.859,10.326-9.93,18.068-21.207,23.232c-11.279,5.242-24.107,7.902-38.482,7.982
	l-0.477-1.787c9.609-1.986,18.863-5.879,27.76-11.676c8.816-5.719,13.898-11.596,15.25-17.633h-15.965
	c-9.215,0-15.926,0.279-20.135,0.834l-2.383-5.004c5.082,0.795,13.225,1.191,24.424,1.191H323.92z M357.994,54.609
	c6.195-4.289,9.65-6.434,10.365-6.434c0.873,0,3.414,1.787,7.625,5.361c4.209,3.574,6.314,5.918,6.314,7.029
	c0,1.191-1.113,1.787-3.336,1.787c-0.398,0-0.795,0-1.191,0c-0.318,0-0.518,0-0.596,0c-0.398,0-0.676,0.041-0.834,0.119
	c-7.467,3.496-17.436,5.561-29.904,6.195c0.158,0.637,0.238,1.311,0.238,2.025c0,2.781-1.113,4.926-3.336,6.434h21.684
	c5.162-4.289,8.021-6.434,8.578-6.434c0.793,0,3.018,1.191,6.672,3.574c3.652,2.383,5.48,3.973,5.48,4.766
	c0,0.637-0.279,1.152-0.834,1.549c-2.225,1.828-3.336,2.979-3.336,3.455v15.25c0,1.828,0.197,6.553,0.596,14.178v0.119
	c0,2.543-3.854,3.812-11.557,3.812c-2.859,0-4.289-0.715-4.289-2.145v-7.625h-21.803l0.119,3.812v0.119
	c0,2.225-3.496,3.336-10.484,3.336c-3.258,0-4.885-0.674-4.885-2.025l0.119-5.242h-21.326v7.387c0,2.383-3.734,3.574-11.199,3.574
	c-3.098,0-4.646-0.754-4.646-2.264c0.396-7.863,0.596-13.145,0.596-15.846V89.279c0-6.115-0.357-11.873-1.072-17.275
	c3.336,0.875,9.055,2.543,17.156,5.004h25.734c-1.113-1.031-2.145-2.303-3.098-3.812c-3.416-5.877-7.268-9.133-11.557-9.77
	l0.357-2.025c2.859-0.477,5.996-0.715,9.412-0.715c8.26,0,13.344,1.668,15.25,5.004c2.223-1.111,4.328-2.383,6.314-3.812
	c1.984-1.43,4.17-2.898,6.553-4.408h-47.061c-9.215,0-15.926,0.279-20.135,0.834l-2.383-5.123
	c5.004,0.795,13.145,1.191,24.424,1.191L357.994,54.609z M308.312,80.105v10.723h21.326V80.105H308.312z M308.312,93.688v11.318
	h21.326V93.688H308.312z M366.572,90.828V80.105H344.77v10.723H366.572z M344.77,93.688v11.318h21.803V93.688H344.77z"/>
<path d="M485.305,137.293c0,0.557,0.158,6.869,0.477,18.943v0.119c0,2.461-3.455,3.693-10.365,3.693
	c-3.496,0-5.242-0.715-5.242-2.145v-5.957h-36.457v4.051c0,2.779-3.654,4.17-10.961,4.17c-3.098,0-4.646-0.756-4.646-2.264
	c0.316-9.531,0.477-16.244,0.477-20.135v-22.518c-7.467,1.986-15.926,3.574-25.377,4.766l-0.834-1.906
	c19.539-5.559,37.529-14.217,53.971-25.973h-33.121c-8.262,0-14.219,0.279-17.871,0.834l-2.74-5.48
	c5.48,1.033,12.51,1.549,21.088,1.549h14.535V69.502h-7.863c-7.467,0-13.027,0.279-16.68,0.834l-2.74-5.6
	c6.512,1.191,13.225,1.787,20.135,1.787h7.148c0-0.635,0-1.508,0-2.621c0-6.83-0.279-12.152-0.834-15.965
	c13.422,1.748,20.135,3.217,20.135,4.408c0,0.637-0.318,1.113-0.953,1.43c-2.145,0.795-3.217,1.391-3.217,1.787v10.961h7.744
	c4.844-6.354,7.545-9.531,8.102-9.531c0.793,0,2.898,1.709,6.314,5.123c3.414,3.416,5.123,5.441,5.123,6.076
	c0,0.875-0.318,1.311-0.953,1.311h-26.449v19.539h6.791c15.965-13.184,26.211-24.424,30.738-33.717
	c11.754,5.48,17.633,8.697,17.633,9.65s-0.637,1.51-1.906,1.668c-2.463,0.318-3.693,0.518-3.693,0.596
	c-7.705,8.42-15.449,15.688-23.232,21.803h12.033c5.082-7.068,8.061-10.604,8.936-10.604c1.031,0,3.455,1.906,7.268,5.719
	s5.719,5.998,5.719,6.553c0,0.875-0.279,1.311-0.834,1.311h-36.695c-8.182,6.752-17.156,12.113-26.926,16.084h29.666
	c3.652-3.176,6.076-5.32,7.268-6.434c0.555-0.477,1.072-0.715,1.549-0.715c1.031,0,3.375,1.391,7.029,4.17
	c3.652,2.781,5.48,4.568,5.48,5.361c0,0.477-0.238,0.914-0.715,1.311c-2.781,2.066-4.17,3.336-4.17,3.812L485.305,137.293z
	 M433.717,111.201v16.441h36.457v-16.441H433.717z M433.717,130.621v18.348h36.457v-18.348H433.717z"/>
<path d="M615.565,87.373h-42.771c3.256,13.424,9.531,24.861,18.824,34.312c9.213,9.531,18.307,15.131,27.283,16.799l-0.477,2.264
	h-0.119c-3.336,0-6.156,4.051-8.459,12.152c-1.271,4.289-2.424,6.434-3.455,6.434c-3.02,0-7.904-3.973-14.654-11.914
	c-6.752-8.021-11.994-17.592-15.727-28.713c-3.812-11.119-5.998-21.604-6.553-31.453h-2.859
	c-1.352,17.633-7.705,33.043-19.062,46.227c-11.359,13.184-24.465,22-39.316,26.449l-1.311-2.025
	c10.008-6.514,19.102-16.363,27.283-29.547c8.26-13.184,12.986-26.885,14.178-41.104h-15.727c-7.785,0-14.377,0.318-19.777,0.953
	l-2.145-5.719c5.32,0.875,14.455,1.311,27.402,1.311h10.723c0.477-5.797,0.754-13.779,0.834-23.947
	c0-3.574-0.279-7.465-0.834-11.676c6.988,0.795,12.826,1.471,17.514,2.025c4.605,0.637,6.91,1.51,6.91,2.621
	c0,0.795-0.518,1.471-1.549,2.025c-2.383,1.271-3.574,2.105-3.574,2.502c0,9.293-0.318,18.07-0.953,26.33h25.258
	c5.559-7.227,9.014-10.842,10.365-10.842c0.953,0,3.574,1.867,7.863,5.6c4.367,3.734,6.553,6.076,6.553,7.029
	C617.233,86.58,616.677,87.215,615.565,87.373z"/>
<path d="M649.771,136.34c0,0.557,2.145,1.748,6.434,3.574c9.371-5.559,15.805-11.754,19.301-18.586
	c12.629,4.846,18.943,7.824,18.943,8.936c0,0.953-0.596,1.43-1.787,1.43c-0.557,0-1.311-0.039-2.264-0.119c-0.637,0-1.072,0-1.311,0
	c-0.398,0-0.637,0.041-0.715,0.119c-7.785,5.084-17.197,8.301-28.236,9.65c5.797,1.668,14.812,2.502,27.045,2.502
	c20.492,0,36.615-0.914,48.371-2.74l-0.119,2.145c-1.906,1.031-3.139,4.328-3.693,9.889c-0.318,3.098-1.43,4.646-3.336,4.646
	c-25.895,0-44.439-1.311-55.639-3.932c-11.279-2.621-19.381-7.666-24.305-15.131c-5.641,9.451-13.623,16.639-23.947,21.564
	l-1.072-1.43c11.357-13.504,18.148-29.109,20.373-46.822h-2.859l-1.191,3.217c-0.637,1.748-2.781,2.621-6.434,2.621
	c-5.799,0-8.697-0.953-8.697-2.859c0-0.238,0.078-0.477,0.238-0.715c2.938-5.877,4.605-9.412,5.004-10.604l7.387-20.85h-1.787
	c-0.477,0-1.947,0.041-4.408,0.119c-2.383,0.08-4.25,0.279-5.6,0.596l-1.906-4.766c3.098,0.715,7.387,1.072,12.867,1.072h0.834
	c3.652-3.494,5.877-5.242,6.672-5.242c0.953,0,2.979,1.152,6.076,3.455c3.098,2.305,4.646,3.973,4.646,5.004
	c0,0.795-0.398,1.391-1.191,1.787c-2.305,1.033-3.496,1.629-3.574,1.787l-7.625,22.16h2.025c3.414-3.652,5.559-5.48,6.434-5.48
	c1.031,0,3.176,1.271,6.434,3.812c3.256,2.463,4.885,4.131,4.885,5.004c0,0.637-0.398,1.113-1.191,1.43
	c-1.906,0.953-2.859,1.471-2.859,1.549c-0.08,0.477-0.199,1.072-0.357,1.787c3.732,0.637,8.816,0.953,15.25,0.953v-13.105
	c-5.48,0-9.492,0.238-12.033,0.715l-2.383-4.885c3.256,0.795,8.061,1.191,14.416,1.191c0-0.078,0-0.316,0-0.715
	c0-5.004-0.438-8.697-1.311-11.08c13.422,1.43,20.135,2.82,20.135,4.17c0,0.715-0.357,1.232-1.072,1.549
	c-2.066,1.033-3.098,1.828-3.098,2.383v3.693h10.484c0-0.238,0-0.555,0-0.953c0-4.209-0.438-7.822-1.311-10.842
	c12.945,1.668,19.42,3.059,19.42,4.17c0,0.715-0.357,1.271-1.072,1.668c-1.59,1.033-2.383,1.668-2.383,1.906v4.051h1.191
	c4.209-5.639,6.672-8.459,7.387-8.459c0.793,0,2.779,1.549,5.957,4.646c3.176,3.098,4.766,4.965,4.766,5.6
	c0,0.795-0.357,1.191-1.072,1.191h-18.229v13.105h2.621c4.527-6.195,7.227-9.293,8.102-9.293c0.953,0,3.098,1.668,6.434,5.004
	s5.004,5.361,5.004,6.076c0,0.795-0.318,1.191-0.953,1.191h-59.809c-7.467,0-12.67,0.238-15.607,0.715l-1.43-2.859
	c-1.748,6.275-4.131,12.113-7.148,17.514L649.771,136.34z M629.397,49.486l0.953-1.43c14.535,1.43,21.803,6.514,21.803,15.25
	c0,5.561-2.939,8.34-8.816,8.34c-4.051,0-6.275-2.223-6.672-6.672C635.87,57.43,633.448,52.268,629.397,49.486z M658.229,63.545
	c0-3.574-0.279-8.102-0.834-13.582c4.209,1.271,9.252,3.02,15.131,5.242h3.812c3.891-3.732,6.234-5.6,7.029-5.6
	c0.793,0,2.58,1.113,5.361,3.336c2.779,2.225,4.17,3.693,4.17,4.408c0,0.557-0.357,1.113-1.072,1.668
	c-1.51,1.271-2.264,2.145-2.264,2.621v2.859c0,1.51,0.119,3.377,0.357,5.6c0,0.16,0,0.279,0,0.357c0,2.225-3.059,3.336-9.174,3.336
	c-2.145,0-3.217-0.715-3.217-2.145v-0.834h-6.195v4.051c0,2.463,2.66,3.693,7.982,3.693c5.797,0,9.094-0.912,9.889-2.74
	c0.793-1.746,1.35-3.732,1.668-5.957l1.906,0.238c-0.08,1.668-0.16,3.297-0.238,4.885c0,0.477,0.635,1.471,1.906,2.979
	c0.793,0.795,1.191,1.828,1.191,3.098c0,5.322-5.719,7.982-17.156,7.982c-8.977,0-14.615-0.793-16.918-2.383
	c-2.225-1.668-3.336-4.408-3.336-8.221V63.545z M677.53,58.184h-6.195v9.77h6.195V58.184z M697.784,117.992v-13.105H687.3v13.105
	H697.784z M695.878,63.545c0-3.574-0.279-8.102-0.834-13.582c4.209,1.271,9.252,3.02,15.131,5.242h4.17
	c3.812-3.732,6.115-5.6,6.91-5.6c0.793,0,2.58,1.113,5.361,3.336c2.779,2.225,4.17,3.693,4.17,4.408
	c0,0.557-0.318,1.113-0.953,1.668c-1.59,1.271-2.383,2.145-2.383,2.621v2.859c0,1.51,0.158,3.377,0.477,5.6c0,0.16,0,0.279,0,0.357
	c0,2.225-3.059,3.336-9.174,3.336c-2.225,0-3.336-0.715-3.336-2.145v-0.834h-6.314v4.051c0,2.463,2.66,3.693,7.982,3.693
	c6.035,0,9.412-0.912,10.127-2.74c0.793-1.746,1.389-3.732,1.787-5.957l1.787,0.238c-0.08,1.668-0.16,3.297-0.238,4.885
	c0,0.238,0.793,1.232,2.383,2.979c0.793,0.795,1.191,1.828,1.191,3.098c0,5.322-5.879,7.982-17.633,7.982
	c-9.215,0-14.973-0.754-17.275-2.264c-2.305-1.588-3.455-4.367-3.455-8.34L695.878,63.545z M698.142,125.021l0.596-1.668
	c1.984-0.158,4.367-0.238,7.148-0.238c16.203,0,24.305,3.574,24.305,10.723c0,5.322-2.225,7.982-6.672,7.982
	c-2.305,0-5.045-1.906-8.221-5.719C710.214,129.906,704.495,126.213,698.142,125.021z M715.417,58.184h-6.314v9.77h6.314V58.184z"/>
<path d="M762.641,108.818c3.414-3.652,5.559-5.48,6.434-5.48c1.031,0,3.176,1.271,6.434,3.812c3.256,2.463,4.885,4.131,4.885,5.004
	c0,0.637-0.398,1.113-1.191,1.43c-1.906,0.953-2.859,1.471-2.859,1.549c-1.828,8.34-4.607,15.688-8.34,22.041
	c8.34,4.289,22.557,6.434,42.652,6.434c17.473,0,31.691-0.875,42.652-2.621l-0.119,2.145c-2.145,0.793-3.377,4.09-3.693,9.889
	c-0.238,3.098-1.352,4.646-3.336,4.646c-25.496,0-43.885-1.391-55.162-4.17c-11.359-2.781-19.5-7.467-24.424-14.059
	c-6.752,9.928-14.893,16.838-24.424,20.73l-1.072-1.43c11.834-12.629,18.902-28.236,21.207-46.822h-3.812l-1.191,3.217
	c-0.637,1.748-2.781,2.621-6.434,2.621c-5.799,0-8.697-0.953-8.697-2.859c0-0.238,0.078-0.477,0.238-0.715
	c2.938-5.877,4.605-9.412,5.004-10.604l7.387-20.85h-1.787c-0.238,0-0.557,0-0.953,0c-0.875,0.08-1.947,0.119-3.217,0.119
	c-2.225,0.08-4.17,0.279-5.838,0.596l-1.906-4.766c3.652,0.715,7.863,1.072,12.629,1.072h0.953c3.652-3.494,5.877-5.242,6.672-5.242
	c0.953,0,2.979,1.152,6.076,3.455c3.098,2.305,4.646,3.973,4.646,5.004c0,0.795-0.398,1.391-1.191,1.787
	c-2.305,0.953-3.496,1.549-3.574,1.787l-7.625,22.16L762.641,108.818z M747.152,49.486l0.953-1.43
	c14.535,1.43,21.803,6.514,21.803,15.25c0,5.561-2.939,8.34-8.816,8.34c-4.051,0-6.275-2.223-6.672-6.672
	C753.625,57.43,751.203,52.268,747.152,49.486z M839.486,112.273c6.672,4.051,10.008,6.514,10.008,7.387
	c0,0.795-0.438,1.191-1.311,1.191c-0.875-0.078-1.828-0.197-2.859-0.357c-0.398-0.078-0.637-0.119-0.715-0.119h-0.119
	c-3.734,0.795-7.586,1.191-11.557,1.191c9.609,2.383,14.416,6.314,14.416,11.795c0,3.973-1.748,5.957-5.242,5.957
	c-2.305,0-5.957-2.621-10.961-7.863c-5.641-5.877-10.525-9.531-14.654-10.961c0,0.16,0,0.518,0,1.072
	c0,3.496,0.158,9.492,0.477,17.99v0.119c0,2.145-3.455,3.217-10.365,3.217c-2.543,0-3.812-0.914-3.812-2.74v-0.119
	c0.078-5.082,0.119-9.133,0.119-12.152c0-1.906,0-3.098,0-3.574c-8.578,5.799-18.229,9.65-28.951,11.557l-0.596-1.311
	c13.66-6.75,22.795-14.455,27.402-23.113h-4.885v1.906c0,2.066-3.574,3.098-10.723,3.098c-2.463,0-3.693-0.674-3.693-2.025
	c0-0.078,0-0.158,0-0.238c0.238-4.129,0.357-7.188,0.357-9.174v-4.885c0-3.971-0.238-7.307-0.715-10.008
	c3.971,0.875,9.213,2.305,15.727,4.289h28.117c4.289-3.891,6.791-5.838,7.506-5.838c0.873,0,3.018,1.113,6.434,3.336
	c3.414,2.145,5.123,3.773,5.123,4.885c0,0.637-0.238,1.072-0.715,1.311c-2.145,1.191-3.217,2.066-3.217,2.621v3.336
	c0,0.875,0.039,3.059,0.119,6.553v0.119C840.201,111.439,839.963,111.957,839.486,112.273z M834.959,79.271
	c-1.906,0-2.859-0.674-2.859-2.025v-0.953h-41.938v1.311c0,2.305-3.258,3.455-9.77,3.455c-2.701,0-4.051-0.754-4.051-2.264v-0.119
	c0.158-4.447,0.238-8.299,0.238-11.557v-3.932c0-4.447-0.238-8.775-0.715-12.986c7.227,1.986,12.23,3.496,15.012,4.527h40.389
	c3.891-3.732,6.154-5.6,6.791-5.6c0.793,0,2.779,1.113,5.957,3.336c3.176,2.145,4.766,3.734,4.766,4.766
	c0,0.637-0.279,1.152-0.834,1.549c-1.748,1.033-2.621,1.947-2.621,2.74v5.242c0,0.398,0,1.232,0,2.502
	c0.238,2.066,0.396,4.17,0.477,6.314c0,1.271-0.875,2.145-2.621,2.621c5.48,3.893,8.221,6.395,8.221,7.506
	c0,0.875-0.477,1.311-1.43,1.311h-65.766c-3.416,0-6.236,0.16-8.459,0.477l-2.264-4.646c4.766,0.715,11.795,1.072,21.088,1.072
	h38.363l4.408-4.885C836.627,79.193,835.832,79.271,834.959,79.271z M790.162,73.314h6.553V57.707h-6.553V73.314z M826.143,97.381
	h-30.262v11.199h30.262V97.381z M814.229,57.707h-6.553v15.607h6.553V57.707z M829.479,114.061c-2.225,0-3.336-0.674-3.336-2.025
	v-0.596h-7.387l-2.264,2.859v3.455c3.652,0.557,8.102,1.471,13.344,2.74c1.984-1.746,3.455-4.051,4.408-6.91
	C832.734,113.902,831.146,114.061,829.479,114.061z M832.1,57.707h-6.791v15.607h6.791V57.707z"/>
<path d="M890.117,67.357c2.303-5.4,3.852-11.795,4.646-19.182c15.408,3.258,23.113,5.441,23.113,6.553
	c0,1.113-1.43,1.986-4.289,2.621c-1.113,0.238-1.709,0.477-1.787,0.715c-1.352,3.654-2.621,6.752-3.812,9.293h36.576
	c6.195-7.465,9.77-11.199,10.723-11.199c0.873,0,3.455,1.947,7.744,5.838c4.209,3.893,6.314,6.236,6.314,7.029
	c0,0.953-0.398,1.43-1.191,1.43h-61.715c-3.258,7.229-6.594,13.146-10.008,17.752l3.098,1.311h37.648
	c4.766-4.367,7.584-6.553,8.459-6.553c0.793,0,3.176,1.232,7.148,3.693c3.971,2.383,5.957,4.131,5.957,5.242
	c0,0.637-0.398,1.271-1.191,1.906c-2.225,1.906-3.336,2.979-3.336,3.217v47.299c0,5.4-2.225,9.252-6.672,11.557
	c-4.527,2.383-8.42,3.574-11.676,3.574c-1.271,0-1.986-0.637-2.145-1.906c-0.637-5.242-2.025-8.578-4.17-10.008
	c-2.066-1.51-5.203-2.82-9.412-3.932l0.357-2.383c4.924,0.396,9.451,0.596,13.582,0.596c0.477,0,0.953,0,1.43,0
	c1.984,0,2.979-0.953,2.979-2.859v-9.889h-40.15v8.34c0,1.59,0.158,7.625,0.477,18.109v0.119c0,2.779-4.17,4.17-12.51,4.17
	c-2.859,0-4.289-0.756-4.289-2.264c0.396-13.186,0.596-21.723,0.596-25.615v-29.666c-5.799,6.117-13.701,11.875-23.709,17.275
	l-1.191-1.668c5.082-5.004,10.842-12.311,17.275-21.922c6.512-9.531,11.119-18.109,13.82-25.734h-7.744
	c-9.215,0-15.926,0.318-20.135,0.953l-2.502-5.48C863.508,66.564,871.65,67,882.85,67L890.117,67.357z M898.457,107.389h40.15
	V92.854h-40.15V107.389z M898.457,110.367v15.846h40.15v-15.846H898.457z"/>
<path d="M1202.483,97.023c4.924-7.387,8.141-11.08,9.65-11.08c1.191,0,3.891,1.828,8.102,5.48c4.289,3.574,6.434,5.838,6.434,6.791
	c0,1.191-0.596,1.787-1.787,1.787h-43.367c2.938,11.121,9.055,20.334,18.348,27.641c9.371,7.229,18.902,11.318,28.594,12.271
	l-0.477,2.621c-3.574,0.316-5.957,4.766-7.148,13.344c-0.318,2.541-1.072,3.812-2.264,3.812c-0.715,0-2.145-0.438-4.289-1.311
	c-8.34-3.574-15.807-10.445-22.398-20.611c-6.594-10.166-11.041-22.676-13.344-37.529h-2.264l-0.119,0.477
	c-2.305,16.76-8.936,30.104-19.896,40.031s-23.789,16.322-38.482,19.182l-0.953-1.787c11.676-6.275,21.445-14.695,29.309-25.258
	c7.783-10.562,12.311-21.445,13.582-32.645h-22.16c-6.832,0-11.795,0.318-14.893,0.953l-2.145-5.719
	c6.354,1.033,12.23,1.549,17.633,1.549h22.041c0.953-8.34,1.43-18.783,1.43-31.334c0-1.43,0-2.541,0-3.336h-14.893
	c-7.309,0-12.789,0.238-16.441,0.715l-2.264-5.6c6.195,1.033,13.025,1.549,20.492,1.549h44.678
	c4.844-6.988,7.982-10.484,9.412-10.484c1.27,0,3.971,1.748,8.102,5.242c4.209,3.496,6.314,5.719,6.314,6.672
	c0,1.191-0.557,1.787-1.668,1.787h-36.695c0,15.33-0.596,26.926-1.787,34.789H1202.483z"/>
<path d="M245.923,206.609c0,0.953-0.557,1.549-1.668,1.787c-2.225,0.477-3.377,0.875-3.455,1.191
	c-3.02,8.102-6.553,15.131-10.604,21.088c3.336,0.953,5.004,1.867,5.004,2.74c0,0.637-0.438,1.191-1.311,1.668
	c-1.828,0.953-2.74,1.471-2.74,1.549v53.137v0.477c0.316,7.703,0.477,13.74,0.477,18.109c0,2.541-4.012,3.812-12.033,3.812
	c-2.383,0-3.574-0.795-3.574-2.383c0.238-11.598,0.357-20.412,0.357-26.449v-34.312c-3.496,3.893-7.625,7.189-12.391,9.889
	l-1.43-1.549c4.924-7.307,9.809-16.758,14.654-28.355c4.766-11.676,7.625-21.246,8.578-28.713
	C239.132,203.234,245.843,205.34,245.923,206.609z M244.017,247.355c13.74,2.859,20.611,5.045,20.611,6.553
	c0,0.875-0.518,1.43-1.549,1.668c-2.305,0.557-3.496,0.953-3.574,1.191c-5.719,17.871-13.939,30.064-24.662,36.576l-1.43-1.072
	C239.608,277.736,243.142,262.766,244.017,247.355z M267.011,229.365h-10.842c-5.48,8.5-12.432,15.41-20.85,20.73l-1.43-1.311
	c9.371-15.488,15.25-31.611,17.633-48.371c13.502,2.939,20.254,5.084,20.254,6.434c0,0.953-0.557,1.549-1.668,1.787
	c-2.225,0.477-3.377,0.875-3.455,1.191c-3.098,7.387-5.957,12.828-8.578,16.322h34.074c5.082-4.367,8.102-6.553,9.055-6.553
	c1.031,0,3.455,1.867,7.268,5.6c3.812,3.734,5.719,6.117,5.719,7.148c0,1.033-1.113,1.549-3.336,1.549c-0.318,0-0.756,0-1.311,0
	c-0.318,0-0.557,0-0.715,0c-0.398,0-0.637,0.041-0.715,0.119c-6.195,4.846-12.113,8.619-17.752,11.318l-1.311-1.191
	c1.906-5.162,3.137-10.127,3.693-14.893H282.38v68.506c0,4.766-2.145,8.26-6.434,10.484c-4.211,2.303-7.863,3.455-10.961,3.455
	c-1.43,0-2.264-0.795-2.502-2.383c-0.953-5.561-2.543-8.977-4.766-10.246c-2.225-1.191-4.646-2.105-7.268-2.74l0.119-2.502
	c2.859,0.396,6.076,0.596,9.65,0.596c3.414,0,5.4-0.238,5.957-0.715c0.477-0.398,0.715-1.23,0.715-2.502L267.011,229.365z
	 M286.788,250.453l1.787-1.311c5.957,3.893,11.477,9.254,16.561,16.084c5.162,6.832,7.744,12.471,7.744,16.918
	c0,6.434-2.859,9.65-8.578,9.65c-4.289,0-7.029-4.447-8.221-13.344C294.571,267.014,291.474,257.682,286.788,250.453z"/>
<path d="M342.176,260.818c3.414-3.652,5.559-5.48,6.434-5.48c1.031,0,3.176,1.271,6.434,3.812c3.256,2.463,4.885,4.131,4.885,5.004
	c0,0.637-0.398,1.113-1.191,1.43c-1.906,0.953-2.859,1.471-2.859,1.549c-1.828,8.34-4.607,15.688-8.34,22.041
	c8.34,4.289,22.557,6.434,42.652,6.434c17.473,0,31.691-0.875,42.652-2.621l-0.119,2.145c-2.145,0.793-3.377,4.09-3.693,9.889
	c-0.238,3.098-1.352,4.646-3.336,4.646c-25.496,0-43.885-1.391-55.162-4.17c-11.359-2.781-19.5-7.467-24.424-14.059
	c-6.752,9.928-14.893,16.838-24.424,20.73l-1.072-1.43c11.834-12.629,18.902-28.236,21.207-46.822h-3.812l-1.191,3.217
	c-0.637,1.748-2.781,2.621-6.434,2.621c-5.799,0-8.697-0.953-8.697-2.859c0-0.238,0.078-0.477,0.238-0.715
	c2.938-5.877,4.605-9.412,5.004-10.604l7.387-20.85h-1.787c-0.238,0-0.557,0-0.953,0c-0.875,0.08-1.947,0.119-3.217,0.119
	c-2.225,0.08-4.17,0.279-5.838,0.596l-1.906-4.766c3.652,0.715,7.863,1.072,12.629,1.072h0.953c3.652-3.494,5.877-5.242,6.672-5.242
	c0.953,0,2.979,1.152,6.076,3.455c3.098,2.305,4.646,3.973,4.646,5.004c0,0.795-0.398,1.391-1.191,1.787
	c-2.305,0.953-3.496,1.549-3.574,1.787l-7.625,22.16L342.176,260.818z M326.688,201.486l0.953-1.43
	c14.535,1.43,21.803,6.514,21.803,15.25c0,5.561-2.939,8.34-8.816,8.34c-4.051,0-6.275-2.223-6.672-6.672
	C333.16,209.43,330.738,204.268,326.688,201.486z M419.021,264.273c6.672,4.051,10.008,6.514,10.008,7.387
	c0,0.795-0.438,1.191-1.311,1.191c-0.875-0.078-1.828-0.197-2.859-0.357c-0.398-0.078-0.637-0.119-0.715-0.119h-0.119
	c-3.734,0.795-7.586,1.191-11.557,1.191c9.609,2.383,14.416,6.314,14.416,11.795c0,3.973-1.748,5.957-5.242,5.957
	c-2.305,0-5.957-2.621-10.961-7.863c-5.641-5.877-10.525-9.531-14.654-10.961c0,0.16,0,0.518,0,1.072
	c0,3.496,0.158,9.492,0.477,17.99v0.119c0,2.145-3.455,3.217-10.365,3.217c-2.543,0-3.812-0.914-3.812-2.74v-0.119
	c0.078-5.082,0.119-9.133,0.119-12.152c0-1.906,0-3.098,0-3.574c-8.578,5.799-18.229,9.65-28.951,11.557l-0.596-1.311
	c13.66-6.75,22.795-14.455,27.402-23.113h-4.885v1.906c0,2.066-3.574,3.098-10.723,3.098c-2.463,0-3.693-0.674-3.693-2.025
	c0-0.078,0-0.158,0-0.238c0.238-4.129,0.357-7.188,0.357-9.174v-4.885c0-3.971-0.238-7.307-0.715-10.008
	c3.971,0.875,9.213,2.305,15.727,4.289h28.117c4.289-3.891,6.791-5.838,7.506-5.838c0.873,0,3.018,1.113,6.434,3.336
	c3.414,2.145,5.123,3.773,5.123,4.885c0,0.637-0.238,1.072-0.715,1.311c-2.145,1.191-3.217,2.066-3.217,2.621v3.336
	c0,0.875,0.039,3.059,0.119,6.553v0.119C419.736,263.439,419.498,263.957,419.021,264.273z M414.494,231.271
	c-1.906,0-2.859-0.674-2.859-2.025v-0.953h-41.938v1.311c0,2.305-3.258,3.455-9.77,3.455c-2.701,0-4.051-0.754-4.051-2.264v-0.119
	c0.158-4.447,0.238-8.299,0.238-11.557v-3.932c0-4.447-0.238-8.775-0.715-12.986c7.227,1.986,12.23,3.496,15.012,4.527h40.389
	c3.891-3.732,6.154-5.6,6.791-5.6c0.793,0,2.779,1.113,5.957,3.336c3.176,2.145,4.766,3.734,4.766,4.766
	c0,0.637-0.279,1.152-0.834,1.549c-1.748,1.033-2.621,1.947-2.621,2.74v5.242c0,0.398,0,1.232,0,2.502
	c0.238,2.066,0.396,4.17,0.477,6.314c0,1.271-0.875,2.145-2.621,2.621c5.48,3.893,8.221,6.395,8.221,7.506
	c0,0.875-0.477,1.311-1.43,1.311H363.74c-3.416,0-6.236,0.16-8.459,0.477l-2.264-4.646c4.766,0.715,11.795,1.072,21.088,1.072
	h38.363l4.408-4.885C416.162,231.193,415.367,231.271,414.494,231.271z M369.697,225.314h6.553v-15.607h-6.553V225.314z
	 M405.678,249.381h-30.262v11.199h30.262V249.381z M393.764,209.707h-6.553v15.607h6.553V209.707z M409.014,266.061
	c-2.225,0-3.336-0.674-3.336-2.025v-0.596h-7.387l-2.264,2.859v3.455c3.652,0.557,8.102,1.471,13.344,2.74
	c1.984-1.746,3.455-4.051,4.408-6.91C412.27,265.902,410.682,266.061,409.014,266.061z M411.635,209.707h-6.791v15.607h6.791
	V209.707z"/>
<path d="M437.085,232.82l0.477-1.43c14.773,0.398,22.16,5.004,22.16,13.82c0,5.879-2.979,8.816-8.936,8.816
	c-4.449,0-6.871-2.621-7.268-7.863C443.12,239.414,440.976,234.965,437.085,232.82z M463.058,290.842
	c0.953,5.32,1.43,9.055,1.43,11.199c0,5.719-2.939,8.578-8.816,8.578c-5.48,0-8.221-2.383-8.221-7.148
	c0-1.352,0.277-3.615,0.834-6.791c0.555-3.098,0.834-5.32,0.834-6.672c0-4.686-3.654-7.982-10.961-9.889l0.238-2.025
	c1.191,0.08,2.461,0.119,3.812,0.119c5.797,0,9.49-2.104,11.08-6.314l20.016-44.201l1.906,0.834l-11.676,46.346
	c-0.875,4.051-1.311,7.148-1.311,9.293C462.224,285.76,462.501,287.982,463.058,290.842z M447.45,203.75l0.477-1.549
	c0.078,0,0.238,0,0.477,0c15.408,0,23.113,4.369,23.113,13.105c0,6.037-3.178,9.055-9.531,9.055c-4.051,0-6.434-2.502-7.148-7.506
	C453.962,209.945,451.501,205.578,447.45,203.75z M549.077,294.535l-0.357,1.906c-3.258,1.43-5.203,4.963-5.838,10.604
	c-0.318,2.859-1.191,4.289-2.621,4.289c-2.383,0-7.229-1.629-14.535-4.885c-7.229-3.258-12.867-6.752-16.918-10.484
	c-11.279,8.895-26.133,14.217-44.559,15.965l-0.953-2.145c14.613-4.527,26.926-11.795,36.934-21.803
	c-7.387-8.26-12.551-17.354-15.488-27.283c-5.004,0-8.539,0.238-10.604,0.715l-2.383-5.361c4.924,0.875,10.961,1.311,18.109,1.311
	h29.547c4.686-3.891,7.387-5.838,8.102-5.838c0.953,0,3.295,1.471,7.029,4.408c3.732,2.939,5.6,4.965,5.6,6.076
	c0,1.191-1.191,2.066-3.574,2.621c-0.953,0.238-1.668,0.715-2.145,1.43c-5.322,9.215-10.564,16.283-15.727,21.207
	C526.479,291.795,536.606,294.217,549.077,294.535z M524.892,218.523h-24.424c-2.701,7.467-6.871,14.377-12.51,20.73
	c-5.641,6.355-10.922,10.684-15.846,12.986l-1.43-1.311c3.812-5.877,7.545-13.979,11.199-24.305
	c3.652-10.324,5.639-19.182,5.957-26.568c13.344,2.781,20.016,4.766,20.016,5.957c0,0.557-0.438,1.033-1.311,1.43
	c-1.906,0.715-2.859,1.191-2.859,1.43c-0.637,2.383-1.352,4.568-2.145,6.553h22.398c5.004-3.971,7.783-5.957,8.34-5.957
	c0.873,0,3.018,1.232,6.434,3.693c3.414,2.383,5.123,4.092,5.123,5.123c0,0.715-0.279,1.232-0.834,1.549
	c-2.463,1.352-3.693,2.105-3.693,2.264c-2.859,19.461-10.365,29.189-22.518,29.189c-1.43,0-2.225-1.031-2.383-3.098
	c-0.318-2.699-1.033-4.725-2.145-6.076c-1.191-1.27-4.926-3.098-11.199-5.48l0.477-1.906c6.354,0.953,10.762,1.43,13.225,1.43
	c3.494,0,5.877-1.906,7.148-5.719C523.104,226.625,524.097,222.654,524.892,218.523z M487.362,260.58
	c4.289,7.625,10.842,14.496,19.658,20.611c5.4-5.48,9.889-12.35,13.463-20.611H487.362z"/>
<path d="M639.978,282.74c6.035-7.068,9.412-10.604,10.127-10.604c1.031,0,3.494,1.828,7.387,5.48
	c3.891,3.654,5.838,5.879,5.838,6.672c0,0.953-0.357,1.43-1.072,1.43H616.03v6.672c0,1.508,0.158,6.83,0.477,15.965
	c0,2.383-3.973,3.574-11.914,3.574c-3.178,0-4.766-0.875-4.766-2.621c0.238-8.816,0.357-15.211,0.357-19.182v-4.408h-25.973
	c-2.305,0-4.885,0.041-7.744,0.119c-0.557,0-0.994,0-1.311,0c-3.973,0.08-7.428,0.238-10.365,0.477l-2.383-4.885
	c6.195,0.795,14.098,1.191,23.709,1.191h24.066v-0.834c0-3.652-0.318-7.426-0.953-11.318c14.693,1.986,22.041,3.693,22.041,5.123
	c0,0.715-0.438,1.232-1.311,1.549c-2.621,0.953-3.932,1.668-3.932,2.145v3.336L639.978,282.74z M553.601,220.668
	c13.105,0,19.658,3.574,19.658,10.723c0,5.641-2.82,8.459-8.459,8.459c-3.336,0-5.203-2.184-5.6-6.553
	c-0.318-5.162-2.424-8.936-6.314-11.318L553.601,220.668z M579.216,258.912c1.111,3.973,1.668,6.791,1.668,8.459
	c0,4.369-2.662,6.553-7.982,6.553c-5.402,0-8.102-2.025-8.102-6.076c0-1.35,0.396-3.732,1.191-7.148
	c0.316-1.191,0.477-2.303,0.477-3.336c0-3.652-3.654-6.512-10.961-8.578l0.238-2.025c1.43,0.08,3.176,0.119,5.242,0.119
	c0.793,0,1.588,0,2.383,0c3.971-0.078,6.949-1.787,8.936-5.123l17.752-27.998l1.668,0.715l-12.033,31.572
	c-0.953,2.621-1.43,4.885-1.43,6.791C578.263,254.584,578.579,256.609,579.216,258.912z M563.489,203.154l0.715-1.549
	c0.078,0,0.277,0,0.596,0c13.264,0,19.896,3.496,19.896,10.484c0,5.402-2.662,8.102-7.982,8.102c-3.178,0-5.123-2.104-5.838-6.314
	C569.843,208.557,567.38,204.982,563.489,203.154z M649.032,208.039c0.793,0,2.818,1.629,6.076,4.885
	c3.256,3.178,4.885,5.123,4.885,5.838c0,0.795-0.318,1.191-0.953,1.191h-23.471v10.961h2.859c3.891-5.32,6.154-7.982,6.791-7.982
	c0.873,0,2.818,1.43,5.838,4.289c3.098,2.859,4.646,4.607,4.646,5.242c0,0.875-0.398,1.311-1.191,1.311H635.45v11.795h2.979
	c3.891-5.32,6.154-7.982,6.791-7.982c0.873,0,2.818,1.43,5.838,4.289c3.098,2.859,4.646,4.607,4.646,5.242
	c0,0.795-0.398,1.191-1.191,1.191h-19.182v13.463h7.148c4.766-6.035,7.506-9.055,8.221-9.055c0.873,0,2.938,1.629,6.195,4.885
	c3.256,3.258,4.885,5.203,4.885,5.838c0,0.875-0.357,1.311-1.072,1.311h-51.469v2.025c0,2.066-3.654,3.098-10.961,3.098
	c-2.781,0-4.17-0.754-4.17-2.264c0.396-11.277,0.596-18.387,0.596-21.326v-10.961c-3.574,4.369-7.428,7.982-11.557,10.842
	l-1.311-1.43c10.166-13.025,15.727-27.957,16.68-44.797c13.422,3.098,20.135,5.242,20.135,6.434c0,1.033-1.152,1.668-3.455,1.906
	c-0.953,0.08-1.471,0.238-1.549,0.477c-0.953,2.781-2.145,5.441-3.574,7.982h30.023
	C645.101,210.701,648.079,207.801,649.032,208.039z M609.716,230.914h11.914v-10.961h-11.914V230.914z M609.716,245.688h11.914
	v-11.795h-11.914V245.688z M609.716,262.01h11.914v-13.344h-11.914V262.01z M617.579,201.725l0.357-1.43
	c1.111-0.078,2.502-0.119,4.17-0.119c11.119,0,16.68,3.059,16.68,9.174c0,4.846-2.463,7.268-7.387,7.268
	c-3.02,0-5.045-1.826-6.076-5.48C624.052,206.531,621.47,203.393,617.579,201.725z"/>
<path d="M696.018,285.6c0,2.066,0.158,9.77,0.477,23.113c0,2.303-3.734,3.455-11.199,3.455c-2.781,0-4.17-0.834-4.17-2.502
	c0.238-11.598,0.357-20.57,0.357-26.926v-30.023c-3.098,4.211-6.791,7.547-11.08,10.008l-1.311-1.191
	c10.562-17.076,16.996-37.607,19.301-61.596c13.344,2.305,20.016,4.051,20.016,5.242c0,0.795-0.477,1.391-1.43,1.787
	c-2.543,1.113-3.854,1.748-3.932,1.906c-2.066,8.102-4.727,15.926-7.982,23.471c3.098,1.191,4.646,2.225,4.646,3.098
	c0,0.715-0.238,1.152-0.715,1.311c-1.986,0.715-2.979,1.391-2.979,2.025V285.6z M748.439,307.045c0,2.303-3.258,3.455-9.77,3.455
	c-2.859,0-4.289-0.875-4.289-2.621c0.238-9.531,0.357-16.281,0.357-20.254c0-0.793,0-1.311,0-1.549h-10.484v3.812
	c0,1.271,0.119,7.584,0.357,18.943c0,2.145-3.574,3.217-10.723,3.217c-3.02,0-4.527-0.756-4.527-2.264
	c0.238-12.312,0.357-19.697,0.357-22.16v-16.68c-1.986,2.145-5.799,5.283-11.438,9.412l-1.43-1.311
	c9.451-15.09,14.893-28.275,16.322-39.555c-1.748,0.08-3.535,0.16-5.361,0.238c-2.701,0.08-4.646,0.279-5.838,0.596l-2.025-5.123
	c5.082,0.875,10.365,1.311,15.846,1.311h1.668v-15.369c-4.449,0-8.777,0.238-12.986,0.715l-1.906-4.885
	c5.242,0.875,10.205,1.311,14.893,1.311c0-0.316,0-0.793,0-1.43c0-7.387-0.357-12.867-1.072-16.441
	c13.025,1.748,19.539,3.178,19.539,4.289c0,0.715-0.398,1.232-1.191,1.549c-1.986,0.875-2.979,1.51-2.979,1.906v10.127h11.318
	c0-0.316,0-0.793,0-1.43c0-7.387-0.398-12.867-1.191-16.441c13.025,1.748,19.539,3.178,19.539,4.289
	c0,0.715-0.398,1.232-1.191,1.549c-1.986,0.875-2.979,1.51-2.979,1.906v10.127h1.787c3.891-6.273,6.354-9.412,7.387-9.412
	c0.715,0,2.779,1.668,6.195,5.004c3.414,3.336,5.123,5.361,5.123,6.076c0,0.795-0.438,1.191-1.311,1.191h-19.182v15.369h4.17
	c4.527-6.592,7.148-9.889,7.863-9.889c0.793,0,2.938,1.748,6.434,5.242c3.494,3.496,5.242,5.6,5.242,6.314
	c0,0.875-0.357,1.311-1.072,1.311h-51.23c-1.033,3.973-2.264,7.467-3.693,10.484h33.359c3.574-4.924,5.797-7.387,6.672-7.387
	c1.191,0,3.574,1.43,7.148,4.289s5.361,4.766,5.361,5.719c0,0.795-0.238,1.352-0.715,1.668c-1.828,1.43-2.74,2.305-2.74,2.621
	v39.555c0,5.48-1.906,9.293-5.719,11.438c-3.734,2.223-7.348,3.336-10.842,3.336c-1.271,0-1.986-0.557-2.145-1.668
	c-1.191-6.275-3.574-10.127-7.148-11.557C748.201,301.881,748.279,304.9,748.439,307.045z M734.738,266.299v-13.463h-10.484v13.463
	H734.738z M734.738,269.277h-10.484v13.82h10.484V269.277z M743.078,221.145H731.76v15.369h11.318V221.145z M747.963,252.836v13.463
	h11.914v-13.463H747.963z M747.963,269.277v13.82h11.914v-13.82H747.963z M748.201,295.131c1.35,0.158,3.574,0.238,6.672,0.238
	c0.793,0,1.627,0,2.502,0c1.668,0,2.502-0.875,2.502-2.621v-6.672h-11.914L748.201,295.131z"/>
<path d="M870.3,210.422c5.957-4.209,9.293-6.314,10.008-6.314c0.873,0,3.217,1.51,7.029,4.527c3.891,3.02,5.838,5.004,5.838,5.957
	c0,1.113-1.59,1.947-4.766,2.502c-1.191,0.16-1.828,0.279-1.906,0.357c-6.832,6.275-14.1,10.883-21.803,13.82
	c4.527,0,6.791,0.914,6.791,2.74c0,0.715-0.398,1.271-1.191,1.668c-2.383,1.191-3.574,1.947-3.574,2.264v14.416h5.004
	c5.32-7.227,8.537-10.842,9.65-10.842c0.873,0,3.375,1.947,7.506,5.838c4.129,3.893,6.195,6.236,6.195,7.029
	c0,0.875-0.357,1.311-1.072,1.311h-27.402v40.627c0,7.625-5.283,12.588-15.846,14.893h-0.119c-0.875,0.238-1.59,0.357-2.145,0.357
	c-1.352,0-2.145-0.596-2.383-1.787c-0.637-4.607-1.43-7.705-2.383-9.293c-0.953-1.668-4.012-3.098-9.174-4.289l0.357-2.383
	c3.891,0.316,7.744,0.477,11.557,0.477c0.873,0,1.627,0,2.264,0c1.588,0,2.383-0.875,2.383-2.621v-35.861h-22.279
	c-2.145,7.705-4.527,14.416-7.148,20.135c8.18,3.654,12.271,8.578,12.271,14.773c0,6.354-2.82,9.531-8.459,9.531
	c-3.496,0-5.641-1.709-6.434-5.123c-0.715-3.176-1.828-5.758-3.336-7.744c-6.117,10.246-16.006,18.148-29.666,23.709l-1.191-1.43
	c10.723-9.453,18.229-20.57,22.518-33.359c-1.748-2.461-3.496-4.328-5.242-5.6l-0.715,2.859c-0.557,2.145-3.496,3.217-8.816,3.217
	c-4.688,0-7.029-0.834-7.029-2.502c0-0.238,0.039-0.516,0.119-0.834c1.588-4.129,2.502-6.631,2.74-7.506
	c3.971-13.74,7.029-25.615,9.174-35.623c-0.16,0-0.398,0-0.715,0c-2.066,0-5.322,0.238-9.77,0.715l-2.145-4.646
	c4.367,0.557,8.379,0.834,12.033,0.834c0.477,0,0.834,0,1.072,0c1.906-9.77,2.859-18.229,2.859-25.377c0-0.477,0-0.834,0-1.072
	c12.707,1.986,19.062,3.535,19.062,4.646c0,0.795-0.477,1.311-1.43,1.549c-1.986,0.715-3.02,1.311-3.098,1.787
	c-1.113,7.625-2.186,13.781-3.217,18.467h5.48c4.527-3.812,7.068-5.719,7.625-5.719c1.031,0,3.176,1.271,6.434,3.812
	c3.176,2.543,4.766,4.25,4.766,5.123c0,0.795-0.676,1.748-2.025,2.859c-0.953,0.795-1.471,1.352-1.549,1.668
	c-0.795,6.434-1.906,12.232-3.336,17.395h21.445v-5.838c0-8.102-0.318-14.059-0.953-17.871l11.318,1.906
	c3.652-4.766,6.75-10.443,9.293-17.037h-20.016c-9.135,0-15.846,0.279-20.135,0.834l-2.383-5.242
	c5.004,0.795,13.145,1.191,24.424,1.191L870.3,210.422z M818.831,230.438h-7.148c-2.305,12.074-5.203,24.662-8.697,37.768
	c2.303,0.715,4.447,1.549,6.434,2.502C813.866,260.383,817.003,246.959,818.831,230.438z"/>
<path d="M938,260.104c0,4.449,0.119,11.676,0.357,21.684c0,2.543-3.535,3.812-10.604,3.812c-2.305,0-3.455-0.715-3.455-2.145
	l0.119-7.148h-7.506l0.119,8.936c0,2.463-3.416,3.693-10.246,3.693c-2.543,0-3.812-0.793-3.812-2.383
	c0.316-9.451,0.477-16.838,0.477-22.16v-36.1c0-7.307-0.238-13.145-0.715-17.514c2.383,0.715,4.885,1.59,7.506,2.621
	c2.779,1.033,5.281,1.867,7.506,2.502h5.957c3.891-3.732,6.154-5.6,6.791-5.6c0.873,0,2.898,1.152,6.076,3.455
	c3.176,2.225,4.766,3.854,4.766,4.885c0,0.637-0.199,1.072-0.596,1.311c-1.906,1.271-2.859,2.383-2.859,3.336L938,260.104z
	 M924.418,219h-7.506v54.328h7.506V219z M943.48,278.57l1.787-0.119c1.27,4.926,1.906,9.73,1.906,14.416
	c0,9.055-3.416,13.582-10.246,13.582c-4.766,0-7.148-1.986-7.148-5.957c0-2.781,1.072-4.688,3.217-5.719
	C939.588,291.438,943.082,286.037,943.48,278.57z M981.844,247.236v15.607h9.412c4.367-5.004,6.91-7.506,7.625-7.506
	c0.953,0,3.217,1.43,6.791,4.289s5.361,4.766,5.361,5.719c0,0.795-0.318,1.391-0.953,1.787c-2.066,1.271-3.178,3.098-3.336,5.48
	c-1.59,17.236-4.211,28.037-7.863,32.406c-3.734,4.289-8.102,6.434-13.105,6.434c-1.906,0-2.859-1.113-2.859-3.336
	c0-6.434-3.812-10.764-11.438-12.986l0.596-2.264c5.877,0.793,10.365,1.191,13.463,1.191c2.699,0,4.527-2.979,5.48-8.936
	c0.953-6.035,1.469-12.51,1.549-19.42h-34.193v2.502c0,2.383-3.377,3.574-10.127,3.574c-3.336,0-5.004-0.793-5.004-2.383v-0.119
	c0.316-10.166,0.477-17.949,0.477-23.352v-19.658c0-8.736-0.318-16.123-0.953-22.16c3.494,0.875,8.975,2.582,16.441,5.123h29.189
	c4.367-6.195,6.988-9.293,7.863-9.293c0.953,0,3.098,1.59,6.434,4.766c3.336,3.178,5.004,5.164,5.004,5.957
	c0,0.953-0.477,1.43-1.43,1.43h-24.424v13.939h1.668c4.289-6.195,6.83-9.293,7.625-9.293c0.793,0,2.859,1.629,6.195,4.885
	c3.336,3.258,5.004,5.242,5.004,5.957c0,0.953-0.518,1.43-1.549,1.43h-19.062V243.9h1.668c4.289-6.195,6.83-9.293,7.625-9.293
	c0.793,0,2.859,1.629,6.195,4.885c3.336,3.258,5.004,5.203,5.004,5.838c0,0.953-0.518,1.43-1.549,1.43L981.844,247.236z
	 M951.225,277.021l1.43-0.715c7.227,4.527,10.842,9.65,10.842,15.369c0,5.639-2.662,8.459-7.982,8.459
	c-3.178,0-4.766-1.471-4.766-4.408c0-1.271,0.277-2.82,0.834-4.646c0.555-1.826,0.834-3.771,0.834-5.838
	C952.416,282.225,952.018,279.484,951.225,277.021z M958.373,212.328v13.939h9.293v-13.939H958.373z M958.373,229.365v14.893h9.293
	v-14.893H958.373z M958.373,247.236v15.607h9.293v-15.607H958.373z M962.781,273.328l1.43-0.953
	c8.578,2.383,12.867,6.553,12.867,12.51c0,4.688-2.424,7.029-7.268,7.029c-2.621,0-3.932-1.707-3.932-5.123c0-0.396,0-0.834,0-1.311
	c0-0.396,0-0.834,0-1.311C965.879,279.723,964.846,276.109,962.781,273.328z M975.41,270.588l1.191-1.191
	c9.293,1.43,13.939,4.965,13.939,10.604c0,4.449-2.066,6.672-6.195,6.672c-2.543,0-3.893-1.826-4.051-5.48
	C980.057,276.744,978.428,273.209,975.41,270.588z"/>
<path d="M1046.468,272.613c-0.08-3.018-0.119-5.201-0.119-6.553c0-6.91,1.668-12.629,5.004-17.156l3.812-5.123
	c2.541-3.414,3.812-8.021,3.812-13.82c0-10.086-3.574-15.131-10.723-15.131c-5.164,0-7.744,1.787-7.744,5.361
	c0,0.715,0.197,1.471,0.596,2.264l0.953,0.834c2.541,1.906,3.812,4.092,3.812,6.553c0,5.879-3.098,8.816-9.293,8.816
	c-6.752,0-10.127-3.852-10.127-11.557c0-5.082,2.223-9.213,6.672-12.391c4.527-3.176,10.762-4.766,18.705-4.766
	c6.83,0,12.826,1.986,17.99,5.957c5.082,3.973,7.625,8.857,7.625,14.654c0,6.434-4.846,13.662-14.535,21.684
	c-4.449,3.812-7.387,6.832-8.816,9.055c-1.352,2.225-2.025,6.037-2.025,11.438L1046.468,272.613z M1039.438,291.08
	c0-6.354,3.137-9.531,9.412-9.531c6.434,0,9.65,3.178,9.65,9.531s-3.217,9.531-9.65,9.531
	C1042.575,300.611,1039.438,297.434,1039.438,291.08z"/>
</svg>
