<?xml version="1.0" encoding="utf-8"?>
<!-- Generator: Adobe Illustrator 17.0.0, SVG Export Plug-In . SVG Version: 6.00 Build 0)  -->
<!DOCTYPE svg PUBLIC "-//W3C//DTD SVG 1.1//EN" "http://www.w3.org/Graphics/SVG/1.1/DTD/svg11.dtd">
<svg version="1.1" id="Layer_1" xmlns="http://www.w3.org/2000/svg" xmlns:xlink="http://www.w3.org/1999/xlink" x="0px" y="0px"
	 width="30px" height="30px" viewBox="0 0 30 30" enable-background="new 0 0 30 30" xml:space="preserve">
<g>
	<path d="M27,16.5H2.417c-0.829,0-1.5-0.671-1.5-1.5s0.671-1.5,1.5-1.5H27c0.828,0,1.5,0.671,1.5,1.5S27.828,16.5,27,16.5z"/>
</g>
<g>
	<path d="M17,27.106c-0.384,0-0.768-0.146-1.061-0.439c-0.586-0.586-0.586-1.535,0-2.121L25.485,15l-9.546-9.546
		c-0.586-0.585-0.586-1.536,0-2.121c0.586-0.586,1.535-0.586,2.121,0l10.606,10.606c0.586,0.585,0.586,1.536,0,2.121L18.061,26.667
		C17.768,26.96,17.384,27.106,17,27.106z"/>
</g>
</svg>
