<?xml version="1.0" standalone="no"?>
<!DOCTYPE svg PUBLIC "-//W3C//DTD SVG 1.1//EN" "http://www.w3.org/Graphics/SVG/1.1/DTD/svg11.dtd">
<svg width="100%" height="100%" viewBox="0 0 1200 500" version="1.1" xmlns="http://www.w3.org/2000/svg" xmlns:xlink="http://www.w3.org/1999/xlink" xml:space="preserve" style="fill-rule:evenodd;clip-rule:evenodd;stroke-linejoin:round;stroke-miterlimit:1.41421;">
    <g transform="matrix(-0.999367,0.0355769,-0.0355769,-0.999367,1025.76,1604.47)">
        <path d="M822.516,1368.08L812.464,1393.12L686.667,1429.38L701.828,1493.63L943.5,1434.67L935.302,1370.16L838.914,1389.59L822.516,1368.08Z" style="fill:rgb(187,184,26);fill-opacity:0.301961;stroke-width:4.5px;stroke:rgb(255,254,0);"/>
    </g>
    <g transform="matrix(1,0,0,1,-653.092,-784.012)">
        <path d="M757.066,1166.62L747.426,1166.62L747.426,1164.98L755.026,1164.98L755.026,1162.02L747.426,1162.02L747.426,1160.5L756.266,1160.5L756.266,1157.34L751.946,1157.34C752.546,1156.54 753.226,1155.62 753.826,1154.7L749.666,1153.66C749.346,1154.74 748.546,1156.22 747.866,1157.34L742.946,1157.34C742.506,1156.3 741.546,1154.78 740.666,1153.66L737.306,1154.86C737.826,1155.58 738.386,1156.5 738.826,1157.34L734.466,1157.34L734.466,1160.5L742.866,1160.5L742.866,1162.02L735.746,1162.02L735.746,1164.98L742.866,1164.98L742.866,1166.62L733.226,1166.62L733.226,1170.02L757.106,1170.02L757.066,1166.62ZM733.226,1160.34L726.506,1160.34L729.426,1159.14C729.066,1157.78 728.066,1155.46 727.146,1153.82L723.746,1155.06C724.586,1156.7 725.386,1158.86 725.746,1160.34L720.186,1160.34L720.186,1164.06L733.226,1164.06L733.226,1160.34ZM728.746,1180.46L728.746,1185.18L724.786,1185.18L724.786,1180.46L728.746,1180.46ZM732.146,1176.82L721.426,1176.82L721.426,1190.5L724.786,1190.5L724.786,1188.82L732.146,1188.82L732.146,1176.82ZM721.586,1174.86L732.226,1174.86L732.226,1171.3L721.586,1171.3L721.586,1174.86ZM721.586,1169.46L732.226,1169.46L732.226,1165.86L721.586,1165.86L721.586,1169.46ZM742.266,1176.14L742.266,1173.86C743.506,1173.66 744.626,1173.38 745.666,1173.1C745.706,1174.18 745.746,1175.14 745.826,1176.14L742.266,1176.14ZM752.426,1180.06C751.946,1180.94 751.266,1181.74 750.546,1182.54C750.346,1181.66 750.146,1180.7 750.026,1179.58L757.026,1179.58L757.026,1176.14L754.186,1176.14L756.786,1174.3C755.986,1173.14 754.186,1171.62 752.706,1170.62L749.986,1172.46C751.386,1173.5 752.986,1174.98 753.786,1176.14L749.666,1176.14C749.586,1174.54 749.546,1172.74 749.546,1170.86L745.586,1170.86C745.586,1171.58 745.626,1172.34 745.666,1173.1L743.226,1170.3C740.866,1171.06 736.866,1171.66 733.506,1171.98C733.866,1172.74 734.306,1173.94 734.426,1174.74C735.626,1174.66 736.866,1174.58 738.146,1174.42L738.146,1176.14L733.146,1176.14L733.146,1179.58L738.146,1179.58L738.146,1181.5C736.186,1181.7 734.426,1181.86 732.906,1181.98L733.346,1185.62C734.826,1185.46 736.426,1185.26 738.146,1185.06L738.146,1187.1C738.146,1187.54 737.986,1187.66 737.506,1187.7C737.066,1187.7 735.546,1187.7 734.186,1187.66C734.666,1188.62 735.186,1190.02 735.346,1191.02C737.706,1191.02 739.426,1190.98 740.666,1190.46C741.906,1189.9 742.266,1189.06 742.266,1187.22L742.266,1184.54L745.546,1184.14L745.466,1180.78L742.266,1181.1L742.266,1179.58L746.146,1179.58C746.426,1181.78 746.826,1183.66 747.346,1185.34C745.746,1186.42 744.026,1187.38 742.346,1188.06C743.106,1188.7 744.106,1189.82 744.586,1190.54C745.946,1189.94 747.346,1189.22 748.666,1188.34C749.826,1190.14 751.386,1191.18 753.426,1191.18C755.866,1191.18 757.146,1189.78 757.706,1185.94C756.866,1185.58 755.746,1185.02 754.986,1184.3C754.866,1186.46 754.466,1187.5 753.866,1187.5C753.066,1187.5 752.386,1186.98 751.786,1185.98C753.306,1184.7 754.626,1183.22 755.626,1181.62L752.426,1180.06Z" style="fill:black;fill-rule:nonzero;"/>
        <path d="M791.146,1165.86L783.866,1165.86L783.866,1164.02L791.146,1164.02L791.146,1165.86ZM791.146,1170.78L783.866,1170.78L783.866,1168.94L791.146,1168.94L791.146,1170.78ZM791.146,1175.74L783.866,1175.74L783.866,1173.82L791.146,1173.82L791.146,1175.74ZM779.626,1160.82L779.626,1178.98L795.546,1178.98L795.546,1160.82L788.746,1160.82L789.706,1158.66L796.706,1158.66L796.706,1155.34L778.386,1155.34L778.386,1158.66L785.426,1158.66C785.186,1159.38 784.986,1160.14 784.746,1160.82L779.626,1160.82ZM788.466,1180.74C790.466,1182.14 792.946,1184.5 794.186,1186.06L797.586,1184.06C796.346,1182.54 793.866,1180.42 791.746,1179.02L788.466,1180.74ZM782.866,1179.26C781.466,1180.94 779.066,1182.5 776.706,1183.58C777.546,1184.22 779.066,1185.58 779.746,1186.34C782.226,1185.02 785.026,1182.74 786.746,1180.5L782.866,1179.26ZM772.386,1160.26L766.666,1160.26L766.666,1158.38L772.386,1158.38L772.386,1160.26ZM772.386,1165.22L766.666,1165.22L766.666,1163.26L772.386,1163.26L772.386,1165.22ZM776.786,1155.22L762.426,1155.22L762.426,1168.42L776.786,1168.42L776.786,1155.22ZM772.026,1180.86L777.786,1180.86L777.786,1177.42L772.026,1177.42L772.026,1174.14L778.546,1174.14L778.546,1170.7L760.626,1170.7L760.626,1174.14L768.026,1174.14L768.026,1183.26C767.226,1182.42 766.546,1181.38 765.986,1180.1C766.106,1178.66 766.186,1177.22 766.226,1175.74L762.426,1175.74C762.306,1180.54 761.906,1185.26 759.666,1188.02C760.626,1188.74 761.826,1190.26 762.426,1191.26C763.786,1189.62 764.666,1187.5 765.226,1185.1C768.426,1189.46 773.386,1190.22 780.906,1190.22L796.306,1190.22C796.546,1189.06 797.186,1187.22 797.826,1186.3C794.546,1186.46 783.626,1186.46 780.906,1186.46C777.346,1186.46 774.426,1186.3 772.026,1185.58L772.026,1180.86Z" style="fill:black;fill-rule:nonzero;"/>
        <path d="M816.106,1175.98L810.306,1177.3L810.306,1162.94L815.666,1162.94L815.666,1158.38L800.506,1158.38L800.506,1162.94L805.586,1162.94L805.586,1178.34C803.426,1178.82 801.426,1179.26 799.826,1179.58L800.946,1184.5C805.346,1183.3 811.186,1181.7 816.586,1180.22L816.106,1175.98ZM829.426,1165.3C828.586,1169.58 827.346,1173.14 825.546,1176.1C823.786,1172.94 822.466,1169.3 821.586,1165.3L829.426,1165.3ZM837.346,1165.3L837.346,1160.74L823.026,1160.74C823.706,1158.74 824.306,1156.62 824.826,1154.54L820.146,1153.58C818.626,1160.34 815.906,1167.02 812.266,1171.02C813.426,1171.62 815.466,1173.06 816.346,1173.86C817.066,1172.94 817.746,1171.94 818.386,1170.9C819.466,1174.34 820.746,1177.46 822.386,1180.22C819.506,1183.14 815.746,1185.22 810.866,1186.7C811.706,1187.74 812.986,1189.94 813.386,1191.06C818.226,1189.38 822.106,1187.1 825.186,1184.18C827.706,1187.1 830.786,1189.42 834.706,1191.06C835.466,1189.74 836.906,1187.74 837.986,1186.78C834.066,1185.38 830.986,1183.14 828.466,1180.3C831.306,1176.34 833.186,1171.38 834.426,1165.3L837.346,1165.3Z" style="fill:black;fill-rule:nonzero;"/>
        <path d="M860.386,1171.66C860.306,1177.58 860.186,1179.7 859.826,1180.3C859.546,1180.66 859.266,1180.78 858.826,1180.78C858.386,1180.78 857.626,1180.78 856.626,1180.66C857.106,1177.82 857.226,1174.94 857.226,1172.46L857.226,1171.66L860.386,1171.66ZM872.666,1167.46C872.066,1170.18 871.306,1172.74 870.306,1175.06C869.866,1171.66 869.586,1167.7 869.386,1163.5L877.026,1163.5L877.026,1159.18L874.826,1159.18L876.506,1158.14C875.786,1156.82 874.106,1154.86 872.626,1153.46L869.386,1155.38C870.466,1156.5 871.626,1157.94 872.426,1159.18L869.306,1159.18C869.266,1157.34 869.266,1155.5 869.306,1153.62L864.826,1153.62C864.826,1155.46 864.866,1157.3 864.906,1159.18L852.866,1159.18L852.866,1172.46C852.866,1174.9 852.786,1177.74 852.226,1180.42L851.666,1177.5L848.586,1178.58L848.586,1167.54L851.706,1167.54L851.706,1163.14L848.586,1163.14L848.586,1154.18L844.186,1154.18L844.186,1163.14L840.706,1163.14L840.706,1167.54L844.186,1167.54L844.186,1180.14C842.626,1180.66 841.226,1181.14 840.026,1181.46L841.546,1186.22C844.586,1184.98 848.346,1183.42 851.866,1181.98C851.306,1184.22 850.266,1186.42 848.666,1188.22C849.666,1188.82 851.466,1190.34 852.106,1191.14C854.666,1188.38 855.946,1184.62 856.586,1180.78C857.146,1181.78 857.466,1183.34 857.586,1184.54C858.946,1184.58 860.226,1184.54 861.026,1184.38C861.986,1184.22 862.586,1183.86 863.226,1182.98C864.026,1181.9 864.186,1178.34 864.306,1169.42C864.346,1168.9 864.346,1167.82 864.346,1167.82L857.226,1167.82L857.226,1163.5L865.026,1163.5C865.306,1170.06 865.866,1176.3 866.906,1181.14C864.866,1183.9 862.426,1186.14 859.466,1187.9C860.466,1188.58 862.146,1190.26 862.786,1191.06C864.866,1189.66 866.746,1188.02 868.386,1186.1C869.546,1188.86 871.066,1190.54 873.026,1190.54C876.106,1190.54 877.346,1188.82 877.946,1182.66C876.866,1182.22 875.506,1181.18 874.626,1180.18C874.506,1184.26 874.186,1186.14 873.586,1186.14C872.826,1186.14 872.106,1184.62 871.466,1181.98C873.906,1178.14 875.666,1173.5 876.946,1168.26L872.666,1167.46Z" style="fill:black;fill-rule:nonzero;"/>
        <path d="M917.146,1160.94C916.546,1159.06 914.746,1156.3 913.186,1154.22L909.586,1156.1C911.106,1158.22 912.706,1161.18 913.346,1163.02L917.146,1160.94ZM897.106,1160.26L894.986,1160.26L894.986,1157.66L897.106,1157.66L897.106,1160.26ZM900.666,1154.7L891.626,1154.7L891.626,1163.26L900.666,1163.26L900.666,1154.7ZM886.666,1160.26L884.586,1160.26L884.586,1157.66L886.666,1157.66L886.666,1160.26ZM890.146,1154.7L881.186,1154.7L881.186,1163.26L890.146,1163.26L890.146,1154.7ZM885.506,1173.62L888.826,1173.62L888.826,1175.78L885.506,1175.78L885.506,1173.62ZM885.506,1168.26L888.826,1168.26L888.826,1170.34L885.506,1170.34L885.506,1168.26ZM896.226,1170.34L892.826,1170.34L892.826,1168.26L896.226,1168.26L896.226,1170.34ZM896.226,1175.78L892.826,1175.78L892.826,1173.62L896.226,1173.62L896.226,1175.78ZM901.346,1185.42L901.346,1181.26L893.066,1181.26L893.066,1179.26L900.346,1179.26L900.346,1164.78L881.586,1164.78L881.586,1179.26L888.546,1179.26L888.546,1181.26L880.026,1181.26L880.026,1185.42L888.546,1185.42L888.546,1191.02L893.066,1191.02L893.066,1185.42L901.346,1185.42ZM913.026,1168.86C912.266,1171.3 911.186,1173.74 909.866,1176.02C909.546,1173.86 909.266,1171.42 909.026,1168.78L917.666,1167.7L917.186,1163.34L908.666,1164.38C908.466,1161.1 908.346,1157.54 908.306,1153.9L903.786,1153.9C903.866,1157.82 904.026,1161.5 904.226,1164.9L900.746,1165.34L901.226,1169.74L904.546,1169.34C904.946,1173.86 905.506,1177.82 906.266,1181.06C903.946,1183.7 901.226,1185.9 898.226,1187.3C899.466,1188.18 900.866,1189.54 901.666,1190.62C903.866,1189.38 905.906,1187.78 907.746,1185.86C909.106,1189.1 910.946,1190.94 913.346,1191.06C915.066,1191.1 917.106,1189.54 918.106,1182.58C917.346,1182.14 915.426,1180.94 914.666,1179.9C914.466,1183.5 914.026,1185.38 913.386,1185.38C912.546,1185.3 911.786,1184.02 911.106,1181.78C913.466,1178.46 915.386,1174.7 916.626,1170.86L913.026,1168.86Z" style="fill:black;fill-rule:nonzero;"/>
    </g>
    <g transform="matrix(1.91485,0,0,1.91485,129.807,282.285)">
        <g transform="matrix(1.65937,0,0,1.65937,-0.659366,-0.659366)">
            <rect x="1" y="13.75" width="22" height="10" style="fill:none;stroke-width:1.57px;stroke-linecap:round;stroke-miterlimit:10;stroke:black;"/>
        </g>
        <g transform="matrix(1.65937,0,0,1.65937,-0.659366,-0.659366)">
            <rect x="1" y="9.75" width="4" height="14" style="fill:none;stroke-width:1.57px;stroke-linecap:round;stroke-miterlimit:10;stroke:black;"/>
        </g>
        <g transform="matrix(1.65937,0,0,1.65937,-0.659366,-0.659366)">
            <rect x="19" y="9.75" width="4" height="14" style="fill:none;stroke-width:1.57px;stroke-linecap:round;stroke-miterlimit:10;stroke:black;"/>
        </g>
        <g transform="matrix(1.65937,0,0,1.65937,-0.659366,-0.659366)">
            <rect x="9" y="18.75" width="6" height="5" style="fill:none;stroke-width:1.57px;stroke-linecap:round;stroke-miterlimit:10;stroke:black;"/>
        </g>
        <g transform="matrix(1.65937,0,0,1.65937,-0.659366,-0.659366)">
            <rect x="10" y="5.75" width="4" height="8" style="fill:none;stroke-width:1.57px;stroke-linecap:round;stroke-miterlimit:10;stroke:black;"/>
        </g>
        <g transform="matrix(1.65937,0,0,1.65937,-0.659366,-0.659366)">
            <path d="M10,5.75L12,1.25L14,5.75L10,5.75Z" style="fill:none;stroke-width:1.57px;stroke-linecap:round;stroke-miterlimit:10;stroke:black;"/>
        </g>
    </g>
    <g transform="matrix(0.965926,-0.258819,0.258819,0.965926,-1078.62,-971.536)">
        <path d="M805.696,1458L809.728,1458L809.728,1460.2L805.696,1460.2L805.696,1458ZM819.556,1460.2L813.724,1460.2L813.724,1458L818.152,1458L818.152,1454.87L813.724,1454.87L813.724,1452.96L809.728,1452.96L809.728,1454.87L805.696,1454.87L805.696,1452.96L801.808,1452.96L801.808,1454.87L797.452,1454.87L797.452,1458L801.808,1458L801.808,1460.2L796.192,1460.2L796.192,1463.33L802.6,1463.33C801.052,1464.41 798.748,1465.38 796.516,1466.07C797.452,1466.64 798.964,1467.94 799.72,1468.66C802.096,1467.65 805.012,1465.96 806.812,1464.3L804.04,1463.33L811.096,1463.33L808.972,1464.74C811.168,1465.82 813.472,1467.4 814.768,1468.48L818.584,1466.72C817.18,1465.71 814.876,1464.41 812.716,1463.33L819.556,1463.33L819.556,1460.2ZM815.164,1443.78L815.164,1445.4L811.852,1445.4L811.852,1443.78L815.164,1443.78ZM816.568,1452.46C817.54,1452.46 818.62,1452.39 819.196,1452.21C819.088,1451.42 818.98,1450.23 818.908,1449.33C818.332,1449.51 817.144,1449.54 816.46,1449.54L812.752,1449.54C811.996,1449.54 811.852,1449.18 811.852,1448.21L811.852,1448L818.764,1448L818.764,1441.16L808.504,1441.16L808.504,1448.14C808.504,1451.24 809.26,1452.46 812.536,1452.46L816.568,1452.46ZM803.716,1443.75L803.716,1445.37L800.44,1445.37L800.44,1443.75L803.716,1443.75ZM800.44,1449.69L800.44,1447.96L807.28,1447.96L807.28,1441.12L797.128,1441.12L797.128,1448C797.128,1449.44 796.516,1450.05 795.94,1450.34C796.48,1451.09 797.164,1452.64 797.344,1453.5C798.028,1453.14 799.216,1452.89 806.38,1451.78C806.452,1451.02 806.74,1449.65 807.064,1448.79L800.44,1449.69ZM794.752,1446.09C794.212,1444.47 793.276,1441.98 792.592,1440.04L788.704,1441.08C789.352,1443.06 790.288,1445.69 790.756,1447.35L794.752,1446.09ZM793.708,1456.13L793.096,1456.24L792.7,1456.24C793.528,1453.72 794.392,1450.84 795.112,1448.32L786.796,1448.32L786.796,1452.14L789.928,1452.14C789.1,1454.94 788.2,1457.82 787.408,1459.95L791.764,1459.95C791.152,1462.5 790.108,1465.1 788.704,1467C787.876,1467.69 786.976,1468.59 786.112,1469.63L788.956,1473.7C789.856,1471.65 791.152,1469.2 791.944,1469.2C792.7,1469.2 793.996,1470.39 795.472,1471.22C798.1,1472.73 801.124,1473.12 805.876,1473.12C810.088,1473.12 816.46,1472.87 819.412,1472.69C819.484,1471.54 820.168,1469.45 820.636,1468.3C816.64,1468.88 810.232,1469.24 806.092,1469.24C801.916,1469.24 798.532,1469.02 796.048,1467.54C794.968,1466.9 794.212,1466.32 793.564,1465.92C794.824,1463.33 795.652,1460.24 796.156,1457.14L793.708,1456.13Z" style="fill:rgb(255,254,0);fill-rule:nonzero;"/>
        <path d="M854.872,1451.6L846.196,1451.6L846.196,1450.12L853.036,1450.12L853.036,1447.46L846.196,1447.46L846.196,1446.09L854.152,1446.09L854.152,1443.24L850.264,1443.24C850.804,1442.52 851.416,1441.7 851.956,1440.87L848.212,1439.93C847.924,1440.9 847.204,1442.24 846.592,1443.24L842.164,1443.24C841.768,1442.31 840.904,1440.94 840.112,1439.93L837.088,1441.01C837.556,1441.66 838.06,1442.49 838.456,1443.24L834.532,1443.24L834.532,1446.09L842.092,1446.09L842.092,1447.46L835.684,1447.46L835.684,1450.12L842.092,1450.12L842.092,1451.6L833.416,1451.6L833.416,1454.66L854.908,1454.66L854.872,1451.6ZM833.416,1445.94L827.368,1445.94L829.996,1444.86C829.672,1443.64 828.772,1441.55 827.944,1440.08L824.884,1441.19C825.64,1442.67 826.36,1444.61 826.684,1445.94L821.68,1445.94L821.68,1449.29L833.416,1449.29L833.416,1445.94ZM829.384,1464.05L829.384,1468.3L825.82,1468.3L825.82,1464.05L829.384,1464.05ZM832.444,1460.78L822.796,1460.78L822.796,1473.09L825.82,1473.09L825.82,1471.58L832.444,1471.58L832.444,1460.78ZM822.94,1459.01L832.516,1459.01L832.516,1455.81L822.94,1455.81L822.94,1459.01ZM822.94,1454.15L832.516,1454.15L832.516,1450.91L822.94,1450.91L822.94,1454.15ZM841.552,1460.16L841.552,1458.11C842.668,1457.93 843.676,1457.68 844.612,1457.43C844.648,1458.4 844.684,1459.26 844.756,1460.16L841.552,1460.16ZM850.696,1463.69C850.264,1464.48 849.652,1465.2 849.004,1465.92C848.824,1465.13 848.644,1464.27 848.536,1463.26L854.836,1463.26L854.836,1460.16L852.28,1460.16L854.62,1458.51C853.9,1457.46 852.28,1456.1 850.948,1455.2L848.5,1456.85C849.76,1457.79 851.2,1459.12 851.92,1460.16L848.212,1460.16C848.14,1458.72 848.104,1457.1 848.104,1455.41L844.54,1455.41C844.54,1456.06 844.576,1456.74 844.612,1457.43L842.416,1454.91C840.292,1455.59 836.692,1456.13 833.668,1456.42C833.992,1457.1 834.388,1458.18 834.496,1458.9C835.576,1458.83 836.692,1458.76 837.844,1458.62L837.844,1460.16L833.344,1460.16L833.344,1463.26L837.844,1463.26L837.844,1464.99C836.08,1465.17 834.496,1465.31 833.128,1465.42L833.524,1468.7C834.856,1468.55 836.296,1468.37 837.844,1468.19L837.844,1470.03C837.844,1470.42 837.7,1470.53 837.268,1470.57C836.872,1470.57 835.504,1470.57 834.28,1470.53C834.712,1471.4 835.18,1472.66 835.324,1473.56C837.448,1473.56 838.996,1473.52 840.112,1473.05C841.228,1472.55 841.552,1471.79 841.552,1470.14L841.552,1467.72L844.504,1467.36L844.432,1464.34L841.552,1464.63L841.552,1463.26L845.044,1463.26C845.296,1465.24 845.656,1466.93 846.124,1468.44C844.684,1469.42 843.136,1470.28 841.624,1470.89C842.308,1471.47 843.208,1472.48 843.64,1473.12C844.864,1472.58 846.124,1471.94 847.312,1471.14C848.356,1472.76 849.76,1473.7 851.596,1473.7C853.792,1473.7 854.944,1472.44 855.448,1468.98C854.692,1468.66 853.684,1468.16 853,1467.51C852.892,1469.45 852.532,1470.39 851.992,1470.39C851.272,1470.39 850.66,1469.92 850.12,1469.02C851.488,1467.87 852.676,1466.54 853.576,1465.1L850.696,1463.69Z" style="fill:rgb(255,254,0);fill-rule:nonzero;"/>
        <path d="M884.644,1450.91L878.092,1450.91L878.092,1449.26L884.644,1449.26L884.644,1450.91ZM884.644,1455.34L878.092,1455.34L878.092,1453.68L884.644,1453.68L884.644,1455.34ZM884.644,1459.8L878.092,1459.8L878.092,1458.08L884.644,1458.08L884.644,1459.8ZM874.276,1446.38L874.276,1462.72L888.604,1462.72L888.604,1446.38L882.484,1446.38L883.348,1444.43L889.648,1444.43L889.648,1441.44L873.16,1441.44L873.16,1444.43L879.496,1444.43C879.28,1445.08 879.1,1445.76 878.884,1446.38L874.276,1446.38ZM882.232,1464.3C884.032,1465.56 886.264,1467.69 887.38,1469.09L890.44,1467.29C889.324,1465.92 887.092,1464.02 885.184,1462.76L882.232,1464.3ZM877.192,1462.97C875.932,1464.48 873.772,1465.89 871.648,1466.86C872.404,1467.44 873.772,1468.66 874.384,1469.34C876.616,1468.16 879.136,1466.1 880.684,1464.09L877.192,1462.97ZM867.76,1445.87L862.612,1445.87L862.612,1444.18L867.76,1444.18L867.76,1445.87ZM867.76,1450.34L862.612,1450.34L862.612,1448.57L867.76,1448.57L867.76,1450.34ZM871.72,1441.34L858.796,1441.34L858.796,1453.22L871.72,1453.22L871.72,1441.34ZM867.436,1464.41L872.62,1464.41L872.62,1461.32L867.436,1461.32L867.436,1458.36L873.304,1458.36L873.304,1455.27L857.176,1455.27L857.176,1458.36L863.836,1458.36L863.836,1466.57C863.116,1465.82 862.504,1464.88 862,1463.73C862.108,1462.43 862.18,1461.14 862.216,1459.8L858.796,1459.8C858.688,1464.12 858.328,1468.37 856.312,1470.86C857.176,1471.5 858.256,1472.87 858.796,1473.77C860.02,1472.3 860.812,1470.39 861.316,1468.23C864.196,1472.15 868.66,1472.84 875.428,1472.84L889.288,1472.84C889.504,1471.79 890.08,1470.14 890.656,1469.31C887.704,1469.45 877.876,1469.45 875.428,1469.45C872.224,1469.45 869.596,1469.31 867.436,1468.66L867.436,1464.41Z" style="fill:rgb(255,254,0);fill-rule:nonzero;"/>
        <path d="M916.9,1460.56L903.868,1460.56L903.868,1459.01L916.9,1459.01L916.9,1460.56ZM903.868,1469.13L903.868,1467.47L916.9,1467.47L916.9,1469.13L903.868,1469.13ZM916.9,1464.81L903.868,1464.81L903.868,1463.22L916.9,1463.22L916.9,1464.81ZM924.604,1454.3L924.604,1450.91L906.784,1450.91C907,1450.41 907.216,1449.87 907.396,1449.36L922.66,1449.36L922.66,1446.12L908.548,1446.12C908.728,1445.55 908.908,1444.97 909.052,1444.4C913.984,1444.14 918.7,1443.75 922.516,1443.1L919.996,1440.04C913.948,1441.05 903.544,1441.48 894.76,1441.48C895.12,1442.34 895.516,1443.75 895.552,1444.68C898.36,1444.72 901.348,1444.68 904.336,1444.58C904.228,1445.12 904.084,1445.62 903.94,1446.12L895.156,1446.12L895.156,1449.36L902.788,1449.36C902.572,1449.87 902.356,1450.41 902.104,1450.91L892.636,1450.91L892.636,1454.3L900.304,1454.3C898.144,1457.68 895.264,1460.67 891.52,1462.68C892.348,1463.55 893.608,1465.13 894.22,1466.14C896.308,1464.92 898.144,1463.44 899.764,1461.82L899.764,1473.66L903.868,1473.66L903.868,1472.37L916.9,1472.37L916.9,1473.66L921.22,1473.66L921.22,1455.77L904.372,1455.77C904.66,1455.27 904.948,1454.8 905.2,1454.3L924.604,1454.3Z" style="fill:rgb(255,254,0);fill-rule:nonzero;"/>
        <path d="M955.564,1457.79C954.196,1459.08 952.144,1460.7 950.236,1462C949.12,1460.52 948.148,1458.9 947.464,1457.1L959.56,1457.1L959.56,1453.47L945.808,1453.47L945.808,1451.45L956.932,1451.45L956.932,1448.03L945.808,1448.03L945.808,1446.16L958.336,1446.16L958.336,1442.52L945.808,1442.52L945.808,1439.93L941.488,1439.93L941.488,1442.52L929.392,1442.52L929.392,1446.16L941.488,1446.16L941.488,1448.03L931.156,1448.03L931.156,1451.45L941.488,1451.45L941.488,1453.47L927.844,1453.47L927.844,1457.1L938.068,1457.1C934.9,1459.59 930.616,1461.78 926.584,1463.01C927.484,1463.87 928.78,1465.49 929.356,1466.46C931.012,1465.89 932.632,1465.13 934.288,1464.27L934.288,1466.9C934.288,1468.48 933.28,1469.34 932.488,1469.74C933.136,1470.6 934,1472.51 934.252,1473.52C935.332,1472.87 936.952,1472.37 947.248,1469.31C946.96,1468.37 946.636,1466.64 946.528,1465.49L938.752,1467.62L938.752,1461.5C940.444,1460.27 942.028,1458.9 943.396,1457.5C946.096,1464.95 950.56,1470.17 958.012,1472.73C958.624,1471.58 959.884,1469.81 960.82,1468.95C957.58,1468.05 954.88,1466.54 952.684,1464.63C954.736,1463.4 957.112,1461.93 959.128,1460.42L955.564,1457.79Z" style="fill:rgb(255,254,0);fill-rule:nonzero;"/>
        <path d="M990.736,1451.34C992.032,1451.34 993.508,1451.27 994.228,1451.06C994.048,1450.16 993.94,1448.72 993.868,1447.67C993.112,1447.85 991.564,1447.96 990.592,1447.96L985.552,1447.96C984.544,1447.96 984.4,1447.56 984.4,1446.56L984.4,1445.51L992.896,1445.51L992.896,1442.34L984.4,1442.34L984.4,1440.22L980.44,1440.22L980.44,1446.48C980.44,1449.98 981.448,1451.34 985.408,1451.34L990.736,1451.34ZM990.556,1463.55C993.436,1463.55 994.552,1462.68 994.984,1459.62C993.94,1459.41 992.32,1458.83 991.528,1458.33C991.384,1459.88 991.132,1460.13 990.16,1460.13L985.984,1460.13C984.652,1460.13 984.364,1460.02 984.364,1459.01L984.364,1457.36L993.004,1457.36L993.004,1454.22L984.364,1454.22L984.364,1451.92L980.44,1451.92L980.44,1459.01C980.44,1462.5 981.412,1463.55 985.516,1463.55L990.556,1463.55ZM976.372,1464.27C977.488,1465.6 978.928,1467.51 979.648,1468.66L982.744,1466.54C981.988,1465.42 980.44,1463.69 979.324,1462.43L976.372,1464.27ZM979.9,1447.35C979,1445.69 977.056,1443.17 975.436,1441.3L972.556,1442.78C973.024,1443.32 973.492,1443.93 973.96,1444.5L968.524,1444.94C969.928,1443.78 971.332,1442.42 972.484,1441.01L968.704,1439.9C967.3,1441.98 965.068,1443.89 964.384,1444.36C963.7,1444.94 963.052,1445.3 962.44,1445.44C962.836,1446.38 963.412,1448.03 963.628,1448.82C964.528,1448.39 965.968,1448.18 975.832,1447.24C976.228,1447.89 976.588,1448.5 976.84,1449L979.9,1447.35ZM974.032,1452.14L974.032,1454.51C972.916,1453.94 970.828,1453.07 969.352,1452.5L968.056,1454.08L968.056,1452.14L974.032,1452.14ZM972.592,1456.6L974.032,1454.58L974.032,1456.17L972.592,1456.6ZM968.056,1454.51C969.532,1455.2 971.368,1456.06 972.412,1456.67C970.72,1457.18 969.172,1457.64 967.876,1458C968.02,1456.85 968.056,1455.74 968.056,1454.69L968.056,1454.51ZM968.488,1461.1C970.216,1460.34 972.124,1459.52 974.032,1458.65L974.032,1460.45C974.032,1460.78 973.924,1460.88 973.528,1460.92C973.204,1460.96 972.052,1460.96 970.936,1460.88C971.332,1461.64 971.836,1462.79 972.016,1463.66C973.924,1463.66 975.364,1463.66 976.372,1463.19C977.416,1462.68 977.74,1462 977.74,1460.45L977.74,1449.18L964.492,1449.18L964.492,1454.62C964.492,1456.92 964.348,1459.7 962.44,1461.82C963.232,1462.22 964.852,1463.37 965.464,1463.98C966.652,1462.65 967.336,1460.92 967.696,1459.12L968.488,1461.1ZM966.076,1472.62C967.228,1470.82 968.128,1467.94 968.776,1465.64L965.104,1464.2C964.564,1466.43 963.484,1469.02 962.332,1470.75L966.076,1472.62ZM976.624,1469.56C974.716,1469.56 974.356,1469.42 974.356,1468.44L974.356,1464.84L970.18,1464.84L970.18,1468.52C970.18,1471.9 971.44,1472.94 976.228,1472.94L982.924,1472.94C986.668,1472.94 987.784,1471.83 988.252,1467.29C987.172,1467.08 985.48,1466.54 984.616,1465.92C984.436,1469.06 984.148,1469.56 982.564,1469.56L976.624,1469.56ZM988.504,1465.2C989.44,1467.29 990.484,1470.14 990.952,1471.83L994.876,1470.6C994.336,1468.91 993.148,1466.18 992.176,1464.12L988.504,1465.2Z" style="fill:rgb(255,254,0);fill-rule:nonzero;"/>
    </g>
    <g transform="matrix(-0.999959,-0.00910726,0.00910726,-0.999959,1981.89,1665.85)">
        <path d="M1422.24,1368.29L1402.78,1394.03L1280.88,1371.6L1261.77,1417.43L1602.57,1518.54L1630.92,1454.28L1434.29,1394.96L1422.24,1368.29Z" style="fill:rgb(187,184,26);fill-opacity:0.301961;stroke-width:4.5px;stroke:rgb(255,254,0);"/>
    </g>
    <g transform="matrix(1.91485,0,0,1.91485,323.43,293.406)">
        <g transform="matrix(1.65937,0,0,1.65937,-0.659366,-0.659366)">
            <path d="M75.5,12.75C75.5,16.892 72.142,20.25 68,20.25C63.858,20.25 60.5,16.892 60.5,12.75C60.5,8.608 63.858,5.25 68,5.25C72.142,5.25 75.5,8.608 75.5,12.75Z" style="fill:none;stroke-width:1.42px;stroke-linecap:round;stroke-miterlimit:10;stroke:black;"/>
        </g>
        <g transform="matrix(1.65937,0,0,1.65937,-0.659366,-0.659366)">
            <path d="M83.5,12.75C83.5,16.892 80.142,20.25 76,20.25C71.858,20.25 68.5,16.892 68.5,12.75C68.5,8.608 71.858,5.25 76,5.25C80.142,5.25 83.5,8.608 83.5,12.75Z" style="fill:none;stroke-width:1.42px;stroke-linecap:round;stroke-miterlimit:10;stroke:black;"/>
        </g>
        <g transform="matrix(1.65937,0,0,1.65937,-0.659366,-0.659366)">
            <path d="M72,6.75L72,18.75" style="fill:none;stroke-width:1.42px;stroke-linecap:round;stroke-miterlimit:10;stroke:black;"/>
        </g>
    </g>
    <g transform="matrix(1,0,0,1,-1032.04,-841.124)">
        <path d="M1492.19,1217.21L1517.23,1217.21L1517.23,1220.97L1521.91,1220.97L1521.91,1214.25L1515.79,1214.25C1516.39,1213.49 1517.07,1212.61 1517.79,1211.65L1512.71,1210.81C1512.27,1211.85 1511.47,1213.17 1510.75,1214.25L1507.11,1214.25L1507.11,1210.77L1502.27,1210.77L1502.27,1214.25L1498.99,1214.25C1498.55,1213.21 1497.67,1211.85 1496.91,1210.89L1492.47,1211.69C1492.99,1212.45 1493.51,1213.41 1493.95,1214.25L1487.71,1214.25L1487.71,1220.97L1492.19,1220.97L1492.19,1217.21ZM1498.51,1220.41L1510.79,1220.41L1510.79,1221.93L1498.51,1221.93L1498.51,1220.41ZM1515.31,1223.89L1515.31,1218.45L1494.23,1218.45L1494.23,1223.89L1515.31,1223.89ZM1499.19,1231.17L1500.99,1230.21C1500.67,1229.45 1499.91,1228.29 1499.19,1227.49L1496.59,1228.77C1497.15,1229.49 1497.71,1230.41 1498.11,1231.17L1495.31,1231.17L1495.31,1227.29L1502.27,1227.29L1502.27,1231.17L1499.19,1231.17ZM1514.51,1231.17L1510.35,1231.17L1512.95,1228.57L1509.95,1227.41C1509.55,1228.25 1508.67,1229.53 1508.03,1230.41L1509.83,1231.17L1506.87,1231.17L1506.87,1227.29L1514.51,1227.29L1514.51,1231.17ZM1522.59,1238.61L1506.87,1238.61L1506.87,1237.33L1520.39,1237.33L1520.39,1234.69L1506.87,1234.69L1506.87,1233.45L1519.11,1233.45L1519.11,1225.09L1490.95,1225.09L1490.95,1233.45L1502.27,1233.45L1502.27,1234.69L1489.87,1234.69L1489.87,1237.33L1502.27,1237.33L1502.27,1238.61L1487.03,1238.61L1487.03,1241.45L1522.59,1241.45L1522.59,1238.61ZM1490.99,1248.13C1492.91,1246.89 1494.87,1244.89 1496.03,1242.93L1491.59,1241.65C1490.51,1243.49 1488.55,1245.37 1486.75,1246.33L1490.99,1248.13ZM1498.15,1242.97C1498.47,1244.53 1498.75,1246.57 1498.83,1247.85L1503.31,1247.37C1503.23,1246.17 1502.83,1244.17 1502.47,1242.65L1498.15,1242.97ZM1506.11,1243.01C1506.75,1244.49 1507.35,1246.49 1507.59,1247.65L1512.27,1246.97C1511.99,1245.77 1511.23,1243.85 1510.59,1242.49L1506.11,1243.01ZM1513.55,1242.97C1515.23,1244.57 1517.31,1246.81 1518.19,1248.21L1522.99,1246.89C1521.91,1245.41 1519.75,1243.25 1518.07,1241.81L1513.55,1242.97Z" style="fill:black;fill-rule:nonzero;"/>
        <path d="M1546.59,1229.65L1550.71,1229.65L1549.35,1230.57L1549.79,1230.93L1546.59,1230.93L1546.59,1229.65ZM1538.39,1227.65L1538.39,1226.49L1542.71,1226.49L1542.71,1227.65L1538.39,1227.65ZM1538.39,1223.45L1542.71,1223.45L1542.71,1224.61L1538.39,1224.61L1538.39,1223.45ZM1550.83,1223.45L1550.83,1224.61L1546.59,1224.61L1546.59,1223.45L1550.83,1223.45ZM1550.83,1227.65L1546.59,1227.65L1546.59,1226.49L1550.83,1226.49L1550.83,1227.65ZM1556.23,1234.33L1553.83,1234.33L1555.95,1232.77C1555.19,1231.85 1553.91,1230.65 1552.63,1229.65L1554.63,1229.65L1554.63,1221.49L1546.59,1221.49L1546.59,1220.29L1555.71,1220.29L1555.71,1217.73L1546.59,1217.73L1546.59,1216.25L1542.71,1216.25L1542.71,1217.73L1533.67,1217.73L1533.67,1220.29L1542.71,1220.29L1542.71,1221.49L1534.79,1221.49L1534.79,1229.65L1542.71,1229.65L1542.71,1230.97C1539.35,1230.97 1536.27,1230.97 1533.79,1230.97L1533.95,1233.49C1538.83,1233.41 1545.43,1233.21 1552.03,1232.97C1552.47,1233.45 1552.91,1233.93 1553.19,1234.33L1551.07,1234.33L1551.07,1233.17L1547.15,1233.17L1547.15,1234.33L1533.15,1234.33L1533.15,1236.89L1539.35,1236.89L1536.83,1238.09C1537.91,1239.17 1539.07,1240.73 1539.59,1241.69L1542.75,1240.13C1542.23,1239.21 1541.11,1237.89 1540.07,1236.89L1547.15,1236.89L1547.15,1239.29C1547.15,1239.65 1546.99,1239.77 1546.59,1239.77C1546.23,1239.81 1544.91,1239.81 1543.79,1239.77C1544.15,1240.45 1544.55,1241.29 1544.75,1242.13C1546.95,1242.13 1548.55,1242.13 1549.63,1241.81C1550.75,1241.49 1551.07,1240.97 1551.07,1239.45L1551.07,1236.89L1556.23,1236.89L1556.23,1234.33ZM1532.35,1242.61L1532.35,1215.69L1557.11,1215.69L1557.11,1242.61L1532.35,1242.61ZM1528.07,1212.09L1528.07,1248.17L1532.35,1248.17L1532.35,1246.21L1557.11,1246.21L1557.11,1248.09L1561.63,1248.09L1561.63,1212.09L1528.07,1212.09Z" style="fill:black;fill-rule:nonzero;"/>
        <path d="M1602.79,1212.89L1593.75,1212.89L1593.75,1217.13L1602.79,1217.13L1602.79,1212.89ZM1572.23,1210.77C1570.91,1213.25 1568.11,1216.41 1565.63,1218.37C1566.39,1219.21 1567.47,1221.01 1567.99,1222.01C1571.03,1219.57 1574.35,1215.81 1576.51,1212.33L1572.23,1210.77ZM1580.31,1232.21L1580.31,1230.41L1582.83,1230.41L1582.83,1232.21L1580.31,1232.21ZM1580.31,1226.09L1582.83,1226.09L1582.83,1227.81L1580.31,1227.81L1580.31,1226.09ZM1589.03,1226.09L1589.03,1227.81L1586.59,1227.81L1586.59,1226.09L1589.03,1226.09ZM1589.03,1232.21L1586.59,1232.21L1586.59,1230.41L1589.03,1230.41L1589.03,1232.21ZM1603.59,1223.01L1593.15,1223.01L1593.15,1227.33L1596.31,1227.33L1596.31,1243.09C1596.31,1243.53 1596.19,1243.65 1595.71,1243.65C1595.31,1243.65 1594.07,1243.65 1592.79,1243.61L1592.83,1241.69L1586.59,1242.01L1586.59,1240.09L1592.27,1240.09L1592.27,1236.65L1586.59,1236.65L1586.59,1234.97L1592.47,1234.97L1592.47,1223.29L1586.59,1223.29L1586.59,1221.53L1593.15,1221.53L1593.15,1217.81L1586.59,1217.81L1586.59,1215.53C1588.79,1215.29 1590.91,1214.97 1592.71,1214.57L1590.47,1211.09C1586.87,1211.93 1581.31,1212.53 1576.47,1212.85C1576.87,1213.77 1577.39,1215.21 1577.51,1216.13C1579.19,1216.09 1580.99,1216.01 1582.83,1215.85L1582.83,1217.81L1576.55,1217.81L1576.55,1220.45L1572.87,1219.13C1571.07,1223.05 1568.15,1227.13 1565.35,1229.81C1566.11,1230.77 1567.43,1233.13 1567.87,1234.13C1568.63,1233.33 1569.43,1232.45 1570.19,1231.49L1570.19,1248.13L1574.51,1248.13L1574.51,1225.25C1575.27,1224.01 1575.95,1222.77 1576.55,1221.53L1582.83,1221.53L1582.83,1223.29L1577.03,1223.29L1577.03,1234.97L1582.83,1234.97L1582.83,1236.65L1577.23,1236.65L1577.23,1240.09L1582.83,1240.09L1582.83,1242.21C1580.31,1242.33 1578.03,1242.45 1576.15,1242.49L1576.63,1246.21C1581.07,1245.93 1587.07,1245.57 1592.79,1245.13L1592.79,1244.13C1593.27,1245.41 1593.67,1247.01 1593.79,1248.13C1596.15,1248.13 1597.87,1248.05 1599.15,1247.29C1600.47,1246.53 1600.75,1245.29 1600.75,1243.17L1600.75,1227.33L1603.59,1227.33L1603.59,1223.01Z" style="fill:black;fill-rule:nonzero;"/>
        <path d="M1626.87,1218.13L1626.87,1221.01C1626.87,1224.81 1627.91,1226.33 1632.39,1226.33L1637.87,1226.33C1639.23,1226.33 1640.79,1226.29 1641.55,1226.01C1641.39,1224.89 1641.27,1223.29 1641.15,1222.05C1640.39,1222.25 1638.71,1222.37 1637.63,1222.37L1632.79,1222.37C1631.79,1222.37 1631.63,1221.97 1631.63,1221.09L1631.63,1218.13L1637.27,1218.13L1637.27,1221.13L1642.27,1221.13L1642.27,1213.89L1627.95,1213.89C1627.55,1212.65 1627.11,1211.37 1626.67,1210.25L1621.47,1211.45C1621.67,1212.17 1621.91,1213.05 1622.15,1213.89L1607.71,1213.89L1607.71,1221.49L1612.51,1221.49L1612.51,1218.13L1617.35,1218.13C1616.95,1222.29 1615.51,1224.13 1606.83,1224.93C1607.71,1225.89 1608.79,1227.69 1609.15,1228.89C1619.71,1227.53 1621.75,1224.33 1622.27,1218.13L1626.87,1218.13ZM1642.55,1236.01L1642.55,1231.57L1634.43,1231.57L1636.23,1230.65C1635.39,1229.41 1633.63,1227.69 1632.15,1226.53L1628.71,1228.25C1629.79,1229.17 1631.03,1230.49 1631.91,1231.57L1626.99,1231.57C1627.23,1229.93 1627.39,1228.17 1627.51,1226.25L1622.23,1226.25C1622.11,1228.21 1621.99,1229.97 1621.71,1231.57L1606.99,1231.57L1606.99,1236.01L1620.47,1236.01C1618.63,1239.73 1614.87,1242.29 1606.39,1243.81C1607.39,1244.89 1608.59,1246.85 1609.03,1248.21C1617.91,1246.33 1622.39,1243.25 1624.79,1238.93C1627.91,1244.05 1632.59,1246.85 1640.23,1248.09C1640.87,1246.61 1642.23,1244.45 1643.35,1243.33C1635.67,1242.61 1630.83,1240.29 1628.15,1236.01L1642.55,1236.01Z" style="fill:black;fill-rule:nonzero;"/>
        <path d="M1683.15,1218.05C1682.55,1216.17 1680.75,1213.41 1679.19,1211.33L1675.59,1213.21C1677.11,1215.33 1678.71,1218.29 1679.35,1220.13L1683.15,1218.05ZM1663.11,1217.37L1660.99,1217.37L1660.99,1214.77L1663.11,1214.77L1663.11,1217.37ZM1666.67,1211.81L1657.63,1211.81L1657.63,1220.37L1666.67,1220.37L1666.67,1211.81ZM1652.67,1217.37L1650.59,1217.37L1650.59,1214.77L1652.67,1214.77L1652.67,1217.37ZM1656.15,1211.81L1647.19,1211.81L1647.19,1220.37L1656.15,1220.37L1656.15,1211.81ZM1651.51,1230.73L1654.83,1230.73L1654.83,1232.89L1651.51,1232.89L1651.51,1230.73ZM1651.51,1225.37L1654.83,1225.37L1654.83,1227.45L1651.51,1227.45L1651.51,1225.37ZM1662.23,1227.45L1658.83,1227.45L1658.83,1225.37L1662.23,1225.37L1662.23,1227.45ZM1662.23,1232.89L1658.83,1232.89L1658.83,1230.73L1662.23,1230.73L1662.23,1232.89ZM1667.35,1242.53L1667.35,1238.37L1659.07,1238.37L1659.07,1236.37L1666.35,1236.37L1666.35,1221.89L1647.59,1221.89L1647.59,1236.37L1654.55,1236.37L1654.55,1238.37L1646.03,1238.37L1646.03,1242.53L1654.55,1242.53L1654.55,1248.13L1659.07,1248.13L1659.07,1242.53L1667.35,1242.53ZM1679.03,1225.97C1678.27,1228.41 1677.19,1230.85 1675.87,1233.13C1675.55,1230.97 1675.27,1228.53 1675.03,1225.89L1683.67,1224.81L1683.19,1220.45L1674.67,1221.49C1674.47,1218.21 1674.35,1214.65 1674.31,1211.01L1669.79,1211.01C1669.87,1214.93 1670.03,1218.61 1670.23,1222.01L1666.75,1222.45L1667.23,1226.85L1670.55,1226.45C1670.95,1230.97 1671.51,1234.93 1672.27,1238.17C1669.95,1240.81 1667.23,1243.01 1664.23,1244.41C1665.47,1245.29 1666.87,1246.65 1667.67,1247.73C1669.87,1246.49 1671.91,1244.89 1673.75,1242.97C1675.11,1246.21 1676.95,1248.05 1679.35,1248.17C1681.07,1248.21 1683.11,1246.65 1684.11,1239.69C1683.35,1239.25 1681.43,1238.05 1680.67,1237.01C1680.47,1240.61 1680.03,1242.49 1679.39,1242.49C1678.55,1242.41 1677.79,1241.13 1677.11,1238.89C1679.47,1235.57 1681.39,1231.81 1682.63,1227.97L1679.03,1225.97Z" style="fill:black;fill-rule:nonzero;"/>
    </g>
    <g transform="matrix(0.965926,0.258819,-0.258819,0.965926,-41.6265,-1450.61)">
        <path d="M847.114,1465.49L854.746,1465.49L854.746,1462.25L847.114,1462.25L847.114,1465.49ZM851.614,1448.39L850.102,1448.39L850.102,1444.86L851.614,1444.86L851.614,1448.39ZM855.754,1457.1C855.682,1457.18 855.574,1457.18 855.286,1457.18L854.566,1457.18C854.278,1457.18 854.206,1457.14 854.206,1456.56L854.206,1451.92L855.754,1451.92L855.754,1457.1ZM846.034,1467.83L846.034,1459.52C846.574,1459.84 847.474,1460.6 847.834,1461.03C849.778,1459.26 850.21,1456.67 850.21,1454.55L850.21,1451.92L851.83,1451.92L851.83,1456.64C851.83,1459.05 852.37,1459.66 854.242,1459.66L855.754,1459.66L855.754,1467.83L846.034,1467.83ZM847.834,1451.92L847.834,1454.55C847.834,1456.06 847.618,1457.9 846.034,1459.34L846.034,1451.92L847.834,1451.92ZM842.254,1444.86L846.79,1444.86L846.79,1448.39L842.758,1448.39L842.758,1473.45L846.034,1473.45L846.034,1471.14L855.754,1471.14L855.754,1472.94L859.21,1472.94L859.21,1448.39L854.926,1448.39L854.926,1444.86L859.426,1444.86L859.426,1441.3L842.29,1441.3L842.254,1444.86ZM866.338,1469.13C865.042,1469.13 864.862,1468.88 864.862,1467.47L864.862,1457L874.222,1457L874.222,1441.59L860.47,1441.59L860.47,1445.66L870.082,1445.66L870.082,1452.93L860.614,1452.93L860.614,1467.51C860.614,1471.83 861.838,1473.09 865.726,1473.09L870.478,1473.09C874.042,1473.09 875.158,1471.25 875.59,1465.17C874.474,1464.88 872.674,1464.16 871.774,1463.48C871.594,1468.23 871.378,1469.13 870.118,1469.13L866.338,1469.13Z" style="fill:rgb(255,254,0);fill-rule:nonzero;"/>
        <path d="M889.27,1451.13C888.802,1452.53 887.974,1454.3 887.29,1455.56L883.438,1455.56L885.562,1454.33C885.202,1453.4 884.338,1452.17 883.474,1451.13L889.27,1451.13ZM888.442,1464.88L893.842,1464.88L893.842,1461.42L888.442,1461.42L888.442,1459.01L894.31,1459.01L894.31,1455.56L891.142,1455.56C891.79,1454.44 892.474,1453.22 893.086,1451.99L890.638,1451.13L895.318,1451.13L895.318,1447.6L890.638,1447.6L890.638,1446.56L891.826,1447.31C892.978,1446.27 894.49,1444.72 895.93,1443.17L892.582,1441.34C892.15,1442.16 891.394,1443.17 890.638,1444.14L890.638,1439.97L887.218,1439.97L887.218,1447.6L885.562,1447.6L885.562,1439.97L882.214,1439.97L882.214,1443.82C881.566,1442.92 880.738,1441.95 880.018,1441.19L877.426,1442.88C878.578,1444.18 879.874,1445.98 880.378,1447.2L882.214,1445.91L882.214,1447.6L877.318,1447.6L877.318,1451.13L881.818,1451.13L879.982,1452.14C880.81,1453.14 881.746,1454.48 882.286,1455.56L878.398,1455.56L878.398,1459.01L884.482,1459.01L884.482,1461.42L879.082,1461.42L879.082,1464.88L884.482,1464.88L884.482,1467.58C881.782,1467.87 879.262,1468.08 877.246,1468.26L877.786,1472.15C882.538,1471.65 889.234,1470.93 895.426,1470.14L895.354,1466.43C893.05,1466.68 890.71,1466.93 888.442,1467.18L888.442,1464.88ZM910.078,1449L907.342,1449L907.342,1440L903.202,1440L903.202,1449L895.462,1449L895.462,1453L903.202,1453L903.202,1468.7C903.202,1469.31 902.986,1469.49 902.374,1469.49C901.798,1469.49 899.998,1469.49 898.162,1469.42C898.738,1470.53 899.386,1472.37 899.602,1473.48C902.41,1473.52 904.318,1473.38 905.578,1472.66C906.91,1471.97 907.342,1470.89 907.342,1468.7L907.342,1453L910.078,1453L910.078,1449ZM902.23,1463.01C901.942,1460.81 900.718,1457.54 899.386,1455.02L895.858,1456.2C897.118,1458.83 898.234,1462.22 898.45,1464.34L902.23,1463.01Z" style="fill:rgb(255,254,0);fill-rule:nonzero;"/>
        <path d="M921.166,1444.04L936.394,1444.04L936.394,1452.35L940.714,1452.35L940.714,1441.08L917.062,1441.08L917.062,1452.35L921.166,1452.35L921.166,1444.04ZM935.062,1445.33L922.282,1445.33L922.282,1447.82L935.062,1447.82L935.062,1445.33ZM935.062,1451.67L935.062,1449.18L922.318,1449.18L922.318,1451.67L935.062,1451.67ZM938.95,1461.5C938.374,1462.72 937.546,1463.87 936.61,1464.88C935.638,1463.87 934.774,1462.72 934.162,1461.5L938.95,1461.5ZM919.474,1465.67L924.442,1465.67L924.442,1466.93C922.786,1467.11 921.058,1467.26 919.474,1467.4L919.474,1465.67ZM924.442,1456.85L924.442,1458.33L919.474,1458.33L919.474,1456.85L924.442,1456.85ZM919.474,1461.28L924.442,1461.28L924.442,1462.72L919.474,1462.72L919.474,1461.28ZM941.47,1458.08L940.786,1458.22L929.554,1458.22L929.554,1461.5L931.714,1461.5L930.418,1461.86C931.318,1463.91 932.506,1465.78 933.874,1467.36C932.254,1468.55 930.382,1469.52 928.438,1470.1L928.438,1456.85L944.818,1456.85L944.818,1453.47L912.85,1453.47L912.85,1456.85L915.658,1456.85L915.658,1467.76C914.506,1467.87 913.462,1467.94 912.526,1468.01L912.85,1471.68C916.09,1471.32 920.266,1470.93 924.442,1470.46L924.442,1473.56L928.438,1473.56L928.438,1470.35C929.194,1471.22 930.13,1472.58 930.562,1473.52C932.866,1472.66 934.954,1471.54 936.862,1470.06C938.698,1471.47 940.894,1472.51 943.342,1473.23C943.882,1472.22 944.998,1470.68 945.862,1469.92C943.558,1469.38 941.47,1468.52 939.706,1467.4C941.65,1465.17 943.162,1462.4 944.134,1459.08L941.47,1458.08Z" style="fill:rgb(255,254,0);fill-rule:nonzero;"/>
        <path d="M966.31,1448.25C966.166,1447.53 965.842,1446.59 965.41,1445.73L971.818,1445.73C971.53,1446.56 971.206,1447.46 970.882,1448.25L966.31,1448.25ZM975.598,1463.48C975.598,1463.91 975.49,1464.05 975.058,1464.05C974.806,1464.05 974.266,1464.05 973.618,1464.05L973.618,1457.97L970.234,1457.97L970.234,1455.95L974.518,1455.95L974.518,1453.36L970.234,1453.36L970.234,1451.49L975.598,1451.49L975.598,1463.48ZM970.666,1462.22L966.778,1462.22L966.778,1460.34L970.666,1460.34L970.666,1462.22ZM961.486,1445.87C961.882,1446.56 962.206,1447.46 962.422,1448.25L958.21,1448.25L958.21,1467.26L962.062,1467.26L962.062,1451.49L967.174,1451.49L967.174,1453.36L962.962,1453.36L962.962,1455.95L967.174,1455.95L967.174,1457.97L963.898,1457.97L963.898,1465.74L966.778,1465.74L966.778,1464.63L972.394,1464.63C972.79,1465.53 973.15,1466.64 973.294,1467.47C975.382,1467.47 976.966,1467.44 978.082,1466.86C979.27,1466.28 979.558,1465.31 979.558,1463.55L979.558,1448.25L974.77,1448.25C975.166,1447.49 975.598,1446.66 976.066,1445.73L980.35,1445.73L980.35,1442.42L970.666,1442.42C970.126,1441.41 969.406,1440.33 968.722,1439.46L965.338,1440.72C965.734,1441.23 966.094,1441.8 966.418,1442.42L957.274,1442.42L957.274,1445.73L962.098,1445.73L961.486,1445.87ZM955.51,1445.8C954.898,1444.22 953.854,1441.77 953.026,1439.86L949.282,1441.08C950.038,1443.06 951.154,1445.66 951.658,1447.31L955.51,1445.8ZM955.51,1456.13L954.898,1456.24L953.458,1456.24C954.322,1453.76 955.258,1450.88 956.014,1448.32L947.446,1448.32L947.446,1452.14L950.794,1452.14C949.894,1454.94 948.958,1457.82 948.094,1459.95L952.774,1459.95C952.306,1462.04 951.694,1464.23 950.938,1465.96C949.606,1466.68 948.166,1467.94 946.762,1469.63L949.606,1473.7C950.506,1471.65 951.802,1469.2 952.63,1469.2C953.35,1469.2 954.646,1470.39 956.158,1471.22C958.75,1472.73 961.774,1473.12 966.562,1473.12C970.774,1473.12 977.146,1472.87 980.098,1472.69C980.134,1471.54 980.854,1469.45 981.358,1468.3C977.362,1468.88 970.918,1469.24 966.778,1469.24C962.566,1469.24 959.182,1469.02 956.698,1467.54C955.834,1467 955.15,1466.54 954.574,1466.14C955.762,1463.44 956.662,1460.02 957.238,1456.74L955.51,1456.13Z" style="fill:rgb(255,254,0);fill-rule:nonzero;"/>
        <path d="M1006.45,1462.29L1006.45,1467.98L992.194,1467.98L992.194,1462.29L1006.45,1462.29ZM987.802,1473.52L992.194,1473.52L992.194,1471.94L1006.45,1471.94L1006.45,1473.38L1011.02,1473.38L1011.02,1458.51L987.802,1458.51L987.802,1473.52ZM993.454,1451.49C995.578,1449.94 997.558,1448.25 999.394,1446.34C1001.52,1448.43 1003.61,1450.08 1005.66,1451.49L993.454,1451.49ZM999.394,1439.75C995.614,1445.37 988.81,1449.72 982.186,1452.35C983.374,1453.43 984.634,1455.05 985.318,1456.28C986.938,1455.52 988.558,1454.62 990.142,1453.65L990.142,1455.41L1008.14,1455.41L1008.14,1453.07C1009.83,1454.04 1011.6,1454.91 1013.33,1455.74C1013.9,1454.4 1015.16,1452.82 1016.28,1451.81C1011.42,1450.05 1006.63,1447.6 1002.02,1443.32C1002.42,1442.81 1002.81,1442.27 1003.21,1441.73L999.394,1439.75Z" style="fill:rgb(255,254,0);fill-rule:nonzero;"/>
        <path d="M1024.77,1440.08C1022.97,1445.19 1019.84,1450.3 1016.6,1453.54C1017.32,1454.58 1018.51,1456.92 1018.91,1458C1019.7,1457.14 1020.53,1456.17 1021.32,1455.09L1021.32,1473.48L1025.42,1473.48L1025.42,1448.72C1026.75,1446.34 1027.91,1443.82 1028.84,1441.34L1024.77,1440.08ZM1031.43,1455.95C1030.61,1459.95 1029.09,1464.02 1027.04,1466.54C1028.09,1467.08 1029.89,1468.16 1030.71,1468.84C1032.73,1465.92 1034.57,1461.39 1035.61,1456.82L1031.43,1455.95ZM1046.41,1450.34C1046.23,1451.92 1046.01,1453.43 1045.83,1454.55L1049.47,1455.16C1049.97,1453.07 1050.59,1449.72 1051.02,1446.81L1047.99,1446.23L1047.31,1446.38L1034.93,1446.38C1035.57,1444.61 1036.15,1442.85 1036.62,1441.01L1032.44,1440.08C1031.22,1445.01 1029.06,1449.98 1026.32,1453.04C1027.29,1453.68 1029.02,1455.09 1029.78,1455.84C1030.97,1454.33 1032.15,1452.42 1033.16,1450.34L1037.34,1450.34L1037.34,1468.7C1037.34,1469.16 1037.16,1469.31 1036.69,1469.31C1036.19,1469.31 1034.67,1469.31 1033.16,1469.27C1033.81,1470.42 1034.46,1472.33 1034.64,1473.59C1036.94,1473.59 1038.67,1473.41 1039.93,1472.73C1041.23,1472.01 1041.59,1470.82 1041.59,1468.77L1041.59,1450.34L1046.41,1450.34ZM1042.88,1456.89C1044.61,1460.6 1046.12,1465.53 1046.52,1468.73L1050.62,1467.33C1050.12,1464.09 1048.57,1459.3 1046.7,1455.59L1042.88,1456.89Z" style="fill:rgb(255,254,0);fill-rule:nonzero;"/>
        <path d="M1057.89,1466.07L1057.89,1459.01L1063.62,1459.01L1063.62,1466.07L1057.89,1466.07ZM1063.62,1455.3L1057.89,1455.3L1057.89,1449.47L1063.62,1449.47L1063.62,1455.3ZM1075.03,1445.48C1075.57,1443.96 1076.07,1442.45 1076.43,1440.9L1072.37,1439.97C1071.32,1444.18 1069.59,1448.54 1067.51,1451.56L1067.51,1445.73L1061.93,1445.73C1062.54,1444.18 1063.19,1442.38 1063.8,1440.58L1059.12,1439.93C1058.97,1441.62 1058.54,1443.93 1058.07,1445.73L1054.01,1445.73L1054.01,1472.48L1057.89,1472.48L1057.89,1469.85L1067.51,1469.85L1067.51,1453.04C1068.48,1453.68 1069.7,1454.51 1070.28,1455.05C1071.39,1453.5 1072.51,1451.52 1073.45,1449.36L1081.15,1449.36C1080.75,1462.07 1080.29,1467.47 1079.24,1468.62C1078.77,1469.09 1078.38,1469.24 1077.66,1469.24C1076.72,1469.24 1074.6,1469.24 1072.29,1469.02C1073.05,1470.21 1073.63,1472.01 1073.7,1473.2C1075.82,1473.27 1077.98,1473.3 1079.35,1473.12C1080.79,1472.87 1081.8,1472.48 1082.81,1471.14C1084.28,1469.24 1084.68,1463.51 1085.15,1447.42C1085.18,1446.92 1085.18,1445.48 1085.18,1445.48L1075.03,1445.48ZM1079.21,1461.89C1078.09,1459.8 1075.71,1456.38 1073.91,1453.9L1070.57,1455.81C1072.33,1458.44 1074.56,1461.96 1075.57,1464.12L1079.21,1461.89Z" style="fill:rgb(255,254,0);fill-rule:nonzero;"/>
        <path d="M1109.63,1450.44L1114.59,1450.44C1114.13,1454.12 1113.37,1457.25 1112.18,1459.98C1110.99,1457.25 1110.06,1454.19 1109.45,1450.91L1109.63,1450.44ZM1121.15,1450.44L1121.15,1446.48L1110.92,1446.48C1111.43,1444.58 1111.89,1442.6 1112.22,1440.58L1107.97,1439.93C1107.18,1445.01 1105.74,1449.87 1103.51,1453.36L1103.51,1452.46L1099.4,1452.46L1099.4,1446.16L1104.51,1446.16L1104.51,1442.06L1088.03,1442.06L1088.03,1446.16L1095.23,1446.16L1095.23,1464.7L1092.92,1465.13L1092.92,1450.48L1089.07,1450.48L1089.07,1465.82L1087.2,1466.14L1087.95,1470.5C1092.56,1469.45 1098.93,1468.08 1104.84,1466.72L1104.48,1462.79C1102.79,1463.15 1101.09,1463.51 1099.4,1463.87L1099.4,1456.49L1103.51,1456.49L1103.51,1456.17C1104.3,1456.85 1105.05,1457.61 1105.49,1458.11C1105.92,1457.57 1106.35,1457 1106.75,1456.35C1107.54,1459.26 1108.47,1461.89 1109.7,1464.27C1107.9,1466.61 1105.49,1468.48 1102.35,1469.85C1103.15,1470.75 1104.41,1472.66 1104.77,1473.63C1107.79,1472.15 1110.17,1470.28 1112.11,1468.05C1113.84,1470.28 1115.93,1472.15 1118.55,1473.52C1119.17,1472.37 1120.5,1470.71 1121.47,1469.85C1118.73,1468.59 1116.5,1466.68 1114.74,1464.3C1116.79,1460.56 1118.09,1455.99 1118.91,1450.44L1121.15,1450.44Z" style="fill:rgb(255,254,0);fill-rule:nonzero;"/>
        <path d="M1128.13,1445.73L1150.67,1445.73L1150.67,1449.11L1154.88,1449.11L1154.88,1443.06L1149.37,1443.06C1149.91,1442.38 1150.52,1441.59 1151.17,1440.72L1146.6,1439.97C1146.2,1440.9 1145.48,1442.09 1144.83,1443.06L1141.56,1443.06L1141.56,1439.93L1137.2,1439.93L1137.2,1443.06L1134.25,1443.06C1133.85,1442.13 1133.06,1440.9 1132.38,1440.04L1128.38,1440.76C1128.85,1441.44 1129.32,1442.31 1129.71,1443.06L1124.1,1443.06L1124.1,1449.11L1128.13,1449.11L1128.13,1445.73ZM1133.82,1448.61L1144.87,1448.61L1144.87,1449.98L1133.82,1449.98L1133.82,1448.61ZM1148.94,1451.74L1148.94,1446.84L1129.97,1446.84L1129.97,1451.74L1148.94,1451.74ZM1134.43,1458.29L1136.05,1457.43C1135.76,1456.74 1135.08,1455.7 1134.43,1454.98L1132.09,1456.13C1132.59,1456.78 1133.1,1457.61 1133.46,1458.29L1130.94,1458.29L1130.94,1454.8L1137.2,1454.8L1137.2,1458.29L1134.43,1458.29ZM1148.22,1458.29L1144.47,1458.29L1146.81,1455.95L1144.11,1454.91C1143.75,1455.66 1142.96,1456.82 1142.39,1457.61L1144.01,1458.29L1141.34,1458.29L1141.34,1454.8L1148.22,1454.8L1148.22,1458.29ZM1155.49,1464.99L1141.34,1464.99L1141.34,1463.84L1153.51,1463.84L1153.51,1461.46L1141.34,1461.46L1141.34,1460.34L1152.36,1460.34L1152.36,1452.82L1127.01,1452.82L1127.01,1460.34L1137.2,1460.34L1137.2,1461.46L1126.04,1461.46L1126.04,1463.84L1137.2,1463.84L1137.2,1464.99L1123.49,1464.99L1123.49,1467.54L1155.49,1467.54L1155.49,1464.99ZM1127.05,1473.56C1128.78,1472.44 1130.54,1470.64 1131.59,1468.88L1127.59,1467.72C1126.62,1469.38 1124.85,1471.07 1123.23,1471.94L1127.05,1473.56ZM1133.49,1468.91C1133.78,1470.32 1134.03,1472.15 1134.11,1473.3L1138.14,1472.87C1138.07,1471.79 1137.71,1469.99 1137.38,1468.62L1133.49,1468.91ZM1140.66,1468.95C1141.23,1470.28 1141.77,1472.08 1141.99,1473.12L1146.2,1472.51C1145.95,1471.43 1145.27,1469.7 1144.69,1468.48L1140.66,1468.95ZM1147.35,1468.91C1148.87,1470.35 1150.74,1472.37 1151.53,1473.63L1155.85,1472.44C1154.88,1471.11 1152.93,1469.16 1151.42,1467.87L1147.35,1468.91Z" style="fill:rgb(255,254,0);fill-rule:nonzero;"/>
    </g>
    <g transform="matrix(-0.968914,-0.0287624,0.0296722,-0.99956,2981.94,1685.32)">
        <path d="M2086.92,1362.96L2077.09,1388.64L1918.35,1438.77L1928.53,1495.77L2307.2,1388.1L2294.02,1335.3L2103.62,1377.78L2086.92,1362.96Z" style="fill:rgb(187,184,26);fill-opacity:0.301961;stroke-width:4.57px;stroke:rgb(255,254,0);"/>
    </g>
    <g transform="matrix(1.91485,0,0,1.91485,558.366,279.902)">
        <g transform="matrix(1.65937,0,0,1.65937,-0.659366,-0.659366)">
            <path d="M146.75,12.75C146.75,19.239 141.489,24.5 135,24.5C128.511,24.5 123.25,19.239 123.25,12.75C123.25,6.261 128.511,1 135,1C141.489,1 146.75,6.261 146.75,12.75Z" style="fill:none;stroke-width:1.42px;stroke-linecap:round;stroke-miterlimit:10;stroke:black;"/>
        </g>
        <g transform="matrix(1.65937,0,0,1.65937,-0.659366,-0.659366)">
            <path d="M142.396,9.458C142.396,10.425 141.613,11.208 140.646,11.208C139.68,11.208 138.896,10.425 138.896,9.458C138.896,8.492 139.68,7.708 140.646,7.708C141.613,7.708 142.396,8.492 142.396,9.458Z" style="fill:none;stroke-width:1.42px;stroke-linecap:round;stroke-miterlimit:10;stroke:black;"/>
        </g>
        <g transform="matrix(1.65937,0,0,1.65937,-0.659366,-0.659366)">
            <path d="M136.75,5.917C136.75,6.883 135.966,7.667 135,7.667C134.034,7.667 133.25,6.883 133.25,5.917C133.25,4.95 134.034,4.167 135,4.167C135.966,4.167 136.75,4.95 136.75,5.917Z" style="fill:none;stroke-width:1.42px;stroke-linecap:round;stroke-miterlimit:10;stroke:black;"/>
        </g>
        <g transform="matrix(1.65937,0,0,1.65937,-0.659366,-0.659366)">
            <path d="M130.875,9.458C130.875,10.425 130.091,11.208 129.125,11.208C128.159,11.208 127.375,10.425 127.375,9.458C127.375,8.492 128.159,7.708 129.125,7.708C130.091,7.708 130.875,8.492 130.875,9.458Z" style="fill:none;stroke-width:1.42px;stroke-linecap:round;stroke-miterlimit:10;stroke:black;"/>
        </g>
        <g transform="matrix(1.65937,0,0,1.65937,-0.659366,-0.659366)">
            <path d="M130.958,16.25C130.958,17.216 130.175,18 129.208,18C128.242,18 127.458,17.216 127.458,16.25C127.458,15.284 128.242,14.5 129.208,14.5C130.175,14.5 130.958,15.284 130.958,16.25Z" style="fill:none;stroke-width:1.42px;stroke-linecap:round;stroke-miterlimit:10;stroke:black;"/>
        </g>
        <g transform="matrix(1.65937,0,0,1.65937,-0.659366,-0.659366)">
            <path d="M142.396,16.25C142.396,17.216 141.613,18 140.646,18C139.68,18 138.896,17.216 138.896,16.25C138.896,15.284 139.68,14.5 140.646,14.5C141.613,14.5 142.396,15.284 142.396,16.25Z" style="fill:none;stroke-width:1.42px;stroke-linecap:round;stroke-miterlimit:10;stroke:black;"/>
        </g>
        <g transform="matrix(1.65937,0,0,1.65937,-0.659366,-0.659366)">
            <path d="M136.75,19.729C136.75,20.695 135.966,21.479 135,21.479C134.034,21.479 133.25,20.695 133.25,19.729C133.25,18.762 134.034,17.979 135,17.979C135.966,17.979 136.75,18.762 136.75,19.729Z" style="fill:none;stroke-width:1.42px;stroke-linecap:round;stroke-miterlimit:10;stroke:black;"/>
        </g>
    </g>
    <g transform="matrix(1,0,0,1,-600.41,-841.124)">
        <path d="M1514.67,1224.57L1506.99,1224.57L1506.99,1223.09L1514.67,1223.09L1514.67,1224.57ZM1506.99,1228.65L1506.99,1227.29L1514.67,1227.29L1514.67,1228.65L1506.99,1228.65ZM1494.79,1228.65L1494.79,1227.29L1502.59,1227.29L1502.59,1228.65L1494.79,1228.65ZM1502.59,1223.09L1502.59,1224.57L1494.79,1224.57L1494.79,1223.09L1502.59,1223.09ZM1496.11,1218.61C1498.03,1219.05 1500.35,1219.65 1502.51,1220.21L1490.39,1220.21L1490.39,1235.05L1494.79,1235.05L1494.79,1231.29L1502.59,1231.29L1502.59,1233.77L1506.99,1233.77L1506.99,1231.29L1514.67,1231.29L1514.67,1231.69C1514.67,1232.21 1514.51,1232.37 1513.91,1232.37C1513.43,1232.41 1511.47,1232.41 1509.91,1232.33C1510.43,1233.17 1511.07,1234.41 1511.39,1235.41C1514.07,1235.45 1515.95,1235.41 1517.35,1234.97C1518.83,1234.45 1519.27,1233.81 1519.27,1231.85L1519.27,1220.21L1510.43,1220.21L1511.15,1219.41L1510.07,1219.09C1513.23,1217.81 1516.39,1216.25 1518.99,1214.69L1516.11,1212.05L1515.11,1212.29L1489.83,1212.29L1489.83,1215.85L1509.19,1215.85C1507.83,1216.53 1506.27,1217.21 1504.79,1217.73C1502.55,1217.21 1500.19,1216.69 1498.27,1216.29L1496.11,1218.61ZM1506.19,1236.29C1506.35,1235.69 1506.43,1235.09 1506.55,1234.45L1501.79,1234.45C1501.67,1235.09 1501.55,1235.69 1501.39,1236.29L1489.07,1236.29L1489.07,1240.09L1499.43,1240.09C1497.47,1242.09 1493.95,1243.49 1487.19,1244.33C1488.03,1245.33 1489.03,1247.09 1489.39,1248.25C1498.75,1246.73 1502.87,1244.09 1504.91,1240.09L1515.11,1240.09C1514.75,1242.13 1514.31,1243.25 1513.83,1243.65C1513.43,1243.93 1513.03,1244.01 1512.39,1244.01C1511.59,1244.01 1509.71,1243.97 1507.91,1243.81C1508.59,1244.93 1509.07,1246.61 1509.15,1247.81C1511.31,1247.93 1513.35,1247.89 1514.51,1247.81C1515.83,1247.69 1516.87,1247.45 1517.79,1246.53C1518.91,1245.53 1519.67,1243.05 1520.31,1238.13C1520.43,1237.49 1520.51,1236.29 1520.51,1236.29L1506.19,1236.29Z" style="fill:black;fill-rule:nonzero;"/>
        <path d="M1544.43,1219.21L1550.95,1219.21C1549.59,1220.49 1548.15,1221.69 1546.63,1222.85L1544.43,1222.85L1544.43,1219.21ZM1553.15,1236.69L1539.39,1236.69L1539.39,1234.13L1553.15,1234.13L1553.15,1236.69ZM1539.39,1243.01L1539.39,1240.29L1553.15,1240.29L1553.15,1243.01L1539.39,1243.01ZM1562.71,1227.05L1562.71,1222.85L1553.43,1222.85C1556.35,1220.17 1559.03,1217.21 1561.31,1214.05L1557.23,1211.97C1555.99,1213.73 1554.63,1215.41 1553.11,1217.05L1553.11,1215.09L1544.43,1215.09L1544.43,1210.77L1539.71,1210.77L1539.71,1215.09L1530.31,1215.09L1530.31,1219.21L1539.71,1219.21L1539.71,1222.85L1526.87,1222.85L1526.87,1227.05L1540.47,1227.05C1535.87,1229.77 1530.83,1232.05 1525.59,1233.69C1526.51,1234.65 1527.91,1236.57 1528.51,1237.61C1530.55,1236.85 1532.63,1235.97 1534.63,1235.09L1534.63,1248.17L1539.39,1248.17L1539.39,1246.97L1553.15,1246.97L1553.15,1248.01L1558.11,1248.01L1558.11,1230.25L1543.59,1230.25C1545.23,1229.21 1546.75,1228.17 1548.31,1227.05L1562.71,1227.05Z" style="fill:black;fill-rule:nonzero;"/>
        <path d="M1601.79,1213.41L1595.55,1213.41C1595.27,1212.49 1594.91,1211.49 1594.55,1210.69L1590.39,1211.45C1590.59,1212.05 1590.83,1212.73 1591.03,1213.41L1585.23,1213.41L1585.23,1217.01L1601.79,1217.01L1601.79,1213.41ZM1602.63,1221.09L1598.39,1221.09C1598.83,1220.09 1599.31,1219.05 1599.79,1217.89L1595.67,1217.21C1595.43,1218.33 1594.95,1219.81 1594.51,1221.09L1592.03,1221.09C1591.71,1219.89 1591.19,1218.49 1590.67,1217.29L1586.95,1218.05C1587.31,1218.97 1587.63,1220.05 1587.95,1221.09L1584.79,1221.09L1584.79,1224.81L1602.63,1224.81L1602.63,1221.09ZM1583.99,1213.41L1578.11,1213.41C1577.79,1212.49 1577.43,1211.41 1577.03,1210.57L1572.83,1211.41C1573.07,1212.01 1573.31,1212.69 1573.55,1213.41L1567.47,1213.41L1567.47,1217.01L1583.99,1217.01L1583.99,1213.41ZM1584.15,1221.13L1580.99,1221.13L1582.35,1217.93L1578.11,1217.21C1577.91,1218.37 1577.43,1219.85 1577.03,1221.13L1574.39,1221.13C1574.03,1219.89 1573.47,1218.45 1572.95,1217.25L1569.19,1218.05C1569.55,1219.01 1569.95,1220.09 1570.27,1221.13L1566.75,1221.13L1566.75,1224.81L1584.15,1224.81L1584.15,1221.13ZM1572.35,1229.25L1578.71,1229.25L1578.71,1232.29L1572.35,1232.29L1572.35,1229.25ZM1580.79,1239.93L1580.79,1235.33L1582.87,1235.33L1582.87,1226.17L1568.47,1226.17L1568.47,1235.33L1570.87,1235.33C1570.55,1239.25 1569.67,1242.57 1565.91,1244.69C1566.87,1245.37 1568.07,1246.97 1568.55,1247.97C1573.27,1245.17 1574.51,1240.73 1574.99,1235.33L1576.75,1235.33L1576.75,1239.97C1576.75,1241.41 1576.27,1241.97 1575.63,1242.33C1576.23,1243.33 1576.83,1245.25 1577.11,1246.45L1577.15,1246.77C1577.79,1246.05 1578.87,1245.29 1584.67,1241.89C1584.35,1241.09 1583.95,1239.41 1583.79,1238.29L1580.79,1239.93ZM1589.55,1229.25L1596.91,1229.25L1596.91,1232.21L1589.55,1232.21L1589.55,1229.25ZM1598.59,1244.05C1598.35,1244.05 1598.19,1244.01 1598.07,1243.89C1597.95,1243.69 1597.95,1243.37 1597.95,1242.81L1597.95,1235.29L1601.07,1235.29L1601.07,1226.21L1585.67,1226.21L1585.67,1235.29L1588.03,1235.29C1587.63,1239.57 1586.51,1242.97 1581.71,1245.05C1582.59,1245.77 1583.71,1247.33 1584.19,1248.37C1590.07,1245.57 1591.59,1241.05 1592.15,1235.29L1593.75,1235.29L1593.75,1242.69C1593.75,1245.17 1594.03,1245.97 1594.75,1246.61C1595.39,1247.29 1596.51,1247.57 1597.47,1247.57L1599.67,1247.57C1600.35,1247.57 1601.31,1247.45 1601.87,1247.17C1602.47,1246.89 1602.99,1246.37 1603.27,1245.69C1603.55,1245.01 1603.75,1243.33 1603.83,1241.81C1602.75,1241.45 1601.31,1240.73 1600.59,1240.05C1600.55,1241.49 1600.51,1242.61 1600.43,1243.13C1600.31,1243.61 1600.19,1243.85 1600.03,1243.93C1599.91,1244.01 1599.63,1244.05 1599.39,1244.05L1598.59,1244.05Z" style="fill:black;fill-rule:nonzero;"/>
        <path d="M1619.47,1227.77L1615.79,1228.69L1615.79,1222.77L1619.71,1222.77L1619.71,1218.37L1615.79,1218.37L1615.79,1210.77L1611.07,1210.77L1611.07,1218.37L1606.47,1218.37L1606.47,1222.77L1611.07,1222.77L1611.07,1229.85C1609.15,1230.33 1607.43,1230.73 1605.95,1231.01L1607.19,1235.53L1611.07,1234.57L1611.07,1242.81C1611.07,1243.41 1610.91,1243.61 1610.31,1243.61C1609.79,1243.61 1608.15,1243.61 1606.59,1243.57C1607.15,1244.81 1607.75,1246.69 1607.95,1247.89C1610.75,1247.89 1612.67,1247.77 1613.99,1247.05C1615.35,1246.29 1615.79,1245.17 1615.79,1242.85L1615.79,1233.29C1617.23,1232.93 1618.67,1232.53 1620.07,1232.13L1619.47,1227.77ZM1636.19,1229.93C1634.99,1232.65 1633.27,1235.01 1631.19,1237.01C1629.19,1234.97 1627.59,1232.57 1626.47,1229.93L1636.19,1229.93ZM1639.19,1225.45L1638.35,1225.65L1633.55,1225.65L1633.55,1220.85L1642.51,1220.85L1642.51,1216.45L1633.55,1216.45L1633.55,1210.73L1628.83,1210.73L1628.83,1216.45L1620.23,1216.45L1620.23,1220.85L1628.83,1220.85L1628.83,1225.65L1620.95,1225.65L1620.95,1229.93L1623.03,1229.93L1621.83,1230.29C1623.27,1233.97 1625.15,1237.13 1627.51,1239.81C1624.71,1241.61 1621.47,1242.89 1617.95,1243.73C1618.83,1244.77 1619.99,1246.77 1620.51,1248.05C1624.39,1246.89 1627.91,1245.29 1631.03,1243.13C1633.79,1245.37 1637.11,1247.01 1640.99,1248.17C1641.67,1246.93 1643.03,1245.01 1644.03,1244.05C1640.47,1243.17 1637.39,1241.85 1634.79,1240.01C1638.15,1236.65 1640.71,1232.29 1642.23,1226.73L1639.19,1225.45Z" style="fill:black;fill-rule:nonzero;"/>
        <path d="M1676.35,1216.97L1666.03,1216.97L1666.03,1215.05L1676.35,1215.05L1676.35,1216.97ZM1676.35,1222.01L1666.03,1222.01L1666.03,1220.09L1676.35,1220.09L1676.35,1222.01ZM1680.75,1211.77L1661.83,1211.77L1661.83,1225.29L1680.75,1225.29L1680.75,1211.77ZM1683.47,1230.81L1683.47,1226.81L1658.31,1226.81L1658.31,1230.81L1662.83,1230.81C1661.83,1232.37 1660.59,1233.81 1659.15,1235.05L1658.31,1231.65L1655.11,1233.05L1655.11,1223.61L1658.87,1223.61L1658.87,1219.13L1655.11,1219.13L1655.11,1211.25L1650.71,1211.25L1650.71,1219.13L1646.71,1219.13L1646.71,1223.61L1650.71,1223.61L1650.71,1234.89C1648.83,1235.65 1647.15,1236.33 1645.79,1236.85L1647.55,1241.65C1649.99,1240.45 1652.87,1239.01 1655.75,1237.57C1656.75,1238.21 1658.27,1239.61 1658.87,1240.37C1660.51,1239.33 1662.07,1237.97 1663.51,1236.45L1665.91,1236.45C1663.79,1239.41 1660.71,1242.21 1657.75,1243.69C1658.87,1244.37 1660.11,1245.57 1660.87,1246.49C1664.35,1244.29 1668.07,1240.29 1670.23,1236.45L1672.59,1236.45C1670.87,1240.17 1668.19,1243.73 1665.15,1245.65C1666.35,1246.29 1667.71,1247.37 1668.51,1248.29C1671.75,1245.77 1674.87,1240.93 1676.51,1236.45L1678.07,1236.45C1677.63,1241.29 1677.15,1243.33 1676.59,1243.93C1676.27,1244.29 1675.95,1244.37 1675.39,1244.37C1674.87,1244.37 1673.83,1244.37 1672.55,1244.25C1673.15,1245.25 1673.55,1246.85 1673.63,1247.97C1675.23,1248.05 1676.75,1248.01 1677.67,1247.89C1678.67,1247.77 1679.55,1247.45 1680.31,1246.53C1681.39,1245.37 1682.03,1242.17 1682.59,1234.37C1682.63,1233.81 1682.67,1232.73 1682.67,1232.73L1666.43,1232.73C1666.83,1232.09 1667.23,1231.45 1667.55,1230.81L1683.47,1230.81Z" style="fill:black;fill-rule:nonzero;"/>
    </g>
    <g transform="matrix(0.965926,-0.258819,0.258819,0.965926,-365.552,-936.786)">
        <path d="M852.46,1442.2L851.524,1442.45L826.54,1442.45L826.54,1446.66L847.312,1446.66C844.936,1448.79 841.84,1451.09 839.032,1452.57L839.032,1468.52C839.032,1469.13 838.744,1469.34 837.952,1469.34C837.16,1469.34 834.208,1469.38 831.652,1469.27C832.336,1470.42 833.164,1472.33 833.38,1473.59C836.836,1473.63 839.392,1473.52 841.192,1472.87C842.956,1472.22 843.532,1471.07 843.532,1468.62L843.532,1454.73C848.032,1452.06 852.604,1448.25 855.916,1444.72L852.46,1442.2Z" style="fill:rgb(255,254,0);fill-rule:nonzero;"/>
        <path d="M875.68,1452.1C876.364,1452.82 877.084,1453.83 877.408,1454.55C877.66,1454.44 877.912,1454.3 878.164,1454.19C877.732,1456.74 876.868,1459.37 875.68,1461.21L875.68,1452.1ZM870.136,1460.99L870.136,1458L872.188,1458L872.188,1460.99L870.136,1460.99ZM865.276,1458L867.328,1458L867.328,1460.99L865.24,1460.99C865.276,1460.16 865.276,1459.37 865.276,1458.62L865.276,1458ZM869.056,1446.52C868.732,1447.42 868.408,1448.36 868.048,1449.15L864.952,1449.15C865.384,1448.32 865.78,1447.42 866.176,1446.52L869.056,1446.52ZM870.136,1452.28L872.188,1452.28L872.188,1454.98L870.136,1454.98L870.136,1452.28ZM865.276,1452.28L867.328,1452.28L867.328,1454.98L865.276,1454.98L865.276,1452.28ZM893.104,1463.8L886.984,1463.8L886.984,1460.56L892.384,1460.56L892.384,1456.96L886.984,1456.96L886.984,1453.72L882.916,1453.72L882.916,1456.96L881.152,1456.96C881.368,1456.2 881.512,1455.41 881.656,1454.66L878.452,1454.01C882.124,1451.99 883.492,1449 884.104,1445.26L888.28,1445.26C888.136,1448.25 887.956,1449.47 887.632,1449.87C887.38,1450.19 887.092,1450.26 886.66,1450.26C886.156,1450.26 885.184,1450.23 884.068,1450.12C884.608,1451.02 884.968,1452.46 885.04,1453.58C886.48,1453.61 887.884,1453.58 888.676,1453.47C889.576,1453.32 890.26,1453.04 890.872,1452.28C891.664,1451.34 891.952,1448.86 892.132,1443.14C892.168,1442.67 892.204,1441.77 892.204,1441.77L876.22,1441.77L876.22,1445.26L880.252,1445.26C879.748,1447.89 878.668,1449.98 875.68,1451.34L875.68,1449.15L871.648,1449.15C872.404,1447.67 873.124,1446.02 873.628,1444.61L871.18,1443.1L870.64,1443.28L867.364,1443.28C867.652,1442.45 867.904,1441.59 868.12,1440.72L864.34,1439.93C863.368,1444.14 861.46,1448.36 859.012,1450.98C859.768,1451.49 861.1,1452.57 861.82,1453.29L861.82,1458.62C861.82,1462.65 861.64,1468.01 859.228,1471.72C860.02,1472.08 861.568,1473.05 862.18,1473.63C863.836,1471.04 864.664,1467.54 865.024,1464.16L872.188,1464.16L872.188,1469.34C872.188,1469.81 872.008,1469.96 871.576,1469.96C871.144,1469.96 869.74,1469.96 868.3,1469.88C868.84,1470.86 869.416,1472.48 869.524,1473.52C871.72,1473.52 873.196,1473.41 874.312,1472.8C875.392,1472.19 875.68,1471.11 875.68,1469.42L875.68,1461.82C876.58,1462.22 877.876,1462.9 878.488,1463.33C879.028,1462.54 879.496,1461.6 879.928,1460.56L882.916,1460.56L882.916,1463.8L876.256,1463.8L876.256,1467.47L882.916,1467.47L882.916,1473.41L886.984,1473.41L886.984,1467.47L893.104,1467.47L893.104,1463.8Z" style="fill:rgb(255,254,0);fill-rule:nonzero;"/>
        <path d="M901.276,1460.13C904.84,1459.08 908.368,1457.75 911.572,1456.02C914.596,1457.75 917.944,1459.08 921.508,1460.13L901.276,1460.13ZM904.84,1468.52L904.84,1464.02L917.872,1464.02L917.872,1468.52L904.84,1468.52ZM917.08,1447.06C915.568,1448.64 913.696,1450.01 911.572,1451.31C909.484,1450.01 907.576,1448.61 906.064,1447.06L917.08,1447.06ZM921.076,1443.17L920.356,1443.39L908.944,1443.39C909.52,1442.6 910.024,1441.77 910.528,1440.98L906.46,1439.57C903.976,1443.93 899.584,1447.89 895.012,1450.26C895.912,1450.98 897.496,1452.6 898.18,1453.47C899.872,1452.39 901.6,1451.13 903.22,1449.65C904.552,1451.02 905.992,1452.28 907.54,1453.43C903.4,1455.3 898.756,1456.71 894.292,1457.54C895.048,1458.51 895.948,1460.24 896.38,1461.39C897.748,1461.1 899.116,1460.74 900.484,1460.34L900.484,1473.63L904.84,1473.63L904.84,1472.3L917.872,1472.3L917.872,1473.48L922.48,1473.48L922.48,1460.38C923.596,1460.67 924.676,1460.96 925.828,1461.17C926.44,1459.98 927.664,1458.15 928.6,1457.18C924.028,1456.46 919.672,1455.2 915.856,1453.5C919.24,1451.2 922.12,1448.43 924.172,1445.15L921.076,1443.17Z" style="fill:rgb(255,254,0);fill-rule:nonzero;"/>
        <path d="M937.924,1460.16L937.924,1452.28L941.272,1452.28L941.272,1448.21L937.924,1448.21L937.924,1440.4L933.964,1440.4L933.964,1448.21L930.076,1448.21L930.076,1452.28L933.964,1452.28L933.964,1461.82C932.2,1462.54 930.616,1463.12 929.284,1463.58L931.012,1467.9C934.288,1466.43 938.32,1464.48 942.064,1462.65L941.092,1458.83L937.924,1460.16ZM950.2,1469.06C948.004,1469.06 947.68,1468.73 947.68,1466.64L947.68,1455.52L950.668,1454.22L950.668,1465.2L954.664,1465.2L954.664,1452.5L957.436,1451.27C957.292,1455.52 957.004,1460.09 956.608,1463.01L960.1,1463.98C960.964,1459.66 961.468,1453.11 961.684,1448.1L961.828,1447.46L958.588,1446.41L954.664,1448.1L954.664,1439.9L950.668,1439.9L950.668,1449.83L947.68,1451.09L947.68,1443.39L943.576,1443.39L943.576,1452.86L940.048,1454.37L941.632,1458.15L943.576,1457.32L943.576,1466.61C943.576,1471.54 944.98,1472.87 949.84,1472.87L957.508,1472.87C961.72,1472.87 962.944,1471.14 963.52,1466.1C962.332,1465.89 960.712,1465.2 959.776,1464.56C959.452,1468.23 959.092,1469.06 957.148,1469.06L950.2,1469.06Z" style="fill:rgb(255,254,0);fill-rule:nonzero;"/>
        <path d="M971.08,1440.04C969.64,1445.26 967.12,1450.52 964.384,1453.97C965.068,1455.09 966.148,1457.54 966.472,1458.58C967.048,1457.86 967.624,1457.07 968.2,1456.2L968.2,1473.56L972.268,1473.56L972.268,1448.68C973.312,1446.23 974.284,1443.64 975.04,1441.19L971.08,1440.04ZM977.812,1447.17L974.104,1447.17L974.104,1466.43L977.812,1466.43L977.812,1447.17ZM998.296,1464.59L998.296,1460.99L990.7,1460.99L990.7,1457.57L997.252,1457.57L997.252,1454.04L985.408,1454.04C985.66,1453.4 985.876,1452.78 986.092,1452.17L982.708,1451.38L998.152,1451.38L998.152,1447.82L994.696,1447.82C995.056,1445.84 995.38,1443.68 995.596,1441.62L992.572,1441.26L991.96,1441.44L980.44,1441.44L980.44,1444.97L991.096,1444.97C990.952,1445.91 990.808,1446.88 990.664,1447.82L978.82,1447.82L978.82,1451.38L982.204,1451.38C981.376,1454.12 979.864,1456.92 978.1,1458.76C979.036,1459.23 980.62,1460.24 981.412,1460.88C982.204,1459.95 982.996,1458.87 983.716,1457.57L986.38,1457.57L986.38,1460.99L978.892,1460.99L978.892,1464.59L985.66,1464.59C984.652,1466.72 982.348,1468.91 977.02,1470.5C977.992,1471.29 979.252,1472.76 979.864,1473.63C986.38,1471.22 989.152,1467.87 990.196,1464.59L998.296,1464.59ZM989.404,1467.08C991.528,1469.06 994.408,1471.83 995.812,1473.45L998.872,1470.89C997.324,1469.27 994.336,1466.68 992.32,1464.84L989.404,1467.08Z" style="fill:rgb(255,254,0);fill-rule:nonzero;"/>
        <path d="M1019,1458L1023.03,1458L1023.03,1460.2L1019,1460.2L1019,1458ZM1032.86,1460.2L1027.02,1460.2L1027.02,1458L1031.45,1458L1031.45,1454.87L1027.02,1454.87L1027.02,1452.96L1023.03,1452.96L1023.03,1454.87L1019,1454.87L1019,1452.96L1015.11,1452.96L1015.11,1454.87L1010.75,1454.87L1010.75,1458L1015.11,1458L1015.11,1460.2L1009.49,1460.2L1009.49,1463.33L1015.9,1463.33C1014.35,1464.41 1012.05,1465.38 1009.82,1466.07C1010.75,1466.64 1012.26,1467.94 1013.02,1468.66C1015.4,1467.65 1018.31,1465.96 1020.11,1464.3L1017.34,1463.33L1024.4,1463.33L1022.27,1464.74C1024.47,1465.82 1026.77,1467.4 1028.07,1468.48L1031.88,1466.72C1030.48,1465.71 1028.18,1464.41 1026.02,1463.33L1032.86,1463.33L1032.86,1460.2ZM1028.46,1443.78L1028.46,1445.4L1025.15,1445.4L1025.15,1443.78L1028.46,1443.78ZM1029.87,1452.46C1030.84,1452.46 1031.92,1452.39 1032.5,1452.21C1032.39,1451.42 1032.28,1450.23 1032.21,1449.33C1031.63,1449.51 1030.44,1449.54 1029.76,1449.54L1026.05,1449.54C1025.3,1449.54 1025.15,1449.18 1025.15,1448.21L1025.15,1448L1032.06,1448L1032.06,1441.16L1021.8,1441.16L1021.8,1448.14C1021.8,1451.24 1022.56,1452.46 1025.84,1452.46L1029.87,1452.46ZM1017.02,1443.75L1017.02,1445.37L1013.74,1445.37L1013.74,1443.75L1017.02,1443.75ZM1013.74,1449.69L1013.74,1447.96L1020.58,1447.96L1020.58,1441.12L1010.43,1441.12L1010.43,1448C1010.43,1449.44 1009.82,1450.05 1009.24,1450.34C1009.78,1451.09 1010.46,1452.64 1010.64,1453.5C1011.33,1453.14 1012.52,1452.89 1019.68,1451.78C1019.75,1451.02 1020.04,1449.65 1020.36,1448.79L1013.74,1449.69ZM1008.05,1446.09C1007.51,1444.47 1006.58,1441.98 1005.89,1440.04L1002,1441.08C1002.65,1443.06 1003.59,1445.69 1004.06,1447.35L1008.05,1446.09ZM1007.01,1456.13L1006.4,1456.24L1006,1456.24C1006.83,1453.72 1007.69,1450.84 1008.41,1448.32L1000.1,1448.32L1000.1,1452.14L1003.23,1452.14C1002.4,1454.94 1001.5,1457.82 1000.71,1459.95L1005.06,1459.95C1004.45,1462.5 1003.41,1465.1 1002,1467C1001.18,1467.69 1000.28,1468.59 999.412,1469.63L1002.26,1473.7C1003.16,1471.65 1004.45,1469.2 1005.24,1469.2C1006,1469.2 1007.3,1470.39 1008.77,1471.22C1011.4,1472.73 1014.42,1473.12 1019.18,1473.12C1023.39,1473.12 1029.76,1472.87 1032.71,1472.69C1032.78,1471.54 1033.47,1469.45 1033.94,1468.3C1029.94,1468.88 1023.53,1469.24 1019.39,1469.24C1015.22,1469.24 1011.83,1469.02 1009.35,1467.54C1008.27,1466.9 1007.51,1466.32 1006.86,1465.92C1008.12,1463.33 1008.95,1460.24 1009.46,1457.14L1007.01,1456.13Z" style="fill:rgb(255,254,0);fill-rule:nonzero;"/>
        <path d="M1048.91,1439.97C1048.77,1446.05 1049.45,1462.18 1034.84,1469.99C1036.28,1470.96 1037.64,1472.33 1038.4,1473.48C1045.89,1469.09 1049.67,1462.58 1051.65,1456.24C1053.74,1462.43 1057.73,1469.45 1065.72,1473.27C1066.3,1472.04 1067.52,1470.6 1068.86,1469.56C1056.29,1464.02 1054.1,1450.44 1053.59,1445.58C1053.74,1443.42 1053.81,1441.48 1053.84,1439.97L1048.91,1439.97Z" style="fill:rgb(255,254,0);fill-rule:nonzero;"/>
        <path d="M1075.44,1466.07L1075.44,1459.01L1081.17,1459.01L1081.17,1466.07L1075.44,1466.07ZM1081.17,1455.3L1075.44,1455.3L1075.44,1449.47L1081.17,1449.47L1081.17,1455.3ZM1092.58,1445.48C1093.12,1443.96 1093.62,1442.45 1093.98,1440.9L1089.92,1439.97C1088.87,1444.18 1087.14,1448.54 1085.06,1451.56L1085.06,1445.73L1079.48,1445.73C1080.09,1444.18 1080.74,1442.38 1081.35,1440.58L1076.67,1439.93C1076.52,1441.62 1076.09,1443.93 1075.62,1445.73L1071.56,1445.73L1071.56,1472.48L1075.44,1472.48L1075.44,1469.85L1085.06,1469.85L1085.06,1453.04C1086.03,1453.68 1087.25,1454.51 1087.83,1455.05C1088.94,1453.5 1090.06,1451.52 1091,1449.36L1098.7,1449.36C1098.3,1462.07 1097.84,1467.47 1096.79,1468.62C1096.32,1469.09 1095.93,1469.24 1095.21,1469.24C1094.27,1469.24 1092.15,1469.24 1089.84,1469.02C1090.6,1470.21 1091.18,1472.01 1091.25,1473.2C1093.37,1473.27 1095.53,1473.3 1096.9,1473.12C1098.34,1472.87 1099.35,1472.48 1100.36,1471.14C1101.83,1469.24 1102.23,1463.51 1102.7,1447.42C1102.73,1446.92 1102.73,1445.48 1102.73,1445.48L1092.58,1445.48ZM1096.76,1461.89C1095.64,1459.8 1093.26,1456.38 1091.46,1453.9L1088.12,1455.81C1089.88,1458.44 1092.11,1461.96 1093.12,1464.12L1096.76,1461.89Z" style="fill:rgb(255,254,0);fill-rule:nonzero;"/>
        <path d="M1126.17,1450.08L1120.73,1450.08L1120.73,1454.04L1136.39,1454.04L1136.39,1450.08L1130.42,1450.08L1130.42,1447.02L1137.62,1447.02L1137.62,1443.14L1130.42,1443.14L1130.42,1439.93L1126.17,1439.93L1126.17,1443.14L1119.4,1443.14L1119.4,1447.02L1126.17,1447.02L1126.17,1450.08ZM1118.28,1457.36L1115.3,1458.04L1115.3,1451.02L1118.39,1451.02L1118.39,1446.95L1115.3,1446.95L1115.3,1439.97L1111.23,1439.97L1111.23,1446.95L1109.79,1446.95C1109.97,1445.69 1110.11,1444.47 1110.22,1443.21L1106.98,1442.7C1106.66,1447.1 1105.97,1451.74 1104.82,1454.66C1105.61,1454.91 1107.12,1455.48 1107.84,1455.81C1108.35,1454.51 1108.78,1452.82 1109.14,1451.02L1111.23,1451.02L1111.23,1458.94C1109.07,1459.37 1107.02,1459.8 1105.43,1460.09L1106.48,1464.45L1111.23,1463.22L1111.23,1473.56L1115.3,1473.56L1115.3,1462.22L1118.75,1461.32L1118.28,1457.36ZM1120.91,1463.3C1122.46,1465.02 1124.26,1467.44 1125.02,1468.95L1128.4,1466.75C1127.54,1465.24 1125.63,1462.94 1124.08,1461.35L1120.91,1463.3ZM1138.41,1457.32L1134.95,1457.32L1134.95,1454.8L1130.7,1454.8L1130.7,1457.32L1119.26,1457.32L1119.26,1461.24L1130.7,1461.24L1130.7,1468.66C1130.7,1469.13 1130.56,1469.27 1130.02,1469.27C1129.44,1469.27 1127.5,1469.27 1125.81,1469.2C1126.35,1470.42 1126.92,1472.19 1127.1,1473.45C1129.73,1473.45 1131.75,1473.34 1133.12,1472.69C1134.56,1472.01 1134.95,1470.89 1134.95,1468.77L1134.95,1461.24L1138.41,1461.24L1138.41,1457.32Z" style="fill:rgb(255,254,0);fill-rule:nonzero;"/>
        <path d="M1159.36,1446.52C1158.42,1447.74 1157.38,1448.93 1156.34,1449.9L1148.27,1449.9C1149.35,1448.82 1150.32,1447.71 1151.3,1446.52L1159.36,1446.52ZM1166.02,1458.15L1159.47,1458.15L1159.47,1453.86L1166.02,1453.86L1166.02,1458.15ZM1148.6,1453.86L1155.29,1453.86L1155.29,1458.15L1148.6,1458.15L1148.6,1453.86ZM1153.13,1469.02C1149.21,1469.02 1148.6,1468.66 1148.6,1466.46L1148.6,1462.22L1166.02,1462.22L1166.02,1463.44L1170.23,1463.44L1170.23,1449.9L1161.45,1449.9C1163.1,1448.21 1164.65,1446.27 1165.88,1444.54L1163.14,1442.49L1162.31,1442.7L1154.03,1442.7C1154.32,1442.2 1154.64,1441.66 1154.93,1441.16L1151.04,1439.68C1148.63,1444.14 1144.28,1448.28 1140.03,1450.84C1140.78,1451.81 1141.94,1453.94 1142.33,1454.94C1143.02,1454.44 1143.74,1453.94 1144.46,1453.36L1144.46,1466.46C1144.46,1471.61 1146.51,1472.91 1153.2,1472.91L1165.52,1472.91C1171.56,1472.91 1173.04,1471.18 1173.8,1465.28C1172.61,1465.06 1170.84,1464.38 1169.76,1463.76C1169.3,1468.23 1168.76,1469.02 1165.3,1469.02L1153.13,1469.02Z" style="fill:rgb(255,254,0);fill-rule:nonzero;"/>
    </g>
</svg>
