<?xml version="1.0" encoding="utf-8"?>
<!-- Generator: Adobe Illustrator 17.0.0, SVG Export Plug-In . SVG Version: 6.00 Build 0)  -->
<!DOCTYPE svg PUBLIC "-//W3C//DTD SVG 1.1//EN" "http://www.w3.org/Graphics/SVG/1.1/DTD/svg11.dtd">
<svg version="1.1" id="Layer_1" xmlns="http://www.w3.org/2000/svg" xmlns:xlink="http://www.w3.org/1999/xlink" x="0px" y="0px"
	 width="32px" height="32px" viewBox="0 0 32 32" enable-background="new 0 0 32 32" xml:space="preserve">
<g id="Layer_1_1_">
	<g>
		<path fill="#FFFFFF" d="M12,24.5c-4.687,0-8.5-3.813-8.5-8.5c0-4.687,3.813-8.5,8.5-8.5c4.687,0,8.5,3.813,8.5,8.5
			C20.5,20.687,16.687,24.5,12,24.5z M12,9.5c-3.584,0-6.5,2.916-6.5,6.5s2.916,6.5,6.5,6.5s6.5-2.916,6.5-6.5S15.584,9.5,12,9.5z"
			/>
	</g>
	<g>
		<path fill="#FFFFFF" d="M20,24.5c-4.687,0-8.5-3.813-8.5-8.5c0-4.687,3.813-8.5,8.5-8.5c4.687,0,8.5,3.813,8.5,8.5
			C28.5,20.687,24.687,24.5,20,24.5z M20,9.5c-3.584,0-6.5,2.916-6.5,6.5s2.916,6.5,6.5,6.5s6.5-2.916,6.5-6.5S23.584,9.5,20,9.5z"
			/>
	</g>
	<g>
		<path fill="#FFFFFF" d="M16,23c-0.552,0-1-0.447-1-1V10c0-0.552,0.448-1,1-1c0.553,0,1,0.448,1,1v12C17,22.553,16.553,23,16,23z"
			/>
	</g>
</g>
<g id="Layer_2" display="none">
</g>
</svg>
