<?xml version="1.0" encoding="utf-8"?>
<!-- Generator: Adobe Illustrator 17.0.0, SVG Export Plug-In . SVG Version: 6.00 Build 0)  -->
<!DOCTYPE svg PUBLIC "-//W3C//DTD SVG 1.1//EN" "http://www.w3.org/Graphics/SVG/1.1/DTD/svg11.dtd">
<svg version="1.1" id="Layer_1" xmlns="http://www.w3.org/2000/svg" xmlns:xlink="http://www.w3.org/1999/xlink" x="0px" y="0px"
	 width="480px" height="320px" viewBox="0 0 480 320" enable-background="new 0 0 480 320" xml:space="preserve">
<g>
	<path d="M136.494,58.063l3.133,9.137c-7.485,1.044-13.489,1.742-18.013,2.088v8.093h18.274v9.398h-4.96v30.804h-9.398V86.778
		h-3.916c0,8.007-0.437,14.187-1.306,18.535c-0.697,4.177-2.349,8.786-4.96,13.836c-2.786-1.917-5.657-3.83-8.615-5.743
		c1.216-2.088,2.174-4.263,2.872-6.526l-5.483,4.438c-0.522-0.522-1.566-1.652-3.132-3.393c-0.873-1.216-1.566-2.088-2.088-2.611
		v12.792h-9.659v-13.314c-1.566,3.308-4.613,6.873-9.137,10.703c-1.395-2.439-3.047-4.87-4.96-7.309
		c3.826-2.782,7.309-6.526,10.442-11.226h-7.571v-8.093h11.226v-3.393h-12.27v-8.354h6.788c-0.351-0.522-0.959-1.391-1.828-2.611
		c-0.873-1.044-1.566-1.827-2.088-2.349l4.437-2.088h-6.004v-8.354h10.703v-5.743h9.398v5.743h10.964v8.354h-6.526l5.221,1.566
		l-3.655,5.482h6.004v8.354H98.903v3.393h10.703v8.093H98.903v4.177l3.655-2.872c0.869,0.522,2.35,1.917,4.438,4.177
		c1.566,1.567,2.611,2.611,3.132,3.133c1.216-3.655,1.738-10.267,1.567-19.84V60.673C121.263,60.151,129.532,59.282,136.494,58.063z
		 M92.898,75.292l-3.916,1.827h5.743l4.177-7.048H88.722L92.898,75.292z"/>
	<path d="M145.37,118.888V58.063h59.52v60.825h-9.921v-2.61h-39.941v2.61H145.37z M187.922,78.686l6.526,3.394
		c-2.611,5.396-5.397,10.18-8.354,14.357v0.522c0.522,1.219,1.044,1.827,1.566,1.827c0.694,0,1.13-0.522,1.305-1.566
		c0.347-0.347,0.869-1.652,1.567-3.916c0.171-0.522,0.261-0.869,0.261-1.045c0.522,0.522,1.476,1.306,2.871,2.35
		c0.522,0.522,0.955,0.873,1.305,1.045V66.416h-39.941v41.769h39.941v-9.659c-0.522,1.22-1.134,2.525-1.827,3.916
		c-1.566,3.484-3.83,5.136-6.787,4.96c-2.439,0-4.438-1.216-6.004-3.655c-1.395,1.395-2.786,2.786-4.177,4.177
		c-0.175-0.171-0.522-0.608-1.045-1.306c-0.522-0.522-0.873-0.954-1.044-1.305c-5.221,0.522-10.879,1.044-16.969,1.566l-1.305-7.57
		c1.913-0.171,5.221-0.347,9.92-0.522c4.177-0.347,7.049-0.522,8.615-0.522c1.215-1.044,2.35-2.174,3.394-3.393
		c-0.873-4.001-1.395-9.659-1.566-16.968h-19.84v-7.31h19.579c0-0.347-0.09-0.868-0.261-1.566c0-0.694,0-1.13,0-1.305h8.354
		c0,0.873,0,1.827,0,2.871h2.35l-0.522-2.35l5.743-0.522l0.522,2.871h1.827v7.31h-9.659c0,0.873,0.086,2.003,0.261,3.393
		c0,1.742,0.086,2.961,0.261,3.655c0.171-0.522,0.522-1.215,1.044-2.088C186.702,81.125,187.399,79.73,187.922,78.686z
		 M157.378,79.991h17.23v16.968h-17.23V79.991z M167.821,86.256h-3.655v4.438h3.655V86.256z"/>
	<path d="M251.357,56.235l-2.088,1.828c6.958,4.176,15.312,7.309,25.061,9.398c-0.35,1.219-0.958,3.047-1.827,5.482
		c-0.522,1.742-0.873,2.962-1.044,3.655c-1.045-0.347-1.917-0.607-2.611-0.783v18.534h-53.777V76.597
		c-0.351,0-0.783,0.09-1.306,0.261c-0.697,0.175-1.219,0.351-1.566,0.522c-0.351-1.737-1.305-4.699-2.871-8.876
		c12.877-3.304,22.275-7.395,28.194-12.27H251.357z M217.681,118.888V96.437h48.556v22.451h-9.92v-1.827h-28.715v1.827H217.681z
		 M253.967,72.681H229.95v-1.827c-2.961,1.22-6.265,2.525-9.92,3.916h45.685c-4.352-1.566-8.268-3.132-11.748-4.699V72.681z
		 M224.468,81.035v7.049h5.743c-0.351-0.347-1.134-1.045-2.35-2.088c-1.219-1.045-2.088-1.827-2.61-2.35l3.916-2.611H224.468z
		 M227.601,102.441v2.088h28.715v-2.088H227.601z M227.601,109.229v2.088h28.715v-2.088H227.601z M236.477,84.69l-4.438,3.394h5.221
		v-7.049h-5.483C232.822,81.908,234.388,83.124,236.477,84.69z M248.485,67.461c-0.698-0.522-1.656-1.216-2.871-2.088
		c-1.395-0.869-2.439-1.476-3.133-1.827c-1.742,1.219-3.83,2.524-6.265,3.916H248.485z M247.441,84.69
		c0.346-0.347,0.954-0.783,1.827-1.305c1.215-1.045,2.174-1.827,2.871-2.35h-5.482v7.049h4.699L247.441,84.69z M259.189,88.084
		v-7.049h-4.699l3.916,2.611c-0.351,0.351-1.134,1.044-2.35,2.088c-1.219,1.044-2.088,1.827-2.61,2.35H259.189z"/>
</g>
<g>
	<path d="M9.405,151.369h22.189v8.093H9.405V151.369z M10.71,161.55h19.318v7.048H10.71V161.55z M10.71,170.948h19.318v7.049H10.71
		V170.948z M10.972,202.796v-22.45h19.057v22.45H22.98v-2.61h-4.96v2.61H10.972z M11.754,141.971h17.751v7.048H11.754V141.971z
		 M18.02,187.916v5.221h4.96v-5.221H18.02z M32.378,170.425c7.309-0.346,13.485-0.607,18.535-0.783l1.044,5.482
		c-0.522,0-1.305,0-2.35,0c-1.044,0.176-1.827,0.262-2.35,0.262v2.348h6.265c-0.175-2.61-0.261-5.392-0.261-8.353h8.092
		c0,2.962,0.086,5.743,0.261,8.353h4.699c-0.522-0.521-1.305-1.391-2.35-2.61c-1.044-1.045-1.827-1.827-2.35-2.35l4.96-3.916
		c1.913,1.566,3.655,3.223,5.221,4.96l-4.438,3.915h5.744v6.526h-4.177l3.655,2.611c-2.786,2.785-5.311,5.22-7.57,7.309
		c0.347,0.522,0.607,0.959,0.783,1.305c0.171,0.171,0.522,0.261,1.045,0.261c0.522,0,0.868-0.089,1.044-0.261
		c0.347-1.391,0.608-2.872,0.783-4.437c1.913,0.872,3.655,1.566,5.221,2.088c-0.175,0.522-0.35,1.219-0.522,2.089
		c-0.351,1.215-0.612,2.088-0.783,2.61c-0.873,3.48-3.047,5.221-6.526,5.221c-3.483,0.171-6.18-1.306-8.093-4.439
		c-2.088,1.391-4.613,2.697-7.57,3.916c-0.873-1.567-2.003-3.394-3.393-5.482c0,3.479-2.003,5.306-6.004,5.482
		c-0.522,0-1.567,0-3.133,0c-1.917,0.171-3.222,0.261-3.916,0.261c-0.175-0.873-0.522-2.264-1.044-4.177
		c-0.175-0.873-0.351-1.566-0.522-2.088c1.737,0,3.218,0,4.438,0c1.566,0,2.26-0.522,2.088-1.567v-1.045
		c-0.873,0.176-2.439,0.351-4.699,0.522c-1.044,0.176-1.827,0.262-2.35,0.262l-1.044-7.309l8.093-0.522v-2.611h-7.832v-6.526h7.832
		v-1.827l-5.221,0.262L32.378,170.425z M34.727,154.501h13.575v-2.088H32.9v-6.526h7.309l-2.872-4.438l9.398-1.045l3.393,5.483h4.96
		l3.132-5.483l9.659,1.045l-2.871,4.438h7.309v6.526H56.917v2.088h13.575v5.483H56.917v2.088h16.185v6.526H32.378v-6.526h15.924
		v-2.088H34.727V154.501z M55.611,192.615c-0.697-2.259-1.305-5.045-1.827-8.354h-6.526v2.089l5.221-0.522
		c0,0.873-0.09,2.088-0.261,3.655c0,1.395,0,2.439,0,3.132l-4.96,0.522v2.61v0.262C50.39,195.14,53.172,194.01,55.611,192.615z
		 M62.137,184.261l0.522,3.394c0.522-0.346,1.13-0.954,1.827-1.827c0.869-0.694,1.476-1.216,1.827-1.567H62.137z"/>
	<path d="M106.516,178.779h-7.832v3.394h7.31v7.57h-7.31v3.134c2.435,0.522,5.046,0.783,7.832,0.783h3.133
		c-0.522-1.045-1.22-2.435-2.088-4.177c-0.522-0.868-0.873-1.476-1.045-1.827c3.655-1.216,7.22-2.61,10.703-4.177h-8.876v-30.021
		h8.615l0.783-3.133H107.3v-7.57h31.848v7.57H127.14l-1.044,3.133h11.747v30.021h-8.876c1.216,0.522,2.957,1.219,5.221,2.088
		c2.26,0.873,4.002,1.567,5.221,2.089l-3.133,5.744c1.391,0,2.696,0,3.916,0c-0.175,0.872-0.612,2.259-1.306,4.176
		c-0.522,2.089-0.958,3.565-1.305,4.439c-7.139,0-12.882,0-17.23,0c-4.874,0-9.488-0.09-13.836-0.262
		c-10.442,0.171-17.319-1.917-20.623-6.265c-0.522,2.088-1.481,4.699-2.872,7.832c-0.351-0.175-0.873-0.437-1.566-0.783
		c-1.045-0.873-2.962-2.089-5.743-3.655c2.26-3.48,3.393-9.659,3.393-18.535l8.093,0.522c0,1.566,0,2.961,0,4.177
		c0.694,1.394,1.566,2.61,2.611,3.655v-9.921H77.018v-8.093h29.499V178.779z M79.106,168.598v-26.105h25.583v26.105H79.106z
		 M87.721,150.064v2.871h8.353v-2.871H87.721z M87.721,161.55h8.353v-2.872h-8.353V161.55z M122.702,189.222
		c-0.873,0.35-2.178,0.872-3.916,1.566c-1.044,0.351-3.222,1.305-6.526,2.872c5.221,0,9.308,0,12.27,0
		c3.304,0,6.351-0.086,9.137-0.261c-0.522-0.171-1.395-0.522-2.611-1.045c-1.395-0.694-3.916-1.738-7.57-3.132l3.655-5.744h-8.093
		L122.702,189.222z M129.228,159.723h-12.531v2.611h12.531V159.723z M116.698,167.293v2.611h12.531v-2.611H116.698z
		 M116.698,177.474h12.531v-2.61h-12.531V177.474z"/>
	<path d="M144.108,166.771v-9.92h4.438v-16.185h9.398v16.185h3.916v2.872l2.872-0.783v-12.791h9.659v10.442l5.221-1.044v-14.88
		h9.659v12.531l14.88-3.393c-0.175,8.704-0.437,17.058-0.783,25.061c0.171,4.874-1.481,7.66-4.96,8.354
		c-1.742,0.175-4.438,0.435-8.093,0.783c-0.175-1.738-0.522-3.48-1.045-5.221v10.964h-9.659v-24.277l-5.221,1.305v21.667
		c0,2.961,1.476,4.439,4.438,4.439h12.791c3.133,0,4.87-1.045,5.221-3.134c0.171-0.692,0.432-1.913,0.783-3.655
		c0.171-1.043,0.347-1.913,0.522-2.61c1.566,0.873,4.438,2.002,8.615,3.394c0.171,0.175,0.347,0.261,0.522,0.261
		c-0.522,3.483-1.305,6.441-2.349,8.876c-1.22,3.655-4.613,5.482-10.181,5.482H174.39c-6.616,0.171-9.834-3.132-9.659-9.921v-22.45
		l-3.655,0.783l-0.522-3.133h-2.611v18.274c1.566-0.347,3.132-0.608,4.699-0.784c0,1.395,0.086,3.308,0.261,5.744
		c0,1.917,0,3.308,0,4.177c-2.088,0.351-5.135,0.873-9.137,1.566c-3.83,0.694-6.877,1.216-9.137,1.567l-1.567-9.919
		c0.869-0.171,2.088-0.347,3.655-0.522c0.868-0.171,1.476-0.262,1.827-0.262v-19.84H144.108z M194.491,161.811l-5.221,1.305v11.486
		h2.611c1.391,0.176,2.174-0.608,2.35-2.348C194.401,169.12,194.491,165.641,194.491,161.811z"/>
	<path d="M212.242,203.058v-60.565h59.52v60.565h-9.659v-2.35h-40.463v2.35H212.242z M221.641,150.064v43.335h40.463v-43.335
		H221.641z M222.685,163.116h14.619v-1.827h-11.747v-9.398h32.631v9.398H246.44v1.827h14.619v4.96h-38.375V163.116z
		 M259.493,169.643v21.928h-35.242v-21.928H259.493z M232.082,174.864v11.486h19.84v-11.486H232.082z M233.91,176.43h15.924v8.354
		H233.91V176.43z M234.693,155.546v2.088h14.358v-2.088H234.693z M239.653,179.562v2.089h4.437v-2.089H239.653z"/>
</g>
<g>
	<path d="M136.578,275.214h-9.137v9.919h-9.137v-9.919h-12.27v-8.354h12.27v-5.482h-4.699c-0.522,1.917-1.219,3.655-2.088,5.22
		c-0.522-0.171-1.219-0.522-2.088-1.043c-0.873-0.347-2.35-0.955-4.438-1.827v13.574c0.171,4.699-2.088,7.134-6.787,7.309
		c-1.219,0-2.962,0-5.221,0c-0.175-0.697-0.522-2.088-1.044-4.177c-0.351-1.566-0.612-2.781-0.783-3.655
		c0.522,0.176,1.827,0.262,3.916,0.262c1.567,0,2.35-0.784,2.35-2.35v-3.394H83.584c-0.351,5.396-1.566,10.267-3.655,14.618
		c-2.264-2.088-4.613-3.915-7.049-5.482c2.435-3.826,3.565-11.05,3.394-21.667v-14.618l-2.872-5.221
		c3.826-4.699,6.873-10.091,9.137-16.185l9.92,0.784l-1.827,3.655h12.53v7.832l-2.349,3.655h4.176v3.393
		c4.177-2.259,6.437-5.306,6.788-9.137h-4.96v-8.092h28.715l-0.522,13.313c0,5.571-2.525,8.354-7.571,8.354
		c-1.566,0.175-4.091,0.261-7.57,0.261l-1.305-6.004c-1.22,2.44-3.83,5.05-7.832,7.831l-5.744-5.22v18.795
		c1.738-3.826,2.872-8.093,3.394-12.791l7.57,0.783l-0.522,3.132h2.872v-4.96h9.137v4.96h8.354v8.093h-8.354v5.482h9.137V275.214z
		 M84.106,246.498v4.96h2.611v-4.96H84.106z M84.106,259.029c0,1.742,0,3.393,0,4.96h2.611v-4.96H84.106z M86.717,235.012
		c-0.698,1.394-1.481,2.61-2.35,3.655h7.048l2.35-3.655H86.717z M97.42,246.498h-3.132v4.96h3.132V246.498z M94.287,259.029v4.96
		h3.132v-4.96H94.287z M120.915,232.923c-0.175,0.351-0.261,0.959-0.261,1.827c-0.522,2.089-0.959,3.569-1.306,4.439h4.177
		c1.737,0,2.611-0.87,2.611-2.611l0.261-3.655H120.915z"/>
	<path d="M166.86,222.481h10.442v5.482h24.8v14.88H191.66v-6.004h-16.446l3.655,3.393l-7.57,6.004
		c-0.873-1.043-2.439-2.696-4.699-4.96v8.614c5.743-2.781,12.008-6.873,18.796-12.269l6.787,6.526
		c-7.485,6.093-15.231,10.964-23.233,14.618c0.522,0,1.044,0,1.566,0h6.788c2.781,0.176,4.263-0.868,4.438-3.132l0.783-4.437
		c3.479,1.742,6.526,2.961,9.137,3.655c-1.567-2.089-2.962-4.088-4.177-6.004l8.093-4.961c3.304,4.353,6.265,8.354,8.875,12.008
		l-8.614,5.483c-0.351-0.694-1.045-1.827-2.088-3.394c-0.873-1.216-1.481-2.089-1.828-2.61c-0.522,2.088-1.134,4.352-1.827,6.787
		c-1.395,3.655-4.699,5.396-9.92,5.221h-2.871v6.787h11.225v-7.309h10.442v18.535h-10.442v-2.611h-32.892v2.611h-10.442v-17.492
		h10.442v6.266h11.225v-6.787h-1.045c-3.83-0.171-6.526-1.567-8.092-4.177c-4.352,1.566-9.137,2.961-14.358,4.177
		c-0.522-1.392-1.306-3.305-2.35-5.744c-0.873-2.259-1.22-3.394-1.045-3.394c2.611-0.521,5.132-1.129,7.571-1.827l-6.526-6.265
		c0.868-0.868,2.174-2.26,3.916-4.177c1.391-1.391,2.435-2.435,3.132-3.132h-6.265v-14.88h25.061V222.481z M148.064,256.417
		c1.216-0.346,2.957-0.868,5.221-1.566c1.566-0.522,2.781-0.87,3.655-1.045v-6.265C153.807,250.675,150.846,253.636,148.064,256.417
		z M163.988,238.927l2.611-2.088h-14.358v4.437l4.699,4.177v-4.437h9.398L163.988,238.927z"/>
</g>
<g>
	<path d="M309.238,160.238c1.4,0.288,3.129,0.453,5.186,0.453h23.417c1.399-1.811,1.852-2.387,3.375-4.157
		c2.469,1.893,3.21,2.47,5.556,4.445c0.164,0.164,0.206,0.247,0.206,0.329c0,0.165-0.164,0.247-0.494,0.247h-32.06
		c-1.893,0-3.415,0.083-4.897,0.288L309.238,160.238z"/>
	<path d="M349.332,162.255c3.457-3.498,5.885-6.585,8.272-10.618c1.934-3.333,3.087-5.926,4.034-9.219
		c3.333,1.317,5.72,2.305,6.09,2.593c0.083,0.082,0.206,0.247,0.206,0.371c0,0.411-0.534,0.617-2.016,0.741
		c-2.634,4.65-4.485,7.161-7.243,9.959c-2.593,2.593-4.898,4.28-9.013,6.544L349.332,162.255z M367.975,159.21
		c-0.288,2.469-0.33,2.757-0.617,4.074c-1.852,8.889-6.297,13.417-16.627,16.956l-0.206-0.453c5.639-3.663,8.807-7.12,10.577-11.564
		c0.987-2.552,1.441-4.692,1.893-9.013h-2.88c-0.947,0-1.934,0.082-2.881,0.247l-0.288-1.441c1.235,0.247,2.099,0.33,3.128,0.33
		h15.598c0.823-0.864,1.071-1.111,1.893-1.852c1.606,1.111,2.058,1.441,3.581,2.552c0.33,0.288,0.494,0.494,0.494,0.7
		c0,0.247-0.206,0.453-0.947,0.864c-0.452,6.379-0.699,8.642-1.193,11.688c-0.7,3.951-1.605,5.556-3.58,6.379
		c-1.111,0.453-2.923,0.782-4.528,0.782c-0.74,0-0.823-0.082-0.864-0.946c-0.082-1.029-0.659-1.934-1.605-2.47
		c-1.029-0.576-1.811-0.864-4.61-1.687l0.042-0.535c3.128,0.37,6.585,0.7,7.696,0.7c1.769,0,2.304-0.412,2.674-2.058
		c0.741-3.21,1.153-7.613,1.317-13.251H367.975z M372.337,142.748c-0.042,0.247-0.042,0.37-0.042,0.411
		c0,1.194,1.523,3.581,3.787,5.844c2.016,2.058,4.568,3.786,7.49,5.144c1.687,0.741,2.758,1.112,5.268,1.729v0.412
		c-1.111,0.535-1.563,0.905-2.346,1.934c-0.452,0.658-0.864,1.399-1.152,2.099c-0.124,0.37-0.289,0.535-0.453,0.535
		c-0.37,0-2.304-1.276-3.951-2.634c-4.115-3.416-6.749-7.243-8.931-12.882c-0.452-1.111-0.7-1.564-1.152-2.058L372.337,142.748z"/>
	<path d="M394.282,153.613c-1.359,1.235-2.016,1.729-3.581,2.922l-0.33-0.37c3.375-4.609,5.639-9.589,6.544-14.322
		c6.091,1.235,6.132,1.235,6.132,1.688c0,0.371-0.412,0.576-1.605,0.741l-0.206,0.329c4.568,1.852,5.927,2.881,5.927,4.609
		c0,1.317-1.153,2.716-2.223,2.716c-0.576,0-0.74-0.247-1.275-1.934c-0.658-2.14-1.399-3.416-2.758-4.857
		c-2.552,4.198-3.785,5.762-6.379,8.231c0.453,0.082,1.153,0.165,1.729,0.165h4.404c0.864-1.111,1.152-1.441,2.057-2.552
		c1.482,1.194,1.894,1.564,3.251,2.799c0.165,0.165,0.206,0.288,0.206,0.37c0,0.165-0.164,0.247-0.452,0.247h-4.692v5.185h0.987
		c0.905-1.152,1.153-1.482,2.1-2.551c1.193,1.193,1.563,1.564,2.674,2.84c0.124,0.164,0.165,0.247,0.165,0.329
		c0,0.165-0.165,0.247-0.371,0.247h-5.556v12.14c1.852-0.328,2.798-0.494,5.268-1.029l0.124,0.412
		c-3.457,1.976-4.527,2.47-12.182,5.762c-0.082,1.441-0.33,2.018-0.782,2.018c-0.494,0-0.494,0-2.182-6.051
		c2.634-0.124,3.663-0.206,5.967-0.534v-12.717h-3.868c-0.741,0-1.482,0.083-2.14,0.247l-0.247-1.399
		c0.823,0.206,1.359,0.288,2.388,0.288h3.868v-5.185h-1.028c-0.577,0-1.276,0.082-1.812,0.206L394.282,153.613z M392.018,162.296
		c3.293,2.469,4.527,4.074,4.527,5.803c0,1.605-1.317,3.374-2.551,3.374c-0.535,0-0.783-0.453-0.865-1.564
		c-0.206-3.992-0.37-4.773-1.441-7.407L392.018,162.296z M422.801,157.317c0.865-0.864,0.865-0.864,2.016-2.016
		c1.317,0.823,1.688,1.111,2.881,1.934c0.37,0.288,0.535,0.494,0.535,0.7c0,0.329-0.247,0.535-1.194,1.111c0,1.07,0,1.77,0,2.428
		c0,2.14,0.042,4.074,0.206,7.49c0,0.658-0.123,0.741-1.769,0.864c1.851,1.399,3.046,2.345,3.621,2.799
		c0.164,0.164,0.247,0.288,0.247,0.37c0,0.165-0.206,0.288-0.495,0.288h-9.918v4.568h4.157l2.881-3.128
		c1.811,1.441,2.304,1.893,3.869,3.333c0.164,0.165,0.246,0.288,0.246,0.412c0,0.124-0.164,0.247-0.412,0.247h-23.787
		c-0.741,0-1.317,0.082-2.181,0.288l-0.288-1.481c0.946,0.246,1.563,0.328,2.51,0.328h9.053v-4.568h-6.255
		c-0.823,0-1.441,0.083-2.058,0.247l-0.246-1.399c0.782,0.206,1.441,0.288,2.304,0.288h6.255v-3.951h-3.827v0.987
		c0,0.864-0.412,1.029-2.634,1.029c-1.153,0-1.357-0.124-1.357-0.782c0.123-2.428,0.123-2.922,0.164-5.144
		c-0.37,0.123-0.494,0.123-0.865,0.206c-1.357,2.757-2.016,3.786-4.033,6.461l-0.412-0.164c0.783-3.704,1.071-5.885,1.235-9.096
		c2.304,0.823,3.004,1.111,4.075,1.646c0-4.321-0.042-5.926-0.164-8.149c1.933,0.741,2.51,0.988,4.321,1.852H422.801z
		 M423.583,153.859c1.235-1.276,1.606-1.646,2.84-2.799c1.564,1.235,2.058,1.646,3.457,3.004c0.206,0.165,0.288,0.288,0.288,0.412
		c0,0.124-0.206,0.247-0.494,0.247h-21.071c-1.07,0-1.563,0.041-2.222,0.165l-0.246-1.317c0.864,0.206,1.399,0.288,2.428,0.288
		h3.621c-0.535-0.247-0.659-0.494-0.782-1.358c-0.33-2.346-0.577-3.21-1.359-4.691l0.33-0.288h-0.453
		c-0.782,0-1.563,0.083-2.181,0.247l-0.247-1.44c0.865,0.247,1.564,0.329,2.428,0.329h4.692v-1.605c0-0.946-0.042-1.605-0.206-2.963
		c4.856,0.37,5.186,0.411,5.721,0.576c0.288,0.124,0.452,0.288,0.452,0.494c0,0.33-0.452,0.576-1.646,0.864v2.634h3.869
		c1.193-1.317,1.523-1.729,2.758-3.004c1.646,1.358,2.14,1.77,3.703,3.251c0.124,0.164,0.206,0.288,0.206,0.37
		c0,0.165-0.164,0.247-0.452,0.247h-7.82c4.28,1.482,4.774,1.688,4.774,2.181c0,0.371-0.412,0.494-1.77,0.494
		c-1.811,1.688-2.469,2.223-4.568,3.663H423.583z M418.151,153.859c0.947-1.893,1.687-3.827,2.264-6.338h-10.042
		c4.157,1.893,4.98,2.511,4.98,3.745c0,1.111-0.823,2.181-2.016,2.593H418.151z M414.982,158.181h-3.827v4.198h3.827V158.181z
		 M414.982,163.243h-3.827v4.362h3.827V163.243z M423.089,158.181h-4.157v4.198h4.157V158.181z M423.089,163.243h-4.157v4.362h4.157
		V163.243z M422.925,172.42c1.111-1.235,1.317-1.441,2.51-2.593c-0.535,0-0.823,0-1.111,0c-1.029,0-1.193-0.082-1.235-0.658v-0.7
		h-4.157v3.951H422.925z"/>
</g>
<g>
	<path d="M346.807,277.234c-1.481,0.616-2.182,1.317-3.004,2.922c-0.206,0.452-0.412,0.905-0.577,1.399
		c-0.082,0.288-0.206,0.412-0.412,0.412c-0.328,0-1.317-0.453-2.634-1.235c-4.856-2.84-7.778-6.009-9.836-10.783
		c-0.946-2.181-1.399-3.621-2.139-7.201c-2.182,2.428-2.963,3.168-4.939,4.732v8.765c3.128-0.37,5.885-0.823,9.178-1.563
		l0.123,0.452c-3.25,1.852-9.177,4.28-16.503,6.668c-0.288,1.357-0.494,1.769-0.905,1.769c-0.494,0-0.658-0.453-2.14-6.255
		c1.646-0.042,2.223-0.082,4.652-0.371c0.37-0.04,0.37-0.04,1.234-0.164v-6.379c-3.58,2.099-5.885,3.046-10.576,4.486l-0.165-0.453
		c4.075-2.263,6.338-3.869,9.508-6.625c2.057-1.852,3.004-2.881,4.773-5.062h-11.152c-1.029,0-1.812,0.082-2.634,0.288l-0.247-1.482
		c0.947,0.247,1.811,0.33,2.84,0.33h13.539v-4.898h-9.753c-1.029,0-1.606,0.042-2.428,0.247l-0.206-1.441
		c0.905,0.247,1.687,0.33,2.634,0.33h9.753v-4.568h-11.565c-1.111,0-1.893,0.082-2.674,0.247l-0.206-1.441
		c1.069,0.246,1.811,0.33,2.88,0.33h11.565v-1.071c0-1.729-0.04-2.552-0.246-4.445c6.749,0.617,6.749,0.617,6.749,1.193
		c0,0.453-0.494,0.741-1.893,1.111v3.211h7.942c1.4-1.482,1.852-1.976,3.251-3.417c2.058,1.564,2.676,2.016,4.61,3.663
		c0.164,0.165,0.246,0.247,0.246,0.371c0,0.164-0.164,0.246-0.452,0.246h-15.598v4.568h6.419c0.989-1.069,1.976-2.14,2.923-3.169
		c1.975,1.399,2.551,1.852,4.445,3.375c0.164,0.164,0.246,0.288,0.246,0.37c0,0.206-0.206,0.288-0.534,0.288h-13.499v4.898h9.342
		c1.399-1.481,1.811-1.934,3.168-3.375c2.1,1.523,2.758,2.018,4.692,3.581c0.164,0.206,0.247,0.288,0.247,0.412
		c0,0.164-0.165,0.247-0.412,0.247h-17.45c1.111,3.415,2.058,5.144,4.075,7.325c2.592-2.469,4.197-4.445,5.432-6.749
		c4.898,2.716,5.556,3.128,5.556,3.581c0,0.288-0.288,0.494-0.7,0.494s-0.864-0.042-1.399-0.165
		c-2.922,1.646-5.35,2.758-8.066,3.705c1.399,1.275,2.798,2.263,4.445,3.128c2.263,1.193,4.157,1.769,8.56,2.716L346.807,277.234z"
		/>
	<path d="M355.788,272.542c0.206,1.441,0.246,2.14,0.246,2.922c0,3.705-2.016,6.873-4.362,6.873c-1.235,0-2.181-1.357-2.181-3.128
		c0-0.617,0.246-1.153,0.658-1.481c0.165-0.124,0.371-0.165,1.029-0.412c1.029-0.371,2.016-1.071,2.716-1.852
		c0.783-0.864,1.111-1.523,1.441-2.963L355.788,272.542z M352.043,254.64c-0.289,0.905-0.453,1.234-0.783,1.234
		c-0.206,0-0.37-0.164-0.494-0.534c-0.164-0.453-0.617-2.47-0.987-4.198c1.359,0.165,2.058,0.165,3.787,0.165
		c1.563-3.705,1.645-3.992,2.057-6.091c1.193,0.288,2.14,0.494,2.716,0.617c2.923,0.658,3.293,0.782,3.293,1.193
		c0,0.37-0.453,0.535-1.934,0.7c-3.292,2.758-3.292,2.758-4.486,3.581c2.47,0,3.951-0.042,8.89-0.247
		c-0.741-1.111-1.194-1.605-2.552-2.758l0.328-0.37c4.774,1.235,6.586,2.386,6.586,4.075c0,1.317-0.947,2.674-1.852,2.674
		c-0.535,0-0.741-0.206-1.277-1.399c-0.164-0.37-0.288-0.576-0.576-1.111c-4.28,1.029-7.49,1.687-11.523,2.264
		c1.152,0.534,1.729,0.782,3.374,1.645h5.639c0.782-0.822,1.029-1.111,1.811-1.893l3.046,2.016c0.37,0.33,0.494,0.453,0.494,0.617
		c0,0.288-0.288,0.535-1.193,0.905v4.198c0,3.333,0,3.333,0,5.432c0,2.182-0.494,2.798-2.51,3.375
		c-0.577,0.164-1.564,0.33-2.018,0.33c-0.37,0-0.452-0.124-0.494-0.535c-0.164-1.605-0.822-2.099-3.745-2.922l0.042-0.453
		c1.852,0.164,2.51,0.206,4.321,0.288c0.412-0.04,0.494-0.124,0.494-0.534v-2.717h-6.379v6.133c0,0.864-0.37,0.987-2.674,0.987
		c-1.071,0-1.277-0.164-1.277-0.947c0.124-3.951,0.165-5.844,0.165-8.148c0-2.963-0.042-6.009-0.124-7.614L352.043,254.64z
		 M362.495,256.944h-6.379v2.716h6.379V256.944z M362.495,260.525h-6.379v2.798h6.379V260.525z M359.368,274.846
		c0-0.946-0.04-1.563-0.164-2.798c4.65,0.452,4.856,0.494,5.268,0.658c0.33,0.082,0.494,0.247,0.494,0.453
		c0,0.288-0.33,0.535-1.441,0.946v3.54c0,0.576,0.042,0.74,0.247,0.864c0.412,0.206,0.864,0.247,4.527,0.247
		c5.515,0,5.762-0.042,6.421-0.741c0.494-0.453,1.275-1.976,2.386-4.65l0.453,0.082l-0.165,3.457c0,0.082,0,0.206,0,0.246
		c0,0.577,0.124,0.783,0.699,0.989c1.111,0.412,1.482,0.864,1.482,1.769c0,1.111-0.7,1.811-2.099,2.182
		c-0.989,0.246-2.881,0.328-6.585,0.328c-7.162,0-8.684-0.04-9.672-0.206c-0.741-0.164-1.359-0.576-1.646-1.069
		c-0.124-0.288-0.206-0.741-0.246-1.359c0.04-2.222,0.04-2.222,0.04-2.551V274.846z M365.459,271.307
		c5.885,0.782,7.366,1.441,7.366,3.375c0,1.357-0.987,2.634-2.016,2.634c-0.494,0-0.864-0.288-1.193-0.947
		c-1.317-2.264-2.14-3.169-4.321-4.692L365.459,271.307z M373.608,250.935c3.498-1.605,5.885-3.169,7.572-4.938
		c3.663,2.14,4.609,2.798,4.609,3.169c0,0.246-0.288,0.452-0.7,0.452c-0.123,0-0.699-0.04-1.357-0.124
		c-3.499,1.111-6.255,1.77-10.124,2.388v1.563c0,0.741,0.04,0.823,0.534,0.905c0.247,0.042,2.306,0.083,5.268,0.083
		c2.428,0,2.84-0.083,3.335-0.577c0.576-0.576,0.576-0.576,1.893-3.457l0.33,0.042v2.388c-0.042,0.7,0.04,0.864,0.534,1.111
		c0.823,0.452,1.111,0.905,1.111,1.645c0,0.783-0.617,1.441-1.645,1.77c-0.947,0.288-3.129,0.412-7.244,0.412
		c-5.144,0-6.255-0.082-6.996-0.412c-0.823-0.412-1.111-1.071-1.152-2.47c0-0.7,0-1.235,0-1.605c0.04-0.947,0.04-1.687,0.04-1.811
		v-2.881c0-1.07-0.04-1.729-0.206-3.086c4.568,0.452,4.816,0.494,5.35,0.7c0.288,0.164,0.453,0.33,0.453,0.494
		c0,0.37-0.37,0.576-1.605,0.987V250.935z M373.608,263.859c3.58-1.441,5.967-2.881,7.86-4.734c3.128,1.934,4.198,2.758,4.198,3.128
		c0,0.289-0.247,0.453-0.659,0.453c-0.164,0-0.576-0.042-1.317-0.124c-3.785,1.153-6.831,1.852-10.082,2.222v1.934
		c0,0.576,0.04,0.782,0.206,0.865c0.288,0.164,1.439,0.206,4.157,0.206c3.415,0,4.239-0.124,4.815-0.617
		c0.412-0.371,0.782-1.111,2.058-3.91l0.37,0.042l-0.082,2.552c0,0.164,0,0.288,0,0.37c0,0.659,0,0.659,0.947,1.153
		c0.494,0.288,0.823,0.823,0.823,1.399c0,0.905-0.535,1.563-1.606,1.975c-0.946,0.33-2.386,0.453-5.926,0.453
		c-5.35,0-6.914-0.042-7.861-0.206c-1.399-0.247-1.893-0.987-1.933-2.798c0.04-2.758,0.04-2.758,0.04-3.169v-3.005
		c0-1.605-0.04-2.181-0.206-3.621c1.153,0.124,2.016,0.206,2.593,0.247c2.345,0.246,3.044,0.412,3.044,0.905
		c0,0.33-0.37,0.576-1.439,0.947V263.859z M379.122,272.624c5.803,2.14,7.861,3.621,7.861,5.638c0,1.77-1.359,3.622-2.716,3.622
		c-0.535,0-0.823-0.288-1.112-1.359c-0.987-3.251-2.057-5.104-4.361-7.532L379.122,272.624z"/>
	<path d="M399.338,262.542c0,1.234,0,1.645,0.124,4.403c0,0.288-0.082,0.453-0.165,0.576c-0.246,0.247-1.234,0.412-2.263,0.412
		c-0.865,0-1.111-0.164-1.153-0.7c0.042-0.494,0.082-1.893,0.165-4.321v-1.069l-0.289,0.082c-1.811,3.046-2.386,3.703-4.609,5.638
		l-0.33-0.247c1.193-2.469,1.893-4.856,2.264-7.613c2.428,0.658,2.428,0.658,2.963,0.823v-2.346c-1.111,0.288-1.482,0.412-2.881,0.7
		c-0.206,0.823-0.33,1.029-0.576,1.029c-0.412,0-0.535-0.412-1.317-3.828c1.399,0.083,1.851,0.083,3.21,0.083
		c2.304-2.634,3.869-4.898,5.144-7.45c3.499,1.523,3.869,1.729,3.869,2.14c0,0.33-0.37,0.535-0.987,0.535c0,0-0.082,0-0.124,0
		c-0.124,0-0.288,0-0.535,0c-0.37,0.37-1.605,1.399-3.663,3.168c-1.152,0.989-1.152,0.989-2.016,1.564
		c1.029-0.042,2.593-0.164,4.734-0.37c-0.33-0.7-0.535-1.029-1.317-2.058l0.246-0.288c2.799,1.111,4.157,2.14,4.157,3.21
		c0,1.193-0.823,2.346-1.646,2.346c-0.494,0-0.74-0.33-0.864-1.193c-0.042-0.371-0.082-0.617-0.206-1.111
		c-0.905,0.288-1.359,0.412-1.934,0.576V262.542z M391.6,248.631c2.018,0.658,2.018,0.658,2.717,0.864
		c0.534-1.275,1.028-2.922,1.234-4.321c4.24,0.947,5.145,1.275,5.145,1.77c0,0.328-0.494,0.617-1.111,0.617
		c-0.124,0-0.289,0-0.495-0.042c-0.7,0.494-1.028,0.741-1.399,1.029c-1.687,1.275-1.687,1.275-2.057,1.563
		c0.864,0.617,1.152,1.029,1.152,1.729c0,1.153-0.864,2.222-1.769,2.222c-0.494,0-0.741-0.328-1.029-1.357
		c-0.37-1.277-0.987-2.222-2.552-3.745L391.6,248.631z M391.436,282.79c7.326-1.317,11.565-2.84,17.038-6.051
		c-2.346-1.769-4.65-3.991-5.309-5.102c-1.029,1.111-2.469,2.428-4.075,3.663c-2.222,1.729-3.991,2.756-7.037,4.115l-0.247-0.494
		c2.881-2.304,4.486-3.951,6.215-6.215c1.605-2.14,2.552-3.869,3.499-6.255c1.523,0.412,2.057,0.576,3.128,0.823
		c-0.124-0.082-0.124-0.164-0.206-0.412c0.082-1.564,0.123-2.634,0.123-3.169c0-2.14-0.04-4.115-0.123-5.268
		c1.563,0.617,2.016,0.865,3.457,1.646h3.498c0.535-0.576,1.069-1.153,1.523-1.646c1.069,0.741,1.399,0.987,2.428,1.729
		c0.33,0.247,0.453,0.412,0.453,0.617c0,0.164-0.083,0.288-0.247,0.412c-0.082,0.042-0.082,0.042-0.412,0.206
		c-0.124,0.042-0.124,0.042-0.247,0.164c-0.04,1.153-0.082,2.016-0.082,2.428c0,0.659,0,1.111,0.082,2.676
		c0,0.37-0.082,0.535-0.288,0.617c-0.246,0.124-1.563,0.288-2.428,0.288c-0.452,0-0.658-0.164-0.658-0.535v-1.069h-3.705v0.823
		c-0.04,0.246-0.082,0.37-0.206,0.412c-0.328,0.164-1.111,0.246-2.016,0.246c-0.04,0-0.164,0-0.37,0
		c0.206,0.042,0.37,0.124,0.494,0.124c1.029,0.288,1.275,0.453,1.275,0.782c0,0.412-0.288,0.535-1.687,0.741
		c-0.37,0.494-0.494,0.659-0.823,1.07h15.351l2.84-2.674c-0.577,0.082-0.865,0.124-1.441,0.124c-0.823,0-1.071-0.124-1.193-0.7
		c0.04-1.606,0.082-3.828,0.082-4.774v-0.371l-0.206,0.042c-1.317,2.058-2.592,3.581-4.115,4.98l-0.33-0.124
		c0.946-2.346,1.523-4.486,1.811-7.038c1.729,0.535,2.222,0.701,2.84,0.947v-2.592c-1.441,0.288-1.687,0.37-2.593,0.658
		c-0.123,0.823-0.288,1.153-0.576,1.153c-0.164,0-0.37-0.247-0.494-0.7c-0.042-0.247-0.164-0.617-0.37-1.276
		c-0.165-0.37-0.288-0.905-0.535-1.687c0.823,0.042,1.153,0.082,1.729,0.082c0.412,0,0.658,0,1.235-0.04
		c2.51-2.881,4.197-5.309,5.35-7.655c3.128,1.523,3.869,1.976,3.869,2.346c0,0.247-0.494,0.494-1.071,0.494
		c-0.123,0-0.328-0.04-0.617-0.082c-3.703,3.128-4.321,3.621-6.008,4.815c3.128-0.123,3.991-0.164,5.02-0.288
		c-0.412-0.74-0.617-1.111-1.481-2.181l0.206-0.288c2.14,0.74,2.922,1.111,3.539,1.605c0.617,0.494,0.905,0.987,0.905,1.563
		c0,1.153-0.865,2.428-1.687,2.428c-0.412,0-0.659-0.328-0.783-1.193c-0.082-0.33-0.124-0.576-0.288-1.029
		c-0.741,0.247-1.07,0.33-2.099,0.577v4.938c0,1.111,0,1.275,0.164,4.527c0,0.535-0.082,0.576-0.658,0.699
		c1.934,1.359,2.346,1.605,4.073,3.005c0.124,0.123,0.165,0.206,0.165,0.288c0,0.164-0.165,0.288-0.412,0.288h-6.791
		c-2.058,2.758-3.375,4.157-5.474,5.803c3.251,0.74,6.503,1.111,10.042,1.111c1.07,0,2.181-0.042,4.239-0.165v0.412
		c-1.975,0.947-2.716,1.934-2.963,3.91c-0.082,0.494-0.206,0.658-0.617,0.658c-0.206,0-1.111-0.082-1.811-0.206
		c-4.527-0.576-8.56-1.893-11.811-3.745c-5.227,2.84-11.935,4.321-20.042,4.486L391.436,282.79z M399.955,259.372
		c2.881,1.523,3.827,2.47,3.827,3.745c0,1.193-0.987,2.386-1.975,2.386c-0.412,0-0.659-0.288-0.659-0.987
		c-0.082-1.893-0.494-3.251-1.441-4.856L399.955,259.372z M411.808,250.36c0.823-0.905,1.069-1.193,1.852-2.016
		c1.317,1.029,1.729,1.357,3.046,2.386c0.082,0.124,0.123,0.165,0.123,0.247c0,0.164-0.123,0.246-0.328,0.246h-10.741
		c-0.947,0-1.276,0.042-1.976,0.206l-0.33-1.399c0.947,0.247,1.4,0.33,2.346,0.33H411.808z M403.659,271.101
		c1.688,1.934,3.787,3.333,6.626,4.445c2.058-1.563,3.251-2.798,4.404-4.527h-10.947L403.659,271.101z M410.409,247.19
		c0.864-0.947,1.152-1.275,1.975-2.222c1.359,1.111,1.77,1.481,3.005,2.552c0.123,0.124,0.164,0.206,0.164,0.288
		c0,0.164-0.164,0.247-0.535,0.247h-8.477c-0.823,0-1.275,0.04-2.099,0.206l-0.247-1.441c0.865,0.288,1.441,0.37,2.222,0.37H410.409
		z M410.861,253.611c0.947-0.782,1.194-1.071,1.976-1.852c1.193,0.905,1.523,1.193,2.634,2.182c0.124,0.123,0.164,0.205,0.164,0.288
		c0,0.164-0.164,0.246-0.412,0.246h-8.683c-0.7,0-1.111,0.042-1.852,0.165l-0.37-1.359c0.905,0.247,1.441,0.33,2.222,0.33H410.861z
		 M412.795,254.928c1.111,0.946,1.441,1.235,2.51,2.181c0.124,0.165,0.165,0.247,0.165,0.33c0,0.164-0.124,0.247-0.288,0.247h-8.025
		c-0.905,0-1.359,0.04-2.182,0.206l-0.328-1.441c0.987,0.288,1.523,0.37,2.51,0.37h3.621L412.795,254.928z M407.815,260.936v4.157
		h3.705v-4.157H407.815z M416.294,248.795c1.317,0.412,1.523,0.494,2.057,0.7c0.495-1.028,1.071-2.756,1.482-4.445
		c4.28,1.441,4.815,1.688,4.815,2.1s-0.452,0.576-1.769,0.616c-0.577,0.33-0.7,0.412-1.441,0.989
		c-0.659,0.534-1.071,0.823-1.893,1.317c1.193,0.74,1.439,1.07,1.439,1.729c0,1.111-0.782,2.181-1.563,2.181
		c-0.576,0-0.905-0.412-1.153-1.523c-0.37-1.441-0.741-2.058-2.057-3.333L416.294,248.795z M424.114,259.413
		c2.962,1.564,4.403,2.881,4.403,4.034c0,1.357-1.069,2.756-2.058,2.756c-0.288,0-0.617-0.164-0.782-0.41
		c-0.124-0.206-0.124-0.33-0.164-1.071c0-2.016-0.412-3.333-1.605-5.062L424.114,259.413z"/>
	<path d="M431.365,266.533c2.593-3.539,4.362-6.585,6.256-10.659c2.304-5.02,3.333-8.066,3.703-10.864
		c1.359,0.37,2.386,0.658,3.046,0.823c2.634,0.658,3.457,0.987,3.457,1.439c0,0.412-0.453,0.617-1.852,0.865
		c-1.646,3.785-3.128,6.379-5.432,9.63c2.756,0.452,3.168,0.576,3.168,0.987c0,0.37-0.452,0.658-1.523,1.029v11.441
		c0,5.226,0,5.226,0.042,10.371c0,0.452-0.082,0.7-0.247,0.864c-0.37,0.37-1.317,0.535-2.674,0.535
		c-1.646,0-1.893-0.165-1.893-1.071c0.164-2.756,0.328-8.108,0.328-10.618v-10c-2.222,2.552-3.333,3.539-6.049,5.556
		L431.365,266.533z M454.37,263.611c2.14-2.099,3.539-3.663,5.309-5.926c2.016-2.634,2.962-4.116,3.909-6.339
		c4.527,2.716,5.844,3.663,5.844,4.116c0,0.328-0.37,0.534-0.987,0.534c-0.33,0-0.782,0-1.235-0.04
		c-4.403,3.991-7.572,6.173-12.84,8.93v12.142c0,0.617,0.042,0.782,0.288,0.905c0.33,0.164,1.894,0.246,4.734,0.246
		c1.811,0,3.662-0.164,4.115-0.33c0.864-0.328,1.359-1.522,4.321-10.33l0.412,0.042l-0.534,8.272c0,0.247,0,0.412,0,0.535
		c0,0.453,0.164,0.659,0.616,0.823c1.071,0.37,1.153,0.412,1.359,0.7c0.247,0.288,0.37,0.741,0.37,1.276
		c0,2.428-2.14,3.004-10.782,3.004c-5.721,0-7.162-0.165-8.313-0.905c-0.823-0.535-1.153-1.359-1.193-3.046c0-1.646,0-2.634,0-3.745
		c0-0.576,0-0.576,0.04-6.215v-18.355c0-1.563-0.04-2.428-0.206-4.197c1.359,0.124,2.388,0.246,3.087,0.33
		c2.758,0.246,3.415,0.41,3.415,0.946c0,0.371-0.452,0.659-1.729,1.111V263.611z"/>
</g>
<g>
	<path fill="#00A99D" d="M271.692,235.052l0.456-0.434v-0.386l-0.207-0.198l0.445-0.449l-0.669-0.68l-0.834-0.845v-0.277
		l-0.781-0.773h-0.484v-0.175l0.236-0.248l-0.363-0.351v-0.302h-0.19v-0.275l0.316-0.36v-0.124h-0.419l-0.214-0.232v-1.728
		l-0.19-0.2v-0.339l-0.577-0.6h-0.608l-0.269-0.253h-0.964l-0.205,0.19h-0.535l-0.538,0.569h-0.36l-0.687,0.696h-1.443l-0.511-0.525
		l-0.705-0.006v0.793l0.822,0.845v0.423l0.253,0.255v0.449v-0.002v0.478v-0.92l-0.253-0.26v-0.413l-0.886-0.855v-0.773l-0.275-0.311
		h-0.506h-1.867l-0.414-0.38h-2.404l-1.283,1.264l0.738,0.738v-0.01l-0.706-0.727h-0.819l-1.048,1.076h-0.471h-0.599l-1.166,1.148
		v0.423l-0.19,0.165v-0.027h-0.7l-0.484,0.506h-2.254l-0.476,0.506h-0.986l-2.113,2.088h-0.915h-0.344l-0.599,0.633h-1.026
		l-1.356,1.34l-0.363-0.382l-0.277,0.281v0.406h-0.949v0.19h0.304l-0.409,0.397l-0.145-0.152l-0.281,0.277l-0.185-0.187
		l-0.162,0.161l0.519,0.509l-0.143,0.133h-0.969l-0.246,0.253h-1.304l-0.264,0.27l0.294,0.297l0.211-0.21l0.337,0.324l-0.343,0.331
		h-0.779l-0.273-0.26l-0.206,0.212l0.356,0.359l-0.128,0.131h-0.562l-0.252,0.253l-0.258-0.255l-0.57,0.572h-0.489l-1.625,1.645
		h-0.335h-0.546l-0.466,0.454l0.166,0.153l-0.281-0.291h-1.673l-0.491,0.487v0.272h0.443v0.212l-3.416,3.425v0.954l0.693,0.683
		l-0.843-0.846h-0.546v0.477l0.337,0.356l-1.009,1.003l-0.002,0.847l-0.855,0.012l-0.59,0.595h0.007l-2.408,2.428l-0.006-0.006
		l-1.053,1.059h-0.416l-0.712,0.681v0.575l0.455,0.495l0.073-0.038l0.358,0.342v1.321v1.427v1.374l-0.569,0.495v3.262h-0.063v0.655
		l-0.464,0.479l-0.184-0.181l-0.428,0.422v0.681l0.287,0.298l-0.097,0.084v0.517v1.316l0.492,0.476h-0.343l-0.357-0.354l-0.15,0.185
		l0.603,0.612h0.071v1.265h0.589l0.009,1.684l1.743,1.737v2.932l-0.316,0.343v3.672l-1.862,1.876l0.515,0.502l-0.872,0.872
		l0.404,0.404l0.343-0.343l1.154,1.154v1.237h0.443v-1.475l0.561-0.55h0.581l1.705-1.748v-1.211l1.392-1.397l-0.002-0.005
		l7.279-7.28h4.896l2.95-2.974h1.911l7.119-7.105l0.07,0.071l4.121-4.116v-0.736l4.498-4.5h0.501v-1.523l2.249-2.254l2.626,0.004
		l1.46-1.444l-2.585-2.567l0.007-0.008l2.017,2.008l1.798-1.808h1.594l2.033-2.041v-3.179l3.453-3.448h1.862v-0.506l0,0v0.442h0.696
		v-0.224L271.692,235.052z M267.719,230.481l0.155-0.155h0L267.719,230.481z M235.408,260.712L235.408,260.712L235.408,260.712
		L235.408,260.712z M238.005,241.979l-0.013-0.013h0.013V241.979z M225.061,250.579l0.722,0.74h-0.018L225.061,250.579z
		 M228.215,257.977l-1.358,1.376h-0.013L228.215,257.977z M244.813,243.503l0.55-0.55L244.813,243.503L244.813,243.503z
		 M240.428,255.708l0.642,0.642l0,0L240.428,255.708z M251.055,235.185h0.661l0,0H251.055L251.055,235.185z M256.331,231.565v0.34
		l0.413,0.413l-0.413-0.413V231.565l-0.564-0.564L256.331,231.565z M257.63,238.601l-0.541-0.532v-3.433l0.115-0.115l-0.115,0.115
		v3.433l0.534,0.532H257.63z M254.727,228.673l1.673,1.673L254.727,228.673L254.727,228.673z M253.294,240.138v-0.006v-2.019
		l-0.777-0.777h-1.198l-0.704-0.717l0.001,0.006l0.703,0.711h1.2l0.774,0.777V240.138z M243.149,236.66l-0.288-0.288l-0.47-0.47
		L243.149,236.66z M235.895,245.695v-0.007h-0.532L235.895,245.695z M229.781,242.685l-0.633-0.633l0,0L229.781,242.685z
		 M229.283,241.917l-0.125,0.125L229.283,241.917L229.283,241.917z M219.054,260.112l0.671,0.673l0.591-0.586l0.621,0.619
		l0.518-0.519l-0.515,0.521l-0.634-0.614l-0.581,0.587l-0.687-0.681H219.054z M218.623,260.101v0.013v-0.005l-0.792-0.801
		L218.623,260.101z M219.782,265.706l-0.368-0.368l0,0l0.372,0.363L219.782,265.706z M220.964,275.502v-0.013l1.691-1.704
		L220.964,275.502z M233.62,259.796l-4.811,4.804v-0.004L233.62,259.796h2.719l0,0H233.62z M251.989,244.188l0.002-0.002
		l0.728,0.728L251.989,244.188z M258.238,245.5l-3.049-3.048l0,0L258.238,245.5L258.238,245.5z"/>
	<rect x="214.89" y="265.3" fill="#00A99D" width="0.127" height="1.898"/>
</g>
<g>
	<path d="M310.962,199.146c7.202-0.782,10.865-1.399,16.749-2.758c4.734-1.111,6.791-1.769,9.013-2.88
		c1.071,0.7,1.852,1.234,2.388,1.605c2.634,1.729,2.716,1.811,2.716,2.263c0,0.247-0.288,0.453-0.658,0.453
		c-0.371,0-0.989-0.164-1.729-0.412c-4.856,0.947-6.379,1.193-12.264,1.811c-0.577,2.428-0.823,3.333-1.071,4.075h9.424
		c1.317-1.359,1.729-1.77,3.005-3.169c1.975,1.399,2.634,1.893,4.691,3.539c0.082,0.124,0.165,0.206,0.165,0.288
		c0,0.124-0.165,0.206-0.412,0.206h-17.202c-0.617,1.894-0.741,2.182-1.523,3.869h14.363l2.922-3.128
		c2.222,1.441,2.881,1.893,4.938,3.539c0.082,0.124,0.124,0.164,0.124,0.247c0,0.123-0.124,0.206-0.412,0.206h-22.388
		c-0.947,1.811-1.275,2.304-2.222,3.621l0.617,0.246h13.046c1.029-1.028,1.359-1.357,2.47-2.428c1.645,1.029,2.14,1.359,3.663,2.428
		c0.328,0.206,0.452,0.371,0.452,0.535c0,0.33-0.04,0.37-1.605,1.317v1.029c0,2.676,0,3.21-0.042,6.297c0,1.07,0,1.934,0,2.51
		c0,2.428,0.042,3.703,0.124,5.967c0,0.576-0.124,0.905-0.452,1.029c-0.33,0.164-2.018,0.33-3.087,0.33
		c-0.823,0-1.111-0.247-1.111-0.947v-1.523h-13.499v1.317c0,0.535-0.164,0.782-0.576,0.947c-0.412,0.124-1.605,0.246-2.881,0.246
		c-0.905,0-1.152-0.164-1.152-0.7c0-0.04,0-0.124,0-0.164c0.04-1.893,0.124-8.025,0.124-11.729c0,0,0-0.165,0-0.659v-1.605
		c-0.783,0.905-1.564,1.564-3.54,3.128c-1.645,1.317-2.88,2.099-5.72,3.581l-0.288-0.371c3.539-2.962,5.308-4.938,7.778-8.519
		c1.275-1.851,2.222-3.456,3.375-5.884h-7.038c-0.864,0-2.222,0.082-3.128,0.206l-0.288-1.441c1.317,0.288,2.304,0.37,3.498,0.37
		h7.368c0.823-1.893,0.864-2.016,1.439-3.869h-7.161c-0.741,0-1.934,0.042-2.88,0.124l-0.289-1.275
		c1.235,0.206,2.388,0.288,3.333,0.288h7.244c0.412-1.399,0.494-1.852,0.823-3.705c-1.481,0.083-5.022,0.165-8.108,0.165
		c-0.535,0-1.729-0.042-3.046-0.124L310.962,199.146z M335.654,213.632h-13.499v4.197h13.499V213.632z M322.155,218.694v4.403
		h13.499v-4.403H322.155z M322.155,223.962v4.486h13.499v-4.486H322.155z"/>
	<path d="M352.537,201.862c0.617,2.346,0.782,3.499,0.782,5.309c0,3.621-1.069,6.049-2.634,6.049c-0.617,0-1.111-0.37-1.481-1.071
		c-0.371-0.658-0.577-1.439-0.577-2.057c0-0.659,0.206-1.029,1.111-1.893c1.523-1.441,2.222-3.335,2.306-6.297L352.537,201.862z
		 M358.339,210.175c0,4.239,0,12.306,0.042,20.742c0,0.412-0.082,0.577-0.247,0.741c-0.246,0.206-1.317,0.37-2.634,0.37
		c-1.234,0-1.523-0.164-1.523-0.946c0.165-8.931,0.206-15.927,0.206-26.916c0-5.926-0.04-7.736-0.206-10
		c5.433,0.494,6.009,0.617,6.009,1.153c0,0.37-0.452,0.658-1.646,0.987V210.175z M364.801,209.516c-1.111,0-1.729,0.042-2.799,0.247
		l-0.246-1.317c-0.288,0.206-0.494,0.288-0.783,0.288c-0.616,0-0.905-0.412-0.987-1.523c-0.33-3.663-0.412-3.951-1.563-5.802
		l0.328-0.247c3.046,1.852,4.116,2.922,4.322,4.28c4.65-0.577,6.297-0.823,10.494-1.688c3.827-0.74,5.638-1.317,8.19-2.51
		c3.827,2.388,4.734,3.046,4.734,3.499c0,0.246-0.289,0.452-0.617,0.452c-0.165,0-1.071-0.164-1.729-0.288
		c-2.881,0.37-3.91,0.453-8.273,0.823v2.922h4.856c0.783-0.864,1.606-1.811,2.511-2.798c1.729,1.317,2.222,1.729,3.785,3.086
		c0.165,0.165,0.206,0.247,0.206,0.371c0,0.164-0.124,0.205-0.494,0.205h-10.865v2.881h4.65c0.783-0.864,1.071-1.153,1.894-2.016
		c1.441,0.947,1.893,1.235,3.21,2.222c0.33,0.288,0.453,0.412,0.453,0.617c0,0.288-0.247,0.452-1.194,0.905
		c0,3.663,0,3.663,0.042,7.654c0,0.741-0.206,0.865-1.605,1.029c1.152,0.823,1.729,1.277,3.21,2.51
		c0.165,0.124,0.206,0.206,0.206,0.289c0,0.164-0.124,0.206-0.535,0.206h-10.33v3.662h5.803c1.153-1.275,1.481-1.645,2.676-2.922
		c1.769,1.399,2.304,1.811,3.868,3.251c0.165,0.165,0.206,0.247,0.206,0.33c0,0.164-0.082,0.206-0.494,0.206h-25.434
		c-1.193,0-1.851,0.042-2.84,0.246l-0.246-1.439c1.153,0.246,1.852,0.328,3.086,0.328h9.219v-3.662h-7.448
		c-1.111,0-1.852,0.04-2.84,0.206l-0.247-1.4c1.194,0.247,1.852,0.33,3.087,0.33h7.448v-3.457H366.9v0.865
		c-0.042,0.823-0.576,1.029-2.758,1.029c-1.399,0-1.646-0.124-1.646-0.865c0.083-3.21,0.124-4.732,0.124-6.996
		c0-2.181-0.04-3.128-0.164-5.308c2.222,0.864,2.88,1.152,4.856,2.181h4.403v-2.881H364.801z M376.077,199.064
		c0-2.346-0.04-3.211-0.164-4.528c4.609,0.371,4.98,0.412,5.556,0.659c0.288,0.124,0.453,0.288,0.453,0.452
		c0,0.33-0.535,0.617-1.688,0.865c0,0.823,0,1.07,0,1.523c0,0.164,0,0.246,0,1.029h1.523l2.511-2.84
		c1.727,1.317,2.222,1.729,3.785,3.128c0.124,0.124,0.164,0.246,0.164,0.33c0,0.164-0.205,0.246-0.452,0.246h-7.532
		c0.042,0.371,0.042,0.371,0.042,1.193c-0.082,0.494-0.247,0.659-0.782,0.783c-0.577,0.123-1.482,0.206-2.306,0.206
		c-0.987,0-1.152-0.124-1.193-0.7c0.042-0.659,0.042-0.823,0.042-1.482h-5.227c0,1.482,0,1.482,0.042,2.552
		c0,0.412-0.082,0.576-0.33,0.7c-0.412,0.206-1.523,0.33-2.592,0.33c-1.193,0-1.359-0.082-1.399-0.741c0-0.658,0.04-1.605,0.04-2.84
		h-2.758c-0.987,0-1.851,0.082-2.756,0.247l-0.247-1.523c1.07,0.288,2.016,0.412,3.004,0.412h2.758c0-0.659,0-0.659,0-2.016
		c0-0.989,0-1.523-0.124-2.634c5.227,0.452,5.927,0.576,5.927,1.111c0,0.37-0.37,0.576-1.564,0.905v2.634H376.077z M371.714,205.937
		c-4.239,0.082-7.119,0.124-8.642,0.124c-0.124,0.946-0.535,1.729-1.235,2.304c1.111,0.206,1.769,0.288,2.963,0.288h6.913V205.937z
		 M371.714,213.263H366.9v3.168h4.815V213.263z M371.714,217.295H366.9v3.333h4.815V217.295z M380.727,213.263h-4.856v3.168h4.856
		V213.263z M380.727,217.295h-4.856v3.333h4.856V217.295z M380.727,224.95c0.495-0.494,1.153-1.193,2.1-2.14
		c-0.288,0.042-0.741,0.042-0.947,0.042c-0.947,0-1.153-0.124-1.153-0.741v-0.617h-4.856v3.457H380.727z"/>
	<path d="M390.325,201.904c0.864,0.206,1.564,0.288,2.386,0.288h5.186c1.111-1.277,1.482-1.646,2.593-2.84
		c1.687,1.275,2.222,1.687,3.868,3.046c0.206,0.206,0.289,0.33,0.289,0.412c0,0.164-0.165,0.246-0.412,0.246h-11.524
		c-0.7,0-1.193,0.042-2.139,0.206L390.325,201.904z M391.354,207.212c0.782,0.165,1.646,0.247,2.386,0.247h3.581
		c1.029-1.153,1.359-1.482,2.428-2.593c1.564,1.194,2.016,1.564,3.415,2.799c0.165,0.206,0.206,0.288,0.206,0.37
		c0,0.165-0.164,0.288-0.452,0.288h-9.178c-0.823,0-1.275,0.042-2.14,0.206L391.354,207.212z M391.395,196.676
		c0.865,0.206,1.482,0.288,2.306,0.288h3.498c1.153-1.234,1.482-1.645,2.593-2.88c1.687,1.357,2.222,1.769,3.785,3.128
		c0.165,0.164,0.206,0.288,0.206,0.37c0,0.124-0.164,0.247-0.412,0.247h-9.63c-0.823,0-1.275,0.04-2.099,0.206L391.395,196.676z
		 M391.436,212.521c0.782,0.206,1.523,0.288,2.222,0.288h3.705c1.111-1.275,1.439-1.646,2.51-2.758
		c1.605,1.235,2.099,1.646,3.58,3.005c0.165,0.206,0.206,0.288,0.206,0.37c0,0.164-0.164,0.246-0.452,0.246h-9.548
		c-0.741,0-1.193,0.042-2.016,0.206L391.436,212.521z M395.675,231.041c-0.04,0.741-0.452,0.865-2.798,0.865
		c-0.987,0-1.235-0.165-1.235-0.823c0.082-3.005,0.124-4.568,0.124-7.202c0-4.362-0.042-5.762-0.165-7.82
		c1.894,0.947,2.47,1.235,4.322,2.304h2.552c0.822-0.987,1.111-1.275,2.016-2.222c1.317,0.947,1.687,1.275,2.88,2.222
		c0.288,0.247,0.412,0.412,0.412,0.576c0,0.289-0.288,0.535-1.235,1.029c0,6.091,0,6.091,0.165,10.577c0,0.04,0,0.082,0,0.124
		c0,0.7-0.617,0.905-2.51,0.905c-1.235,0-1.4-0.082-1.441-0.783v-1.399h-3.087V231.041z M395.675,228.531h3.087v-9.301h-3.087
		V228.531z M405.799,217.295c-0.864,0.04-1.687,0.123-2.386,0.288l-0.288-1.399c0.74,0.123,1.645,0.246,2.346,0.246l0.328-0.04
		l2.428-0.042v-2.47c-1.975,0.247-2.84,0.289-5.144,0.412l-0.082-0.37c2.552-0.782,4.239-1.481,6.215-2.47
		c1.605-0.822,2.057-1.111,2.798-1.893c3.004,2.264,3.869,3.004,3.869,3.333c0,0.165-0.165,0.288-0.33,0.288
		c-0.37,0-0.823-0.123-1.275-0.37c-1.111,0.288-1.441,0.37-2.1,0.494v3.004l4.157-0.082c-0.164-1.275-0.246-2.386-0.328-3.951
		c-0.042-1.193-0.042-1.481-0.206-2.346c4.321,0.371,5.185,0.535,5.185,0.989c0,0.246-0.328,0.494-1.193,0.823
		c-0.04,0.41-0.04,0.782-0.04,0.987c0,1.152,0.04,2.099,0.206,3.457l3.745-0.082c0.288-0.289,0.494-0.577,0.658-0.783
		c-0.206,0.042-0.288,0.042-0.288,0.042c-0.617,0-0.865-0.288-1.071-1.193c-0.328-1.523-0.74-2.428-1.645-3.539l0.206-0.33
		c2.469,0.7,3.004,0.905,3.868,1.441c0.617,0.37,0.907,0.822,0.907,1.357c0,0.247-0.042,0.453-0.206,0.782
		c1.234,0.989,1.523,1.235,2.716,2.346c0.124,0.124,0.206,0.288,0.206,0.371c0,0.123-0.165,0.246-0.412,0.246l-8.561,0.165
		c0.288,2.016,0.617,3.128,1.317,4.527c1.153-1.687,1.523-2.428,1.894-3.581c3.909,1.359,4.568,1.688,4.568,2.058
		c0,0.33-0.371,0.494-1.523,0.617c-1.235,1.769-1.852,2.51-3.087,3.745c1.07,1.235,1.523,1.646,2.758,2.386
		c1.069-1.975,1.357-2.552,2.634-5.679l0.452,0.083l-0.864,5.226c-0.042,0.124-0.042,0.288-0.042,0.412
		c0,0.288,0.082,0.452,0.371,0.782c0.658,0.7,0.946,1.276,0.946,1.934c0,1.153-0.864,2.016-1.975,2.016
		c-1.934,0-4.65-1.811-7.078-4.732c-2.264,1.687-4.404,2.758-8.025,4.033l-0.206-0.412c2.84-1.975,4.486-3.375,6.708-5.762
		c-0.989-1.687-1.523-3.004-2.016-4.898c-2.758,1.317-2.758,1.317-4.734,2.14v0.741c0,3.621,0,3.621,0.042,5.474
		c0,2.016-0.7,2.84-2.881,3.457c-0.576,0.164-1.481,0.33-1.851,0.33c-0.33,0-0.453-0.124-0.495-0.495
		c-0.082-0.617-0.205-1.111-0.41-1.523c-0.453-0.905-0.947-1.234-3.046-1.851l0.04-0.494c1.894,0.164,2.51,0.206,4.239,0.246
		c0,0,0.042,0,0.083,0c0.246,0,0.328-0.082,0.328-0.412v-3.909c-0.987,0.33-1.317,0.452-2.592,0.864
		c-0.206,1.153-0.33,1.441-0.659,1.441c-0.164,0-0.288-0.124-0.412-0.37c0-0.083-0.328-1.564-0.987-4.445c0.247,0,0.494,0,0.617,0
		c0.782,0,1.934-0.083,4.033-0.33v-3.375L405.799,217.295z M416.994,203.632h3.745c0.987-1.153,1.275-1.523,2.304-2.634
		c1.646,1.193,2.099,1.563,3.621,2.88c0.165,0.165,0.206,0.288,0.206,0.37c0,0.124-0.164,0.247-0.412,0.247h-9.465v3.787h5.597
		c1.111-1.277,1.399-1.646,2.469-2.84c1.688,1.193,2.182,1.605,3.787,2.962c0.164,0.206,0.246,0.33,0.246,0.453
		c0,0.164-0.206,0.288-0.412,0.288h-22.223c-0.987,0-1.77,0.082-2.47,0.206l-0.246-1.317c0.905,0.206,1.563,0.247,2.716,0.247h6.297
		v-3.787h-4.445c-1.029,0-1.729,0.042-2.511,0.206l-0.246-1.317c0.864,0.164,1.687,0.247,2.758,0.247h4.445v-3.499h-5.721
		c-1.029,0-1.811,0.082-2.676,0.247l-0.246-1.4c0.987,0.206,1.852,0.289,2.922,0.289h2.758c-0.206-0.33-0.206-0.412-0.33-0.865
		c-0.412-1.605-1.193-2.88-2.592-4.321l0.328-0.371c4.568,1.153,6.256,2.14,6.256,3.622c0,0.7-0.33,1.317-1.029,1.934h3.909
		c1.441-2.881,1.976-4.322,2.264-5.803c5.062,1.359,5.885,1.687,5.885,2.181c0,0.33-0.453,0.495-1.77,0.535
		c-1.645,1.277-2.386,1.77-4.445,3.087h3.951c0.987-1.153,1.317-1.482,2.304-2.593c1.606,1.193,2.058,1.564,3.499,2.799
		c0.164,0.206,0.246,0.328,0.246,0.412c0,0.123-0.164,0.246-0.41,0.246h-10.865V203.632z M412.178,220.094
		c1.894-0.246,2.758-0.412,4.61-0.782c-0.165-0.865-0.247-1.277-0.371-2.222l-4.239,0.082V220.094z"/>
	<path d="M444.37,196.265c0.864-0.987,1.153-1.275,2.099-2.222c1.317,0.947,1.729,1.235,2.922,2.14
		c0.371,0.288,0.494,0.453,0.494,0.659c0,0.288-0.246,0.494-1.152,0.946c0.04,4.692,0.04,4.692,0.082,10.495
		c0,0.452-0.124,0.617-0.494,0.782c1.399,1.153,1.729,1.441,3.086,2.716c0.165,0.206,0.247,0.33,0.247,0.453
		c0,0.164-0.164,0.246-0.494,0.246h-6.626v5.845h1.399c0.947-1.153,1.235-1.482,2.182-2.593c1.481,1.235,1.934,1.605,3.251,2.922
		c0.082,0.124,0.164,0.247,0.164,0.33c0,0.124-0.164,0.206-0.37,0.206h-6.626v6.996c2.428,0.658,4.116,0.782,11.195,0.782
		c7.82,0,10.536-0.124,15.186-0.658v0.452c-1.482,0.989-1.976,1.811-2.346,3.705c-0.042,0.328-0.247,0.412-1.07,0.412
		c-0.247,0-0.865,0.04-1.729,0.04c-1.235,0.042-2.346,0.042-3.375,0.042c-6.379,0-11.153-0.165-13.252-0.494
		c-6.173-0.947-9.754-3.499-11.77-8.479c-0.37,1.277-0.947,2.676-1.687,4.075c-1.111,2.182-2.222,3.581-4.486,5.762l-0.37-0.288
		c1.317-2.592,2.016-4.527,2.634-7.326c0.534-2.345,0.987-6.255,0.987-8.354c0-0.33,0-0.823-0.042-1.441
		c1.193,0.206,2.14,0.37,2.716,0.453c2.264,0.37,2.881,0.576,2.881,0.987c0,0.33-0.412,0.494-1.523,0.7
		c-0.33,2.182-0.453,3.004-0.782,4.321c0.946,1.688,1.645,2.511,2.88,3.457V212.48h-6.214c-0.823,0-1.4,0.082-2.264,0.288
		l-0.247-1.481c0.865,0.206,1.688,0.33,2.511,0.33h11.358c1.111-1.277,1.482-1.646,2.264-2.428
		c-0.699,0.082-1.153,0.124-1.975,0.124c-1.071,0-1.359-0.165-1.359-0.741v-0.782h-6.255v0.864c0,0.042,0,0.124,0,0.164
		c0,0.659-0.577,0.865-2.676,0.865c-1.275,0-1.563-0.165-1.563-0.782c0-0.042,0-0.083,0-0.165c0.123-3.58,0.164-5.638,0.164-9.095
		c0-2.758-0.042-3.787-0.164-5.597c2.099,0.865,2.716,1.153,4.691,2.222H444.37z M444.658,197.13h-6.255v4.321h6.255V197.13z
		 M438.403,202.315v4.609h6.255v-4.609H438.403z M456.263,219.106c0,0.494-0.205,0.658-0.905,0.782c4.24,2.016,4.28,2.058,4.28,2.47
		c0,0.246-0.37,0.452-0.864,0.452c-0.33,0-0.7,0-1.111-0.04c-3.211,1.893-4.774,2.551-9.178,3.703l-0.246-0.412
		c3.292-2.181,5.39-4.075,6.707-6.131c-0.452,0.04-0.7,0.04-1.234,0.04c-1.4,0-1.606-0.123-1.606-0.782
		c0.083-5.432,0.083-5.432,0.083-7.572c0-7.326-0.042-10.248-0.165-12.1c1.934,0.823,2.511,1.153,4.28,2.182h0.823
		c0.412-2.428,0.412-2.552,0.535-4.816h-4.65c-0.823,0-1.564,0.082-2.306,0.247l-0.246-1.441c0.946,0.247,1.645,0.33,2.51,0.33
		h10.823c1.153-1.317,1.523-1.688,2.716-2.881c1.852,1.317,2.388,1.729,4.075,3.169c0.164,0.164,0.206,0.246,0.206,0.33
		c0,0.164-0.164,0.246-0.412,0.246h-7.532c-2.716,3.293-2.798,3.417-4.197,4.816h4.898c0.864-0.989,1.111-1.277,1.975-2.182
		c1.359,0.947,1.729,1.235,3.046,2.182c0.37,0.246,0.494,0.452,0.494,0.617c0,0.288-0.288,0.534-1.235,0.987
		c0,1.193,0,2.016,0,2.798c0,2.758,0.042,6.173,0.165,12.552c0,0.412-0.083,0.577-0.247,0.741c-0.288,0.206-1.317,0.37-2.716,0.37
		c-1.111,0-1.359-0.123-1.359-0.658v-0.741h-7.408V219.106z M463.671,202.562h-7.408v4.075h7.408V202.562z M456.263,207.5v4.404
		h7.408V207.5H456.263z M456.263,212.768v4.734h7.408v-4.734H456.263z M460.585,220.052c4.28,0.701,5.556,0.989,6.708,1.482
		c0.987,0.412,1.605,1.235,1.605,2.181c0,1.441-0.823,2.758-1.729,2.758c-0.371,0-0.412-0.04-1.441-1.317
		c-1.605-1.975-3.087-3.292-5.309-4.65L460.585,220.052z"/>
</g>
<g>
	<path d="M291,285.409c-1.009,0-2-0.818-2-1.827V145.924c0-1.009,0.991-1.827,2-1.827s2,0.818,2,1.827v137.658
		C293,284.591,292.009,285.409,291,285.409z"/>
</g>
<g>
	<rect x="286" y="92" fill="#B3B3B3" width="97" height="26"/>
	<polygon fill="#CCCCCC" points="353.665,74 312.245,74 301.282,85 364.628,85 	"/>
	<polygon fill="#CCCCCC" points="369.501,79 298.845,79 285.445,92 382.902,92 	"/>
	<rect x="301" y="85" fill="#B3B3B3" width="64" height="33"/>
	<rect x="314" y="77" fill="#999999" width="38" height="44"/>
	<rect x="317" y="106" fill="#B3B3B3" width="32" height="8"/>
	<rect x="317" y="106" fill="#B3B3B3" width="7" height="19"/>
	<rect x="342" y="106" fill="#B3B3B3" width="7" height="19"/>
	<polygon fill="#E6E6E6" points="343.919,102 321.991,102 317.118,106 348.792,106 	"/>
	<polygon fill="#E6E6E6" points="341.482,67 324.428,67 313.464,77 352.446,77 	"/>
	<line fill="none" stroke="#000000" stroke-miterlimit="10" x1="332.5" y1="73" x2="332.5" y2="54"/>
	<rect x="333" y="54" fill="#FF0000" width="6" height="6"/>
	<rect x="333" y="54" fill="#0000FF" width="3" height="3"/>
	<polygon fill="#808080" points="327,114 324,114 324,125.215 327,122.778 	"/>
	<polygon fill="#808080" points="342,125.215 339,122.778 339,114 342,114 	"/>
</g>
</svg>
