<?xml version="1.0" encoding="utf-8"?>
<!-- Generator: Adobe Illustrator 17.0.0, SVG Export Plug-In . SVG Version: 6.00 Build 0)  -->
<!DOCTYPE svg PUBLIC "-//W3C//DTD SVG 1.1//EN" "http://www.w3.org/Graphics/SVG/1.1/DTD/svg11.dtd">
<svg version="1.1" id="Layer_1" xmlns="http://www.w3.org/2000/svg" xmlns:xlink="http://www.w3.org/1999/xlink" x="0px" y="0px"
	 width="480px" height="300px" viewBox="0 0 480 300" enable-background="new 0 0 480 300" xml:space="preserve">
<g>
	<path d="M139.122,41.147l3.198,9.325c-7.639,1.066-13.768,1.778-18.385,2.132v8.26h18.652v9.592h-5.063v31.441h-9.592V70.456
		h-3.997c0,8.173-0.446,14.48-1.333,18.918c-0.712,4.263-2.398,8.968-5.062,14.122c-2.844-1.957-5.774-3.909-8.793-5.862
		c1.241-2.132,2.219-4.351,2.931-6.661l-5.596,4.53c-0.532-0.533-1.599-1.686-3.197-3.464c-0.891-1.241-1.599-2.132-2.132-2.665
		v13.056h-9.859V88.841c-1.599,3.377-4.709,7.015-9.326,10.925c-1.424-2.49-3.11-4.971-5.062-7.46
		c3.905-2.84,7.46-6.661,10.658-11.458h-7.728v-8.26h11.458v-3.464H78.371v-8.526h6.928c-0.358-0.533-0.979-1.419-1.866-2.665
		c-0.891-1.066-1.599-1.865-2.131-2.398l4.529-2.132h-6.128v-8.526h10.925v-5.862h9.592v5.862h11.191v8.526h-6.661l5.329,1.599
		l-3.73,5.595h6.128v8.526h-11.724v3.464h10.925v8.26h-10.925v4.263l3.73-2.931c0.887,0.533,2.398,1.957,4.53,4.263
		c1.599,1.599,2.665,2.665,3.197,3.198c1.241-3.73,1.774-10.479,1.599-20.25V43.811C123.576,43.278,132.015,42.392,139.122,41.147z
		 M94.625,58.732l-3.997,1.865h5.862l4.263-7.194H90.361L94.625,58.732z"/>
	<path d="M148.181,103.229V41.147h60.751v62.082h-10.126v-2.664H158.04v2.664H148.181z M191.613,62.196l6.661,3.464
		c-2.665,5.508-5.508,10.391-8.526,14.654v0.533c0.533,1.245,1.066,1.865,1.599,1.865c0.708,0,1.154-0.533,1.332-1.599
		c0.354-0.354,0.887-1.686,1.599-3.997c0.175-0.533,0.267-0.887,0.267-1.066c0.532,0.533,1.507,1.333,2.931,2.398
		c0.533,0.533,0.974,0.891,1.332,1.066V49.673H158.04v42.632h40.767v-9.859c-0.532,1.245-1.157,2.577-1.865,3.997
		c-1.599,3.556-3.909,5.242-6.927,5.063c-2.49,0-4.53-1.241-6.128-3.73c-1.424,1.424-2.844,2.843-4.263,4.263
		c-0.179-0.175-0.533-0.62-1.066-1.333c-0.532-0.532-0.891-0.974-1.066-1.332c-5.329,0.533-11.104,1.066-17.32,1.599l-1.332-7.727
		c1.953-0.175,5.329-0.354,10.125-0.533c4.263-0.354,7.194-0.533,8.793-0.533c1.24-1.066,2.398-2.218,3.464-3.464
		c-0.891-4.084-1.424-9.859-1.599-17.319h-20.25v-7.461h19.984c0-0.354-0.092-0.886-0.267-1.599c0-0.708,0-1.153,0-1.332h8.526
		c0,0.891,0,1.865,0,2.931h2.398l-0.533-2.398l5.862-0.532l0.533,2.931h1.865v7.461h-9.859c0,0.891,0.087,2.044,0.267,3.464
		c0,1.778,0.087,3.022,0.267,3.73c0.175-0.533,0.532-1.24,1.066-2.132C190.368,64.686,191.079,63.262,191.613,62.196z
		 M160.438,63.529h17.586v17.319h-17.586V63.529z M171.096,69.923h-3.73v4.53h3.73V69.923z"/>
	<path d="M256.36,39.281l-2.132,1.866c7.102,4.263,15.629,7.46,25.579,9.592c-0.358,1.245-0.978,3.11-1.865,5.595
		c-0.533,1.778-0.891,3.023-1.066,3.73c-1.066-0.354-1.957-0.62-2.665-0.799v18.917h-54.888V60.064c-0.358,0-0.8,0.092-1.333,0.267
		c-0.712,0.179-1.245,0.358-1.599,0.533c-0.358-1.773-1.332-4.796-2.931-9.06c13.143-3.372,22.736-7.548,28.777-12.523H256.36z
		 M221.987,103.229V80.314h49.56v22.915h-10.125v-1.865h-29.309v1.865H221.987z M259.024,56.068H234.51v-1.865
		c-3.022,1.245-6.395,2.577-10.125,3.997h46.629c-4.442-1.599-8.439-3.197-11.991-4.796V56.068z M228.915,64.594v7.194h5.862
		c-0.358-0.354-1.157-1.066-2.398-2.132c-1.245-1.066-2.132-1.865-2.664-2.398l3.997-2.665H228.915z M232.113,86.443v2.132h29.309
		v-2.132H232.113z M232.113,93.371v2.132h29.309v-2.132H232.113z M241.172,68.324l-4.53,3.464h5.329v-7.194h-5.596
		C237.441,65.485,239.04,66.726,241.172,68.324z M253.428,50.739c-0.712-0.533-1.69-1.241-2.931-2.132
		c-1.424-0.887-2.49-1.507-3.198-1.865c-1.778,1.245-3.909,2.577-6.395,3.997H253.428z M252.363,68.324
		c0.353-0.354,0.974-0.799,1.865-1.332c1.24-1.066,2.219-1.865,2.931-2.398h-5.595v7.194h4.796L252.363,68.324z M264.353,71.789
		v-7.194h-4.796l3.997,2.665c-0.358,0.358-1.157,1.066-2.398,2.132c-1.245,1.066-2.132,1.865-2.664,2.398H264.353z"/>
</g>
<g>
	<path d="M9.405,136.382h22.648v8.26H9.405V136.382z M10.737,146.774h19.717v7.194H10.737V146.774z M10.737,156.366h19.717v7.194
		H10.737V156.366z M11.004,188.872v-22.914h19.451v22.914h-7.194v-2.664h-5.063v2.664H11.004z M11.803,126.79h18.118v7.194H11.803
		V126.79z M18.198,173.684v5.329h5.063v-5.329H18.198z M32.853,155.833c7.46-0.353,13.764-0.62,18.918-0.799l1.066,5.595
		c-0.533,0-1.332,0-2.398,0c-1.066,0.18-1.865,0.267-2.398,0.267v2.397h6.395c-0.178-2.664-0.266-5.503-0.266-8.526h8.259
		c0,3.023,0.087,5.862,0.267,8.526h4.796c-0.533-0.532-1.332-1.419-2.398-2.664c-1.066-1.066-1.865-1.865-2.398-2.398l5.063-3.997
		c1.953,1.599,3.73,3.29,5.329,5.063l-4.53,3.996h5.862v6.661h-4.263l3.73,2.665c-2.844,2.843-5.42,5.328-7.727,7.46
		c0.354,0.533,0.62,0.979,0.799,1.332c0.175,0.175,0.533,0.266,1.066,0.266c0.532,0,0.886-0.091,1.066-0.266
		c0.354-1.419,0.62-2.931,0.8-4.529c1.953,0.89,3.73,1.598,5.329,2.131c-0.179,0.533-0.358,1.245-0.532,2.132
		c-0.358,1.24-0.625,2.131-0.8,2.664c-0.891,3.552-3.11,5.329-6.661,5.329c-3.555,0.175-6.307-1.333-8.26-4.53
		c-2.132,1.419-4.708,2.753-7.727,3.997c-0.891-1.599-2.044-3.464-3.464-5.595c0,3.55-2.044,5.416-6.128,5.595
		c-0.533,0-1.599,0-3.198,0c-1.957,0.175-3.289,0.266-3.997,0.266c-0.179-0.891-0.533-2.311-1.066-4.263
		c-0.179-0.891-0.358-1.598-0.533-2.131c1.773,0,3.285,0,4.53,0c1.599,0,2.306-0.533,2.132-1.599v-1.066
		c-0.891,0.18-2.49,0.358-4.796,0.533c-1.066,0.18-1.865,0.267-2.398,0.267l-1.066-7.46l8.26-0.533v-2.665h-7.993v-6.661h7.993
		v-1.865l-5.329,0.267L32.853,155.833z M35.251,139.579h13.855v-2.132h-15.72v-6.661h7.46l-2.931-4.53l9.593-1.066l3.464,5.596
		h5.063l3.197-5.596l9.859,1.066l-2.931,4.53h7.46v6.661h-15.72v2.132h13.855v5.596H57.899v2.132h16.52v6.661H32.853v-6.661h16.253
		v-2.132H35.251V139.579z M56.566,178.481c-0.712-2.306-1.332-5.15-1.865-8.526H48.04v2.132l5.329-0.533
		c0,0.891-0.092,2.131-0.267,3.73c0,1.424,0,2.489,0,3.197l-5.063,0.533v2.664v0.267C51.238,181.059,54.077,179.905,56.566,178.481z
		 M63.228,169.954l0.533,3.464c0.533-0.353,1.153-0.974,1.865-1.865c0.887-0.708,1.507-1.241,1.865-1.599H63.228z"/>
	<path d="M108.524,164.359h-7.993v3.464h7.461v7.726h-7.461v3.198c2.486,0.533,5.15,0.799,7.993,0.799h3.198
		c-0.533-1.066-1.245-2.486-2.132-4.263c-0.533-0.886-0.891-1.507-1.066-1.865c3.73-1.241,7.369-2.664,10.925-4.263h-9.06v-30.642
		h8.793l0.8-3.198h-10.658v-7.727h32.507v7.727h-12.257l-1.066,3.198h11.99v30.642h-9.06c1.241,0.533,3.019,1.245,5.329,2.131
		c2.306,0.891,4.085,1.599,5.329,2.132l-3.198,5.862c1.42,0,2.752,0,3.997,0c-0.179,0.89-0.625,2.306-1.333,4.262
		c-0.533,2.132-0.978,3.639-1.332,4.53c-7.286,0-13.148,0-17.586,0c-4.975,0-9.684-0.092-14.122-0.267
		c-10.658,0.175-17.677-1.956-21.049-6.394c-0.533,2.131-1.512,4.796-2.931,7.993c-0.358-0.178-0.891-0.446-1.599-0.799
		c-1.066-0.891-3.023-2.132-5.862-3.73c2.306-3.552,3.464-9.859,3.464-18.918l8.26,0.533c0,1.598,0,3.022,0,4.263
		c0.708,1.423,1.599,2.664,2.665,3.73v-10.126H78.416v-8.26h30.109V164.359z M80.547,153.967v-26.645h26.112v26.645H80.547z
		 M89.34,135.05v2.931h8.526v-2.931H89.34z M89.34,146.774h8.526v-2.931H89.34V146.774z M125.044,175.018
		c-0.891,0.357-2.223,0.89-3.997,1.598c-1.066,0.358-3.289,1.332-6.661,2.931c5.329,0,9.501,0,12.523,0
		c3.373,0,6.482-0.087,9.326-0.266c-0.533-0.175-1.424-0.533-2.665-1.066c-1.424-0.708-3.997-1.774-7.727-3.197l3.73-5.862h-8.26
		L125.044,175.018z M131.706,144.908h-12.79v2.665h12.79V144.908z M118.916,152.635v2.665h12.79v-2.665H118.916z M118.916,163.027
		h12.79v-2.664h-12.79V163.027z"/>
	<path d="M146.893,152.102v-10.125h4.53v-16.52h9.592v16.52h3.997v2.931l2.931-0.8v-13.056h9.859v10.658l5.329-1.066v-15.188h9.859
		v12.79l15.188-3.464c-0.179,8.884-0.446,17.411-0.8,25.579c0.175,4.975-1.511,7.819-5.062,8.526
		c-1.778,0.178-4.53,0.444-8.26,0.799c-0.179-1.774-0.533-3.552-1.066-5.329v11.191h-9.859V150.77l-5.329,1.332v22.115
		c0,3.022,1.507,4.53,4.53,4.53h13.056c3.198,0,4.971-1.066,5.329-3.198c0.175-0.707,0.441-1.953,0.799-3.73
		c0.175-1.065,0.354-1.953,0.533-2.664c1.599,0.891,4.53,2.044,8.793,3.464c0.175,0.178,0.354,0.266,0.532,0.266
		c-0.532,3.555-1.332,6.574-2.398,9.06c-1.245,3.73-4.709,5.595-10.392,5.595h-20.783c-6.753,0.175-10.038-3.197-9.859-10.126V154.5
		l-3.731,0.8l-0.532-3.198h-2.665v18.652c1.599-0.355,3.197-0.62,4.796-0.8c0,1.424,0.087,3.377,0.266,5.862
		c0,1.956,0,3.377,0,4.263c-2.131,0.358-5.241,0.891-9.325,1.598c-3.909,0.708-7.019,1.241-9.325,1.599l-1.599-10.124
		c0.887-0.175,2.132-0.355,3.731-0.533c0.886-0.175,1.507-0.267,1.865-0.267v-20.25H146.893z M198.318,147.04l-5.329,1.332v11.724
		h2.665c1.419,0.18,2.219-0.62,2.398-2.397C198.226,154.5,198.318,150.949,198.318,147.04z"/>
	<path d="M216.436,189.139v-61.817h60.751v61.817h-9.859v-2.398h-41.299v2.398H216.436z M226.029,135.05v44.231h41.299V135.05
		H226.029z M227.094,148.372h14.921v-1.865h-11.99v-9.592h33.306v9.592h-11.99v1.865h14.921v5.063h-39.168V148.372z
		 M264.664,155.034v22.381h-35.971v-22.381H264.664z M236.686,160.363v11.724h20.25v-11.724H236.686z M238.551,161.961h16.253v8.526
		h-16.253V161.961z M239.351,140.645v2.132h14.655v-2.132H239.351z M244.414,165.158v2.132h4.529v-2.132H244.414z"/>
</g>
<g>
	<path d="M139.207,262.788h-9.326v10.124h-9.325v-10.124h-12.523v-8.526h12.523v-5.595h-4.796c-0.533,1.956-1.245,3.73-2.132,5.328
		c-0.533-0.175-1.245-0.533-2.132-1.065c-0.891-0.355-2.398-0.975-4.53-1.865v13.855c0.175,4.796-2.131,7.282-6.927,7.46
		c-1.245,0-3.023,0-5.329,0c-0.178-0.712-0.532-2.131-1.066-4.263c-0.358-1.598-0.625-2.839-0.8-3.73
		c0.533,0.18,1.865,0.267,3.997,0.267c1.599,0,2.398-0.8,2.398-2.398v-3.464H85.118c-0.358,5.508-1.599,10.479-3.73,14.921
		c-2.311-2.131-4.709-3.996-7.194-5.595c2.486-3.905,3.639-11.278,3.464-22.115V231.08l-2.931-5.329
		c3.905-4.796,7.015-10.299,9.326-16.52l10.125,0.8l-1.865,3.73h12.789v7.993l-2.398,3.73h4.263v3.463
		c4.263-2.306,6.57-5.416,6.928-9.325h-5.062v-8.259h29.309l-0.532,13.589c0,5.686-2.577,8.526-7.728,8.526
		c-1.599,0.178-4.176,0.266-7.727,0.266l-1.332-6.128c-1.245,2.49-3.909,5.155-7.993,7.993l-5.862-5.328v19.184
		c1.774-3.905,2.931-8.261,3.464-13.056l7.727,0.799l-0.533,3.197h2.931v-5.062h9.325v5.062h8.526v8.261h-8.526v5.595h9.326V262.788
		z M85.651,233.478v5.062h2.665v-5.062H85.651z M85.651,246.268c0,1.778,0,3.463,0,5.062h2.665v-5.062H85.651z M88.315,221.754
		c-0.712,1.423-1.512,2.664-2.398,3.73h7.194l2.398-3.73H88.315z M99.239,233.478h-3.197v5.062h3.197V233.478z M96.042,246.268
		v5.062h3.197v-5.062H96.042z M123.22,219.622c-0.179,0.358-0.267,0.979-0.267,1.865c-0.533,2.132-0.979,3.643-1.333,4.53h4.263
		c1.773,0,2.665-0.888,2.665-2.665l0.267-3.73H123.22z"/>
	<path d="M170.115,208.965h10.658v5.595h25.312v15.188h-10.658v-6.128h-16.786l3.73,3.463l-7.727,6.128
		c-0.891-1.065-2.49-2.751-4.796-5.062v8.792c5.862-2.839,12.257-7.015,19.185-12.523l6.927,6.661
		c-7.639,6.219-15.545,11.191-23.714,14.921c0.533,0,1.066,0,1.599,0h6.928c2.839,0.18,4.351-0.886,4.53-3.197l0.799-4.529
		c3.551,1.778,6.661,3.022,9.326,3.73c-1.599-2.132-3.023-4.172-4.263-6.128l8.26-5.063c3.372,4.443,6.395,8.526,9.059,12.257
		l-8.792,5.596c-0.358-0.708-1.066-1.865-2.132-3.464c-0.891-1.241-1.512-2.132-1.866-2.664c-0.532,2.131-1.157,4.442-1.865,6.927
		c-1.424,3.73-4.796,5.508-10.125,5.329h-2.931v6.927h11.457v-7.46h10.658v18.918h-10.658v-2.665h-33.572v2.665H148v-17.853h10.658
		v6.395h11.457v-6.927h-1.066c-3.909-0.175-6.661-1.599-8.259-4.263c-4.442,1.598-9.326,3.022-14.655,4.263
		c-0.533-1.421-1.333-3.373-2.398-5.862c-0.891-2.306-1.245-3.464-1.066-3.464c2.665-0.532,5.238-1.152,7.727-1.865l-6.661-6.394
		c0.886-0.886,2.219-2.307,3.997-4.263c1.419-1.419,2.486-2.486,3.197-3.197h-6.395V214.56h25.579V208.965z M150.931,243.602
		c1.241-0.353,3.019-0.886,5.329-1.598c1.599-0.533,2.839-0.888,3.73-1.066v-6.394C156.793,237.741,153.77,240.763,150.931,243.602z
		 M167.184,225.75l2.665-2.131h-14.655v4.529l4.796,4.263v-4.529h9.592L167.184,225.75z"/>
</g>
<g>
	<path fill="#00A99D" d="M277.115,221.796l0.465-0.443v-0.394l-0.212-0.202l0.454-0.458l-0.683-0.694l-0.851-0.863v-0.283
		l-0.797-0.789h-0.494v-0.179l0.241-0.253l-0.37-0.358v-0.308h-0.194v-0.281l0.323-0.367v-0.127h-0.427l-0.219-0.237v-1.764
		l-0.194-0.204v-0.346l-0.589-0.613h-0.62l-0.274-0.258h-0.984l-0.209,0.194h-0.546l-0.549,0.581h-0.368l-0.701,0.71h-1.473
		l-0.521-0.536l-0.72-0.006v0.809l0.84,0.863v0.431l0.258,0.261v0.458v-0.003v0.488v-0.939l-0.258-0.266v-0.421l-0.904-0.873v-0.789
		l-0.28-0.317h-0.517h-1.905l-0.422-0.387h-2.454l-1.309,1.29l0.753,0.753v-0.01l-0.72-0.742h-0.836l-1.07,1.098h-0.481h-0.611
		l-1.19,1.171v0.431l-0.194,0.169v-0.028h-0.715l-0.494,0.517h-2.301l-0.485,0.517h-1.007l-2.157,2.131h-0.934h-0.351l-0.611,0.646
		h-1.047l-1.384,1.368l-0.371-0.39l-0.283,0.287v0.414h-0.969v0.194h0.31l-0.418,0.405l-0.148-0.155l-0.286,0.283l-0.189-0.19
		l-0.165,0.164l0.53,0.52l-0.146,0.136h-0.989l-0.251,0.258h-1.331l-0.27,0.276l0.3,0.303l0.216-0.214l0.344,0.331l-0.351,0.338
		h-0.795l-0.279-0.265l-0.21,0.217l0.363,0.366l-0.131,0.134h-0.574l-0.257,0.258l-0.263-0.261l-0.582,0.584h-0.499l-1.658,1.679
		h-0.342h-0.557l-0.476,0.464l0.17,0.157l-0.287-0.297h-1.708l-0.501,0.497v0.278h0.452v0.217l-3.487,3.496v0.974l0.707,0.697
		l-0.86-0.864h-0.557v0.487l0.344,0.363l-1.03,1.024l-0.002,0.864l-0.873,0.012l-0.602,0.608h0.007l-2.458,2.478l-0.006-0.006
		l-1.074,1.08h-0.425l-0.726,0.696v0.586l0.464,0.506l0.074-0.039l0.365,0.349v1.348v1.456v1.402l-0.581,0.505v3.329h-0.065v0.668
		l-0.473,0.488l-0.188-0.185l-0.437,0.43v0.695l0.293,0.304l-0.099,0.085v0.528v1.344l0.503,0.485h-0.351l-0.364-0.362l-0.153,0.189
		l0.616,0.625h0.072v1.292h0.601l0.01,1.719l1.779,1.773v2.993l-0.323,0.351v3.748l-1.901,1.914l0.526,0.512l-0.89,0.89l0.413,0.413
		l0.351-0.351l1.178,1.178v1.262h0.452v-1.505l0.573-0.561h0.593l1.74-1.784v-1.236l1.421-1.426l-0.003-0.005l7.429-7.43h4.997
		l3.011-3.035h1.95l7.267-7.252l0.072,0.073l4.207-4.201v-0.751l4.591-4.593h0.511v-1.554l2.296-2.301l2.68,0.004l1.49-1.474
		l-2.639-2.62l0.007-0.008l2.059,2.049l1.835-1.845h1.627l2.075-2.083v-3.245l3.524-3.519h1.9v-0.516l0,0v0.452h0.71v-0.229
		L277.115,221.796z M273.06,217.13l0.159-0.159v0L273.06,217.13z M240.081,247.986L240.081,247.986L240.081,247.986L240.081,247.986
		z M242.732,228.865l-0.013-0.013h0.013V228.865z M229.52,237.643l0.737,0.755h-0.018L229.52,237.643z M232.739,245.195
		l-1.386,1.404h-0.013L232.739,245.195z M249.68,230.421l0.562-0.562L249.68,230.421L249.68,230.421z M245.205,242.879l0.655,0.655
		l0,0L245.205,242.879z M256.052,221.931h0.675l0,0H256.052L256.052,221.931z M261.436,218.237v0.347l0.421,0.421l-0.421-0.421
		V218.237l-0.575-0.575L261.436,218.237z M262.763,225.418l-0.552-0.543v-3.504l0.117-0.117l-0.117,0.117v3.504l0.545,0.543H262.763
		z M259.799,215.285l1.708,1.708L259.799,215.285L259.799,215.285z M258.336,226.986v-0.006v-2.061l-0.793-0.793h-1.222
		l-0.719-0.731l0.001,0.006l0.718,0.725h1.225l0.79,0.793V226.986z M247.982,223.437l-0.294-0.294l-0.479-0.479L247.982,223.437z
		 M240.578,232.658v-0.008h-0.543L240.578,232.658z M234.337,229.587l-0.646-0.646l0,0L234.337,229.587z M233.83,228.803
		l-0.127,0.127L233.83,228.803L233.83,228.803z M223.388,247.374l0.685,0.687l0.603-0.598l0.633,0.632l0.529-0.53l-0.525,0.532
		l-0.647-0.627l-0.593,0.599l-0.701-0.695H223.388z M222.949,247.362v0.014v-0.005l-0.809-0.818L222.949,247.362z M224.132,253.083
		l-0.375-0.375l0,0l0.38,0.371L224.132,253.083z M225.338,263.082v-0.013l1.726-1.739L225.338,263.082z M238.256,247.051
		l-4.91,4.904v-0.004L238.256,247.051h2.775l0,0H238.256z M257.004,231.12l0.002-0.002l0.743,0.743L257.004,231.12z
		 M263.383,232.459l-3.112-3.111l0.001-0.001L263.383,232.459L263.383,232.459z"/>
	<rect x="219.139" y="252.669" fill="#00A99D" width="0.129" height="1.937"/>
</g>
<g>
	<path d="M297,273.194c-1.03,0-2-0.835-2-1.865V130.825c0-1.03,0.97-1.865,2-1.865s2,0.835,2,1.865v140.504
		C299,272.358,298.03,273.194,297,273.194z"/>
</g>
<g>
	<rect x="291.719" y="75.786" fill="#B3B3B3" width="99.006" height="26.538"/>
	<polygon fill="#CCCCCC" points="360.782,57.414 318.507,57.414 307.316,68.641 371.973,68.641 	"/>
	<polygon fill="#CCCCCC" points="376.946,62.517 304.829,62.517 291.152,75.786 390.624,75.786 	"/>
	<rect x="307.029" y="68.641" fill="#B3B3B3" width="65.323" height="33.682"/>
	<rect x="320.298" y="60.476" fill="#999999" width="38.786" height="44.91"/>
	<rect x="323.36" y="90.075" fill="#B3B3B3" width="32.662" height="8.165"/>
	<rect x="323.36" y="90.075" fill="#B3B3B3" width="7.145" height="19.393"/>
	<rect x="348.877" y="90.075" fill="#B3B3B3" width="7.145" height="19.393"/>
	<polygon fill="#E6E6E6" points="350.835,85.992 328.454,85.992 323.48,90.075 355.809,90.075 	"/>
	<polygon fill="#E6E6E6" points="348.348,50.269 330.941,50.269 319.75,60.476 359.539,60.476 	"/>
	<g>
		<rect x="338.67" y="37" width="1.021" height="19.393"/>
	</g>
	<rect x="339.69" y="37" fill="#FF0000" width="6.124" height="6.124"/>
	<rect x="339.69" y="37" fill="#0000FF" width="3.062" height="3.062"/>
	<polygon fill="#808080" points="333.566,98.241 330.504,98.241 330.504,109.687 333.566,107.2 	"/>
	<polygon fill="#808080" points="348.877,109.687 345.815,107.2 345.815,98.241 348.877,98.241 	"/>
</g>
<path d="M351.964,147.825h-33.628c-0.496,0-1.449,0.041-2.112,0.248l-1.16-1.532h29.776c1.036-1.201,2.029-2.36,2.734-3.147
	c0.165-0.207,0.579-0.207,0.787-0.042c1.076,0.994,2.816,2.816,3.685,3.81C352.212,147.37,352.379,147.825,351.964,147.825z"/>
<path d="M391.225,148.073c-2.153-0.165-3.976,1.077-5.342,2.817c-0.745-0.663-1.449-1.201-2.195-1.905
	c-0.58,0.372-1.367,0.952-1.409,1.822c-0.124,4.1-0.207,8.448-0.952,12.382c-0.289,1.491-1.491,3.23-3.024,3.81
	c-1.491,0.58-2.899,0.787-4.306,0.993c0.041-1.325-0.373-2.65-1.284-3.603c-0.828-0.911-2.277-1.698-3.686-2.32l0.166-0.579
	c2.071,0.331,4.1,0.704,5.964,0.745c0.952,0,1.988-0.415,2.071-1.367c0.497-4.349,0.621-7.91,0.704-12.01h-5.798
	c-0.621,3.976-1.656,7.909-3.934,11.223c-2.899,4.182-7.661,6.667-12.424,8.117l-0.289-0.539c3.769-2.153,7.371-5.549,9.442-9.442
	c1.367-2.609,2.196-6.461,2.444-9.359h-2.153c-0.828,0-1.864,0.207-2.733,0.496l-0.788-1.076c-1.863,1.78-4.886,3.976-6.833,5.093
	l-0.497-0.455c5.798-6.254,10.684-12.838,12.466-20.707c1.491,0.745,3.852,2.195,5.135,3.147c0.456,0.331,0.083,0.746-0.29,0.829
	c-0.496,0.124-0.993,0.373-1.242,0.828c-1.947,3.893-4.349,6.957-8.035,10.56h15.199c0.373-0.497,1.118-1.284,1.492-1.698
	c0.124-0.165,0.496-0.165,0.787,0c0.58,0.331,1.243,0.745,1.864,1.16c-4.266-4.721-6.005-9.898-6.875-15.903
	c0.953,0.248,2.32,0.663,3.437,0.994c0.497,0.165,0.539,0.787,0.042,1.035c-0.373,0.165-0.788,0.331-1.16,0.538
	c0.539,2.65,2.236,5.094,4.432,7.289c2.525,2.568,5.88,4.763,9.773,6.461L391.225,148.073z"/>
<path d="M409.033,154.99c-0.497,0.083-0.994,0.372-1.325,0.745c-0.829,0.911-2.526,2.692-3.397,3.52v1.367
	c1.325-0.207,2.692-0.621,4.017-1.035l0.332,0.455c-3.106,1.905-7.454,4.349-10.643,5.922c-0.415,0.208-0.828,0.539-1.201,0.953
	c-0.207,0.248-0.539,0.248-0.745-0.124c-0.621-1.118-1.201-2.568-1.864-4.225c2.071-0.248,4.141-0.58,6.129-1.035v-10.851h-1.78
	c-0.87,0-1.781,0-2.526,0.249l-1.036-1.533h5.342v-4.348h-3.188c-0.953,1.118-1.781,2.112-2.817,3.148l-0.455-0.332
	c3.064-5.26,5.59-10.809,6.874-16.855c1.698,0.746,3.478,1.574,5.011,2.526c0.331,0.165,0.289,0.663-0.042,0.787
	c-0.579,0.166-1.697,0.621-1.863,1.243c1.821,0.373,3.685,0.994,4.721,2.278c0.497,0.58,0.621,1.284,0.539,1.946
	s-0.415,1.284-0.87,1.657c-0.413,0.373-0.952,0.497-1.449,0.207c-0.372-0.207-0.745-0.704-1.035-1.491
	c-0.415-1.243-1.118-2.485-2.361-3.852c-1.449,2.568-3.23,5.177-5.177,7.455h5.177c0.373-0.456,1.16-1.325,1.532-1.781
	c0.208-0.248,0.539-0.207,0.745,0c0.87,0.787,1.74,1.657,2.485,2.485c0.249,0.249,0.041,0.58-0.289,0.58h-3.562v4.348h0.539
	c0.29-0.372,0.912-1.117,1.325-1.656c0.165-0.166,0.456-0.207,0.621,0c0.745,0.745,1.781,1.74,2.32,2.36
	c0.207,0.208,0.041,0.58-0.249,0.58h-4.556v6.295c0.704-1.616,1.284-3.272,1.574-5.053c1.076,0.621,2.319,1.533,3.313,2.402
	C409.406,154.534,409.282,154.949,409.033,154.99z M398.224,160.332c-0.58,0.289-1.201,0.207-1.615-0.165
	c-0.29-0.29-0.456-0.788-0.415-1.492c0.165-1.863,0.083-3.934-0.58-5.797l0.497-0.29c1.449,1.201,2.774,2.402,3.354,3.686
	c0.456,0.911,0.414,1.739,0.165,2.443C399.384,159.504,398.845,160.084,398.224,160.332z M430.237,166.544h-21.246
	c-0.952,0-1.821,0.124-2.692,0.415l-1.117-1.698h11.347v-3.396h-3.686c-0.828,0-1.864,0.124-2.609,0.373l-1.325-1.657h7.621v-3.147
	h-2.775c-0.041,0.413-0.249,0.704-0.539,0.911c-0.745,0.497-1.864,0.869-3.065,0.911c-0.289,0-0.621-0.248-0.58-0.621
	c0.083-1.117,0.166-2.981,0.166-3.976v-6.129c0-1.077,0-2.153-0.084-3.189c0.912,0.373,3.148,1.325,4.183,1.781h9.318
	c0.289-0.373,0.911-1.035,1.243-1.367c0.248-0.249,0.496-0.249,0.745-0.083c1.076,0.745,2.236,1.449,3.148,2.36
	c0.248,0.249,0.165,0.621-0.084,0.787c-0.496,0.332-1.117,0.829-1.117,1.698v3.728c0,0.663,0.041,2.029,0.083,2.857
	c0,0.289-0.165,0.58-0.497,0.787c-0.745,0.497-2.071,0.828-2.857,0.828c-0.373,0-0.58-0.165-0.58-0.414v-0.869h-2.775v3.147h3.437
	c0.497-0.539,1.077-1.243,1.573-1.697c0.208-0.166,0.539-0.208,0.745-0.041c0.621,0.538,1.822,1.532,2.693,2.36
	c0.248,0.208,0.124,0.663-0.166,0.663h-8.282v3.396h4.306c0.414-0.496,1.284-1.491,1.822-2.071c0.165-0.165,0.497-0.165,0.704,0
	c0.911,0.745,2.402,1.988,3.272,2.774C430.733,166.13,430.651,166.544,430.237,166.544z M430.112,144.636h-18.139
	c-1.118,0-2.071,0.083-2.733,0.331l-0.994-1.615h5.839c-0.248-0.621-0.456-1.283-0.663-1.946c-0.248-0.911-0.663-1.781-1.284-2.526
	l0.249-0.539c1.78,0.373,3.147,0.787,4.1,1.615c0.58,0.539,0.828,1.243,0.745,1.905c-0.041,0.539-0.29,1.035-0.745,1.491h2.733
	c0.787-1.615,1.325-3.396,1.74-5.176h-8.449c-0.745,0-1.657,0.165-2.402,0.414l-1.076-1.698h7.868
	c-0.372-0.621-0.621-1.243-0.745-1.946c-0.165-0.994-0.745-2.278-1.408-2.982l0.373-0.497c1.615,0.248,3.272,0.745,4.431,1.698
	c0.497,0.455,0.745,1.201,0.704,1.946c-0.041,0.663-0.372,1.325-0.911,1.781h3.852c0.497-0.58,1.284-1.408,1.864-2.071
	c0.207-0.249,0.455-0.249,0.704-0.041c1.035,0.828,2.029,1.822,2.94,2.816c0.208,0.249,0.083,0.58-0.248,0.58h-5.301
	c0.58,0.331,1.822,1.035,2.609,1.574c0.248,0.165,0.083,0.579-0.166,0.663c-0.455,0.083-1.945,0.745-2.277,1.035
	c-0.745,0.663-1.74,1.408-2.568,1.905h4.183c0.413-0.497,1.325-1.573,1.821-2.071c0.208-0.207,0.415-0.248,0.663-0.041
	c1.036,0.829,2.112,1.822,2.941,2.774C430.568,144.181,430.402,144.636,430.112,144.636z M416.529,148.405h-2.775v3.106h2.775
	V148.405z M416.529,152.794h-2.775v3.355h2.775V152.794z M423.238,148.405h-2.775v3.106h2.775V148.405z M423.238,152.794h-2.775
	v3.355h2.775V152.794z"/>
<path d="M351.467,197.889h-20.665c-0.621,0.953-1.284,1.905-1.988,2.858h12.507c0.415-0.497,0.911-1.077,1.325-1.533
	c0.165-0.248,0.539-0.331,0.787-0.165c1.16,0.704,2.568,1.616,3.521,2.444c0.248,0.165,0.289,0.58,0.041,0.745
	c-0.373,0.207-1.036,0.58-1.036,0.993v8.366c0,2.071,0.083,3.934,0.207,5.881c0.041,0.415-0.041,0.787-0.372,0.994
	c-0.912,0.62-2.526,1.035-3.686,1.035c-0.331,0-0.58-0.373-0.58-0.704v-2.981h-12.01v1.904c0,0.373-0.165,0.663-0.539,0.912
	c-0.579,0.455-2.236,1.035-3.478,0.993c-0.331,0-0.58-0.331-0.539-0.621c0.041-1.615,0.125-3.893,0.125-5.797v-8.324
	c-2.858,2.733-6.13,4.928-9.277,6.833l-0.456-0.496c4.348-3.976,8.323-8.407,10.891-13.336h-7.122c-0.829,0-2.029,0.166-2.734,0.497
	l-1.408-1.781h11.886c0.497-1.076,0.912-2.112,1.284-3.188H323.1c-0.994,0-2.029,0.083-2.9,0.331l-1.325-1.615h9.732
	c0.372-0.994,0.787-2.278,0.993-3.354c-4.141,0.041-8.241,0.083-12.382,0.083l-0.041-0.704c8.282-0.539,19.629-2.526,26.918-5.26
	c1.408,1.284,2.941,2.692,4.017,4.182c0.208,0.248-0.124,0.663-0.372,0.663c-1.201-0.124-2.485-0.165-3.521-0.041
	c-3.064,0.373-6.005,0.621-8.986,0.787c-0.373,0.994-0.994,2.526-1.491,3.645h7.578c0.621-0.829,1.615-2.071,2.112-2.733
	c0.166-0.166,0.539-0.208,0.704-0.083c1.16,1.076,2.526,2.36,3.521,3.396c0.248,0.248,0.041,0.704-0.249,0.704h-14.204
	c-0.456,0.993-1.077,2.153-1.657,3.188h14.081c0.455-0.538,1.367-1.697,1.78-2.277c0.166-0.165,0.497-0.248,0.704-0.083
	c1.201,0.869,2.526,1.946,3.604,2.981C351.881,197.434,351.799,197.889,351.467,197.889z M341.528,202.031h-12.01v3.23h12.01
	V202.031z M341.528,206.546h-12.01v3.312h12.01V206.546z M341.528,211.142h-12.01v3.397h12.01V211.142z"/>
<path d="M357.97,201.078c-0.58,1.077-1.491,1.492-2.278,1.492c-0.911-0.042-1.697-0.621-1.697-1.533c0-0.497,0.248-1.16,0.869-1.822
	c1.118-1.284,2.32-3.851,2.65-6.212h0.663C358.715,195.447,359.171,198.842,357.97,201.078z M391.266,219.134h-22.985
	c-1.076,0-2.195,0.166-3.147,0.415l-1.118-1.697h11.016v-3.189h-4.846c-1.035,0-2.029,0.165-2.775,0.372l-0.952-1.656h8.573v-3.396
	h-3.769v0.455c0,0.332-0.207,0.621-0.58,0.829c-0.828,0.496-1.988,0.704-2.94,0.663c-0.58-0.041-0.704-0.29-0.663-0.621
	c0.083-0.953,0.124-2.112,0.124-3.148v-5.964c0-0.952,0-1.864-0.083-2.774c1.325,0.497,3.023,1.243,4.513,1.946h3.397v-2.485h-6.958
	c-0.828,0-1.656,0-2.444,0.165l-0.952-1.491h10.354v-2.402c-1.822,0.083-5.385,0-7.206-0.041c-0.332,0.539-0.87,1.036-1.408,0.912
	c-0.373-0.083-0.788-0.456-0.994-1.201c-0.248-1.077-0.828-2.196-1.74-3.065v22.363c0,1.573,0.041,3.189,0.084,4.349
	c0,0.372-0.166,0.745-0.497,0.952c-0.994,0.663-2.32,0.828-3.478,0.745c-0.332,0-0.539-0.248-0.497-0.58
	c0.124-1.781,0.207-3.976,0.207-6.046V186.46c0-0.952-0.083-2.733-0.165-3.81c1.946,0.539,3.893,1.201,5.757,1.946
	c0.331,0.125,0.248,0.788,0,0.829c-0.704,0.165-1.409,0.704-1.409,1.367v3.727c1.492,0.208,2.817,0.58,3.686,1.325
	c0.58,0.539,0.952,1.284,0.911,2.402c5.301-0.621,11.389-1.449,15.903-2.982c0.829,0.912,1.657,1.946,2.32,3.024
	c0.165,0.248-0.083,0.663-0.415,0.58c-0.952-0.248-1.947-0.332-2.981-0.207c-1.284,0.165-2.692,0.248-3.852,0.289v2.609h6.005
	c0.414-0.497,1.367-1.491,1.946-2.071c0.248-0.249,0.456-0.249,0.745-0.041c0.994,0.828,2.361,1.905,3.148,2.692
	c0.207,0.289,0.083,0.745-0.29,0.745h-11.554v2.485h3.728c0.372-0.415,1.076-1.243,1.615-1.781c0.207-0.207,0.539-0.207,0.704-0.083
	c1.077,0.704,2.609,1.781,3.272,2.36c0.207,0.208,0.248,0.58-0.041,0.746c-0.289,0.124-0.58,0.331-0.828,0.538
	c-0.249,0.29-0.456,0.58-0.456,0.953c0,1.573,0.041,3.603,0.083,5.26c0,0.331-0.207,0.621-0.539,0.828
	c-0.828,0.497-2.029,0.745-2.816,0.828c-0.456,0.041-0.745-0.165-0.745-0.539v-0.496h-3.976v3.396h3.728
	c0.455-0.539,1.2-1.325,1.739-1.864c0.249-0.248,0.621-0.289,0.912-0.041c0.993,0.745,2.112,1.822,2.775,2.526
	c0.207,0.248,0.124,0.663-0.208,0.663h-8.945v3.189h6.337c0.414-0.497,1.325-1.492,1.945-2.029c0.249-0.208,0.539-0.208,0.788-0.042
	c0.911,0.663,2.319,1.822,3.147,2.776C391.68,218.762,391.639,219.134,391.266,219.134z M390.851,189.318h-7.289
	c0,0.331-0.041,0.62,0,1.035c0.041,0.207-0.289,0.497-0.579,0.621c-0.953,0.456-1.988,0.787-3.106,0.787
	c-0.456-0.041-0.663-0.331-0.663-0.621c0-0.496,0.083-1.284,0.083-1.821h-3.893c0,0.62,0.083,1.242,0.165,1.863
	c0.041,0.415-0.207,0.829-0.663,1.036c-0.993,0.456-2.112,0.663-3.23,0.539c-0.372-0.041-0.579-0.249-0.538-0.663
	c0.041-0.829,0.083-1.864,0.124-2.775h-3.769c-0.539,0-1.118,0.165-1.615,0.331l-1.118-1.573h6.543v-1.657
	c0-1.201-0.041-2.401-0.207-3.561c1.863,0.455,3.851,0.993,5.59,1.615c0.373,0.124,0.248,0.745,0.041,0.828
	c-0.539,0.166-1.325,0.58-1.325,1.243v1.533h3.934v-1.574c0-1.201-0.041-2.443-0.165-3.644c1.822,0.455,3.852,1.035,5.508,1.615
	c0.373,0.124,0.373,0.787,0.041,0.912c-0.58,0.207-1.243,0.62-1.243,1.159v1.533h1.988c0.539-0.788,1.243-1.367,1.864-2.072
	c0.165-0.207,0.58-0.248,0.787-0.041c0.994,0.953,2.278,2.03,3.024,2.775C391.266,188.903,391.142,189.318,390.851,189.318z
	 M375.033,202.653h-3.769v2.401h3.769V202.653z M375.033,206.338h-3.769v2.361h3.769V206.338z M383.232,202.653h-3.976v2.401h3.976
	V202.653z M383.232,206.338h-3.976v2.361h3.976V206.338z"/>
<path d="M408.328,191.595h-11.181c-0.746,0-1.533,0.124-2.154,0.331L394,190.311h9.277c0.621-0.787,1.16-1.408,1.905-2.112
	c0.207-0.124,0.372-0.124,0.538,0.041c0.994,0.828,2.03,1.864,2.9,2.857C408.784,191.263,408.536,191.595,408.328,191.595z
	 M407.17,196.605h-8.904c-0.497,0-1.243,0.125-1.822,0.29l-0.952-1.573h6.792c0.456-0.58,1.201-1.409,1.74-2.029
	c0.124-0.125,0.372-0.166,0.539-0.042c1.035,0.912,2.112,1.988,2.857,2.858C407.542,196.275,407.376,196.605,407.17,196.605z
	 M407.045,201.534h-8.572c-0.621,0-1.409,0.124-1.864,0.331l-1.036-1.615h6.626c0.539-0.745,0.994-1.284,1.616-1.946
	c0.207-0.207,0.496-0.165,0.704,0c1.035,0.828,1.946,1.74,2.774,2.775C407.418,201.202,407.294,201.534,407.045,201.534z
	 M406.714,207.332c-0.497,0.289-0.994,0.828-0.994,1.408v3.976c0,1.284,0.084,2.526,0.125,3.768c0,0.332-0.166,0.746-0.539,0.994
	c-0.704,0.456-1.988,0.828-2.733,0.745c-0.373-0.041-0.621-0.289-0.621-0.704v-2.153h-1.864v2.236c0,0.415-0.248,0.787-0.663,1.077
	c-0.415,0.248-1.947,0.663-2.65,0.704c-0.415,0-0.745-0.249-0.704-0.745c0.083-1.16,0.165-3.148,0.165-4.183v-7.413
	c0-0.828-0.041-2.277-0.124-3.313c1.077,0.539,2.94,1.616,3.852,2.112h2.029c0.414-0.455,1.118-1.284,1.449-1.615
	c0.124-0.124,0.415-0.165,0.621,0c0.663,0.539,2.153,1.822,2.692,2.402C406.921,206.835,406.921,207.207,406.714,207.332z
	 M401.869,189.442c-0.663,0.413-1.243,0.496-1.657,0.248c-0.413-0.207-0.704-0.663-0.787-1.367c-0.289-1.988-0.663-2.94-1.822-4.597
	l0.332-0.415c1.325,0.249,3.064,1.036,3.893,1.657c0.745,0.58,1.2,1.367,1.242,2.195
	C403.153,187.993,402.779,188.862,401.869,189.442z M401.951,207.125h-1.864v6.958h1.864V207.125z M429.367,219.922
	c-1.367-0.041-2.94-0.539-4.389-1.325c-1.616-0.87-3.065-2.029-3.893-3.23c-1.947,1.201-3.893,2.277-5.798,3.189l-0.415-0.539
	c1.781-1.284,3.604-2.941,5.177-4.556c-0.869-2.236-1.408-4.638-1.697-7.165h-3.355v2.733c0.953-0.083,1.946-0.207,3.024-0.372
	l0.041,0.621c-0.787,0.372-2.319,1.117-3.065,1.449v5.218c0,1.367-0.62,2.277-1.491,2.94c-0.952,0.663-2.236,1.036-3.396,1.243
	c0.041-0.952-0.207-1.822-0.745-2.568c-0.58-0.745-1.449-1.367-2.65-1.905l0.207-0.497c1.16,0.208,2.361,0.332,3.479,0.29
	c0.455,0,0.745-0.373,0.745-0.787v-2.237c-0.58,0.249-1.201,0.456-1.781,0.663c-0.497,0.166-0.952,0.497-1.16,0.87
	c-0.165,0.248-0.455,0.207-0.539,0c-0.579-1.367-1.076-2.817-1.532-4.266c1.243,0.041,3.52-0.083,5.011-0.289v-3.106h-1.284
	c-0.621,0-1.574,0.165-2.278,0.332l-0.993-1.616h4.556v-1.988c-1.201,0.124-3.562,0.332-4.68,0.373l-0.166-0.621
	c2.692-0.912,5.342-2.071,7.703-3.852h-4.432c-0.787,0-1.532,0.124-2.195,0.373l-0.993-1.657h9.234v-3.189h-3.478
	c-0.539,0-1.491,0.208-2.029,0.373l-0.993-1.657h6.501v-2.816h-4.265c-0.663,0-1.657,0.124-2.361,0.332l-0.952-1.616h10.271
	c0.828-1.946,1.449-3.934,1.821-6.088c1.491,0.539,3.189,1.201,4.597,1.988c0.332,0.165,0.165,0.745-0.165,0.787
	c-0.456,0.041-1.036,0.207-1.367,0.539c-1.16,1.077-2.195,1.905-3.437,2.775h3.644c0.621-0.828,1.077-1.449,1.822-2.236
	c0.165-0.208,0.415-0.124,0.621,0.041c1.118,0.869,2.277,1.864,3.23,2.94c0.165,0.165-0.083,0.539-0.249,0.539h-9.277v2.816h2.776
	c0.496-0.704,0.993-1.284,1.615-1.864c0.248-0.248,0.58-0.207,0.869,0c1.036,0.788,1.988,1.657,2.941,2.568
	c0.165,0.208,0.041,0.58-0.249,0.58h-7.951v3.189h4.805c0.538-0.663,1.532-1.697,2.029-2.195c0.083-0.124,0.372-0.124,0.496-0.041
	c1.201,0.952,2.402,1.905,3.397,3.023c0.165,0.124-0.041,0.497-0.249,0.497h-14.867c0.58,0.621,1.491,1.656,2.153,2.444
	c0.207,0.248-0.083,0.787-0.331,0.704c-0.29-0.083-0.705-0.166-0.994-0.083c-0.331,0.083-0.745,0.207-0.994,0.248v2.774h3.189
	c0-1.905-0.041-3.893-0.248-5.798c1.573,0.373,3.148,0.829,4.597,1.492c0.289,0.124,0.207,0.496,0.041,0.539
	c-0.248,0.083-0.621,0.496-0.621,0.993c0,0.952,0.041,2.195,0.083,2.774h3.769c0.539-0.663,1.243-1.491,1.656-1.905
	c0.125-0.124,0.373-0.165,0.497-0.041c0.953,0.745,1.822,1.574,2.568,2.526c0.207,0.248,0.041,0.704-0.248,0.704h-8.076
	c0.084,1.284,0.373,2.733,0.745,3.769c0.788-0.953,1.492-2.071,1.989-3.189c1.242,0.663,2.484,1.491,3.644,2.361
	c0.207,0.165,0.165,0.745-0.083,0.745c-0.373,0.041-0.828,0.165-1.16,0.496c-0.993,0.953-2.029,1.781-3.106,2.65
	c0.663,0.829,1.492,1.45,2.361,1.822c0.456,0.207,0.704,0.083,0.952-0.413c0.539-1.325,1.118-2.65,1.533-4.017l0.663,0.207
	c-0.166,1.243-0.332,2.733-0.373,3.934c0,1.16,0.29,2.236,1.077,3.147c0.372,0.373,0.414,0.953,0.207,1.368
	C430.444,219.631,429.988,219.963,429.367,219.922z M415.866,187.993c-0.497,0.538-1.077,0.704-1.574,0.579
	c-0.372-0.124-0.704-0.496-0.911-1.117c-0.497-1.533-1.284-2.9-2.485-3.976l0.332-0.373c1.117,0.124,2.568,0.29,3.644,0.745
	c0.829,0.373,1.408,1.118,1.616,1.946C416.694,186.542,416.446,187.371,415.866,187.993z M425.805,204.143
	c-0.497,0.372-0.912,0.456-1.284,0.289c-0.29-0.165-0.539-0.538-0.58-1.076c-0.124-1.284-0.58-2.402-1.325-3.521l0.373-0.331
	c0.952,0.248,1.988,0.663,2.65,1.243c0.579,0.455,0.911,1.076,0.952,1.656C426.633,203.025,426.385,203.646,425.805,204.143z"/>
<path d="M467.675,216.36c-0.704,0.704-1.243,1.698-1.45,2.65c-4.265,0-8.655,0.041-13.003,0c-2.568,0-5.591-0.248-8.242-1.159
	c-2.899-0.994-5.342-2.817-6.253-6.005c-1.16,2.899-2.774,5.714-5.218,7.951l-0.497-0.373c2.361-4.721,3.024-10.146,3.272-15.737
	c1.657,0.456,3.148,0.953,4.721,1.574c0.373,0.165,0.373,0.663,0.041,0.828c-0.579,0.331-1.035,0.911-1.159,1.615
	c-0.125,0.87-0.456,1.822-0.704,2.485c0.621,0.993,1.946,2.236,2.899,2.733v-10.311h-5.26c-0.911,0-1.781,0.083-2.568,0.331
	l-0.745-1.615h13.5c0.539-0.746,1.243-1.616,1.698-2.029c0.165-0.166,0.415-0.166,0.621-0.042c0.952,0.788,2.029,1.781,2.94,2.775
	c0.166,0.207,0.084,0.58-0.207,0.58h-5.798V207h0.58c0.415-0.497,1.118-1.491,1.533-1.988c0.165-0.207,0.496-0.165,0.662,0
	c0.953,0.912,1.946,1.864,2.693,2.733c0.124,0.125-0.042,0.539-0.249,0.539h-5.218v6.046c7.414,0.621,15.82,0.497,23.647,0.124
	v0.788C469.124,215.242,468.338,215.697,467.675,216.36z M450.778,187.371c-0.456,0.207-1.035,0.787-1.035,1.283v5.674
	c0,0.994,0,2.029,0.083,3.065c0.041,0.538-0.208,0.869-0.58,1.117c-0.497,0.29-2.071,0.788-2.858,0.829
	c-0.496,0-0.787-0.373-0.787-0.87v-0.828h-5.01v0.497c0,0.413-0.373,0.704-0.663,0.869c-0.87,0.497-1.822,0.828-2.858,0.912
	c-0.414,0.041-0.828-0.332-0.828-0.746c0.041-1.408,0.124-4.348,0.124-5.673v-7.869c0-0.539-0.041-1.201-0.083-1.74
	c1.367,0.497,2.817,1.118,4.225,1.864h5.01c0.456-0.663,0.912-1.201,1.449-1.739c0.166-0.208,0.415-0.166,0.621-0.042
	c0.745,0.539,2.485,1.988,3.272,2.609C451.151,186.833,451.068,187.246,450.778,187.371z M445.601,187.039h-5.01v3.976h5.01V187.039
	z M445.601,192.299h-5.01v4.058h5.01V192.299z M469.331,187.039h-7.495c-0.953,1.284-2.112,2.485-3.23,3.686h3.976
	c0.331-0.456,1.035-1.325,1.408-1.781c0.165-0.207,0.456-0.165,0.663-0.041c0.539,0.415,2.402,1.864,3.189,2.444
	c0.331,0.289,0.248,0.745-0.041,0.911c-0.456,0.248-0.953,0.58-0.953,1.118v8.779c0,1.076,0.041,2.236,0.125,3.396
	c0.041,0.456-0.166,0.952-0.58,1.201c-0.87,0.455-1.822,0.704-2.858,0.663c-0.331,0-0.787-0.249-0.787-0.621v-0.828h-5.757v0.952
	c0.994,0.869,2.113,1.864,2.982,2.816c0.332,0.373-0.083,0.87-0.415,0.788c-0.538-0.166-1.449-0.042-1.988,0.207
	c-2.981,1.532-6.046,2.444-9.401,3.272l-0.248-0.497c2.526-1.491,5.052-3.272,7.165-5.674c-0.415,0.125-0.953,0.166-1.533,0.166
	c-0.455,0.041-0.911-0.208-0.869-0.745c0.083-1.492,0.083-3.189,0.083-4.763V190.85c0-0.704,0-1.449,0-2.153
	c1.284,0.496,2.65,1.159,3.934,1.863c0.248-0.993,0.415-2.484,0.497-3.52h-2.568c-0.787,0-1.616,0.083-2.32,0.332l-0.952-1.616
	h12.507c0.621-0.952,1.16-1.739,1.74-2.402c0.124-0.165,0.496-0.124,0.662,0c1.077,0.87,2.361,2.03,3.23,3.024
	C469.704,186.584,469.58,187.039,469.331,187.039z M462.746,192.01h-5.757v2.94h5.757V192.01z M462.746,196.233h-5.757v3.603h5.757
	V196.233z M462.746,201.12h-5.757v3.604h5.757V201.12z M466.722,214.041c-0.497,0.165-1.076,0-1.573-0.745
	c-1.657-2.402-3.065-4.225-5.757-5.509l0.165-0.538c2.485,0.083,4.763,0.579,6.834,1.656c1.159,0.621,1.78,1.988,1.615,3.272
	C467.923,213.088,467.385,213.833,466.722,214.041z"/>
<path d="M352.255,266.465c-1.16,0.041-2.196,0.456-3.106,1.076c-1.036,0.705-1.946,1.698-2.692,2.858
	c-3.521-1.408-7.082-3.728-9.526-6.875c-2.236-2.94-3.313-6.543-4.058-10.105c-1.159,1.74-2.36,3.52-3.727,5.177v6.957
	c2.236-0.704,4.513-1.615,6.709-2.525l0.372,0.579c-2.733,2.278-5.59,4.722-8.323,6.875c-0.497,0.372-0.994,0.745-1.325,1.16
	c-0.165,0.248-0.497,0.331-0.745,0.124c-1.036-0.787-1.781-1.864-2.361-2.982c-0.165-0.331-0.124-0.704,0.165-0.869
	c0.745-0.456,0.994-1.201,0.994-2.195v-3.148c-2.857,2.029-5.964,3.52-9.111,4.762l-0.289-0.456
	c4.928-3.188,10.187-8.986,12.134-13.459h-7.951c-0.828,0-1.781,0.207-2.526,0.539l-1.243-1.822h14.868v-4.389h-7.082
	c-0.952,0-2.153,0.248-3.024,0.496l-1.117-1.78h11.223v-4.349h-9.815c-1.036,0-2.112,0.207-2.941,0.621l-1.283-1.905h14.039v-3.603
	c0-0.787-0.041-1.657-0.165-2.402c2.029,0.248,4.1,0.704,5.962,1.408c0.332,0.083,0.332,0.58,0.042,0.745
	c-0.58,0.332-1.284,0.87-1.284,1.574v2.277h8.448c0.663-0.993,1.325-1.781,2.154-2.609c0.207-0.207,0.496-0.207,0.787,0
	c1.243,0.87,2.733,2.237,3.603,3.313c0.166,0.208,0.041,0.58-0.248,0.58h-14.743v4.349h5.632c0.663-0.994,1.243-1.74,1.988-2.568
	c0.165-0.208,0.497-0.166,0.663-0.041c1.243,0.952,2.485,2.071,3.52,3.272c0.208,0.207,0.084,0.621-0.207,0.621h-11.595v4.389
	h10.435c0.746-1.076,1.657-1.988,2.444-2.733c0.124-0.124,0.373-0.165,0.497-0.041c1.117,0.952,2.401,2.153,3.313,3.354
	c0.165,0.207,0.083,0.704-0.249,0.704h-17.517c0.828,2.236,2.029,4.473,3.934,6.295c2.195-1.74,4.306-3.976,5.757-6.046
	c1.408,1.117,2.94,2.525,4.1,3.933c0.248,0.332,0.041,0.746-0.332,0.704c-0.414-0.041-0.952-0.124-1.656,0.166
	c-1.988,0.787-4.141,1.615-6.337,2.443c3.396,2.858,8.573,4.307,12.88,4.929L352.255,266.465z"/>
<path d="M360.289,268.866c-0.455,0.746-1.325,1.243-2.236,1.367c-0.828,0.125-1.698-0.041-2.361-0.538
	c-0.414-0.29-0.704-0.788-0.745-1.243c-0.083-0.58,0.166-1.201,0.745-1.532c2.072-1.16,4.763-3.024,5.342-5.301l0.621,0.083
	C361.822,264.145,361.614,266.837,360.289,268.866z M372.63,244.971c-0.415,0.456-0.869,0.621-1.325,0.58
	c-0.497-0.041-0.994-0.413-1.243-1.035c-0.289-0.621-0.58-1.325-0.911-1.822c-3.148,0.745-6.295,1.449-9.443,2.112
	c0.705,0.332,1.781,0.953,2.444,1.325h5.508c0.29-0.289,0.663-0.745,1.036-1.077c0.207-0.165,0.539-0.165,0.787-0.041
	c1.036,0.621,2.029,1.201,2.982,2.03c0.207,0.207,0.165,0.62,0.041,0.662c-0.456,0.249-0.87,0.705-0.87,1.16v8.573
	c0,1.201-0.496,2.029-1.284,2.609c-0.869,0.621-2.112,0.953-3.478,1.201c-0.165-1.325-0.539-2.236-1.117-2.857
	c-0.58-0.621-1.325-0.953-2.32-1.243v-0.58c1.036,0.083,2.32,0.165,3.396,0.165c0.29,0,0.663-0.248,0.663-0.539v-1.449h-5.466
	c-0.041,1.077,0.041,3.23,0.083,4.349c0.041,0.538-0.165,0.869-0.415,1.076c-0.579,0.497-2.443,0.994-3.437,0.912
	c-0.496-0.041-0.621-0.332-0.58-0.829c0.166-1.697,0.208-3.396,0.208-5.134v-5.881c0-0.912-0.041-2.692-0.124-3.604
	c-0.332-0.041-0.456-0.207-0.621-0.538c-0.539-0.994-0.994-2.113-1.077-3.024c-0.041-0.331,0.207-0.497,0.456-0.497
	c0.911,0,1.863-0.372,2.692-1.035c1.739-1.408,3.188-3.976,3.976-6.005c1.615,0.745,3.313,1.697,4.804,2.774
	c0.207,0.124,0.083,0.539-0.207,0.497c-0.497-0.041-1.284,0.207-1.657,0.455c-1.781,1.16-3.934,2.361-5.757,3.313
	c2.32,0,6.005-0.041,7.994-0.041c-0.497-0.745-1.201-1.491-1.905-2.112l0.289-0.456c1.74,0.415,3.561,0.912,5.094,1.946
	c0.704,0.456,1.201,1.077,1.367,1.74C373.417,243.439,373.251,244.226,372.63,244.971z M367.495,247.415h-5.425v2.402h5.425V247.415
	z M367.495,251.101h-5.425v2.36h5.425V251.101z M381.161,269.861c-0.787,0.621-1.781,0.911-3.065,0.911
	c-2.774,0-7.91-0.041-10.974-0.041c-0.704,0-1.325-0.331-1.822-0.828c-0.497-0.497-0.787-1.243-0.787-2.029v-3.934
	c0-0.704-0.041-2.112-0.124-2.775c1.821,0.289,3.603,0.745,5.301,1.408c0.207,0.041,0.248,0.415,0.124,0.456
	c-0.539,0.289-1.118,0.911-1.118,1.284v1.325c0,0.704,0.331,1.2,1.077,1.2c1.78,0,5.26-0.041,7.081-0.124
	c0.497,0,1.036-0.331,1.284-0.787c0.497-0.787,1.077-2.402,1.325-3.313h0.663c-0.041,1.243,0.083,2.319,0.58,3.106
	c0.415,0.745,1.118,1.201,2.153,1.408C382.445,268.37,381.907,269.281,381.161,269.861z M375.239,265.305
	c-0.58,0.621-1.243,0.911-1.822,0.745c-0.497-0.124-0.911-0.58-1.035-1.408c-0.208-1.573-0.705-2.774-1.616-4.1l0.29-0.415
	c1.242,0.29,2.609,0.621,3.603,1.367c0.621,0.456,1.036,1.036,1.16,1.698C375.985,263.897,375.861,264.643,375.239,265.305z
	 M388.989,247.043c-0.539,0.538-1.16,0.952-2.029,1.035c-3.189,0.165-6.626,0.29-9.939,0.124c-0.829,0-1.45-0.372-1.905-0.911
	c-0.456-0.539-0.704-1.284-0.704-1.988v-7.123c0-1.243-0.041-2.236-0.208-3.272c1.822,0.415,3.604,0.953,5.342,1.533
	c0.29,0.083,0.29,0.496,0.083,0.579c-0.538,0.208-1.035,0.663-1.035,1.201v3.106c1.532-0.994,3.81-3.024,4.928-4.432
	c1.16,0.87,2.361,1.822,3.438,2.857c0.248,0.249,0.041,0.664-0.249,0.621c-0.331-0.083-0.911-0.083-1.408,0.125
	c-2.071,0.828-4.514,1.573-6.709,2.071v1.076c0,0.332,0.415,0.746,0.663,0.788c1.325,0,3.976-0.041,5.26-0.041
	c0.787-0.042,1.243-0.373,1.491-0.87c0.332-0.704,0.58-1.739,0.745-2.526h0.663c0.041,0.829,0.165,1.616,0.539,2.278
	c0.539,0.869,1.449,1.325,2.32,1.697C389.982,245.717,389.569,246.463,388.989,247.043z M389.526,259.839
	c-0.787,0.663-1.573,1.035-2.65,1.076c-2.94,0.084-6.626,0.166-9.607,0.125c-0.828,0-1.573-0.414-2.071-0.994
	c-0.497-0.58-0.828-1.367-0.828-2.195v-6.667c0-0.745,0-2.278-0.084-2.982c1.781,0.332,3.645,0.745,5.301,1.449
	c0.249,0.125,0.29,0.456,0.041,0.58c-0.413,0.208-1.035,0.788-1.035,1.284v2.692c1.698-1.117,3.769-3.105,5.053-4.721
	c1.242,0.828,2.443,1.74,3.644,2.733c0.248,0.249,0.165,0.621-0.248,0.663c-0.829,0.083-1.616,0.332-2.361,0.621
	c-1.739,0.704-3.437,1.16-6.088,1.74v0.911c0,0.58,0.539,0.994,1.16,0.994c1.325,0,4.1-0.041,5.549-0.083
	c0.663,0,1.077-0.332,1.325-0.788c0.332-0.704,0.621-1.821,0.828-2.816l0.745-0.041c0,1.077,0.125,2.071,0.746,2.857
	c0.414,0.539,1.242,1.077,1.821,1.325C390.603,258.472,390.147,259.259,389.526,259.839z M389.526,269.571
	c-0.538,0.704-1.159,0.952-1.697,0.828c-0.621-0.124-1.16-0.663-1.449-1.533c-0.704-2.36-2.071-4.969-3.852-6.626l0.331-0.455
	c2.485,0.621,4.929,1.573,6.667,3.644c0.497,0.539,0.746,1.201,0.788,1.864C390.355,268.08,390.065,268.908,389.526,269.571z"/>
<path d="M397.23,257.147c-0.745,0.787-1.533,0.993-2.154,0.952c-0.704-0.083-1.159-0.455-1.242-1.118
	c-0.084-0.62,0.207-1.408,1.035-1.945c1.201-0.788,1.781-1.864,2.195-3.686l0.539-0.083c0.332,0.869,0.58,1.988,0.58,3.064
	C398.141,255.407,397.893,256.443,397.23,257.147z M428.58,269.571c-0.663,0.704-1.16,1.532-1.408,2.236
	c-4.886-0.621-9.65-1.822-13.791-4.307c-5.384,2.858-11.595,3.934-18.139,4.017l-0.125-0.663c5.591-0.828,10.975-2.236,15.655-5.301
	c-1.532-1.449-2.816-2.981-3.81-4.68c-2.981,2.817-6.212,4.97-9.607,6.667l-0.332-0.496c3.769-3.148,6.875-7.123,8.49-11.306
	c0.539,0.207,1.449,0.58,2.153,0.869c0.084-2.65,0.084-5.177-0.041-7.869c1.243,0.415,2.402,0.869,3.562,1.408h2.236
	c0.332-0.413,0.704-0.911,1.118-1.284c0.165-0.124,0.331-0.165,0.58-0.041c0.911,0.539,1.946,1.243,2.774,1.946
	c0.165,0.124,0.124,0.539-0.041,0.621c-0.704,0.207-0.994,0.911-0.994,1.573c0,1.036,0.083,2.196,0.125,3.397
	c0,0.372-0.166,0.62-0.456,0.787c-0.704,0.455-1.491,0.663-2.361,0.539c-0.248-0.041-0.539-0.29-0.539-0.58v-0.912h-2.525
	c-0.041,0.29-0.166,0.497-0.415,0.745c-0.248,0.249-0.621,0.456-1.118,0.497c0.29,0.124,0.497,0.249,0.704,0.415
	c0.208,0.165,0,0.621-0.248,0.663c-0.663,0.083-1.284,0.413-1.657,0.745h13.211c0.373-0.456,1.16-1.243,1.864-1.988
	c-0.289-0.207-0.414-0.704-0.372-1.036c0.207-1.697,0.289-3.685-0.249-5.26l0.456-0.207c1.16,0.869,2.153,2.195,2.526,3.396
	c0.207,0.58,0.165,1.284-0.124,1.905c-0.249,0.58-0.663,1.036-1.284,1.284c0.828,0.704,1.905,1.74,2.733,2.65
	c0.165,0.165-0.041,0.539-0.249,0.539h-5.59c-1.449,1.946-3.313,3.852-5.218,5.342c4.39,1.16,9.483,1.573,14.784,1.615l0.041,0.539
	C430.029,268.329,429.243,268.908,428.58,269.571z M406.962,242.155c-0.869,0-1.78,0.415-2.36,1.036
	c-1.698,1.656-3.52,2.899-5.509,4.141c1.533,0.041,3.065-0.041,4.597-0.165c-0.041-0.621-0.413-1.201-0.993-1.657l0.331-0.372
	c1.533,0.289,2.982,0.869,3.645,1.946c0.456,0.704,0.456,1.408,0.248,2.029c-0.289,0.745-0.993,1.284-1.615,1.325
	c-0.539,0.041-0.994-0.332-1.036-1.325c-0.041-0.373-0.124-0.745-0.248-0.994c-1.905,0.704-3.852,1.367-5.922,1.988
	c-0.248,0.041-0.58,0.456-0.704,0.704c-0.083,0.124-0.414,0.208-0.539,0.041c-0.497-0.745-0.869-1.573-1.243-2.36
	c-0.083-0.208,0-0.456,0.166-0.539c0.869-0.373,1.656-0.911,2.36-1.574c0.828-0.828,1.864-1.987,2.65-3.023
	c-0.663,0.289-1.408,0.58-2.112,0.787c-0.539,0.207-1.077,0.663-1.284,0.994c-0.083,0.165-0.414,0.248-0.58,0
	c-0.415-0.745-0.952-1.822-1.201-2.692c-0.041-0.29,0.083-0.58,0.332-0.621c0.745-0.083,1.243-0.29,1.656-0.912
	c1.118-1.697,1.947-3.852,2.568-6.502c1.449,0.621,2.982,1.45,4.266,2.278c0.165,0.083,0.041,0.621-0.166,0.58
	c-0.331,0-1.201,0.289-1.408,0.539c-1.201,1.408-2.485,2.692-3.976,3.892c0.953,0.166,2.112,0.084,3.106,0.042
	c0.58-0.87,1.16-1.781,1.615-2.734c1.243,0.704,2.526,1.574,3.521,2.609C407.252,241.783,407.17,242.155,406.962,242.155z
	 M400.502,257.271c-0.621,0.041-1.118-0.373-0.953-1.408c0.208-1.533,0.249-3.437-0.331-4.804l0.496-0.332
	c0.994,0.704,1.988,1.905,2.402,2.816c0.414,0.87,0.373,1.616,0.165,2.237C401.951,256.691,401.165,257.23,400.502,257.271z
	 M404.353,255.905c-0.455-0.083-0.828-0.539-0.869-1.449c-0.083-1.45-0.456-3.065-1.243-4.183l0.373-0.331
	c1.201,0.456,2.692,1.491,3.313,2.568c0.456,0.663,0.456,1.367,0.248,1.946C405.844,255.366,404.974,256.029,404.353,255.905z
	 M419.635,240.623h-10.934c-0.58,0-1.243,0.083-1.781,0.331l-0.952-1.615h4.804c-0.165-1.491-0.539-3.024-1.532-4.224l0.248-0.415
	c1.532,0.124,3.23,0.456,4.182,1.697c0.415,0.58,0.539,1.201,0.332,1.822c-0.124,0.415-0.373,0.787-0.745,1.118h1.822
	c0.413-0.621,1.117-1.325,1.78-1.946c0.166-0.165,0.456-0.083,0.621,0.083c0.87,0.787,1.781,1.657,2.526,2.568
	C420.173,240.25,419.966,240.623,419.635,240.623z M417.357,247.663h-7.247c-0.497,0-1.284,0.249-1.697,0.456l-1.118-1.697h5.922
	c0.414-0.539,0.869-1.118,1.367-1.574c0.124-0.165,0.372-0.207,0.58-0.041c0.828,0.58,1.905,1.573,2.443,2.195
	C417.813,247.208,417.646,247.663,417.357,247.663z M417.564,244.226h-7.04c-0.539,0-1.284,0.124-1.905,0.373l-0.994-1.657h6.005
	c0.456-0.58,0.912-1.2,1.45-1.656c0.165-0.124,0.372-0.124,0.496,0c0.829,0.704,1.616,1.532,2.32,2.36
	C418.061,243.895,417.854,244.226,417.564,244.226z M407.956,260.543c1.325,1.491,2.857,2.857,4.514,3.769
	c1.159-0.953,2.525-2.32,3.644-3.769H407.956z M413.629,251.432h-2.609v3.52h2.609V251.432z M420.463,257.147
	c-0.539,0.331-1.243,0.497-2.071,0.289c-0.58-0.124-0.87-0.58-0.87-1.035c-0.041-0.497,0.249-0.994,0.87-1.408
	c0.993-0.664,1.656-1.74,1.946-3.645l0.663-0.083c0.579,1.077,0.911,2.733,0.663,4.017
	C421.539,256.111,421.085,256.733,420.463,257.147z M429.905,242.197c-0.621,0.083-1.325,0.29-1.822,0.745
	c-2.153,1.822-4.224,3.313-6.543,4.514c1.574,0.083,3.23,0.083,4.846,0c-0.166-0.663-0.58-1.243-1.077-1.822l0.332-0.413
	c1.325,0.289,2.775,0.787,3.644,1.905c0.58,0.704,0.58,1.532,0.373,2.195c-0.249,0.745-0.829,1.325-1.367,1.449
	c-0.539,0.083-0.994-0.207-1.16-1.118c-0.083-0.372-0.208-0.787-0.29-1.117c-1.904,0.663-4.058,1.243-6.129,1.697
	c-0.289,0.083-0.621,0.373-0.828,0.663c-0.083,0.166-0.415,0.249-0.539,0.041c-0.497-0.787-0.828-1.739-1.118-2.733
	c-0.083-0.289,0.041-0.539,0.29-0.539c0.539-0.083,1.076-0.331,1.656-0.745c1.118-0.828,2.526-2.277,3.604-3.768
	c-0.787,0.413-1.905,0.787-2.941,1.243c-0.331,0.124-0.663,0.372-0.828,0.704c-0.041,0.165-0.415,0.207-0.497,0.041
	c-0.414-0.745-0.869-1.905-1.076-2.9c-0.041-0.331,0.248-0.496,0.455-0.455c0.621,0.041,1.367-0.166,1.822-0.87
	c0.994-1.573,1.905-3.976,2.485-6.294c1.035,0.413,2.775,1.367,3.934,2.112c0.497,0.331,0.207,0.869-0.249,0.911
	c-0.869,0.083-1.573,0.58-2.112,1.284c-0.869,1.077-1.78,1.946-3.023,2.9c0.621,0.041,2.153,0,2.981-0.041
	c0.704-0.953,1.284-1.988,1.781-2.941c1.243,0.828,2.444,1.74,3.561,2.733C430.237,241.742,430.112,242.155,429.905,242.197z
	 M428.332,257.23c-0.497-0.041-0.87-0.539-0.953-1.574c-0.083-1.573-0.745-3.188-1.573-4.306l0.372-0.456
	c1.284,0.415,2.941,1.243,3.686,2.526c0.456,0.787,0.497,1.616,0.248,2.278C429.823,256.65,428.994,257.313,428.332,257.23z"/>
<path d="M447.299,238.677c-0.994,2.526-2.361,4.928-3.852,7.289c0.497,0.124,1.698,0.621,2.32,0.869
	c0.414,0.165,0.289,0.704-0.084,0.828c-0.663,0.208-1.283,0.87-1.283,1.492v15.447c0,1.325,0.083,3.354,0.207,4.68
	c0.041,0.704-0.373,1.201-0.745,1.367c-0.912,0.415-1.905,0.869-2.982,0.911c-0.58,0.042-0.869-0.165-0.828-0.787
	c0.041-1.325,0.124-4.556,0.124-6.005v-14.453c-2.071,2.361-4.348,4.846-6.667,6.999l-0.497-0.414
	c4.556-6.957,8.655-14.122,10.312-22.238c1.822,0.704,3.603,1.449,5.342,2.277c0.372,0.165,0.289,0.539-0.041,0.704
	C448.128,237.849,447.548,238.055,447.299,238.677z M468.544,268.494c-0.745,0.828-1.74,1.325-3.106,1.408
	c-2.981,0.207-8.199,0.289-10.767,0.041c-0.828-0.083-1.657-0.456-2.277-1.077c-0.87-0.911-1.077-2.029-1.077-3.229V237.6
	c0-0.745,0-1.864-0.083-2.568c2.112,0.539,4.224,1.16,6.253,1.946c0.373,0.124,0.208,0.745-0.124,0.788
	c-0.993,0.124-1.656,0.704-1.656,1.408v14.826c3.561-3.728,6.667-7.869,8.323-12.548c1.491,1.077,3.396,2.899,4.638,4.39
	c0.207,0.248,0.083,0.621-0.207,0.58c-0.912-0.042-1.491,0.165-2.153,0.869c-3.189,3.52-6.917,6.378-10.602,8.821v8.738
	c0,0.497,0.372,0.994,0.911,0.994c1.988,0.083,4.265,0.083,6.253,0.041c0.829-0.041,1.574-0.414,1.864-1.243
	c0.621-1.615,1.491-5.384,1.698-6.998h0.621c0.041,1.863,0.041,3.685,0.372,5.176c0.332,1.325,1.077,2.361,2.733,2.817
	C469.704,266.837,469.207,267.79,468.544,268.494z"/>
</svg>
