<?xml version="1.0" encoding="utf-8"?>
<!-- Generator: Adobe Illustrator 17.0.0, SVG Export Plug-In . SVG Version: 6.00 Build 0)  -->
<!DOCTYPE svg PUBLIC "-//W3C//DTD SVG 1.1//EN" "http://www.w3.org/Graphics/SVG/1.1/DTD/svg11.dtd">
<svg version="1.1" xmlns="http://www.w3.org/2000/svg" xmlns:xlink="http://www.w3.org/1999/xlink" x="0px" y="0px" width="320px"
	 height="160px" viewBox="0 0 320 160" enable-background="new 0 0 320 160" xml:space="preserve">
<g id="Layer_3">
</g>
<g id="Layer_1">
	<g>
		<g>
			<circle cx="87.203" cy="36.555" r="35.546"/>
		</g>
		<g>
			<path fill="#FFFFFF" d="M76.243,27.941c-0.204,0.374-0.332,0.804-0.358,1.16c-1.898,0.524-3.857,0.989-5.74,1.006
				c-0.879,0.009-1.723-0.131-2.495-0.457c-0.653-0.28-1.263-0.68-1.806-1.234c-0.09,1.317-0.48,2.639-1.141,3.865l-0.176-0.09
				c0.455-2.16,0.165-4.547-0.539-6.838c0.595,0.008,1.326,0.07,1.974,0.155c0.078,0.01,0.145,0.144,0.075,0.224
				c-0.158,0.148-0.285,0.412-0.258,0.631c0.078,0.573,0.122,1.078,0.097,1.496c0.3,0.209,0.792,0.457,1.126,0.565l-1.126-4.201
				l-2.257,0.604c-0.17,0.046-0.308,0.159-0.449,0.258l-0.635-0.439l2.924-0.783l-0.505-1.888l-1.051,0.281
				c-0.241,0.064-0.446,0.15-0.618,0.304l-0.606-0.446l2.157-0.578l-0.43-1.604c-0.1-0.369-0.205-0.766-0.347-1.123
				c0.655,0.006,1.38,0.04,2.026,0.127c0.094,0.005,0.153,0.17,0.104,0.214c-0.196,0.175-0.355,0.43-0.295,0.657l0.361,1.349
				l0.426-0.113c0.115-0.306,0.218-0.606,0.365-0.905c0.066-0.094,0.154-0.163,0.276-0.104c0.436,0.204,0.878,0.435,1.31,0.685
				c0.094,0.065,0.125,0.239-0.017,0.277l-2.242,0.601l0.505,1.888l0.539-0.145c0.085-0.249,0.271-0.695,0.353-0.899
				c0.044-0.118,0.172-0.152,0.276-0.104c0.346,0.151,0.845,0.428,1.168,0.615c0.501-1.2,0.397-2.495,0.126-3.791l-0.653,0.175
				c-0.256,0.068-0.467,0.186-0.635,0.353l-0.689-0.469l4.613-1.236c0.071-0.188,0.185-0.446,0.285-0.64
				c0.066-0.094,0.166-0.12,0.266-0.087c0.43,0.129,0.955,0.383,1.331,0.541c0.087,0.038,0.128,0.193,0.068,0.256
				c-0.073,0.065-0.146,0.19-0.206,0.253c-0.069,0.079-0.089,0.177-0.066,0.262c0.153,0.855,0.243,1.759,0.305,2.61
				c0.021,0.42-0.131,0.765-0.393,1.033c-0.273,0.286-0.669,0.514-1.037,0.673c-0.113-0.425-0.344-0.714-0.643-0.923
				c-0.238-0.149-0.521-0.24-0.856-0.242L70.97,21.49c0.395-0.061,0.8-0.078,1.198-0.185c0.198-0.053,0.338-0.212,0.328-0.423
				c-0.053-0.823-0.203-1.664-0.359-2.475l-1.306,0.351c0.242,2.095-0.01,3.258-1.136,4.73c0.396,0.062,1.102,0.191,1.474,0.275
				l1.887-0.506c0.062-0.169,0.158-0.378,0.258-0.571c0.052-0.091,0.134-0.127,0.244-0.111c0.433,0.082,0.966,0.197,1.386,0.344
				c0.114,0.029,0.14,0.236,0.065,0.301c-0.084,0.084-0.192,0.19-0.256,0.298c-0.048,0.104-0.06,0.229-0.029,0.343l0.399,1.49
				c0.091,0.34,0.223,0.716,0.324,1.039c0.042,0.156,0.009,0.316-0.129,0.43c-0.256,0.236-0.605,0.405-0.936,0.479
				c-0.156,0.042-0.258-0.052-0.301-0.209l-0.189-0.709l-1.93,0.518L72.1,27.41c0.045,0.168-0.012,0.353-0.149,0.465
				c-0.268,0.192-0.61,0.393-0.937,0.479c-0.099,0.026-0.235-0.028-0.27-0.157c-0.073-0.329-0.213-0.961-0.326-1.387l-0.853-3.18
				c-0.167,0.228-0.578,0.626-0.812,0.826l-0.159-0.14c0.159-0.255,0.387-0.713,0.461-0.945l-2.369,0.635
				c0.281,0.031,0.738,0.091,1.057,0.143c0.093,0.006,0.148,0.158,0.043,0.217c-0.18,0.125-0.271,0.347-0.219,0.546l0.277,1.035
				l0.27-0.071c0.096-0.269,0.183-0.566,0.307-0.844c0.034-0.1,0.13-0.141,0.237-0.079c0.37,0.19,0.728,0.444,1.077,0.67
				c0.094,0.067,0.102,0.262-0.041,0.301l-1.731,0.463l0.658,2.457c0.989-0.053,2.007-0.174,3.03-0.387
				c1.762-0.351,3.535-0.887,5.178-1.51l0.086,0.267C76.64,27.379,76.42,27.636,76.243,27.941z M73.174,23.698l-1.93,0.517
				l0.601,2.244l1.93-0.518L73.174,23.698z"/>
			<path fill="#FFFFFF" d="M89.972,24.431c-0.321,0.329-0.546,0.8-0.688,1.234c-1.313-0.135-2.487-0.597-3.5-1.253
				c-0.988-0.679-1.805-1.57-2.374-2.559l-0.937,0.251l0.833,3.107c0.544-0.297,1.118-0.649,1.644-1.019l0.148,0.158
				c-0.525,0.765-1.236,1.686-1.715,2.286c-0.161,0.194-0.288,0.457-0.344,0.7c-0.041,0.133-0.179,0.246-0.312,0.145
				c-0.383-0.292-0.752-0.65-1.039-0.984c-0.102-0.095-0.086-0.206-0.009-0.316c0.111-0.151,0.219-0.318,0.169-0.503L80.996,22.5
				c-0.255,0.068-0.584,0.202-0.771,0.358l-0.405-0.317c0.355,2.004-0.201,3.902-1.293,5.731l-0.208-0.035
				c0.668-2.278,0.369-4.586-0.235-6.844l-1.278-4.769c-0.087-0.327-0.204-0.706-0.327-0.992c0.636,0.043,1.294,0.171,1.877,0.304
				l6.543-1.753c0.078-0.221,0.205-0.482,0.303-0.69c0.065-0.094,0.119-0.124,0.229-0.106c0.482,0.098,1.06,0.322,1.459,0.506
				c0.09,0.052,0.185,0.179,0.118,0.271c-0.09,0.116-0.178,0.247-0.246,0.387c-0.053,0.089-0.072,0.187-0.045,0.285l0.175,0.653
				c0.076,0.284,0.191,0.603,0.278,0.868c0.063,0.181,0.009,0.317-0.124,0.443c-0.193,0.19-0.678,0.426-1.022,0.502
				c-0.156,0.043-0.264-0.019-0.31-0.189l-0.129-0.482l-6.699,1.795c0.281,1.05,0.717,2.79,0.929,3.92l1.859-0.498l-0.427-1.591
				l-0.354,0.095c-0.298,0.08-0.656,0.222-0.885,0.39l-0.571-0.486l1.689-0.452l-0.106-0.397c-0.114-0.426-0.242-0.847-0.399-1.263
				c0.556-0.026,1.354-0.058,1.938-0.031c0.139,0.008,0.23,0.119,0.161,0.261c-0.027,0.067-0.101,0.134-0.188,0.202
				c-0.089,0.069-0.115,0.199-0.088,0.298l0.145,0.539l1.561-0.419l-0.117-0.44c-0.092-0.34-0.21-0.779-0.366-1.194
				c0.595-0.053,1.311-0.047,1.896-0.021c0.14,0.008,0.167,0.167,0.111,0.244c-0.066,0.094-0.126,0.154-0.163,0.241
				c-0.042,0.072-0.069,0.141-0.05,0.211l0.152,0.567l0.908-0.243c0.081-0.265,0.256-0.692,0.379-0.969
				c0.055-0.136,0.126-0.154,0.244-0.111c0.453,0.214,0.995,0.479,1.425,0.775c0.093,0.065,0.089,0.219-0.039,0.253l-2.796,0.749
				l0.426,1.591l1.15-0.308c0.111-0.32,0.289-0.794,0.42-1.103c0.037-0.086,0.126-0.095,0.194-0.068
				c0.506,0.185,1.128,0.521,1.575,0.826c0.094,0.066,0.1,0.202-0.028,0.236l-2.129,0.57c0.425,0.221,1.004,0.568,1.369,0.851
				c0.138,0.115,0.065,0.302-0.103,0.301c-0.316,0.009-0.59,0.067-0.809,0.217c-0.596,0.388-1.323,0.796-1.92,1.122
				c1.546,0.606,3.186,0.593,4.845,0.482L90.785,24C90.461,24.041,90.2,24.202,89.972,24.431z M85.045,14.615l-6.699,1.795
				l0.422,1.575l6.686-1.791L85.045,14.615z M84.271,19.446l-1.562,0.419l0.426,1.591l1.562-0.419L84.271,19.446z M83.807,21.747
				c0.439,0.506,1.043,0.998,1.629,1.312c0.57-0.654,1.129-1.413,1.564-2.168L83.807,21.747z"/>
			<path fill="#FFFFFF" d="M95.115,11.932c-0.07,0.079-0.146,0.191-0.205,0.314c-0.023,0.081-0.047,0.164-0.028,0.235l0.448,1.675
				c0.107,0.396,0.236,0.819,0.331,1.174c0.046,0.171,0.009,0.317-0.071,0.415c-0.157,0.209-0.667,0.406-0.916,0.443
				c-0.132,0.02-0.297-0.026-0.32-0.173c-0.038-0.142-0.062-0.288-0.128-0.422l-1.931,0.517l1.482,5.535
				c0.145,0.54,0.426,1.529,0.573,2.022c0.038,0.143-0.003,0.274-0.069,0.368c-0.188,0.264-0.654,0.511-0.984,0.583
				c-0.127,0.035-0.307-0.01-0.348-0.165c-0.104-0.383-0.206-0.767-0.309-1.15l-2.765-10.318c-0.069-0.256-0.207-0.659-0.268-0.826
				c0.606,0.051,1.211,0.148,1.78,0.285l1.816-0.487c0.107-0.227,0.199-0.449,0.338-0.669c0.049-0.104,0.151-0.116,0.248-0.097
				c0.4,0.074,0.984,0.268,1.259,0.438C95.14,11.682,95.195,11.834,95.115,11.932z M93.352,12.39l-1.916,0.513l0.293,1.093
				l1.916-0.513L93.352,12.39z M93.762,13.923l-1.916,0.513l0.335,1.248l1.916-0.513L93.762,13.923z M100.758,17.829l-1.832,0.49
				l0.293,1.093c0.118,0.439,0.262,0.919,0.394,1.354c0.06,0.167,0.062,0.288-0.05,0.439c-0.152,0.225-0.644,0.492-0.925,0.521
				c-0.175,0.032-0.249-0.023-0.296-0.194c-0.072-0.331-0.143-0.646-0.229-0.973l-0.506-1.888l-1.121,0.301
				c0.224,1.461-0.747,3.06-1.889,3.913l-0.15-0.111c0.622-1.08,0.935-2.244,0.704-3.444l-0.326,0.088
				c-0.298,0.079-0.577,0.229-0.834,0.405l-0.576-0.5l1.676-0.448c-0.115-0.486-0.283-1.11-0.403-1.505
				c-0.309,0.098-0.577,0.23-0.835,0.406l-0.553-0.476l4.854-1.301c0.096-0.27,0.208-0.588,0.375-0.876
				c0.037-0.085,0.111-0.091,0.18-0.063c0.432,0.188,0.96,0.458,1.28,0.691c0.062,0.06,0.035,0.188-0.021,0.203l-1.561,0.418
				l0.403,1.505l0.24-0.064c0.113-0.319,0.232-0.609,0.367-0.904c0.027-0.067,0.102-0.073,0.17-0.045
				c0.417,0.192,0.924,0.497,1.207,0.756C100.851,17.666,100.842,17.807,100.758,17.829z M101.067,10.413
				c-0.112,0.152-0.188,0.264-0.226,0.35c-0.049,0.104-0.055,0.197-0.023,0.311l2.498,9.325c0.13,0.483,0.036,0.873-0.169,1.186
				c-0.278,0.379-0.723,0.65-1.23,0.803c-0.148-0.387-0.354-0.698-0.614-0.931c-0.293-0.242-0.651-0.389-1.126-0.399l0.046-0.225
				c0.307-0.052,0.96-0.166,1.305-0.243c0.113-0.03,0.232-0.153,0.202-0.268l-1.685-6.287l-1.916,0.514
				c0.008,0.089,0.023,0.146,0.043,0.216c0.022,0.086,0.039,0.203-0.027,0.297c-0.233,0.321-0.608,0.513-1.035,0.566
				c-0.149,0.01-0.247-0.071-0.285-0.213c-0.069-0.316-0.207-0.889-0.299-1.229l-0.795-2.967c-0.045-0.17-0.117-0.379-0.177-0.545
				c0.557,0.033,1.097,0.117,1.654,0.211l1.816-0.486c0.128-0.263,0.283-0.533,0.44-0.742c0.06-0.062,0.158-0.089,0.227-0.061
				c0.416,0.131,0.904,0.305,1.313,0.529C101.092,10.163,101.123,10.337,101.067,10.413z M97.09,16.742l-1.051,0.282
				c0.124,0.408,0.284,1.064,0.37,1.497l1.079-0.289L97.09,16.742z M99.186,10.826L97.27,11.34l0.293,1.093l1.916-0.514
				L99.186,10.826z M99.596,12.359l-1.916,0.514l0.335,1.248l1.916-0.514L99.596,12.359z"/>
		</g>
		<g>
			<path fill="#FFFFFF" d="M72.341,53.246c-0.086-0.32,0.063-0.475,0.241-0.522c0.32-0.086,0.468,0.18,0.784,0.935
				c1.778,4.214,4.864,8.191,9.562,6.934c3.558-0.954,4.587-3.518,3.938-5.938c-1.926-7.187-14.345-0.732-16.689-9.485
				c-0.991-3.7,1.585-7.746,5.642-8.833c3.166-0.849,4.758,0.251,6.146-0.121c1.031-0.276,0.264-1.291,0.939-1.472
				c0.249-0.067,0.358,0.057,0.499,0.438c1.797,4.856,2.598,7.273,2.721,7.735c0.096,0.355-0.044,0.546-0.258,0.603
				c-0.284,0.076-0.479-0.366-0.69-0.729c-2.297-3.731-5.144-6.669-9.163-5.591c-2.705,0.725-3.876,2.755-3.275,4.997
				c1.754,6.546,14.362,0.804,16.68,9.448c1.01,3.772-0.674,8.304-6.474,9.857c-2.597,0.696-5.344-0.017-6.269,0.231
				c-1.458,0.391-0.601,1.458-1.276,1.639c-0.143,0.038-0.34,0.014-0.435-0.342L72.341,53.246z"/>
			<path fill="#FFFFFF" d="M99.861,53.613c0.639,2.384,3.714,0.339,3.952,1.229c0.114,0.427-0.223,0.594-0.792,0.746
				c-1.529,0.41-2.474,0.587-4.608,1.158c-2.135,0.572-3.041,0.892-4.286,1.226c-0.569,0.152-0.802,0.138-0.916-0.288
				c-0.239-0.891,3.02-0.543,2.381-2.927l-5.091-19c-0.639-2.384-3.287-0.454-3.525-1.343c-0.114-0.426,0.08-0.556,0.649-0.708
				c1.245-0.334,2.189-0.51,4.324-1.081c1.494-0.4,2.756-0.816,4.25-1.217c7.365-1.974,10.982,0.566,11.917,4.053
				c1.296,4.84-2.743,7.98-9.076,9.678l-1.353,0.362L99.861,53.613z M97.459,44.647l1.851-0.496c4.554-1.22,5.566-3.704,4.509-7.652
				c-1.03-3.843-3.618-5.247-7.033-4.332l-2.491,0.668L97.459,44.647z"/>
		</g>
	</g>
	<g>
		<path d="M134.396,54.036c-0.912,0.624-2.112,0.863-3.36,0.624c-1.056-0.192-1.536-0.912-1.536-1.729
			c0-0.72,0.384-1.536,1.104-2.064c2.352-1.728,4.225-4.272,4.416-7.584h0.433c0.624,1.775,1.104,3.888,1.104,5.904
			C136.557,51.155,135.837,53.075,134.396,54.036z M168.575,41.843c-0.191,3.792-0.72,7.633-1.68,10.657
			c-0.48,1.536-1.393,2.64-2.496,3.408c-1.393,0.96-3.217,1.439-5.089,1.536c-0.144-1.681-1.296-3.265-2.784-4.129
			c-1.2-0.624-2.448-1.104-3.84-1.296l0.096-0.768c2.544,0.336,5.376,0.479,7.969,0.384c0.576,0,1.488-0.721,1.584-1.248
			c0.769-3.169,1.104-6.529,1.296-9.938h-22.897c0,0.576-0.192,1.009-0.528,1.345c-0.816,0.672-2.496,1.104-3.84,0.96
			c-0.528-0.048-0.912-0.384-0.864-0.912c0.096-2.305,0.191-5.616,0.191-7.633V19.809c0-1.392-0.048-2.832-0.191-4.225
			c1.968,0.673,3.888,1.585,5.664,2.688h20.21c0.576-0.72,1.92-2.256,2.592-3.072c0.192-0.24,0.624-0.144,0.864,0.048
			c1.44,1.152,2.881,2.545,3.937,3.841c0.144,0.191,0.048,0.672-0.288,0.672h-15.073v5.137h5.377c0.72-0.96,1.487-1.969,2.352-2.832
			c0.145-0.192,0.48-0.24,0.721-0.049c1.487,1.104,2.928,2.353,4.224,3.745c0.145,0.191-0.048,0.624-0.336,0.624h-12.337v5.664
			h5.568c0.576-0.816,1.344-1.872,2.064-2.544c0.336-0.288,0.672-0.288,1.008-0.097c1.296,1.009,2.593,2.16,3.792,3.409
			c0.24,0.287,0.145,0.72-0.144,0.72h-12.289v5.425h9.889c0.528-0.624,1.488-1.729,2.017-2.257c0.144-0.144,0.432-0.048,0.576,0
			c1.056,0.721,3.072,2.112,3.888,2.784c0.385,0.336,0.385,0.769,0.048,0.912C169.199,40.69,168.575,41.123,168.575,41.843z
			 M143.518,53.315c-1.057,0.721-1.92,0.672-2.4,0.192c-0.528-0.528-0.72-1.488-0.528-2.688c0.433-2.64,0.048-5.664-1.488-7.873
			l0.433-0.287c1.824,1.248,4.08,3.312,5.04,4.848c0.576,0.96,0.816,2.064,0.721,3.121
			C145.149,51.684,144.573,52.691,143.518,53.315z M148.414,19.761h-7.681v5.137h7.681V19.761z M148.414,26.386h-7.681v5.664h7.681
			V26.386z M148.414,33.538h-7.681v5.425h7.681V33.538z M151.63,51.107c-0.768,0.769-1.439,0.912-1.92,0.72
			c-0.72-0.288-1.2-1.248-1.296-2.448c-0.24-2.592-0.96-4.992-2.929-7.008l0.433-0.385c1.92,0.673,4.368,1.824,5.76,3.601
			c0.673,0.912,1.104,1.92,1.104,2.929C152.83,49.428,152.446,50.34,151.63,51.107z M159.743,49.619
			c-0.576,0.721-1.2,0.912-1.729,0.769c-0.576-0.145-1.056-0.721-1.248-1.633c-0.624-2.784-1.968-5.28-4.177-7.152l0.336-0.384
			c2.305,0.672,5.041,1.824,6.673,3.408c0.72,0.672,1.057,1.488,1.104,2.256C160.799,47.843,160.463,48.755,159.743,49.619z"/>
		<path d="M208.771,39.826c-0.24,0.145-0.576,0.336-0.96,0.48c-0.24,0.144-0.528,0.528-0.528,0.816v7.44
			c0,2.208,0.096,4.561,0.192,6.576c0,0.336-0.145,0.672-0.336,0.912c-0.769,0.721-2.881,1.296-3.841,1.248
			c-0.479,0-1.008-0.191-1.008-0.815v-3.793h-15.218v2.544c0,0.337-0.288,0.673-0.672,0.912c-1.056,0.673-2.592,1.104-3.792,1.057
			c-0.528-0.048-0.72-0.336-0.72-0.769c0.048-1.968,0.144-5.136,0.144-7.44V39.73c0-1.392-0.048-2.736-0.192-4.128
			c1.921,0.72,3.745,1.536,5.568,2.399h3.553c0.528-1.151,1.104-2.352,1.44-3.6c-0.912,0.432-1.969,0.864-3.265,0.912
			c-0.479,0.048-1.008-0.288-0.96-0.816c0.048-1.488,0.048-4.752,0.096-6.673c-2.928,2.496-5.952,4.849-9.024,7.009
			c-0.336,0.192-0.528,0.576-0.624,0.912c-0.145,0.384-0.528,0.528-0.816,0.192c-1.296-1.488-2.496-3.12-3.552-4.753
			c4.848-1.296,9.505-2.88,14.017-5.04v-7.201h-9.744c-0.864,0-2.112,0.145-2.929,0.385l-1.104-1.921h13.25
			c0.527-0.72,1.392-1.632,2.111-2.208c0.288-0.288,0.576-0.24,0.912,0c1.345,0.912,2.641,1.872,3.889,3.024
			c0.24,0.192,0.288,0.624,0.048,0.816c-0.336,0.288-0.864,0.672-1.104,0.96c-0.24,0.191-0.385,0.528-0.385,0.815v6.529
			c0,1.776,0.097,3.552,0.192,5.328c1.584,0.769,3.265,1.393,4.752,2.448c0.145,0.145,0.288,0.336,0.145,0.528
			c-0.48,0.336-1.152,0.288-1.729,0.432c-1.104,0.672-2.16,1.393-3.264,1.92h8.641c0.576-0.72,1.344-1.536,2.064-2.208
			c0.191-0.191,0.479-0.191,0.72-0.096c1.392,0.864,2.928,2.016,4.128,3.12C209.154,39.106,209.059,39.538,208.771,39.826z
			 M184.433,26.722c-0.576,0.624-1.633,1.056-2.353,0.336c-0.479-0.528-0.72-1.2-0.864-1.872c-0.384-1.824-1.104-3.408-2.399-5.041
			l0.336-0.479c1.728,0.527,4.128,1.439,5.28,2.544c0.624,0.528,0.912,1.296,0.912,2.112
			C185.393,25.186,185.057,26.05,184.433,26.722z M202.29,39.538h-15.218v4.705h15.218V39.538z M202.29,45.731h-15.218v5.472h15.218
			V45.731z M212.323,20.049c-0.288,0.192-0.385,0.528-0.385,0.864v7.584c0,1.681,0.048,3.409,0.145,4.945
			c0,0.624-0.145,1.151-0.721,1.487c-1.056,0.624-2.448,1.009-3.6,0.961c-0.48,0-0.912-0.337-0.912-0.816
			c0.096-1.393,0.096-3.312,0.096-4.992v-3.217c-2.544,2.208-5.473,4.225-8.161,6.001c-0.239,0.144-0.479,0.479-0.624,0.815
			c-0.144,0.385-0.624,0.528-0.911,0.24c-0.816-0.816-2.257-2.736-3.169-4.128c4.417-1.104,8.688-2.641,12.865-4.417v-6.433h-7.729
			c-0.864,0-2.448,0.192-3.265,0.48l-1.151-2.017h11.761c0.528-0.624,1.248-1.536,2.016-2.208c0.288-0.24,0.528-0.24,0.912,0
			c1.345,0.912,2.641,2.017,3.889,3.12c0.288,0.192,0.288,0.528,0.096,0.769C213.235,19.425,212.707,19.761,212.323,20.049z
			 M202.338,26.386c-0.624,0.527-1.44,0.527-2.016-0.049c-0.528-0.624-0.961-1.68-1.2-2.352c-0.433-1.2-1.248-2.641-2.545-3.793
			l0.288-0.384c1.969,0.288,4.272,0.816,5.713,2.16c0.72,0.624,0.912,1.44,0.816,2.353
			C203.346,25.089,202.962,25.857,202.338,26.386z"/>
		<path d="M258.355,26.865c-0.672,0.624-1.345,1.536-1.921,2.784c-3.023-1.2-5.952-2.64-8.736-4.368
			c-2.736-1.729-5.328-3.696-7.729-6.049c-2.305,2.257-4.992,4.417-7.585,6.145h7.873c0.527-0.624,1.536-1.824,1.968-2.399
			c0.145-0.192,0.48-0.145,0.624-0.049c1.2,0.912,2.305,1.969,3.36,3.072c0.24,0.24,0,0.864-0.384,0.864h-11.761
			c-0.433,0-1.297,0.096-1.729,0.24l-0.624-1.248c-1.296,0.864-2.832,1.776-4.177,2.544c0.816,0.384,2.064,0.96,2.784,1.393h18.818
			c0.336-0.433,1.104-1.297,1.439-1.633c0.24-0.239,0.528-0.191,0.816-0.048c1.344,0.721,2.641,1.729,3.937,2.641
			c0.336,0.24,0.384,0.815,0,0.96c-0.384,0.144-0.912,0.384-0.912,0.864v4.8c0,0.912,0,1.872,0.096,2.784
			c0,0.433-0.24,0.721-0.624,0.912c-0.768,0.433-2.208,0.816-3.552,0.816c1.151,0.624,2.256,1.296,3.168,2.017
			c0.288,0.239,0.192,0.72-0.145,0.863c-0.432,0.192-1.296,0.673-1.296,1.104v6.192c0,1.057,0.048,2.16,0.097,3.217
			c0.048,0.432-0.192,0.815-0.528,1.056c-1.008,0.72-2.688,0.96-3.937,0.769c-0.528-0.097-0.816-0.48-0.816-1.009v-1.392h-14.497
			v0.72c0,0.48-0.336,0.816-0.72,1.057c-1.008,0.672-2.881,0.863-3.841,0.72c-0.384-0.048-0.624-0.192-0.624-0.672
			c0.048-1.969,0.097-3.793,0.097-5.761v-8.545c-0.433,0-1.057,0.048-1.585,0c-0.672,0-0.863-0.432-0.815-0.96
			c0.096-1.344,0.048-3.072,0.048-4.608v-4.464c0-0.673,0.048-1.873,0-2.4c-2.064,1.008-4.368,2.063-6.576,2.928l-0.288-0.576
			c3.792-2.352,7.776-5.185,11.28-8.4c3.024-2.784,5.665-5.904,7.633-9.36c2.017,0.768,4.465,1.728,5.809,2.256
			c0.432,0.192,0.192,0.864-0.144,0.96c-0.48,0.096-1.104,0.192-1.536,0.432c2.208,1.729,5.28,3.121,8.641,4.272
			c3.648,1.2,7.633,2.064,11.232,2.496v0.673C260.131,25.617,259.219,26.05,258.355,26.865z M249.522,40.307h-19.586
			c0,0.384-0.144,0.672-0.432,0.912c0.912,0.432,2.448,1.2,3.36,1.68h13.585c0.479-0.479,1.152-1.2,1.729-1.775
			c0.191-0.192,0.432-0.192,0.624-0.097c0.239,0.097,0.527,0.288,0.72,0.433V40.307z M237.281,31.233h-7.393v7.585h7.393V31.233z
			 M235.313,37.475c-0.48,0.576-0.96,0.815-1.393,0.72c-0.432-0.144-0.815-0.576-1.008-1.344c-0.288-1.584-1.057-3.169-2.305-4.705
			l0.336-0.336c1.681,0.336,3.312,0.96,4.561,2.208c0.433,0.433,0.624,1.057,0.576,1.633
			C236.033,36.322,235.745,36.994,235.313,37.475z M246.882,44.387h-14.497v3.553h14.497V44.387z M246.882,49.428h-14.497v3.792
			h14.497V49.428z M249.57,31.233h-7.44v7.585h0.288c1.104-2.208,1.68-4.608,2.208-7.057c1.488,0.336,3.168,1.057,4.513,1.729
			c0.239,0.096,0.048,0.576-0.145,0.624c-0.384,0.048-0.768,0.24-1.056,0.624c-1.104,1.296-2.641,2.928-4.129,4.08h5.761V31.233z"/>
	</g>
</g>
<g id="Layer_2" display="none">
</g>
</svg>
