<?xml version="1.0" encoding="utf-8"?>
<!-- Generator: Adobe Illustrator 17.0.0, SVG Export Plug-In . SVG Version: 6.00 Build 0)  -->
<!DOCTYPE svg PUBLIC "-//W3C//DTD SVG 1.1//EN" "http://www.w3.org/Graphics/SVG/1.1/DTD/svg11.dtd">
<svg version="1.1" xmlns="http://www.w3.org/2000/svg" xmlns:xlink="http://www.w3.org/1999/xlink" x="0px" y="0px" width="320px"
	 height="320px" viewBox="0 0 320 320" enable-background="new 0 0 320 320" xml:space="preserve">
<g id="Layer_1">
	<g>
		<polygon fill="#DE2910" points="238.82,270.158 221.64,261.979 221.64,192.473 238.82,200.652 		"/>
		<polygon fill="#000095" points="238.82,270.158 256,261.979 256,192.473 238.82,200.652 		"/>
		<polygon fill="#CCCCCC" points="221.64,192.473 238.82,183.648 256,192.473 238.82,200.652 		"/>
	</g>
	<g>
		<polygon fill="#DE2910" points="103.129,269.572 85.949,261.392 85.949,191.886 103.129,200.066 		"/>
		<polygon fill="#000095" points="103.129,269.572 120.309,261.392 120.309,191.886 103.129,200.066 		"/>
		<polygon fill="#CCCCCC" points="85.949,191.886 103.129,183.061 120.309,191.886 103.129,200.066 		"/>
	</g>
	<g>
		<polygon fill="#DE2910" points="170.975,302.054 153.795,293.874 153.795,224.368 170.975,232.548 		"/>
		<polygon fill="#000095" points="170.975,302.054 188.154,293.874 188.154,224.368 170.975,232.548 		"/>
		<polygon fill="#CCCCCC" points="153.795,224.368 170.975,215.543 188.154,224.368 170.975,232.548 		"/>
	</g>
	<g>
		<polygon fill="#DE2910" points="170.975,257.301 85.949,216.82 85.949,153.851 170.975,194.332 		"/>
		<polygon fill="#000095" points="170.975,257.301 256,216.82 256,153.851 170.975,194.332 		"/>
		<polygon fill="#CCCCCC" points="85.949,153.851 170.975,110.174 256,153.851 170.975,194.332 		"/>
	</g>
	<g>
		<polygon fill="#DE2910" points="143.467,182.381 121.777,172.054 121.777,94.947 143.467,105.273 		"/>
		<polygon fill="#000095" points="143.467,181.381 165.156,171.054 165.156,94.947 143.467,105.273 		"/>
		<polygon fill="#CCCCCC" points="121.777,94.947 143.467,83.805 165.156,94.947 143.467,105.273 		"/>
	</g>
	<g>
		<polygon fill="#DE2910" points="115.365,123.459 65.575,99.753 65.575,56.058 115.365,79.764 		"/>
		<polygon fill="#000095" points="115.365,123.459 165.156,99.753 165.156,56.058 115.365,79.764 		"/>
		<polygon fill="#CCCCCC" points="65.575,56.058 115.365,30.481 165.156,56.058 115.365,79.764 		"/>
		<g>
			<path fill="#FFDE00" d="M85,79c0,0,0,0,0,1c0,2,3,2,3,0c0-1,0-1,0-1C88,77,85,77,85,79C85,79,85,77,85,79z"/>
		</g>
		<g>
			<path fill="#FFDE00" d="M76.571,85.505c-3.54,14.594,20.453,26.37,28.329,12.677c0.966-1.68-1.626-3.19-2.59-1.514
				c-6.143,10.681-25.587,0.935-22.846-10.365C79.92,84.423,77.027,83.625,76.571,85.505L76.571,85.505z"/>
		</g>
		<g>
			<path fill="#FFDE00" d="M97,84c0,0,0,0,0,1c0,2,3,2,3,0c0-1,0-1,0-1C100,82,97,82,97,84C97,84,97,82,97,84z"/>
		</g>
	</g>
</g>
<g id="Layer_2" display="none">
</g>
</svg>
