<?xml version="1.0" encoding="utf-8"?>
<!-- Generator: Adobe Illustrator 17.0.0, SVG Export Plug-In . SVG Version: 6.00 Build 0)  -->
<!DOCTYPE svg PUBLIC "-//W3C//DTD SVG 1.1//EN" "http://www.w3.org/Graphics/SVG/1.1/DTD/svg11.dtd">
<svg version="1.1" id="Layer_1" xmlns="http://www.w3.org/2000/svg" xmlns:xlink="http://www.w3.org/1999/xlink" x="0px" y="0px"
	 width="215px" height="54px" viewBox="0 0 215 54" enable-background="new 0 0 215 54" xml:space="preserve">
<g>
	<polygon points="70,33.805 70,29.101 87,19.269 87,23.973 	"/>
	<polygon points="104,32 104,27 92,20.414 92,25.414 	"/>
	<polygon points="107.223,32 104,32 104,27 109.964,27 	"/>
	<polygon points="93,43.945 93,39.635 82,33.886 82,37.197 	"/>
	<rect x="74" y="31" width="30" height="4"/>
	<rect x="77" y="17" width="23" height="4"/>
	<rect x="93" y="40" width="8" height="4"/>
	<polygon points="80.453,15 83.18,11 97.879,11 95.151,15 	"/>
	<rect x="87" y="15" width="4" height="14"/>
	<rect x="82" y="29" width="4" height="8"/>
	<polygon points="86,43.945 86,39.635 97,33.886 97,37.197 	"/>
	<rect x="78" y="40" width="8" height="4"/>
	<rect x="92" y="29" width="5" height="8"/>
</g>
<g>
	<polygon points="127,28 122,28 122,12.92 124.5,10.583 127,12.92 	"/>
	<rect x="123" y="29" width="3" height="11"/>
	<rect x="113" y="22" width="5" height="10"/>
	<rect x="131" y="22" width="5" height="10"/>
	<rect x="112" y="34" width="5" height="10"/>
	<rect x="132" y="34" width="5" height="10"/>
	<rect x="119" y="28" width="11" height="4"/>
	<rect x="112" y="38" width="25" height="4"/>
</g>
<g>
	<rect x="45" y="23" width="23" height="4"/>
	<rect x="44" y="38" width="25" height="4"/>
	<polygon points="60.601,22 54.833,22 50.833,15 56.602,15 	"/>
	<polygon points="57.884,38 52.752,38 47.843,29 52.975,29 	"/>
	<polygon points="54.564,38 59.953,38 65.522,28 60.133,28 	"/>
</g>
<g>
	<rect x="160" y="25" width="5" height="16"/>
	<rect x="146" y="25" width="5" height="19"/>
	<rect x="153" y="38" width="19" height="4"/>
	<rect x="153" y="29" width="19" height="4"/>
	<polygon points="153.109,24 155.836,19 169.226,19 166.499,24 	"/>
	<polygon points="138.77,33 144.264,33 152.207,19 146.713,19 	"/>
</g>
<g>
	<rect x="185" y="26" width="4" height="17"/>
	<rect x="192" y="31" width="18" height="3"/>
	<polygon points="200,29 200,25 212.153,25 210.106,29 	"/>
	<polygon points="197.936,43 199.774,40 203,40 203,43 	"/>
	<polygon points="187.624,43 184.541,43 182.186,38 185.269,38 	"/>
	<rect x="193" y="14" width="13" height="4"/>
	<polygon points="193.085,14 197.119,14 201.214,7 197.181,7 	"/>
	<polygon points="203.641,29 199.545,29 193.646,19 197.742,19 	"/>
	<polygon points="196.063,28 200.204,28 206,18 201.812,18 	"/>
	<polygon points="172.935,46 177.24,46 187.974,26 183.67,26 	"/>
	<polygon points="189.441,46 194.069,46 204.143,28 199.515,28 	"/>
	<rect x="182" y="14" width="9" height="4"/>
	<polygon points="184.396,22 188.692,22 190.983,18 186.688,18 	"/>
	<polygon points="200.225,43 205.19,42.986 209.898,33.986 204.933,34 	"/>
	<rect x="178" y="23" width="17" height="4"/>
	<polygon points="188.729,31 192.242,31 194.924,27 191.41,27 	"/>
</g>
<rect x="134" y="10" fill="#00FFB0" width="9" height="9"/>
<polygon fill="#00FFB0" points="139,19 139,25.14 142.918,19 "/>
<rect x="171" y="10" fill="#FF0055" width="9" height="9"/>
<polygon fill="#FF0055" points="171,18 171,24.14 174.918,18 "/>
<g>
	<path fill="#FFFFFF" d="M6,13v17.325c0,6.262,6.815,11.718,11.5,12.617C22.001,42.043,29,36.587,29,30.325V13H6z"/>
	<path fill="#808080" d="M16,13H6v17.325c0,1.838,0.505,3.606,1.434,5.209L16,26.899V13z"/>
	<path fill="#808080" d="M8.823,37.601c2.016,2.4,5.177,4.221,7.177,5.022v-12.2L8.823,37.601z"/>
	<path fill="#808080" d="M19,13v29.61c4-1.513,10-6.562,10-12.285V13H19z"/>
</g>
<g>
	<path fill="#B3B3B3" d="M26.309,41.625c2.347,0.379,4.893-0.309,6.723-2.139c1.83-1.83,2.517-4.376,2.139-6.723L26.309,41.625z"/>
	<polygon fill="#00FFFF" points="32.49,36.082 29.93,38.739 0,8.823 0,6 2.519,6 	"/>
	
		<rect x="33.746" y="37.204" transform="matrix(0.7071 -0.7071 0.7071 0.7071 -18.9807 36.907)" fill="#C1272D" width="2.628" height="8.322"/>
	<path fill="#B3B3B3" d="M39.303,45.67c0.736-0.736,0.736-1.928,0-2.664L36.64,45.67C37.375,46.406,38.568,46.406,39.303,45.67z"/>
	<g>
		<circle fill="#ED1C24" cx="31.561" cy="37.927" r="2.672"/>
	</g>
</g>
</svg>
