<?xml version="1.0" encoding="utf-8"?>
<!-- Generator: Adobe Illustrator 18.1.1, SVG Export Plug-In . SVG Version: 6.00 Build 0)  -->
<svg version="1.1" id="Layer_1" xmlns="http://www.w3.org/2000/svg" xmlns:xlink="http://www.w3.org/1999/xlink" x="0px" y="0px"
	 viewBox="553.4 -58.4 793.1 136.8" enable-background="new 553.4 -58.4 793.1 136.8" xml:space="preserve">
<g>
	<path fill="#FFFFFF" d="M1205.8,39.9c-2.1-0.5-3.7-1.6-5.1-3.3c10.2-12.5,15.4-27.6,15.4-27.6l-11.8-4.7c0,0-2.8,8.4-8.4,18.4
		c-0.7-4.5-1-9.8-1.3-16c-0.1-2.3-0.2-4.7-0.2-7.2l24.6-4.7l-0.9-6.7l-23.8,3c-0.1-16.7,0.5-33.5,0.5-33.5l-16.1-0.9
		c0,0,0.7,17.8,2.1,36.1L1169-5.7l5.9-11.1l-10.8-4.5l-3.1,16.6l-6,0.8l-3.4-15.4l24.4-4.7l-0.8-7.6l-14.1,1.4l-2.1-20.5l-13.3,4.3
		l6.4,17.1l-16.1,1.6l2.5,10.9l3.6-0.7l5.9,14.4l-14.7,1.9l-0.2-32.4l7.2-1.1l0.9-10.8l-63.6,4.2l5.4,15.1l7.4-1.1l6.2,49.5
		l-19.9,7.6l7.7,15.5l37-22.8l1.3,41l11.1-0.3l-0.3-52l7.8-1.5l5.5,45.6l7.5-2.2l-0.2-5.5l12-4l0,2.8l6.9,0.3l1.9-37.5l-22.3,3.6
		l-0.2-5.2l29-5.6c0.7,7.4,1.5,14.4,2.5,19.7c0.9,5,2.2,9.3,3.9,13c-0.3,0.4-0.6,0.8-0.9,1.2c-11.7,14.3-26.3,20.4-26.3,20.4
		l1.6,5.8c0,0,13.2-2.1,31.5-18.4c4.7,5,10.6,7.2,16.6,6.7c8.7-0.8,11.1-7.4,11.1-7.4l-5.8-6.8C1215.6,36.2,1211.1,41.3,1205.8,39.9
		z M1105.7-8.4l14.8-4.2l0.2,7.3L1106-1.2L1105.7-8.4z M1119.8-31.6l0.3,8.8l-14.9,2.8l-0.3-9.4L1119.8-31.6z M1106.7,18.4l-0.3-8.1
		l14.6-5.5l0.3,7.9L1106.7,18.4z M1153.8,39.3l-0.2-4.8l12.3-3.8l0.1,5.1L1153.8,39.3z M1165.7,18.6l0.1,5.2l-12.5,3.2l-0.2-5.4
		L1165.7,18.6z"/>
	<path fill="#FFFFFF" d="M1218.7-20.2l2-7.4c0,0-5.2-2-9.4-4.5c-5.1-3-10.2-7.8-10.2-7.8l-5.1,9.6c0,0,4.9,4.5,10.3,6.7
		C1213.2-20.7,1218.7-20.2,1218.7-20.2z"/>
	<path fill="#FFFFFF" d="M1012.3-8.6l41.7-5.5l2.7-12.8l-46.4,2.3c-1.6-12.5-2.9-21.3-2.9-21.3l-9.9,0.9c0,0,1.2,8.7,2.5,20.9
		l-52.5,2.6L956-1.2l45.7-6c1.7,19,2.9,40.2,0.9,50.5c-2.2,11.9-15.2,11.7-22.4,2.2c-2.7,2.5-6,5.4-6,5.4s6.7,20.2,26,15.7
		c19.3-4.5,17.7-27.1,14.3-56.5C1013.9,3.8,1013.1-2.5,1012.3-8.6z"/>
	<polygon fill="#FFFFFF" points="998.2,11.9 973.4,1.5 966.8,12.8 996.1,19.7 	"/>
	<polygon fill="#FFFFFF" points="991.9,23 948.3,34.6 955.1,50.5 996.1,30.1 	"/>
	<polygon fill="#FFFFFF" points="1047.6,2.3 1038,-8.2 1019.2,10.3 1024.9,18.1 	"/>
	<path fill="#FFFFFF" d="M1047,33.7c-14-5.1-22.7-11.1-22.7-11.1l-4.8,6c0,0,9,12,23,19.1s27.8,6.9,27.8,6.9l3.6-16.4
		C1073.9,38.2,1061,38.8,1047,33.7z"/>
	<path fill="#FFFFFF" d="M1031.6-33.2c6.7,3.4,15.7,4.3,15.7,4.3l3.6-11.2c0,0-9.4-0.9-16.3-3.6c-5.6-2.2-9.9-4.8-9.9-4.8l-5.1,5.1
		C1019.7-43.4,1024.4-36.9,1031.6-33.2z"/>
	<path fill="#FFFFFF" d="M907-0.6c-15.2-3.7-22.2-8.6-24.6-10.7l27.6-4.4l3.2-10.5l-30.8,4.3l0.4-5.7c14.9-3.4,22.2-9.3,22.2-9.3
		l-10-11.4c0,0-10.3,8.1-22.9,11.7c-12.5,3.6-27.8,3.6-27.8,3.6l0.3,7.8c0,0,10.2,1.3,24.9-0.3l0.2,5.3l-38.8,5.4l6.3,10.5l25.9-4.1
		C859-3.8,851.9,2.8,842.8,7.4c-17,8.7-31.2,9.7-31.2,9.7l1,7.6c0,0,14.6-0.3,32.9-7.1c10.7-4,19.3-10.4,24.9-15.5l0.1,3.7l-7,15.2
		l-37.6,3.9l5.8,12.1l26.1-3.5l-4.3,9.3c0,0,6.5,2.2,13.5,4.8c-15.7,10.1-27.8,11.5-27.8,11.5l2.4,5.7c0,0,17.6-0.9,35.9-10.8
		c0.7-0.4,1.4-0.8,2.1-1.3c12.6,5.9,24.7,14.3,24.7,14.3l12.2-12.7c0,0-13.3-7.4-26-11.1c0,0,0,0,0,0c4.8-5.5,7.9-11.4,9.8-15.5
		l18.1-2.4l2.3-7.2c9.4,2,16.4,2.2,16.4,2.2l9.3-17C946.5,3.2,927.1,4.3,907-0.6z M877,40.1c-4.9-1-8.7-1.6-8.7-1.6l4.9-7.1l12-1.6
		C883.3,33.1,880.6,36.7,877,40.1z M881.7,19.2l5.4-7.9l-6.9-2.7L881-1.9c4.3,3.9,11.2,9.5,19.1,13.2c4.1,1.9,8.3,3.5,12.4,4.7
		L881.7,19.2z"/>
	<polygon fill="#FFFFFF" points="706.8,6.1 788.2,-3.9 790.3,-17.8 761.4,-15.3 756.2,-46.7 732.7,-36.1 748.1,-14.2 700.5,-10.2 	
		"/>
	<path fill="#FFFFFF" d="M768.9,39.4l16.5-23.7L763.8,3.1l-11.3,37.6c-3.6,0.3-7.4,0.6-11.2,0.8c-0.5,0-0.9,0.1-1.4,0.1
		c-0.8-3.1-1.9-7.1-3.4-11.7c-3.5-11.1-6.4-19-6.4-19l-18.3,8.8c0,0,5.5,7.5,12,17.3c1.3,1.9,2.5,3.8,3.6,5.5
		c-36.7,2.7-55.8,3.6-55.8,3.6l10,17.6c0,0,19.9-3.5,65.2-7.3c44.9-3.8,73.8-4.7,73.8-4.7l-6-15.5C814.5,36.2,796.3,37.4,768.9,39.4
		z"/>
	<path fill="#FFFFFF" d="M1319.6-22.9l-0.2,4.7c-5.5,0.3-14.5,0.8-24.7,1.4l1-29.2l-20.3-1l0.9,31.1c-11.3,0.5-20.8,0.9-26.9,1.1
		l-0.2-5.9l-18.9,1.4l8.8,50.5l12.1-0.8l-0.2-4.4c5.7-0.7,15.1-1.9,26.3-3.2l1.2,43.1h13.4l1.5-44.8c9-0.9,17.7-1.6,24-2l-0.3,6.3
		l11.2,1.6l9.8-47.8L1319.6-22.9z M1250.4,12.6l-0.5-12.8l26.7-2.3l0.4,13.1L1250.4,12.6z M1293.8,9.4l0.4-13.3l24.5-2.1L1318,7.5
		L1293.8,9.4z"/>
	<path fill="#FFFFFF" d="M621.9-40.9c-25.6,0-46.4,20.8-46.4,46.4c0,10,3.2,19.3,8.6,26.8l-17.5,17.5c-3,3-3,7.9,0,10.9
		c3,3,7.9,3,10.9,0l17.5-17.5c7.6,5.4,16.8,8.6,26.8,8.6c25.6,0,46.4-20.8,46.4-46.4S647.5-40.9,621.9-40.9z M609-21.3l10.5,25.5
		L598.8,24c-0.9-1.1-1.7-2.3-2.5-3.5c-2.6-4.4-4.2-9.5-4.2-15C592.2-6.3,599-16.5,609-21.3z M621.9,35.2c-5.5,0-10.6-1.6-15-4.2
		c-1.1-0.6-2.1-1.3-3.1-2.1l18.5-17.8l9.3,22.4C628.6,34.6,625.3,35.2,621.9,35.2z M637.9,30.5l-22.3-54.1c2-0.4,4.1-0.7,6.3-0.7
		c16.4,0,29.7,13.3,29.7,29.7C651.6,16,646.2,25.2,637.9,30.5z"/>
</g>
</svg>
