<?xml version="1.0" encoding="utf-8"?>
<!-- Generator: Adobe Illustrator 17.0.0, SVG Export Plug-In . SVG Version: 6.00 Build 0)  -->
<!DOCTYPE svg PUBLIC "-//W3C//DTD SVG 1.1//EN" "http://www.w3.org/Graphics/SVG/1.1/DTD/svg11.dtd">
<svg version="1.1" id="Layer_1" xmlns="http://www.w3.org/2000/svg" xmlns:xlink="http://www.w3.org/1999/xlink" x="0px" y="0px"
	 width="1122px" height="458px" viewBox="0 0 1122 458" enable-background="new 0 0 1122 458" xml:space="preserve">
<g>
	<path fill="#FFFFFF" d="M55,25v224c0,80.292,85.434,150.241,145.5,161.768C258.209,399.241,346,329.292,346,249V25H55z"/>
	<path fill="#808080" d="M185,25H55v224c0,23.561,7.363,46.228,19.277,66.794L185,205.07V25z"/>
	<path fill="#808080" d="M92.976,342.289c25.842,30.772,60.869,54.125,92.024,64.394V250.264L92.976,342.289z"/>
	<path fill="#808080" d="M216,25v381.513C272.676,387.112,346,322.38,346,249V25H216z"/>
</g>
<g>
	<g>
		<polygon points="640,148.407 640,123.238 729,70.637 729,95.806 		"/>
		<polygon points="825,139.616 825,112.867 763,76.765 763,103.513 		"/>
		<polygon points="842.333,140 825,140 825,113 857,113 		"/>
		<polygon points="763,218.707 763,195.645 701,159.543 701,182.605 		"/>
		<rect x="661" y="144" width="161" height="21"/>
		<rect x="678" y="57" width="127" height="21"/>
		<rect x="763" y="196" width="41" height="23"/>
		<polygon points="693.762,39 708.353,15 792.342,15 777.751,39 		"/>
		<rect x="729" y="45" width="26" height="79"/>
		<rect x="701" y="126" width="25" height="56"/>
		<polygon points="722,218.707 722,195.645 783,159.543 783,182.605 		"/>
		<rect x="680" y="196" width="42" height="23"/>
		<rect x="757" y="126" width="26" height="56"/>
	</g>
	<g>
		<polygon points="560,312 530,312 530,203 545,188 560,203 		"/>
		<rect x="534" y="306" width="22" height="61"/>
		<rect x="472" y="256" width="31" height="67"/>
		<rect x="588" y="256" width="31" height="67"/>
		<rect x="470" y="332" width="31" height="69"/>
		<rect x="590" y="332" width="31" height="69"/>
		<rect x="510" y="302" width="70" height="20"/>
		<rect x="473" y="363" width="145" height="24"/>
	</g>
	<g>
		<rect x="516" y="70" width="124" height="25"/>
		<rect x="516" y="148" width="124" height="25"/>
		<polygon points="598.257,63 567.397,63 546,25 576.86,25 		"/>
		<polygon points="583.722,148 556.265,148 530,103 557.457,103 		"/>
		<polygon points="565.957,148 594.788,148 624.582,95 595.751,95 		"/>
	</g>
	<g>
		<rect x="733" y="276" width="29" height="82"/>
		<rect x="661" y="275" width="25" height="86"/>
		<rect x="696" y="336" width="103" height="23"/>
		<rect x="696" y="293" width="103" height="23"/>
		<polygon points="696.827,269 711.417,244 804.452,244 789.863,269 		"/>
		<polygon points="616.546,323 645.94,323 692,244 662.606,244 		"/>
	</g>
	<g>
		<rect x="871" y="240" width="27" height="142"/>
		<rect x="936" y="284" width="133" height="27"/>
		<polygon points="995,266 995,239 1092,239 1077.333,266 		"/>
		<polygon points="968.742,383 987.795,352 1029,352 1029,383 		"/>
		<polygon points="897.599,382 870.544,382 848.787,344 875.843,344 		"/>
		<rect x="927" y="142" width="106" height="27"/>
		<polygon points="927.974,134 963.367,134 999.303,72 963.91,72 		"/>
		<polygon points="1023.894,266 993.431,266 941.667,177 972.129,177 		"/>
		<polygon points="952.644,245 988.98,245 1032.942,168 996.606,168 		"/>
		<polygon points="783.33,382 812.328,382 891.9,244 862.902,244 		"/>
		<polygon points="901.842,423 933.68,423 1025.005,265 993.167,265 		"/>
		<rect x="841" y="148" width="77" height="27"/>
		<polygon points="869.276,212 898.194,212 918.305,175 889.387,175 		"/>
		<polygon points="892.305,212 869.333,212 857.848,191 880.82,191 		"/>
		<polygon points="990.621,383 1028.144,383 1069.464,311 1031.94,311 		"/>
		<rect x="804" y="219" width="149" height="26"/>
		<polygon points="902.912,284 930.449,284 952.331,245 924.794,245 		"/>
	</g>
	<rect x="605" y="189" fill="#00FFB0" width="48" height="46"/>
	<polygon fill="#00FFB0" points="633,235 633,269 653,235 	"/>
	<rect x="870" y="59" fill="#FF0055" width="48" height="46"/>
	<polygon fill="#FF0055" points="870,105 870,139 890,105 	"/>
</g>
<g>
	<path fill="#CCCCCC" d="M301.144,404.054c26.791,4.321,55.857-3.531,76.743-24.417c20.886-20.886,28.739-49.952,24.417-76.743
		L301.144,404.054z"/>
	<polygon fill="#00FFFF" points="371.705,342.094 342.073,371.77 0,29.608 0,0 29.566,0 	"/>
	<polygon fill="#29ABE2" points="356.922,356.898 342.106,371.748 0,29.608 0,-0.09 	"/>
	
		<rect x="386.05" y="353.593" transform="matrix(0.7071 -0.7071 0.7071 0.7071 -166.1506 401.0623)" fill="#C1272D" width="30" height="95"/>
	<g>
		<g>
			<circle fill="#CCCCCC" cx="361.098" cy="361.848" r="26"/>
		</g>
		<g>
			<path fill="#ED1C24" d="M361.098,339.348c6.01,0,11.66,2.34,15.91,6.59c8.773,8.773,8.773,23.047,0,31.82
				c-4.25,4.25-9.9,6.59-15.91,6.59s-11.66-2.34-15.91-6.59c-8.773-8.773-8.773-23.047,0-31.82
				C349.438,341.689,355.088,339.348,361.098,339.348 M361.098,331.348c-7.806,0-15.611,2.978-21.567,8.933
				c-11.911,11.911-11.911,31.223,0,43.134c5.956,5.956,13.761,8.933,21.567,8.933s15.611-2.978,21.567-8.933
				c11.911-11.911,11.911-31.223,0-43.134C376.709,334.326,368.904,331.348,361.098,331.348L361.098,331.348z"/>
		</g>
		<g>
			<defs>
				<circle id="SVGID_1_" cx="361.098" cy="361.848" r="30.5"/>
			</defs>
			<clipPath id="SVGID_2_">
				<use xlink:href="#SVGID_1_"  overflow="visible"/>
			</clipPath>
			
				<rect x="356.745" y="328.702" transform="matrix(0.7071 -0.7071 0.7071 0.7071 -150.4556 361.1714)" clip-path="url(#SVGID_2_)" fill="#ED1C24" width="8" height="67"/>
			<rect x="353" y="358" clip-path="url(#SVGID_2_)" fill="#ED1C24" width="8" height="39"/>
		</g>
	</g>
	<path fill="#CCCCCC" d="M449.486,450.237c8.396-8.396,8.396-22.009,0-30.406l-30.406,30.406
		C427.477,458.633,441.09,458.633,449.486,450.237z"/>
</g>
</svg>
