<?xml version="1.0" encoding="utf-8"?>
<!-- Generator: Adobe Illustrator 17.0.0, SVG Export Plug-In . SVG Version: 6.00 Build 0)  -->
<!DOCTYPE svg PUBLIC "-//W3C//DTD SVG 1.1//EN" "http://www.w3.org/Graphics/SVG/1.1/DTD/svg11.dtd">
<svg version="1.1" id="Layer_1" xmlns="http://www.w3.org/2000/svg" xmlns:xlink="http://www.w3.org/1999/xlink" x="0px" y="0px"
	 width="215px" height="56px" viewBox="0 0 215 56" enable-background="new 0 0 215 56" xml:space="preserve">
<g>
	<polygon points="70,34.805 70,30.101 87,20.269 87,24.973 	"/>
	<polygon points="104,33 104,28 92,21.414 92,26.414 	"/>
	<polygon points="107.223,33 104,33 104,28 109.964,28 	"/>
	<polygon points="93,44.945 93,40.635 82,34.886 82,38.197 	"/>
	<rect x="74" y="32" width="30" height="4"/>
	<rect x="77" y="18" width="23" height="4"/>
	<rect x="93" y="41" width="8" height="4"/>
	<polygon points="80.453,16 83.18,12 97.879,12 95.151,16 	"/>
	<rect x="87" y="16" width="4" height="14"/>
	<rect x="82" y="30" width="4" height="8"/>
	<polygon points="86,44.945 86,40.635 97,34.886 97,38.197 	"/>
	<rect x="78" y="41" width="8" height="4"/>
	<rect x="92" y="30" width="5" height="8"/>
</g>
<g>
	<polygon points="127,29 122,29 122,13.92 124.5,11.583 127,13.92 	"/>
	<rect x="123" y="30" width="3" height="11"/>
	<rect x="113" y="23" width="5" height="10"/>
	<rect x="131" y="23" width="5" height="10"/>
	<rect x="112" y="35" width="5" height="10"/>
	<rect x="132" y="35" width="5" height="10"/>
	<rect x="119" y="29" width="11" height="4"/>
	<rect x="112" y="39" width="25" height="4"/>
</g>
<g>
	<rect x="45" y="24" width="23" height="4"/>
	<rect x="44" y="39" width="25" height="4"/>
	<polygon points="60.601,23 54.833,23 50.833,16 56.602,16 	"/>
	<polygon points="57.884,39 52.752,39 47.843,30 52.975,30 	"/>
	<polygon points="54.564,39 59.953,39 65.522,29 60.133,29 	"/>
</g>
<g>
	<rect x="160" y="26" width="5" height="16"/>
	<rect x="146" y="26" width="5" height="19"/>
	<rect x="153" y="39" width="19" height="4"/>
	<rect x="153" y="30" width="19" height="4"/>
	<polygon points="153.109,25 155.836,20 169.226,20 166.499,25 	"/>
	<polygon points="138.77,34 144.264,34 152.207,20 146.713,20 	"/>
</g>
<g>
	<rect x="185" y="27" width="4" height="17"/>
	<rect x="192" y="32" width="18" height="3"/>
	<polygon points="200,30 200,26 212.153,26 210.106,30 	"/>
	<polygon points="197.936,44 199.774,41 203,41 203,44 	"/>
	<polygon points="187.624,44 184.541,44 182.186,39 185.269,39 	"/>
	<rect x="193" y="15" width="13" height="4"/>
	<polygon points="193.085,15 197.119,15 201.214,8 197.181,8 	"/>
	<polygon points="203.641,30 199.545,30 193.646,20 197.742,20 	"/>
	<polygon points="196.063,29 200.204,29 206,19 201.812,19 	"/>
	<polygon points="172.935,47 177.24,47 187.974,27 183.67,27 	"/>
	<polygon points="189.441,47 194.069,47 204.143,29 199.515,29 	"/>
	<rect x="182" y="15" width="9" height="4"/>
	<polygon points="184.396,23 188.692,23 190.983,19 186.688,19 	"/>
	<polygon points="200.225,44 205.19,43.986 209.898,34.986 204.933,35 	"/>
	<rect x="178" y="24" width="17" height="4"/>
	<polygon points="188.729,32 192.242,32 194.924,28 191.41,28 	"/>
</g>
<rect x="134" y="11" fill="#00FFB0" width="9" height="9"/>
<polygon fill="#00FFB0" points="139,20 139,26.14 142.918,20 "/>
<rect x="171" y="11" fill="#FF0055" width="9" height="9"/>
<polygon fill="#FF0055" points="171,19 171,25.14 174.918,19 "/>
<g>
	<path fill="#FFFFFF" d="M6,14v17.325c0,6.262,6.815,11.718,11.5,12.617C22.001,43.043,29,37.587,29,31.325V14H6z"/>
	<path fill="#808080" d="M16,14H6v17.325c0,1.838,0.505,3.606,1.434,5.209L16,27.899V14z"/>
	<path fill="#808080" d="M8.823,38.601c2.016,2.4,5.177,4.221,7.177,5.022v-12.2L8.823,38.601z"/>
	<path fill="#808080" d="M19,14v29.61c4-1.513,10-6.562,10-12.285V14H19z"/>
</g>
<g>
	<path fill="#B3B3B3" d="M26.309,42.625c2.347,0.379,4.893-0.309,6.723-2.139c1.83-1.83,2.517-4.376,2.139-6.723L26.309,42.625z"/>
	<polygon fill="#00FFFF" points="32.49,37.082 29.93,39.739 0,9.823 0,7 2.519,7 	"/>
	
		<rect x="33.746" y="38.204" transform="matrix(0.7071 -0.7071 0.7071 0.7071 -19.6878 37.1999)" fill="#C1272D" width="2.628" height="8.322"/>
	<path fill="#B3B3B3" d="M39.303,46.67c0.736-0.736,0.736-1.928,0-2.664L36.64,46.67C37.375,47.406,38.568,47.406,39.303,46.67z"/>
	<g>
		<circle fill="#ED1C24" cx="31.561" cy="38.927" r="2.672"/>
	</g>
</g>
</svg>
