<?xml version="1.0" encoding="utf-8"?>
<!-- Generator: Adobe Illustrator 16.0.0, SVG Export Plug-In . SVG Version: 6.00 Build 0)  -->
<!DOCTYPE svg PUBLIC "-//W3C//DTD SVG 1.1//EN" "http://www.w3.org/Graphics/SVG/1.1/DTD/svg11.dtd">
<svg version="1.1" id="Layer_1" xmlns="http://www.w3.org/2000/svg" xmlns:xlink="http://www.w3.org/1999/xlink" x="0px" y="0px"
	 width="234px" height="36px" viewBox="0 0 234 36" enable-background="new 0 0 234 36" xml:space="preserve">
<rect x="49" y="10" fill="black" width="28" height="2"/>
<rect x="46" y="31" fill="black" width="34" height="2"/>
<polygon fill="black" points="103,3.524 103,8 115,8 115,10 103,10 103,18 100,18 100,10 87,10 87,8 100,8 100,3.601 "/>
<path fill="black" d="M91.708,4.206L91.406,3.02c7.45-0.039,13.478-0.612,18.079-1.684L110.166,3
	C105.021,4.518,96.083,4.584,91.708,4.206z"/>
<path fill="black" d="M107.149,21.953c-3.455,7.309-9.037,10.697-18.672,11.927l0.048,1.218
	c10.85-1.184,16.939-4.73,20.594-12.307L107.149,21.953z"/>
<path fill="black" d="M95.431,26.961c1.22-2.283,2.32-6.294,2.612-9.46l-2.658-0.532c-0.218,3.115-0.595,7.708-1.906,10.643
	c6.395,1.483,13.006,4.507,18.588,8.095l1.928-2.126C107.78,30.381,102.98,28.747,95.431,26.961z"/>
<path fill="black" d="M137,7V0h3v7h14v2h-14v23.494c0,1.608-0.613,2.506-2.22,2.506h-6.779l0.008-1.223
	c1.875,0.076,2.733,0.004,4.38,0.004c1.033,0,1.611-0.559,1.611-1.631V9h-13V7H137z"/>
<path fill="black" d="M182,17h-8v13h2v-2h6V17z M180,27h-4v-4h4V27z M180,22h-4v-4h4V22z"/>
<path fill="black" d="M195,15v-2h-14.151l0.569-5H183V6h-10v2h1.597l0.343,5H171v2H195z M176.584,13l-0.266-5h3.476l-0.493,5
	H176.584z"/>
<polygon fill="black" points="170.448,21.002 159.583,23.834 160.333,25.916 170.507,22.219 "/>
<path fill="black" d="M217,0v9h13v15h-3v-2h-10v14h-3V22h-9v2h-3V9h12V0H217z M214,20v-9h-9v9H214z M227,20v-9h-10v9H227z"/>
<polygon fill="black" points="63.211,29.07 70.027,14.365 74.127,17.095 63.702,29.47 "/>
<path fill="black" d="M59.936,23.963c-0.195,0.648-0.599,1.25-1.223,1.728c-0.504,0.404-1.193,0.491-1.693,0.307
	c-0.459-0.138-0.753-0.491-0.814-1.069c-0.313-3.72-1.139-6.071-3.784-9.7l0.362-0.247c3.161,1.884,5.9,4.052,7.025,6.998
	C60.047,22.607,60.094,23.295,59.936,23.963z"/>
<path fill="black" d="M65.099,8.243c-0.497,0.382-1.187,0.459-1.722,0.268c-0.498-0.191-0.843-0.574-0.957-1.148
	c-0.459-2.755-1.685-5.09-3.444-6.965l0.383-0.421c2.372,0.765,4.86,1.607,6.659,3.597c0.535,0.613,0.612,1.569,0.421,2.45
	C66.247,6.865,65.749,7.707,65.099,8.243z"/>
<path fill="black" d="M96.319,10.753c-3.021,3.59-7.341,6.279-13.192,8.442l0.29,0.428c3.711-0.757,6.947-1.604,10.11-3.252
	c3.189-1.661,5.117-3.389,5.117-3.389L96.319,10.753z"/>
<path fill="black" d="M104.625,10.856l-0.599,0.598c0,0,1.165,2.712,3.952,5.003c1.724,1.418,4.109,2.539,6.475,3.146l2.796-3.682
	c-2.04-0.112-4.378-0.697-6.436-1.43C108.306,13.598,106.287,12.359,104.625,10.856z"/>
<path fill="black" d="M142.293,16.993c0,0-0.586,0.267-0.595,0.286c2.818,7.998,6.33,13.033,10.257,16.154
	c0.408-0.516,3.662-3.718,3.662-3.718c-3.96-1.734-5.718-3.01-8.165-5.764C144.818,20.989,142.293,16.993,142.293,16.993z"/>
<polygon fill="black" points="144.901,17.443 152.246,14.675 149.491,11.109 144.528,16.915 "/>
<polygon fill="black" points="135.888,20.203 135.352,19.699 123.059,29.029 125.908,31.768 "/>
<path fill="black" d="M133.883,17.221c-0.529,0.682-1.279,0.853-1.832,0.691c-0.816-0.238-1.35-0.907-1.643-1.617
	c-0.66-1.436-1.873-2.178-3.448-2.973l0.146-0.47c1.86-0.036,3.835-0.171,5.564,0.689c0.745,0.372,1.478,0.957,1.641,1.81
	C134.486,16.129,134.282,16.684,133.883,17.221z"/>
<path fill="black" d="M150.084,4.851c-0.528,0.567-1.065,0.782-1.558,0.708c-0.706-0.138-1.451-0.629-1.76-1.538
	c-0.552-1.716-1.732-2.799-3.247-3.483l0.176-0.557c1.643-0.06,3.87-0.148,5.338,0.666c1.087,0.555,1.674,1.473,1.668,2.698
	C150.655,3.948,150.547,4.339,150.084,4.851z"/>
<path fill="black" d="M192.979,9.71c-0.512,0.401-1.139,0.547-1.549,0.41c-0.501-0.228-0.906-0.673-1.043-1.493
	c-0.273-1.914-0.638-2.779-1.823-4.419l0.365-0.456c1.549,0.273,2.838,0.845,3.977,1.939c0.547,0.501,0.871,1.342,0.871,2.026
	C193.822,8.673,193.491,9.309,192.979,9.71z"/>
<rect x="85" y="21" fill="black" width="32" height="2"/>
<path fill="black" d="M161,3v2h2v18.322l2-0.406V17h4v18h2V5h2V3H161z M169,16h-4v-5h4V16z M169,10h-4V5h4V10z"/>
<path fill="black" d="M178.881,4.858c-0.478,0.331-0.881,0.368-1.212,0.257c-0.367-0.184-0.624-0.661-0.808-1.249
	c-0.294-1.102-0.66-1.983-1.542-3.011l0.257-0.404c1.065,0.147,2.276,0.367,3.158,0.955c0.697,0.478,1.102,1.102,1.064,1.799
	C179.799,3.793,179.506,4.455,178.881,4.858z"/>
<path fill="black" d="M191.335,17.435c0,0-2.194,5.06-5.914,9.568c-4.386,5.315-9.369,8.14-9.369,8.14l0.233,0.564
	c0,0,5.58-2.451,9.169-5.664c5.233-4.685,9.034-10.559,9.034-10.559L191.335,17.435z"/>
<g>
	<path fill="black" d="M195,35.945l-0.725-0.104c-0.443-0.127-6.591-1.449-8.525-12.092c-0.5-2.75-1.022-6.772-1.125-9.566
		C184.428,8.78,184.125,1,184.125,1h2.451c0,0-0.223,7.549-0.026,12.917c0.102,2.759,0.455,5.99,0.864,9.005
		c0.672,4.943,2.686,7.684,4.107,9.037c0.754,0.72,1.479,1.281,2.479,1.447V28h1V35.945z"/>
</g>
<g>
	<polygon opacity="0.5" fill="black" points="24,4 24,16.969 12.379,28.537 13.531,29.662 24,19.221 24,30 26,30 26,4 	"/>
	<g>
		
			<rect x="9.443" y="25.209" transform="matrix(0.707 0.7072 -0.7072 0.707 24.7853 0.4496)" fill="black" width="4.814" height="9.856"/>
	</g>
	<g>
		<path fill="black" d="M24.527,31.771c-7.892,0-14.312-6.42-14.312-14.311s6.42-14.311,14.312-14.311s14.311,6.42,14.311,14.311
			S32.419,31.771,24.527,31.771z M24.527,5.64c-6.519,0-11.821,5.302-11.821,11.821c0,6.518,5.303,11.821,11.821,11.821
			c6.518,0,11.82-5.303,11.82-11.821C36.348,10.942,31.045,5.64,24.527,5.64z"/>
	</g>
</g>
</svg>
