<?xml version="1.0" encoding="utf-8"?>
<!-- Generator: Adobe Illustrator 17.0.0, SVG Export Plug-In . SVG Version: 6.00 Build 0)  -->
<!DOCTYPE svg PUBLIC "-//W3C//DTD SVG 1.1//EN" "http://www.w3.org/Graphics/SVG/1.1/DTD/svg11.dtd">
<svg version="1.1" id="Layer_1" xmlns="http://www.w3.org/2000/svg" xmlns:xlink="http://www.w3.org/1999/xlink" x="0px" y="0px"
	 width="1170px" height="458px" viewBox="0 0 1170 458" enable-background="new 0 0 1170 458" xml:space="preserve">
<g>
	<path fill="#FFFFFF" d="M55,25v224c0,80.292,85.434,150.241,145.5,161.768C258.209,399.241,346,329.292,346,249V25H55z"/>
	<path fill="#808080" d="M185,25H55v224c0,23.561,7.363,46.228,19.277,66.794L185,205.07V25z"/>
	<path fill="#808080" d="M92.976,342.289c25.842,30.772,60.869,54.125,92.024,64.394V250.264L92.976,342.289z"/>
	<path fill="#808080" d="M216,25v381.513C272.676,387.112,346,322.38,346,249V25H216z"/>
</g>
<g>
	<path d="M763,196l-1.025-0.952L783,182.605V182v-17h39v-21h-39v-18h-26v18h-31v-18h-25v18h-40v21h40v17v0.605l21.691,12.631
		L722,196h-42v23h42l20.333-12.327L763,219h41v-23H763z M726,174.1V165h31v9.931l-14.667,8.68L726,174.1z"/>
	<polygon points="792.342,15 708.353,15 693.762,39 777.751,39 	"/>
	<rect x="472" y="256" width="31" height="67"/>
	<polygon points="590,363 556,363 556,322 580,322 580,302 560,302 560,203 545,188 530,203 530,302 510,302 510,322 534,322 
		534,363 501,363 501,332 470,332 470,401 501,401 501,387 590,387 590,401 621,401 621,332 590,332 	"/>
	<polygon points="640,148.407 729,95.805 729,124 755,124 755,78 763,78 763,103.513 825,140 842.333,140 857,113 825,113 
		765.121,78 805,78 805,57 755,57 755,45 729,45 729,57 678,57 678,78 716.542,78 640,123.238 640,148 594.788,148 624.582,95 
		640,95 640,70 516,70 516,95 595.751,95 574.673,132.496 557.457,103 530,103 556.265,148 516,148 516,173 640,173 	"/>
	<polygon points="598.257,63 576.86,25 546,25 567.397,63 	"/>
	<polygon points="662.606,244 619,318.791 619,256 588,256 588,323 616.546,323 619,323 645.94,323 661,297.169 661,361 686,361 
		686,275 673.926,275 692,244 	"/>
	<polygon points="1077.333,266 1092,239 1008.19,239 1000.224,225.305 1033,169 1033,142 927,142 927,169 996.035,169 
		981.888,193.779 972.129,177 941.667,177 966.798,220.209 953,244.377 953,219 804,219 804,244 711.417,244 696.827,269 
		789.863,269 804,244.775 804,245 862.326,245 799,354.824 799,336 762,336 762,316 799,316 799,293 762,293 762,276 733,276 
		733,293 696,293 696,316 733,316 733,336 696,336 696,359 796.592,359 783.33,382 812.328,382 871,280.246 871,344 848.787,344 
		870.544,382 871,382 897.599,382 898,382 898,245 924.794,245 902.912,284 930.449,284 952.331,245 952.644,245 953,245 
		981.217,245 993.009,265.274 982.185,284 936,284 936,311 966.579,311 901.842,423 933.68,423 998.417,311 1031.94,311 
		1008.411,352 987.795,352 968.742,383 990.621,383 1028.144,383 1069,311 1069,284 1014.023,284 1024.427,266 	"/>
	<polygon points="999.303,72 963.91,72 927.974,134 963.367,134 	"/>
	<polygon points="841,148 841,175 889.387,175 880.69,191 857.848,191 869.304,211.948 869.276,212 869.333,212 892.305,212 
		898.194,212 918,175 918,148 	"/>
</g>
<polygon fill="#00FFB0" points="605,189 605,235 633,235 633,269 653,235 653,189 "/>
<polygon fill="#FF0055" points="870,59 870,105 870,139 890,105 918,105 918,59 "/>
<g>
	<path fill="#CCCCCC" d="M301.144,404.054c26.791,4.321,55.857-3.531,76.743-24.417c20.886-20.886,28.739-49.952,24.417-76.743
		L301.144,404.054z"/>
	<polygon fill="#00FFFF" points="371.705,342.094 342.073,371.77 0,29.608 0,0 29.566,0 	"/>
	<polygon fill="#29ABE2" points="356.922,356.898 342.106,371.748 0,29.608 0,-0.09 	"/>
	
		<rect x="386.05" y="353.593" transform="matrix(0.7071 -0.7071 0.7071 0.7071 -166.1506 401.0623)" fill="#C1272D" width="30" height="95"/>
	<g>
		<g>
			<circle fill="#CCCCCC" cx="361.098" cy="361.848" r="26"/>
		</g>
		<g>
			<path fill="#ED1C24" d="M361.098,339.348c6.01,0,11.66,2.34,15.91,6.59c8.773,8.773,8.773,23.047,0,31.82
				c-4.25,4.25-9.9,6.59-15.91,6.59s-11.66-2.34-15.91-6.59c-8.773-8.773-8.773-23.047,0-31.82
				C349.438,341.689,355.088,339.348,361.098,339.348 M361.098,331.348c-7.806,0-15.611,2.978-21.567,8.933
				c-11.911,11.911-11.911,31.223,0,43.134c5.956,5.956,13.761,8.933,21.567,8.933s15.611-2.978,21.567-8.933
				c11.911-11.911,11.911-31.223,0-43.134C376.709,334.326,368.904,331.348,361.098,331.348L361.098,331.348z"/>
		</g>
		<g>
			<defs>
				<circle id="SVGID_1_" cx="361.098" cy="361.848" r="30.5"/>
			</defs>
			<clipPath id="SVGID_2_">
				<use xlink:href="#SVGID_1_"  overflow="visible"/>
			</clipPath>
			
				<rect x="356.745" y="328.702" transform="matrix(0.7071 -0.7071 0.7071 0.7071 -150.4556 361.1714)" clip-path="url(#SVGID_2_)" fill="#ED1C24" width="8" height="67"/>
			<rect x="353" y="358" clip-path="url(#SVGID_2_)" fill="#ED1C24" width="8" height="39"/>
		</g>
	</g>
	<path fill="#CCCCCC" d="M449.486,450.237c8.396-8.396,8.396-22.009,0-30.406l-30.406,30.406
		C427.477,458.633,441.09,458.633,449.486,450.237z"/>
</g>
<g>
	<path fill="#005060" d="M1127,85c0,8,0,15,0,24c-7,0-13,0-19,0c0,1,0,2,0,3c7,0,14,0,22,0c0,2,0,4,0,6c-7,0-15,0-22,0c0,3,0,5,0,8
		c-3,0-5,0-8,0c0-2,0-5,0-8c-8,0-16,0-24,0c0-2,0-4,0-6c8,0,16,0,24,0c0-1,0-2,0-3c-6,0-12,0-19,0c0-9,0-16,0-24
		C1096,85,1111,85,1127,85z M1088,103h32v-3h-32V103z M1120,91h-32v3h32V91z"/>
	<polygon fill="#005060" points="1053,89 1067,89 1067,96 1053.389,96 1068.75,126 1060.375,126 1050.188,104.5 1049.257,102.125 
		1048.312,104.5 1038.312,126 1029.875,126 1045.064,96 1031,96 1031,89 1046,89 1046,79 1035,79 1035,72 1063,72 1063,79 1053,79 	
		"/>
	<path fill="#005060" d="M1027.586,97c-1.81,10-4.585,19-6.379,29c-2.287,0-4.566,0-7.018,0c1.791-9,4.579-19,6.378-29
		C1022.897,97,1025.132,97,1027.586,97z"/>
	<rect x="1017" y="86" fill="#005060" width="11" height="6"/>
	<rect x="1090" y="69" fill="#005060" width="7" height="14"/>
	<rect x="1111" y="69" fill="#005060" width="6" height="14"/>
	<rect x="1077" y="73" fill="#005060" width="53" height="6"/>
	<polygon fill="#005060" points="1028.049,81 1020.606,81 1015.58,72 1023.022,72 	"/>
</g>
</svg>
