<?xml version="1.0" encoding="utf-8"?>
<!-- Generator: Adobe Illustrator 17.0.0, SVG Export Plug-In . SVG Version: 6.00 Build 0)  -->
<!DOCTYPE svg PUBLIC "-//W3C//DTD SVG 1.1//EN" "http://www.w3.org/Graphics/SVG/1.1/DTD/svg11.dtd">
<svg version="1.1" id="Layer_1" xmlns="http://www.w3.org/2000/svg" xmlns:xlink="http://www.w3.org/1999/xlink" x="0px" y="0px"
	 width="44.75px" height="36px" viewBox="0 0 44.75 36" enable-background="new 0 0 44.75 36" xml:space="preserve">
<g>
	<polygon opacity="0.5" enable-background="new    " points="24,4 24,16.969 12.379,28.537 13.531,29.662 24,19.221 24,30 26,30 
		26,4 	"/>
	<g>
		<rect x="9.444" y="25.209" transform="matrix(0.707 0.7072 -0.7072 0.707 24.7853 0.4491)" width="4.814" height="9.856"/>
	</g>
	<g>
		<path d="M24.527,31.771c-7.892,0-14.312-6.42-14.312-14.311s6.42-14.311,14.312-14.311s14.311,6.42,14.311,14.311
			S32.419,31.771,24.527,31.771z M24.527,5.64c-6.519,0-11.821,5.302-11.821,11.821c0,6.518,5.303,11.821,11.821,11.821
			s11.82-5.303,11.82-11.821C36.348,10.942,31.045,5.64,24.527,5.64z"/>
	</g>
</g>
</svg>
