<svg x="0px" y="0px" width="32px" height="32px" viewBox="0 0 32 32">
	<path d="M9.933,6.733c0,0-1.159-0.146-2.318-0.062S5.028,7.043,5.028,7.043S5.735,8.554,6.791,8.74c1.055,0.186,1.863,0,1.863,0
		s-0.148,1.345-0.148,2.897s-0.186,3.911,2.049,5.091s3.228,0.683,3.228,0.683s-0.497,1.428-1.552,2.794s-1.49,2.173-1.49,2.173
		s-0.807,0.186-0.745,0.745c0.062,0.559,0.683,0.559,1.055,0.435c0.373-0.124,1.035-0.585,1.593-1.019
		c0.559-0.435,1.106-0.865,1.106-0.865s-0.01,1.996,0.673,4.231s1.657,4.297,1.657,4.297s-0.228,0.228-0.145,0.435
		s0.331,0.455,1.035,0.331c0.704-0.124,0.828-0.497,0.828-0.497s-0.083-0.579-0.083-1.821s0-1.904,0-1.904s0.541,0.124,1.035,0.169
		c0.529,0.048,1.034,0.038,1.034,0.038s0.28,0.686,0.552,1.067c0.24,0.337,0.896,0.754,0.896,0.754s0.083,0.538,0.124,0.786
		c0.041,0.248,0.083,0.579,0.083,0.579s-0.248,0.207-0.207,0.373c0.041,0.166,0.373,0.455,1.035,0.29
		c0.662-0.166,0.993-0.621,0.993-0.621s0.124-1.159,0-2.318c-0.124-1.159-0.083-2.194-0.083-2.194s0.869-0.124,0.786-1.118
		s-0.952-1.035-0.952-1.035s0.166-1.159,0.083-2.939c-0.083-1.78-0.248-3.601-0.248-3.601s0.414-1.368,0.662-2.9
		c0.248-1.531,0.865-6.154,0.865-6.154s0.707-0.59,0.583-1.253c-0.124-0.662-0.911-0.538-0.911-0.538s-0.538-0.421-0.874,0.06
		c-0.204,0.292,0.005,1.223,0.005,1.223l-1.78,4.387h-0.29c0,0,0.331-1.697-0.331-3.063c-0.662-1.366-1.573-2.194-1.573-2.194
		s0.472-1.089,0.555-2.662S18.832,1,18.832,1s-0.809,1.054-1.14,1.923s-0.474,1.843-0.474,1.843s-1.863-0.497-4.139,0.29
		S9.933,6.733,9.933,6.733z"/>
</svg>
