<?xml version="1.0" encoding="utf-8"?>
<!-- Generator: Adobe Illustrator 17.0.0, SVG Export Plug-In . SVG Version: 6.00 Build 0)  -->
<!DOCTYPE svg PUBLIC "-//W3C//DTD SVG 1.1//EN" "http://www.w3.org/Graphics/SVG/1.1/DTD/svg11.dtd">
<svg version="1.1" xmlns="http://www.w3.org/2000/svg" xmlns:xlink="http://www.w3.org/1999/xlink" x="0px" y="0px" width="32px"
	 height="32px" viewBox="0 0 32 32" enable-background="new 0 0 32 32" xml:space="preserve">
<g id="Layer_1">
	<g>
		<path fill="#CCCCCC" d="M16,17.767c-0.073,0-0.146-0.017-0.215-0.049l-7.358-3.503c-0.172-0.082-0.282-0.254-0.285-0.444
			c-0.003-0.19,0.103-0.365,0.271-0.452l7.358-3.779c0.143-0.073,0.314-0.073,0.457,0l7.358,3.779
			c0.169,0.087,0.274,0.262,0.271,0.452c-0.003,0.19-0.113,0.362-0.285,0.444l-7.358,3.503C16.146,17.75,16.073,17.767,16,17.767z
			 M9.77,13.746L16,16.713l6.23-2.967l-6.23-3.2L9.77,13.746z"/>
	</g>
	<g>
		<path fill="#808080" d="M16,25.233c-0.073,0-0.146-0.016-0.215-0.049l-7.358-3.503c-0.174-0.083-0.285-0.258-0.285-0.451v-7.467
			c0-0.171,0.088-0.331,0.233-0.423c0.146-0.091,0.326-0.102,0.481-0.029l7.358,3.503c0.174,0.083,0.285,0.258,0.285,0.452v7.467
			c0,0.172-0.088,0.331-0.233,0.423C16.186,25.207,16.093,25.233,16,25.233z M9.142,20.915l6.358,3.026v-6.359l-6.358-3.027V20.915z
			"/>
	</g>
	<g>
		<path fill="#E6E6E6" d="M16,25.233c-0.093,0-0.186-0.026-0.267-0.077c-0.146-0.092-0.233-0.251-0.233-0.423v-7.467
			c0-0.193,0.111-0.369,0.285-0.452l7.358-3.503c0.155-0.073,0.337-0.062,0.481,0.029c0.146,0.092,0.233,0.251,0.233,0.423v7.467
			c0,0.193-0.111,0.368-0.285,0.451l-7.358,3.503C16.146,25.218,16.073,25.233,16,25.233z M16.5,17.582v6.359l6.358-3.026v-6.36
			L16.5,17.582z"/>
	</g>
</g>
<g id="Layer_2" display="none">
</g>
</svg>
