<svg x="0px" y="0px" width="32px" height="32px" viewBox="0 0 32 32">
<path d="M16,28.75C8.97,28.75,3.25,23.03,3.25,16S8.97,3.25,16,3.25S28.75,8.97,28.75,16S23.03,28.75,16,28.75z M16,5.25
	C10.072,5.25,5.25,10.072,5.25,16S10.072,26.75,16,26.75S26.75,21.928,26.75,16S21.928,5.25,16,5.25z M21.646,15.458
	c-1.517,0-2.75-1.233-2.75-2.75s1.233-2.75,2.75-2.75s2.75,1.233,2.75,2.75S23.162,15.458,21.646,15.458z M21.646,11.958
	c-0.413,0-0.75,0.337-0.75,0.75s0.337,0.75,0.75,0.75s0.75-0.337,0.75-0.75S22.059,11.958,21.646,11.958z M16,11.917
	c-1.517,0-2.75-1.233-2.75-2.75s1.233-2.75,2.75-2.75s2.75,1.233,2.75,2.75S17.517,11.917,16,11.917z M16,8.417
	c-0.413,0-0.75,0.337-0.75,0.75s0.337,0.75,0.75,0.75s0.75-0.337,0.75-0.75S16.413,8.417,16,8.417z M10.125,15.458
	c-1.517,0-2.75-1.233-2.75-2.75s1.233-2.75,2.75-2.75s2.75,1.233,2.75,2.75S11.642,15.458,10.125,15.458z M10.125,11.958
	c-0.413,0-0.75,0.337-0.75,0.75s0.337,0.75,0.75,0.75s0.75-0.337,0.75-0.75S10.538,11.958,10.125,11.958z M10.208,22.25
	c-1.517,0-2.75-1.233-2.75-2.75s1.233-2.75,2.75-2.75s2.75,1.233,2.75,2.75S11.725,22.25,10.208,22.25z M10.208,18.75
	c-0.413,0-0.75,0.337-0.75,0.75s0.337,0.75,0.75,0.75s0.75-0.337,0.75-0.75S10.621,18.75,10.208,18.75z M21.646,22.25
	c-1.517,0-2.75-1.233-2.75-2.75s1.233-2.75,2.75-2.75s2.75,1.233,2.75,2.75S23.162,22.25,21.646,22.25z M21.646,18.75
	c-0.413,0-0.75,0.337-0.75,0.75s0.337,0.75,0.75,0.75s0.75-0.337,0.75-0.75S22.059,18.75,21.646,18.75z M16,25.729
	c-1.517,0-2.75-1.233-2.75-2.75s1.233-2.75,2.75-2.75s2.75,1.233,2.75,2.75S17.517,25.729,16,25.729z M16,22.229
	c-0.413,0-0.75,0.337-0.75,0.75s0.337,0.75,0.75,0.75s0.75-0.337,0.75-0.75S16.413,22.229,16,22.229z"/>
</svg>
