<?xml version="1.0" encoding="utf-8"?>
<!-- Generator: Adobe Illustrator 17.0.0, SVG Export Plug-In . SVG Version: 6.00 Build 0)  -->
<!DOCTYPE svg PUBLIC "-//W3C//DTD SVG 1.1//EN" "http://www.w3.org/Graphics/SVG/1.1/DTD/svg11.dtd">
<svg version="1.1" xmlns="http://www.w3.org/2000/svg" xmlns:xlink="http://www.w3.org/1999/xlink" x="0px" y="0px" width="32px"
	 height="32px" viewBox="0 0 32 32" enable-background="new 0 0 32 32" xml:space="preserve">
<g id="Layer_1">
	<g>
		<polygon fill="#919191" points="12.782,26.306 9.13,24.976 9.13,20.151 12.782,22.483 		"/>
		<polygon fill="#EAEAEA" points="12.782,26.306 28.333,18.683 28.333,14.86 12.782,22.483 		"/>
		<polygon fill="#D5D5D5" points="9.54,20.415 20.864,14.685 24.724,16.615 12.782,22.483 		"/>
	</g>
	<polygon fill="#919191" points="9.156,28.101 5.354,26.243 5.354,6.958 9.156,8.816 	"/>
	<polygon fill="#EAEAEA" points="9.156,28.101 12.782,26.302 12.782,7.017 9.156,8.816 	"/>
	<polygon fill="#919191" points="5.354,11.026 5.354,6.958 20.774,14.743 16.911,16.674 	"/>
	<polygon fill="#D5D5D5" points="5.354,6.958 9.097,5.028 28.333,14.86 24.605,16.674 	"/>
</g>
<g id="Layer_2" display="none">
</g>
</svg>
