<?xml version="1.0" encoding="utf-8"?>
<!-- Generator: Adobe Illustrator 17.0.0, SVG Export Plug-In . SVG Version: 6.00 Build 0)  -->
<!DOCTYPE svg PUBLIC "-//W3C//DTD SVG 1.1//EN" "http://www.w3.org/Graphics/SVG/1.1/DTD/svg11.dtd">
<svg version="1.1" xmlns="http://www.w3.org/2000/svg" xmlns:xlink="http://www.w3.org/1999/xlink" x="0px" y="0px" width="32px"
	 height="32px" viewBox="0 0 32 32" enable-background="new 0 0 32 32" xml:space="preserve">
<g id="Layer_1">
	<g>
		<polygon fill="#29ABE2" points="16,30 6.221,25.344 6.221,20.781 16,25.437 		"/>
		<polygon fill="#00FFFF" points="16,30 25.779,25.344 25.779,20.781 16,25.437 		"/>
		<polygon fill="#CCCCCC" points="6.221,20.781 16,15.758 25.779,20.781 16,25.437 		"/>
		<polygon fill="#29ABE2" points="11.108,23.109 6.221,20.782 6.221,16.493 11.108,18.82 		"/>
		<polygon fill="#00FFFF" points="11.108,23.109 15.994,20.782 15.994,16.493 11.108,18.82 		"/>
		<polygon fill="#CCCCCC" points="6.221,16.493 11.108,14.167 15.994,16.493 11.108,18.82 		"/>
		<polygon fill="#29ABE2" points="20.889,23.109 16.003,20.782 16.003,16.493 20.889,18.82 		"/>
		<polygon fill="#00FFFF" points="20.889,23.109 25.776,20.782 25.776,16.493 20.889,18.82 		"/>
		<polygon fill="#CCCCCC" points="16.003,16.493 20.889,14.167 25.776,16.493 20.889,18.82 		"/>
		<polygon fill="#29ABE2" points="16,16.493 11.113,14.167 11.113,4.51 16,6.837 		"/>
		<polygon fill="#00FFFF" points="16,16.493 20.887,14.167 20.887,4.51 16,6.837 		"/>
		<polygon fill="#CCCCCC" points="11.113,4.51 16,2 20.887,4.51 16,6.837 		"/>
	</g>
</g>
<g id="Layer_2" display="none">
</g>
</svg>
