<?xml version="1.0" encoding="utf-8"?>
<!-- Generator: Adobe Illustrator 17.0.0, SVG Export Plug-In . SVG Version: 6.00 Build 0)  -->
<!DOCTYPE svg PUBLIC "-//W3C//DTD SVG 1.1//EN" "http://www.w3.org/Graphics/SVG/1.1/DTD/svg11.dtd">
<svg version="1.1" xmlns="http://www.w3.org/2000/svg" xmlns:xlink="http://www.w3.org/1999/xlink" x="0px" y="0px" width="32px"
	 height="32px" viewBox="0 0 32 32" enable-background="new 0 0 32 32" xml:space="preserve">
<g id="Layer_1">
	<g>
		<polygon fill="#FCEE21" points="11.304,12.497 15.979,1.979 20.653,12.497 		"/>
		<polygon fill="#FCEE21" points="19.342,11.558 30.79,12.753 22.231,20.45 		"/>
		<polygon fill="#FCEE21" points="9.809,20.45 1.25,12.753 12.699,11.558 		"/>
		<polygon fill="#FCEE21" points="17.061,24.217 7.097,29.979 9.497,18.722 		"/>
		<polygon fill="#FCEE21" points="22.665,18.722 25.066,29.979 15.101,24.217 		"/>
		<circle fill="#FCEE21" cx="15.997" cy="17.484" r="7.431"/>
		<polygon fill="#F9DA23" points="11.674,11.665 15.979,1.979 15.997,17.484 		"/>
		<polygon fill="#F9DA23" points="20.279,11.655 30.79,12.753 15.979,17.509 		"/>
		<polygon fill="#F9DA23" points="9.087,19.8 1.25,12.753 15.997,17.484 		"/>
		<polygon fill="#F9DA23" points="15.997,24.915 7.097,29.979 15.997,17.484 		"/>
		<polygon fill="#F9DA23" points="22.895,19.8 25.066,29.979 15.997,17.484 		"/>
	</g>
</g>
<g id="Layer_2" display="none">
</g>
</svg>
