<?xml version="1.0" encoding="utf-8"?>
<!-- Generator: Adobe Illustrator 17.0.0, SVG Export Plug-In . SVG Version: 6.00 Build 0)  -->
<!DOCTYPE svg PUBLIC "-//W3C//DTD SVG 1.1//EN" "http://www.w3.org/Graphics/SVG/1.1/DTD/svg11.dtd">
<svg version="1.1" xmlns="http://www.w3.org/2000/svg" xmlns:xlink="http://www.w3.org/1999/xlink" x="0px" y="0px" width="32px"
	 height="32px" viewBox="0 0 32 32" enable-background="new 0 0 32 32" xml:space="preserve">
<g id="Layer_1">
	<g>
		<polygon fill="#DE2910" points="24.436,27.652 22.122,26.55 22.122,17.187 24.436,18.289 		"/>
		<polygon fill="#000095" points="24.436,27.652 26.75,26.55 26.75,17.187 24.436,18.289 		"/>
		<polygon fill="#CCCCCC" points="22.122,17.187 24.436,15.999 26.75,17.187 24.436,18.289 		"/>
	</g>
	<g>
		<polygon fill="#DE2910" points="10.824,27.652 8.51,26.55 8.51,17.187 10.824,18.289 		"/>
		<polygon fill="#000095" points="10.824,27.652 13.138,26.55 13.138,17.187 10.824,18.289 		"/>
		<polygon fill="#CCCCCC" points="8.51,17.187 10.824,15.999 13.138,17.187 10.824,18.289 		"/>
	</g>
	<g>
		<polygon fill="#DE2910" points="17.63,30.562 15.316,29.461 15.316,20.098 17.63,21.2 		"/>
		<polygon fill="#000095" points="17.63,30.562 19.944,29.461 19.944,20.098 17.63,21.2 		"/>
		<polygon fill="#CCCCCC" points="15.316,20.098 17.63,18.909 19.944,20.098 17.63,21.2 		"/>
	</g>
	<g>
		<polygon fill="#DE2910" points="17.63,26.344 8.51,22.002 8.51,15.248 17.63,19.59 		"/>
		<polygon fill="#000095" points="17.63,26.344 26.75,22.002 26.75,15.248 17.63,19.59 		"/>
		<polygon fill="#CCCCCC" points="8.51,15.248 17.63,10.563 26.75,15.248 17.63,19.59 		"/>
	</g>
	<g>
		<polygon fill="#DE2910" points="14.63,19.188 12.316,18.086 12.316,9.723 14.63,10.825 		"/>
		<polygon fill="#000095" points="14.63,18.188 16.944,17.086 16.944,9.723 14.63,10.825 		"/>
		<polygon fill="#CCCCCC" points="12.316,9.723 14.63,8.534 16.944,9.723 14.63,10.825 		"/>
	</g>
	<g>
		<polygon fill="#DE2910" points="11.223,13.089 5.502,10.365 5.502,4.751 11.223,7.475 		"/>
		<polygon fill="#000095" points="11.223,13.089 16.944,10.365 16.944,4.751 11.223,7.475 		"/>
		<polygon fill="#CCCCCC" points="5.502,4.751 11.223,1.812 16.944,4.751 11.223,7.475 		"/>
	</g>
</g>
<g id="Layer_2" display="none">
</g>
</svg>
