<?xml version="1.0" encoding="utf-8"?>
<!-- Generator: Adobe Illustrator 17.0.0, SVG Export Plug-In . SVG Version: 6.00 Build 0)  -->
<!DOCTYPE svg PUBLIC "-//W3C//DTD SVG 1.1//EN" "http://www.w3.org/Graphics/SVG/1.1/DTD/svg11.dtd">
<svg version="1.1" id="Layer_1" xmlns="http://www.w3.org/2000/svg" xmlns:xlink="http://www.w3.org/1999/xlink" x="0px" y="0px"
	 width="1450px" height="500px" viewBox="0 0 1450 500" enable-background="new 0 0 1450 500" xml:space="preserve">
<g>
	<path fill="#F2F2F2" d="M105.5,21v223.941c0,80.292,85.434,150.241,145.5,161.768c57.709-11.526,145.5-81.476,145.5-161.768V21
		H105.5z"/>
	<path fill="#999999" d="M235.5,21h-130v223.941c0,23.561,7.363,46.228,19.277,66.794L235.5,201.011V21z"/>
	<path fill="#999999" d="M143.476,338.23c25.842,30.772,60.869,54.125,92.024,64.394V246.205L143.476,338.23z"/>
	<path fill="#999999" d="M266.5,21v381.454c56.676-19.401,130-84.133,130-157.513V21H266.5z"/>
</g>
<g>
	<path fill="#CCCCCC" d="M326.644,425.144c26.791,4.321,55.857-3.531,76.743-24.417c20.886-20.886,28.739-49.952,24.417-76.743
		L326.644,425.144z"/>
	<polygon fill="#00FFFF" points="397.205,363.139 367.573,392.838 25.5,50.698 25.5,21 55.066,21 	"/>
	<polygon fill="#29ABE2" points="382.422,377.988 367.606,392.838 25.5,50.698 25.5,21 	"/>
	
		<rect x="411.55" y="374.683" transform="matrix(0.7071 -0.7071 0.7071 0.7071 -173.5947 425.2705)" fill="#C1272D" width="30" height="95"/>
	<g>
		<g>
			<circle fill="#CCCCCC" cx="386.598" cy="382.938" r="26"/>
		</g>
		<g>
			<path fill="#ED1C24" d="M386.598,360.438c6.01,0,11.66,2.34,15.91,6.59s6.59,9.9,6.59,15.91s-2.34,11.66-6.59,15.91
				c-4.25,4.25-9.9,6.59-15.91,6.59s-11.66-2.34-15.91-6.59s-6.59-9.9-6.59-15.91s2.34-11.66,6.59-15.91
				C374.938,362.779,380.588,360.438,386.598,360.438 M386.598,352.438c-7.806,0-15.611,2.978-21.567,8.933
				c-11.911,11.911-11.911,31.223,0,43.134c5.956,5.956,13.761,8.933,21.567,8.933s15.611-2.978,21.567-8.933
				c11.911-11.911,11.911-31.223,0-43.134C402.209,355.416,394.404,352.438,386.598,352.438L386.598,352.438z"/>
		</g>
		<g>
			<defs>
				<circle id="SVGID_1_" cx="386.598" cy="382.938" r="30.5"/>
			</defs>
			<clipPath id="SVGID_2_">
				<use xlink:href="#SVGID_1_"  overflow="visible"/>
			</clipPath>
			
				<rect x="382.245" y="349.792" transform="matrix(0.7071 -0.7071 0.7071 0.7071 -157.8998 385.3798)" clip-path="url(#SVGID_2_)" fill="#ED1C24" width="8" height="67"/>
			<rect x="378.5" y="379" clip-path="url(#SVGID_2_)" fill="#ED1C24" width="8" height="39"/>
		</g>
	</g>
	<path fill="#CCCCCC" d="M474.986,471.327c8.396-8.396,8.396-22.009,0-30.406l-30.406,30.406
		C452.977,479.723,466.59,479.723,474.986,471.327z"/>
</g>
<polygon fill="#00FFB0" points="774.5,162 774.5,208 796.5,208 796.5,234 822.5,208 822.5,162 "/>
<polygon fill="#FF0055" points="888.5,73 888.5,119 888.5,143 912.5,119 936.5,119 936.5,73 "/>
<g>
	<rect x="491.5" y="263" width="31" height="67"/>
	<rect x="607.5" y="263" width="31" height="67"/>
	<polygon points="609.5,370 575.5,370 575.5,329 599.5,329 599.5,309 579.5,309 579.5,207.941 564.5,192.941 549.5,207.941 
		549.5,309 529.5,309 529.5,329 553.5,329 553.5,370 520.5,370 520.5,339 489.5,339 489.5,408 520.5,408 520.5,394 609.5,394 
		609.5,408 640.5,408 640.5,339 609.5,339 	"/>
	<polygon points="686.106,250 640.046,329 669.44,329 684.5,303.169 684.5,367 709.5,367 709.5,281 697.426,281 715.5,250 	"/>
	<polygon points="1095.833,272 1110.5,245 1026.69,245 1018.724,231.305 1050.871,175 1051.5,175 1051.5,148 945.5,148 945.5,175 
		1014.535,175 1000.388,199.779 990.629,183 960.167,183 985.298,226.209 971.5,250.377 971.5,225 822.5,225 822.5,250 734.917,250 
		720.327,275 813.363,275 827.369,251 880.825,251 822.5,352.153 822.5,342 785.5,342 785.5,322 822.5,322 822.5,299 785.5,299 
		785.5,282 756.5,282 756.5,299 719.5,299 719.5,322 756.5,322 756.5,342 719.5,342 719.5,365 815.092,365 801.83,388 830.828,388 
		889.5,286.246 889.5,350 867.287,350 889.044,388 889.5,388 916.1,388 916.5,388 916.5,251 943.293,251 921.412,290 948.949,290 
		970.831,251 971.144,251 971.5,251 999.717,251 1011.509,271.274 1000.685,290 954.5,290 954.5,317 985.079,317 920.343,429 
		952.18,429 1016.917,317 1050.44,317 1026.911,358 1006.295,358 987.242,389 1009.121,389 1046.644,389 1047.5,389 1047.5,387.509 
		1087.963,317 1087.5,317 1087.5,290 1032.523,290 1042.927,272 	"/>
	<polygon points="1017.803,78 982.41,78 946.474,140 981.867,140 	"/>
	<polygon points="899.19,197 876.348,197 887.804,217.948 887.776,218 887.833,218 910.805,218 916.694,218 936.805,181 936.5,181 
		936.5,154 859.5,154 859.5,181 907.887,181 	"/>
	<polygon points="720.842,21 636.854,21 622.262,45 706.251,45 	"/>
	<path d="M711.5,188v-17h39v-21h-39v-18h-26v18h-31v-18h-25v18h-40v21h40v17v0.546l21.691,12.631l-0.691,0.409V202h-42v23h42v-0.352
		l20.333-12.034l20.667,12.034V225h41v-23h-41v-0.414l-1.025-0.597l21.025-12.443V188z M654.5,180.041V171h31v9.872l-14.667,8.68
		L654.5,180.041z"/>
	<polygon points="569.5,153.757 657.5,101.746 657.5,130 683.5,130 683.5,84 691.5,84 691.5,109.454 753.5,145.557 753.5,146 
		770.833,146 785.5,119 753.5,119 753.5,118.808 693.722,84 733.5,84 733.5,63 683.5,63 683.5,51 657.5,51 657.5,63 606.5,63 
		606.5,84 644.942,84 568.5,129.179 568.5,153 524.288,153 554.082,100 569.5,100 569.5,75 445.5,75 445.5,100 525.251,100 
		504.173,137.496 486.957,108 459.5,108 485.765,153 445.5,153 445.5,178 569.5,178 	"/>
	<polygon points="531.757,68 505.36,21 474.5,21 500.896,68 	"/>
</g>
<g>
	<polygon fill="#005060" points="1149.5,150 1082.912,150 1149.5,217.248 1149.5,311 1424.5,311 1424.5,150 	"/>
	<g>
		<rect x="1226.892" y="201.03" fill="#FFFFFF" width="34.792" height="8.217"/>
		<rect x="1221.647" y="222.534" fill="#FFFFFF" width="45.282" height="8.217"/>
		<rect x="1278.817" y="201.205" fill="#FFFFFF" width="65.562" height="7.518"/>
		<rect x="1286.51" y="215.716" fill="#FFFFFF" width="50.177" height="7.518"/>
		<rect x="1286.51" y="227.505" fill="#FFFFFF" width="50.177" height="7.268"/>
		<rect x="1286.51" y="239.318" fill="#FFFFFF" width="50.177" height="7.518"/>
		<rect x="1278.642" y="251.032" fill="#FFFFFF" width="65.912" height="7.518"/>
		<rect x="1204.688" y="218.863" fill="#FFFFFF" width="12.238" height="8.217"/>
		<rect x="1239.655" y="205.226" fill="#FFFFFF" width="9.266" height="19.931"/>
		<rect x="1283.712" y="215.716" fill="#FFFFFF" width="8.392" height="31.12"/>
		<rect x="1294.552" y="196.659" fill="#FFFFFF" width="8.392" height="16.784"/>
		<rect x="1307.839" y="246.312" fill="#FFFFFF" width="8.392" height="22.029"/>
		<rect x="1320.427" y="196.659" fill="#FFFFFF" width="8.392" height="16.784"/>
		<rect x="1331.617" y="215.716" fill="#FFFFFF" width="8.392" height="31.12"/>
		<polygon fill="#FFFFFF" points="1230.039,268.341 1220.772,268.341 1239.48,230.052 1248.746,230.052 		"/>
		<polygon fill="#FFFFFF" points="1258.536,268.341 1267.803,268.341 1249.095,230.052 1239.829,230.052 		"/>
		<polygon fill="#FFFFFF" points="1209.933,268.341 1200.667,268.341 1207.135,232.85 1216.402,232.85 		"/>
		<polygon fill="#FFFFFF" points="1216.926,213.094 1207.66,213.094 1201.366,200.855 1210.632,200.855 		"/>
		<polygon fill="#FFFFFF" points="1369.498,249.613 1361.264,249.613 1359.474,198.814 1371.288,198.814 		"/>
		<rect x="1359.997" y="256.343" fill="#FFFFFF" width="10.768" height="10.768"/>
	</g>
</g>
</svg>
