<?xml version="1.0" encoding="utf-8"?>
<!-- Generator: Adobe Illustrator 17.0.0, SVG Export Plug-In . SVG Version: 6.00 Build 0)  -->
<!DOCTYPE svg PUBLIC "-//W3C//DTD SVG 1.1//EN" "http://www.w3.org/Graphics/SVG/1.1/DTD/svg11.dtd">
<svg version="1.1" id="Layer_1" xmlns="http://www.w3.org/2000/svg" xmlns:xlink="http://www.w3.org/1999/xlink" x="0px" y="0px"
	 width="280px" height="280px" viewBox="0 0 280 280" enable-background="new 0 0 280 280" xml:space="preserve">
<g>
	<path d="M59.392,51.129H25.786c-0.756,0-1.722,0.252-2.394,0.504l-1.26-1.806h19.491c2.604-6.469,3.655-13.526,4.285-20.835
		c2.101,0.798,4.201,1.638,6.217,2.688c0.378,0.21,0.336,0.84-0.042,0.924c-0.588,0.126-1.302,0.504-1.428,0.882
		c-2.101,5.587-4.621,11.258-7.939,16.341h9.368c0.882-1.26,1.638-2.227,2.646-3.486c0.126-0.126,0.42-0.252,0.63-0.042
		c1.513,1.218,2.941,2.604,4.369,4.032C60.064,50.625,59.77,51.129,59.392,51.129z M58.174,28.067H27.382
		c-0.756,0-1.933,0.21-2.646,0.504l-1.386-1.764h27.515c0.798-1.092,1.554-2.016,2.479-3.024c0.21-0.21,0.588-0.294,0.84-0.168
		c1.176,0.63,3.696,3.024,4.285,3.822C58.636,27.647,58.384,28.067,58.174,28.067z M38.808,45.081
		c-0.378,0.966-1.008,1.806-1.89,2.394c-0.714,0.504-1.597,0.462-2.185,0.042c-0.546-0.336-0.84-0.966-0.798-1.89
		c0.378-5.923-0.168-9.83-2.73-16.215l0.504-0.294c3.57,3.781,6.553,7.897,7.351,12.812C39.228,42.98,39.144,44.072,38.808,45.081z
		 M42.967,25.547c-0.546,0.42-1.302,0.504-1.89,0.294c-0.546-0.21-0.924-0.63-1.05-1.26c-0.504-3.024-1.848-5.587-3.781-7.645
		l0.42-0.462c2.604,0.84,5.334,1.765,7.309,3.949c0.588,0.672,0.672,1.723,0.462,2.688C44.227,24.035,43.681,24.959,42.967,25.547z"
		/>
	<path d="M99.019,32.478c-0.966,0.126-1.849,0.504-2.604,1.092c-0.798,0.63-1.512,1.512-2.017,2.437
		c-2.226-0.672-4.537-1.807-6.511-3.319c-2.226-1.722-4.075-3.907-4.915-6.343H82.51c0,1.638,0.126,3.57,0.126,5.293
		c0,0.378-0.168,0.714-0.504,0.882c-0.882,0.546-2.772,0.798-3.529,0.798c-0.294,0-0.63-0.378-0.588-0.672
		c0.126-1.386,0.126-2.94,0.126-4.537c-4.663,4.915-10.208,7.478-16.047,9.62l-0.378-0.462c4.369-2.562,9.746-7.394,11.972-10.922
		h-7.478c-0.588,0-1.638,0.168-2.142,0.378l-1.134-1.68h15.207v-3.445c-3.949,0.168-9.158,0.336-12.56,0.252l-0.084-0.546
		c9.115-1.344,15.333-2.437,23.23-5.293c1.302,1.302,2.562,2.772,3.613,4.159c0.168,0.21-0.084,0.588-0.336,0.546
		c-1.05,0-2.142-0.084-3.192,0c-2.185,0.252-4.159,0.462-6.301,0.588v3.739h8.402c0.882-1.008,1.596-1.765,2.562-2.814
		c0.21-0.21,0.462-0.126,0.672,0.042c1.218,1.008,2.688,2.31,3.655,3.444c0.168,0.21-0.084,0.63-0.294,0.63h-13.4
		c1.848,1.68,4.579,2.982,7.393,3.907c2.604,0.84,5.335,1.344,7.604,1.47L99.019,32.478z M97.675,39.746h-7.771
		c-1.176,2.058-2.395,4.117-4.033,6.007c1.974,0.546,3.949,1.134,5.629,2.143c0.714,0.42,1.302,1.05,1.68,1.764
		c0.42,0.714,0.588,1.554,0.42,2.437c-0.126,0.882-0.714,1.344-1.344,1.428c-0.588,0.084-1.218-0.168-1.849-0.672
		c-2.311-1.764-5.041-3.234-7.729-4.117c-2.646,1.849-5.545,3.025-8.653,3.781c-3.445,0.84-7.141,1.134-10.88,1.176l-0.252-0.63
		c3.234-0.504,6.805-1.386,9.914-2.646c2.185-0.882,4.159-1.933,5.671-3.109c-3.192-0.924-6.469-1.638-9.83-2.058
		c1.386-1.807,2.814-3.613,4.033-5.503h-6.007c-0.672,0-1.891,0.21-2.437,0.504l-1.344-1.806h10.586
		c1.134-1.765,2.184-3.487,3.066-5.335c1.638,0.63,3.444,1.302,4.957,2.1c0.252,0.126,0.168,0.756-0.042,0.798
		c-0.756,0.21-1.429,0.336-1.681,0.756c-0.42,0.672-0.924,1.344-1.176,1.681h12.938c0.462-0.462,1.386-1.344,1.975-1.891
		c0.21-0.21,0.63-0.21,0.882-0.042c1.05,0.756,2.479,1.807,3.445,2.521C98.137,39.241,98.011,39.746,97.675,39.746z M77.847,39.746
		c-1.134,1.638-2.395,3.234-3.655,4.789c2.269,0,4.663,0.21,6.805,0.378c1.47-1.596,2.604-3.36,3.529-5.167H77.847z"/>
	<path d="M134.932,43.442c-0.672,0.126-1.302,0.546-1.47,1.008c-0.672,1.933-1.344,4.033-2.353,5.881
		c-0.714,1.345-1.428,1.933-2.52,2.353c-0.924,0.336-2.143,0.546-3.361,0.672c-0.168-1.26-0.504-2.604-1.428-3.403
		c-0.756-0.672-2.73-1.554-3.823-1.974l0.126-0.63c2.101,0.294,4.117,0.84,6.301,0.882c0.504,0,1.008-0.21,1.26-0.672
		c0.714-1.218,1.344-3.444,1.638-4.915h-8.99c-1.596,3.234-4.033,5.545-6.889,7.183c-3.654,2.101-8.065,3.108-12.308,3.445
		l-0.168-0.672c3.276-0.924,6.721-2.395,9.578-4.579c1.891-1.428,3.487-3.193,4.663-5.377h-9.368c-0.588,0-1.512,0.126-1.975,0.294
		l-1.008-1.596h12.896c0.672-1.302,1.092-2.604,1.344-4.117c0.294,0.084,0.63,0.168,0.924,0.252v-1.386h-6.637
		c0,0.672,0.084,1.428,0.126,2.143c0,0.504-0.21,1.008-0.63,1.26c-0.63,0.378-2.184,0.966-3.234,0.84
		c-0.462-0.042-0.798-0.252-0.798-0.714c0.042-0.84,0.084-2.857,0.084-3.865v-9.032c0-0.966-0.042-2.017-0.126-3.024
		c1.134,0.336,3.193,1.218,4.957,2.1h7.015c-1.302-1.764-3.15-3.192-5.041-3.949l0.042-0.588c2.058-0.126,4.201-0.168,6.049,0.42
		c1.092,0.336,2.101,0.924,2.94,1.891c1.344-1.134,2.898-2.479,3.991-3.823h-19.071c-0.504,0-1.596,0.126-2.016,0.294l-0.924-1.596
		h22.978c0.63-0.714,1.512-1.47,2.227-2.017c0.21-0.126,0.588-0.126,0.84,0.042c1.344,1.008,2.688,2.227,3.781,3.445
		c0.21,0.21-0.042,0.714-0.336,0.714c-0.84,0.042-2.185,0.21-2.646,0.462c-2.437,1.344-5.545,2.856-8.443,3.991
		c0,0.252-0.126,0.546-0.21,0.714h5.545c0.504-0.504,1.638-1.638,2.142-2.1c0.21-0.21,0.546-0.126,0.756,0
		c1.176,0.756,2.394,1.722,3.528,2.73c0.252,0.21,0.084,0.672-0.126,0.756c-0.672,0.168-1.47,0.84-1.47,1.344V34.2
		c0,1.092,0.042,2.143,0.084,3.235c0.042,0.378-0.042,0.714-0.336,0.966c-0.882,0.714-2.479,1.134-3.571,1.05
		c-0.378,0-0.63-0.21-0.63-0.588v-2.772h-6.511v0.378c0,0.294-0.21,0.63-0.546,0.84c-0.714,0.42-1.849,0.63-2.185,0.672
		c1.092,0.42,2.437,0.966,3.15,1.26c0.21,0.084,0.084,0.672-0.126,0.756c-0.714,0.21-1.68,0.63-1.806,1.344h8.359
		c0.462-0.546,0.798-0.882,1.218-1.26c0.168-0.168,0.336-0.21,0.714-0.084c0.63,0.21,3.109,1.806,3.949,2.646
		C135.269,42.854,135.143,43.4,134.932,43.442z M118.003,27.101h-6.637v3.024h6.637V27.101z M118.003,31.428h-6.637v3.361h6.637
		V31.428z M128.841,27.101h-6.511v3.024h6.511V27.101z M128.841,31.428h-6.511v3.361h6.511V31.428z"/>
	<path d="M176.904,31.554h-13.358c-2.059,1.848-4.369,3.528-6.596,4.915h8.065c0.42-0.588,1.303-1.554,1.849-2.1
		c0.168-0.168,0.378-0.168,0.546-0.042c1.176,0.798,2.479,1.764,3.528,2.814c0.294,0.252,0.252,0.546,0.042,0.756
		c-0.168,0.168-0.462,0.378-0.714,0.504s-0.336,0.378-0.336,0.63v8.864c0,1.092,0.042,2.562,0.126,3.612
		c0,0.336-0.084,0.546-0.378,0.714c-1.093,0.546-2.269,0.924-3.57,1.05c-0.505,0.042-0.715-0.252-0.715-0.714v-2.604h-10.502v1.807
		c0,0.504-0.336,1.092-0.882,1.26c-0.882,0.294-1.933,0.504-2.814,0.63c-0.378,0.042-0.84-0.21-0.798-0.672
		c0.084-1.554,0.126-3.15,0.126-4.747V40.04c-3.234,1.554-6.47,2.73-9.914,3.739l-0.168-0.504c3.444-1.722,6.806-3.654,10.04-5.923
		c0-1.008-0.042-2.017-0.168-2.982c0.798,0.252,2.142,0.714,2.814,0.966c1.68-1.092,3.318-2.352,4.873-3.78h-13.989
		c-0.84,0-1.638,0.168-2.269,0.336l-1.134-1.638h14.03v-6.007h-5.587c-0.672,0-1.933,0.126-2.562,0.336l-1.092-1.596h9.241v-3.613
		c0-1.134-0.042-2.436-0.084-3.318c2.059,0.378,4.369,1.092,5.965,1.68c0.295,0.084,0.379,0.546,0.169,0.714
		c-0.211,0.252-0.673,0.546-0.967,0.672c-0.294,0.084-0.462,0.42-0.462,0.714v3.15h1.555c0.546-0.798,1.344-1.89,1.974-2.521
		c0.168-0.168,0.42-0.126,0.589,0c0.798,0.63,1.932,1.639,2.814,2.395c1.05-1.134,2.436-2.814,3.108-4.117
		c1.512,1.26,3.108,2.604,4.536,4.117c0.21,0.21,0.042,0.504-0.252,0.588c-0.294,0.084-0.756,0.084-1.05,0.042
		c-0.42-0.084-0.924,0.126-1.219,0.42c-1.932,2.142-4.326,4.495-6.301,6.343h5.629c0.42-0.546,1.471-1.765,2.227-2.562
		c0.168-0.168,0.462-0.168,0.63-0.042c1.177,0.924,2.688,2.226,3.613,3.36C177.324,31.26,177.156,31.554,176.904,31.554z
		 M165.394,37.729h-10.502v4.453h10.502V37.729z M165.394,43.484h-10.502v5.125h10.502V43.484z M159.261,24.245v6.007
		c2.017-1.765,4.075-3.907,5.755-6.007H159.261z"/>
	<path d="M217.619,49.869c-1.219-0.126-2.73-0.168-3.739,0.462c-1.008,0.588-1.974,1.387-2.814,2.311
		c-3.738-3.15-6.301-6.889-7.939-11.006c-1.47-3.697-2.184-7.729-2.395-11.972h-0.504c-0.294,4.999-1.47,9.704-4.242,13.652
		c-3.655,5.251-9.662,8.149-15.585,10.082l-0.252-0.462c5.251-3.108,9.199-6.259,11.804-10.25c2.227-3.529,3.487-7.646,3.613-13.022
		h-11.385c-0.714,0-1.806,0.126-2.395,0.378l-1.176-1.638h15.039c0.21-4.537,0.168-7.813-0.084-12.518
		c2.226,0.546,4.326,1.218,6.343,2.016c0.588,0.21,0.252,0.882-0.21,0.966c-0.546,0.126-1.009,0.336-1.009,1.134
		c-0.084,2.604-0.21,5.713-0.378,8.401h9.788c0.672-0.924,1.555-2.1,2.143-2.898c0.252-0.378,0.588-0.504,1.008-0.168
		c1.513,1.134,2.898,2.479,3.949,3.571c0.378,0.378,0.294,0.756-0.084,0.756h-15.459c0.882,3.991,2.269,7.813,4.789,11.132
		c2.898,3.823,7.015,6.511,11.342,8.486L217.619,49.869z"/>
	<path d="M255.397,50.247c-0.756,0.798-1.009,1.639-1.261,2.521c-3.99,0.042-7.519-0.042-11.258-0.126
		c-3.486-0.126-6.301-0.462-8.569-1.428c-2.353-0.966-4.159-2.646-6.007-5.377c-1.639,3.108-4.537,5.797-7.478,7.813l-0.336-0.378
		c3.78-4.663,5.839-10.04,6.721-15.921h-0.924c-0.252,0.42-0.924,1.134-1.302,1.512c-0.169,0.168-0.589,0.168-0.757,0.042
		c-0.798-0.63-1.932-1.512-2.646-2.395c-0.168-0.21-0.042-0.462,0.126-0.588c0.336-0.294,0.757-0.63,1.135-0.882
		c1.218-2.437,2.521-4.999,3.612-7.477h-2.311c-0.63,0-1.596,0.168-2.269,0.42l-1.176-1.722h5.839
		c0.42-0.504,1.051-1.134,1.387-1.428c0.21-0.168,0.504-0.168,0.714-0.042c1.134,0.714,2.395,1.806,3.318,2.688
		c0.168,0.126,0.168,0.504-0.042,0.63c-0.756,0.378-1.512,0.84-1.849,1.596c-0.924,2.017-2.226,4.201-3.402,6.343h0.63
		c0.421-0.546,0.925-1.05,1.303-1.386c0.21-0.21,0.588-0.168,0.924,0.042c1.093,0.756,2.143,1.554,2.982,2.479
		c0.126,0.168,0.084,0.504-0.084,0.588c-0.42,0.252-1.134,0.756-1.344,1.428c-0.504,1.849-1.261,3.697-2.101,5.503
		c1.303,1.302,2.814,2.185,4.411,2.772c2.311-1.974,4.032-4.453,5.503-6.889h-3.739c-0.588,0-1.68,0.21-2.184,0.42l-1.219-1.723
		h6.301v-3.738h-1.68c-0.757,0-1.807,0.168-2.521,0.462l-1.261-1.764h5.461v-3.949c-0.588,0-1.722,0-2.521-0.084
		c-1.344-0.084-1.89-0.546-2.268-1.302c-0.294-0.546-0.379-1.302-0.379-2.185V19.12c0-0.882-0.084-2.184-0.126-2.856
		c1.387,0.63,3.193,1.554,3.991,1.975h1.891c0.42-0.462,1.008-1.176,1.218-1.386c0.168-0.168,0.504-0.126,0.63-0.042
		c0.504,0.252,2.353,1.554,2.982,2.226c0.126,0.126,0.168,0.462-0.042,0.588c-0.42,0.294-0.882,0.798-0.882,1.428
		c0,0.714,0,2.142,0.042,2.898c0,0.294-0.294,0.588-0.672,0.798c-0.672,0.378-1.723,0.546-2.353,0.42
		c-0.336-0.042-0.588-0.21-0.588-0.504v-0.546h-2.479v2.227c0,0.336,0.336,0.714,0.672,0.714c1.05,0,2.982,0.042,3.949,0
		c0.42-0.042,0.84-0.504,1.05-0.798c0.504-0.714,0.63-1.555,0.84-2.521h0.546c0,0.63,0.084,1.302,0.253,1.89
		c0.21,0.588,0.546,1.092,1.176,1.386V19.96c0-0.756-0.042-2.646-0.084-3.697c1.05,0.462,2.814,1.344,4.116,2.017h2.185
		c0.462-0.504,1.135-1.26,1.471-1.597c0.168-0.21,0.42-0.21,0.63-0.042c0.756,0.504,2.059,1.555,2.898,2.269
		c0.126,0.126,0.126,0.588-0.042,0.588c-0.546,0.126-1.302,0.714-1.302,1.092v3.487c0,0.252-0.126,0.546-0.42,0.756
		c-0.589,0.462-1.639,0.756-2.353,0.714c-0.505,0-0.841-0.168-0.841-0.546v-0.882h-2.521v2.395c0,0.252,0.294,0.546,0.547,0.546
		c1.218,0.042,3.36,0,4.326-0.042c0.63,0,1.219-0.504,1.429-0.966c0.294-0.672,0.462-1.722,0.588-2.646l0.63,0.042
		c-0.084,1.05,0.126,1.933,0.462,2.604c0.336,0.63,0.799,1.092,1.429,1.218c-0.378,0.966-0.756,1.681-1.387,2.185
		c-0.588,0.504-1.344,0.756-2.562,0.798c-2.016,0.084-4.704,0.042-6.385-0.042c-0.63-0.042-1.26-0.252-1.765-0.63
		c-0.378-0.294-0.672-0.714-0.798-1.176c-0.294,0.672-0.672,1.092-1.176,1.386c-0.589,0.336-1.345,0.42-2.101,0.462
		c-0.967,0.042-1.933,0.042-2.856,0.042c1.26,0.336,3.612,1.218,4.242,1.428c0.168,0.042,0.252,0.462,0,0.546
		c-0.588,0.21-1.092,0.588-1.092,1.092v0.882h3.486c0.084-1.302,0-2.688-0.084-3.949c1.765,0.378,3.529,0.84,5.251,1.386
		c0.21,0.084,0.294,0.672,0.042,0.714c-0.672,0.168-1.05,0.588-1.05,0.924v0.924h1.218c0.63-0.882,1.387-1.723,1.933-2.311
		c0.168-0.126,0.462-0.126,0.588-0.042c0.967,0.798,2.437,2.184,3.444,3.276c0.169,0.168-0.042,0.378-0.21,0.378h-6.973v3.738h2.017
		c0.588-0.63,1.554-1.722,2.016-2.268c0.126-0.126,0.42-0.126,0.547,0c1.008,0.882,2.31,2.142,3.192,3.066
		c0.168,0.168-0.042,0.504-0.21,0.504h-16.93c1.009,0.756,2.479,1.807,3.361,2.604c0.168,0.168-0.084,0.504-0.295,0.504
		c-0.798-0.042-1.344,0.042-1.974,0.462c-2.143,1.47-4.621,2.562-7.016,3.655c1.765,0.378,3.57,0.546,5.461,0.63
		c4.117,0.168,9.62,0.126,18.147-0.21v0.63C257.119,48.987,256.069,49.575,255.397,50.247z M228.555,23.741
		c-0.588,0.63-1.219,0.756-1.765,0.546c-0.462-0.21-0.84-0.714-1.008-1.386c-0.462-1.932-1.387-4.579-3.402-6.259l0.336-0.42
		c1.68,0.378,3.696,0.798,5.125,1.848c0.966,0.672,1.722,1.723,1.764,2.941C229.604,22.018,229.269,22.984,228.555,23.741z
		 M238.973,19.54h-2.479v3.276h2.479V19.54z M245.735,35.545h-3.486v3.738h3.486V35.545z M253.087,47.685
		c-0.63,0.126-1.345-0.168-1.849-0.882c-1.638-2.395-3.612-4.033-6.007-5.041l0.168-0.546c2.688,0.126,5.419,0.168,7.646,1.428
		c0.63,0.378,1.05,1.05,1.26,1.806c0.127,0.546,0.169,1.176,0.042,1.722C254.179,47.013,253.675,47.559,253.087,47.685z
		 M251.238,19.582h-2.521v3.234h2.521V19.582z"/>
</g>
<g>
	<path d="M68.937,108.595c-1.296,4.914-3.348,9.019-5.994,12.42c2.484,1.404,5.346,2.538,8.532,3.24
		c-1.566,1.404-3.618,4.266-4.59,6.102c-3.456-1.026-6.48-2.43-9.072-4.266c-2.592,1.944-5.454,3.564-8.64,4.806
		c-0.756-1.62-2.376-4.05-3.726-5.562v5.454h-7.29v-4.32c-6.102,0.594-12.15,1.188-16.956,1.674l-0.54-6.696l4.482-0.324v-15.336
		h-3.996v-6.156h48.655v6.156H45.446v18.847c2.538-0.864,4.86-2.052,6.912-3.564c-1.782-2.16-3.617-5.399-4.858-8.153l-0.596-0.001
		v-5.886h15.876l1.296-0.216L68.937,108.595z M34.97,98.551h-7.506V81.217h35.964v17.334h-7.884V86.509H34.97V98.551z
		 M32.054,105.787v1.296h6.102v-1.296H32.054z M32.054,113.726h6.102v-1.35h-6.102V113.726z M38.156,120.098v-1.08h-6.102v1.566
		L38.156,120.098z M54.033,92.179H36.266v-4.428h17.767V92.179z M36.266,93.583h17.767v4.428H36.266V93.583z M54.573,112.916
		c0.702,1.296,1.62,2.484,2.646,3.618c0.864-1.134,1.674-2.322,2.322-3.618H54.573z"/>
	<path d="M93.722,106.651c0,0-0.054,1.944-0.162,2.862c-0.594,11.502-1.35,16.579-2.916,18.469c-1.35,1.62-2.754,2.16-4.645,2.43
		c-1.566,0.27-4.104,0.324-6.804,0.216c-0.108-2.16-1.026-5.184-2.214-7.128c2.106,0.216,4.158,0.216,5.184,0.216
		c0.81,0,1.35-0.108,1.89-0.648c0.756-0.81,1.296-3.456,1.674-9.45H73.796c0.918-5.076,1.782-12.906,2.214-19.17h9.828v-5.13H75.146
		v-7.074h17.928v19.278H82.328c-0.162,1.728-0.324,3.456-0.486,5.13H93.722z M118.995,131.06c-0.216-0.918-0.54-1.944-0.918-3.078
		c-8.478,0.702-17.334,1.296-23.868,1.728l-0.864-7.614c3.294-0.108,7.344-0.27,11.718-0.486v-5.022h-9.99v-16.038h9.99v-4.862
		h7.398v4.862h10.26v16.038h-1.944c2.16,3.726,4.374,8.37,5.184,11.502L118.995,131.06z M119.157,98.875
		c-0.432-0.972-1.026-2.052-1.728-3.24c-16.47,1.35-19.224,1.62-21.114,2.322c-0.432-1.35-1.728-4.644-2.592-6.426
		c1.026-0.27,1.998-1.08,2.916-2.268c0.972-1.134,3.834-5.346,5.346-9.558l8.208,1.782c-1.674,3.078-3.942,6.318-6.264,9.018
		l9.342-0.648c-0.864-1.134-1.782-2.214-2.7-3.186l5.508-3.348c3.402,3.456,7.398,8.262,9.072,11.772L119.157,98.875z
		 M105.062,110.377v-3.618h-3.24v3.618H105.062z M112.46,106.759v3.618h3.186v-3.618H112.46z M115.215,121.124
		c-0.486-0.972-0.918-1.89-1.404-2.754l4.374-1.782h-5.724v4.644L115.215,121.124z"/>
	<path d="M140,99.469c3.078,0,5.67,2.538,5.67,5.67c0,3.132-2.592,5.67-5.67,5.67c-3.132,0-5.67-2.538-5.67-5.67
		C134.33,102.007,136.868,99.469,140,99.469z"/>
	<path d="M206.259,122.366h-8.586v8.262h-7.452v-8.262h-9.288v-6.696h9.288v-3.942h-3.618c-0.54,1.35-1.188,2.592-1.836,3.618
		c-1.026-0.756-3.078-1.782-4.59-2.484v10.692c0,2.862-0.486,4.806-2.269,5.94c-1.836,1.08-4.05,1.242-7.128,1.242
		c-0.216-1.836-1.242-4.86-2.16-6.588c1.782,0.108,3.727,0.108,4.374,0.108c0.594,0,0.811-0.216,0.811-0.864v-6.75h-9.559
		c-0.594,5.13-1.782,10.422-4.32,14.256c-1.134-1.026-3.941-2.808-5.399-3.456c3.672-5.562,3.941-13.608,3.941-19.71v-8.37
		c-1.35-1.188-3.132-2.7-4.319-3.456c3.617-3.888,6.372-10.152,7.775-16.47l6.912,1.512c-0.323,1.242-0.647,2.484-1.08,3.672h4.051
		l1.527-0.036l3.873,2.465c-0.702,1.998-1.728,4.266-2.754,6.426h5.725v2.754c3.672-1.836,5.076-4.428,5.67-7.614H180.5v-6.372
		h24.409c0,0-0.055,1.566-0.108,2.376c-0.216,8.478-0.648,12.366-1.836,13.878c-0.972,1.242-2.106,1.728-3.51,1.998
		c-0.648,0.108-1.566,0.162-2.538,0.216h0.756v4.482h7.452v6.534h-7.452v3.942h8.586V122.366z M165.596,90.451
		c-0.485,1.026-0.918,2.052-1.403,3.024h3.78c0.378-0.918,0.756-1.998,1.08-3.024H165.596z M164.678,107.785
		c0,1.026,0,2.106-0.054,3.187h2.052v-3.402h-1.998V107.785z M164.678,102.115h1.998v-2.97h-1.998V102.115z M171.752,102.115h2.053
		v-2.97h-2.053V102.115z M173.805,110.972v-3.402h-2.053v3.402H173.805z M180.177,110.647c1.241-2.43,2.16-5.454,2.7-8.478
		c-0.54-1.188-1.566-2.862-2.7-4.104V110.647z M190.221,105.193v-4.482h3.834c-0.108-1.944-0.756-4.59-1.729-6.264
		c1.458,0.162,2.593,0.216,3.295,0.216c0.594,0,1.025-0.108,1.403-0.594c0.378-0.486,0.648-1.998,0.811-5.454h-4.969
		c-0.81,5.454-2.754,9.72-8.153,12.744l4.644,0.918c-0.162,0.972-0.378,1.944-0.594,2.916H190.221z"/>
	<path d="M226.67,114.967c-0.647-1.512-1.565-3.456-2.592-5.4v21.222h-7.506v-18.306c-1.351,3.672-2.97,6.966-4.752,9.396
		c-0.702-2.214-2.431-5.4-3.618-7.398c3.24-4.104,6.048-10.746,7.506-16.686h-5.94v-7.398h6.805V79.489h7.506v10.908h7.128v7.398
		h-7.128v1.566c2.052,2.538,6.048,8.046,6.966,9.45L226.67,114.967z M260.205,104.978h-6.427v25.758h-7.775v-25.758h-5.616
		c-0.271,8.37-1.62,18.846-6.21,25.65c-1.404-1.188-4.698-3.186-6.534-3.888c5.021-7.236,5.399-17.875,5.399-25.597v-15.66
		c6.534-1.242,13.393-3.24,17.82-5.454l6.589,6.21c-5.076,2.16-11.179,3.726-17.011,4.86v6.48h19.765V104.978z"/>
</g>
<g>
	<path d="M117.09,177.464c0.399,0,0.609,0.378,0.609,0.819c0,0.44-0.21,0.797-0.609,0.797H99.202c-0.378,0-0.609-0.356-0.609-0.797
		c0-0.441,0.231-0.819,0.609-0.819h9.595c1.512-3.087,2.729-6.677,3.401-9.658c0.105-0.378,0.42-0.567,0.798-0.567
		c0.105,0,0.21,0.021,0.315,0.043c0.441,0.104,0.693,0.398,0.693,0.756c0,0.084-0.021,0.168-0.042,0.23
		c-0.798,2.939-2.016,6.341-3.401,9.196H117.09z M116.376,164.362c0.378,0,0.588,0.378,0.588,0.798s-0.21,0.798-0.588,0.798H99.874
		c-0.378,0-0.588-0.356-0.588-0.798c0-0.42,0.21-0.798,0.588-0.798h7.244v-2.729c0-0.398,0.378-0.63,0.861-0.63
		c0.504,0,0.84,0.231,0.84,0.63v2.729H116.376z M103.296,167.238c0.315,0,0.567,0.168,0.693,0.483
		c0.882,2.204,1.533,4.745,1.995,7.223c0.021,0.063,0.021,0.147,0.021,0.21c0,0.398-0.273,0.693-0.714,0.798
		c-0.084,0.021-0.189,0.021-0.273,0.021c-0.357,0-0.651-0.188-0.735-0.629c-0.462-2.436-1.134-4.977-1.911-7.034
		c-0.042-0.104-0.063-0.21-0.063-0.315c0-0.314,0.21-0.566,0.567-0.672C103.023,167.26,103.17,167.238,103.296,167.238z"/>
	<path d="M122.425,176.834c1.491-0.336,2.96-0.714,4.388-1.238c-0.42-0.715-0.84-1.407-1.26-2.016
		c-0.063-0.105-0.084-0.211-0.084-0.315c0-0.231,0.147-0.462,0.399-0.588c0.168-0.063,0.294-0.104,0.42-0.104
		c0.252,0,0.441,0.125,0.567,0.336c1.008,1.385,2.079,3.17,2.813,4.766c0.063,0.146,0.105,0.294,0.105,0.42
		c0,0.252-0.147,0.482-0.441,0.609c-0.147,0.084-0.315,0.125-0.483,0.125c-0.252,0-0.504-0.125-0.609-0.42
		c-0.21-0.482-0.462-1.008-0.735-1.532c-2.289,0.84-4.934,1.554-7.055,1.995c-0.063,0.021-0.147,0.021-0.21,0.021
		c-0.336,0-0.588-0.21-0.693-0.651c-0.021-0.084-0.021-0.168-0.021-0.23c0-0.398,0.21-0.65,0.525-0.714
		c0.252-0.042,0.525-0.084,0.798-0.126v-14.004c0-1.197,0.63-1.701,1.869-1.701h4.556c1.239,0,1.869,0.504,1.869,1.701v6.76
		c0,1.176-0.672,1.701-1.89,1.701h-4.829V176.834z M127.59,165.686v-2.268c0-0.379-0.189-0.525-0.651-0.525h-3.842
		c-0.462,0-0.672,0.168-0.672,0.525v2.268H127.59z M126.939,170.199c0.462,0,0.651-0.146,0.651-0.525v-2.54h-5.165v3.065H126.939z
		 M131.034,163.291c0-1.28,0.588-1.826,1.89-1.826h3.632c1.302,0,1.89,0.588,1.89,1.826v11.717c0,1.49-0.819,2.016-2.394,2.016
		c-0.588,0-1.239-0.063-1.764-0.189c-0.357-0.062-0.525-0.314-0.525-0.693c0-0.084,0-0.168,0.021-0.252
		c0.063-0.44,0.294-0.629,0.588-0.629c0.063,0,0.105,0,0.168,0.021c0.42,0.084,0.861,0.168,1.302,0.168
		c0.798,0,1.008-0.147,1.008-0.882v-11.002c0-0.441-0.252-0.588-0.651-0.588h-2.876c-0.462,0-0.651,0.168-0.651,0.609v16.02
		c0,0.398-0.336,0.63-0.84,0.63c-0.483,0-0.798-0.231-0.798-0.63V163.291z"/>
	<path d="M144.281,176.219c0.625,1,2.57,1.581,3.893,1.77c0.967,0.147,2.247,0.231,3.885,0.231c2.604,0,5.312-0.104,7.453-0.272
		c0.043,0,0.084,0,0.127,0c0.482,0,0.692,0.252,0.713,0.756c0,0.041,0,0.084,0,0.104c0,0.44-0.252,0.735-0.776,0.756
		c-2.142,0.104-5.123,0.168-7.643,0.168c-1.764,0-3.317-0.084-4.347-0.315c-1.532-0.336-3.096-0.833-4.003-1.833
		c-0.735,0.924-0.869,1.286-1.75,1.917c-0.127,0.104-0.252,0.146-0.399,0.146c-0.21,0-0.503-0.062-0.692-0.314
		c-0.147-0.168-0.21-0.336-0.21-0.524c0-0.231,0.126-0.462,0.336-0.63c0.714-0.525,1.601-1.584,1.976-2.365s0.81-2.248,0.81-2.248
		c0-0.42-0.126-0.525-0.524-0.525h-1.348c-0.378,0-0.63-0.23-0.63-0.713c0-0.483,0.252-0.735,0.63-0.735h1.915
		c1.092,0,1.561,0.617,1.533,1.659c-0.01,0.385-0.229,0.917-0.438,1.583C144.583,175.5,144.281,176.219,144.281,176.219z
		 M144.769,163.976c0.126,0.188,0.189,0.356,0.189,0.524c0,0.231-0.105,0.44-0.315,0.608c-0.188,0.147-0.399,0.231-0.608,0.231
		c-0.211,0-0.42-0.084-0.567-0.315c-0.735-1.07-1.109-1.544-2.012-2.405c-0.125-0.146-0.209-0.293-0.209-0.461
		s0.104-0.379,0.293-0.547c0.211-0.168,0.399-0.252,0.609-0.252c0.168,0,0.336,0.063,0.462,0.189
		C143.576,162.41,144.097,162.968,144.769,163.976z M154.368,169.989v-0.987c0-0.356,0.294-0.545,0.735-0.545
		c0.44,0,0.734,0.188,0.734,0.545v0.987h2.75c0.315,0,0.504,0.294,0.504,0.63c0,0.357-0.188,0.65-0.504,0.65h-2.75v1.743h3.465
		c0.336,0,0.524,0.294,0.524,0.63c0,0.357-0.188,0.65-0.524,0.65H146.5c-0.315,0-0.504-0.293-0.504-0.65
		c0-0.336,0.188-0.63,0.504-0.63h2.977v-1.743h-2.373c-0.336,0-0.504-0.293-0.504-0.65c0-0.336,0.168-0.63,0.504-0.63h2.373v-0.987
		c0-0.356,0.293-0.545,0.713-0.545c0.463,0,0.756,0.188,0.756,0.545v0.987H154.368z M147.562,165.118l0.003,1.155
		c0,0.461,0.104,0.608,1.512,0.608c1.239,0,1.554-0.063,1.722-0.21c0.21-0.168,0.294-0.378,0.336-0.672
		c0.042-0.378,0.314-0.525,0.672-0.525c0.042,0,0.084,0,0.126,0c0.399,0.043,0.651,0.315,0.651,0.631c0,0.021,0,0.041,0,0.041
		c-0.043,0.567-0.273,1.092-0.525,1.365c-0.21,0.23-0.546,0.42-1.197,0.504c-0.44,0.042-1.028,0.062-1.805,0.062
		c-0.924,0-1.533-0.021-1.953-0.146c-0.714-0.189-0.902-0.609-0.902-1.406v-1.387c0-0.818,0.42-1.238,1.364-1.238h2.667
		c0.42,0,0.504-0.084,0.504-0.482v-0.399c0-0.399-0.043-0.524-0.547-0.524h-3.455c-0.336,0-0.525-0.252-0.525-0.631
		c0-0.398,0.189-0.629,0.525-0.629h3.938c1.071,0,1.407,0.377,1.407,1.428v1.176c0,1.049-0.441,1.28-1.449,1.28H147.562z
		 M151.492,175.385c0,0.168-0.084,0.357-0.252,0.483c-0.987,0.651-2.268,1.239-3.423,1.575c-0.104,0.021-0.188,0.041-0.272,0.041
		c-0.295,0-0.525-0.125-0.651-0.398c-0.063-0.105-0.084-0.21-0.084-0.314c0-0.273,0.188-0.504,0.483-0.588
		c0.986-0.252,2.225-0.799,3.086-1.344c0.126-0.063,0.252-0.105,0.398-0.105c0.189,0,0.379,0.062,0.525,0.23
		C151.429,175.092,151.492,175.238,151.492,175.385z M154.368,173.013v-1.743h-3.423v1.743H154.368z M154.688,165.118l-0.004,1.134
		c0,0.588,0.104,0.609,1.574,0.63c0.126,0,0.252,0,0.357,0c0.986,0,1.385-0.084,1.532-0.21c0.21-0.189,0.252-0.398,0.294-0.777
		c0.021-0.314,0.294-0.461,0.63-0.461c0.042,0,0.104,0,0.147,0c0.377,0.041,0.608,0.336,0.608,0.65c0,0.021,0,0.042,0,0.042
		c-0.042,0.588-0.21,1.134-0.462,1.323c-0.189,0.252-0.525,0.44-1.134,0.524c-0.44,0.084-1.155,0.126-1.974,0.126
		c-0.924,0-1.617-0.042-2.058-0.146c-0.714-0.168-0.903-0.567-0.903-1.407v-1.491c0-0.756,0.42-1.154,1.344-1.154h2.709
		c0.441,0,0.504-0.146,0.504-0.546v-0.336c0-0.399-0.042-0.524-0.546-0.524h-3.479c-0.315,0-0.524-0.252-0.524-0.631
		c0-0.398,0.209-0.629,0.524-0.629h4.004c1.051,0,1.407,0.377,1.407,1.428v1.176c0,1.049-0.44,1.28-1.47,1.28H154.688z
		 M157.812,177.506c-1.28-0.398-2.583-0.945-3.675-1.638c-0.188-0.126-0.293-0.272-0.293-0.462c0-0.168,0.084-0.336,0.23-0.482
		c0.168-0.147,0.357-0.211,0.525-0.211c0.146,0,0.293,0.043,0.44,0.127c1.071,0.65,2.478,1.196,3.695,1.553
		c0.252,0.043,0.42,0.273,0.42,0.525c0,0.084-0.021,0.146-0.042,0.23c-0.084,0.357-0.314,0.504-0.588,0.504
		c-0.084,0-0.168-0.021-0.273-0.041L157.812,177.506z"/>
	<path d="M167.314,164.846c0.378,0,0.588,0.293,0.588,0.713c0,0.441-0.21,0.735-0.588,0.735h-1.26v4.179
		c0.336-0.127,0.65-0.273,0.945-0.399c0.084-0.021,0.168-0.042,0.252-0.042c0.252,0,0.461,0.168,0.545,0.441
		c0.063,0.125,0.084,0.252,0.084,0.356c0,0.272-0.146,0.462-0.398,0.588c-0.42,0.21-0.924,0.42-1.428,0.608v6.258
		c0,1.301-0.672,1.826-1.91,1.826c-0.504,0-1.071-0.062-1.491-0.168c-0.294-0.042-0.483-0.273-0.483-0.63
		c0-0.104,0.021-0.188,0.043-0.294c0.041-0.398,0.293-0.566,0.545-0.566c0.043,0,0.084,0,0.127,0.021
		c0.272,0.063,0.672,0.126,1.008,0.126c0.482,0,0.629-0.084,0.629-0.63v-5.375c-0.588,0.21-1.154,0.378-1.68,0.524
		c-0.062,0.021-0.125,0.021-0.188,0.021c-0.315,0-0.567-0.168-0.672-0.588c-0.021-0.105-0.042-0.189-0.042-0.294
		c0-0.315,0.189-0.546,0.482-0.63c0.672-0.168,1.387-0.378,2.1-0.609v-4.724h-1.868c-0.378,0-0.588-0.294-0.588-0.735
		c0-0.42,0.21-0.713,0.588-0.713h1.868v-3.465c0-0.398,0.273-0.609,0.777-0.609s0.756,0.211,0.756,0.609v3.465H167.314z
		 M168.68,171.165c-0.357,0-0.547-0.252-0.547-0.608c0-0.379,0.189-0.651,0.547-0.651h5.164v-1.512h-4.367
		c-0.356,0-0.524-0.272-0.524-0.63s0.168-0.609,0.524-0.609h4.367v-1.26h-3.863c-1.008,0-1.49-0.398-1.49-1.344v-1.973
		c0-0.987,0.482-1.387,1.49-1.387h9.449c1.008,0,1.49,0.399,1.49,1.387v1.973c0,0.945-0.482,1.344-1.49,1.344h-4.115v1.26h4.556
		c0.356,0,0.524,0.252,0.524,0.609s-0.168,0.63-0.524,0.63h-4.556v1.512h5.543c0.356,0,0.545,0.272,0.545,0.651
		c0,0.356-0.188,0.608-0.545,0.608h-2.395c-0.252,0.692-0.566,1.364-0.881,2.016h3.023c0.377,0,0.566,0.231,0.566,0.608
		c0,0.379-0.189,0.651-0.566,0.651h-5.271v1.722h4.599c0.377,0,0.545,0.23,0.545,0.63c0,0.378-0.168,0.63-0.545,0.63h-4.599v2.289
		c0,0.377-0.272,0.588-0.756,0.588c-0.462,0-0.756-0.211-0.756-0.588v-2.289h-4.703c-0.378,0-0.567-0.252-0.567-0.63
		c0-0.399,0.189-0.63,0.567-0.63h4.703v-1.722h-5.165c-0.378,0-0.546-0.272-0.546-0.651c0-0.377,0.168-0.608,0.546-0.608h3.065
		c-0.188-0.588-0.44-1.134-0.672-1.7c-0.063-0.105-0.104-0.211-0.147-0.315H168.68z M170.4,162.41c-0.336,0-0.524,0.084-0.524,0.44
		v1.428c0,0.336,0.188,0.44,0.524,0.44h1.827v-2.309H170.4z M172.416,171.165c0.295,0.651,0.547,1.323,0.756,2.016h2.877
		c0.314-0.651,0.63-1.323,0.861-2.016H172.416z M173.487,162.41v2.309h2.372v-2.309H173.487z M179.01,164.719
		c0.336,0,0.504-0.104,0.504-0.44v-1.428c0-0.356-0.168-0.44-0.504-0.44h-1.891v2.309H179.01z"/>
	<path d="M122.174,196.407c0-0.924,0.084-1.952,0.189-2.919c-0.399,0.735-0.882,1.471-1.407,2.059
		c-0.21,0.23-0.462,0.377-0.735,0.377c-0.168,0-0.315-0.062-0.483-0.168c-0.189-0.168-0.294-0.377-0.294-0.629
		c0-0.189,0.063-0.399,0.21-0.567c1.869-2.1,3.506-5.06,4.388-8.062c0.105-0.336,0.357-0.504,0.693-0.504
		c0.105,0,0.231,0.021,0.357,0.063c0.378,0.084,0.609,0.356,0.609,0.672c0,0.084-0.021,0.168-0.042,0.252
		c-0.462,1.364-1.092,2.771-1.848,4.199v13.521c0,0.398-0.336,0.608-0.84,0.608c-0.462,0-0.798-0.21-0.798-0.608V196.407z
		 M138.761,194.916c0.357,0,0.609,0.295,0.609,0.756c0,0.441-0.252,0.777-0.609,0.777h-6.005v6.361h5.354
		c0.357,0,0.588,0.315,0.588,0.756c0,0.441-0.231,0.756-0.588,0.756h-11.884c-0.378,0-0.609-0.314-0.609-0.756
		c0-0.42,0.231-0.756,0.609-0.756h4.892v-6.361h-5.711c-0.357,0-0.609-0.336-0.609-0.777c0-0.44,0.252-0.756,0.609-0.756h5.711
		v-4.828c-1.47,0.356-2.981,0.65-4.472,0.86c-0.063,0.021-0.126,0.021-0.189,0.021c-0.42,0-0.672-0.252-0.735-0.692
		c0-0.042,0-0.063,0-0.104c0-0.441,0.252-0.735,0.693-0.777c3.695-0.462,7.37-1.428,10.183-2.813
		c0.189-0.084,0.378-0.126,0.546-0.126c0.294,0,0.546,0.126,0.714,0.441c0.084,0.146,0.126,0.293,0.126,0.44
		c0,0.294-0.168,0.567-0.504,0.714c-1.407,0.609-3.023,1.154-4.724,1.617v5.248H138.761z"/>
	<path d="M146.441,203.63c0,1.071-0.63,1.659-2.016,1.659c-0.65,0-1.322-0.043-1.722-0.147c-0.356-0.084-0.567-0.315-0.567-0.672
		c0-0.084,0.021-0.168,0.043-0.252c0.084-0.378,0.272-0.567,0.588-0.567c0.062,0,0.125,0,0.188,0.021
		c0.336,0.084,0.819,0.168,1.196,0.168c0.631,0,0.799-0.146,0.799-0.693l-0.021-4.912c0-0.588,0.042-1.323,0.105-2.059
		c-0.84,2.143-1.891,3.885-3.191,5.375c-0.147,0.168-0.357,0.252-0.567,0.252c-0.188,0-0.399-0.084-0.567-0.252
		c-0.147-0.168-0.231-0.356-0.231-0.566c0-0.168,0.063-0.336,0.21-0.504c1.532-1.596,2.876-3.633,3.821-6.215h-3.233
		c-0.357,0-0.588-0.294-0.588-0.714c0-0.44,0.231-0.692,0.588-0.692h4.263c-0.105-0.043-0.211-0.105-0.295-0.211
		c-0.65-0.776-1.574-1.658-2.52-2.393c-0.146-0.105-0.209-0.252-0.209-0.42c0-0.147,0.084-0.336,0.252-0.483s0.356-0.21,0.545-0.21
		c0.189,0,0.357,0.062,0.504,0.168c0.463,0.357,0.924,0.756,1.344,1.154c0.945-0.629,1.701-1.238,2.268-1.91
		c0.063-0.084,0.105-0.168,0.105-0.252c0-0.126-0.126-0.21-0.357-0.21h-5.396c-0.378,0-0.608-0.272-0.608-0.714
		c0-0.42,0.23-0.693,0.588-0.693h6.361c0.777,0,1.302,0.504,1.302,1.155c0,0.294-0.104,0.608-0.356,0.924
		c-0.777,0.987-1.785,1.868-2.961,2.646c0.084,0.084,0.168,0.168,0.252,0.252c0.126,0.126,0.189,0.273,0.189,0.441
		c0,0.23-0.127,0.461-0.315,0.608c-0.084,0.063-0.168,0.126-0.272,0.147h2.456c0.84,0,1.364,0.42,1.364,1.133
		c0,0.211-0.041,0.441-0.146,0.693c-0.357,0.902-0.84,1.869-1.365,2.604c-0.168,0.23-0.377,0.336-0.588,0.336
		c-0.168,0-0.314-0.062-0.461-0.146c-0.189-0.147-0.295-0.315-0.295-0.504c0-0.147,0.063-0.295,0.168-0.441
		c0.42-0.525,0.819-1.218,1.051-1.826c0.021-0.084,0.041-0.147,0.041-0.211c0-0.146-0.104-0.23-0.356-0.23h-1.47L146.441,203.63z
		 M149.087,199.011c-0.378,0-0.608-0.294-0.608-0.714c0-0.441,0.23-0.714,0.608-0.714h3.695c0.104-0.504,0.168-1.05,0.231-1.616
		c0.041-0.399,0.293-0.609,0.756-0.609c0.021,0,0.041,0,0.062,0c0.462,0.021,0.756,0.252,0.756,0.63c0,0.042,0,0.063,0,0.084
		c-0.062,0.524-0.146,1.028-0.23,1.512h3.316c1.092,0,1.639,0.524,1.639,1.554c0,0.021,0,0.062,0,0.105
		c-0.084,1.574-0.336,3.212-0.84,4.472c-0.379,0.987-1.029,1.386-2.499,1.386c-0.692,0-1.323-0.042-1.868-0.21
		c-0.295-0.063-0.547-0.294-0.547-0.672c0-0.063,0-0.147,0.021-0.231c0.084-0.377,0.357-0.566,0.63-0.566
		c0.063,0,0.126,0,0.188,0.021c0.42,0.125,0.924,0.209,1.365,0.209c0.861,0,1.113-0.125,1.365-0.734
		c0.314-0.861,0.545-2.184,0.588-3.338c0-0.021,0-0.043,0-0.063c0-0.399-0.168-0.504-0.609-0.504h-3.086
		c-0.883,2.981-2.562,4.851-5.522,6.173c-0.147,0.062-0.272,0.084-0.399,0.084c-0.293,0-0.545-0.146-0.692-0.482
		c-0.063-0.127-0.084-0.252-0.084-0.357c0-0.294,0.168-0.546,0.44-0.65c2.499-1.029,3.906-2.436,4.662-4.767H149.087z
		 M158.305,189.332c-0.547,1.344-1.303,2.561-2.311,3.611c1.135,0.713,2.415,1.26,3.885,1.721c0.357,0.084,0.546,0.357,0.546,0.693
		c0,0.084-0.021,0.168-0.042,0.273c-0.105,0.356-0.357,0.588-0.693,0.588c-0.084,0-0.168-0.021-0.252-0.043
		c-1.68-0.545-3.232-1.301-4.535-2.246c-1.217,0.966-2.604,1.701-4.136,2.205c-0.126,0.041-0.231,0.062-0.315,0.062
		c-0.314,0-0.524-0.189-0.629-0.525c-0.021-0.084-0.043-0.188-0.043-0.272c0-0.294,0.147-0.524,0.463-0.63
		c1.322-0.462,2.498-1.05,3.506-1.764c-0.882-0.777-1.617-1.68-2.205-2.666c-0.44,0.629-0.902,1.217-1.385,1.68
		c-0.189,0.188-0.379,0.272-0.567,0.272s-0.378-0.084-0.546-0.252c-0.168-0.147-0.252-0.336-0.252-0.524
		c0-0.168,0.062-0.336,0.21-0.483c1.47-1.386,2.54-3.171,3.023-4.787c0.084-0.294,0.336-0.42,0.63-0.42
		c0.126,0,0.23,0.021,0.357,0.042c0.336,0.084,0.524,0.314,0.524,0.566c0,0.063-0.021,0.127-0.042,0.189
		c-0.126,0.398-0.314,0.84-0.546,1.302h6.593c0.314,0,0.546,0.294,0.546,0.692c0,0.42-0.231,0.715-0.546,0.715H158.305z
		 M152.446,189.332c0.63,1.028,1.428,2.016,2.394,2.771c0.818-0.777,1.47-1.743,1.91-2.771H152.446z"/>
	<path d="M141.688,171.307c0.801-0.534,1.382-1.747,1.949-2.419c0.063-0.084,0.105-0.168,0.105-0.252c0-0.126-0.126-0.21-0.357-0.21
		h-2.009c-0.378,0-0.608-0.272-0.608-0.714c0-0.42,0.23-0.693,0.588-0.693h2.975c0.777,0,1.302,0.504,1.302,1.155
		c0,0.294-0.104,0.608-0.356,0.924c-0.777,0.987-2.165,2.871-3.087,3.319c0,0-0.812,0.203-0.984-0.047
		S141.359,171.526,141.688,171.307z"/>
	<rect x="146.208" y="161.891" width="1.396" height="3.214"/>
	<rect x="153.302" y="161.828" width="1.396" height="3.276"/>
</g>
<g>
	<rect x="8.982" y="66.276" width="262.035" height="2"/>
</g>
<g>
	<rect x="8.982" y="144.339" width="262.035" height="2"/>
</g>
<g>
	<path d="M140,273.203c-1.657,0-3-1.343-3-3v-52.938c0-1.657,1.343-3,3-3c1.657,0,3,1.343,3,3v52.938
		C143,271.86,141.657,273.203,140,273.203z"/>
</g>
<g>
	<path d="M140,273.382c-0.796,0-1.559-0.316-2.122-0.879l-26.647-26.648c-1.171-1.172-1.171-3.071,0-4.242
		c1.171-1.173,3.071-1.171,4.243,0L140,266.139l24.526-24.526c1.172-1.172,3.07-1.172,4.242,0c1.172,1.171,1.172,3.07,0,4.242
		l-26.647,26.648C141.559,273.065,140.796,273.382,140,273.382z"/>
</g>
</svg>
