<?xml version="1.0" encoding="utf-8"?>
<!-- Generator: Adobe Illustrator 17.0.0, SVG Export Plug-In . SVG Version: 6.00 Build 0)  -->
<!DOCTYPE svg PUBLIC "-//W3C//DTD SVG 1.1//EN" "http://www.w3.org/Graphics/SVG/1.1/DTD/svg11.dtd">
<svg version="1.1" xmlns="http://www.w3.org/2000/svg" xmlns:xlink="http://www.w3.org/1999/xlink" x="0px" y="0px" width="32px"
	 height="32px" viewBox="0 0 32 32" enable-background="new 0 0 32 32" xml:space="preserve">
<g id="Layer_1">
	<g>
		<path fill="#666666" d="M16,28.75C8.97,28.75,3.25,23.03,3.25,16S8.97,3.25,16,3.25S28.75,8.97,28.75,16S23.03,28.75,16,28.75z
			 M16,5.25C10.072,5.25,5.25,10.072,5.25,16S10.072,26.75,16,26.75S26.75,21.928,26.75,16S21.928,5.25,16,5.25z"/>
	</g>
	<g>
		<path fill="#666666" d="M21.646,15.458c-1.517,0-2.75-1.233-2.75-2.75s1.233-2.75,2.75-2.75s2.75,1.233,2.75,2.75
			S23.162,15.458,21.646,15.458z M21.646,11.958c-0.413,0-0.75,0.337-0.75,0.75s0.337,0.75,0.75,0.75s0.75-0.337,0.75-0.75
			S22.059,11.958,21.646,11.958z"/>
	</g>
	<g>
		<path fill="#666666" d="M16,11.917c-1.517,0-2.75-1.233-2.75-2.75s1.233-2.75,2.75-2.75s2.75,1.233,2.75,2.75
			S17.517,11.917,16,11.917z M16,8.417c-0.413,0-0.75,0.337-0.75,0.75s0.337,0.75,0.75,0.75s0.75-0.337,0.75-0.75
			S16.413,8.417,16,8.417z"/>
	</g>
	<g>
		<path fill="#666666" d="M10.125,15.458c-1.517,0-2.75-1.233-2.75-2.75s1.233-2.75,2.75-2.75s2.75,1.233,2.75,2.75
			S11.642,15.458,10.125,15.458z M10.125,11.958c-0.413,0-0.75,0.337-0.75,0.75s0.337,0.75,0.75,0.75s0.75-0.337,0.75-0.75
			S10.538,11.958,10.125,11.958z"/>
	</g>
	<g>
		<path fill="#666666" d="M10.208,22.25c-1.517,0-2.75-1.233-2.75-2.75s1.233-2.75,2.75-2.75s2.75,1.233,2.75,2.75
			S11.725,22.25,10.208,22.25z M10.208,18.75c-0.413,0-0.75,0.337-0.75,0.75s0.337,0.75,0.75,0.75s0.75-0.337,0.75-0.75
			S10.621,18.75,10.208,18.75z"/>
	</g>
	<g>
		<path fill="#666666" d="M21.646,22.25c-1.517,0-2.75-1.233-2.75-2.75s1.233-2.75,2.75-2.75s2.75,1.233,2.75,2.75
			S23.162,22.25,21.646,22.25z M21.646,18.75c-0.413,0-0.75,0.337-0.75,0.75s0.337,0.75,0.75,0.75s0.75-0.337,0.75-0.75
			S22.059,18.75,21.646,18.75z"/>
	</g>
	<g>
		<path fill="#666666" d="M16,25.729c-1.517,0-2.75-1.233-2.75-2.75s1.233-2.75,2.75-2.75s2.75,1.233,2.75,2.75
			S17.517,25.729,16,25.729z M16,22.229c-0.413,0-0.75,0.337-0.75,0.75s0.337,0.75,0.75,0.75s0.75-0.337,0.75-0.75
			S16.413,22.229,16,22.229z"/>
	</g>
</g>
<g id="Layer_2" display="none">
</g>
</svg>
