<?xml version="1.0" encoding="utf-8"?>
<!-- Generator: Adobe Illustrator 17.0.0, SVG Export Plug-In . SVG Version: 6.00 Build 0)  -->
<!DOCTYPE svg PUBLIC "-//W3C//DTD SVG 1.1//EN" "http://www.w3.org/Graphics/SVG/1.1/DTD/svg11.dtd">
<svg version="1.1" id="Layer_1" xmlns="http://www.w3.org/2000/svg" xmlns:xlink="http://www.w3.org/1999/xlink" x="0px" y="0px"
	 width="230px" height="178.086px" viewBox="0 0 230 178.086" enable-background="new 0 0 230 178.086" xml:space="preserve">
<g>
	<rect x="14" y="87.086" fill="#00FFB0" width="25" height="25"/>
</g>
<g>
	<rect x="1" y="128.086" fill="#00FFB0" width="50" height="50"/>
</g>
<g>
	<rect x="21" y="62.086" fill="#00FFB0" width="10" height="10"/>
</g>
<g>
	<rect x="75" y="87.086" fill="#FFF800" width="25" height="25"/>
</g>
<g>
	<rect x="62" y="128.086" fill="#FFF800" width="50" height="50"/>
</g>
<g>
	<rect x="82" y="62.086" fill="#FFF800" width="10" height="10"/>
</g>
<g>
	<rect x="136" y="87.086" fill="#FF0055" width="25" height="25"/>
</g>
<g>
	<rect x="123" y="128.086" fill="#FF0055" width="50" height="50"/>
</g>
<g>
	<rect x="143" y="62.086" fill="#FF0055" width="10" height="10"/>
</g>
<g>
	<rect x="204" y="62.086" fill="#808080" width="10" height="10"/>
</g>
<g>
	<path d="M20.417,39.288v1.571h4.713v0.84h-4.713v1.835h3.226v0.768c-0.671,1.343-1.643,2.494-2.914,3.454
		c0.6,0.336,1.259,0.659,1.979,0.947c0.852,0.324,1.763,0.6,2.735,0.84l-0.504,0.755c-1.031-0.275-2.015-0.6-2.938-0.983
		c-0.744-0.323-1.403-0.671-2.003-1.055c-1.367,0.863-2.998,1.547-4.905,2.062L14.6,49.554c1.823-0.432,3.382-1.031,4.666-1.799
		c-0.624-0.479-1.175-1.008-1.631-1.596c-0.443-0.552-0.755-1.163-0.935-1.822h-0.924v-0.804h3.754v-1.835h-4.666v-0.84h4.666
		v-1.571H20.417z M22.671,44.337H17.55c0.216,0.647,0.552,1.211,1.008,1.703c0.408,0.468,0.887,0.887,1.427,1.247
		C21.148,46.472,22.047,45.489,22.671,44.337z"/>
	<path d="M26.947,50.178l-0.18-0.828c0.324,0.036,0.636,0.061,0.936,0.061c0.324,0,0.492-0.181,0.492-0.54v-2.843
		c-0.456,0.168-0.923,0.336-1.403,0.48l-0.216-0.864c0.552-0.132,1.091-0.287,1.619-0.479v-2.746h-1.487V41.59h1.487v-2.146h0.839
		v2.146h1.248v0.828h-1.248v2.422c0.432-0.191,0.852-0.396,1.271-0.611v0.876c-0.42,0.216-0.839,0.407-1.271,0.587v3.395
		c0,0.72-0.348,1.092-1.031,1.092H26.947z M35.019,45.105v-0.924h0.839v0.924h1.463v0.803h-1.463v3.263
		c0,0.684-0.348,1.031-1.031,1.031h-1.559L33.1,49.386c0.504,0.036,0.983,0.06,1.439,0.06c0.312,0,0.48-0.168,0.48-0.479v-3.059
		h-4.45v-0.803H35.019z M34.312,39.324v1.235h2.842v0.804h-2.842v1.403h2.519v0.791h-5.781v-0.791h2.422v-1.403h-2.854v-0.804h2.854
		v-1.235H34.312z M33.256,48.403l-0.684,0.479c-0.36-0.6-0.839-1.259-1.451-1.99l0.696-0.42
		C32.44,47.204,32.92,47.851,33.256,48.403z"/>
</g>
<g>
	<path d="M78.022,50.25h-0.815v-6.057c-0.372,1.164-0.852,2.219-1.452,3.167l-0.372-0.936c0.839-1.176,1.427-2.495,1.787-3.982
		h-1.355v-0.779h1.392v-2.327h0.815v2.327h1.307v0.779h-1.307v0.792c0.516,0.623,1.043,1.343,1.571,2.135l-0.456,0.684
		c-0.432-0.792-0.804-1.428-1.115-1.907V50.25z M85.566,42.322v3.635h-2.459C83.06,46.28,83,46.58,82.928,46.868h3.442v0.792h-3.73
		c-0.168,0.359-0.36,0.684-0.6,0.971c-0.552,0.684-1.511,1.224-2.902,1.607l-0.3-0.708c1.199-0.335,2.063-0.791,2.591-1.391
		c0.132-0.156,0.251-0.312,0.348-0.479h-2.818v-0.792h3.178c0.096-0.288,0.168-0.6,0.216-0.911h-2.531v-3.635H85.566z
		 M80.805,40.284v-0.984h0.78v0.984h0.947v0.707h-0.947v0.936h-0.78v-0.936h-1.727v-0.707H80.805z M84.787,43.822v-0.804h-4.186
		v0.804H84.787z M84.787,44.469h-4.186v0.815h4.186V44.469z M84.583,39.299v0.984h1.739v0.707h-1.739v0.936h-0.779v-0.936h-0.948
		v-0.707h0.948v-0.984H84.583z M86.538,49.686l-0.432,0.66c-1.007-0.684-2.051-1.224-3.118-1.607l0.419-0.624
		C84.547,48.546,85.59,49.075,86.538,49.686z"/>
	<path d="M88.631,45.321c-0.144,1.211-0.335,2.278-0.563,3.202l-0.636-0.229c0.228-0.815,0.42-1.858,0.588-3.13L88.631,45.321z
		 M88.643,42.766l-0.576,0.144c-0.12-0.84-0.276-1.643-0.456-2.41l0.563-0.181C88.343,41.027,88.499,41.842,88.643,42.766z
		 M89.087,43.557v-4.222h0.768v4.222h1.199v0.756h-1.199v5.937h-0.768v-5.937h-1.259v-0.756H89.087z M91.198,40.223
		c-0.06,0.96-0.216,1.823-0.468,2.591l-0.504-0.168c0.228-0.72,0.372-1.56,0.42-2.495L91.198,40.223z M91.306,48.247l-0.636,0.168
		c-0.108-1.104-0.24-2.171-0.408-3.202l0.563-0.18C91.006,45.968,91.162,47.047,91.306,48.247z M94.376,48.846h-2.195v0.72h-0.696
		v-4.749h1.067v-2.339h-1.247v-0.756h1.247v-2.087h0.792v2.087h1.259v0.756h-1.259v2.339h1.031V48.846z M93.668,48.151v-2.639
		h-1.487v2.639H93.668z M94.808,50.286l-0.611-0.552c0.54-1.104,0.815-2.494,0.827-4.186v-5.805h3.059v9.618
		c0,0.576-0.3,0.876-0.899,0.876h-0.816l-0.192-0.72c0.276,0.024,0.528,0.036,0.768,0.036c0.24,0,0.372-0.156,0.372-0.468v-2.902
		c-0.492,0.144-1.02,0.275-1.583,0.384C95.635,48.055,95.323,49.302,94.808,50.286z M95.779,45.5c0,0.096-0.012,0.191-0.012,0.288
		c0.576-0.108,1.091-0.229,1.547-0.36v-1.787c-0.504-0.144-1.02-0.252-1.535-0.336V45.5z M97.314,40.5h-1.535v2.087
		c0.527,0.084,1.031,0.191,1.535,0.335V40.5z"/>
</g>
<g>
	<path d="M138.999,43.833c-0.096,2.662-0.708,4.81-1.859,6.44l-0.671-0.6c1.08-1.464,1.631-3.502,1.679-6.104v-3.767h8.779v0.84
		h-7.916v2.375h7.172v0.768c-0.432,1.511-1.224,2.807-2.375,3.886c0.983,0.731,2.183,1.367,3.61,1.919l-0.468,0.756
		c-1.511-0.624-2.759-1.332-3.766-2.136c-1.104,0.864-2.447,1.584-4.03,2.159l-0.48-0.731c1.535-0.54,2.819-1.199,3.85-1.991
		c-1.199-1.115-2.003-2.387-2.411-3.813H138.999z M145.319,43.833h-4.39c0.384,1.247,1.116,2.339,2.207,3.298
		C144.167,46.172,144.887,45.081,145.319,43.833z"/>
	<path d="M150.015,41.602l-0.647,0.288c-0.264-0.707-0.54-1.331-0.839-1.883l0.684-0.216
		C149.523,40.343,149.787,40.955,150.015,41.602z M151.178,39.324v2.975h0.923v-2.975h0.792v2.975h1.499v0.815h-0.852l-0.504,1.511
		h1.248v0.756h-2.219v1.308h1.991v0.755h-1.991v1.523c0.875-0.084,1.655-0.18,2.327-0.3v0.779c-1.248,0.217-3.106,0.396-5.577,0.528
		l-0.12-0.804c0.911-0.036,1.751-0.084,2.519-0.132v-1.596h-1.991v-0.755h1.991V45.38h-2.291v-0.756h1.259l-0.408-1.511h-1.103
		v-0.815h1.727v-2.975H151.178z M152.246,44.625l0.504-1.511h-2.183l0.396,1.511H152.246z M154.729,39.912
		c-0.216,0.743-0.492,1.391-0.816,1.967l-0.684-0.252c0.288-0.504,0.552-1.14,0.768-1.907L154.729,39.912z M156.719,46.772
		l-0.731,0.336c-0.396-1.104-0.828-2.087-1.308-2.927l0.744-0.24C155.916,44.829,156.348,45.764,156.719,46.772z M157.499,41.758
		v-2.471h0.839v2.471h1.104v0.84h-1.104v6.584c0,0.708-0.36,1.067-1.067,1.067h-1.511l-0.18-0.827
		c0.492,0.036,0.959,0.06,1.403,0.06c0.336,0,0.516-0.18,0.516-0.516v-6.368H154.8v-0.84H157.499z"/>
</g>
<g>
	<path d="M197.44,39.335v1.644h4.114v0.84h-4.114v2.122h4.75v0.84h-3.958c0.804,1.511,2.195,2.854,4.162,4.042l-0.6,0.768
		c-2.039-1.439-3.466-3.034-4.257-4.81h-0.096v5.469h-0.888v-5.469h-0.108c-0.863,1.967-2.314,3.574-4.354,4.846l-0.492-0.804
		c1.919-1.056,3.31-2.398,4.174-4.042h-3.97v-0.84h4.749v-2.122h-4.03v-0.84h4.03v-1.644H197.44z"/>
	<path d="M208.553,40.332v-1.02h0.888v1.02h4.33v0.791h-4.33v1.14h3.634v0.792h-3.634v1.163h4.629v0.779h-5.493
		c-0.42,0.6-0.959,1.14-1.607,1.644v2.578c0.899-0.275,1.787-0.6,2.675-0.983l0.168,0.804c-1.2,0.504-2.411,0.911-3.658,1.224
		l-0.288-0.744c0.168-0.072,0.252-0.18,0.252-0.323v-1.979c-0.647,0.384-1.367,0.744-2.171,1.079l-0.468-0.755
		c1.919-0.672,3.311-1.512,4.198-2.543h-3.754v-0.779h4.629v-1.163h-3.634v-0.792h3.634v-1.14h-4.33v-0.791H208.553z
		 M213.578,46.196c-0.636,0.647-1.355,1.14-2.147,1.476c0.792,0.815,1.811,1.439,3.035,1.847l-0.516,0.744
		c-2.147-0.78-3.67-2.219-4.57-4.33l0.66-0.372c0.24,0.576,0.54,1.104,0.899,1.56c0.72-0.312,1.403-0.815,2.051-1.512
		L213.578,46.196z"/>
	<path d="M217.615,47.36c-0.288,1.103-0.672,2.062-1.175,2.866l-0.72-0.444c0.503-0.779,0.863-1.643,1.104-2.59L217.615,47.36z
		 M220.613,45.908c0,0.588-0.336,0.888-0.996,0.888h-0.995l-0.204-0.707c0.359,0.023,0.684,0.036,0.983,0.036
		c0.288,0,0.444-0.168,0.444-0.48v-0.527c-0.768,0.24-1.619,0.468-2.567,0.684l-0.18-0.624c0.995-0.216,1.907-0.443,2.747-0.707
		v-1.644h-2.735v0.528c0.768,0.096,1.511,0.228,2.207,0.396l-0.228,0.563c-0.648-0.156-1.308-0.275-1.979-0.372
		c-0.024,1.26-0.264,2.279-0.708,3.07l-0.612-0.552c0.36-0.684,0.552-1.547,0.564-2.603V42.13h4.258V45.908z M221.248,41.47
		l-0.611,0.433c-0.119-0.192-0.252-0.372-0.396-0.564c-0.888,0.097-2.279,0.181-4.15,0.252l-0.096-0.623
		c0.24-0.036,0.492-0.168,0.731-0.396c0.348-0.359,0.708-0.815,1.08-1.379l0.743,0.275c-0.443,0.6-0.875,1.092-1.283,1.451
		c0.899-0.048,1.739-0.084,2.53-0.132c-0.203-0.239-0.42-0.479-0.635-0.72l0.588-0.371C220.396,40.368,220.9,40.967,221.248,41.47z
		 M219.426,50.238c-0.648,0-0.972-0.324-0.972-0.947v-2.135h0.827v1.967c0,0.239,0.12,0.359,0.385,0.359h2.854
		c0.252,0,0.432-0.06,0.54-0.18c0.144-0.144,0.239-0.588,0.288-1.319l0.779,0.252c-0.084,0.947-0.24,1.523-0.479,1.739
		c-0.204,0.168-0.528,0.264-0.972,0.264H219.426z M222.279,48.462l-0.646,0.456c-0.336-0.563-0.792-1.188-1.367-1.871l0.623-0.384
		C221.488,47.347,221.956,47.947,222.279,48.462z M222.447,39.312v0.911l3.467-0.204v0.708l-3.467,0.191v0.78
		c0,0.228,0.121,0.348,0.36,0.348h3.322v0.743h-3.538c-0.623,0-0.936-0.312-0.936-0.911v-2.566H222.447z M225.902,44.457
		l-3.431,0.192v0.863c0,0.276,0.132,0.42,0.408,0.42h1.774c0.24,0,0.408-0.048,0.516-0.132c0.133-0.096,0.217-0.396,0.264-0.888
		l0.721,0.24c-0.072,0.695-0.229,1.127-0.444,1.295c-0.192,0.12-0.503,0.192-0.911,0.192h-2.146c-0.672,0-0.996-0.324-0.996-0.972
		v-2.482h0.815v0.755l3.431-0.191V44.457z M226.49,49.411l-0.672,0.479c-0.408-0.744-0.972-1.571-1.68-2.482l0.672-0.42
		C225.542,47.911,226.105,48.714,226.49,49.411z"/>
</g>
<g>
	<path d="M72.028,18.375c-0.378,0.378-0.63,0.882-0.714,1.28c-2.478,0-5.207-0.021-7.685-0.23c-1.113-0.105-2.1-0.252-2.981-0.672
		c-0.966-0.441-1.764-1.197-2.415-2.52c-0.882,1.406-2.246,2.771-3.611,3.758l-0.23-0.209c1.68-2.311,2.897-4.998,3.359-7.854h-0.42
		c-0.189,0.189-0.42,0.483-0.63,0.651c-0.063,0.042-0.231,0.084-0.294,0.042c-0.609-0.378-1.071-0.734-1.512-1.218
		c-0.084-0.063-0.042-0.252,0.042-0.294c0.252-0.146,0.524-0.336,0.692-0.588c0.693-1.154,1.239-2.268,1.785-3.465h-1.26
		c-0.273,0-0.672,0.043-0.966,0.168l-0.525-0.818h2.855c0.21-0.189,0.651-0.525,0.882-0.734c0.084-0.084,0.231-0.063,0.315,0
		c0.546,0.377,1.154,0.84,1.616,1.28c0.105,0.126,0.042,0.378-0.084,0.399c-0.336,0.062-0.734,0.356-0.86,0.629
		c-0.525,1.155-1.113,2.247-1.743,3.339h0.294c0.21-0.252,0.504-0.546,0.63-0.692c0.105-0.105,0.231-0.105,0.336-0.021
		c0.378,0.294,1.134,0.924,1.512,1.238c0.126,0.105,0.063,0.357-0.084,0.42c-0.188,0.084-0.42,0.211-0.482,0.42
		c-0.336,1.029-0.756,1.995-1.239,2.939c0.693,0.883,1.554,1.365,2.499,1.639c0.944,0.252,1.952,0.314,3.002,0.314
		c3.045,0.021,6.089,0.021,9.05-0.146v0.314C72.7,17.892,72.322,18.081,72.028,18.375z M58.465,5.21
		c-0.315,0.252-0.609,0.273-0.84,0.147c-0.252-0.126-0.42-0.44-0.525-0.798c-0.314-1.134-0.756-2.142-1.658-2.961l0.126-0.209
		c0.924,0.188,1.91,0.356,2.646,0.881c0.482,0.357,0.798,0.84,0.882,1.365C59.179,4.182,58.989,4.749,58.465,5.21z M72.49,9.368
		c-0.231,0.062-0.525,0.272-0.525,0.566v4.997c0,0.756-0.294,1.28-0.734,1.638c-0.483,0.357-1.155,0.525-1.848,0.609
		c0.042-0.483-0.147-0.861-0.441-1.155c-0.42-0.44-1.07-0.735-1.574-0.966v-0.273c0.546,0.043,1.596,0.105,2.078,0.105
		c0.189,0.021,0.441-0.189,0.441-0.42V9.073h-7.055v4.977c0,0.566,0.042,1.113,0.104,1.68c0.021,0.21-0.084,0.398-0.272,0.546
		c-0.462,0.378-1.428,0.608-1.785,0.63c-0.104,0.021-0.252-0.105-0.252-0.21c0.063-0.504,0.084-1.407,0.084-2.478V8.675
		c0-0.314-0.021-0.714-0.062-1.092c0.504,0.21,1.112,0.482,1.448,0.63V3.216c0-0.378-0.021-1.154-0.062-1.512
		c0.63,0.252,1.638,0.714,2.142,0.945h4.052c0.252-0.231,0.672-0.631,0.882-0.84c0.126-0.127,0.273-0.084,0.42,0.021
		c0.525,0.356,1.071,0.84,1.533,1.344c0.126,0.147,0.084,0.336-0.021,0.356c-0.23,0.084-0.524,0.273-0.524,0.567v4.157
		c0.168-0.168,0.336-0.336,0.524-0.441c0.105-0.062,0.231-0.084,0.336,0c0.483,0.399,0.924,0.861,1.218,1.219
		C72.679,9.137,72.595,9.347,72.49,9.368z M69.445,11.468c-0.168,0.062-0.504,0.252-0.504,0.44c0,0.504,0.021,1.176,0.063,1.638
		c0,0.189-0.042,0.336-0.168,0.441c-0.357,0.252-1.071,0.44-1.449,0.482c-0.21,0-0.356-0.126-0.356-0.294v-0.252h-1.323v0.546
		c0,0.146-0.104,0.314-0.272,0.462c-0.336,0.294-0.882,0.44-1.365,0.44c-0.21,0-0.356-0.084-0.336-0.272
		c0.021-0.588,0.042-1.26,0.042-1.848v-2.058c0-0.398,0-1.029-0.042-1.47c0.672,0.272,1.302,0.567,1.932,0.903h1.26
		c0.189-0.189,0.525-0.547,0.756-0.756c0.084-0.084,0.315-0.063,0.378,0c0.378,0.293,1.029,0.84,1.428,1.196
		C69.655,11.194,69.593,11.425,69.445,11.468z M68.417,3.3h-4.199v5.123h1.07V4.266c0.504,0.188,1.302,0.588,1.953,0.882h1.176V3.3z
		 M67.031,11.278h-1.323v1.994h1.323V11.278z M68.417,5.798h-1.092v2.646h1.092V5.798z"/>
	<path d="M93.175,11.384h-8.902c0.357,0.146,0.756,0.356,1.05,0.545c0.168,0.127,0.084,0.357-0.062,0.441
		c-0.126,0.062-0.294,0.105-0.441,0.126c-0.146,0.042-0.294,0.063-0.42,0.188c-1.406,1.428-3.254,3.087-5.144,4.221
		c2.96,0.042,5.857-0.105,8.692-0.482c-0.567-1.008-1.596-1.975-2.499-2.73l0.273-0.252c1.596,0.672,4.178,1.953,5.228,3.255
		c0.336,0.42,0.504,0.903,0.525,1.386c0,0.462-0.105,0.924-0.357,1.344c-0.252,0.398-0.566,0.63-0.882,0.63
		c-0.356-0.021-0.734-0.315-0.966-0.903c-0.294-0.756-0.63-1.553-0.966-2.184c-2.582,0.756-6.907,1.659-9.742,2.163
		c-0.356,0.063-0.672,0.252-0.798,0.567c-0.062,0.146-0.314,0.188-0.378,0c-0.294-0.799-0.608-1.764-0.776-2.625
		c-0.021-0.146,0.126-0.252,0.252-0.23c0.482,0.062,1.092,0.021,1.596-0.399c1.406-1.176,3.149-3.737,3.779-5.06h-6.089
		c-0.294,0-0.714,0.021-0.966,0.104l-0.462-0.756h8.062V6.617h-4.997c-0.189,0-0.567,0.084-0.798,0.126l-0.441-0.798h6.236V2.712
		c0-0.504-0.021-1.029-0.063-1.533c1.008,0.168,1.953,0.399,2.897,0.672c0.231,0.063,0.231,0.336,0.063,0.441
		c-0.105,0.062-0.273,0.168-0.42,0.23c-0.126,0.063-0.21,0.147-0.21,0.295v3.128h3.128c0.378-0.567,0.798-1.071,1.197-1.512
		c0.062-0.063,0.21-0.042,0.294,0c0.63,0.42,1.554,1.302,2.078,1.932c0.105,0.104,0,0.252-0.146,0.252H85.05v4.115h4.997
		c0.314-0.483,0.714-1.071,1.05-1.407c0.062-0.084,0.252-0.084,0.314-0.041c0.651,0.566,1.407,1.217,1.869,1.848
		C93.343,11.236,93.238,11.384,93.175,11.384z"/>
	<path d="M113.801,17.347c-0.588,0.021-1.112,0.23-1.574,0.545c-0.525,0.357-0.987,0.861-1.365,1.449
		c-1.784-0.714-3.59-1.89-4.829-3.485c-1.134-1.491-1.68-3.317-2.058-5.123c-0.588,0.882-1.196,1.784-1.89,2.624v3.527
		c1.134-0.356,2.289-0.818,3.401-1.28l0.189,0.294c-1.386,1.154-2.835,2.394-4.221,3.485c-0.252,0.188-0.504,0.378-0.672,0.588
		c-0.084,0.126-0.252,0.168-0.378,0.063c-0.524-0.399-0.902-0.945-1.196-1.512c-0.084-0.168-0.063-0.357,0.084-0.441
		c0.378-0.23,0.504-0.609,0.504-1.113v-1.596c-1.449,1.029-3.023,1.785-4.619,2.415l-0.147-0.231
		c2.499-1.616,5.165-4.556,6.152-6.823h-4.031c-0.42,0-0.903,0.104-1.281,0.272l-0.63-0.924h7.538V7.856h-3.591
		c-0.482,0-1.092,0.125-1.532,0.252l-0.567-0.903h5.69V5.001h-4.977c-0.524,0-1.07,0.104-1.49,0.314L95.66,4.35h7.118V2.522
		c0-0.398-0.021-0.84-0.084-1.217c1.028,0.125,2.078,0.356,3.023,0.713c0.168,0.043,0.168,0.295,0.021,0.379
		c-0.294,0.168-0.65,0.44-0.65,0.797V4.35h4.283c0.336-0.504,0.672-0.903,1.092-1.323c0.104-0.104,0.252-0.104,0.398,0
		c0.63,0.441,1.386,1.135,1.827,1.68c0.084,0.105,0.021,0.295-0.126,0.295h-7.475v2.204h2.855c0.336-0.504,0.63-0.882,1.008-1.302
		c0.084-0.105,0.252-0.084,0.336-0.021c0.63,0.483,1.26,1.051,1.784,1.659c0.105,0.104,0.042,0.315-0.104,0.315h-5.879v2.225h5.291
		c0.378-0.545,0.84-1.008,1.238-1.385c0.063-0.063,0.189-0.084,0.252-0.021c0.567,0.482,1.218,1.092,1.68,1.701
		c0.084,0.104,0.042,0.356-0.126,0.356h-8.881c0.42,1.134,1.028,2.268,1.994,3.191c1.113-0.882,2.184-2.016,2.919-3.065
		c0.714,0.566,1.49,1.281,2.078,1.994c0.126,0.168,0.021,0.379-0.168,0.357c-0.21-0.021-0.482-0.062-0.84,0.084
		c-1.008,0.398-2.1,0.818-3.212,1.238c1.722,1.449,4.346,2.184,6.529,2.499L113.801,17.347z"/>
	<path d="M118.535,18.563c-0.23,0.379-0.672,0.631-1.134,0.693c-0.42,0.062-0.86-0.021-1.196-0.273
		c-0.21-0.146-0.357-0.398-0.378-0.629c-0.042-0.295,0.084-0.609,0.378-0.777c1.05-0.588,2.414-1.533,2.708-2.688l0.315,0.042
		C119.312,16.171,119.207,17.535,118.535,18.563z M124.792,6.449c-0.21,0.231-0.44,0.315-0.672,0.294
		c-0.252-0.021-0.504-0.21-0.63-0.525c-0.146-0.314-0.294-0.672-0.462-0.924c-1.596,0.379-3.191,0.735-4.787,1.071
		c0.357,0.168,0.903,0.483,1.239,0.672h2.792c0.147-0.147,0.336-0.378,0.525-0.546c0.104-0.084,0.272-0.084,0.398-0.021
		c0.525,0.315,1.029,0.609,1.512,1.029c0.105,0.105,0.084,0.314,0.021,0.336c-0.231,0.126-0.441,0.357-0.441,0.588v4.346
		c0,0.609-0.252,1.029-0.65,1.323c-0.441,0.315-1.071,0.483-1.764,0.608c-0.084-0.672-0.273-1.133-0.567-1.448
		s-0.672-0.483-1.176-0.63v-0.294c0.525,0.042,1.176,0.084,1.722,0.084c0.147,0,0.336-0.126,0.336-0.272v-0.735h-2.771
		c-0.021,0.546,0.021,1.638,0.042,2.204c0.021,0.273-0.084,0.441-0.21,0.547c-0.294,0.252-1.238,0.504-1.742,0.461
		c-0.252-0.021-0.315-0.168-0.294-0.42c0.084-0.86,0.104-1.721,0.104-2.604v-2.98c0-0.463-0.021-1.365-0.062-1.827
		c-0.168-0.021-0.231-0.104-0.315-0.272c-0.272-0.504-0.504-1.071-0.546-1.533c-0.021-0.168,0.105-0.252,0.231-0.252
		c0.462,0,0.944-0.189,1.364-0.525c0.882-0.713,1.617-2.016,2.016-3.044c0.819,0.378,1.68,0.86,2.436,1.407
		c0.105,0.062,0.042,0.272-0.104,0.252c-0.252-0.021-0.651,0.104-0.84,0.23c-0.903,0.588-1.995,1.197-2.919,1.68
		c1.176,0,3.045-0.021,4.053-0.021c-0.252-0.377-0.609-0.756-0.966-1.07l0.146-0.23c0.882,0.209,1.806,0.461,2.583,0.986
		c0.356,0.23,0.608,0.546,0.692,0.882C125.191,5.673,125.107,6.071,124.792,6.449z M122.188,7.688h-2.75v1.217h2.75V7.688z
		 M122.188,9.557h-2.75v1.196h2.75V9.557z M129.117,19.067c-0.398,0.315-0.902,0.463-1.554,0.463c-1.406,0-4.01-0.021-5.563-0.021
		c-0.357,0-0.672-0.168-0.924-0.42s-0.399-0.63-0.399-1.029v-1.994c0-0.357-0.021-1.07-0.062-1.406
		c0.924,0.146,1.826,0.377,2.688,0.713c0.104,0.021,0.126,0.211,0.062,0.231c-0.272,0.147-0.566,0.462-0.566,0.651v0.672
		c0,0.356,0.168,0.608,0.546,0.608c0.902,0,2.666-0.021,3.59-0.063c0.252,0,0.525-0.168,0.651-0.398
		c0.252-0.398,0.546-1.218,0.672-1.68h0.336c-0.021,0.63,0.042,1.176,0.294,1.574c0.21,0.379,0.566,0.609,1.092,0.715
		C129.769,18.312,129.495,18.774,129.117,19.067z M126.115,16.759c-0.294,0.314-0.63,0.461-0.924,0.377
		c-0.252-0.062-0.462-0.293-0.525-0.713c-0.104-0.799-0.356-1.407-0.818-2.079l0.146-0.21c0.63,0.146,1.323,0.314,1.827,0.693
		c0.314,0.23,0.524,0.524,0.588,0.86C126.493,16.044,126.43,16.423,126.115,16.759z M133.086,7.499
		c-0.273,0.273-0.588,0.482-1.029,0.525c-1.616,0.084-3.359,0.146-5.039,0.062c-0.42,0-0.734-0.189-0.966-0.462
		c-0.23-0.272-0.356-0.651-0.356-1.008V3.006c0-0.63-0.021-1.134-0.105-1.659c0.924,0.211,1.827,0.483,2.709,0.777
		c0.146,0.042,0.146,0.252,0.042,0.294c-0.273,0.104-0.525,0.336-0.525,0.608v1.575c0.777-0.504,1.932-1.532,2.499-2.247
		c0.588,0.441,1.196,0.924,1.742,1.449c0.126,0.126,0.021,0.336-0.126,0.314c-0.168-0.041-0.462-0.041-0.714,0.063
		c-1.05,0.42-2.288,0.798-3.401,1.05v0.546c0,0.168,0.21,0.378,0.336,0.399c0.672,0,2.016-0.021,2.667-0.021
		c0.398-0.021,0.63-0.189,0.756-0.441c0.168-0.356,0.294-0.881,0.378-1.28h0.336c0.021,0.42,0.084,0.819,0.272,1.155
		c0.273,0.44,0.735,0.672,1.176,0.86C133.59,6.827,133.38,7.205,133.086,7.499z M133.358,13.987
		c-0.398,0.336-0.798,0.524-1.344,0.545c-1.49,0.043-3.359,0.084-4.871,0.063c-0.42,0-0.798-0.21-1.05-0.504s-0.42-0.692-0.42-1.112
		V9.599c0-0.378,0-1.154-0.042-1.512c0.903,0.168,1.848,0.378,2.688,0.734c0.126,0.063,0.147,0.231,0.021,0.295
		c-0.21,0.104-0.525,0.398-0.525,0.65v1.365c0.861-0.567,1.911-1.575,2.562-2.395c0.63,0.42,1.239,0.883,1.848,1.387
		c0.126,0.125,0.084,0.314-0.126,0.336c-0.42,0.041-0.818,0.168-1.196,0.314c-0.882,0.357-1.743,0.588-3.087,0.882v0.462
		c0,0.294,0.273,0.504,0.588,0.504c0.672,0,2.079-0.021,2.813-0.042c0.336,0,0.546-0.168,0.672-0.399
		c0.168-0.356,0.315-0.924,0.42-1.428l0.378-0.021c0,0.546,0.063,1.05,0.378,1.448c0.21,0.273,0.63,0.547,0.924,0.672
		C133.904,13.294,133.674,13.692,133.358,13.987z M133.358,18.921c-0.272,0.357-0.588,0.482-0.86,0.42
		c-0.315-0.062-0.588-0.336-0.735-0.777c-0.356-1.196-1.05-2.52-1.952-3.359l0.168-0.23c1.26,0.314,2.498,0.798,3.38,1.848
		c0.252,0.273,0.378,0.609,0.399,0.945C133.778,18.165,133.632,18.585,133.358,18.921z"/>
	<path d="M138.08,19.319c-0.294,0.211-0.672,0.315-1.176,0.231c-0.398-0.063-0.65-0.315-0.756-0.63
		c-0.104-0.314-0.021-0.693,0.273-0.966c1.134-1.028,1.722-2.058,1.91-3.527l0.294-0.042c0.273,1.197,0.441,2.582,0.21,3.611
		C138.731,18.563,138.458,19.047,138.08,19.319z M144.211,6.806c-1.532,1.848-3.38,3.717-5.396,5.166
		c1.26,0.021,2.394-0.063,3.59-0.168c-0.21-0.567-0.462-0.967-0.86-1.407l0.168-0.21c0.882,0.314,1.806,0.693,2.436,1.449
		c0.252,0.314,0.398,0.692,0.398,1.07c0.021,0.378-0.104,0.734-0.356,1.05c-0.231,0.294-0.525,0.378-0.798,0.315
		c-0.315-0.084-0.567-0.399-0.588-0.84c-0.021-0.295-0.105-0.672-0.21-0.945c-1.512,0.609-2.939,1.134-4.473,1.596
		c-0.168,0.042-0.378,0.23-0.42,0.378c-0.042,0.104-0.188,0.147-0.272-0.021c-0.294-0.547-0.567-1.26-0.756-1.891
		c-0.042-0.168,0.042-0.336,0.21-0.336c0.482,0,0.902-0.23,1.238-0.566c0.756-0.756,1.764-2.142,2.373-3.149
		c-0.798,0.399-1.68,0.798-2.436,1.155c-0.168,0.062-0.294,0.168-0.357,0.293c-0.042,0.084-0.188,0.043-0.21-0.041
		c-0.168-0.379-0.504-1.303-0.63-1.723c-0.042-0.146,0.042-0.293,0.21-0.336c0.273-0.062,0.504-0.168,0.651-0.398
		c1.028-1.344,1.932-4.262,2.204-5.9c0.798,0.336,2.247,1.071,2.751,1.407c0.146,0.104,0.042,0.336-0.084,0.378
		c-0.252,0.042-0.504,0.146-0.651,0.336c-1.05,1.512-2.036,2.813-3.275,4.094c0.735,0,1.554-0.041,2.331-0.104
		c0.566-0.903,1.028-1.89,1.448-2.835c0.84,0.399,1.68,0.84,2.478,1.323c0.147,0.084,0.168,0.399,0.021,0.42
		C144.673,6.429,144.4,6.575,144.211,6.806z M141.671,18.522c-0.189,0.377-0.525,0.672-1.029,0.797c-0.398,0.105-0.65,0-0.776-0.209
		c-0.147-0.252-0.147-0.672-0.021-1.051c0.357-1.238,0.504-2.393,0.105-3.758l0.23-0.146c0.756,1.008,1.428,2.078,1.638,3.17
		C141.881,17.767,141.839,18.187,141.671,18.522z M143.917,18.291c-0.356,0.378-0.692,0.483-0.924,0.356
		c-0.314-0.125-0.482-0.566-0.462-1.112c0.063-1.386-0.126-2.184-0.818-3.527l0.23-0.231c0.798,0.672,1.638,1.428,2.1,2.311
		c0.21,0.398,0.357,0.797,0.336,1.196C144.379,17.64,144.232,17.976,143.917,18.291z M154.269,18.858
		c-0.378,0.44-0.966,0.692-1.722,0.734c-1.743,0.105-3.549,0.084-5.312,0.021c-0.672-0.021-1.26-0.252-1.638-0.672
		c-0.294-0.336-0.482-0.799-0.482-1.344v-7.37c0-0.692-0.021-1.407-0.084-2.12c0.63,0.293,1.806,0.84,2.372,1.112h3.171V3.93h-4.829
		c-0.336,0-0.819,0.104-1.134,0.21l-0.651-0.861h6.446c0.294-0.336,0.672-0.713,1.008-1.008c0.104-0.104,0.188-0.062,0.294,0
		c0.546,0.399,1.322,1.008,1.68,1.303c0.146,0.104,0.126,0.356,0,0.398c-0.273,0.105-0.588,0.357-0.588,0.672v3.758
		c0,0.631,0.021,1.407,0.042,1.995c0.021,0.168-0.168,0.42-0.42,0.546c-0.462,0.23-1.05,0.314-1.407,0.294
		c-0.252-0.021-0.44-0.147-0.44-0.42V9.872h-3.317v6.971c0,0.44,0.168,0.65,0.482,0.672c1.05,0.084,2.541,0.084,3.821,0
		c0.357-0.021,0.672-0.252,0.756-0.567c0.315-1.155,0.63-2.456,0.84-3.653l0.336,0.062c-0.042,0.756-0.062,1.723,0.021,2.331
		c0.126,0.86,0.714,1.26,1.406,1.554C154.793,17.892,154.604,18.459,154.269,18.858z"/>
	<path d="M175.688,16.821c-0.42-0.062-0.84-0.021-1.26,0.146c-0.399,0.168-0.84,0.463-1.302,0.924
		c-1.302-1.721-2.184-3.695-2.771-5.773v5.459c0,0.714-0.189,1.218-0.525,1.574c-0.462,0.525-1.218,0.756-2.078,0.903
		c-0.105-0.608-0.273-1.134-0.588-1.532c-0.336-0.463-0.861-0.799-1.596-1.051l0.062-0.272c0.567,0.042,1.575,0.147,2.331,0.231
		c0.146,0,0.294-0.168,0.294-0.295v-2.624c-0.882,0.819-1.743,1.532-2.688,2.31c-0.126,0.105-0.231,0.357-0.252,0.482
		c-0.021,0.105-0.189,0.189-0.273,0.105c-0.356-0.398-0.65-0.798-0.882-1.176c-1.868,0.966-3.653,1.826-5.521,2.729
		c-0.21,0.104-0.336,0.336-0.336,0.524c-0.021,0.105-0.252,0.189-0.315,0.063c-0.42-0.735-0.798-1.764-1.07-2.688
		c0.924-0.104,2.016-0.21,2.981-0.378v-5.564h-1.134c-0.399,0-0.84,0.063-1.176,0.211l-0.483-0.84h2.793V8.045h-1.008
		c-0.42,0.504-1.281,1.47-1.722,1.952l-0.315-0.168c1.554-2.729,2.897-5.563,3.443-8.713c0.924,0.273,1.89,0.63,2.751,1.008
		c0.21,0.105,0.146,0.42-0.084,0.462c-0.273,0.042-0.546,0.168-0.651,0.378c1.029,0.252,1.911,0.566,2.457,1.218
		c0.272,0.336,0.336,0.798,0.252,1.218c-0.105,0.482-0.567,0.966-1.008,1.029c-0.336,0.041-0.63-0.168-0.819-0.777
		c-0.23-0.777-0.672-1.49-1.238-2.037c-0.756,1.323-1.596,2.562-2.562,3.779h2.562c0.272-0.356,0.608-0.756,0.902-1.049
		c0.105-0.105,0.231-0.063,0.336,0.021c0.546,0.399,1.05,0.86,1.533,1.386c0.062,0.084,0,0.294-0.105,0.294h-2.562v2.247h0.294
		c0.294-0.399,0.588-0.756,0.966-1.155c0.063-0.063,0.189-0.063,0.252,0c0.336,0.336,0.945,0.944,1.428,1.47
		c0.105,0.105,0.042,0.314-0.104,0.314h-2.835v3.171c0.42-0.819,0.777-1.722,1.071-2.562c0.734,0.42,1.448,0.966,2.12,1.554
		c0.105,0.084,0.021,0.315-0.126,0.315c-0.272,0-0.63,0.041-0.84,0.23c-0.756,0.65-1.428,1.176-2.226,1.742v0.799
		c0.588-0.063,1.218-0.189,1.806-0.336c-0.146-0.168-0.314-0.42-0.42-0.609c1.659-0.42,3.275-0.924,4.809-1.617v-4.43h-2.184
		c-0.504,0-0.987,0.084-1.407,0.273l-0.588-0.924h6.131c0.168-0.547,0.294-1.051,0.399-1.575h-2.939
		c-0.189,0.21-0.483,0.546-0.651,0.776c-0.104,0.105-0.252,0.127-0.356,0.063c-0.441-0.315-1.176-0.882-1.533-1.155
		c-0.126-0.084-0.084-0.272,0-0.377c0.168-0.127,0.399-0.295,0.588-0.42c0.441-1.533,0.84-3.087,1.155-4.683
		c0.86,0.231,1.658,0.504,2.478,0.84c0.188,0.063,0.188,0.336,0.062,0.399c-0.294,0.104-0.672,0.398-0.714,0.566
		c-0.021,0.126-0.062,0.252-0.126,0.378h2.688c0.21-0.252,0.546-0.588,0.861-0.903c0.084-0.062,0.188-0.062,0.294,0.021
		c0.482,0.398,1.196,1.008,1.596,1.386c0.104,0.104,0.104,0.294-0.021,0.356c-0.252,0.127-0.63,0.357-0.692,0.672
		c-0.252,1.135-0.609,2.771-0.819,3.654h0.42c0.231-0.295,0.672-0.799,1.008-1.176c0.084-0.084,0.21-0.084,0.294,0
		c0.483,0.461,1.05,1.07,1.428,1.596c0.084,0.104,0.021,0.23-0.104,0.23h-5.165V9.62c0.356,0.924,0.84,1.973,1.322,2.729
		c0.651-0.84,1.155-1.805,1.533-2.771c0.734,0.483,1.428,1.092,2.058,1.723c0.084,0.084-0.063,0.252-0.168,0.252
		c-0.441,0.041-0.84,0.146-1.176,0.356c-0.63,0.42-1.176,0.735-1.869,1.028c0.819,1.407,2.268,2.793,3.717,3.591L175.688,16.821z
		 M159.332,15.372c-0.168,0.211-0.378,0.379-0.63,0.483c-0.314,0.126-0.588,0.042-0.734-0.104c-0.21-0.189-0.273-0.547-0.231-0.924
		c0.126-0.987,0.063-1.869-0.398-2.793l0.146-0.146c0.777,0.461,1.68,1.176,1.995,2.078
		C159.668,14.47,159.689,14.952,159.332,15.372z M167.059,13.315c-0.356,0.209-0.608,0.209-0.776,0.062
		c-0.21-0.168-0.294-0.546-0.315-0.945c-0.021-0.944-0.272-1.848-0.818-2.624l0.23-0.21c0.819,0.357,1.68,0.798,2.184,1.574
		c0.21,0.357,0.357,0.756,0.252,1.176C167.71,12.728,167.416,13.104,167.059,13.315z M168.466,3.993
		c-0.189,0.713-0.42,1.532-0.651,2.309h2.939c0.189-0.756,0.357-1.532,0.483-2.309H168.466z"/>
</g>
<g>
	<path d="M43.5,62.523v8.563h-0.983v-7.364c-0.54,0.552-1.211,0.936-2.015,1.176v-0.983c0.396-0.108,0.792-0.288,1.2-0.528
		c0.408-0.251,0.744-0.539,1.031-0.863H43.5z"/>
	<path d="M53.026,67.573v0.815h-6.057v-0.815H53.026z"/>
	<path d="M59.866,62.523v0.876h-4.173l-0.288,2.866h0.048c0.24-0.288,0.551-0.504,0.923-0.647c0.336-0.145,0.695-0.204,1.091-0.204
		c0.815,0,1.475,0.252,1.979,0.768c0.503,0.527,0.768,1.247,0.768,2.171c0,0.863-0.312,1.571-0.923,2.123
		c-0.576,0.516-1.295,0.779-2.135,0.779c-0.755,0-1.403-0.204-1.931-0.611c-0.6-0.456-0.923-1.08-0.983-1.859h0.971
		c0.048,0.54,0.264,0.959,0.648,1.247c0.335,0.252,0.779,0.384,1.307,0.384c0.6,0,1.091-0.191,1.487-0.575
		c0.384-0.384,0.587-0.876,0.587-1.476c0-0.684-0.192-1.211-0.552-1.583c-0.348-0.384-0.839-0.563-1.463-0.563
		c-0.408,0-0.768,0.084-1.091,0.264c-0.336,0.168-0.6,0.432-0.768,0.768h-0.936l0.456-4.726H59.866z"/>
	<path d="M65.255,68.916l-3.946,0.264v-0.852l3.946-0.252V68.916z M65.015,63.495v0.827h-3.406v-0.827H65.015z M68.817,64.778
		c0,0.684-0.036,1.319-0.108,1.895c0.695,2.087,1.919,3.742,3.646,4.954l-0.576,0.659c-1.463-1.14-2.567-2.543-3.311-4.222
		c-0.072,0.252-0.132,0.492-0.204,0.72c-0.48,1.439-1.571,2.614-3.274,3.526l-0.563-0.684c1.487-0.792,2.482-1.787,2.974-2.986
		c0.372-1.02,0.564-2.303,0.576-3.862H68.817z M65.555,66.672l-0.72-0.516c0.912-1.175,1.499-2.806,1.763-4.893l0.852,0.132
		c-0.084,0.611-0.192,1.188-0.324,1.715h4.737v0.563c-0.251,1.08-0.587,2.147-0.995,3.202l-0.852-0.252
		c0.384-0.779,0.684-1.679,0.923-2.687h-4.03C66.574,65.066,66.119,65.977,65.555,66.672z"/>
</g>
<g>
	<path d="M41.807,94.918v0.876h-4.174l-0.288,2.866h0.049c0.239-0.288,0.551-0.504,0.923-0.647c0.336-0.145,0.695-0.204,1.092-0.204
		c0.815,0,1.475,0.252,1.979,0.768c0.504,0.527,0.768,1.247,0.768,2.171c0,0.863-0.312,1.571-0.923,2.123
		c-0.576,0.516-1.296,0.779-2.136,0.779c-0.755,0-1.402-0.204-1.931-0.611c-0.6-0.456-0.923-1.08-0.983-1.859h0.972
		c0.048,0.54,0.264,0.959,0.647,1.247c0.336,0.252,0.779,0.384,1.308,0.384c0.6,0,1.091-0.191,1.487-0.575
		c0.384-0.384,0.587-0.876,0.587-1.476c0-0.684-0.191-1.211-0.552-1.583c-0.348-0.384-0.839-0.563-1.463-0.563
		c-0.407,0-0.768,0.084-1.091,0.264c-0.336,0.168-0.601,0.432-0.768,0.768h-0.936l0.455-4.726H41.807z"/>
	<path d="M49.426,99.968v0.815h-6.057v-0.815H49.426z"/>
	<path d="M55.703,95.434c0.504,0.456,0.768,1.067,0.768,1.812c0,0.743-0.288,1.415-0.84,2.015c-0.3,0.312-0.888,0.779-1.775,1.379
		c-1.091,0.731-1.715,1.392-1.87,1.967h4.497v0.876h-5.709c0-0.779,0.276-1.487,0.852-2.123c0.336-0.384,0.947-0.899,1.859-1.523
		c0.672-0.479,1.115-0.827,1.343-1.067c0.432-0.468,0.66-0.983,0.66-1.535c0-0.527-0.156-0.923-0.468-1.211
		c-0.312-0.288-0.756-0.432-1.308-0.432c-0.588,0-1.043,0.191-1.355,0.6c-0.336,0.384-0.516,0.96-0.527,1.715h-0.983
		c0-0.959,0.275-1.727,0.804-2.29c0.527-0.576,1.235-0.864,2.099-0.864C54.54,94.75,55.188,94.979,55.703,95.434z"/>
	<path d="M63.467,94.918v0.876h-4.174l-0.288,2.866h0.048c0.24-0.288,0.552-0.504,0.924-0.647c0.336-0.145,0.695-0.204,1.091-0.204
		c0.815,0,1.476,0.252,1.979,0.768c0.503,0.527,0.768,1.247,0.768,2.171c0,0.863-0.312,1.571-0.924,2.123
		c-0.575,0.516-1.295,0.779-2.135,0.779c-0.756,0-1.403-0.204-1.931-0.611c-0.6-0.456-0.924-1.08-0.983-1.859h0.971
		c0.049,0.54,0.265,0.959,0.648,1.247c0.335,0.252,0.779,0.384,1.307,0.384c0.6,0,1.092-0.191,1.487-0.575
		c0.384-0.384,0.588-0.876,0.588-1.476c0-0.684-0.192-1.211-0.552-1.583c-0.348-0.384-0.84-0.563-1.463-0.563
		c-0.408,0-0.768,0.084-1.092,0.264c-0.336,0.168-0.6,0.432-0.768,0.768h-0.936l0.456-4.726H63.467z"/>
	<path d="M68.855,101.311l-3.946,0.264v-0.852l3.946-0.252V101.311z M68.615,95.89v0.827h-3.406V95.89H68.615z M72.417,97.173
		c0,0.684-0.036,1.319-0.107,1.895c0.695,2.087,1.919,3.742,3.646,4.954l-0.575,0.659c-1.464-1.14-2.567-2.543-3.311-4.222
		c-0.072,0.252-0.132,0.492-0.204,0.72c-0.479,1.439-1.571,2.614-3.274,3.526l-0.563-0.684c1.487-0.792,2.482-1.787,2.975-2.986
		c0.372-1.02,0.563-2.303,0.575-3.862H72.417z M69.155,99.068l-0.72-0.516c0.911-1.175,1.499-2.806,1.763-4.893l0.852,0.132
		c-0.084,0.611-0.191,1.188-0.324,1.715h4.738v0.563c-0.252,1.08-0.588,2.147-0.996,3.202l-0.852-0.252
		C74,98.241,74.3,97.341,74.54,96.333h-4.03C70.174,97.461,69.719,98.373,69.155,99.068z"/>
</g>
<g>
	<path d="M36.473,148.869c0.504,0.456,0.768,1.067,0.768,1.812c0,0.743-0.288,1.415-0.839,2.015c-0.3,0.312-0.888,0.779-1.775,1.379
		c-1.091,0.731-1.715,1.392-1.871,1.967h4.498v0.876h-5.709c0-0.779,0.276-1.487,0.852-2.123c0.336-0.384,0.947-0.899,1.859-1.523
		c0.671-0.479,1.115-0.827,1.343-1.067c0.432-0.468,0.66-0.983,0.66-1.535c0-0.527-0.156-0.923-0.468-1.211
		s-0.755-0.432-1.307-0.432c-0.588,0-1.043,0.191-1.355,0.6c-0.336,0.384-0.516,0.96-0.528,1.715h-0.983
		c0-0.959,0.276-1.727,0.804-2.29c0.528-0.576,1.235-0.864,2.099-0.864C35.309,148.185,35.957,148.414,36.473,148.869z"/>
	<path d="M44.236,148.353v0.876h-4.173l-0.288,2.866h0.048c0.24-0.288,0.551-0.504,0.923-0.647c0.336-0.145,0.695-0.204,1.091-0.204
		c0.815,0,1.475,0.252,1.979,0.768c0.503,0.527,0.768,1.247,0.768,2.171c0,0.863-0.312,1.571-0.923,2.123
		c-0.576,0.516-1.295,0.779-2.135,0.779c-0.755,0-1.403-0.204-1.931-0.611c-0.6-0.456-0.923-1.08-0.983-1.859h0.971
		c0.048,0.54,0.264,0.959,0.648,1.247c0.335,0.252,0.779,0.384,1.307,0.384c0.6,0,1.091-0.191,1.487-0.575
		c0.384-0.384,0.587-0.876,0.587-1.476c0-0.684-0.192-1.211-0.552-1.583c-0.348-0.384-0.839-0.563-1.463-0.563
		c-0.408,0-0.768,0.084-1.091,0.264c-0.336,0.168-0.6,0.432-0.768,0.768h-0.936l0.456-4.726H44.236z"/>
	<path d="M49.625,154.746l-3.946,0.264v-0.852l3.946-0.252V154.746z M49.385,149.325v0.827h-3.406v-0.827H49.385z M53.188,150.608
		c0,0.684-0.036,1.319-0.108,1.895c0.695,2.087,1.919,3.742,3.646,4.954l-0.576,0.659c-1.463-1.14-2.567-2.543-3.311-4.222
		c-0.072,0.252-0.132,0.492-0.204,0.72c-0.48,1.439-1.571,2.614-3.274,3.526l-0.563-0.684c1.487-0.792,2.482-1.787,2.974-2.986
		c0.372-1.02,0.564-2.303,0.576-3.862H53.188z M49.925,152.502l-0.72-0.516c0.912-1.175,1.499-2.806,1.763-4.893l0.851,0.132
		c-0.083,0.611-0.191,1.188-0.324,1.715h4.738v0.563c-0.252,1.08-0.588,2.147-0.996,3.202l-0.852-0.252
		c0.384-0.779,0.684-1.679,0.923-2.687h-4.03C50.944,150.896,50.489,151.807,49.925,152.502z"/>
	<path d="M59.742,147.262v8.167c0.912-0.384,1.787-0.827,2.651-1.308l0.251,0.828c-1.367,0.768-2.842,1.439-4.449,2.015l-0.3-0.84
		c0.335-0.119,0.66-0.228,0.983-0.348v-8.515H59.742z M64.216,151.723l-0.731,0.492c-0.6-1.008-1.416-2.123-2.471-3.358l0.731-0.443
		C62.825,149.672,63.64,150.776,64.216,151.723z M62.081,158.02l-0.576-0.708c2.015-1.175,3.358-2.639,4.006-4.413
		c0.492-1.512,0.744-3.418,0.755-5.721h0.888c0,2.267-0.252,4.186-0.731,5.769c-0.06,0.18-0.12,0.359-0.192,0.54
		c0.983,1.235,1.811,2.471,2.482,3.705l-0.66,0.66c-0.552-1.115-1.283-2.303-2.195-3.55C65.08,155.765,63.82,157.012,62.081,158.02z
		"/>
	<path d="M75.077,147.118v3.706h4.449v0.84h-4.449v5.133h5.469v0.84H69.872v-0.84h4.317v-9.679H75.077z"/>
</g>
<g>
	<rect y="29.086" fill="#999999" width="230" height="1"/>
</g>
</svg>
