<?xml version="1.0" encoding="utf-8"?>
<!-- Generator: Adobe Illustrator 17.0.0, SVG Export Plug-In . SVG Version: 6.00 Build 0)  -->
<!DOCTYPE svg PUBLIC "-//W3C//DTD SVG 1.1//EN" "http://www.w3.org/Graphics/SVG/1.1/DTD/svg11.dtd">
<svg version="1.1" id="Layer_1" xmlns="http://www.w3.org/2000/svg" xmlns:xlink="http://www.w3.org/1999/xlink" x="0px" y="0px"
	 width="122px" height="84.586px" viewBox="0 0 122 84.586" enable-background="new 0 0 122 84.586" xml:space="preserve">
<g>
	<path d="M8.417,39.201v1.571h4.713v0.84H8.417v1.835h3.226v0.768c-0.671,1.343-1.643,2.494-2.914,3.454
		c0.6,0.336,1.26,0.659,1.979,0.947c0.852,0.324,1.764,0.6,2.735,0.84l-0.504,0.755c-1.031-0.275-2.016-0.6-2.938-0.983
		c-0.744-0.323-1.403-0.671-2.003-1.055c-1.367,0.863-2.998,1.547-4.905,2.062L2.6,49.468c1.823-0.432,3.383-1.031,4.666-1.799
		c-0.624-0.479-1.176-1.008-1.632-1.596c-0.443-0.552-0.755-1.163-0.935-1.822H3.775v-0.804h3.754v-1.835H2.863v-0.84h4.666v-1.571
		H8.417z M10.672,44.251H5.55c0.217,0.647,0.552,1.211,1.008,1.703c0.408,0.468,0.888,0.887,1.428,1.247
		C9.148,46.386,10.048,45.402,10.672,44.251z"/>
	<path d="M14.947,50.092l-0.18-0.828c0.324,0.036,0.636,0.061,0.936,0.061c0.324,0,0.492-0.181,0.492-0.54v-2.843
		c-0.456,0.168-0.924,0.336-1.403,0.48l-0.216-0.864c0.552-0.132,1.091-0.287,1.619-0.479v-2.746h-1.487v-0.828h1.487v-2.146h0.839
		v2.146h1.248v0.828h-1.248v2.422c0.433-0.191,0.852-0.396,1.271-0.611v0.876c-0.42,0.216-0.839,0.407-1.271,0.587V49
		c0,0.72-0.348,1.092-1.031,1.092H14.947z M23.02,45.019v-0.924h0.839v0.924h1.464v0.803h-1.464v3.263
		c0,0.684-0.348,1.031-1.031,1.031h-1.559L21.101,49.3c0.504,0.036,0.983,0.06,1.438,0.06c0.312,0,0.48-0.168,0.48-0.479v-3.059
		h-4.45v-0.803H23.02z M22.312,39.237v1.235h2.843v0.804h-2.843v1.403h2.519v0.791h-5.78V42.68h2.422v-1.403h-2.854v-0.804h2.854
		v-1.235H22.312z M21.256,48.316l-0.684,0.479c-0.359-0.6-0.839-1.259-1.451-1.99l0.696-0.42
		C20.44,47.117,20.921,47.765,21.256,48.316z"/>
</g>
<g>
	<path d="M48.357,39.249v1.644h4.113v0.84h-4.113v2.122h4.749v0.84h-3.958c0.804,1.511,2.195,2.854,4.162,4.042l-0.6,0.768
		c-2.039-1.439-3.466-3.034-4.258-4.81h-0.096v5.469H47.47v-5.469h-0.108c-0.863,1.967-2.314,3.574-4.354,4.846l-0.491-0.804
		c1.919-1.056,3.31-2.398,4.174-4.042h-3.97v-0.84h4.749v-2.122h-4.03v-0.84h4.03v-1.644H48.357z"/>
	<path d="M54.624,44.91l-0.287-0.911c1.295-1.403,2.242-3.011,2.83-4.834l0.815,0.384c-0.323,0.936-0.731,1.812-1.211,2.627v8.035
		h-0.888v-6.74C55.5,43.975,55.08,44.454,54.624,44.91z M57.814,44.778l-0.611-0.731c1.056-1.247,1.931-2.891,2.603-4.917
		l0.863,0.191c-0.191,0.552-0.384,1.079-0.575,1.571h5.181v0.852h-4.029v1.979h3.502v0.84h-3.502v2.026h3.573v0.828h-3.573v2.794
		h-0.876v-8.467h-0.647C59.17,42.907,58.534,43.915,57.814,44.778z"/>
	<path d="M66.9,45.786l-0.408-0.756c2.051-0.768,3.754-1.728,5.121-2.866h0.576c1.511,1.223,3.25,2.183,5.217,2.89l-0.42,0.744
		c-0.815-0.312-1.583-0.672-2.29-1.056v0.54h-5.541v-0.54C68.459,45.114,67.704,45.462,66.9,45.786z M67.26,42.548l-0.731-0.468
		c0.756-0.912,1.308-1.907,1.644-2.999l0.827,0.181c-0.107,0.323-0.228,0.636-0.348,0.947h3.227V41h-1.691
		c0.228,0.384,0.42,0.744,0.563,1.08l-0.779,0.287c-0.192-0.479-0.42-0.935-0.66-1.367h-1.031
		C67.979,41.564,67.644,42.08,67.26,42.548z M75.499,50.188h-0.827v-0.54h-5.517v0.54h-0.828v-3.79h7.172V50.188z M74.672,48.856
		v-1.667h-5.517v1.667H74.672z M71.901,42.835c-0.659,0.588-1.415,1.14-2.278,1.644h4.605
		C73.377,43.986,72.597,43.436,71.901,42.835z M72.525,42.056l-0.72-0.443c0.623-0.756,1.067-1.596,1.343-2.519l0.828,0.18
		c-0.108,0.336-0.229,0.647-0.348,0.936h3.598V41h-1.943c0.288,0.456,0.528,0.888,0.708,1.271l-0.779,0.276
		c-0.24-0.54-0.516-1.056-0.828-1.548h-1.151C73.017,41.372,72.777,41.72,72.525,42.056z"/>
</g>
<g>
	<path d="M97.998,43.747c-0.096,2.662-0.708,4.81-1.859,6.44l-0.671-0.6c1.079-1.464,1.631-3.502,1.679-6.104v-3.767h8.779v0.84
		H98.01v2.375h7.173v0.768c-0.433,1.511-1.224,2.807-2.375,3.886c0.983,0.731,2.183,1.367,3.61,1.919l-0.468,0.756
		c-1.512-0.624-2.759-1.332-3.767-2.136c-1.104,0.864-2.446,1.584-4.029,2.159l-0.48-0.731c1.535-0.54,2.819-1.199,3.851-1.991
		c-1.199-1.115-2.003-2.387-2.411-3.813H97.998z M104.318,43.747h-4.39c0.384,1.247,1.116,2.339,2.207,3.298
		C103.167,46.086,103.887,44.994,104.318,43.747z"/>
	<path d="M109.015,41.516l-0.647,0.288c-0.264-0.707-0.54-1.331-0.84-1.883l0.684-0.216
		C108.522,40.257,108.787,40.868,109.015,41.516z M110.178,39.237v2.975h0.924v-2.975h0.792v2.975h1.499v0.815h-0.852l-0.504,1.511
		h1.247v0.756h-2.219v1.308h1.991v0.755h-1.991v1.523c0.876-0.084,1.655-0.18,2.327-0.3v0.779c-1.248,0.217-3.106,0.396-5.577,0.528
		l-0.12-0.804c0.911-0.036,1.751-0.084,2.519-0.132v-1.596h-1.991v-0.755h1.991v-1.308h-2.291v-0.756h1.26l-0.408-1.511h-1.103
		v-0.815h1.727v-2.975H110.178z M111.245,44.538l0.504-1.511h-2.183l0.396,1.511H111.245z M113.729,39.825
		c-0.217,0.743-0.492,1.391-0.816,1.967l-0.684-0.252c0.288-0.504,0.552-1.14,0.768-1.907L113.729,39.825z M115.719,46.686
		l-0.731,0.336c-0.396-1.104-0.827-2.087-1.308-2.927l0.744-0.24C114.915,44.742,115.348,45.678,115.719,46.686z M116.499,41.672
		v-2.471h0.839v2.471h1.104v0.84h-1.104v6.584c0,0.708-0.359,1.067-1.067,1.067h-1.511l-0.18-0.827
		c0.491,0.036,0.959,0.06,1.402,0.06c0.336,0,0.517-0.18,0.517-0.516v-6.368H113.8v-0.84H116.499z"/>
</g>
<g>
	<path d="M40.475,17.785c-0.525-0.042-1.029,0.104-1.491,0.356c-0.462,0.273-0.882,0.651-1.218,1.071
		c-1.448-1.196-2.372-2.646-2.939-4.263c-0.63-1.784-0.86-3.736-0.966-5.711h-0.146c-0.252,2.079-0.672,4.095-1.701,5.838
		c-1.47,2.477-3.905,3.82-6.593,4.703l-0.146-0.336c2.016-1.051,3.947-2.855,4.976-4.955c0.693-1.449,1.071-3.675,1.218-5.25h-2.226
		c-0.462,0-0.902,0.084-1.302,0.252c0,0-0.524-0.629-0.524-0.713c-0.63,1.469-1.281,3.086-1.911,4.619
		c-0.21,0.482-0.23,1.154-0.188,1.658c0.062,0.882,0.21,1.806,0.398,2.666c0.063,0.273,0.021,0.588-0.104,0.819
		c-0.126,0.252-0.336,0.44-0.651,0.462c-0.44,0.042-0.902-0.168-1.26-0.441c-0.272-0.23-0.44-0.482-0.524-0.776
		c-0.063-0.336,0-0.714,0.084-1.092c0.188-0.651,0.272-1.344,0.294-2.016c0.021-0.42-0.105-0.819-0.42-1.092
		c-0.294-0.231-1.008-0.483-1.365-0.588l0.042-0.336c0.462,0.084,1.029,0.147,1.533,0.126c0.272,0,0.524-0.146,0.734-0.42
		c1.512-2.31,2.939-4.598,4.347-6.992l0.294,0.168c-0.378,1.029-0.861,2.016-1.239,3.045h3.989c0.105-1.322,0.147-2.582,0.147-3.969
		c-1.281,0.043-2.541,0.105-3.843,0.063V4.327c3.213-0.588,6.341-1.344,9.112-3.023c0.63,0.65,1.386,1.532,1.932,2.268
		c0.084,0.125-0.021,0.356-0.168,0.336c-0.672-0.043-1.448-0.063-2.036,0.062c-0.882,0.21-1.806,0.336-2.709,0.42
		c-0.021,1.365-0.042,2.771-0.168,4.199h2.813c0.231-0.378,0.735-1.05,1.029-1.428c0.104-0.126,0.272-0.105,0.378-0.021
		c0.672,0.504,1.448,1.197,1.91,1.701c0.105,0.126,0.042,0.398-0.146,0.398h-5.375c0.356,2.037,1.134,3.885,2.498,5.522
		c1.029,1.239,2.373,2.079,3.717,2.688L40.475,17.785z M24.874,9.764c-0.21,0.168-0.44,0.21-0.65,0.146
		c-0.252-0.062-0.462-0.314-0.525-0.65c-0.23-1.197-0.776-2.31-1.784-3.129l0.188-0.252c1.092,0.273,2.247,0.567,3.065,1.407
		c0.357,0.356,0.462,0.84,0.378,1.302C25.462,9.071,25.21,9.534,24.874,9.764z M26.638,4.956c-0.23,0.231-0.504,0.357-0.776,0.295
		c-0.294-0.043-0.588-0.315-0.756-0.924c-0.315-1.008-1.05-2.1-2.058-2.793l0.104-0.273c1.323,0.189,2.604,0.588,3.527,1.365
		c0.336,0.294,0.462,0.734,0.441,1.113C27.121,4.2,26.911,4.663,26.638,4.956z"/>
	<path d="M60.241,15.223h-8.104v1.008c0,0.818,0.021,1.638,0.063,2.457c0.021,0.252-0.084,0.482-0.231,0.588
		c-0.504,0.336-1.26,0.588-1.722,0.608c-0.23,0-0.44-0.104-0.42-0.356c0.021-0.715,0.063-1.512,0.063-2.268v-2.037H43.13
		c-0.336,0-0.651,0.042-0.924,0.126l-0.525-0.776h8.21v-1.827H47.35v0.42c0,0.231-0.168,0.462-0.294,0.524
		c-0.44,0.211-1.05,0.379-1.512,0.483c-0.188,0.021-0.378-0.188-0.356-0.356c0.021-0.735,0.062-1.891,0.062-2.583V7.329
		c0-0.441,0-1.092-0.021-1.449c0.756,0.295,1.742,0.715,2.33,0.987h7.055c0.147-0.21,0.441-0.567,0.651-0.84
		c0.084-0.084,0.21-0.104,0.294-0.063c0.482,0.295,1.428,0.903,1.868,1.239c0.084,0.063,0.105,0.315,0.021,0.356
		C57.071,7.749,56.777,8,56.777,8.294v2.813c0,0.566,0.021,1.154,0.084,1.742c0.021,0.231-0.063,0.399-0.189,0.483
		c-0.398,0.231-0.944,0.462-1.616,0.588c-0.168,0.021-0.42-0.147-0.42-0.378v-0.798h-2.499v1.827h4.745
		c0.357-0.504,0.756-0.967,1.197-1.407c0.062-0.063,0.21-0.063,0.294,0.021c0.65,0.525,1.49,1.281,1.952,1.743
		C60.431,15.034,60.389,15.223,60.241,15.223z M60.053,4.431h-5.648c-0.021,0.252,0,0.672,0.021,1.028
		c0.042,0.273-0.084,0.547-0.378,0.693c-0.504,0.23-1.05,0.398-1.617,0.482c-0.188,0.021-0.336-0.188-0.314-0.377
		c0.042-0.588,0.062-1.219,0.042-1.827h-2.415c-0.021,0.315,0,0.714,0.021,1.008c0.021,0.21-0.063,0.42-0.252,0.567
		c-0.525,0.356-1.134,0.545-1.764,0.545c-0.189,0-0.294-0.125-0.294-0.314c0.062-0.609,0.062-1.238,0.084-1.806H43.36
		c-0.314,0-0.672,0.084-0.966,0.21L41.786,3.78h5.753V2.877c0-0.398,0-1.134-0.042-1.742c0.986,0.252,1.952,0.504,2.855,0.84
		c0.104,0.041,0.126,0.293,0.042,0.314c-0.315,0.105-0.672,0.314-0.672,0.546V3.78h2.456V2.416c0-0.44,0-0.903-0.021-1.344
		c0.966,0.252,1.932,0.483,2.855,0.84c0.146,0.063,0.126,0.315,0,0.356c-0.399,0.168-0.63,0.399-0.63,0.631V3.78h2.12
		c0.252-0.314,0.861-0.986,1.218-1.364c0.084-0.084,0.231-0.084,0.315-0.021c0.504,0.398,1.386,1.133,2.058,1.742
		C60.221,4.243,60.157,4.431,60.053,4.431z M54.636,7.539H47.35v1.952h7.286V7.539z M54.636,10.142H47.35v1.952h7.286V10.142z"/>
	<path d="M70.309,3.507c-0.104,0.063-0.168,0.188-0.168,0.315v3.064c0,0.547,0.021,1.387,0.063,1.932
		c0.021,0.211-0.084,0.441-0.252,0.547c-0.441,0.23-0.966,0.42-1.512,0.461c-0.231,0.021-0.399-0.168-0.399-0.336V8.798h-2.666
		v7.223c0,0.944,0.021,1.911,0.062,2.835c0.021,0.23-0.084,0.398-0.272,0.524c-0.252,0.188-1.239,0.504-1.596,0.483
		c-0.21-0.021-0.378-0.127-0.357-0.357c0.021-0.861,0.063-2.498,0.063-3.779V3.319c0-0.631-0.042-1.387-0.126-1.932
		c0.818,0.314,1.68,0.734,2.436,1.133h2.268c0.23-0.293,0.566-0.672,0.798-0.944c0.168-0.168,0.272-0.126,0.44-0.021
		c0.504,0.314,1.218,0.902,1.638,1.301c0.084,0.084,0.105,0.211,0.021,0.315C70.645,3.276,70.477,3.423,70.309,3.507z M68.041,3.192
		h-2.666v2.037h2.666V3.192z M68.041,5.859h-2.666v2.288h2.666V5.859z M74.466,12.137c-0.084,0.062-0.188,0.209-0.188,0.336v1.406
		c0,0.672,0.021,1.344,0.021,1.974c0.021,0.252-0.084,0.356-0.294,0.483c-0.378,0.188-0.902,0.356-1.302,0.356
		c-0.272,0-0.398-0.168-0.398-0.42V15.37h-2.709v0.799c0,0.23-0.084,0.504-0.294,0.608c-0.42,0.252-0.882,0.42-1.386,0.504
		c-0.21,0.021-0.44-0.168-0.42-0.356c0.063-0.967,0.105-2.121,0.105-3.171v-1.364c0-0.756-0.021-1.617-0.084-2.311
		c0.756,0.295,1.49,0.715,2.142,1.092h2.414c0.21-0.314,0.462-0.672,0.798-0.944c0.105-0.063,0.231-0.084,0.357,0
		c0.44,0.315,1.238,0.924,1.616,1.26c0.126,0.104,0.147,0.252,0.021,0.356C74.76,11.948,74.571,12.053,74.466,12.137z
		 M72.304,11.822h-2.709v2.897h2.709V11.822z M78.938,3.423c-0.126,0.063-0.231,0.231-0.231,0.356v13.081
		c0,1.028-0.23,1.68-0.672,2.12c-0.482,0.504-1.238,0.735-2.162,0.924c-0.084-0.672-0.336-1.176-0.693-1.574
		c-0.524-0.566-1.238-0.902-1.994-1.154l0.042-0.336c0.882,0.146,2.058,0.272,2.96,0.314c0.273,0,0.42-0.189,0.42-0.42V8.798h-2.646
		c0,0.188-0.042,0.356-0.21,0.483c-0.482,0.272-1.028,0.504-1.616,0.524c-0.21,0-0.357-0.084-0.336-0.336
		c0.042-0.756,0.062-1.722,0.062-2.583v-3.4c0-0.631,0-1.449-0.042-2.059c0.735,0.336,1.449,0.693,2.184,1.092h2.478
		c0.231-0.293,0.525-0.629,0.84-0.86c0.105-0.104,0.231-0.104,0.357-0.021c0.42,0.272,1.196,0.84,1.616,1.154
		c0.126,0.105,0.126,0.314,0.021,0.398C79.211,3.276,79.085,3.339,78.938,3.423z M76.607,3.192h-2.646v2.037h2.646V3.192z
		 M76.607,5.859h-2.646v2.288h2.646V5.859z"/>
	<path d="M99.075,13.208c-0.399,0.378-0.693,0.902-0.861,1.365c-1.176-0.504-2.268-1.176-3.296-2.016
		c-0.084,0.818-0.252,1.616-0.462,2.372c-0.168,0.651-0.567,1.028-1.05,1.28c-0.504,0.252-1.113,0.357-1.722,0.463
		c-0.063-0.756-0.273-1.239-0.63-1.575c-0.357-0.336-0.84-0.524-1.428-0.714l0.021-0.314c0.756,0.104,1.575,0.168,2.373,0.168
		c0.294,0,0.462-0.189,0.524-0.483c0.105-0.44,0.189-1.196,0.231-1.659h-4.115v4.914c0,0.272,0.146,0.504,0.462,0.524
		c1.932,0.126,3.989,0.084,5.921-0.063c0.378-0.021,0.734-0.377,0.84-0.734c0.252-0.777,0.42-1.554,0.608-2.352l0.336,0.042
		c0,0.776,0.021,1.448,0.21,1.995c0.21,0.504,0.588,0.902,1.26,1.112c-0.21,0.608-0.546,1.071-0.944,1.364
		c-0.504,0.379-1.134,0.547-1.785,0.588c-2.436,0.084-4.808,0.105-7.243,0c-0.546-0.021-1.008-0.252-1.344-0.588
		c-0.315-0.314-0.504-0.756-0.504-1.301v-4.935c-1.512,1.134-3.129,2.036-4.787,2.771l-0.189-0.272
		c2.247-1.533,4.451-3.507,5.732-5.922h-3.611c-0.378,0-0.882,0.084-1.218,0.211l-0.567-0.861h5.753
		C87.905,8,88.157,7.35,88.346,6.719H84.21c-0.315,0-0.756,0.084-1.05,0.211l-0.504-0.861h5.899
		c0.483-1.533,0.882-3.149,0.903-4.893c1.008,0.231,2.016,0.525,2.939,0.903c0.126,0.042,0.146,0.231,0.042,0.294
		c-0.147,0.126-0.378,0.252-0.546,0.314c-0.105,0.043-0.189,0.168-0.231,0.379c-0.272,1.008-0.566,2.016-0.86,3.002h1.574
		c0.882-1.406,1.68-2.897,2.121-4.493c0.924,0.399,1.826,0.84,2.666,1.302c0.105,0.084,0.147,0.252,0.021,0.314
		c-0.105,0.063-0.273,0.147-0.441,0.211c-0.126,0.041-0.252,0.084-0.336,0.168C95.4,4.452,94.33,5.355,93.217,6.069h2.625
		c0.336-0.482,0.692-0.924,1.05-1.365c0.104-0.104,0.23-0.125,0.378-0.041c0.672,0.504,1.386,1.07,1.952,1.742
		c0.084,0.126,0.021,0.314-0.146,0.314h-8.504C90.341,7.371,90.089,8,89.795,8.588h7.013c0.294-0.441,0.714-1.029,1.028-1.406
		c0.084-0.105,0.294-0.105,0.399-0.021c0.588,0.441,1.322,1.134,1.826,1.742c0.126,0.105,0.042,0.315-0.126,0.315h-6.803
		c1.911,2.079,4.683,2.688,7.223,3.044v0.295C99.873,12.598,99.432,12.85,99.075,13.208z M87.233,5.565
		c-0.273,0.168-0.567,0.21-0.84,0.021c-0.21-0.127-0.42-0.399-0.588-0.84c-0.357-0.883-0.945-1.743-1.869-2.268l0.084-0.211
		c1.323,0.043,2.583,0.273,3.549,1.113c0.314,0.273,0.398,0.756,0.336,1.154C87.821,4.977,87.548,5.355,87.233,5.565z M92.545,9.239
		h-3.065c-0.398,0.631-0.924,1.303-1.344,1.827l0.693,0.378h3.842c0.147-0.168,0.462-0.441,0.714-0.672
		C93.07,10.268,92.776,9.786,92.545,9.239z"/>
</g>
<g>
	<rect y="29" fill="#999999" width="122" height="1"/>
</g>
<g>
	<g>
		<rect x="5" y="60.586" fill="#FFFFFF" width="18" height="23"/>
	</g>
	<g>
		<path fill="#00FFB0" d="M22,61.586v21H6v-21H22 M24,59.586H4v25h20V59.586L24,59.586z"/>
	</g>
</g>
<g>
	<polygon fill="#00FFB0" points="12.543,78.614 7.339,72.37 8.876,71.089 12.6,75.559 19.208,68.204 20.696,69.541 	"/>
</g>
<g>
	<g>
		<rect x="51" y="60.586" fill="#FFFFFF" width="18" height="23"/>
	</g>
	<g>
		<g>
			<path fill="#808080" d="M68,61.586v21H52v-21H68 M70,59.586H50v25h20V59.586L70,59.586z"/>
		</g>
	</g>
</g>
<g>
	<path fill="#808080" d="M61,76h-2.119l0.003-5h0.999c1.385,0,2.512-1.024,2.512-2.409c0-1.385-1.127-2.245-2.512-2.245
		c-1.405,0-2.506,0.655-2.506,2.655h-2c0-3,2.021-4.603,4.506-4.603c2.487,0,4.571,1.916,4.571,4.404
		c0,2.145-1.454,3.837-3.454,4.293V76z"/>
</g>
<g>
	<circle fill="#808080" cx="59.881" cy="78.753" r="1.541"/>
</g>
<g>
	<g>
		<rect x="98" y="60.586" fill="#FFFFFF" width="18" height="23"/>
	</g>
	<g>
		<path fill="#FF0055" d="M115,61.586v21H99v-21H115 M117,59.586H97v25h20V59.586L117,59.586z"/>
	</g>
</g>
<g>
	
		<rect x="100.308" y="71.444" transform="matrix(0.7071 0.7071 -0.7071 0.7071 82.5617 -54.4416)" fill="#FF0055" width="13.385" height="2"/>
</g>
<g>
	
		<rect x="106" y="65.751" transform="matrix(0.7071 0.7071 -0.7071 0.7071 82.5649 -54.4422)" fill="#FF0055" width="2" height="13.385"/>
</g>
</svg>
