<?xml version="1.0" encoding="utf-8"?>
<!-- Generator: Adobe Illustrator 17.0.0, SVG Export Plug-In . SVG Version: 6.00 Build 0)  -->
<!DOCTYPE svg PUBLIC "-//W3C//DTD SVG 1.1//EN" "http://www.w3.org/Graphics/SVG/1.1/DTD/svg11.dtd">
<svg version="1.1" id="Layer_1" xmlns="http://www.w3.org/2000/svg" xmlns:xlink="http://www.w3.org/1999/xlink" x="0px" y="0px"
	 width="328px" height="42px" viewBox="0 0 328 42" enable-background="new 0 0 328 42" xml:space="preserve">
<g>
	<path d="M9.338,27.456c0.192-2.688,0.288-5.184,0.288-7.873v-0.288c0-0.144-0.096-1.056-0.096-1.248H8.906
		c-1.44,0-2.688,0.624-3.936,0.912l-0.528,0.192l-0.72,0.144c-0.192,0-0.625,0.48-0.816,0.48H2.57c-0.288,0-0.624,0-0.72-0.288
		v-0.625c0-0.624,0.096-0.96,0.432-1.584c0.192-0.48,0-0.48,0.48-0.816c0.432-0.432,1.392-0.288,2.064-0.432
		c1.056-0.288,2.208-0.48,3.264-0.816c1.104-0.288,1.44-0.096,1.536-1.344c0.192-0.816,0.192-1.44,0.192-2.256v-0.336
		c0-0.288-0.288-1.968-0.288-2.304l-0.192-0.48V7.727l0.912-1.536h0.528c0.625,0,1.344,0,1.68,0.72v4.56
		c0,0.144-0.336,1.68-0.336,1.873v0.96c1.152,0,2.208-0.336,3.312-0.336c0.768,0,1.584,0.192,2.064,0.816
		c0,0.144-0.192,0.768-0.192,0.96c0,0-0.192,0.288-0.288,0.288c-0.192,0.144-0.96,0.624-0.96,0.624c-0.192,0-1.44,0.144-1.536,0.144
		c-0.528,0-2.688,0.288-2.688,0.912c-0.336,5.376-0.432,10.993-0.336,16.273c0,0.192-0.288,1.248-0.432,1.44
		c-0.192,0.336-0.816,0.624-1.104,0.624c-1.248-0.192-1.056-2.064-1.056-2.784C8.906,31.201,9.194,29.329,9.338,27.456z
		 M24.364,30.769c0-0.192,0.336-0.528,0.336-0.528l0.624-0.432c0,0,0.432-0.816,0.624-0.912c0.432-1.008,1.344-2.256,1.344-3.312
		c0-1.728-1.536-1.584-2.784-1.584H23.74c0,0-0.288,0.48-0.288,0.624c-0.96,2.352-2.064,4.705-4.081,6.241
		c-0.912,0.624-1.536,1.152-2.688,1.152c-0.48,0-1.728-0.192-1.728-0.816v-0.144c0.816-0.288,1.872-0.912,2.688-1.536
		c0.192,0,0.816-0.816,0.912-0.96c0,0,0.624-0.672,0.816-0.96c0.624-0.768,1.68-1.872,2.016-2.832V24.48h-0.624
		c-1.392,0.144-2.928,0.912-4.272,0.912c0,0-0.288,0-0.288-0.144v-1.536l0.288-0.336c0,0,1.152-0.144,1.632-0.288
		c0.432-0.192,1.584-0.336,1.68-0.336c0.192,0,1.44-0.144,1.584-0.144c0.192,0,0.625-0.336,0.625-0.48
		c0.192-0.768-0.96-1.729-0.96-2.016c0-0.528,1.248-0.816,1.776-0.816c0.432,0,0.624,0,1.056,0.288
		c0.192,0.192,0.48,0.528,0.48,0.528v2.16h1.392c0.288,0,1.536,0.336,1.872,0.336c0.816,0.624,1.872,0.912,1.872,2.16
		c0,0.624-0.144,1.248-0.336,1.872c-0.288,0.96-0.624,1.92-1.056,2.688c-0.816,1.536-1.248,4.224-3.408,4.224h-0.624
		c-0.336,0-0.192-0.48-0.192-0.624C23.884,32.305,24.076,31.393,24.364,30.769z M33.917,17.615c0.624-0.72,3.12-3.456,3.12-4.56
		c0-0.96-2.16-1.248-2.784-1.248h-0.816c-0.144,0.096-0.432,0.432-0.624,0.624c-0.144,0.096-0.624,0.912-0.768,1.104
		c-0.48,0.432-2.688,2.64-3.168,3.12c-1.056,0.624-2.64,1.584-4.08,1.584c-0.288,0-1.056-0.192-1.056-0.624
		c0-0.96,1.248-0.96,1.872-1.248c1.872-0.816,3.552-2.496,4.896-4.128c0,0,0.288-0.336,0.288-0.432v-0.192h-2.064
		c-0.288,0-1.728,0.192-2.064,0.192c-0.288,0.288-1.68,0.432-2.304,0.432h-0.288c-0.192,0-0.336-0.336-0.336-0.432v-1.776
		l0.144-0.096c0,0,0.288-0.336,0.48-0.336c0.144-0.192,0.624-0.48,0.624-0.48h7.393c0,0,0.288-0.624,0.288-0.96V7.871
		c0-0.432-0.48-0.624-0.48-1.056c0-0.624,1.248-0.816,1.728-0.816c0.768,0,1.584,0.624,1.584,1.536c0,0.624-0.528,1.248-0.816,1.776
		c0,0.288,0.48,0.432,0.624,0.432c1.44,0.288,4.225,0.48,4.225,2.496c0,0.816-0.192,0.912-0.48,1.729
		c-0.144,0.816-0.625,1.584-0.769,1.776c-0.912,1.344-2.496,4.369-4.368,4.369h-0.624l-0.288-0.336
		C33.004,18.96,33.004,17.712,33.917,17.615z M37.373,31.489l0.624-0.096c1.968-0.624,3.408-1.776,4.176-3.937
		c0-0.192,0.48-1.104,0.48-1.248v-0.192c-0.48-1.056-1.104-0.768-2.064-0.768h-1.249c-1.536,2.352-2.496,4.081-4.656,5.953
		c-0.144,0.192-0.96,0.816-1.056,0.912c-0.624,0.528-1.776,0.528-2.496,0.528h-1.248l-0.528-0.336l-0.192-0.192l0.192-0.288
		l0.528-0.144c0.288-0.192,1.344-0.624,1.536-0.624c0.96-0.48,2.304-1.536,3.12-2.16c0.144-0.192,0.624-0.528,1.056-1.44
		c0.624-0.816,1.584-1.248,1.776-2.352l-0.336-0.144c-1.44,0-2.784,0.624-4.224,0.624c-0.336,0-0.768,0-0.768-0.48
		s0.336-1.248,0.432-1.728c1.872-0.144,3.648-0.48,5.616-0.48c0.336-0.144,0.528-0.768,0.528-1.248c0-0.288-0.336-0.624-0.336-1.104
		c0-0.432,1.056-0.624,1.393-0.624h0.192c0.096,0,1.056,0.48,1.248,0.624v0.48c0,0.624-0.192,1.104-0.192,1.584v0.288l0.816,0.192
		c1.536,0.432,3.408,0.768,3.408,2.784c0,0.768-0.432,1.248-0.768,1.872c-0.144,0.336-0.912,1.584-0.912,1.776
		c0,0-0.336,0.624-0.336,0.72c-0.144,0.624-0.624,1.152-0.768,1.776c-1.152,1.248-2.832,2.304-4.561,2.304
		c-0.432,0-0.768-0.432-0.768-0.768C37.037,33.073,37.037,31.681,37.373,31.489z"/>
	<path d="M72.172,40.274c-0.624,0-2.497-0.624-2.497-1.584c0.192,0,0.816-0.192,0.912-0.192l0.528-0.096
		c0.096,0,1.056-0.192,1.248-0.192l0.288-0.144c1.68-0.624,3.552-1.44,4.512-3.12c0.192-0.288,0.816-1.728,1.008-1.872
		c0.096-0.192,0.288-0.912,0.288-0.912v-6.145c0,0-0.48-0.192-0.624-0.192h-0.384c-2.16,0.336-4.464,0.624-6.672,0.96
		c-0.192,0-0.912,0.192-1.104,0.192c-0.336,0-1.056,0.096-1.248,0.096h-0.336l-0.096,0.192c-1.248,0.336-2.496,0.432-3.84,0.768
		c-2.16,0.48-4.176,1.44-6.336,2.064l-0.816,0.096l-0.144,0.192c-1.104,0.528-2.16,0.816-3.12,1.44
		c-0.912,0.432-1.92,1.056-2.833,1.584c-0.144,0-0.768,0.432-0.96,0.432h-0.144c-0.768-0.432-1.248-0.768-1.248-1.68
		c0-0.336,0.144-0.96,0.336-1.248c0.288-0.384,0.624-0.384,0.912-0.528c0.624-0.192,1.104-0.624,1.728-0.816
		c1.92-0.624,3.792-1.056,5.665-1.536c0.624-0.144,1.248-0.432,1.872-0.624c1.056-0.336,2.16-0.432,3.216-0.768
		c1.584-0.48,3.312-0.912,4.896-1.104c0.192,0,1.44-0.144,1.536-0.144c0.96-0.192,1.776-0.288,2.688-0.48
		c0.144,0,1.392-0.144,1.872-0.144c1.392-0.192,2.64-0.288,4.08-0.48c0.624,0,0.816,0.192,1.44-0.144c0,0,0.096-0.192,0.096-0.288
		c0.192-0.336,0-0.96,0.528-1.152h0.624c0.096,0,0.72-0.096,0.72-0.096h0.192l0.144,0.096v1.44c1.104,0,6.24,0.144,7.345,0.144
		c0.624,0,4.992-0.144,5.616-0.144h0.528l-0.192,0.432c-0.768,1.776-1.248,2.4-3.12,3.024c-0.768,0.288-1.44,0.432-2.208,0.432
		c-1.249,0-2.353-0.432-3.601-0.96l-0.624-0.096c-0.144,0-0.432-0.192-0.432-0.192l-0.528-0.336h-0.432
		c-0.192,0-1.728-0.288-1.872-0.288h-0.192c-0.288,0-0.912,0.288-0.912,0.288c-0.144,0.192-0.336,0.96-0.336,1.152v4.225
		c0,0.144-0.096,1.248-0.096,1.68c0,0.336-0.192,1.152-0.192,1.248c0,0.336-0.336,1.584-0.432,1.872
		c-0.192,0.816-0.816,1.248-1.44,1.776c-1.584,1.248-3.648,1.536-5.521,1.872H72.172z M68.283,21.36
		c-0.192,0.096-0.48,0.912-0.48,0.912c-0.624,0.768-7.489,2.016-8.929,2.304c-0.96,0.336-2.304,0.816-3.264,0.816
		c-0.48,0-0.816-0.192-0.816-0.624c0-1.248,2.496-1.44,3.456-1.536c0,0,0.816-0.336,1.104-0.336c0.336-0.192,2.496-0.48,2.496-0.816
		v-2.16h-0.816l-0.432,0.096c-1.536,0.528-2.784,0.624-4.368,1.344c-0.288,0-0.48-0.336-0.48-0.528c0-0.624,0.288-1.248,0.624-1.728
		c0.192-0.144,0.48-0.432,0.624-0.432c4.032-0.192,7.776-1.872,11.905-1.872c0,0.096-0.288,0.912-0.48,1.056
		c-0.624,0.288-0.96,0.288-1.584,0.48c-0.912,0.336-2.064,0.624-2.976,0.96c-0.144,0.432-0.144,0.912-0.144,1.344v0.816
		c0,0.192,0.336,0.192,0.336,0.192h0.288c1.248-0.192,2.688-0.48,3.936-0.48V21.36z M60.123,15.647
		c-0.624-0.096-1.056-0.096-1.056-0.72c0-0.528,0.432-0.96,0.912-1.152l4.369-0.912c1.248-0.144,2.688-0.624,3.936-0.768
		c1.392-0.192,2.833-0.288,4.176-0.624c0.192,0,1.44-0.384,1.584-0.384c0.192,0,0.816-0.096,0.912-0.096l0.624-0.192l0.336,0.192
		c0,0,0.192-0.192,0.192-0.336h1.248c0,0,0.288-0.48,0.48-0.624c0-0.192,0.432-1.248,0.432-1.44
		c0.192-0.288,0.336-0.625,0.336-0.912c-1.248,0-2.496,0.192-3.744,0.288l-0.528,0.192h-1.536c-2.64,0.144-5.329,0.432-7.825,1.056
		c-0.912,0.336-2.784,1.44-3.937,1.248c0,0-0.624-0.096-0.72-0.288l-0.192-0.144v-1.44c0,0,0.192-0.288,0.288-0.288
		c0.96-0.336,2.064-0.336,3.024-0.432l0.432-0.192c1.632-0.432,3.312-0.624,5.04-0.768c1.68-0.192,3.745-0.624,5.425-0.624h4.896
		l0.192-0.192c0.288-0.432,0.912-0.912,0.912-1.536s-2.496-0.624-3.168-0.96h-1.392c-2.688,0-5.28,0.192-7.969,0.624
		c-1.68,0.336-3.312,0.816-5.185,0.816c-0.336,0-0.624-0.288-0.624-0.816c0.624-0.432,1.248-1.056,1.873-1.536
		c0.624-0.432,1.728-0.336,2.352-0.432l0.528-0.192c0.912-0.144,1.968-0.144,2.928-0.336h6.097l0.432,0.192
		c0.192,0,1.776,0.144,1.968,0.144c0.096,0,0.72,0.192,0.912,0.192c0.336,0,2.64,0.288,2.928,0.288c0.192,0,0.624,0.144,0.624,0.144
		c0.192,0,0.816,0.816,0.96,0.912l0.192,0.336v0.816c0,0.624,0.096,1.056-0.336,1.536c-0.192,0.144-1.248,1.248-1.44,1.392
		c-1.248,1.44-1.873,3.6-3.745,4.56l-0.432,0.192c-3.312,0.432-6.433,0.624-9.745,1.248l-0.288,0.096
		c-1.392,0.336-2.832,0.528-4.272,0.816c-0.912,0.144-1.968,0.624-2.928,0.96l-0.288,0.096H60.123z M69.675,30.385
		c-0.768,1.873-2.832,3.121-4.56,3.745c-0.144,0-0.96,0.336-1.248,0.336h-0.432c-0.192,0-1.152-0.336-1.248-0.336
		c-0.192,0-0.528-0.288-0.528-0.288v-1.248c0-0.336,2.496-0.624,3.024-0.768c1.248-0.288,2.352-0.48,3.312-1.296
		c0.288-0.336,1.249-0.96,1.249-0.96h0.288c0,0,0.144,0.528,0.144,0.624V30.385z M71.404,21.36c0-1.008,0.768-1.152,0.768-2.256
		c0-0.624-0.144-1.056-0.432-1.68c-0.192-0.192-0.528-0.336-0.528-0.624c0-0.96,0.624-1.152,1.584-1.152c0.192,0,0,0.192,0.48,0.192
		h0.432c0.192,0,2.064-0.288,2.208-0.288c0.48,0,2.352-0.336,2.688-0.336c0.192,0,2.161-0.192,2.353-0.192l0.624-0.096h0.624
		l0.336,0.096l0.72,0.192c0.336,0.144,0.192,0.336,0.192,0.432c0,1.152-0.624,1.776-1.104,2.688c0,0.144-0.432,0.96-0.432,1.056
		c-0.336,0.816-1.152,1.248-1.872,1.632c-0.528,0-2.592,0.144-3.024,0.144c-0.912,0-1.872,0.48-2.784,0.624
		c-0.192,0-0.96,0.288-1.152,0.288l-0.288,0.192h-0.432c-0.192,0-0.816-0.48-0.96-0.624V21.36z M74.044,20.352h0.192l0.432-0.144
		c0.192,0,1.248-0.288,1.536-0.288c0.816-0.192,2.064-0.192,2.88-0.528c0.336-0.096,0.432-0.72,0.624-0.912
		c0.144-0.144,0.432-0.96,0.432-1.056c0-0.192,0.192-0.624,0.192-0.624c-2.16,0-4.225,0.624-6.289,0.912
		c-0.144,0.768,0,1.68-0.336,2.496L74.044,20.352z"/>
	<path d="M99.882,25.248c0-0.96,0.96-1.776,1.776-2.208l0.432-0.288c0.288,0,1.44-0.192,1.536-0.192
		c3.024-0.432,5.809-0.769,8.833-1.056c0.288,0,1.873-0.192,2.161-0.192h1.392c0.192,0,0.816-0.336,0.912-0.336l0.192-0.288
		c0-0.144,0.144-1.056,0.144-1.248v-2.688h-4.081c-1.248,0-3.408,0.48-4.656,1.008c-0.96,0.288-1.776,0.912-2.833,0.912
		l-0.288-0.192c-0.625-0.432-0.96-1.104-0.96-1.872c0-0.624,0.144-1.104,0.336-1.536c0.288-1.248,0.72-2.497,0.912-3.745
		c0.144-0.816-0.192-1.44,0.336-2.064l0.096-0.192h0.192c0.144,0,1.056,0.192,1.249,0.192l0.336,0.288
		c0.096,0.336,0.624,0.96,0.624,1.104s0.096,1.104,0.096,1.392v2.688h2.208c0.192,0,0.816-0.192,1.008-0.192
		c0.288,0,3.552-0.432,3.84-0.432l0.624-0.192l0.816-0.096c0.144,0,0.336-0.528,0.336-0.624c0-0.192,0.096-0.625,0.096-0.625
		c0.192-2.256,0.192-4.896,0.192-7.056c0.336-0.48,0.768-1.104,1.584-1.104h0.096c0.192,0,0.96,0.288,1.152,0.48l0.288-0.192
		c-0.192,0.816,0.144,1.248,0.144,1.872c0,2.064-0.624,3.937-0.624,6c0,0.288,0.192,1.056,0.192,1.056h10.465
		c0.144,0,0.96-0.144,1.056-0.144h0.336c0.192,0.144,0.625,0.624,0.816,0.768c0,0,0.288,0.48,0.288,0.625
		c0,0.288-0.288,0.912-0.624,1.104l-0.816,0.144c-1.344,0.288-2.784,0.48-4.368,0.48c-1.536,0-3.121-0.192-4.657-0.192
		c-0.192,0-1.584,0.192-1.776,0.192h-0.912l-0.144,0.144c-0.192,1.104-0.48,2.544-0.48,3.792c0,0.144,0,0.144,0.192,0.336
		c0.432,0.096,0.624,0.096,1.248,0.096c1.968,0,7.153,0.192,7.489,0.192c1.104,0,2.688,0.144,3.744,0.624
		c0.192,0,1.249,0.769,1.44,0.769c0.432,0.288,1.248,0.288,1.248,1.104c0,0.816-1.248,1.44-1.872,1.44h-0.336
		c-4.657-0.624-9.409-1.296-14.113-1.296h-3.216c-2.4,0-4.272,0.288-6.625,0.816c-0.432,0.192-2.304,0.48-2.497,0.816v0.096
		l-0.144,0.192l-0.288-0.192h-0.528c-0.096,0.192-1.248,0.624-1.536,0.816l-0.624,0.144l-0.144,0.192
		c-0.48,0.096-1.248,0.432-1.728,0.432c-0.96,0-1.248-0.96-1.584-1.68V25.248z M100.842,35.089c0.192-0.288,1.44-0.288,1.728-0.624
		c1.68-1.248,3.552-2.592,4.993-4.224c0.144-0.144,0.96-1.056,1.056-1.249c0.528-0.624,0.96-1.248,1.44-1.872
		c0.144-0.144,0.624-0.96,0.768-0.96c0,0,0.672-0.096,0.816-0.096h0.192c0.288,0,0.288,0,0.432,0.288
		c0,0.144,0.288,1.248,0.288,1.392v0.192c0,0.096-0.288,0.432-0.288,0.625c-0.144,0.096-1.248,1.968-1.44,2.16
		c-0.624,0.96-0.96,1.872-1.68,2.832c-0.336,0.288-1.776,1.872-2.208,2.16c0,0-0.816,0.528-0.912,0.624
		c-0.192,0-0.96,0.528-1.152,0.624c-0.288,0.192-0.72,0.528-1.056,0.528h-0.192c-0.288,0-1.248-0.192-1.248-0.192
		c-0.72-0.144-1.536-1.056-1.536-1.872V35.089z M125.564,31.345c-0.144-0.096-0.624-0.912-0.768-1.104l-0.48-0.432
		c-0.624-0.96-1.249-1.776-1.873-2.497c-0.192-0.192-0.336-0.528-0.336-0.528v-0.288c0-0.432,0-0.768,0.432-0.768
		c1.776,0,3.504,2.304,4.752,3.264l0.624,0.288l0.432,0.528l0.624,0.288c0.816,0.432,1.248,0.816,2.208,1.248l0.48,0.192
		c0.336,0.144,2.208,0.768,2.497,0.96c0.432,0.288,0.768,0.624,0.768,1.056v0.288c-1.056,1.248-2.304,2.208-3.889,2.208
		c-2.784,0-4.032-2.496-5.28-4.512L125.564,31.345z"/>
	<path d="M143.386,29.521c0-0.288,0.768-0.816,0.96-0.912c0.624-0.816,0.912-2.064,0.912-3.024c0-1.248-0.625-2.208-0.625-3.312
		c0-0.624,0.625-0.912,1.249-0.912s1.248,0.912,1.248,1.392v0.144c0,0-0.096,0.624-0.096,0.816v2.64c0,0-0.192,0.912-0.336,1.248
		c0,0.192-0.288,0.816-0.288,1.008l0.096,0.096h0.192c0.336,0,1.392-0.096,1.584-0.096c0.912-0.192,0.72-0.384,0.912-1.152
		c0,0,0.144-0.288,0.144-0.48l0.192-0.336v-0.096l-0.192-0.528V25.92c0-0.192,0.192-0.96,0.192-1.152v-3.601
		c0-0.144-0.192-0.768-0.192-0.768c-0.144-0.48,0-1.536-0.624-1.872h-0.624c-0.432,0-0.768,0-1.248,0.144
		c-0.144,0-0.624,0.48-0.768,0.48h-0.288c-0.528,0-1.344-1.296-1.344-1.92c0-0.096,0.72-1.68,0.72-1.872v-2.064
		c0-0.096-0.336-0.432-0.336-0.624l-0.48-0.432c0-0.192-0.192-0.912-0.192-1.248c0-0.816,1.104-0.816,1.632-0.816
		c0.72,0,1.248,0.336,1.968,0.336c0.96,0,1.872-0.144,2.832-0.336c0.192,0,1.872-0.096,2.064-0.096l0.624-0.192h0.432
		c1.536,0,2.161,0.288,2.688,1.728c0,0.144,0.096,0.432,0.096,0.432c0,0.624-0.624,0.96-0.912,1.248
		c-0.624,0.816-0.624,2.4-0.768,3.312c-0.912,0.192-0.912,1.152-1.729,1.584h-0.624c-0.144,0-0.624,0.192-0.768,0.192
		c0.144,1.536-0.192,3.121-0.192,4.513v1.872c0.192,0.336,0.192,0.528,0.192,0.624v0.336l-0.192,0.48v1.68
		c0.192,0.192,0.336,0.336,0.528,0.336c0.432,0,1.872-0.432,2.304-0.624c0.288-0.144,0.624-0.624,1.104-0.624
		c0.336,0,0.336,0.48,0.336,0.816v0.096c-0.336,1.632-0.528,2.592-2.064,3.216c-1.872,0-4.08,0.096-5.952,0.432
		c-0.72,0.192-1.68,0.624-2.496,0.912c-0.432,0.192-0.432,0.528-1.104,0.528h-0.432c-0.192,0-0.336-0.336-0.336-0.336V29.521z
		 M147.754,15.696c0,0.192,0.192,0.192,0.336,0.192c0.912,0,1.872-0.192,2.784-0.336c0.192,0,1.152-0.192,1.248-0.192
		c0.336-0.432,0.816-2.497,0.816-2.977c-1.729,0-3.409,0.48-5.185,0.624V15.696z M152.314,22.752c0-0.768,1.584-1.728,2.304-1.728
		h0.192c0.336,0,0.96,0.144,0.96,0.144c0.096,0.192,0.72,0.816,0.912,0.96c0.144,0.144,0.144,0.768,0.144,1.104
		c0,0.624-0.624,0.912-1.248,0.912s-0.624-0.288-1.056-0.432l-0.528-0.192l-0.096-0.144l-0.816-0.144c0,0-0.432-0.336-0.624-0.336
		L152.314,22.752z M157.115,33.265c0-0.192-0.288-0.624-0.432-0.816c-0.192-0.096-0.48-0.096-0.48-0.432
		c0-0.48,0.48-0.48,0.816-0.624c3.601-2.064,3.601-6.433,3.601-10.033v-0.192c0-0.288-0.192-1.68-0.192-2.016h-0.288
		c-0.624,0-1.056,0-1.68,0.144l-0.528,0.192h-0.096c-0.336,0-1.008-0.336-1.008-0.336s-0.144-0.288-0.336-0.48
		c0,0-0.288-0.48-0.288-0.624c1.296-0.816,2.688-0.912,3.936-1.728c0,0,0.192-0.336,0.288-0.432
		c0.528-0.816,0.624-1.248,1.584-1.248h0.288c0.192,0,0.624,0.288,0.816,0.432c0.624,0.48,0.624,1.104,0.624,1.872
		c0,1.728-0.48,0.48-1.104,1.44c0,0-0.144,0.288-0.144,0.48v2.161c0,2.016,0.336,3.936,0.144,5.952
		c0.288,0.192,0.816,0.288,0.816,0.624h-0.192l-0.624-0.336h-0.144c-0.624,2.256-0.48,3.84-2.353,5.376
		c-0.624,0.432-1.248,0.624-2.016,0.624H157.115z M157.931,12.671c0-1.344,0.96-1.248,1.872-1.68
		c0.528-0.192,1.248-0.624,1.584-0.912c0.816-0.816-0.144-1.248,1.44-1.44h0.432c0.816,0.624,1.44,1.44,1.44,2.496
		c0,0.816-1.152,0.912-1.776,1.104c-1.536,0.432-2.928,0.96-4.464,0.96v-0.528H157.931z M177.997,32.977c0,0-0.96-0.624-1.44-0.816
		c-2.304-1.392-4.08-2.928-7.057-2.928c-1.056,0-2.016,0.432-2.928,1.056l-0.624,0.48h-0.528c-0.288,0-0.624,0-0.912-0.192
		c-0.144-0.096-0.432-0.432-0.432-0.432v-1.92c0-1.056,2.928-1.392,2.928-3.552v-0.624c0-0.192-0.336-1.152-0.336-1.296
		c-0.096-0.48-0.432-0.624-0.432-1.104c0-0.48,0.432-0.48,0.96-0.624l0.288-0.144c0.768,0,1.584,0.48,1.584,1.248v0.144
		c0,0.48-0.192,3.024-0.192,3.456l-0.144,0.192c0,0.096-0.48,0.624-0.48,0.72l0.192,0.192c0.624,0.144,1.536,0,2.353,0.144
		c0.144,0,0.768,0.192,0.96,0.192h0.288c0,0,0.336,0,0.336-0.192c0-0.336,0.096-1.68,0.096-2.016v-1.104c0-0.96,0-1.584-0.096-2.688
		c0-0.144-0.336-1.056-0.336-1.248v-0.144c0-0.48,1.392-0.768,1.68-0.768c0.336,0,0.624,0,0.816,0.288
		c0.144,0.192,0.336,0.816,0.336,0.96v7.537c0,0.096,1.248,0.432,1.344,0.432c0.336,0,1.248,0.384,1.44,0.384
		c0.144,0,1.584,0.288,2.017,0.288h0.192l0.624-0.192c0.096,0,1.056-0.096,1.248-0.096c0.096-0.192,1.248-1.008,1.248-1.008
		c0.48,0,0.624,1.632,0.624,1.92c0,1.584-1.44,2.496-2.496,3.12c-0.192,0.144-0.624,0.336-0.624,0.336H177.997z M180.493,15.887
		c-0.336,0.72-0.624,1.344-1.584,1.536c-2.785,0-5.809-0.192-8.593,0.336c-0.336,0-1.44,0.288-1.584,0.288
		c-0.192,0-1.44,0.48-1.872,0.624c-0.288,0.192-0.624,0.336-1.104,0.336c-0.336,0-0.432-0.336-0.432-0.624
		c0-0.624,0.288-1.44,0.432-2.064v-0.624c0.192-0.432,2.496-0.624,2.976-0.768c0.144,0,0.624-0.192,0.768-0.192v-0.096
		c0-0.336-0.336-0.528-0.432-0.816c-0.192-0.528-0.192-1.152-0.528-1.584l-0.624-0.624c0-0.192-0.096-0.624-0.096-0.816
		c0-0.288,1.248-0.72,1.344-0.72c0.72,0,1.632,0.096,1.968,0.72c0,1.152,0.096,2.208,0.432,3.216l0.192,0.288l0.096,0.432h2.688
		l0.624-0.625c0.624-0.624,0.96-1.728,1.056-2.496c0-0.192,0.192-0.912,0.192-1.104l0.336-0.336h0.625
		c0.912,0,1.68,0.528,1.68,1.584c0,0.624-1.68,1.92-2.208,2.88c1.248,0.624,2.833-0.528,3.648,1.056V15.887z M176.221,21.792
		c0-0.288,2.833-1.248,3.457-1.248c0.192,0,0.288-0.144,0.48,0.192c0.144,0.288,0.432,0.912,0.432,1.392
		c0,0.624-0.096,1.392-0.72,1.728c-0.192,0.192-0.624,0.288-0.624,0.288s-0.624-0.096-0.816-0.288
		c-0.768-0.48-1.584-1.248-2.208-1.872V21.792z"/>
	<path d="M192.298,24c0.336,0.144,0,0.48,0.336,0.624c0.48,0.144,0.625,0.144,1.104,0.144c0.768,0,1.584-0.288,2.304-0.48
		c3.648-0.912,7.201-2.497,10.177-4.8c1.248-0.96,0.96-3.312,2.832-3.312c0.288,0,1.104,0,1.248,0.336
		c0,0.096,0.192,0.912,0.192,1.104c0.912,0.624,1.872,0.432,2.784,0.768c0.144,0,0.768,0.48,0.96,0.48
		c0.096,0,0.72,0.144,0.912,0.144c0.624,0.144,1.056,0.48,1.68,0.624c1.776,0.48,3.505,1.104,5.185,1.536
		c0.816,0.192,1.44,0.624,2.209,0.816c1.104,0.288,2.352,0.432,3.408,0.768l0.527,0.144c0.288,0.144,1.057,0.336,1.057,0.336h4.225
		l0.527,0.144c0,0.48-0.336,1.248-0.527,1.392c-0.097,0.336-0.288,0.816-0.624,0.96c-1.969,1.248-4.657,1.248-6.865,1.44
		c-1.728-0.816-3.12-1.873-4.656-2.88c-0.816-0.432-1.776-0.912-2.496-1.392c-1.152-0.48-1.44-0.912-2.593-1.392
		c-0.72-0.336-1.536-0.48-2.304-0.768c-1.44-0.48-2.688-1.248-4.032-1.584c-1.152,0.768-2.064,1.873-3.12,2.64l-0.192,0.192
		c-0.144,0.144-0.768,0.624-0.768,0.624l-0.48,0.144c-1.152,0.624-2.064,1.392-3.12,2.016c-1.585,0.96-3.457,1.44-5.185,2.064
		c-1.248,0.432-2.304,0.768-3.552,1.248c-1.008,0.336-1.776,0.625-2.88,0.625c-0.768,0-1.392-0.288-1.392-1.104
		C189.178,25.728,190.762,24.624,192.298,24z M193.546,17.904c0.192-0.144,0.336-0.768,0.336-0.768
		c0.192-0.192,0.912-0.96,1.248-1.248l0.288-0.192c0.96-0.768,1.584-1.68,2.4-2.64c0-0.192,0.288-0.48,0.288-0.48
		c0.336-0.624,0.768-1.68,1.68-1.584c0.192,0,0.528,0.192,0.528,0.336c0.432,0.192,2.161,0.48,2.593,0.48h0.528
		c0.912,0.144,1.872,0.96,2.496,1.584c0.288,0.288,0.48,0.432,0.48,0.912c0,0.624,0,1.68-0.48,2.016l-1.248,0.624
		c-1.152,0.48-2.4,0.816-3.457,1.104c-2.16,0.816-4.368,1.44-6.528,1.44h-0.816c-0.336-0.192-0.432-0.625-0.432-1.104
		C193.45,18.384,193.546,18.048,193.546,17.904z M198.539,16.608h0.336c0,0,1.104-0.096,1.44-0.288
		c0.72-0.144,1.969-0.336,2.593-0.96c0.192-0.096,0.192-0.288,0.192-0.624c0-0.912-1.104-0.72-1.729-0.912l-0.624-0.336h-0.144
		c-0.192,0-0.816,1.152-0.912,1.249l-1.44,1.44l-0.144,0.336C198.106,16.608,198.539,16.608,198.539,16.608z M199.787,36.817h0.816
		c0.624,0,1.393,0.192,2.017,0.192h0.192c1.344-0.288,2.496-0.816,3.937-1.104c1.68-0.432,3.408-0.96,5.088-1.68
		c0.192-0.192,1.152-0.528,1.248-0.624l0.192-0.192c0.144-0.144,0.96-0.624,0.96-0.624c0.096,0,1.248-0.432,1.344-0.432l0.192-0.192
		h0.432c0.528,0,0.624,0,1.249,0.288v0.96l-0.097,0.192c-0.624,0.432-1.152,0.912-1.872,1.249c-0.624,0.288-1.248,0.432-1.872,0.72
		c-1.44,0.96-2.832,1.776-4.368,2.4c-0.624,0.096-1.152,0.624-1.776,0.912c-1.536,0.624-3.12,0.96-4.656,0.96h-1.441l-0.144-0.192
		c-0.816-0.432-1.728-1.056-1.728-2.208C199.499,37.345,199.499,37.153,199.787,36.817z M202.907,7.583
		c0-0.192,0.336-0.624,0.528-0.816c1.056-0.624,2.16-1.056,3.12-1.873c0.192-0.144,0.912-0.768,0.912-0.96
		c0.528-0.72,0.528-1.68,1.584-1.872h0.912c0.192,0,0.624,0.192,0.816,0.192h1.872c0,0,0.624,0.144,0.768,0.336
		c0.192,0,0.624,0.288,0.624,0.288c0.192,0,0.816,0.432,0.912,0.624c0.96,0.625,1.872,1.249,1.872,2.641
		c0,0.48-0.096,0.624-0.432,0.912c-0.912,1.152-1.536,1.776-3.12,1.776c-2.064,0.096-4.225,0.288-6.24,0.72
		c-0.192,0-1.248,0.528-1.44,0.528h-1.104c0,0-0.768-0.336-1.056-0.528c-0.336-0.096-0.816-0.72-0.816-1.248
		C202.619,8.303,202.812,7.679,202.907,7.583z M203.243,31.825c0.192-0.192,0.288-0.816,0.288-0.816s0.192-0.096,0.336-0.096
		c0.192-0.192,0.912-0.336,0.912-0.336h1.152c1.536-0.192,3.601-0.624,4.992-1.44c0.288-0.096,1.248-0.72,1.248-0.72
		c0.192-0.192,0.816-0.96,0.912-0.96c0.528-0.288,0.96-0.288,1.44-0.288h0.432l0.336,0.288v1.249c0,0-0.144,0.336-0.336,0.336
		c-1.344,0.912-2.928,1.536-4.464,2.16c-1.872,0.768-3.937,1.776-6.145,1.776c-0.48,0-0.912,0-1.248-0.336v-0.192
		C203.1,32.161,203.1,32.161,203.243,31.825z M204.491,25.92c0.192,0,1.009-0.192,1.104-0.192c1.248-0.336,2.688-0.624,3.648-1.248
		c0.096,0,0.72-0.48,0.912-0.624c0.432-0.336,0.432-0.816,1.056-1.104c0.192-0.144,0.96-0.336,0.96-0.336
		c0.192,0,1.104,0.192,1.248,0.336c0.288,0.288,0.288,0.48,0.288,0.768c0,0.48-0.096,0.96-0.624,1.248l-0.432,0.192
		c-2.496,1.056-5.616,2.928-8.593,2.928c-0.336,0-0.528,0-0.528-0.432C203.531,26.832,204.06,26.208,204.491,25.92z M207.996,7.583
		h0.096c0,0,0.624-0.192,0.816-0.192c0.144,0,2.208-0.144,2.304-0.144c0.816-0.192,2.496-0.624,2.496-1.728
		c0-0.336-0.624-0.768-0.912-0.96c-0.144,0-0.768-0.096-0.96-0.096c-0.096,0-0.72-0.528-0.912-0.528h-0.336
		c-0.096,0.192-0.432,0.624-0.624,0.816c-0.288,0.336-1.968,2.016-2.304,2.304v0.192C207.66,7.391,207.804,7.583,207.996,7.583z
		 M212.172,14.111c0,0,0.288-0.432,0.48-0.624l0.144-0.096c0.192-0.192,1.44-1.248,1.536-1.44c0.192-0.144,1.584-1.584,1.776-1.68
		c0.624-0.72,1.536-1.344,2.353-1.344c0.96,0,0.624,0.336,1.248,0.528c1.056,0.48,3.264,0.624,4.08,1.44
		c0.288,0.096,1.344,1.248,1.536,1.536v0.432c0,0.528,0,0.816-0.288,1.152c-0.191,0.096-1.248,0.72-1.439,0.912
		c-2.017,1.392-5.761,1.68-8.306,1.68h-1.68c-0.192,0-0.816-0.288-0.96-0.432c-0.48-0.288-0.48-0.912-0.48-1.44V14.111z
		 M215.916,14.111h3.169c0.144-0.624,2.208,0,2.208-1.344c0-1.152-1.872-1.584-2.688-1.584c-0.624,0-1.248,0.768-1.776,1.056
		c-0.096,0.192-0.912,0.624-1.056,0.816c-0.192,0.144-0.48,0.432-0.624,0.624C215.148,14.111,215.772,14.111,215.916,14.111z"/>
	<path d="M238.57,17.424c0.96-0.288,1.872-0.48,2.88-0.816c0.433-0.096,1.057-0.432,1.585-0.624c0.432-0.288,0.912-0.72,1.536-0.72
		c0.336,0,1.584,0.096,1.584,0.432c0,0.48-0.624,0.912-0.96,1.104c-1.44,0.96-3.121,1.872-4.849,1.872c-0.624,0-1.872,0-1.872-0.768
		C238.475,17.76,238.475,17.615,238.57,17.424z M240.011,9.263l0.432-0.144l0.72-0.288c0,0,0.624,0.096,0.721,0.096
		c0.96,0.192,3.12,0.336,3.937,0.96c0,1.296-2.16,1.728-2.977,1.728h-0.433l-0.527-0.096c-1.057-0.336-1.872-0.336-1.872-1.776
		V9.263z M251.579,31.201c0,0-2.208,0.192-3.12,0.192c-0.144,0-0.96,0.144-1.056,0.144c-0.96,0.192-1.872,0.192-3.024,0.288
		c-0.096,0-0.72,0.336-0.912,0.336c-0.336,0.192-1.393,0.624-1.584,0.816h-0.097c-0.624,0-1.151-0.624-1.151-1.248
		c0-0.816,1.151-1.44,1.775-1.632c0.912-0.336,1.537-0.336,2.161-1.056c0.144-0.192,0.624-0.816,0.624-1.152
		c0.144-0.624,0-2.304,1.056-2.304c0.624,0,1.44,0.432,1.44,1.056c0,1.248-1.729,2.208-1.729,2.832c0.816,0,1.44-0.144,2.16-0.144
		c2.064,0,4.08,0.144,6.145,0.336c0.288,0,2.353,0.288,2.688,0.288h0.624l0.288-0.624l0.432-0.48
		c0.624-0.624,1.152-1.392,1.584-2.208c0.288-0.432,0.288-1.344,0.912-1.344s1.248,0.288,1.248,0.912s-1.248,2.016-1.68,2.497
		l-0.624,0.768l-0.624,0.48l-0.288,0.336c1.536,0.432,2.928,0.624,4.464,0.912c0.816,0.192,1.585,0.528,2.209,0.624
		c0.672,0.192,1.104,0.624,1.728,0.816h0.192c0.624,0.144,1.248,0.432,1.872,0.624c2.305,0.624,4.801,0.96,7.297,0.96
		c1.152,0,2.4-0.336,3.504-0.336c0.145,0,0.433,0,0.433,0.144v0.192c0,0.096-0.288,0.625-0.288,0.625
		c-0.145,0.096-1.248,1.248-1.585,1.536c-1.439,1.248-3.12,1.584-4.848,1.584h-1.584c-1.536-0.624-3.121-1.44-4.657-2.208
		c-0.144,0-1.248-0.816-1.392-0.816c-1.008-0.432-2.064-0.72-2.977-1.056c-3.456-1.248-7.488-2.688-11.329-2.496L251.579,31.201z
		 M242.219,22.896c0.816-0.624,1.872-0.912,2.688-1.536c0.432-0.48,0.432-1.44,1.248-1.44c0.432,0,0.624,0,1.056,0.336V20.4
		c0,1.104-1.584,2.641-2.304,3.121c-0.528,0.336-1.776,0.96-1.776,0.96s-0.912,0.192-1.248,0.192h-0.097
		c-0.336,0-0.815-0.192-0.815-0.528C240.971,23.664,241.883,23.232,242.219,22.896z M250.955,17.135
		c0.192-0.192,0.912-1.152,1.104-1.248c0.432-0.624,0.432-1.44,0.432-2.064s-0.096-1.249-0.432-1.68c0-0.192-0.48-0.624-0.48-0.816
		v-0.144c0-0.672,2.353-1.104,2.881-1.296c0.432-0.144,2.496-0.624,2.928-0.768c0.48-0.624,0.816-1.536,0.912-2.352V6.623
		c0-0.192-0.288-0.192-0.432-0.192c-0.816,0-1.536,0.336-2.353,0.528c-0.144,0-0.96,0.096-1.056,0.096
		c-0.96,0.192-1.969,0.816-3.024,0.816h-0.624c-0.192,0-0.192-0.288-0.192-0.48V7.055c1.776-2.161,5.377-1.968,7.681-2.304
		c0.192,0,0.96-0.288,1.152-0.288h0.288c0.624,0,1.056,0.624,1.392,1.056v0.192c0,0.432-0.336,0.72-0.432,1.056
		c-0.192,0.288-0.96,1.728-0.96,1.872c0,0.192-0.288,0.912-0.288,1.104c-0.528,1.44-3.744,1.248-4.992,2.064
		c0.096,0.96,0,1.872-0.336,2.832l0.144,0.096l0.48-0.096c0.336,0,2.208-0.624,2.496-0.816l0.336-0.144h0.288
		c0.432,0,0.768,0.336,0.768,0.624c0,0.432-0.336,0.768-0.624,0.768h-0.144l-0.192-0.144c-0.432,0.624-1.872,1.056-2.496,1.584
		c-0.096,0.096-1.056,0.72-1.344,0.912c-0.336,0.192-1.633,1.44-2.064,1.44c-0.624,0-0.816-1.104-0.816-1.632V17.135z
		 M253.836,21.792c-0.528,0-1.009-0.288-1.009-0.768c0-0.625,0.816-0.912,1.44-1.104c0.288,0,2.784-0.624,3.12-0.624
		c0.48-0.144,0.624-0.144,0.624-0.624c0-0.432-0.336-0.624-0.336-1.056c0-0.192,0.192-0.384,0.336-0.48h0.624
		c1.44,0,1.536,0.288,1.729,1.536h0.336c1.681,0,3.744-0.288,5.616-0.432v-1.728c0,0,0.192-0.192,0.288-0.336
		c0.192-0.192,0.528-0.288,0.528-0.288h0.288c1.248,0,1.248,1.056,1.392,2.016c1.104,0.336,2.353,0.48,3.601,0.48
		c0.336,0.144,0.336,0.288,0.336,0.48c0,0.625-0.96,1.056-1.439,1.056h-2.929l-0.192,0.192c-0.336,0.432-0.96,1.056-0.96,1.68v0.192
		l0.336,0.144h3.312c0.096,0,0.912,0.144,1.057,0.144c1.104,0.144,2.063,0,2.688,1.104c0.097,0.288,0.097,0.288,0.097,0.48
		c0,1.104-1.057,0.912-1.872,0.912c-0.721,0-1.345-0.624-2.16-0.624l-0.337,0.144c-0.096,0-0.432-0.288-0.432-0.288
		c-1.44-0.144-2.496-0.144-3.937-0.144c-2.976,0-5.904,0.816-8.736,1.728c-0.624,0.144-1.104,0.432-1.536,0.768
		c-1.152,0.48-2.688,1.104-3.841,1.104c0-0.48-0.096-1.104,0.192-1.536c0.432-0.624,1.44-0.96,2.064-1.248
		c0.144,0,0.768-0.384,0.96-0.384l0.72-0.144c0.192,0,1.584-0.48,1.776-0.48l0.624-0.144c0.096,0,0.288-0.288,0.288-0.288v-1.728
		c0-0.336-0.288-0.48-0.624-0.48C256.428,21.024,255.18,21.792,253.836,21.792z M260.988,22.896h0.336l0.624-0.144
		c1.057-0.144,2.305-0.48,3.408-0.48c0.624-0.48,0.624-1.729,0.624-2.353h-2.16c-0.336,0-1.872,0.336-2.4,0.336
		c-0.096,0-0.624,0.144-0.72,0.288c-0.192,0.624-0.192,1.104-0.192,1.729C260.508,22.608,260.508,22.896,260.988,22.896z
		 M264.541,11.807v-0.912l-0.097-0.528v-0.48c0-0.144,0-0.432,0.288-0.624c0.145,0,1.248-0.144,1.44-0.144
		c0.144,0,1.392-0.48,1.584-0.48c0.096,0,0.912-0.144,1.056-0.144c1.536-0.288,2.064-0.912,2.064-2.496h-2.064
		c-0.96,0-1.68,0.144-2.64,0.432l-0.288,0.192h-0.816c-0.191,0-0.624-0.48-0.624-0.624V5.711c0-0.336,0-0.336,0.288-0.624
		l0.336-0.192c1.729-0.432,3.408-0.624,5.185-0.768l0.624-0.192h2.16c0.769,0.192,0.96,0.816,0.96,1.44v0.624
		c-0.191,0.144-0.96,0.96-1.151,1.056c0,0-0.433,0.816-0.624,1.152l-0.097,0.288c-0.191,0.336-1.152,1.056-1.248,1.248
		c-0.624,0.432-1.776,0.432-2.496,0.624c-0.336,0-1.584,0.144-1.872,0.144c-0.336,0.48-0.192,1.296-0.192,1.632v1.056l0.192,0.192
		c1.248,0,2.592-0.336,3.84-0.528h0.192c0.336,0,0.769,0.336,0.96,0.624v0.192c-0.624,1.248-1.776,1.248-3.024,1.392
		c-1.056,0.192-2.304,0.192-3.312,0.624h-0.097c0,0-0.624-0.96-0.815-1.056C264.444,13.679,264.541,12.863,264.541,11.807z
		 M266.173,25.92c0.768,0,1.872,1.344,2.304,1.68c0.96,0.624,2.209,0.816,2.209,2.064c0,0.72-0.337,0.72-0.961,0.912l-0.288,0.144
		h-0.336c-0.432,0-0.912,0-1.248-0.336c0,0-0.624-0.912-0.912-1.248c-0.624-0.72-1.056-1.68-1.056-2.784
		C265.885,26.208,265.885,25.92,266.173,25.92z"/>
	<path d="M317.558,30.769l-1.872-0.96c0,0-0.433-0.48-0.625-0.624c-0.432-0.624-1.008-0.768-1.584-1.249
		c-1.439-1.248-2.399-1.488-3.6-2.688c-0.145-0.144-0.769-0.624-0.961-0.624c-0.096-0.144-1.344-0.624-1.535-0.768
		c-0.961-0.48-1.249-0.96-2.209-1.584l-2.16-1.248c-0.144,0-1.056-0.816-1.248-0.816c-0.624-0.288-1.68-0.912-2.496-0.912
		c-0.96,0-1.152,0.624-1.872,1.248l-0.624,0.288c-1.44,1.008-3.024,1.776-4.368,2.544c-0.192,0-0.624,0.336-0.816,0.48
		c-1.248,0.768-2.832,1.392-4.177,2.016c-0.815,0.336-1.584,0.96-2.592,0.96h-0.096c-0.336,0-1.248-0.144-1.248-0.144
		c-0.192,0-0.624-0.48-0.624-0.624v-0.336c0-0.96,0.72-1.872,1.056-2.64c0.192-0.336,0.192-0.816,0.48-0.96
		c0.432-0.288,1.584-0.288,2.208-0.288c2.784-0.192,5.473-1.44,7.776-2.688c0.192,0,1.152-0.816,1.248-0.816
		c1.248-0.72,2.208-2.304,2.496-3.744l0.192-0.48v-0.144c-0.192-0.192-0.48-1.104-0.624-1.249l-0.288-0.192v-0.288
		c0-0.144,0-0.336,0.096-0.432c0.624-0.336,1.345-0.816,2.064-0.816c0.96,0,2.4,0.816,2.208,1.872c0,0.192-0.144,0.912-0.336,1.248
		c-0.096,0.625-0.288,1.249-0.624,1.92c0,0.144-0.432,0.624-0.432,0.768v0.192c0,0.288,0,0.288,0.336,0.432
		c0.288,0.288,0.624,0.192,1.056,0.288c1.248,0.336,2.496,1.152,3.601,1.776l1.68,0.72c1.248,0.624,2.4,1.632,3.648,2.256h0.192
		c0.096,0,0.624,0.432,0.72,0.432c0.624,0.336,1.44,0.48,2.064,0.816c0.144,0,0.624,0.288,0.768,0.288
		c0.912,0.48,1.873,0.624,2.977,0.96c2.208,0.768,4.368,1.104,6.721,1.104h0.769c0.191,0,0.815-0.336,0.96-0.336h0.288v0.144
		c-0.145,0.624-0.433,1.776-0.912,2.4c-0.145,0.096-0.961,0.912-1.248,1.248c-1.152,0.912-2.833,1.056-4.081,1.536L317.558,30.769z"
		/>
</g>
</svg>
