<?xml version="1.0" encoding="utf-8"?>
<!-- Generator: Adobe Illustrator 17.0.0, SVG Export Plug-In . SVG Version: 6.00 Build 0)  -->
<!DOCTYPE svg PUBLIC "-//W3C//DTD SVG 1.1//EN" "http://www.w3.org/Graphics/SVG/1.1/DTD/svg11.dtd">
<svg version="1.1" id="Layer_1" xmlns="http://www.w3.org/2000/svg" xmlns:xlink="http://www.w3.org/1999/xlink" x="0px" y="0px"
	 width="142px" height="100px" viewBox="0 0 142 100" enable-background="new 0 0 142 100" xml:space="preserve">
<g>
	<path d="M16.417,47.905v1.571h4.713v0.84h-4.713v1.835h3.226v0.768c-0.671,1.343-1.643,2.494-2.914,3.454
		c0.6,0.336,1.26,0.659,1.979,0.947c0.852,0.324,1.764,0.6,2.735,0.84l-0.504,0.755c-1.031-0.275-2.016-0.6-2.938-0.983
		c-0.744-0.323-1.403-0.671-2.003-1.055c-1.367,0.863-2.998,1.547-4.905,2.062L10.6,58.171c1.823-0.432,3.383-1.031,4.666-1.799
		c-0.624-0.479-1.176-1.008-1.632-1.596c-0.443-0.552-0.755-1.163-0.935-1.822h-0.924v-0.804h3.754v-1.835h-4.666v-0.84h4.666
		v-1.571H16.417z M18.672,52.955H13.55c0.217,0.647,0.552,1.211,1.008,1.703c0.408,0.468,0.888,0.887,1.428,1.247
		C17.148,55.089,18.048,54.106,18.672,52.955z"/>
	<path d="M22.947,58.795l-0.18-0.828c0.324,0.036,0.636,0.061,0.936,0.061c0.324,0,0.492-0.181,0.492-0.54v-2.843
		c-0.456,0.168-0.924,0.336-1.403,0.48l-0.216-0.864c0.552-0.132,1.091-0.287,1.619-0.479v-2.746h-1.487v-0.828h1.487v-2.146h0.839
		v2.146h1.248v0.828h-1.248v2.422c0.433-0.191,0.852-0.396,1.271-0.611v0.876c-0.42,0.216-0.839,0.407-1.271,0.587v3.395
		c0,0.72-0.348,1.092-1.031,1.092H22.947z M31.02,53.722v-0.924h0.839v0.924h1.464v0.803h-1.464v3.263
		c0,0.684-0.348,1.031-1.031,1.031h-1.559l-0.168-0.815c0.504,0.036,0.983,0.06,1.438,0.06c0.312,0,0.48-0.168,0.48-0.479v-3.059
		h-4.45v-0.803H31.02z M30.312,47.941v1.235h2.843v0.804h-2.843v1.403h2.519v0.791h-5.78v-0.791h2.422V49.98h-2.854v-0.804h2.854
		v-1.235H30.312z M29.256,57.02L28.572,57.5c-0.359-0.6-0.839-1.259-1.451-1.99l0.696-0.42C28.44,55.821,28.921,56.468,29.256,57.02
		z"/>
</g>
<g>
	<path d="M104.357,47.953v1.644h4.113v0.84h-4.113v2.122h4.749v0.84h-3.958c0.804,1.511,2.195,2.854,4.162,4.042l-0.6,0.768
		c-2.039-1.439-3.466-3.034-4.258-4.81h-0.096v5.469h-0.888v-5.469h-0.108c-0.863,1.967-2.314,3.574-4.354,4.846l-0.491-0.804
		c1.919-1.056,3.31-2.398,4.174-4.042h-3.97v-0.84h4.749v-2.122h-4.03v-0.84h4.03v-1.644H104.357z"/>
	<path d="M110.624,53.614l-0.287-0.911c1.295-1.403,2.242-3.011,2.83-4.834l0.815,0.384c-0.323,0.936-0.731,1.812-1.211,2.627v8.035
		h-0.888v-6.74C111.5,52.678,111.08,53.158,110.624,53.614z M113.814,53.482l-0.611-0.731c1.056-1.247,1.931-2.891,2.603-4.917
		l0.863,0.191c-0.191,0.552-0.384,1.079-0.575,1.571h5.181v0.852h-4.029v1.979h3.502v0.84h-3.502v2.026h3.573v0.828h-3.573v2.794
		h-0.876v-8.467h-0.647C115.17,51.611,114.534,52.619,113.814,53.482z"/>
	<path d="M122.9,54.49l-0.408-0.756c2.051-0.768,3.754-1.728,5.121-2.866h0.576c1.511,1.223,3.25,2.183,5.217,2.89l-0.42,0.744
		c-0.815-0.312-1.583-0.672-2.29-1.056v0.54h-5.541v-0.54C124.459,53.818,123.704,54.166,122.9,54.49z M123.26,51.251l-0.731-0.468
		c0.756-0.912,1.308-1.907,1.644-2.999l0.827,0.181c-0.107,0.323-0.228,0.636-0.348,0.947h3.227v0.791h-1.691
		c0.228,0.384,0.42,0.744,0.563,1.08l-0.779,0.287c-0.192-0.479-0.42-0.935-0.66-1.367h-1.031
		C123.979,50.268,123.644,50.784,123.26,51.251z M131.499,58.891h-0.827v-0.54h-5.517v0.54h-0.828v-3.79h7.172V58.891z
		 M130.672,57.56v-1.667h-5.517v1.667H130.672z M127.901,51.539c-0.659,0.588-1.415,1.14-2.278,1.644h4.605
		C129.377,52.69,128.597,52.139,127.901,51.539z M128.525,50.759l-0.72-0.443c0.623-0.756,1.067-1.596,1.343-2.519l0.828,0.18
		c-0.108,0.336-0.229,0.647-0.348,0.936h3.598v0.791h-1.943c0.288,0.456,0.528,0.888,0.708,1.271l-0.779,0.276
		c-0.24-0.54-0.516-1.056-0.828-1.548h-1.151C129.017,50.076,128.777,50.423,128.525,50.759z"/>
</g>
<g>
	<path d="M59.998,52.451c-0.096,2.662-0.708,4.81-1.859,6.44l-0.671-0.6c1.079-1.464,1.631-3.502,1.679-6.104V48.42h8.779v0.84
		H60.01v2.375h7.173v0.768c-0.433,1.511-1.224,2.807-2.375,3.886c0.983,0.731,2.183,1.367,3.61,1.919l-0.468,0.756
		c-1.512-0.624-2.759-1.332-3.767-2.136c-1.104,0.864-2.446,1.584-4.029,2.159l-0.48-0.731c1.535-0.54,2.819-1.199,3.851-1.991
		c-1.199-1.115-2.003-2.387-2.411-3.813H59.998z M66.318,52.451h-4.39c0.384,1.247,1.116,2.339,2.207,3.298
		C65.167,54.79,65.887,53.698,66.318,52.451z"/>
	<path d="M71.015,50.219l-0.647,0.288c-0.264-0.707-0.54-1.331-0.84-1.883l0.684-0.216C70.522,48.96,70.787,49.572,71.015,50.219z
		 M72.178,47.941v2.975h0.924v-2.975h0.792v2.975h1.499v0.815h-0.852l-0.504,1.511h1.247v0.756h-2.219v1.308h1.991v0.755h-1.991
		v1.523c0.876-0.084,1.655-0.18,2.327-0.3v0.779c-1.248,0.217-3.106,0.396-5.577,0.528l-0.12-0.804
		c0.911-0.036,1.751-0.084,2.519-0.132V56.06h-1.991v-0.755h1.991v-1.308h-2.291v-0.756h1.26l-0.408-1.511h-1.103v-0.815h1.727
		v-2.975H72.178z M73.245,53.242l0.504-1.511h-2.183l0.396,1.511H73.245z M75.729,48.529c-0.217,0.743-0.492,1.391-0.816,1.967
		l-0.684-0.252c0.288-0.504,0.552-1.14,0.768-1.907L75.729,48.529z M77.719,55.389l-0.731,0.336
		c-0.396-1.104-0.827-2.087-1.308-2.927l0.744-0.24C76.915,53.446,77.348,54.381,77.719,55.389z M78.499,50.375v-2.471h0.839v2.471
		h1.104v0.84h-1.104v6.584c0,0.708-0.359,1.067-1.067,1.067H76.76l-0.18-0.827c0.491,0.036,0.959,0.06,1.402,0.06
		c0.336,0,0.517-0.18,0.517-0.516v-6.368H75.8v-0.84H78.499z"/>
</g>
<g>
	<path d="M47.593,25.782c-0.601-0.048-1.177,0.12-1.704,0.408c-0.528,0.312-1.009,0.743-1.393,1.224
		c-1.656-1.368-2.712-3.024-3.36-4.872c-0.72-2.04-0.984-4.272-1.104-6.529h-0.169c-0.287,2.377-0.768,4.681-1.943,6.673
		c-1.681,2.832-4.465,4.368-7.537,5.377l-0.168-0.385c2.305-1.2,4.513-3.264,5.688-5.664c0.792-1.656,1.225-4.2,1.393-6.001h-2.545
		c-0.527,0-1.032,0.097-1.487,0.288c0,0-0.601-0.72-0.601-0.815c-0.72,1.68-1.464,3.528-2.185,5.28
		c-0.239,0.552-0.264,1.32-0.216,1.896c0.072,1.008,0.24,2.063,0.456,3.048c0.072,0.312,0.024,0.672-0.12,0.937
		c-0.144,0.287-0.384,0.504-0.744,0.527c-0.504,0.048-1.031-0.191-1.439-0.504c-0.312-0.264-0.504-0.552-0.601-0.888
		c-0.071-0.385,0-0.816,0.097-1.248c0.216-0.744,0.312-1.536,0.336-2.305c0.023-0.479-0.12-0.936-0.48-1.248
		c-0.336-0.264-1.152-0.552-1.56-0.672l0.048-0.384c0.527,0.096,1.176,0.168,1.752,0.144c0.312,0,0.6-0.168,0.84-0.479
		c1.729-2.641,3.36-5.257,4.969-7.993l0.336,0.192c-0.433,1.176-0.984,2.304-1.416,3.479h4.561c0.12-1.512,0.168-2.952,0.168-4.536
		c-1.465,0.048-2.904,0.12-4.393,0.072v-0.408c3.672-0.672,7.248-1.536,10.417-3.456c0.72,0.744,1.584,1.752,2.208,2.592
		c0.096,0.145-0.024,0.408-0.192,0.385c-0.768-0.049-1.656-0.072-2.328,0.071c-1.008,0.24-2.063,0.385-3.096,0.48
		c-0.024,1.56-0.048,3.168-0.192,4.8h3.217c0.264-0.432,0.84-1.199,1.176-1.632c0.12-0.144,0.312-0.12,0.432-0.023
		c0.769,0.575,1.656,1.368,2.185,1.943c0.12,0.145,0.048,0.456-0.168,0.456h-6.145c0.408,2.328,1.296,4.44,2.856,6.312
		c1.176,1.417,2.712,2.377,4.248,3.072L47.593,25.782z M29.759,16.613c-0.24,0.192-0.504,0.24-0.744,0.168
		c-0.288-0.072-0.528-0.36-0.6-0.744c-0.265-1.368-0.889-2.641-2.04-3.576l0.216-0.288c1.248,0.312,2.568,0.648,3.504,1.608
		c0.408,0.407,0.528,0.96,0.433,1.487C30.431,15.821,30.143,16.35,29.759,16.613z M31.775,11.116
		c-0.265,0.265-0.576,0.408-0.889,0.337c-0.336-0.049-0.672-0.36-0.864-1.057c-0.359-1.152-1.199-2.4-2.352-3.192l0.12-0.312
		c1.512,0.216,2.976,0.672,4.032,1.56c0.384,0.336,0.528,0.841,0.504,1.272C32.327,10.253,32.087,10.78,31.775,11.116z"/>
	<path d="M70.152,22.854h-9.265v1.152c0,0.936,0.023,1.872,0.071,2.809c0.024,0.288-0.096,0.552-0.264,0.672
		c-0.576,0.384-1.44,0.672-1.968,0.696c-0.265,0-0.504-0.12-0.48-0.408c0.024-0.816,0.072-1.729,0.072-2.593v-2.328h-7.729
		c-0.385,0-0.744,0.048-1.057,0.145l-0.6-0.889h9.385v-2.088h-2.904v0.48c0,0.264-0.192,0.527-0.336,0.6
		c-0.504,0.24-1.2,0.432-1.729,0.552c-0.216,0.024-0.432-0.216-0.408-0.408c0.024-0.84,0.072-2.16,0.072-2.952v-4.464
		c0-0.504,0-1.248-0.024-1.656c0.864,0.336,1.992,0.816,2.665,1.128h8.064c0.168-0.24,0.504-0.648,0.744-0.96
		c0.096-0.096,0.24-0.12,0.336-0.072c0.552,0.336,1.632,1.032,2.136,1.416c0.097,0.072,0.12,0.36,0.024,0.408
		c-0.432,0.216-0.769,0.504-0.769,0.84v3.217c0,0.647,0.024,1.32,0.097,1.992c0.023,0.264-0.072,0.456-0.216,0.552
		c-0.456,0.265-1.08,0.528-1.849,0.672c-0.192,0.024-0.48-0.168-0.48-0.432v-0.912h-2.855v2.088h5.424
		c0.408-0.576,0.864-1.104,1.368-1.607c0.072-0.072,0.24-0.072,0.336,0.023c0.744,0.601,1.704,1.464,2.232,1.992
		C70.368,22.638,70.32,22.854,70.152,22.854z M69.937,10.517h-6.457c-0.023,0.288,0,0.769,0.024,1.176
		c0.048,0.312-0.097,0.624-0.433,0.792c-0.576,0.265-1.2,0.456-1.848,0.553c-0.216,0.023-0.384-0.216-0.36-0.433
		c0.048-0.672,0.072-1.392,0.048-2.088h-2.76c-0.024,0.36,0,0.816,0.023,1.152c0.024,0.24-0.071,0.479-0.288,0.647
		c-0.6,0.408-1.296,0.624-2.016,0.624c-0.216,0-0.336-0.144-0.336-0.359c0.071-0.696,0.071-1.416,0.096-2.064h-4.776
		c-0.36,0-0.768,0.096-1.104,0.24l-0.695-0.984h6.576V8.74c0-0.456,0-1.296-0.048-1.992c1.128,0.288,2.232,0.576,3.265,0.96
		c0.119,0.049,0.144,0.336,0.048,0.36c-0.36,0.12-0.769,0.36-0.769,0.624v1.08h2.809v-1.56c0-0.505,0-1.032-0.024-1.536
		c1.104,0.287,2.208,0.552,3.265,0.96c0.168,0.071,0.144,0.359,0,0.407c-0.456,0.192-0.72,0.456-0.72,0.721v1.008h2.424
		c0.288-0.36,0.984-1.128,1.392-1.56c0.097-0.097,0.265-0.097,0.36-0.024c0.576,0.456,1.584,1.296,2.353,1.992
		C70.128,10.301,70.057,10.517,69.937,10.517z M63.743,14.069h-8.328v2.231h8.328V14.069z M63.743,17.045h-8.328v2.232h8.328V17.045
		z"/>
	<path d="M81.626,9.461c-0.12,0.071-0.192,0.216-0.192,0.359v3.505c0,0.624,0.024,1.584,0.072,2.208
		c0.023,0.24-0.097,0.504-0.288,0.624c-0.504,0.264-1.104,0.479-1.729,0.528c-0.264,0.023-0.456-0.192-0.456-0.385v-0.792h-3.048
		v8.257c0,1.08,0.023,2.185,0.072,3.24c0.023,0.265-0.097,0.456-0.312,0.601c-0.288,0.216-1.416,0.576-1.824,0.552
		c-0.24-0.024-0.432-0.145-0.408-0.408c0.024-0.984,0.072-2.856,0.072-4.32V9.244c0-0.72-0.048-1.584-0.144-2.208
		c0.936,0.36,1.92,0.84,2.784,1.296h2.592c0.264-0.336,0.648-0.768,0.912-1.08c0.192-0.191,0.312-0.144,0.504-0.023
		c0.576,0.36,1.393,1.032,1.872,1.488c0.097,0.096,0.12,0.239,0.024,0.359C82.01,9.196,81.817,9.364,81.626,9.461z M79.033,9.101
		h-3.048v2.328h3.048V9.101z M79.033,12.148h-3.048v2.616h3.048V12.148z M86.378,19.325c-0.096,0.072-0.216,0.24-0.216,0.384v1.608
		c0,0.769,0.024,1.536,0.024,2.257c0.023,0.287-0.097,0.407-0.337,0.552c-0.432,0.216-1.031,0.408-1.487,0.408
		c-0.312,0-0.456-0.192-0.456-0.48v-1.032H80.81v0.912c0,0.265-0.096,0.576-0.336,0.696c-0.48,0.288-1.008,0.48-1.584,0.576
		c-0.24,0.023-0.504-0.192-0.48-0.408c0.072-1.104,0.12-2.424,0.12-3.624v-1.561c0-0.864-0.023-1.848-0.096-2.64
		c0.864,0.336,1.704,0.815,2.448,1.248h2.76c0.24-0.36,0.528-0.769,0.912-1.08c0.12-0.072,0.265-0.097,0.408,0
		c0.504,0.359,1.416,1.056,1.849,1.439c0.144,0.12,0.168,0.288,0.023,0.408C86.714,19.109,86.498,19.229,86.378,19.325z
		 M83.906,18.966H80.81v3.312h3.097V18.966z M91.49,9.364c-0.144,0.072-0.264,0.265-0.264,0.408v14.953
		c0,1.177-0.264,1.921-0.769,2.425c-0.552,0.576-1.416,0.84-2.472,1.056c-0.096-0.768-0.384-1.344-0.792-1.8
		c-0.601-0.648-1.416-1.032-2.28-1.32l0.048-0.384c1.008,0.168,2.353,0.312,3.385,0.359c0.312,0,0.479-0.216,0.479-0.479v-9.073
		h-3.024c0,0.216-0.048,0.408-0.239,0.553c-0.553,0.312-1.177,0.575-1.849,0.6c-0.24,0-0.408-0.096-0.384-0.384
		c0.048-0.864,0.071-1.969,0.071-2.952V9.437c0-0.72,0-1.656-0.048-2.353c0.841,0.385,1.656,0.792,2.496,1.248h2.833
		c0.264-0.336,0.6-0.72,0.96-0.983c0.12-0.12,0.264-0.12,0.408-0.024c0.479,0.312,1.368,0.96,1.848,1.32
		c0.145,0.12,0.145,0.36,0.024,0.456S91.658,9.269,91.49,9.364z M88.826,9.101h-3.024v2.328h3.024V9.101z M88.826,12.148h-3.024
		v2.616h3.024V12.148z"/>
	<path d="M114.476,20.55c-0.456,0.432-0.792,1.032-0.984,1.56c-1.344-0.576-2.592-1.344-3.769-2.304
		c-0.096,0.936-0.288,1.848-0.527,2.712c-0.192,0.744-0.648,1.176-1.2,1.464c-0.576,0.288-1.272,0.408-1.969,0.528
		c-0.071-0.864-0.312-1.416-0.72-1.8c-0.408-0.385-0.96-0.601-1.632-0.816l0.023-0.36c0.864,0.12,1.801,0.192,2.713,0.192
		c0.336,0,0.527-0.216,0.6-0.552c0.12-0.504,0.216-1.368,0.264-1.896h-4.704v5.616c0,0.312,0.168,0.576,0.528,0.601
		c2.208,0.144,4.561,0.096,6.769-0.072c0.432-0.024,0.84-0.432,0.96-0.84c0.288-0.889,0.479-1.776,0.696-2.688l0.384,0.048
		c0,0.889,0.023,1.656,0.24,2.28c0.239,0.576,0.672,1.032,1.439,1.272c-0.239,0.696-0.624,1.224-1.08,1.56
		c-0.576,0.433-1.296,0.624-2.04,0.673c-2.784,0.096-5.496,0.119-8.28,0c-0.624-0.024-1.152-0.288-1.536-0.673
		c-0.36-0.359-0.576-0.863-0.576-1.487v-5.641c-1.729,1.296-3.576,2.328-5.473,3.168l-0.216-0.312
		c2.568-1.752,5.088-4.008,6.553-6.769H96.81c-0.432,0-1.008,0.097-1.392,0.24l-0.648-0.984h6.577
		c0.359-0.672,0.647-1.416,0.863-2.136h-4.729c-0.359,0-0.863,0.096-1.199,0.24l-0.576-0.984h6.744
		c0.552-1.752,1.008-3.601,1.032-5.593c1.152,0.265,2.304,0.601,3.36,1.032c0.144,0.048,0.168,0.265,0.048,0.336
		c-0.168,0.145-0.432,0.288-0.624,0.36c-0.12,0.048-0.216,0.192-0.264,0.432c-0.312,1.152-0.648,2.305-0.984,3.433h1.8
		c1.009-1.608,1.921-3.312,2.425-5.137c1.056,0.456,2.088,0.961,3.048,1.488c0.12,0.097,0.168,0.288,0.024,0.36
		c-0.12,0.072-0.312,0.168-0.504,0.24c-0.145,0.048-0.288,0.096-0.385,0.191c-1.151,1.009-2.376,2.04-3.648,2.856h3.001
		c0.384-0.552,0.792-1.056,1.2-1.56c0.12-0.12,0.264-0.145,0.432-0.049c0.769,0.576,1.584,1.225,2.232,1.992
		c0.096,0.145,0.023,0.36-0.168,0.36h-9.721c-0.265,0.744-0.553,1.464-0.889,2.136h8.017c0.336-0.504,0.816-1.176,1.177-1.607
		c0.096-0.12,0.336-0.12,0.456-0.024c0.672,0.504,1.512,1.296,2.088,1.992c0.144,0.12,0.048,0.36-0.145,0.36h-7.776
		c2.185,2.376,5.353,3.072,8.257,3.48v0.336C115.388,19.854,114.884,20.142,114.476,20.55z M100.938,11.812
		c-0.312,0.192-0.648,0.24-0.96,0.024c-0.24-0.145-0.48-0.456-0.673-0.96c-0.407-1.009-1.08-1.992-2.136-2.593l0.096-0.24
		c1.513,0.049,2.952,0.312,4.057,1.272c0.36,0.312,0.456,0.864,0.384,1.32C101.61,11.141,101.298,11.572,100.938,11.812z
		 M107.011,16.013h-3.504c-0.456,0.721-1.057,1.488-1.536,2.089l0.792,0.432h4.392c0.168-0.192,0.528-0.504,0.816-0.768
		C107.61,17.189,107.274,16.637,107.011,16.013z"/>
</g>
<g>
	<rect x="5" y="37.5" fill="#999999" width="132" height="1"/>
</g>
<g>
	<g>
		<circle fill="#00FFB0" cx="22" cy="76.5" r="10"/>
	</g>
	<g>
		<polygon fill="#FFFFFF" points="20.55,82.646 15.531,76.623 16.684,75.663 20.593,80.354 27.395,72.784 28.51,73.787 		"/>
	</g>
</g>
<g>
	<g>
		<circle fill="#808080" cx="116" cy="76.5" r="10"/>
	</g>
	<g>
		<path fill="#FFFFFF" d="M116.631,79.917l-1.5-0.001l0.003-3.547h0.749c1.522,0,2.762-1.239,2.762-2.762s-1.239-2.762-2.762-2.762
			c-1.545,0-2.756,1.159-2.756,2.638h-1.5c0-2.282,1.909-4.138,4.256-4.138c2.35,0,4.262,1.912,4.262,4.262
			c0,2.095-1.519,3.841-3.512,4.196L116.631,79.917z"/>
	</g>
	<g>
		<circle fill="#FFFFFF" cx="115.881" cy="82.667" r="1.291"/>
	</g>
</g>
<g>
	<g>
		<circle fill="#FF0055" cx="69" cy="76.5" r="10"/>
	</g>
	<g>
		
			<rect x="62.308" y="76.107" transform="matrix(0.7071 0.7071 -0.7071 0.7071 74.5532 -26.2796)" fill="#FFFFFF" width="13.385" height="1.5"/>
	</g>
	<g>
		
			<rect x="68.25" y="70.165" transform="matrix(0.7071 0.7071 -0.7071 0.7071 74.5559 -26.2794)" fill="#FFFFFF" width="1.5" height="13.385"/>
	</g>
</g>
</svg>
