<?xml version="1.0" encoding="utf-8"?>
<!-- Generator: Adobe Illustrator 17.0.0, SVG Export Plug-In . SVG Version: 6.00 Build 0)  -->
<!DOCTYPE svg PUBLIC "-//W3C//DTD SVG 1.1//EN" "http://www.w3.org/Graphics/SVG/1.1/DTD/svg11.dtd">
<svg version="1.1" id="Layer_1" xmlns="http://www.w3.org/2000/svg" xmlns:xlink="http://www.w3.org/1999/xlink" x="0px" y="0px"
	 width="218px" height="62px" viewBox="0 0 218 62" enable-background="new 0 0 218 62" xml:space="preserve">
<g>
	<path d="M92.417,21.405v1.571h4.713v0.84h-4.713v1.835h3.226v0.768c-0.671,1.343-1.643,2.494-2.914,3.454
		c0.6,0.336,1.26,0.659,1.979,0.947c0.852,0.324,1.764,0.6,2.735,0.84l-0.504,0.755c-1.031-0.275-2.016-0.6-2.938-0.983
		c-0.744-0.323-1.403-0.671-2.003-1.055c-1.367,0.863-2.998,1.547-4.905,2.062L86.6,31.671c1.823-0.432,3.383-1.031,4.666-1.799
		c-0.624-0.479-1.176-1.008-1.632-1.596c-0.443-0.552-0.755-1.163-0.935-1.822h-0.924v-0.804h3.754v-1.835h-4.666v-0.84h4.666
		v-1.571H92.417z M94.672,26.455H89.55c0.217,0.647,0.552,1.211,1.008,1.703c0.408,0.468,0.888,0.887,1.428,1.247
		C93.148,28.589,94.048,27.606,94.672,26.455z"/>
	<path d="M98.947,32.295l-0.18-0.828c0.324,0.036,0.636,0.061,0.936,0.061c0.324,0,0.492-0.181,0.492-0.54v-2.843
		c-0.456,0.168-0.924,0.336-1.403,0.48l-0.216-0.864c0.552-0.132,1.091-0.287,1.619-0.479v-2.746h-1.487v-0.828h1.487v-2.146h0.839
		v2.146h1.248v0.828h-1.248v2.422c0.433-0.191,0.852-0.396,1.271-0.611v0.876c-0.42,0.216-0.839,0.407-1.271,0.587v3.395
		c0,0.72-0.348,1.092-1.031,1.092H98.947z M107.02,27.222v-0.924h0.839v0.924h1.464v0.803h-1.464v3.263
		c0,0.684-0.348,1.031-1.031,1.031h-1.559l-0.168-0.815c0.504,0.036,0.983,0.06,1.438,0.06c0.312,0,0.48-0.168,0.48-0.479v-3.059
		h-4.45v-0.803H107.02z M106.312,21.441v1.235h2.843v0.804h-2.843v1.403h2.519v0.791h-5.78v-0.791h2.422V23.48h-2.854v-0.804h2.854
		v-1.235H106.312z M105.256,30.52L104.572,31c-0.359-0.6-0.839-1.259-1.451-1.99l0.696-0.42
		C104.44,29.321,104.921,29.968,105.256,30.52z"/>
</g>
<g>
	<path d="M156.023,21.119v1.644h4.114v0.84h-4.114v2.122h4.75v0.84h-3.958c0.804,1.511,2.194,2.854,4.161,4.042l-0.6,0.768
		c-2.038-1.439-3.466-3.034-4.257-4.81h-0.097v5.469h-0.888v-5.469h-0.107c-0.863,1.967-2.314,3.574-4.354,4.846l-0.492-0.804
		c1.919-1.056,3.311-2.398,4.174-4.042h-3.97v-0.84h4.749v-2.122h-4.029v-0.84h4.029v-1.644H156.023z"/>
	<path d="M172.39,31.878h-0.84v-0.516h-7.939v0.516h-0.84V21.791h9.619V31.878z M171.55,30.595v-8.036h-7.939v8.036H171.55z
		 M169.906,24.418v4.27h-4.629v-4.27H169.906z M169.091,25.161h-3.01v2.795h3.01V25.161z"/>
	<path d="M177.505,27.128c-0.264,0.432-0.588,0.852-0.972,1.235v3.742h-0.791V29.06c-0.36,0.275-0.768,0.539-1.199,0.791
		l-0.229-0.756c1.151-0.659,1.979-1.415,2.507-2.278L177.505,27.128z M177.373,25.041c-0.563,0.864-1.475,1.632-2.734,2.303
		l-0.228-0.731c1.055-0.552,1.822-1.175,2.303-1.883L177.373,25.041z M178.452,28.771v-2.339c-0.216,0.191-0.432,0.372-0.671,0.54
		l-0.432-0.564c0.768-0.516,1.295-1.127,1.595-1.822h-3.778v-1.943h2.699v-0.611h-3.37v-0.66h10.194v0.66h-3.383v0.611h2.699v1.943
		h-4.294c-0.072,0.203-0.156,0.396-0.252,0.575h5.001v0.576h-5.36c-0.156,0.191-0.312,0.371-0.48,0.539h5.277v2.495h-3.022
		c-0.12,0.191-0.275,0.359-0.443,0.527h3.502v0.492c-0.456,0.527-1.044,0.959-1.763,1.295c0.839,0.18,1.799,0.276,2.866,0.288
		l-0.276,0.636c-1.438-0.024-2.65-0.192-3.634-0.528c-0.995,0.312-2.171,0.504-3.526,0.576l-0.3-0.66
		c1.067-0.048,2.016-0.155,2.831-0.323c-0.456-0.229-0.84-0.492-1.163-0.792c-0.349,0.168-0.72,0.324-1.116,0.479l-0.348-0.563
		c0.372-0.132,0.708-0.264,1.02-0.384c-0.144-0.168-0.275-0.348-0.384-0.516l0.563-0.168c0.108,0.145,0.229,0.288,0.36,0.42
		c0.468-0.264,0.815-0.516,1.043-0.779H178.452z M177.865,23.206h-1.896v0.828h1.896V23.206z M180.516,22.031h-1.859v0.611h1.859
		V22.031z M180.516,23.206h-1.859v0.828h1.859V23.206z M183.13,27.296v-0.527h-3.922v0.527H183.13z M183.13,27.728h-3.922v0.54
		h3.922V27.728z M182.938,29.851h-3.215c-0.071,0.048-0.144,0.084-0.191,0.12c0.455,0.336,0.983,0.611,1.606,0.827
		C181.871,30.559,182.471,30.234,182.938,29.851z M183.214,23.206h-1.907v0.828h1.907V23.206z"/>
</g>
<g>
	<path d="M120.998,25.951c-0.096,2.662-0.708,4.81-1.859,6.44l-0.671-0.6c1.079-1.464,1.631-3.502,1.679-6.104V21.92h8.779v0.84
		h-7.916v2.375h7.173v0.768c-0.433,1.511-1.224,2.807-2.375,3.886c0.983,0.731,2.183,1.367,3.61,1.919l-0.468,0.756
		c-1.512-0.624-2.759-1.332-3.767-2.136c-1.104,0.864-2.446,1.584-4.029,2.159l-0.48-0.731c1.535-0.54,2.819-1.199,3.851-1.991
		c-1.199-1.115-2.003-2.387-2.411-3.813H120.998z M127.318,25.951h-4.39c0.384,1.247,1.116,2.339,2.207,3.298
		C126.167,28.29,126.887,27.198,127.318,25.951z"/>
	<path d="M132.015,23.719l-0.647,0.288c-0.264-0.707-0.54-1.331-0.84-1.883l0.684-0.216
		C131.522,22.46,131.787,23.072,132.015,23.719z M133.178,21.441v2.975h0.924v-2.975h0.792v2.975h1.499v0.815h-0.852l-0.504,1.511
		h1.247v0.756h-2.219v1.308h1.991v0.755h-1.991v1.523c0.876-0.084,1.655-0.18,2.327-0.3v0.779c-1.248,0.217-3.106,0.396-5.577,0.528
		l-0.12-0.804c0.911-0.036,1.751-0.084,2.519-0.132V29.56h-1.991v-0.755h1.991v-1.308h-2.291v-0.756h1.26l-0.408-1.511h-1.103
		v-0.815h1.727v-2.975H133.178z M134.245,26.742l0.504-1.511h-2.183l0.396,1.511H134.245z M136.729,22.029
		c-0.217,0.743-0.492,1.391-0.816,1.967l-0.684-0.252c0.288-0.504,0.552-1.14,0.768-1.907L136.729,22.029z M138.719,28.889
		l-0.731,0.336c-0.396-1.104-0.827-2.087-1.308-2.927l0.744-0.24C137.915,26.946,138.348,27.881,138.719,28.889z M139.499,23.875
		v-2.471h0.839v2.471h1.104v0.84h-1.104v6.584c0,0.708-0.359,1.067-1.067,1.067h-1.511l-0.18-0.827
		c0.491,0.036,0.959,0.06,1.402,0.06c0.336,0,0.517-0.18,0.517-0.516v-6.368H136.8v-0.84H139.499z"/>
</g>
<g>
	<path d="M18.623,38.961c1.566,1.999,4.016,3.907,6.41,4.952c-0.504,0.432-1.188,1.296-1.549,1.854
		c-2.124-1.099-4.213-2.899-5.852-4.952v5.726h-2.286v-5.617c-1.639,1.98-3.745,3.728-5.853,4.825
		c-0.359-0.54-1.062-1.404-1.584-1.854c2.412-1.026,4.861-2.935,6.445-4.934H8.522v-2.124h6.824v-2.305H9.873v-2.125h5.474v-2.683
		h2.286v2.683h5.636v2.125h-5.636v2.305h6.933v2.124H18.623z"/>
	<path d="M41.486,40.312c-0.504-0.558-1.423-1.351-2.323-2.089c-0.359,0.595-0.756,1.117-1.206,1.549
		c-0.306-0.252-0.9-0.648-1.404-0.918c1.603,2.124,4.177,4.033,6.878,5.023c-0.522,0.45-1.225,1.368-1.584,1.962
		c-2.179-1.008-4.214-2.628-5.834-4.555v5.239h-2.251v-5.132c-1.62,1.891-3.637,3.457-5.779,4.447
		c-0.343-0.521-1.045-1.386-1.513-1.836c2.917-1.135,5.726-3.367,7.292-5.798v-4.159h-6.554v-2.106h6.554v-2.215h2.251v2.215h6.788
		v2.106h-6.788v4.033c0.09,0.144,0.18,0.27,0.27,0.414c1.152-1.026,1.909-2.629,2.27-4.339l2.088,0.378
		c-0.162,0.666-0.359,1.314-0.594,1.927c1.026,0.792,2.269,1.746,2.935,2.358L41.486,40.312z M32.214,34.55
		c-0.181,0.666-0.396,1.314-0.648,1.944c0.648,0.559,1.332,1.152,1.746,1.585l-1.44,1.494c-0.27-0.342-0.72-0.792-1.206-1.26
		c-0.595,0.972-1.278,1.818-2.07,2.466c-0.343-0.378-1.188-1.08-1.657-1.404c1.585-1.134,2.684-3.024,3.188-5.221L32.214,34.55z"/>
	<path d="M50.465,34.406c-0.611,4.699-2.124,8.517-4.159,10.533c-0.306-0.486-1.098-1.314-1.566-1.621
		c1.639-1.548,2.827-4.195,3.403-7.364H45.37v-1.927h3.402l0.396-0.09L50.465,34.406z M54.498,40.815h2.755v1.801h-2.755v1.423
		c0,1.098-0.233,1.639-0.972,1.962c-0.721,0.343-1.765,0.379-3.223,0.379c-0.108-0.595-0.45-1.477-0.721-2.035
		c0.954,0.036,1.999,0.036,2.305,0.036c0.324-0.018,0.433-0.09,0.433-0.378v-1.387h-2.953v-1.801h2.953v-1.062h-2.161v-1.801h2.161
		v-0.937h-1.783v-1.801h1.783v-1.351c0.954-0.432,1.944-1.098,2.79-1.764h-7.328v-1.945h9.399l0.485-0.107l1.44,1.08
		c-1.188,1.297-2.845,2.629-4.609,3.602v0.485h1.621v1.801h-1.621v0.937h1.945v1.801h-1.945V40.815z M61.412,34.334
		c-0.882,0.792-1.926,1.656-2.845,2.286c0.576,2.791,1.639,5.312,3.367,6.645c-0.504,0.396-1.17,1.188-1.494,1.765
		c-2.179-1.891-3.259-5.222-3.89-9.075c1.009-0.756,2.396-2.017,3.205-2.988L61.412,34.334z"/>
	<path d="M69.653,34.37h-6.535v-1.692h2.935c-0.271-0.685-0.702-1.585-1.099-2.27l1.566-0.773c0.505,0.738,1.026,1.729,1.297,2.395
		l-1.152,0.648h2.988V34.37z M69.258,45.533h-3.709v0.756H63.82v-6.212h5.438V45.533z M69.132,36.801h-5.275V35.18h5.275V36.801z
		 M63.856,37.593h5.275v1.62h-5.275V37.593z M67.493,41.788h-1.944v2.017h1.944V41.788z M74.354,37.935
		c-0.252,0.667-0.522,1.278-0.811,1.873h5.708v6.68h-2.017v-0.684h-3.439v0.756h-1.908v-4.249c-0.36,0.432-0.757,0.792-1.171,1.152
		c-0.288-0.414-1.026-1.188-1.458-1.549c1.314-0.973,2.286-2.322,2.988-3.979h-2.557V35.99h3.205c0.126-0.45,0.216-0.9,0.307-1.368
		h-1.639v-1.404h-1.711v-1.873h1.711v-1.62h2.053v1.62h1.062v1.873h-1.062v1.008l1.656,0.271c-0.108,0.521-0.216,1.008-0.342,1.494
		h4.987v1.944H74.354z M73.795,41.662v2.287h3.439v-2.287H73.795z M76.208,33.182h-1.062v-1.854h1.062v-1.603h2.088v1.603h1.513
		v1.854h-1.513v1.44h-2.088V33.182z"/>
</g>
<g>
	<g>
		<circle fill="#00FFB0" cx="98" cy="46" r="10"/>
	</g>
	<g>
		<polygon fill="#FFFFFF" points="96.55,52.146 91.531,46.123 92.684,45.163 96.593,49.854 103.395,42.284 104.51,43.287 		"/>
	</g>
</g>
<g>
	<g>
		<circle fill="#808080" cx="200" cy="38" r="10"/>
	</g>
	<g>
		<path fill="#FFFFFF" d="M200.631,41.417l-1.5-0.001l0.003-3.547h0.749c1.522,0,2.762-1.239,2.762-2.762s-1.239-2.762-2.762-2.762
			c-1.545,0-2.756,1.159-2.756,2.638h-1.5c0-2.282,1.909-4.138,4.256-4.138c2.35,0,4.262,1.912,4.262,4.262
			c0,2.095-1.519,3.841-3.512,4.196L200.631,41.417z"/>
	</g>
	<g>
		<circle fill="#FFFFFF" cx="199.881" cy="44.167" r="1.291"/>
	</g>
</g>
<g>
	<g>
		<circle fill="#FF0055" cx="130" cy="46" r="10"/>
	</g>
	<g>
		
			<rect x="123.308" y="45.607" transform="matrix(0.7071 0.7071 -0.7071 0.7071 70.8524 -78.3447)" fill="#FFFFFF" width="13.385" height="1.5"/>
	</g>
	<g>
		
			<rect x="129.25" y="39.665" transform="matrix(0.7071 0.7071 -0.7071 0.7071 70.8556 -78.3462)" fill="#FFFFFF" width="1.5" height="13.385"/>
	</g>
</g>
<g>
	<path d="M169.164,41.05c-0.111-0.152-0.207-0.312-0.287-0.479c-0.448,0.543-0.943,0.975-1.479,1.295l-0.312-0.496
		c0.567-0.344,1.079-0.808,1.527-1.399c-0.112-0.304-0.2-0.631-0.28-0.983c-0.185-0.815-0.28-1.775-0.288-2.878h-4.021v-0.56h4.021
		v-1.023h0.576v1.023h1.175c-0.136-0.288-0.288-0.56-0.448-0.8l0.584-0.096c0.145,0.264,0.288,0.56,0.424,0.896h0.775v0.56h-2.502
		c0.016,0.976,0.088,1.839,0.224,2.591c0.048,0.248,0.097,0.479,0.16,0.695c0.448-0.735,0.823-1.607,1.127-2.614l0.504,0.271
		c-0.376,1.208-0.839,2.215-1.399,3.031c0.08,0.184,0.16,0.352,0.248,0.496c0.279,0.416,0.527,0.624,0.752,0.624
		c0.191,0,0.359-0.456,0.496-1.367l0.495,0.328c-0.216,1.104-0.528,1.663-0.928,1.663C169.908,41.817,169.532,41.562,169.164,41.05z
		 M167.613,40.402c-1.063,0.288-2.215,0.536-3.446,0.735l-0.144-0.567c1.247-0.16,2.438-0.4,3.59-0.728V40.402z M167.365,36.948
		v2.438h-2.934v-2.438H167.365z M166.798,37.484h-1.791v1.383h1.791V37.484z"/>
</g>
<g>
	<path d="M160.713,44.887v0.84h-3.934c-0.216,0.492-0.467,0.971-0.756,1.439v0.552c1.92,1.127,3.574,2.363,4.966,3.706l-0.588,0.708
		c-1.175-1.247-2.626-2.411-4.378-3.502v6.644h-0.887v-6.86c-1.127,1.391-2.615,2.638-4.449,3.718l-0.564-0.744
		c2.734-1.559,4.629-3.442,5.697-5.661h-5.373v-0.84H160.713z"/>
	<path d="M167.137,45.294v-1.019h0.887v1.019h4.33v0.792h-4.33v1.14h3.635v0.792h-3.635v1.164h4.63v0.779h-5.493
		c-0.42,0.6-0.959,1.14-1.607,1.643v2.579c0.9-0.276,1.787-0.6,2.676-0.983l0.167,0.804c-1.199,0.503-2.411,0.911-3.657,1.223
		l-0.289-0.744c0.168-0.072,0.252-0.18,0.252-0.324v-1.979c-0.646,0.384-1.367,0.744-2.17,1.08l-0.468-0.756
		c1.919-0.671,3.31-1.511,4.197-2.542h-3.754v-0.779h4.63v-1.164h-3.635v-0.792h3.635v-1.14h-4.33v-0.792H167.137z M172.162,51.159
		c-0.637,0.648-1.355,1.14-2.147,1.476c0.792,0.815,1.812,1.439,3.034,1.847l-0.516,0.744c-2.146-0.779-3.67-2.219-4.569-4.33
		l0.659-0.372c0.24,0.576,0.54,1.103,0.9,1.559c0.719-0.312,1.402-0.815,2.051-1.511L172.162,51.159z"/>
	<path d="M176.198,52.323c-0.288,1.104-0.672,2.063-1.176,2.866l-0.72-0.443c0.504-0.78,0.863-1.643,1.104-2.591L176.198,52.323z
		 M179.196,50.872c0,0.587-0.336,0.888-0.995,0.888h-0.996l-0.203-0.708c0.359,0.024,0.684,0.036,0.982,0.036
		c0.289,0,0.444-0.168,0.444-0.479V50.08c-0.768,0.24-1.619,0.468-2.566,0.684l-0.181-0.624c0.996-0.216,1.908-0.444,2.747-0.708
		v-1.643h-2.734v0.528c0.768,0.096,1.511,0.228,2.207,0.396l-0.228,0.563c-0.648-0.156-1.308-0.276-1.979-0.372
		c-0.024,1.259-0.264,2.279-0.708,3.07l-0.611-0.552c0.359-0.684,0.552-1.547,0.564-2.603v-1.727h4.257V50.872z M179.832,46.434
		l-0.611,0.432c-0.12-0.192-0.252-0.372-0.396-0.563c-0.887,0.096-2.278,0.18-4.149,0.251l-0.096-0.624
		c0.239-0.036,0.491-0.168,0.731-0.396c0.348-0.36,0.707-0.816,1.08-1.379l0.743,0.276c-0.444,0.6-0.876,1.091-1.284,1.451
		c0.9-0.048,1.74-0.084,2.531-0.132c-0.204-0.24-0.42-0.48-0.636-0.72l0.588-0.372C178.98,45.331,179.484,45.93,179.832,46.434z
		 M178.01,55.201c-0.648,0-0.973-0.324-0.973-0.947v-2.135h0.828v1.967c0,0.24,0.119,0.36,0.384,0.36h2.854
		c0.252,0,0.432-0.06,0.539-0.18c0.145-0.144,0.24-0.587,0.288-1.319l0.78,0.252c-0.084,0.947-0.24,1.523-0.48,1.739
		c-0.203,0.168-0.527,0.264-0.971,0.264H178.01z M180.863,53.426l-0.647,0.456c-0.336-0.563-0.792-1.188-1.367-1.871l0.624-0.384
		C180.072,52.311,180.539,52.911,180.863,53.426z M181.031,44.275v0.911l3.467-0.204v0.708l-3.467,0.192v0.78
		c0,0.228,0.12,0.348,0.359,0.348h3.322v0.744h-3.537c-0.624,0-0.936-0.312-0.936-0.912v-2.566H181.031z M184.485,49.42
		l-3.431,0.192v0.863c0,0.276,0.133,0.42,0.408,0.42h1.775c0.24,0,0.408-0.048,0.516-0.132c0.132-0.096,0.216-0.396,0.264-0.888
		l0.72,0.24c-0.071,0.695-0.228,1.127-0.444,1.295c-0.191,0.12-0.503,0.192-0.91,0.192h-2.147c-0.672,0-0.995-0.324-0.995-0.971
		v-2.483h0.814v0.756l3.431-0.192V49.42z M185.073,54.374l-0.672,0.48c-0.407-0.744-0.972-1.571-1.679-2.483l0.672-0.419
		C184.125,52.875,184.689,53.678,185.073,54.374z"/>
</g>
</svg>
