<?xml version="1.0" encoding="utf-8"?>
<!-- Generator: Adobe Illustrator 17.0.0, SVG Export Plug-In . SVG Version: 6.00 Build 0)  -->
<!DOCTYPE svg PUBLIC "-//W3C//DTD SVG 1.1//EN" "http://www.w3.org/Graphics/SVG/1.1/DTD/svg11.dtd">
<svg version="1.1" id="Layer_1" xmlns="http://www.w3.org/2000/svg" xmlns:xlink="http://www.w3.org/1999/xlink" x="0px" y="0px"
	 width="161.106px" height="21.973px" viewBox="0 0 161.106 21.973" enable-background="new 0 0 161.106 21.973"
	 xml:space="preserve">
<g>
	<g>
		<g>
			<path d="M63.807,15.873l0.083-0.121h1.125c0.083,0,0.27-0.06,0.354-0.06c0.062,0,0.333-0.201,0.416-0.201
				c0.187-0.06,0.396-0.06,0.583-0.18c1.041-0.521,1.125-1.303,1.125-2.386v-0.381l-0.083-0.06c0,0-1.041-0.081-1.499-0.081h-0.208
				c-0.875,0-1.77,0.14-2.624,0.22c-0.083,0-0.354,0.041-0.417,0.041c-0.354,0.08-0.812,0.14-1.166,0.14
				c-0.063,0-0.208,0-0.208-0.06c-0.062,0.06-0.187,0.14-0.27,0.14c0,0-0.396,0.04-0.542,0.04c-0.729,0.08-1.368,0.206-2.118,0.466
				c-0.333,0.121-0.875,0.381-1.145,0.521c-0.208,0.12-0.417,0.26-0.687,0.26c-0.208,0-0.417-0.18-0.479-0.401
				c-0.083-0.12-0.083-0.461-0.083-0.642c0-0.22,0-0.26,0.083-0.521c0.146-0.14,0.354-0.08,0.479-0.08l0.208-0.06
				c0.541-0.081,1.02-0.121,1.562-0.201l0.125-0.06h0.416c0.666,0,1.035-0.105,1.722-0.185c0.062,0,0.541-0.06,0.666-0.06
				c0.146,0,1.166-0.08,1.312-0.08c0.042,0,0.312-0.04,0.396-0.04c0.458-0.081,0.875-0.081,1.353-0.081
				c0.271,0,2.166-0.18,2.436-0.18h0.187c0.083,0,0.5-0.08,0.583-0.08l0.042-0.14v-0.441c0,0,0.229-0.201,0.271-0.281
				c0.229-0.121,0.271-0.121,0.5-0.121h0.125c0.063,0,0.333,0.121,0.417,0.201v0.201c0,0.18-0.083,0.321-0.083,0.521v0.06
				c0.812,0.08,1.437,0.08,2.166,0.12c0.666,0,1.353-0.04,1.978-0.04c0,0.702-1.624,1.484-2.249,1.484
				c-0.687,0-1.27-0.401-2.041-0.401c-0.312,0.34-0.312,1.122-0.312,1.604c0,0.04-0.083,0.701-0.083,0.782v0.521
				c0,0.04-0.146,0.301-0.187,0.381l-0.229,0.18l-0.042,0.14l-0.146,0.2c-0.125,0.06-0.708,0.321-0.833,0.401l-0.333,0.04
				l-0.208,0.08h-1c-0.146,0-0.687-0.341-0.812-0.381l-0.541-0.521L63.807,15.873z M61.857,11.062
				c-0.271-0.14-0.416-0.221-0.416-0.542c0-0.2,0.187-0.26,0.27-0.461c0.458-0.12,0.729-0.38,1.083-0.781l0.062-0.121v-0.08
				c-0.062,0-0.271-0.06-0.333-0.06c-0.749,0-1.499,0.201-2.186,0.321l-0.062,0.08c-0.125,0.06-0.479,0.261-0.542,0.261H59.4
				l-0.541-0.521V8.756l0.062-0.201c0-0.06,0.063-0.38,0.063-0.441V7.714c0-0.461,0.083-0.983-0.187-1.364
				c-0.208-0.26-0.687-0.481-0.687-0.782v-0.08c0-0.06,0.145-0.401,0.208-0.441c0.541-0.22,1.291-0.14,1.832-0.22
				c0.604-0.04,1.166-0.121,1.749-0.18c0.5-0.081,0.958-0.081,1.437-0.201c0.062,0,0.062-0.14,0.062-0.22
				c0-0.521-0.146-0.562-0.687-0.562c-0.666,0-1.479,0.04-2.103,0.04c-0.187,0.08-0.396,0.08-0.604,0.22h-0.875
				c-0.146,0-0.271-0.481-0.271-0.602v-0.14c0,0,0.208-0.18,0.271-0.26c0.333-0.3,0.937-0.26,1.416-0.26
				c0.333,0,1.853-0.04,2.166-0.04l0.229-0.081l0.042-0.06L62.94,2.36V2.14c0-0.38,0.541-1.138,0.937-1.138
				c0.146,0,0.271,0,0.417,0.121c0.312,0.22,0.125,1.157,0.27,1.498h0.542c0.666,0,1.395-0.081,2.103-0.081h0.875
				c0.083,0,0.396,0.081,0.541,0.081c0.083,0,0.208,0.04,0.208,0.04v0.08c0,0.14,0,0.06-0.125,0.18l-0.083,0.14
				c-0.063,0.08-0.063,0.201-0.146,0.26c-0.312,0.201-0.541,0.261-0.937,0.261h-0.333c-0.083,0-0.354-0.06-0.396-0.06h-1.978
				c-0.083,0-0.354,0.06-0.416,0.06c0,0-0.083,0.12-0.083,0.2c0,0.14,0.083,0.582,0.083,0.662c0.145,0,0.687,0.04,0.812,0.04h3.873
				c0.145,0.22,0.416,0.22,0.416,0.481c0,0.2-0.229,0.521-0.271,0.642c0,0.08-0.354,0.26-0.354,0.34
				c-0.187,0.321-0.416,1.042-0.458,1.444c0,0.26,0.042,0.642-0.146,0.902c-0.083,0.08-0.625,0.201-0.75,0.26
				c-0.333,0-1.978,0.14-2.311,0.14c-0.396,0-0.666,0.121-1.083,0.121c-0.083,0.08-0.208,0.26-0.271,0.34
				c-0.125,0.18-0.541,0.581-0.541,0.842c0,0.2,0.271,0.12,0.417,0.12h0.27c0.042,0,0.541-0.06,0.583-0.06
				c0.146,0,0.812-0.12,0.77-0.321l-0.146-0.26v-0.06c0-0.2,0.542-0.2,0.687-0.2h0.312c0.146,0.12,0.354,0.26,0.354,0.461
				c0,0.18,0,0.38-0.125,0.521l-0.146,0.06l-0.083,0.06l-1.083,0.521c-0.666,0.261-1.479,0.221-2.083,0.221H61.857z M59.142,14.764
				c0-0.12,0-0.26,0.146-0.381l0.208-0.08l0.125-0.08c1.041,0.08,1.895-0.06,2.853-0.261c0.208-0.06,0.541-0.18,0.812-0.18
				l0.083,0.04c0,0.081-0.083,0.261-0.083,0.341l-0.063,0.06c-0.083,0-0.354,0.281-0.396,0.281l-0.271,0.26
				c-0.27,0.18-0.27,0.14-0.541,0.18c-0.5,0.22-1.041,0.481-1.582,0.521c-0.208,0-0.333,0.08-0.542,0.08c-0.125,0-0.27,0-0.396-0.12
				c-0.083-0.081-0.271-0.481-0.354-0.521V14.764z M60.066,6.129c0,0.26,0,0.401,0.083,0.662h0.125c0.333,0,0.687-0.14,1.041-0.18
				c0.666-0.14,1.353-0.221,2.02-0.341c0.146-0.06,0.062-0.321,0.062-0.441V5.568c-0.062-0.14-0.458-0.14-0.687-0.14h-0.125
				l-0.27,0.06h-0.541c-0.063,0-0.458,0.121-0.542,0.121c-0.27,0.08-1.02,0.08-1.166,0.34V6.129z M60.212,8.435
				c0,0.06,0.063,0.06,0.125,0.06h0.083l0.187-0.06c0.624-0.06,1.249-0.201,1.832-0.26c0.354-0.06,0.541,0,0.812-0.201
				c0-0.201,0.146-0.541,0.146-0.722c-0.27,0-0.604,0.06-0.875,0.06c-0.125,0-0.625,0.081-0.666,0.081
				c-0.541,0.04-1.041,0.18-1.582,0.26l-0.063,0.06V8.435z M64.294,7.773c0,0.081,0.125,0.201,0.187,0.201l0.271-0.06l2.457-0.2
				c0-0.06,0.146-0.201,0.146-0.281l0.125-0.562l-0.083-0.08c-0.042,0-0.458,0.12-0.541,0.12h-0.354l-0.271,0.08
				c-0.583,0.06-1.27,0-1.895,0.14c0,0.04-0.042,0.521-0.042,0.582V7.773z M64.96,5.307c-0.083,0-0.396,0.04-0.479,0.04
				l-0.062,0.081v0.701c1.083,0,2.082-0.12,3.207-0.12c0.187-0.14,0.27-0.321,0.27-0.521v-0.14l-0.5-0.04H64.96z"/>
		</g>
		<g>
			<path d="M53.738,18.018c0,0,0.06-0.448,0.06-0.567c0-0.09,0.12-0.716,0.12-0.776v-2.059c0-1.552-0.12-8.061-0.12-9.612V3.272
				c0.209-0.985,0.328-1.94,1.283-2.447c1.373,0,1.803-0.269,3.176-0.388c0.776-0.09,1.582,0,2.358-0.209h8.543
				c0.12,0,0.716,0.119,0.776,0.119h1.164c1.104,0,2.06,0.209,3.044,0.388c0.06,0,0.657,0.089,0.776,0.089
				c0.06,0,0.388,0.507,0.448,0.507h0.388l-0.06,0.179c-0.209,0.269-0.12,0.657-0.209,1.044c0,0.12-0.298,0.507-0.298,0.597
				c-0.657,1.97-0.985,9.702-1.045,11.642c0,0.328-0.119,2.388-0.119,2.656c0,0.507-0.269,1.671-0.985,1.671
				c-0.656,0-1.433-0.209-2.119-0.329c-1.164-0.179-3.888-0.179-5.052-0.179h-0.985c-2.507,0.119-4.161,0.507-6.608,0.776
				l-3.313,0.298c-0.269,0.209-0.269,0.478-0.448,0.657c-0.119,0.119-0.507,0.328-0.597,0.328c0,0-0.179-0.119-0.299-0.119
				c-0.388-0.209-0.269-0.657-0.269-1.045C53.35,19.003,53.618,18.526,53.738,18.018z M55.35,17.959l0.119,0.06h0.597
				c0.955,0,1.94-0.06,2.984-0.179h0.298c1.164-0.089,1.535-0.209,2.699-0.209l0.209-0.06c2.835-0.119,7.111-0.388,9.946-0.328
				c0.448-0.687,0.388-1.731,0.448-2.447c0.119-0.776,0.209-6.628,0.328-7.464c0-0.179,0.06-0.835,0.06-1.044
				c0.12-1.164,0.388-2.447,0.388-3.731c0-0.448-0.657-0.448-1.044-0.567c-0.12,0-0.955-0.089-1.075-0.089
				c-1.552-0.179-4.783-0.299-6.335-0.299c-0.776,0-1.433,0.12-2.208,0.12h-0.209c-0.179,0-1.731-0.12-1.94-0.12h-0.12
				c-0.06,0-0.656,0.12-0.776,0.12c-1.343,0.06-1.922,0.179-3.206,0.567c-0.388,0.09-0.776,0.09-1.164,0.388
				c0,0.269-0.06,1.492-0.06,1.761v12.03C55.29,16.854,55.35,17.959,55.35,17.959z"/>
		</g>
	</g>
	<g>
		<path d="M0.776,18.636c0-0.089,0.298-0.597,0.298-0.656c0.089-0.388,0.209-0.776,0.209-1.164c0-0.836-0.12-1.671-0.388-2.448
			C0.687,13.772,0,13.473,0,12.816c0.388,0,0.687-0.12,0.985-0.507h2.626c0.089,0,0.269-0.12,0.388-0.12
			c0.179,0,1.433-0.089,1.642-0.089c0.478,0,0.866-0.179,1.373-0.179h0.657c0.716-0.119,3.82-0.298,4.477-0.388
			c0.12,0,0.687-0.208,0.776-0.208h0.179c0.836,0,4.388,0.089,5.164,0.089c0.209,0,0.896,0.298,0.985,0.388
			c0.12,0,0.388,0.298,0.388,0.388v0.12c0,0.687-0.866,1.074-1.164,1.671c-0.089,0.179-0.478,0.835-0.478,0.955v0.388l-0.12,0.388
			c-0.06,1.104,0.12,2.149-0.835,2.835c-0.209,0.089-0.507,0.089-0.716,0.089c-0.448,0-0.955,0-1.433-0.209h-4.179
			c-0.716,0.209-1.492,0.12-2.149,0.209c-1.671,0.179-3.402,0.388-5.074,0.776c-0.478,0.119-1.343,0.507-1.731,0.507
			c-0.687,0-0.985-0.388-0.985-1.104V18.636z M2.716,7.743c0-0.508,0.119-0.896,0.388-1.373c0.686-0.687,1.164-1.283,1.94-1.791
			c0.119-0.06,1.194-0.776,1.283-0.835c0.298-0.209,0.567-0.388,0.776-0.597L7.88,2.37c0.298-0.298,0.298-0.507,0.686-0.507
			c0.388,0,0.597,0.328,0.985,0.388c0.567,0.208,1.343,0.208,1.94,0.388c0,0,0.179,0.12,0.269,0.209l0.119,0.12h0.269
			c0.776,0.06,1.284,0.179,1.851,0.567l0.209,0.089c0.119,0,0.298,0.179,0.298,0.179l1.164,1.164
			c0.269,0.328,0.209,0.627,0.209,0.896v0.597c-0.209,0.12-0.12,0.298-0.209,0.388c-0.388,0.567-2.179,1.343-2.835,1.671
			c-0.119,0-0.567,0.269-0.687,0.269c-1.433,0.507-3.193,0.298-4.537,0.298H5.164c-0.687,0-1.373-0.179-2.059-0.298
			C2.716,8.519,2.716,8.13,2.716,7.743z M3.791,17.263c0.478,0,0.985-0.179,1.462-0.179c1.97-0.209,3.791-0.388,5.73-0.478h0.508
			c0.06,0,0.567-0.12,0.656-0.12c0.508,0,2.626-0.06,3.134-0.06c0.657-0.12,0.597-1.104,0.657-1.671
			c0.12-0.507,0.329-0.896,0.329-1.373c0,0,0.06-0.298-0.12-0.298H15.55c-4.059,0-8.059,0.179-12.058,1.075
			c0,0.269-0.089,1.82-0.089,2.148c0,0.12-0.09,0.508-0.09,0.567v0.209C3.313,17.383,3.612,17.263,3.791,17.263z M8.268,7.026
			c1.731,0,3.492-0.06,5.164-0.776c0.179-0.06,0.298-0.06,0.298-0.269c0-0.119,0-0.119-0.119-0.179
			c-0.179-0.208-0.687-0.626-0.687-0.626l-0.478-0.269c-0.12,0-0.299-0.209-0.299-0.209L11.879,4.4l-0.507-0.09l-0.209-0.119
			c-0.567-0.06-1.164-0.179-1.82-0.179c-0.299,0-0.507,0.179-0.776,0.388C8.387,4.519,7.671,5.086,7.611,5.176L7.492,5.295
			C7.283,5.474,6.238,6.37,6.059,6.579L5.82,6.847C6.716,7.026,7.492,7.026,8.268,7.026z"/>
	</g>
	<g>
		<path d="M78.109,17.989l0.12-0.298c0.269-0.776,0.656-0.985,1.044-1.642c0.12-0.12,0.448-0.567,0.448-0.687
			c0.06-0.209,0.06-0.597,0.388-0.597c0.179,0,0.448,0.507,0.567,0.597v0.507c0,1.045-0.507,2-1.403,2.716
			c-0.269,0.179-0.448,0.179-0.776,0.179h-0.388c-0.06,0-0.179-0.179-0.179-0.298C77.929,18.378,78.109,17.989,78.109,17.989z
			 M79.273,11.662l0.12-0.12l0.507-0.388c0.865-0.776,1.82-1.641,2.597-2.507l0.119-0.209c0-0.089-1.552-0.478-1.851-0.806
			c-0.388-0.448-0.776-1.224-0.776-1.94l0.12-0.269l0.06-0.507c0.209-0.388,0.597-0.448,0.896-0.776
			c0.089,0,0.388-0.507,0.478-0.507l0.388-0.269c0.12-0.12,0.507-0.388,0.507-0.388l0.269-0.298h0.12
			c0.269,0,0.448,0.298,0.567,0.507c-0.119,0.269-0.298,0.657-0.507,0.896c-0.388,0.448-1.164,1.164-1.164,1.731
			c0,0.657,0.597,0.597,1.104,0.776c0.06,0,0.657,0.269,0.776,0.269h0.269c0.299,0,0.508-0.179,0.687-0.388
			c0.209-0.179,0.866-1.045,0.985-1.224c0.179-0.329,0.448-0.776,0.448-1.164c0-0.507-0.835-1.015-1.224-1.224
			c-0.209-0.06-0.896-0.179-0.896-0.567c0-0.089,0.508-0.269,0.567-0.269c0.507-0.119,0.597-0.119,1.104-0.119h0.388
			c0.06,0,0.955,0.507,1.164,0.567c0.388,0.209,1.074,1.104,0.955,1.612c0,0.388-0.269,0.567-0.448,0.835
			c-0.716,0.896-1.403,1.671-2.179,2.448v0.089c0,0.418,0.507,0.507,0.776,0.597c0.776,0.298,1.671,0.985,1.671,1.85
			c0,0.478-0.089,0.866-0.388,1.164c-0.119,0.089-0.507,0.687-0.597,0.806l-0.119,0.06c-0.776,0.507-1.612,0.896-2.597,0.985
			c-0.12,0-0.776,0.119-0.955,0.119h-0.209l-0.179,0.06c-0.716,0.119-1.552,0.209-2.268,0.209h-0.567
			c-0.388-0.269-0.716-0.866-0.716-1.433V11.662z M82.317,11.871c0.955,0,3.402-0.508,3.402-1.88c0-0.567-0.896-1.254-1.462-1.254
			h-0.089c-0.299,0.299-1.731,1.731-2.06,2.03c-0.06,0.089-0.388,0.478-0.448,0.597l-0.328,0.299v0.089
			C81.72,11.871,81.929,11.871,82.317,11.871z M83.272,17.989c0-0.687,0.119-1.343,0.119-2.06v-0.776l-0.119-0.388v-0.179
			c0-0.209,0-0.328,0.209-0.328c0,0,0.179,0.119,0.298,0.119c1.044,0.478,1.373,1.671,1.373,2.716c0,0.896-0.329,1.552-1.164,1.552
			c-0.329,0-0.507,0-0.716-0.179V17.989z M87.48,13.871c0,0,0.299,0.209,0.388,0.328c0.298,0.269,0.687,0.448,0.955,0.776
			c0.329,0.299,0.985,0.955,0.985,0.955v0.776l-0.089,0.119c-0.12,0.09-0.298,0.209-0.298,0.209s-0.597,0.06-0.776,0.06h-0.089
			c-0.12,0-0.567-0.06-0.687-0.269c-0.089-0.179-0.388-0.896-0.507-0.955c-0.089-0.119-0.209-0.507-0.209-0.597
			c0-0.239-0.06-1.284-0.06-1.462C87.152,13.811,87.48,13.871,87.48,13.871z M91.868,5.633c-0.12,0.06-0.328,0.06-0.388,0.06h-0.209
			c0,0-0.388-0.388-0.507-0.448c-0.06-0.209-0.06-0.329-0.06-0.507c0-0.209-0.119-0.269,0.06-0.388
			c0.507-0.209,0.985-0.089,1.492-0.209l0.388-0.06c0.836-0.12,1.731-0.328,2.626-0.328c0.597-0.12,0.597-0.687,0.597-1.164
			c0-0.508-0.329-0.896-0.716-1.284v-0.06c0-0.507,1.283-0.716,1.552-0.776l0.209-0.12h0.298c0.09,0,0.388,0.298,0.388,0.388v0.119
			c0,0.776-0.179,1.552-0.179,2.328c0,0.388,0.388,0.388,0.776,0.388c0.269,0,0.388,0,0.657-0.12h2.626
			c0.388,0.179,0.776,0.299,0.776,0.806v0.208c0,0.06-0.298,0.567-0.388,0.657c-0.179,0.12-0.507,0.12-0.687,0.12
			c-1.044,0-2.03-0.209-3.104-0.209h-0.657C97.3,5.126,97.21,5.305,97.21,5.424v2.03c0,0.12,0.09,0.298,0.209,0.418
			c0.836,0,5.223,0.089,6.119,0.089h0.089l0.179,0.09c0.119,0,0.507-0.09,0.597-0.09c0.179,0,0.179,0.09,0.179,0.298
			c0,0.657-1.433,1.94-2.119,1.94h-0.119c-0.776-0.119-1.552-0.388-2.328-0.507c-0.089,0-0.776-0.089-0.985-0.089h-1.045
			c-0.179,0-1.343-0.089-1.552-0.089h-0.687c-1.164,0.089-2.328,0.298-3.492,0.478c-0.597,0.089-1.164,0.388-1.761,0.388
			c-0.119,0-0.388-0.179-0.388-0.388V8.737c0-0.089,1.044-0.388,1.164-0.388c0.09,0,0.866-0.09,0.985-0.09l0.388-0.119
			c0.836-0.089,1.731,0,2.507-0.179c0.119,0,0.328-0.089,0.328-0.089s0.06-0.298,0.06-0.418c0.12-0.776,0.209-1.552,0.209-2.328
			C94.375,5.126,93.211,5.245,91.868,5.633z M92.137,14.08v-0.388c0-0.089-0.269-0.478-0.269-0.597v-0.06
			c0-0.119,0.179-0.388,0.179-0.388s0.388-0.209,0.478-0.209c0.119,0,0.955-0.12,1.074-0.12l0.209-0.06l2.06-0.328l0.06-0.06
			c0,0,0.776-0.12,1.104-0.12h0.06c0.119,0,0.507-0.089,0.597-0.089h3.224l0.179,0.089c0.478,0.388,0.478,0.687,0.478,1.164
			c0,0.955-0.209,1.94-0.269,2.955c-0.208,0.269-0.208,0.776-0.507,0.955l-0.269,0.09l-0.209,0.179l-0.179,0.12
			c-1.672,0-3.492,0-5.164,0.089c-0.12,0-0.507,0.12-0.597,0.12c-0.119,0-0.687,0.06-0.776,0.06c-0.388,0-0.896,0.328-1.283,0.328
			c-0.179,0-0.269,0-0.269-0.208v-2.627C92.137,14.647,92.137,14.378,92.137,14.08z M93.48,14.259c0,0.597,0,1.283,0.328,1.791
			h0.448c0.716,0,1.492-0.12,2.268-0.179c0.179,0,0.567-0.119,0.567-0.119c0.209,0,1.373-0.09,1.552-0.09
			c0,0,0.209-0.119,0.329-0.119c0.06,0,0.179-0.06,0.179-0.06c0.209-0.209,0.209-0.836,0.269-1.015
			c0.12-0.388,0.209-0.656,0.209-1.044c0,0,0-0.209-0.089-0.209h-4.507c-0.448,0.209-1.552-0.119-1.552,0.776V14.259z"/>
	</g>
	<g>
		<path d="M137.348,19.503c0-0.388,0-1.075,0.328-1.463c0,0,0.179-0.089,0.299-0.089c1.343-0.388,2.805-0.687,4.268-0.955
			c0.269-0.119,0.866-0.209,0.866-0.209l0.179-0.179v-0.597c0-0.507,0-1.194-0.09-1.671c-0.179-0.567-0.865-0.687-0.865-1.343
			c0-0.328,0.388-0.716,0.567-0.776c1.462,0.06,2.567-0.209,3.91-0.388c1.433-0.208,2.806-0.328,4.268-0.507
			c0.209,0,1.373-0.208,1.552-0.208h2.06c0.089,0,0.388-0.06,0.478-0.06h0.179c0.507,0,0.776,0.448,0.776,0.955
			c0,0.388-0.179,0.388-0.388,0.776c-0.269,0.776-0.567,1.642-0.567,2.537v0.388l0.119,0.119c0,0,1.224,0.06,1.821,0.06h1.283
			c0.06,0,0.388,0.119,0.448,0.119h2.06l0.208,0.089v0.12l-0.388,0.776c-0.12,0.179-0.329,0.179-0.507,0.388l-0.09,0.179
			c-0.179,0.209-0.776,0.478-0.955,0.597h-0.985c-1.671,0-3.223-0.597-4.835-0.776c-0.329,0-0.716,0.06-1.015-0.12h-4.149
			c-0.119,0-0.597,0.12-0.716,0.12c-0.388,0-2.328,0.269-2.716,0.269c-0.179,0.179-0.567,0.179-0.776,0.179
			c-0.955,0.208-2.03,0.597-2.896,0.985l-2.148,1.074c-0.09,0-0.687,0.269-0.776,0.269c-0.298,0.12-0.089,0.12-0.388,0.12h-0.09
			c-0.089,0-0.328-0.179-0.328-0.298V19.503z M147.407,1.296c0.567,0.269,0.776,0.388,0.776,1.045c0,0.388-0.328,0.895-0.388,1.283
			c0,0.597-0.12,3.432-0.12,4c0,0.089-0.089,0.865-0.089,1.044c-0.12,0.507-0.299,1.493-0.955,1.552
			c-1.492,0.119-2.955,0.328-4.298,0.626c-0.478,0.09-0.866,0.478-1.373,0.478c-0.269,0-0.388-0.089-0.567-0.269
			c0-0.209-0.09-1.224-0.09-1.403V9.385c0.179-1.164,0.478-2.149,0.478-3.313c0-0.388,0-1.015-0.089-1.283
			c0-0.12-0.298-0.567-0.388-0.776l-0.119-0.12l-0.09-0.179V3.445l-0.298-0.328v-0.06c0-0.329,0.209-0.985,0.388-1.104h0.507
			c0.388,0,0.865-0.179,1.253-0.269c0.089,0,1.164-0.119,1.253-0.119l0.388-0.06c0.388,0,1.88-0.209,2.06-0.209H147.407z
			 M146.123,7.833c-1.075,0-1.94,0.06-3.015,0.269c-0.298,0.119-0.866,0.179-1.164,0.388c-0.209,0.12-0.209,0.508-0.209,0.687
			c0,0.09,0.12,0.478,0.298,0.478c0.776,0,1.463-0.269,2.149-0.388c0.089,0,0.656-0.09,0.776-0.09c0.179,0,0.895-0.179,0.955-0.179
			c0.119-0.12,0.209-0.209,0.209-0.329V7.833z M142.124,3.505c0,0.328,0,0.597,0.209,0.776h0.388c0.955,0,1.94-0.269,2.925-0.448
			l0.478-0.12c0.179-0.089,0.179-0.388,0.179-0.597V2.849c-0.388-0.179-1.074-0.179-1.552-0.179h-0.089l-0.388,0.06
			c-0.089,0-0.776,0.12-0.866,0.12c-0.209,0-0.896,0.209-0.985,0.209s-0.298,0.179-0.298,0.179V3.505z M146.302,5.177
			c-1.343,0-2.805,0.089-4.059,0.597c-0.119,0.388-0.119,0.896-0.119,1.283c1.164,0,2.447-0.328,3.611-0.597
			c0.119,0,0.388-0.119,0.388-0.119c0.119-0.06,0.179-0.269,0.179-0.388V5.177z M144.75,16.1c0,0.12,0,0.179,0.089,0.299h0.896
			c0.179,0,1.074-0.179,1.283-0.179c0.06-0.12,0.179-0.209,0.179-0.328v-0.567c0-0.507-0.119-0.985-0.179-1.492
			c-0.119-0.179,0-0.567-0.328-0.657h-0.388c-0.448,0-1.253,0-1.462,0.597c0,0.269-0.089,1.85-0.089,2.119V16.1z M150.003,16.011
			c0.567,0,0.567-0.896,0.687-1.283c0.209-0.687,0.269-1.463,0.269-2.119c-0.657,0-1.433,0-2.208,0.179
			c-0.12,0-0.388,0.209-0.388,0.388v2.835H150.003z M150.302,9.833c-0.119,0.12-0.388,0.597-0.507,0.716
			c-0.179,0.12-0.179,0.12-0.388,0.12c-0.269,0-0.388-0.239-0.447-0.448c0.955-1.731,1.433-3.671,1.433-5.73V3.505
			c0-0.06-0.209-0.388-0.269-0.448l-0.388-0.329l-0.209-0.179v-0.09c0.089-0.179,0.269-0.895,0.388-0.955
			c0.597-0.209,1.164-0.328,1.761-0.388c0.269,0,0.835,0,1.164-0.209c0.298,0,1.851-0.12,2.119-0.12h0.776
			c0.716,0,2.268-0.179,2.268,0.896c0,0.597-0.388,1.044-0.507,1.552c-0.089,0.478-0.209,1.045-0.209,1.552
			c0,0.985,0.12,1.94,0.12,2.925v1.284c-0.12,0.388-0.298,0.955-0.776,0.955c-0.299,0-0.567-0.179-0.567-0.508V7.236
			c-0.119,0-0.776-0.119-0.985-0.119h-0.119c-0.776,0.209-1.612,0.119-2.507,0.209c0,0-0.507,0.119-0.597,0.119
			c-0.12,0-0.507,0.06-0.507,0.06s-0.06,0.12-0.06,0.209c-0.328,0.776-0.507,1.284-0.895,2.06L150.302,9.833z M152.839,12.399
			c0,0-0.209,0.089-0.209,0.209c-0.298,0.388-0.388,0.776-0.567,1.224c0,0.119-0.328,0.776-0.328,0.896
			c-0.06,0.269-0.269,0.597-0.269,0.895c0,0.09,0,0.209,0.089,0.209h1.97c0,0,0.209-0.209,0.209-0.328
			c0.269-0.687,0.388-1.731,0.388-2.507v-0.507c0-0.089-0.209-0.209-0.328-0.209L152.839,12.399z M155.465,1.953
			c-0.896,0-1.671,0.12-2.567,0.209c-0.06,0-0.776,0.119-0.836,0.119c-0.328,0.179-0.388,0.388-0.388,0.657
			c0,0.298,0,0.507,0.179,0.567h0.865c0.12,0,1.015-0.06,1.075-0.06c0.985-0.119,2.059,0.179,2.447-0.895v-0.09
			c0-0.119-0.119-0.388-0.119-0.507H155.465z M151.854,6.162h0.269c1.283,0,2.447-0.269,3.73-0.269l0.209-0.12V4.281h-0.716
			c-0.06,0-1.343,0.119-1.433,0.119h-0.298c-0.388,0.09-0.716,0.209-1.104,0.269c-0.06,0-0.448,0.12-0.567,0.12
			c-0.089,0-0.269,0.209-0.269,0.269v0.896L151.854,6.162z"/>
	</g>
	<g>
		<path d="M30.446,11.594c-0.19,0-0.346,0-0.346-0.19c0-0.104,0-0.104,0.121-0.225l0.38-0.38c0.242-0.224,0.518-0.898,0.518-1.192
			c0.069-0.069,0.173-0.069,0.294-0.069h0.104c0.38,0.138,0.829,0.259,0.829,0.743c0,0.121-0.104,0.121-0.155,0.19
			c-0.518,0.449-1.002,0.898-1.711,1.123H30.446z"/>
		<path d="M31.005,7.865c0-0.344,0.2-0.74,0.509-0.964c0.062,0,0.262-0.155,0.293-0.155c0.169-0.12,0.262-0.292,0.401-0.396
			c0,0,0.17-0.12,0.2-0.172l0.169-0.103c0.093-0.12,0.293-0.361,0.293-0.361V5.679c-0.354-0.069-0.663-0.224-1.002-0.344
			c-0.293-0.069-0.801-0.103-0.801-0.516c0-0.155,0-0.224,0.046-0.378l0.401-0.448l0.093-0.069c0.401-0.396,0.663-0.774,1.002-1.222
			c0.062-0.069,0.062-0.069,0.169-0.069c0.231,0,0.539,0.069,0.539,0.448c0,0.292-0.308,0.396-0.509,0.551
			c-0.031,0.069-0.293,0.361-0.339,0.413l-0.262,0.224c0,0-0.092,0.103-0.092,0.172v0.052c0,0,0.2,0.103,0.262,0.103
			c0.293,0.12,0.832,0.224,1.14,0.447l0.093-0.034c0.37-0.292,0.663-0.671,0.863-1.084c0-0.292-0.462-0.671-0.462-0.843
			c0.062,0,0.262-0.12,0.308-0.12h0.062c0.401,0.069,0.863,0.189,1.202,0.447c0.092,0.12,0.092,0.413,0.092,0.516v0.189
			c0,0-0.139,0.224-0.2,0.258c-0.139,0.189-0.401,0.344-0.601,0.516l-0.093,0.12c-0.77,0.705-1.603,1.394-2.373,2.116
			c-0.031,0.069-0.2,0.172-0.2,0.224v0.069c0.308,0.103,0.509,0.103,0.863,0.103h0.401c0.139-0.103,0.401-0.224,0.601-0.275
			c0.2-0.052,0.509,0,0.509-0.275c0-0.516-0.462-0.568-0.462-0.74c0-0.103,0.093-0.155,0.2-0.224h0.616
			c0.2,0,0.247,0.172,0.401,0.292c0.2,0.155,0.509,0.275,0.509,0.602c0,0.224-0.262,0.344-0.37,0.448
			c-0.339,0.292-0.632,0.585-1.063,0.74c-0.031,0-0.231,0.103-0.293,0.103c-0.339,0.12-0.709,0.292-1.048,0.292h-0.154
			c-0.046,0-0.601-0.069-0.647-0.069c-0.2,0-1.156-0.034-1.264-0.327V7.865z"/>
		<path d="M33.609,11.512c-0.259,0-0.38-0.397-0.38-0.622c0-0.276,0.052-0.57,0.052-0.829c0-0.19,0-0.345-0.052-0.518
			c0-0.052-0.104-0.225-0.104-0.294V9.197c0-0.104,0.034-0.173,0.155-0.173c0.225,0,0.328,0.069,0.622,0.173
			c0.501,0.155,0.276,0.639,0.345,1.088l0.034,0.155c0,0.069-0.034,0.449-0.034,0.518c-0.069,0.224-0.345,0.449-0.518,0.553H33.609z
			"/>
		<path d="M35.422,8.864c0.449,0.155,0.899,0.155,0.899,0.795c0,0.328-0.034,0.674-0.449,0.674c-0.155,0-0.38-0.052-0.484-0.155
			c-0.19-0.294-0.225-0.57-0.415-0.864c-0.104-0.225-0.294-0.397-0.397-0.622c0-0.052,0.104-0.052,0.173-0.052
			c0.19,0,0.346,0.121,0.518,0.155L35.422,8.864z"/>
		<path d="M35.951,2.798c0.705-0.288,1.62-0.533,1.925-0.578c0.305-0.045,0.956-0.116,1.416-0.153c0.035,0,0.203-0.074,0.23-0.074
			h0.548c0.062,0,0.522-0.056,0.575-0.056h1.185c0.141,0,0.752,0.056,0.867,0.056h0.115l0.973,0.074l0.088-0.074h0.256
			c0,0.5-0.513,1.389-0.743,1.519c0,0-0.15,0.074-0.212,0.074c-0.018,0-0.194,0.037-0.247,0.037H42.89
			c-0.194-0.111-0.407-0.278-0.601-0.408c-0.035,0-0.089-0.074-0.115-0.074c-0.115-0.037-0.23-0.111-0.345-0.167
			c-0.035,0-0.168-0.074-0.203-0.074c-0.026,0-0.115-0.037-0.141-0.037c-0.15,0-0.84-0.13-0.99-0.13h-0.08
			c-0.38,0-0.805,0.13-1.185,0.13c-0.398,0-0.895-0.004-1.293,0.07c-0.23,0.056-0.456,0.111-0.686,0.241
			c-0.035,0-0.168,0.074-0.203,0.074c-0.026,0-0.379,0.358-0.584,0.272S35.724,2.891,35.951,2.798z"/>
		<path d="M37.639,5.792c0.375,0,0.718-0.123,1.083-0.185c0.416-0.082,0.781-0.144,1.187-0.144l0.115-0.062h0.333
			c0.094,0,0.978-0.144,1.083-0.144c0,0,0.25,0.082,0.344,0.082c0.042,0,0.198,0.062,0.239,0.062c0.031,0,0.208,0.062,0.208,0.062
			s0.063,0.062,0.094,0.062C42.386,5.607,42.5,5.669,42.5,5.669V5.73c0,0-0.135,0.329-0.208,0.411
			c-0.063,0.123-0.198,0.185-0.312,0.185c-0.135,0-0.291,0-0.406-0.123h-0.677c-0.739,0-1.489,0.062-2.207,0.267
			c-0.198,0.062-0.448,0.123-0.645,0.267c-0.135,0.062-0.271,0.206-0.437,0.206c-0.104,0-0.198-0.144-0.198-0.411
			C37.41,6.265,37.545,5.936,37.639,5.792z"/>
		<path d="M37.487,4.673c0.073-0.353,0.208-0.809,0.406-0.809c0.073,0,0.541-0.083,0.614-0.083c0.104,0,0.104,0,0.198-0.062
			c0.718,0,1.374-0.125,2.072-0.125h0.833c0.135,0.041,0.291,0.125,0.427,0.27l0.042,0.041c0,0.145-0.135,0.27-0.177,0.353
			l-0.094,0.187c0,0-0.198,0.145-0.271,0.145h-0.063c-0.385-0.145-0.625-0.187-1.031-0.187c-0.541,0-1.114,0.041-1.697,0.27
			c-0.333,0.125-0.718,0.477-1.01,0.477c-0.114,0-0.25-0.145-0.25-0.415V4.673z"/>
		<path d="M37.824,0.593l0.03-0.111l0.059-0.13c0.493,0,0.976,0,1.449-0.037c0.04,0,0.128-0.074,0.168-0.074
			c0.414-0.055,0.838-0.13,1.281-0.167C40.84,0.074,41.027,0,41.067,0h0.069c0.187,0,0.552,0,0.552,0.556v0.111
			c-0.108,0.167-0.197,0.296-0.325,0.371c-0.059,0.037-0.266,0.111-0.266,0.111c-0.03,0-0.414-0.111-0.453-0.111h-0.217
			c-0.611,0-1.212,0-1.833,0.167c-0.187,0.074-0.384,0.185-0.572,0.241l-0.128,0.074c-0.128,0-0.237-0.204-0.237-0.371
			C37.656,0.834,37.725,0.834,37.824,0.593z"/>
		<path d="M37.626,7.851c0-0.482,0.242-0.667,0.556-0.723h0.073c0.205,0,0.314,0.371,0.447,0.371c0.278,0,0.543-0.074,0.833-0.13
			c0.628-0.111,1.28-0.185,1.908-0.241c0.338-0.074,0.652-0.074,0.966-0.111h0.072c0.157,0,0.398,0.278,0.398,0.593
			c0,0.167-0.084,0.241-0.157,0.371c-0.048,0.037-0.242,0.352-0.29,0.408c0,0-0.109,0.315-0.157,0.352
			c-0.181,0.519,0.085,1.038-0.266,1.353c0,0-0.205,0.13-0.23,0.13h-0.097l-0.085-0.074c-0.024,0-0.338-0.056-0.423-0.056h-0.205
			c-0.181,0-1.099,0.056-1.28,0.056c-0.447,0.185-0.918,0-1.352,0.241c-0.423,0.241-0.713,0.723-1.099,1.038
			c-0.036,0.037-0.193,0.111-0.241,0.111c0,0-0.157-0.074-0.181-0.111l-0.048-0.074v-1.019c0-0.074,0.386-0.315,0.471-0.352
			l0.362-0.37c0.157-0.241,0.386-0.797,0.386-1.149C37.988,8.092,37.626,8.222,37.626,7.851z M38.858,8.222
			c-0.036,0-0.157,0.037-0.157,0.037c-0.036,0-0.314,1.038-0.314,1.241c0.543,0,1.063-0.13,1.618-0.204
			c0.386-0.037,0.736-0.037,1.123-0.111c0.085,0,0.314-0.074,0.314-0.074s0.133-0.241,0.157-0.296c0-0.074,0.085-0.186,0.085-0.186
			c0.048-0.13,0.205-0.611,0.254-0.723c-0.048,0-0.157-0.055-0.205-0.055h-0.471C40.476,7.851,39.643,7.981,38.858,8.222z"/>
		<path d="M44.023,6.426c0-0.053,0.148-0.39,0.213-0.461c0.049-0.107,0.213-0.107,0.328-0.16c0.312-0.142,0.853-0.479,1.067-0.763
			l-0.066-0.071c-0.049,0-0.328-0.107-0.361-0.107c-0.328-0.124-0.64-0.124-0.919-0.284c-0.263-0.177-0.263-0.532-0.263-0.798V3.41
			c0.115-0.16,0.263-0.16,0.427-0.284c0.427-0.302,0.853-0.639,1.214-1.029c0,0,0.115-0.195,0.181-0.231
			c0.066-0.071,0.164-0.302,0.213-0.302c0.213,0,0.739,0.231,0.739,0.532v0.035c-0.246,0.355-0.525,0.585-0.886,0.763l-0.246,0.053
			c-0.099,0.071-0.099,0.23-0.213,0.302l-0.099,0.035c-0.049,0.071-0.263,0.302-0.328,0.355c0,0.373,1.1,0.532,1.133,0.639h0.427
			l0.919-0.993c0.049-0.035,0.213-0.266,0.263-0.337V2.896c0-0.302-0.476-0.302-0.476-0.638c0-0.053,0.115-0.124,0.148-0.124h0.279
			c0.049,0,0.427-0.035,0.476-0.035h0.099c0.279,0,0.64,0.337,0.64,0.621c0,0.177-0.033,0.337-0.148,0.461l-0.164,0.107
			c-0.64,0.656-1.28,1.295-1.969,1.88c-0.427,0.337-0.985,0.692-1.346,1.153c0.263,0.178,0.854,0.231,1.133,0.231h0.328
			c0,0,0.213-0.053,0.246-0.053c0.066,0,0.328-0.124,0.394-0.124c0.033,0,0.312-0.178,0.361-0.178
			c0.099-0.053,0.492-0.16,0.492-0.284c0-0.709-0.427-0.514-0.706-0.94l0.098-0.107c0.066-0.053,0.279-0.16,0.328-0.16l0.164,0.035
			c0.361,0.124,1.067,0.302,1.28,0.656v0.514c0,0-0.213,0.284-0.312,0.355l-0.607,0.515c-0.213,0.23-0.46,0.461-0.739,0.514
			c0,0-0.263,0.053-0.361,0.053c-0.115,0-0.115-0.053-0.213,0.071H46.37l-0.148-0.071H45.73c-0.427,0-0.804-0.16-1.165-0.284
			c-0.18-0.053-0.328,0-0.427-0.178c-0.115-0.16-0.115-0.16-0.115-0.337V6.426z"/>
		<path d="M43.738,9.473c0-0.069,0.276-0.518,0.276-0.587c0-0.034,0.069-0.225,0.069-0.259V7.952c0.225,0,0.449,0.035,0.605,0.104
			c0.224,0.121,0.294,0.276,0.294,0.501c0,0.587-0.225,1.641-0.968,1.641c-0.276,0-0.276-0.276-0.276-0.501V9.473z"/>
		<path d="M46.14,10.188c0.069-0.38,0.173-0.795,0.173-1.192c0-0.155-0.069-0.345-0.069-0.57c0-0.104,0.121-0.104,0.19-0.104
			c0.484,0,0.605,0.449,0.674,0.847c0.035,0.225,0.035,0.639,0.035,0.899c0,0.415-0.259,0.57-0.605,0.743h-0.069
			c-0.104-0.104-0.328-0.328-0.328-0.518V10.188z"/>
		<path d="M49.415,9.906c-0.121,0-0.501-0.121-0.57-0.121c-0.034,0-0.225-0.173-0.225-0.225c-0.034-0.138-0.38-0.812-0.449-0.916
			l-0.104-0.276l-0.121-0.173c0-0.121,0.225-0.276,0.415-0.276h0.034c0.121,0.052,0.57,0.38,0.674,0.449
			c0.069,0,0.225,0.225,0.294,0.225c0.276,0.225,1.244,0.276,1.244,0.674c0,0.449-0.743,0.639-1.088,0.639H49.415z"/>
		<path d="M37.237,19.649l0.183,0.017c0.104,0.009,0.493,0.088,0.597,0.097l1.019,0.092c0.105,0.009,0.672,0.147,0.776,0.156
			l0.679,0.061c0.34,0.031,1.019,0.092,1.379-0.091c0.614-0.375,1.116-0.977,1.349-1.516c0.207-0.542,0.325-1.072,0.375-1.628
			l0.007-1.003l-0.581-0.125c-1.106-0.014-3.452,0.356-4.555,0.601c-0.456,0.088-1.52,0.488-1.86,0.457
			c-0.339-0.031-0.309-0.373-0.289-0.587l0.019-0.214c0.006-0.064,0.278-0.449,0.396-0.59l0.169-0.114
			c0.359-0.183,0.548-0.231,0.947-0.281c0.189-0.048,0.633-0.008,0.802-0.122c0.373-0.333,0.537-1.155,1.217-1.094
			c0.339,0.031,0.391,0.506,0.358,0.87c0,0-0.092,0.143-0.098,0.207l-0.118,0.14l-0.006,0.064l0.445,0.04
			c0.183,0.017,2.066-0.18,2.118-0.175l0.295-0.059c0.053,0.005,1.078,0.033,1.182,0.042c0.424-0.027,0.699-0.153,1.117-0.115
			c0.34,0.031,0.765,0.285,0.74,0.563c-0.025,0.278-0.332,0.466-0.514,0.73c-0.28,0.47-0.336,1.09-0.571,1.651
			c-0.219,0.67-0.387,1.366-0.684,2.029l-0.118,0.14c-0.008,0.086-0.115,0.399-0.123,0.485l-0.111,0.055
			c-0.182,0.264-0.401,0.654-0.815,0.853c-0.187,0.026-0.652,0.221-0.705,0.217c-0.104-0.009-0.683-0.019-0.788-0.028l-0.348,0.055
			l-0.183-0.017c-0.157-0.014-0.72-0.195-0.825-0.204c-0.078-0.007-0.405-0.188-0.405-0.188c-0.433-0.169-2.657-1.211-2.636-1.446
			C37.08,19.634,37.184,19.644,37.237,19.649z"/>
		<path d="M35.206,13.985l0.262-0.279c0.236-0.194,1.889-0.194,2.23-0.279l0.341-0.043c0.787-0.15,1.522-0.236,2.309-0.279
			c0.236,0,0.682,0.043,0.866-0.15c0.053-0.129,0.341-0.58,0.341-0.58c0-0.064-0.105-0.344-0.105-0.43h-1.207
			c-0.053,0-0.499,0.086-0.577,0.086h-0.446l-0.341,0.15c-0.052,0-0.577,0.129-0.682,0.129c-0.052,0-0.84,0.064-0.919,0.064
			c-0.341,0.086-0.708,0.215-1.128,0.215c-0.262,0-0.341-0.086-0.341-0.279c0-0.215,0.079-0.837,0.341-0.923
			c0.184,0,0.971-0.043,1.128-0.043c1.706-0.15,3.412-0.365,5.118-0.365h1.024c0.525,0.279,0.341,0.687,0.341,0.687l-0.079,0.086
			l-0.866,0.902c-0.525,0.58-0.577,0.923-1.443,1.331c-1.47,0.086-2.887,0.086-4.251,0.365c-0.551,0.065-1.076,0.344-1.653,0.344
			h-0.158c-0.105,0-0.184-0.15-0.184-0.15v-0.472L35.206,13.985z"/>
		<path d="M25.621,7.945l0.044,0.003c0.125,0.009,0.564,0.013,0.988,0.016c0.482,0.004,0.981,0.008,1.174,0.02
			c0.649-0.128,0.801-0.195,1.208-0.707c0.064-0.058,0.163-0.192,0.251-0.31c0.127-0.171,0.218-0.292,0.291-0.36l0.005-0.067
			c0.001-0.015,0.004-0.056-0.001-0.069c-0.122,0.005-0.496-0.045-0.889-0.095c-0.434-0.056-0.883-0.113-1.054-0.125
			c-0.24-0.017-0.456-0.11-0.664-0.2c-0.209-0.09-0.426-0.183-0.669-0.2c-0.432-0.031-1.288,0.263-1.323,0.748
			c-0.017,0.233,0.075,0.337,0.203,0.482c0.081,0.091,0.171,0.194,0.237,0.338L25.621,7.945z"/>
		<path d="M23.483,10.93v1.26c0,0.306,0.44,0.54,0.661,0.54h0.121c0.048,0,0.274-0.045,0.456-0.087l0.153-0.081
			c0.291-0.077,0.567-0.135,0.846-0.193c0.944-0.196,1.921-0.399,2.599-1.055c0.188-0.209,0.592-0.635,0.812-0.866
			c-0.256,0.015-0.504,0.05-0.745,0.084c-0.315,0.044-0.64,0.09-0.978,0.09H26.32c-0.036,0-0.143,0.041-0.216,0.077l-0.056,0.013
			h-2.414L23.483,10.93z"/>
		<path d="M25.552,15.905l0.085,0.285c0.017,0.129,0.026,0.241,0.035,0.354c0.067,0.833,0.164,1.339,0.934,1.339
			c0.439,0,0.721-0.254,1.078-0.577c0.064-0.059,0.131-0.119,0.2-0.178c0.063-0.063,0.214-0.162,0.375-0.266
			c0.138-0.089,0.293-0.19,0.345-0.242c0.015-0.026,0.091-0.099,0.285-0.279c0.178-0.166,0.423-0.394,0.485-0.487l0.181-0.272
			c0.094-0.125,0.271-0.393,0.272-0.393c0.311-0.313,0.853-0.854,0.884-1.283c-0.505,0.124-1.138,0.302-1.482,0.454l-0.06,0.09
			l-0.032,0.015c-0.247,0.114-0.53,0.16-0.804,0.204c-0.184,0.029-0.358,0.058-0.511,0.104c-0.139,0.032-0.269,0.065-0.399,0.099
			c-0.261,0.066-0.53,0.136-0.797,0.177l-0.231,0.001c-0.053,0-0.115-0.026-0.279-0.103c-0.064-0.029-0.161-0.074-0.188-0.08
			l-0.107,0.001c-0.096,0.051-0.268,0.643-0.268,0.842V15.905z"/>
	</g>
	<g>
		<g>
			<path d="M117.903,8.935c0-0.461,0.323-0.99,0.821-1.289c0.099,0,0.423-0.207,0.473-0.207c0.274-0.161,0.423-0.391,0.647-0.529
				c0,0,0.274-0.161,0.324-0.23l0.274-0.139c0.149-0.161,0.473-0.483,0.473-0.483V6.011c-0.572-0.092-1.07-0.299-1.618-0.46
				c-0.473-0.092-1.294-0.138-1.294-0.691c0-0.207,0-0.299,0.075-0.506l0.647-0.599l0.149-0.092c0.647-0.529,1.07-1.035,1.618-1.634
				c0.099-0.092,0.099-0.092,0.274-0.092c0.373,0,0.871,0.092,0.871,0.598c0,0.392-0.498,0.529-0.821,0.737
				c-0.05,0.093-0.473,0.483-0.547,0.553l-0.423,0.299c0,0-0.149,0.139-0.149,0.23v0.069c0,0,0.323,0.139,0.423,0.139
				c0.473,0.161,1.344,0.299,1.841,0.598l0.149-0.046c0.597-0.391,1.07-0.898,1.394-1.45c0-0.392-0.747-0.898-0.747-1.128
				c0.099,0,0.423-0.161,0.498-0.161h0.1c0.647,0.093,1.394,0.254,1.941,0.599c0.149,0.161,0.149,0.553,0.149,0.691v0.253
				c0,0-0.224,0.299-0.324,0.346c-0.224,0.253-0.647,0.46-0.971,0.69l-0.149,0.161c-1.244,0.944-2.588,1.865-3.832,2.832
				c-0.05,0.092-0.324,0.23-0.324,0.299v0.092c0.498,0.138,0.822,0.138,1.394,0.138h0.647c0.224-0.138,0.647-0.299,0.97-0.368
				c0.324-0.069,0.822,0,0.822-0.368c0-0.69-0.747-0.759-0.747-0.99c0-0.138,0.149-0.207,0.323-0.299h0.996
				c0.323,0,0.398,0.23,0.647,0.391c0.323,0.208,0.821,0.369,0.821,0.806c0,0.3-0.423,0.46-0.597,0.599
				c-0.548,0.391-1.02,0.782-1.717,0.99c-0.05,0-0.373,0.138-0.473,0.138c-0.548,0.161-1.145,0.392-1.692,0.392h-0.249
				c-0.075,0-0.971-0.092-1.045-0.092c-0.324,0-1.867-0.046-2.041-0.438V8.935z M126.372,7.491c0-0.069,0.224-0.507,0.323-0.599
				c0.075-0.138,0.324-0.138,0.498-0.207c0.473-0.185,1.294-0.621,1.618-0.99l-0.099-0.093c-0.075,0-0.498-0.138-0.548-0.138
				c-0.498-0.161-0.971-0.161-1.394-0.368c-0.398-0.23-0.398-0.691-0.398-1.035V3.578c0.174-0.207,0.398-0.207,0.647-0.368
				c0.647-0.392,1.294-0.828,1.841-1.335c0,0,0.174-0.253,0.274-0.299c0.099-0.092,0.249-0.392,0.323-0.392
				c0.324,0,1.12,0.3,1.12,0.691v0.046c-0.373,0.461-0.796,0.76-1.344,0.99l-0.373,0.069c-0.149,0.093-0.149,0.3-0.323,0.392
				l-0.149,0.046c-0.075,0.092-0.398,0.392-0.498,0.46c0,0.483,1.668,0.691,1.717,0.829h0.647l1.394-1.289
				c0.075-0.046,0.324-0.345,0.398-0.438V2.911c0-0.392-0.721-0.392-0.721-0.829c0-0.069,0.174-0.161,0.224-0.161h0.423
				c0.075,0,0.647-0.046,0.722-0.046h0.149c0.423,0,0.971,0.438,0.971,0.806c0,0.23-0.05,0.438-0.224,0.599l-0.249,0.138
				c-0.971,0.852-1.941,1.68-2.986,2.44c-0.647,0.437-1.493,0.898-2.041,1.496c0.398,0.23,1.294,0.3,1.717,0.3h0.498
				c0,0,0.323-0.069,0.373-0.069c0.1,0,0.498-0.161,0.598-0.161c0.05,0,0.473-0.23,0.547-0.23c0.149-0.069,0.747-0.207,0.747-0.368
				c0-0.92-0.647-0.667-1.07-1.22l0.149-0.138c0.1-0.069,0.423-0.207,0.498-0.207l0.249,0.046c0.548,0.161,1.618,0.392,1.941,0.852
				v0.667c0,0-0.324,0.368-0.473,0.46l-0.921,0.668c-0.324,0.299-0.697,0.598-1.12,0.667c0,0-0.398,0.069-0.547,0.069
				c-0.174,0-0.174-0.069-0.324,0.092h-1.244l-0.224-0.092h-0.746c-0.647,0-1.219-0.207-1.767-0.368
				c-0.274-0.069-0.498,0-0.647-0.23c-0.174-0.207-0.174-0.207-0.174-0.437V7.491z"/>
		</g>
		<path d="M132.805,10.419c-0.245-0.062-0.354,0-0.544-0.124h-1.806c-0.353,0-1.767,0.124-2.12,0.124
			c-0.435,0.143-0.952,0.143-1.523,0.267c-0.19,0.061-0.19,0.329-0.19,0.411c0,0.596,0.353,0.329,0.544,0.658l0.109,0.329
			c0.163,0.411,0.163,0.884,0.272,1.275c0,0.617-0.109,1.152-0.109,1.749c0,0.349,0,0.617,0.109,0.966v3.8
			c-0.109,0.412-0.163,0.802-0.163,1.214v0.123c0,0.144,0.163,0.617,0.245,0.679c0,0.082,0.109,0.082,0.163,0.082
			c0.19,0,0.299-0.082,0.354-0.144c0.462-0.206,0.897-0.391,0.897-0.884V20.76c0-0.35-0.082-1.275-0.082-1.337
			c0-0.082-0.109-0.288-0.109-0.349v-2.422c0-0.041,0.109-0.185,0.109-0.267c0-0.041,0.082-0.309,0.082-0.391
			c0,0,0.272-0.144,0.353-0.144c0.517-0.185,1.169-0.308,1.686-0.535c1.251-0.534,2.893-2.612,2.893-3.825
			C133.974,10.954,133.43,10.624,132.805,10.419z M132.224,12.373c0,0-0.391,0.564-0.5,0.688c-0.408,0.678-0.29,1.184-1.16,1.451
			c-0.109,0-0.707,0.185-0.816,0.185c-0.081,0-0.245,0.144-0.354,0.144l-0.081,0.083c-0.109,0-0.272,0.123-0.272,0.123h-0.082
			l-0.109-0.206c0-0.267-0.054-1.604-0.054-1.872c0-0.061-0.109-0.884-0.109-0.946c0-0.061,0.109-0.473,0.109-0.534
			c0.245-0.268,0.761-0.062,1.115-0.268h1.398l0.788,0.144c0.163,0,0.272,0.268,0.272,0.391
			C132.37,12.023,132.415,12.167,132.224,12.373z"/>
		<path d="M124.224,10.66c-0.152,0.316,0.047,0.515,0.047,0.54c0,0.082,0.081,0.35,0.081,0.411v0.556l-0.081,0.185
			c0,0.082-0.109,0.802-0.109,0.884c-0.055,0.719-1.169,0.658-1.876,0.843c-0.598,0.144-1.305,0.349-1.93,0.493h-0.081
			c-0.109,0-0.109-0.061-0.109-0.144v-0.082l0.109-0.185c0-0.082,0.19-0.391,0.19-0.473c0.163-0.411,0.245-0.72,0.353-1.131v-0.082
			l-0.109-0.308c-0.082-0.35-0.082-0.761-0.435-1.029c-0.163-0.061-0.87-0.205-1.06-0.205h-0.163c-0.462,0-0.816,0.411-0.816,0.74
			c0,0.062-0.081,0.226,0.109,0.267c0.245,0.083,0.353,0.083,0.516,0.227l0.19,0.185c0.054,0.082,0.163,0.267,0.163,0.267v1.275
			c0,0-0.109,0.185-0.163,0.267c-0.109,0.062-0.462,0.35-0.544,0.411c-0.272,0.206-1.767,0.741-1.767,1.008v0.062
			c0,0.123,0.081,0.658,0.081,0.802c0.109,0.124,0.163,0.124,0.272,0.124c0.707,0,1.305-0.309,1.957-0.452l0.354-0.083
			c0.054,0,0.761-0.308,0.87-0.308c0.897-0.35,1.604-0.535,2.474-0.884c0.354-0.144,0.816-0.535,1.251-0.535v0.391
			c0,0.267-0.19,0.493-0.245,0.761c-0.462,1.069-0.924,1.995-2.066,2.756c-0.272,0.185-0.625,0.267-0.87,0.391
			c0,0-0.299,0.144-0.353,0.144c-1.006,0.308-1.957,0.534-2.936,0.658c-0.598,0.061-1.359,0.143-1.957,0.185v0.164
			c0,0.267,0.081,0.864,0.354,0.987c0.353,0.267,0.652,0.35,1.169,0.35c1.604,0,3.072-0.658,4.132-1.502
			c0.109-0.042,1.06-0.72,1.169-0.802c0.353-0.185,0.788-0.535,1.06-0.843c0.299-0.35,0.462-0.679,0.652-1.029
			c0.87-1.728,1.06-3.496,1.224-5.368c0-0.083,0.081-0.35,0.081-0.473c0-0.028,0.004-0.234-0.012-0.36
			C125.341,10.24,124.444,10.201,124.224,10.66z"/>
		<g>
			<path d="M116.665,4.95c-0.921,0.227-2.276,0.159-3.389,0.265c-0.079,0-1.032,0.079-1.112,0.079
				c-0.424,0.107-0.953,0.265-1.297,0.45l-0.265,0.053v0.291c0.106,0.503,0.265,0.847,0.344,1.376c0.106,0,0.265,0.107,0.344,0.107
				c0.609,0,1.138-0.185,1.642-0.185h0.529c0.238,0,1.377-0.106,1.615-0.106c0.344,0,0.609,0.344,0.609,0.688
				c0,0.45-0.159,0.636-0.265,0.98c-0.08,0.397-0.159,0.767-0.159,1.297v6.408c0.079,0.159,0.079,0.502,0.079,0.688v0.398
				c0,0.185-0.609,0.979-0.688,0.979h-0.079c-0.08-0.106-0.609-0.635-0.689-0.688c0,0-0.185-0.529-0.185-0.689v-0.185
				c0-0.264,0.185-0.609,0.265-0.847c0-0.106,0.079-0.344,0.079-0.344v-1.085c0-0.053-0.159-0.053-0.238-0.053
				c-0.344,0-1.138,0.344-1.483,0.502c-0.079,0-0.768,0.45-0.847,0.45l-0.344,0.08c-0.767,0.264-1.721,0.688-2.409,1.138h-0.106
				c-0.238,0-0.529-0.185-0.688-0.344v-0.636c0-0.238,0-0.609,0.106-0.953c0.159-0.08,0.741-0.689,0.847-0.874
				c0.079-0.053,0.344-0.688,0.45-0.847c0.079-0.185,0.238-1.138,0.238-1.297V9.451c0-0.159-0.079-1.192-0.079-1.377
				c0-0.609,0-1.482-0.53-1.933l-0.344-0.238l-0.079-0.106V5.453c0-0.159,0-0.238,0.079-0.398c0.159-0.185,0.344-0.45,0.609-0.529
				c0.106,0,0.265-0.106,0.344-0.106c0.106,0,0.688-0.053,0.794-0.053l0.159-0.107c0.079,0,0.609-0.079,0.688-0.079
				c0.265,0,4.458-0.854,5.235-0.78c0.776,0.074,1.257,0.074,1.294,0.517C117.777,4.363,117.587,4.723,116.665,4.95z
				 M110.603,13.951c0,0.08,0.265,0.238,0.344,0.345h0.106c0.344,0,0.583-0.107,0.847-0.159l0.344-0.185l0.344,0.08
				c0.08,0,0.53-0.238,0.609-0.238c0.265-0.106,0.847,0,0.953-0.45c0-0.185,0.079-0.953,0.079-1.033c0-0.106-0.079-0.45-0.079-0.529
				h-0.609c-0.874,0-1.721,0.185-2.489,0.424c-0.106,0-0.185,0.106-0.265,0.185c0,0.424-0.185,0.874-0.185,1.298V13.951z
				 M110.868,11.012c1.033-0.08,2.409-0.609,3.362-1.112c0.079,0,0.265-0.556,0.265-0.609c0-0.291,0-0.873-0.344-0.873h-0.185
				L113.7,8.497h-0.688c-0.079,0-0.767,0.159-0.847,0.159c-0.079,0-0.424,0.106-0.529,0.106c-0.159,0-0.688,0.08-0.768,0.238
				c0,0-0.079,0.185-0.079,0.291V9.9C110.788,10.324,110.788,10.669,110.868,11.012z"/>
		</g>
	</g>
</g>
</svg>
