<?xml version="1.0" encoding="utf-8"?>
<!-- Generator: Adobe Illustrator 17.0.0, SVG Export Plug-In . SVG Version: 6.00 Build 0)  -->
<!DOCTYPE svg PUBLIC "-//W3C//DTD SVG 1.1//EN" "http://www.w3.org/Graphics/SVG/1.1/DTD/svg11.dtd">
<svg version="1.1" id="Layer_1" xmlns="http://www.w3.org/2000/svg" xmlns:xlink="http://www.w3.org/1999/xlink" x="0px" y="0px"
	 width="162.617px" height="25.399px" viewBox="0 0 162.617 25.399" enable-background="new 0 0 162.617 25.399"
	 xml:space="preserve">
<g>
	<path d="M5.611,10.983c-0.657,0-1.045,0.179-1.612,0.179c-0.597,0-0.985-0.06-0.985-0.656c0-0.299,0.089-0.508,0.269-0.687
		C3.492,9.61,3.791,9.342,4.059,9.222c0.209,0,1.284-0.179,1.492-0.179C5.73,8.655,5.73,8.267,5.73,7.76V7.163
		c0-0.776-1.671-0.179-1.671-1.433c0-0.179,0.209-0.687,0.388-0.896c0.119-0.06,0.597-0.388,0.776-0.388h0.12
		c0.089,0,0.269,0.209,0.269,0.329h6.536c0.507-0.209,1.164-0.12,1.671-0.12c1.164,0,2.507-0.209,3.671-0.269
		c0.985-0.12,1.88-0.328,2.835-0.328c0.388,0,1.373-0.09,1.373,0.507c0,0.388-0.597,0.656-0.896,0.865l-0.089,0.12
		c-0.12,0.06-0.776,0.269-0.896,0.269c0,0.12-0.06,0.567-0.06,0.687l-0.12,0.209c0,0.06-0.089,0.776-0.089,1.044v0.179h2.417
		c0.179,0.328,0.388,0.119,0.388,0.716c0,0.298-0.269,0.567-0.597,0.776c-0.06,0.12-0.448,0.179-0.448,0.179h-1.761
		c0,0-0.12,0.209-0.12,0.328c0,0.06-0.06,0.448-0.06,0.567c0,0.089-0.328,1.044-0.388,1.373l-0.12,0.269v0.388l0.896,0.12h7.074
		c0.089,0,0.089,0.119,0.089,0.179v0.12c-0.866,0.985-1.552,1.433-2.716,1.94c-0.119,0.089-0.567,0.209-0.567,0.209h-1.94
		c-0.776-0.388-1.761-0.388-2.656-0.597l-0.179-0.119c-0.089,0-0.657-0.06-0.776-0.06l-0.269-0.12c-0.209,0-0.627,0.12-0.836-0.089
		H15.55c-1.851,0-3.671,0.209-5.551,0.388c-1.851,0.209-3.611,0.388-5.342,1.045c-0.209,0.119-0.866,0.328-0.985,0.388
		c-0.179,0.12-1.552,0.776-1.731,0.896c-0.388,0.209-0.895,0.388-1.373,0.388H0.269C0.179,17.221,0,16.923,0,16.833v-1.671
		c0-0.269,0.269-0.448,0.448-0.567l0.507-0.09c1.104-0.298,2.269-0.687,3.313-0.895c0.12,0,1.075-0.179,1.164-0.179
		c0.179,0,0.567,0,0.567-0.269C5.999,12.953,5.82,11.103,5.611,10.983z M2.447,18.504c0,0,0.179-0.119,0.269-0.119h2.448
		c0.448-0.179,0.955-0.269,1.433-0.269c0,0.478-0.209,0.985-0.478,1.373c-0.567,1.045-1.164,1.552-2.448,1.552h-0.06
		c-0.119,0-0.328-0.12-0.328-0.12c-0.269-0.209-0.836-2.029-0.836-2.328V18.504z M7.372,8.954c0.896,0,1.671-0.119,2.567-0.179
		c0.179,0,0.06-0.328,0.06-0.328c0-0.687-0.06-1.283-0.179-1.851c0-0.089-0.089-0.089-0.209-0.089H9.432
		c-0.508,0-1.671,0.089-1.671,0.089L7.372,6.984V8.954z M7.76,13.162c0.119,0,0.567-0.12,0.686-0.12c0.09,0,0.478-0.089,0.597-0.089
		c0.388,0,1.075,0.089,1.075-0.507v-0.179c0-0.209-0.12-1.373-0.12-1.552c0-0.209-0.06-0.329-0.269-0.329
		c-0.896,0-1.403,0.209-2.179,0.329l-0.06,0.179v0.597C7.491,11.938,7.372,12.774,7.76,13.162z M8.715,20.653v-0.209
		c0.208-0.687,0.388-1.164,0.388-1.851c0-0.388-0.179-0.776-0.179-1.164c0-0.507,0.388-0.716,0.806-0.716
		c0.657,0,1.253,0.209,1.433,0.895v1.373c0,0.179-0.179,0.896-0.179,0.955l-0.089,0.12c-0.12,0.089-0.507,0.597-0.567,0.656
		l-0.388,0.388c0,0-0.507,0.209-0.716,0.328h-0.12L8.924,21.31C8.924,21.221,8.715,20.713,8.715,20.653z M11.491,12.655
		c0.388,0,2,0,2.119-0.209l0.209-0.507c0.179-0.448,0.179-0.836,0.179-1.343v-0.478l-0.12-0.12c-0.06,0-0.776,0.12-0.955,0.12
		h-0.269c-0.328,0-1.104,0.209-1.104,0.209l-0.06,0.179V12.655z M11.67,8.655h0.089c0,0,0.388-0.09,0.507-0.09h0.567
		c0.209,0,1.044-0.119,1.253-0.119c0-0.119,0.12-0.776,0.12-0.896c0-0.388-0.12-1.224-0.12-1.224l-0.089-0.119h-0.299
		c-0.656,0-1.373,0.119-2.029,0.179c0,0.329-0.119,1.493-0.119,1.761v0.119C11.551,8.327,11.67,8.565,11.67,8.655z M14.654,18.594
		V17.34c-0.06-0.179-0.269-0.626-0.269-0.895l0.09-0.12h0.507c1.343,0,1.433,0.835,1.433,2.06c0,0.388,0.119,1.104-0.209,1.373
		c-0.06,0.12-0.657,0.687-0.776,0.776h-0.179c-0.478,0-0.597-0.388-0.657-0.776c0-0.209-0.119-0.597-0.119-0.597
		C14.476,19.102,14.654,18.713,14.654,18.594z M15.251,12.535c0.687,0,1.283-0.089,1.94-0.089c0.418-0.179,0.627-1.851,0.627-2.328
		V9.819l-0.12-0.09c-0.089,0-0.388,0.09-0.507,0.09c-0.209,0-1.373,0.119-1.552,0.119c-0.09,0-0.478,2.119-0.597,2.507
		C15.042,12.535,15.162,12.535,15.251,12.535z M15.938,8.446l0.209-0.119c0.06,0,0.657-0.06,0.776-0.06
		c0.179,0,1.074-0.119,1.074-0.209l0.09-0.507l0.119-0.388V6.715c0-0.209-0.209-0.716-0.209-0.716h-2.059
		c-0.388,0-0.298,0.597-0.298,0.776l-0.09,0.388v0.328c0,0.06,0.09,0.657,0.09,0.776C15.759,8.327,15.818,8.446,15.938,8.446z
		 M20.027,17.43l0.298,0.119l0.209,0.179c0,0,0.179,0.089,0.269,0.089c0.776,0.12,1.671,0.12,2.447,0.12l0.179,0.06
		c-0.179,0.328-0.298,0.776-0.388,1.164c-0.299,0.776-1.164,1.164-1.94,1.164c-0.687,0-1.343-0.269-1.672-0.955l-0.06-0.269
		c-0.328-0.896-0.896-1.493-0.896-2.448C19.042,16.654,19.549,17.161,20.027,17.43z"/>
	<path d="M41.788,20.235c-2.597,0-5.253,0.388-7.879,0.776c-0.388,0.119-0.776,0.209-1.164,0.388
		c-0.478,0.209-0.985,0.209-1.433,0.388c0,0-0.597,0.328-0.776,0.388c-0.209,0.119-1.283,0.716-1.492,0.776
		c-0.179,0.328-1.075,0.716-1.463,0.716c-0.656,0-0.656-1.284-0.656-1.552c0-0.507,0.179-0.985,0.567-1.283
		c0.209-0.089,0.896-0.209,1.164-0.209c0.716-0.06,1.373-0.179,2.06-0.269c0.208,0,1.044-0.239,1.164-0.239l0.269-0.06
		c0.119,0,1.283-0.12,1.373-0.12c1.164-0.089,2.328-0.388,3.522-0.478h0.269c0.209,0,0.985-0.119,1.164-0.119
		c0.329-0.269,0.597-0.448,0.597-0.955v-0.209c0,0-0.269-0.06-0.388-0.06h-0.089c-0.955,0.06-2.06,0.179-3.015,0.388
		c-0.597,0.06-1.104,0.269-1.671,0.388l-0.269,0.06h-0.329c-0.06,0-0.179-0.179-0.179-0.179v-1.044c0,0,0.179-0.209,0.298-0.209
		c0.209-0.119,0.657-0.298,0.657-0.298h1.552c0.209-0.209,0.627-0.09,0.836-0.09c0.06,0,1.224-0.119,1.343-0.119h0.657
		c0.388,0,0.716-0.448,0.716-0.836l-0.119-0.208h-2.418c-0.507,0-1.791,0.208-1.791,0.208l-0.448,0.448h-0.119
		c-0.388,0-0.657-0.656-0.657-0.955V15.58c0.179-0.687,0.388-1.373,0.388-2.149c-0.12-0.388-0.12-0.985-0.388-1.373
		c-0.209-0.269-0.716-0.567-0.716-1.044h2.06c0.478,0,0.865-0.209,1.373-0.298c2.895-0.388,5.939-0.388,8.954-0.478
		c0-0.12,0.209-0.12,0.269-0.12h0.119c0.209,0.12,0.866,0.388,0.985,0.507c0.179,0.09,0.179,0.179,0.179,0.388
		c0,0.567-0.507,0.776-0.687,1.253c-0.269,0.776-0.597,1.462-0.656,2.417c-0.329,0.209-0.716,0.985-0.985,0.985
		c-0.299,0-0.508-0.089-0.806-0.089h-0.269c-0.12,0-0.776,0.089-0.896,0.089h-0.388c-0.597,0-1.761-0.089-1.761,0.776
		c0,0.179,0,0.298,0.329,0.388h0.776c1.164,0,2.328-0.269,3.611-0.269h0.388c0.269,0.06,0.179,0.388,0.179,0.448v0.328l-0.567,0.567
		h-0.985c-0.507,0-2.746,0.089-3.224,0.089c-0.388,0-0.567,0.298-0.567,0.687v0.269c0.06,0.119,0.388,0.209,0.448,0.209h1.104
		c1.164,0,2.328-0.209,3.492-0.209h4.179c0.089,0,0.865-0.06,0.985-0.06c0.269,0,1.462-0.12,1.731-0.12l0.119-0.089h0.657
		c0,0.388-0.089,0.865-0.269,1.253c-1.074,0.806-2.358,1.403-3.731,1.403h-0.06c-0.896-0.209-1.88-0.507-2.716-0.716
		c-0.985-0.179-2.06-0.179-3.044-0.269c-0.119,0-0.896-0.12-0.955-0.12H41.788z M28.477,9.729c-0.328-0.298-0.328-1.164-0.328-1.552
		c0-0.388,0.448-0.687,0.627-1.075c0.208-0.269,0.269-0.776,0.478-1.044c0.179-0.328,0.686-0.597,0.955-0.776
		c0.119-0.12,0.328-0.239,0.328-0.239c0.06,0,0.657-0.09,0.776-0.09c0.388-0.119,0.776-0.179,1.164-0.298
		c0.955-0.209,1.94-0.269,2.895-0.388c0.209,0,1.492-0.089,1.671-0.089c0.089,0,0.597-0.119,0.657-0.119
		c0.209,0,1.104-0.179,1.164-0.388c0-0.06,0.209-0.776,0.209-0.836V1.94l-0.09-0.09l-0.388-0.567V0.507
		C38.804,0.298,38.982,0,39.251,0h0.209l0.12,0.119c0.06,0.06,0.835,0.388,0.955,0.448c0.269,0.12,0.388,0.209,0.388,0.507
		c0,0.388-0.119,0.657-0.179,1.045c0,0.119-0.12,0.597-0.12,0.716V3.79l0.179,0.209h0.716c0.06,0,0.567-0.119,0.657-0.119
		c0.179,0,1.552,0.119,1.791,0.119c0.06,0,0.567-0.119,0.657-0.119h0.119c0.179,0,1.821,0.119,2,0.119
		c1.492,0,2.716-0.119,3.82,0.955c0,0,0.179,0.209,0.179,0.329c0.089,0.269,0.478,1.044,0.478,1.164v0.567
		c-0.209,0.985-0.657,1.552-1.433,2.149l-0.209,0.06h-0.12l-0.06-0.179L49.07,8.954c-0.388-0.179-0.388-0.567-0.388-0.955
		c0-0.507,0.119-0.985,0.119-1.552V5.73c-0.298-0.179-0.507-0.269-0.895-0.269c-0.388-0.12-1.552-0.179-1.612-0.179h-5.551
		c-0.209,0.06-0.209,0.06-0.388,0.06c-0.209,0-0.328-0.06-0.388-0.06c-0.597,0-0.985,0.269-1.492,0.269h-1.044
		c-0.896,0-1.671,0.298-2.447,0.388c-0.12,0-0.776,0.119-0.896,0.119c-0.06,0-1.045,0.179-1.343,0.269
		c-0.209,0-1.044,0.298-1.164,0.298c-0.597,0.209-0.985,0.388-1.044,0.985c0,0.06-0.209,1.045-0.209,1.164
		c0,0.06-0.179,0.657-0.179,0.776l-0.119,0.179c-0.09,0.09-0.597,0.597-0.657,0.687h-0.328l-0.179-0.298L28.477,9.729z
		 M31.193,25.011c-0.09,0-0.269,0-0.269-0.179c0.388-0.388,0.836-0.896,1.224-1.164c0.328-0.329,0.716-0.507,0.985-0.776
		c0.298-0.388,0.119-0.597,0.687-0.716h0.089c0.388,0,1.164,0.388,1.164,0.776c0,0.328,0,0.716-0.269,0.895
		c0,0-0.716,0.388-0.985,0.597c-0.179,0.06-0.687,0.388-0.687,0.388c-0.478,0.179-1.045,0.06-1.552,0.06l-0.269,0.119H31.193z
		 M31.7,2.895c-0.12,0-0.388-0.269-0.507-0.269v-0.12l0.119-0.06c0.06,0,0.657-0.209,0.776-0.209l1.552-0.567
		c0.269-0.209,0.448-0.329,0.835-0.329h0.209c0.12,0.12,0.687,0.716,0.776,0.776c0.119,0.208,0.119,0.328,0.119,0.507
		c0,0,0.06,0.388-0.119,0.388c-0.597,0.209-1.164,0.209-1.761,0.209c-0.776,0-1.224,0-1.94-0.209L31.7,2.895z M44.146,7.879
		C43.639,8.446,43.34,9.61,42.475,9.61c-0.388,0-0.776-0.06-1.283-0.06c-1.343,0-2.597,0.269-3.94,0.388
		c-0.328,0.299-0.776,0.299-1.283,0.299c-0.12,0-0.209,0.089-0.329-0.12c-0.06-0.179-0.179-0.567-0.179-0.776
		c0-0.388,0.179-0.776,0.179-1.164V7.999l-0.567-0.597V7.014c0-0.119,0.298-0.388,0.388-0.388h0.179c0.209,0,0.388,0,0.507,0.09
		h0.597c0.955,0,2.06-0.209,3.015-0.269c1.253-0.12,2.537-0.12,3.76-0.12h0.896c0,0,0.328,0.12,0.328,0.179v0.716l-0.119,0.06
		L44.146,7.879z M39.072,13.729c0,0-0.985,0.089-1.373,0.089c-0.657,0.09-1.552,0.09-2.238,0.299c-0.09,0-0.209,0.089-0.209,0.089
		v0.687c0,0.089,0.328,0.269,0.388,0.269h0.12c0.716-0.089,1.552-0.089,2.268-0.269l0.269-0.209h0.776
		c0.179-0.089,0.179-0.478,0.179-0.687v-0.179L39.072,13.729z M35.371,12.744c0,0.089,0.209,0.388,0.269,0.388h0.209l0.418-0.09
		c0.089,0,1.044-0.089,1.164-0.089l0.388-0.12c0.597-0.089,1.373,0.12,1.373-0.776c0,0,0-0.388-0.119-0.388h-1.761
		c-0.448,0.208-1.94,0.119-1.94,0.985V12.744z M37.52,21.608l1.284,0.567v2.656l-0.508,0.567h-0.985l-0.06-0.12
		c-0.12-0.179-0.328-0.835-0.328-0.835v-2.537c0-0.119,0.388-0.298,0.507-0.298H37.52z M40.744,7.61c-0.12,0-0.507,0.06-0.597,0.06
		c-0.955,0.119-1.851,0.328-2.835,0.328c-0.06,0.06-0.06,0.269-0.06,0.448c0,0.119,0,0.328,0.179,0.388h0.865
		c0.12,0,0.388-0.06,0.508-0.06c1.044-0.119,2.119-0.119,3.164-0.328c0.388-0.06,0.507-0.567,0.507-0.836H40.744z M40.355,14.386
		c0,0.119,0.269,0.298,0.388,0.298h1.611c0.329,0,1.373-0.179,1.671-0.179c0.209-0.209,0.329-0.985,0.329-1.283
		c-1.015,0-2.06,0.119-3.044,0.298c-0.119,0-0.687,0.09-0.776,0.09c0,0.119-0.179,0.597-0.179,0.686V14.386z M44.415,11.282
		c-1.164,0.119-2.447,0.119-3.611,0.209c-0.179,0.089-0.179,0.478-0.179,0.687c0,0.269,0.179,0.388,0.507,0.388
		c0.657,0,1.224-0.119,1.94-0.119c0.388,0,0.657,0.119,0.955,0.298c0.12,0.089,0.329,0.209,0.329,0.209
		c0.269,0,0.388-1.075,0.388-1.373v-0.179L44.415,11.282z M41.131,23.847c-0.209-0.567-0.328-1.283-0.328-1.85
		c0-0.269,0.119-0.597,0.507-0.597H41.4c0.776,0.209,0.955,0.388,0.955,1.284c0,0.388,0,1.94-0.448,1.94
		c-0.208,0-0.507,0-0.597-0.179L41.131,23.847z M44.415,2.716c-0.567,0-0.955-0.388-0.955-0.985c0-0.388,0-0.388,0.06-0.776
		c0-0.06,0.12-0.269,0.12-0.269h2.537c0.12,0,0.776-0.299,0.896-0.299h0.06l0.209,0.179c0,0.597-0.388,1.373-0.865,1.671
		c-0.12,0-0.776,0.269-0.896,0.269l-0.179,0.12c0,0-0.657,0.089-0.865,0.089H44.415z M45.579,24.056
		c-0.06-0.119-0.269-0.716-0.388-0.776c-0.06-0.328-0.388-0.776-0.388-0.985c0-0.119,0-0.179,0.209-0.298h0.686l0.388,0.298
		c0.089,0.089,0.478,0.269,0.597,0.388c0.388,0.269,0.657,0.478,1.045,0.776c0.507,0.388,1.283,0.478,1.283,1.164v0.269
		c0,0.119-0.328,0.328-0.388,0.328c-0.209,0-0.896,0.06-1.104,0.06l-0.269,0.12h-0.12c-0.179,0-0.179,0-0.388-0.12
		c-0.179-0.06-0.567-0.269-0.567-0.269c-0.089-0.119-0.388-0.776-0.478-0.895L45.579,24.056z"/>
	<g>
		<g>
			<path d="M67.319,18.748l0.083-0.121h1.125c0.083,0,0.27-0.06,0.354-0.06c0.062,0,0.333-0.201,0.416-0.201
				c0.187-0.06,0.396-0.06,0.583-0.18c1.041-0.521,1.125-1.303,1.125-2.386V15.42l-0.083-0.06c0,0-1.041-0.081-1.499-0.081h-0.208
				c-0.875,0-1.77,0.14-2.624,0.22c-0.083,0-0.354,0.041-0.417,0.041c-0.354,0.08-0.812,0.14-1.166,0.14
				c-0.063,0-0.208,0-0.208-0.06c-0.062,0.06-0.187,0.14-0.27,0.14c0,0-0.396,0.04-0.542,0.04c-0.729,0.08-1.368,0.206-2.118,0.466
				c-0.333,0.121-0.875,0.381-1.145,0.521c-0.208,0.12-0.417,0.26-0.687,0.26c-0.208,0-0.417-0.18-0.479-0.401
				c-0.083-0.12-0.083-0.461-0.083-0.642c0-0.22,0-0.26,0.083-0.521c0.146-0.14,0.354-0.08,0.479-0.08l0.208-0.06
				c0.541-0.081,1.02-0.121,1.562-0.201l0.125-0.06h0.416c0.666,0,1.035-0.105,1.722-0.185c0.062,0,0.541-0.06,0.666-0.06
				c0.146,0,1.166-0.08,1.312-0.08c0.042,0,0.312-0.04,0.396-0.04c0.458-0.081,0.875-0.081,1.353-0.081
				c0.271,0,2.166-0.18,2.436-0.18h0.187c0.083,0,0.5-0.08,0.583-0.08l0.042-0.14v-0.441c0,0,0.229-0.201,0.27-0.281
				c0.229-0.121,0.271-0.121,0.5-0.121h0.125c0.063,0,0.333,0.121,0.417,0.201v0.201c0,0.18-0.083,0.321-0.083,0.521v0.06
				c0.812,0.08,1.437,0.08,2.166,0.12c0.666,0,1.353-0.04,1.978-0.04c0,0.702-1.624,1.484-2.249,1.484
				c-0.687,0-1.27-0.401-2.041-0.401c-0.312,0.34-0.312,1.122-0.312,1.604c0,0.04-0.083,0.701-0.083,0.782v0.521
				c0,0.04-0.146,0.301-0.187,0.381l-0.229,0.18l-0.042,0.14l-0.146,0.2c-0.125,0.06-0.708,0.321-0.833,0.401l-0.333,0.04
				l-0.208,0.08h-1c-0.146,0-0.687-0.341-0.812-0.381l-0.541-0.521L67.319,18.748z M65.369,13.937
				c-0.271-0.14-0.416-0.221-0.416-0.542c0-0.2,0.187-0.26,0.27-0.461c0.458-0.12,0.729-0.38,1.083-0.781l0.062-0.121v-0.08
				c-0.062,0-0.271-0.06-0.333-0.06c-0.749,0-1.499,0.201-2.186,0.321l-0.062,0.08c-0.125,0.06-0.479,0.261-0.542,0.261h-0.333
				l-0.541-0.521v-0.401l0.062-0.201c0-0.06,0.063-0.38,0.063-0.441v-0.401c0-0.461,0.083-0.983-0.187-1.364
				c-0.208-0.26-0.687-0.481-0.687-0.782v-0.08c0-0.06,0.145-0.401,0.208-0.441c0.541-0.22,1.291-0.14,1.832-0.22
				c0.604-0.04,1.166-0.121,1.749-0.18c0.5-0.081,0.958-0.081,1.437-0.201c0.062,0,0.062-0.14,0.062-0.22
				c0-0.521-0.146-0.562-0.687-0.562c-0.666,0-1.479,0.04-2.103,0.04c-0.187,0.08-0.396,0.08-0.604,0.22h-0.875
				c-0.146,0-0.271-0.481-0.271-0.602v-0.14c0,0,0.208-0.18,0.271-0.26c0.333-0.3,0.937-0.26,1.416-0.26
				c0.333,0,1.853-0.04,2.166-0.04l0.229-0.081l0.042-0.06l-0.042-0.121v-0.22c0-0.38,0.541-1.138,0.937-1.138
				c0.146,0,0.271,0,0.417,0.121c0.312,0.22,0.125,1.157,0.27,1.498h0.542c0.666,0,1.395-0.081,2.103-0.081h0.875
				c0.083,0,0.396,0.081,0.541,0.081c0.083,0,0.208,0.04,0.208,0.04v0.08c0,0.14,0,0.06-0.125,0.18l-0.083,0.14
				c-0.063,0.08-0.063,0.201-0.146,0.26c-0.312,0.201-0.541,0.261-0.937,0.261H70.72c-0.083,0-0.354-0.06-0.396-0.06h-1.978
				c-0.083,0-0.354,0.06-0.416,0.06c0,0-0.083,0.12-0.083,0.2c0,0.14,0.083,0.582,0.083,0.662c0.145,0,0.687,0.04,0.812,0.04h3.873
				c0.145,0.22,0.416,0.22,0.416,0.481c0,0.2-0.229,0.521-0.271,0.642c0,0.08-0.354,0.26-0.354,0.34
				c-0.187,0.321-0.416,1.042-0.458,1.444c0,0.26,0.042,0.642-0.146,0.902c-0.083,0.08-0.625,0.201-0.75,0.26
				c-0.333,0-1.978,0.14-2.311,0.14c-0.396,0-0.666,0.121-1.083,0.121c-0.083,0.08-0.208,0.26-0.271,0.34
				c-0.125,0.18-0.541,0.581-0.541,0.842c0,0.2,0.271,0.12,0.417,0.12h0.27c0.042,0,0.541-0.06,0.583-0.06
				c0.146,0,0.812-0.12,0.77-0.321l-0.146-0.26v-0.06c0-0.2,0.542-0.2,0.687-0.2h0.312c0.146,0.12,0.354,0.26,0.354,0.461
				c0,0.18,0,0.38-0.125,0.521l-0.146,0.06l-0.083,0.06l-1.083,0.521c-0.666,0.261-1.479,0.221-2.083,0.221H65.369z M62.654,17.64
				c0-0.12,0-0.26,0.146-0.381l0.208-0.08l0.125-0.08c1.041,0.08,1.895-0.06,2.853-0.261c0.208-0.06,0.541-0.18,0.812-0.18
				l0.083,0.04c0,0.081-0.083,0.261-0.083,0.341l-0.063,0.06c-0.083,0-0.354,0.281-0.396,0.281l-0.271,0.26
				c-0.27,0.18-0.27,0.14-0.541,0.18c-0.5,0.22-1.041,0.481-1.582,0.521c-0.208,0-0.333,0.08-0.542,0.08c-0.125,0-0.27,0-0.396-0.12
				c-0.083-0.081-0.271-0.481-0.354-0.521V17.64z M63.578,9.005c0,0.26,0,0.401,0.083,0.662h0.125c0.333,0,0.687-0.14,1.041-0.18
				c0.666-0.14,1.353-0.221,2.02-0.341c0.146-0.06,0.062-0.321,0.062-0.441V8.443c-0.062-0.14-0.458-0.14-0.687-0.14h-0.125
				l-0.27,0.06h-0.541c-0.063,0-0.458,0.121-0.542,0.121c-0.27,0.08-1.02,0.08-1.166,0.34V9.005z M63.724,11.31
				c0,0.06,0.063,0.06,0.125,0.06h0.083l0.187-0.06c0.624-0.06,1.249-0.201,1.832-0.26c0.354-0.06,0.541,0,0.812-0.201
				c0-0.201,0.146-0.541,0.146-0.722c-0.27,0-0.604,0.06-0.875,0.06c-0.125,0-0.625,0.081-0.666,0.081
				c-0.541,0.04-1.041,0.18-1.582,0.26l-0.063,0.06V11.31z M67.805,10.649c0,0.081,0.125,0.201,0.187,0.201l0.271-0.06l2.457-0.2
				c0-0.06,0.146-0.201,0.146-0.281l0.125-0.562l-0.083-0.08c-0.042,0-0.458,0.12-0.541,0.12h-0.354l-0.271,0.08
				c-0.583,0.06-1.27,0-1.895,0.14c0,0.04-0.042,0.521-0.042,0.582V10.649z M68.471,8.183c-0.083,0-0.396,0.04-0.479,0.04
				L67.93,8.303v0.701c1.083,0,2.082-0.12,3.207-0.12c0.187-0.14,0.27-0.321,0.27-0.521v-0.14l-0.5-0.04H68.471z"/>
		</g>
		<g>
			<path d="M57.249,20.894c0,0,0.06-0.448,0.06-0.567c0-0.09,0.12-0.716,0.12-0.776v-2.059c0-1.552-0.12-8.061-0.12-9.612V6.148
				c0.209-0.985,0.328-1.94,1.283-2.447c1.373,0,1.803-0.269,3.176-0.388c0.776-0.09,1.582,0,2.358-0.209h8.543
				c0.12,0,0.716,0.119,0.776,0.119h1.164c1.104,0,2.06,0.209,3.044,0.388c0.06,0,0.657,0.089,0.776,0.089
				c0.06,0,0.388,0.507,0.448,0.507h0.388l-0.06,0.179c-0.209,0.269-0.12,0.657-0.209,1.044c0,0.12-0.298,0.507-0.298,0.597
				c-0.657,1.97-0.985,9.702-1.045,11.642c0,0.328-0.119,2.388-0.119,2.656c0,0.507-0.269,1.671-0.985,1.671
				c-0.656,0-1.433-0.209-2.119-0.329c-1.164-0.179-3.888-0.179-5.052-0.179h-0.985c-2.507,0.119-4.161,0.507-6.608,0.776
				l-3.313,0.298c-0.269,0.209-0.269,0.478-0.448,0.657c-0.119,0.119-0.507,0.328-0.597,0.328c0,0-0.179-0.119-0.299-0.119
				c-0.388-0.209-0.269-0.657-0.269-1.045C56.861,21.878,57.13,21.401,57.249,20.894z M58.861,20.834l0.119,0.06h0.597
				c0.955,0,1.94-0.06,2.984-0.179h0.298c1.164-0.089,1.535-0.209,2.699-0.209l0.209-0.06c2.835-0.119,7.111-0.388,9.946-0.328
				c0.448-0.687,0.388-1.731,0.448-2.447c0.119-0.776,0.209-6.628,0.328-7.464c0-0.179,0.06-0.835,0.06-1.044
				c0.12-1.164,0.388-2.447,0.388-3.731c0-0.448-0.657-0.448-1.044-0.567c-0.12,0-0.955-0.089-1.075-0.089
				c-1.552-0.179-4.783-0.299-6.335-0.299c-0.776,0-1.433,0.12-2.208,0.12h-0.209c-0.179,0-1.731-0.12-1.94-0.12h-0.12
				c-0.06,0-0.656,0.12-0.776,0.12c-1.343,0.06-1.922,0.179-3.206,0.567c-0.388,0.09-0.776,0.09-1.164,0.388
				c0,0.269-0.06,1.492-0.06,1.761v12.03C58.801,19.73,58.861,20.834,58.861,20.834z"/>
		</g>
	</g>
	<g>
		<path d="M81.62,20.865l0.12-0.298c0.269-0.776,0.656-0.985,1.044-1.642c0.12-0.12,0.448-0.567,0.448-0.687
			c0.06-0.209,0.06-0.597,0.388-0.597c0.179,0,0.448,0.507,0.567,0.597v0.507c0,1.045-0.507,2-1.403,2.716
			c-0.269,0.179-0.448,0.179-0.776,0.179H81.62c-0.06,0-0.179-0.179-0.179-0.298C81.441,21.253,81.62,20.865,81.62,20.865z
			 M82.784,14.537l0.12-0.12l0.507-0.388c0.865-0.776,1.82-1.641,2.597-2.507l0.119-0.209c0-0.089-1.552-0.478-1.851-0.806
			c-0.388-0.448-0.776-1.224-0.776-1.94l0.12-0.269l0.06-0.507c0.209-0.388,0.597-0.448,0.896-0.776
			c0.089,0,0.388-0.507,0.478-0.507l0.388-0.269c0.12-0.12,0.507-0.388,0.507-0.388l0.269-0.298h0.12
			c0.269,0,0.448,0.298,0.567,0.507c-0.119,0.269-0.298,0.657-0.507,0.896c-0.388,0.448-1.164,1.164-1.164,1.731
			c0,0.657,0.597,0.597,1.104,0.776c0.06,0,0.657,0.269,0.776,0.269h0.269c0.299,0,0.508-0.179,0.687-0.388
			c0.209-0.179,0.866-1.045,0.985-1.224C89.231,7.792,89.5,7.344,89.5,6.956c0-0.507-0.835-1.015-1.224-1.224
			c-0.209-0.06-0.896-0.179-0.896-0.567c0-0.089,0.508-0.269,0.567-0.269c0.507-0.119,0.597-0.119,1.104-0.119h0.388
			c0.06,0,0.955,0.507,1.164,0.567c0.388,0.209,1.074,1.104,0.955,1.612c0,0.388-0.269,0.567-0.448,0.835
			c-0.716,0.896-1.403,1.671-2.179,2.448v0.089c0,0.418,0.507,0.507,0.776,0.597c0.776,0.298,1.671,0.985,1.671,1.85
			c0,0.478-0.089,0.866-0.388,1.164c-0.119,0.089-0.507,0.687-0.597,0.806l-0.119,0.06c-0.776,0.507-1.612,0.896-2.597,0.985
			c-0.12,0-0.776,0.119-0.955,0.119h-0.209l-0.179,0.06c-0.716,0.119-1.552,0.209-2.268,0.209h-0.567
			c-0.388-0.269-0.716-0.866-0.716-1.433V14.537z M85.829,14.746c0.955,0,3.402-0.508,3.402-1.88c0-0.567-0.896-1.254-1.462-1.254
			h-0.089c-0.299,0.299-1.731,1.731-2.06,2.03c-0.06,0.089-0.388,0.478-0.448,0.597l-0.328,0.299v0.089
			C85.232,14.746,85.441,14.746,85.829,14.746z M86.784,20.865c0-0.687,0.119-1.343,0.119-2.06v-0.776l-0.119-0.388v-0.179
			c0-0.209,0-0.328,0.209-0.328c0,0,0.179,0.119,0.298,0.119c1.044,0.478,1.373,1.671,1.373,2.716c0,0.896-0.329,1.552-1.164,1.552
			c-0.329,0-0.507,0-0.716-0.179V20.865z M90.992,16.746c0,0,0.299,0.209,0.388,0.328c0.298,0.269,0.687,0.448,0.955,0.776
			c0.329,0.299,0.985,0.955,0.985,0.955v0.776l-0.089,0.119c-0.12,0.09-0.298,0.209-0.298,0.209s-0.597,0.06-0.776,0.06h-0.089
			c-0.12,0-0.567-0.06-0.687-0.269c-0.089-0.179-0.388-0.896-0.507-0.955c-0.089-0.119-0.209-0.507-0.209-0.597
			c0-0.239-0.06-1.284-0.06-1.462C90.664,16.686,90.992,16.746,90.992,16.746z M95.38,8.508c-0.12,0.06-0.328,0.06-0.388,0.06
			h-0.209c0,0-0.388-0.388-0.507-0.448c-0.06-0.209-0.06-0.329-0.06-0.507c0-0.209-0.119-0.269,0.06-0.388
			c0.507-0.209,0.985-0.089,1.492-0.209l0.388-0.06c0.836-0.12,1.731-0.328,2.626-0.328c0.597-0.12,0.597-0.687,0.597-1.164
			c0-0.508-0.329-0.896-0.716-1.284v-0.06c0-0.507,1.283-0.716,1.552-0.776l0.209-0.12h0.298c0.09,0,0.388,0.298,0.388,0.388v0.119
			c0,0.776-0.179,1.552-0.179,2.328c0,0.388,0.388,0.388,0.776,0.388c0.269,0,0.388,0,0.657-0.12h2.626
			c0.388,0.179,0.776,0.299,0.776,0.806v0.208c0,0.06-0.298,0.567-0.388,0.657c-0.179,0.12-0.507,0.12-0.687,0.12
			c-1.044,0-2.03-0.209-3.104-0.209h-0.657c-0.119,0.089-0.209,0.269-0.209,0.388v2.03c0,0.12,0.09,0.298,0.209,0.418
			c0.836,0,5.223,0.089,6.119,0.089h0.089l0.179,0.09c0.119,0,0.507-0.09,0.597-0.09c0.179,0,0.179,0.09,0.179,0.298
			c0,0.657-1.433,1.94-2.119,1.94h-0.119c-0.776-0.119-1.552-0.388-2.328-0.507c-0.089,0-0.776-0.089-0.985-0.089h-1.045
			c-0.179,0-1.343-0.089-1.552-0.089h-0.687c-1.164,0.089-2.328,0.298-3.492,0.478c-0.597,0.089-1.164,0.388-1.761,0.388
			c-0.119,0-0.388-0.179-0.388-0.388v-1.254c0-0.089,1.044-0.388,1.164-0.388c0.09,0,0.866-0.09,0.985-0.09l0.388-0.119
			c0.836-0.089,1.731,0,2.507-0.179c0.119,0,0.328-0.089,0.328-0.089s0.06-0.298,0.06-0.418c0.12-0.776,0.209-1.552,0.209-2.328
			C97.886,8.001,96.722,8.12,95.38,8.508z M95.648,16.955v-0.388c0-0.089-0.269-0.478-0.269-0.597v-0.06
			c0-0.119,0.179-0.388,0.179-0.388s0.388-0.209,0.478-0.209c0.119,0,0.955-0.12,1.074-0.12l0.209-0.06l2.06-0.328l0.06-0.06
			c0,0,0.776-0.12,1.104-0.12h0.06c0.119,0,0.507-0.089,0.597-0.089h3.224l0.179,0.089c0.478,0.388,0.478,0.687,0.478,1.164
			c0,0.955-0.209,1.94-0.269,2.955c-0.208,0.269-0.208,0.776-0.507,0.955l-0.269,0.09l-0.209,0.179l-0.179,0.12
			c-1.672,0-3.492,0-5.164,0.089c-0.12,0-0.507,0.12-0.597,0.12c-0.119,0-0.687,0.06-0.776,0.06c-0.388,0-0.896,0.328-1.283,0.328
			c-0.179,0-0.269,0-0.269-0.208V17.85C95.648,17.522,95.648,17.253,95.648,16.955z M96.991,17.134c0,0.597,0,1.283,0.328,1.791
			h0.448c0.716,0,1.492-0.12,2.268-0.179c0.179,0,0.567-0.119,0.567-0.119c0.209,0,1.373-0.09,1.552-0.09
			c0,0,0.209-0.119,0.329-0.119c0.06,0,0.179-0.06,0.179-0.06c0.209-0.209,0.209-0.836,0.269-1.015
			c0.12-0.388,0.209-0.656,0.209-1.044c0,0,0-0.209-0.089-0.209h-4.507c-0.448,0.209-1.552-0.119-1.552,0.776V17.134z"/>
	</g>
	<g>
		<path d="M138.86,22.378c0-0.388,0-1.075,0.328-1.463c0,0,0.179-0.089,0.299-0.089c1.343-0.388,2.805-0.687,4.268-0.955
			c0.269-0.119,0.866-0.209,0.866-0.209l0.179-0.179v-0.597c0-0.507,0-1.194-0.09-1.671c-0.179-0.567-0.865-0.687-0.865-1.343
			c0-0.328,0.388-0.716,0.567-0.776c1.462,0.06,2.567-0.209,3.91-0.388c1.433-0.208,2.806-0.328,4.268-0.507
			c0.209,0,1.373-0.208,1.552-0.208h2.06c0.089,0,0.388-0.06,0.478-0.06h0.179c0.507,0,0.776,0.448,0.776,0.955
			c0,0.388-0.179,0.388-0.388,0.776c-0.269,0.776-0.567,1.642-0.567,2.537v0.388l0.119,0.119c0,0,1.224,0.06,1.821,0.06h1.283
			c0.06,0,0.388,0.119,0.448,0.119h2.06l0.208,0.089v0.12l-0.388,0.776c-0.12,0.179-0.329,0.179-0.507,0.388l-0.09,0.179
			c-0.179,0.209-0.776,0.478-0.955,0.597h-0.985c-1.671,0-3.223-0.597-4.835-0.776c-0.329,0-0.716,0.06-1.015-0.12h-4.149
			c-0.119,0-0.597,0.12-0.716,0.12c-0.388,0-2.328,0.269-2.716,0.269c-0.179,0.179-0.567,0.179-0.776,0.179
			c-0.955,0.208-2.03,0.597-2.896,0.985l-2.148,1.074c-0.09,0-0.687,0.269-0.776,0.269c-0.298,0.12-0.089,0.12-0.388,0.12h-0.09
			c-0.089,0-0.328-0.179-0.328-0.298V22.378z M148.918,4.172c0.567,0.269,0.776,0.388,0.776,1.045c0,0.388-0.328,0.895-0.388,1.283
			c0,0.597-0.12,3.432-0.12,4c0,0.089-0.089,0.865-0.089,1.044c-0.12,0.507-0.299,1.493-0.955,1.552
			c-1.492,0.119-2.955,0.328-4.298,0.626c-0.478,0.09-0.866,0.478-1.373,0.478c-0.269,0-0.388-0.089-0.567-0.269
			c0-0.209-0.09-1.224-0.09-1.403V12.26c0.179-1.164,0.478-2.149,0.478-3.313c0-0.388,0-1.015-0.089-1.283
			c0-0.12-0.298-0.567-0.388-0.776l-0.119-0.12l-0.09-0.179V6.321l-0.298-0.328v-0.06c0-0.329,0.209-0.985,0.388-1.104h0.507
			c0.388,0,0.865-0.179,1.253-0.269c0.089,0,1.164-0.119,1.253-0.119l0.388-0.06c0.388,0,1.88-0.209,2.06-0.209H148.918z
			 M147.635,10.708c-1.075,0-1.94,0.06-3.015,0.269c-0.298,0.119-0.866,0.179-1.164,0.388c-0.209,0.12-0.209,0.508-0.209,0.687
			c0,0.09,0.12,0.478,0.298,0.478c0.776,0,1.463-0.269,2.149-0.388c0.089,0,0.656-0.09,0.776-0.09c0.179,0,0.895-0.179,0.955-0.179
			c0.119-0.12,0.209-0.209,0.209-0.329V10.708z M143.635,6.381c0,0.328,0,0.597,0.209,0.776h0.388c0.955,0,1.94-0.269,2.925-0.448
			l0.478-0.12c0.179-0.089,0.179-0.388,0.179-0.597V5.724c-0.388-0.179-1.074-0.179-1.552-0.179h-0.089l-0.388,0.06
			c-0.089,0-0.776,0.12-0.866,0.12c-0.209,0-0.896,0.209-0.985,0.209s-0.298,0.179-0.298,0.179V6.381z M147.814,8.052
			c-1.343,0-2.805,0.089-4.059,0.597c-0.119,0.388-0.119,0.896-0.119,1.283c1.164,0,2.447-0.328,3.611-0.597
			c0.119,0,0.388-0.119,0.388-0.119c0.119-0.06,0.179-0.269,0.179-0.388V8.052z M146.262,18.975c0,0.12,0,0.179,0.089,0.299h0.896
			c0.179,0,1.074-0.179,1.283-0.179c0.06-0.12,0.179-0.209,0.179-0.328V18.2c0-0.507-0.119-0.985-0.179-1.492
			c-0.119-0.179,0-0.567-0.328-0.657h-0.388c-0.448,0-1.253,0-1.462,0.597c0,0.269-0.089,1.85-0.089,2.119V18.975z M151.515,18.886
			c0.567,0,0.567-0.896,0.687-1.283c0.209-0.687,0.269-1.463,0.269-2.119c-0.657,0-1.433,0-2.208,0.179
			c-0.12,0-0.388,0.209-0.388,0.388v2.835H151.515z M151.813,12.708c-0.119,0.12-0.388,0.597-0.507,0.716
			c-0.179,0.12-0.179,0.12-0.388,0.12c-0.269,0-0.388-0.239-0.447-0.448c0.955-1.731,1.433-3.671,1.433-5.73V6.381
			c0-0.06-0.209-0.388-0.269-0.448l-0.388-0.329l-0.209-0.179v-0.09c0.089-0.179,0.269-0.895,0.388-0.955
			c0.597-0.209,1.164-0.328,1.761-0.388c0.269,0,0.835,0,1.164-0.209c0.298,0,1.851-0.12,2.119-0.12h0.776
			c0.716,0,2.268-0.179,2.268,0.896c0,0.597-0.388,1.044-0.507,1.552c-0.089,0.478-0.209,1.045-0.209,1.552
			c0,0.985,0.12,1.94,0.12,2.925v1.284c-0.12,0.388-0.298,0.955-0.776,0.955c-0.299,0-0.567-0.179-0.567-0.508v-2.208
			c-0.119,0-0.776-0.119-0.985-0.119h-0.119c-0.776,0.209-1.612,0.119-2.507,0.209c0,0-0.507,0.119-0.597,0.119
			c-0.12,0-0.507,0.06-0.507,0.06s-0.06,0.12-0.06,0.209c-0.328,0.776-0.507,1.284-0.895,2.06L151.813,12.708z M154.35,15.275
			c0,0-0.209,0.089-0.209,0.209c-0.298,0.388-0.388,0.776-0.567,1.224c0,0.119-0.328,0.776-0.328,0.896
			c-0.06,0.269-0.269,0.597-0.269,0.895c0,0.09,0,0.209,0.089,0.209h1.97c0,0,0.209-0.209,0.209-0.328
			c0.269-0.687,0.388-1.731,0.388-2.507v-0.507c0-0.089-0.209-0.209-0.328-0.209L154.35,15.275z M156.977,4.828
			c-0.896,0-1.671,0.12-2.567,0.209c-0.06,0-0.776,0.119-0.836,0.119c-0.328,0.179-0.388,0.388-0.388,0.657
			c0,0.298,0,0.507,0.179,0.567h0.865c0.12,0,1.015-0.06,1.075-0.06c0.985-0.119,2.059,0.179,2.447-0.895v-0.09
			c0-0.119-0.119-0.388-0.119-0.507H156.977z M153.365,9.037h0.269c1.283,0,2.447-0.269,3.73-0.269l0.209-0.12V7.157h-0.716
			c-0.06,0-1.343,0.119-1.433,0.119h-0.298c-0.388,0.09-0.716,0.209-1.104,0.269c-0.06,0-0.448,0.12-0.567,0.12
			c-0.089,0-0.269,0.209-0.269,0.269v0.896L153.365,9.037z"/>
	</g>
	<g>
		<g>
			<path d="M120.413,11.315c0-0.461,0.323-0.99,0.821-1.289c0.099,0,0.423-0.207,0.473-0.207c0.274-0.161,0.423-0.391,0.647-0.529
				c0,0,0.274-0.161,0.324-0.23l0.274-0.139c0.149-0.161,0.473-0.483,0.473-0.483V8.391c-0.572-0.092-1.07-0.299-1.618-0.46
				c-0.473-0.092-1.294-0.138-1.294-0.691c0-0.207,0-0.299,0.075-0.506l0.647-0.599l0.149-0.092c0.647-0.529,1.07-1.035,1.618-1.634
				c0.099-0.092,0.099-0.092,0.274-0.092c0.373,0,0.871,0.092,0.871,0.598c0,0.392-0.498,0.529-0.821,0.737
				c-0.05,0.093-0.473,0.483-0.547,0.553l-0.423,0.299c0,0-0.149,0.139-0.149,0.23v0.069c0,0,0.323,0.139,0.423,0.139
				c0.473,0.161,1.344,0.299,1.841,0.598l0.149-0.046c0.597-0.391,1.07-0.898,1.394-1.45c0-0.392-0.747-0.898-0.747-1.128
				c0.099,0,0.423-0.161,0.498-0.161h0.1c0.647,0.093,1.394,0.254,1.941,0.599c0.149,0.161,0.149,0.553,0.149,0.691v0.253
				c0,0-0.224,0.299-0.324,0.346c-0.224,0.253-0.647,0.46-0.971,0.69l-0.149,0.161c-1.244,0.944-2.588,1.865-3.832,2.832
				c-0.05,0.092-0.324,0.23-0.324,0.299v0.092c0.498,0.138,0.822,0.138,1.394,0.138h0.647c0.224-0.138,0.647-0.299,0.97-0.368
				c0.324-0.069,0.822,0,0.822-0.368c0-0.69-0.747-0.759-0.747-0.99c0-0.138,0.149-0.207,0.323-0.299h0.996
				c0.323,0,0.398,0.23,0.647,0.391c0.323,0.208,0.821,0.369,0.821,0.806c0,0.3-0.423,0.46-0.597,0.599
				c-0.548,0.391-1.02,0.782-1.717,0.99c-0.05,0-0.373,0.138-0.473,0.138c-0.548,0.161-1.145,0.392-1.692,0.392h-0.249
				c-0.075,0-0.971-0.092-1.045-0.092c-0.324,0-1.867-0.046-2.041-0.438V11.315z M128.883,9.871c0-0.069,0.224-0.507,0.323-0.599
				c0.075-0.138,0.324-0.138,0.498-0.207c0.473-0.185,1.294-0.621,1.618-0.99l-0.099-0.093c-0.075,0-0.498-0.138-0.548-0.138
				c-0.498-0.161-0.971-0.161-1.394-0.368c-0.398-0.23-0.398-0.691-0.398-1.035V5.958c0.174-0.207,0.398-0.207,0.647-0.368
				c0.647-0.392,1.294-0.828,1.841-1.335c0,0,0.174-0.253,0.274-0.299c0.099-0.092,0.249-0.392,0.323-0.392
				c0.324,0,1.12,0.3,1.12,0.691V4.3c-0.373,0.461-0.796,0.76-1.344,0.99l-0.373,0.069c-0.149,0.093-0.149,0.3-0.323,0.392
				l-0.149,0.046c-0.074,0.092-0.398,0.392-0.498,0.46c0,0.483,1.668,0.691,1.717,0.829h0.647l1.394-1.289
				c0.075-0.046,0.324-0.345,0.398-0.438V5.291c0-0.392-0.721-0.392-0.721-0.829c0-0.069,0.174-0.161,0.224-0.161h0.423
				c0.074,0,0.647-0.046,0.722-0.046h0.149c0.423,0,0.971,0.438,0.971,0.806c0,0.23-0.05,0.438-0.224,0.599l-0.249,0.138
				c-0.971,0.852-1.941,1.68-2.986,2.44c-0.647,0.437-1.493,0.898-2.041,1.496c0.398,0.23,1.294,0.3,1.717,0.3h0.498
				c0,0,0.323-0.069,0.373-0.069c0.1,0,0.498-0.161,0.598-0.161c0.05,0,0.473-0.23,0.547-0.23c0.149-0.069,0.747-0.207,0.747-0.368
				c0-0.92-0.647-0.667-1.07-1.22l0.149-0.138c0.1-0.069,0.423-0.207,0.498-0.207l0.249,0.046c0.548,0.161,1.618,0.392,1.941,0.852
				v0.667c0,0-0.324,0.368-0.473,0.46l-0.921,0.668c-0.324,0.299-0.697,0.598-1.12,0.667c0,0-0.398,0.069-0.547,0.069
				c-0.174,0-0.174-0.069-0.324,0.092h-1.244l-0.224-0.092h-0.746c-0.647,0-1.219-0.207-1.767-0.368
				c-0.274-0.069-0.498,0-0.647-0.23c-0.174-0.207-0.174-0.207-0.174-0.437V9.871z"/>
		</g>
		<path d="M135.316,12.799c-0.245-0.062-0.354,0-0.544-0.124h-1.806c-0.353,0-1.767,0.124-2.12,0.124
			c-0.435,0.143-0.952,0.143-1.523,0.267c-0.19,0.061-0.19,0.329-0.19,0.411c0,0.596,0.353,0.329,0.544,0.658l0.109,0.329
			c0.163,0.411,0.163,0.884,0.272,1.275c0,0.617-0.109,1.152-0.109,1.749c0,0.349,0,0.617,0.109,0.966v3.8
			c-0.109,0.412-0.163,0.802-0.163,1.214v0.123c0,0.144,0.163,0.617,0.245,0.679c0,0.082,0.109,0.082,0.163,0.082
			c0.19,0,0.299-0.082,0.354-0.144c0.462-0.206,0.897-0.391,0.897-0.884V23.14c0-0.35-0.082-1.275-0.082-1.337
			c0-0.082-0.109-0.288-0.109-0.349v-2.422c0-0.041,0.109-0.185,0.109-0.267c0-0.041,0.082-0.309,0.082-0.391
			c0,0,0.272-0.144,0.353-0.144c0.517-0.185,1.169-0.308,1.686-0.535c1.251-0.534,2.893-2.612,2.893-3.825
			C136.485,13.333,135.941,13.004,135.316,12.799z M134.735,14.753c0,0-0.391,0.564-0.5,0.688c-0.408,0.678-0.29,1.184-1.16,1.451
			c-0.109,0-0.707,0.185-0.816,0.185c-0.081,0-0.245,0.144-0.354,0.144l-0.081,0.083c-0.109,0-0.272,0.123-0.272,0.123h-0.082
			l-0.109-0.206c0-0.267-0.054-1.604-0.054-1.872c0-0.061-0.109-0.884-0.109-0.946c0-0.061,0.109-0.473,0.109-0.534
			c0.245-0.268,0.761-0.062,1.115-0.268h1.398l0.788,0.144c0.163,0,0.272,0.268,0.272,0.391
			C134.881,14.403,134.925,14.547,134.735,14.753z"/>
		<path d="M126.735,13.04c-0.152,0.316,0.047,0.515,0.047,0.54c0,0.082,0.081,0.35,0.081,0.411v0.556l-0.081,0.185
			c0,0.082-0.109,0.802-0.109,0.884c-0.055,0.719-1.169,0.658-1.876,0.843c-0.598,0.144-1.305,0.349-1.93,0.493h-0.081
			c-0.109,0-0.109-0.061-0.109-0.144v-0.082l0.109-0.185c0-0.082,0.19-0.391,0.19-0.473c0.163-0.411,0.245-0.72,0.353-1.131v-0.082
			l-0.109-0.308c-0.082-0.35-0.082-0.761-0.435-1.029c-0.163-0.061-0.87-0.205-1.06-0.205h-0.163c-0.462,0-0.816,0.411-0.816,0.74
			c0,0.062-0.081,0.226,0.109,0.267c0.245,0.083,0.353,0.083,0.516,0.227l0.19,0.185c0.054,0.082,0.163,0.267,0.163,0.267v1.275
			c0,0-0.109,0.185-0.163,0.267c-0.109,0.062-0.462,0.35-0.544,0.411c-0.272,0.206-1.767,0.741-1.767,1.008v0.062
			c0,0.123,0.081,0.658,0.081,0.802c0.109,0.124,0.163,0.124,0.272,0.124c0.707,0,1.305-0.309,1.957-0.452l0.354-0.083
			c0.054,0,0.761-0.308,0.87-0.308c0.897-0.35,1.604-0.535,2.474-0.884c0.354-0.144,0.816-0.535,1.251-0.535v0.391
			c0,0.267-0.19,0.493-0.245,0.761c-0.462,1.069-0.924,1.995-2.066,2.756c-0.272,0.185-0.625,0.267-0.87,0.391
			c0,0-0.299,0.144-0.353,0.144c-1.006,0.308-1.957,0.534-2.936,0.658c-0.598,0.061-1.359,0.143-1.957,0.185v0.164
			c0,0.267,0.081,0.864,0.354,0.987c0.353,0.267,0.652,0.35,1.169,0.35c1.604,0,3.072-0.658,4.132-1.502
			c0.109-0.042,1.06-0.72,1.169-0.802c0.353-0.185,0.788-0.535,1.06-0.843c0.299-0.35,0.462-0.679,0.653-1.029
			c0.87-1.728,1.06-3.496,1.224-5.368c0-0.083,0.081-0.35,0.081-0.473c0-0.028,0.004-0.234-0.012-0.36
			C127.851,12.62,126.955,12.581,126.735,13.04z"/>
		<g>
			<path d="M119.176,7.329c-0.921,0.227-2.276,0.159-3.389,0.265c-0.079,0-1.032,0.079-1.112,0.079
				c-0.424,0.107-0.953,0.265-1.297,0.45l-0.265,0.053v0.291c0.106,0.503,0.265,0.847,0.344,1.376c0.106,0,0.265,0.107,0.344,0.107
				c0.609,0,1.138-0.185,1.642-0.185h0.529c0.238,0,1.377-0.106,1.615-0.106c0.344,0,0.609,0.344,0.609,0.688
				c0,0.45-0.159,0.636-0.265,0.98c-0.08,0.397-0.159,0.767-0.159,1.297v6.408c0.079,0.159,0.079,0.502,0.079,0.688v0.398
				c0,0.185-0.609,0.979-0.688,0.979h-0.079c-0.08-0.106-0.609-0.635-0.689-0.688c0,0-0.185-0.529-0.185-0.689v-0.185
				c0-0.264,0.185-0.609,0.265-0.847c0-0.106,0.079-0.344,0.079-0.344v-1.085c0-0.053-0.159-0.053-0.238-0.053
				c-0.344,0-1.138,0.344-1.483,0.502c-0.079,0-0.768,0.45-0.847,0.45l-0.344,0.08c-0.767,0.264-1.721,0.688-2.409,1.138h-0.106
				c-0.238,0-0.529-0.185-0.688-0.344v-0.636c0-0.238,0-0.609,0.106-0.953c0.159-0.08,0.741-0.689,0.847-0.874
				c0.079-0.053,0.344-0.688,0.45-0.847c0.079-0.185,0.238-1.138,0.238-1.297V11.83c0-0.159-0.079-1.192-0.079-1.377
				c0-0.609,0-1.482-0.53-1.933l-0.344-0.238l-0.079-0.106V7.833c0-0.159,0-0.238,0.079-0.398c0.159-0.185,0.344-0.45,0.609-0.529
				c0.106,0,0.265-0.106,0.344-0.106c0.106,0,0.688-0.053,0.794-0.053l0.159-0.107c0.079,0,0.609-0.079,0.688-0.079
				c0.265,0,4.458-0.854,5.235-0.78c0.776,0.074,1.257,0.074,1.294,0.517C120.288,6.743,120.097,7.103,119.176,7.329z
				 M113.114,16.331c0,0.08,0.265,0.238,0.344,0.345h0.106c0.344,0,0.583-0.107,0.847-0.159l0.344-0.185l0.344,0.08
				c0.08,0,0.53-0.238,0.609-0.238c0.265-0.106,0.847,0,0.953-0.45c0-0.185,0.079-0.953,0.079-1.033c0-0.106-0.079-0.45-0.079-0.529
				h-0.609c-0.874,0-1.721,0.185-2.489,0.424c-0.106,0-0.185,0.106-0.265,0.185c0,0.424-0.185,0.874-0.185,1.298V16.331z
				 M113.378,13.392c1.033-0.08,2.409-0.609,3.362-1.112c0.079,0,0.265-0.556,0.265-0.609c0-0.291,0-0.873-0.344-0.873h-0.185
				l-0.265,0.079h-0.688c-0.079,0-0.767,0.159-0.847,0.159c-0.079,0-0.424,0.106-0.529,0.106c-0.159,0-0.688,0.08-0.768,0.238
				c0,0-0.079,0.185-0.079,0.291v0.609C113.299,12.704,113.299,13.048,113.378,13.392z"/>
		</g>
	</g>
</g>
</svg>
