<?xml version="1.0" encoding="utf-8"?>
<!-- Generator: Adobe Illustrator 17.0.0, SVG Export Plug-In . SVG Version: 6.00 Build 0)  -->
<!DOCTYPE svg PUBLIC "-//W3C//DTD SVG 1.1//EN" "http://www.w3.org/Graphics/SVG/1.1/DTD/svg11.dtd">
<svg version="1.1" id="Layer_1" xmlns="http://www.w3.org/2000/svg" xmlns:xlink="http://www.w3.org/1999/xlink" x="0px" y="0px"
	 width="199.962px" height="25.398px" viewBox="0 0 199.962 25.398" enable-background="new 0 0 199.962 25.398"
	 xml:space="preserve">
<g>
	<path d="M11.013,22.056c0-1.343,0.209-2.716,0.209-4.059v-4c0-0.089,0.06-0.865,0.06-0.984v-0.06l-0.06-0.448
		c0-0.06,0.06-0.388,0.06-0.447V9.013l-0.06-0.06h-0.388c-0.716,0-1.283,0.18-1.88,0.269c-0.06,0-0.567,0.12-0.656,0.12
		c-0.12,0-0.687,0.06-0.896,0.179c-0.866,0.209-1.851,0.388-2.626,0.776l-0.179,0.209c-0.089,0.835-0.298,1.73-0.298,2.626
		c0,0.209,0,0.388,0.209,0.388c1.044,0,1.94-0.298,2.895-0.687c0.089,0,0.776-0.388,0.896-0.388c0.089,0,0.776-0.119,0.865-0.119
		v0.299c-0.269,1.104-0.985,2.148-2.059,2.656H6.327c-0.567,0-1.164-0.12-1.82-0.12H4.208c-0.208,0-0.865,0.18-0.985,0.18
		c-0.179,0.209-0.388,0.328-0.567,0.388c-0.597,0.388-0.985,0.896-1.642,0.896C0.418,16.624,0,16.236,0,15.669
		c0-1.552,1.671-2.149,2.835-2.537v-1.671c0,0-0.179-0.508-0.269-0.567c-0.299-0.388-0.776-0.717-0.896-1.164
		c0-0.119-0.089-0.776-0.089-0.896c-0.09-0.269-0.179-0.478-0.179-0.865c0-0.18,0.089-1.015,0.478-1.015H1.97
		c0.09,0,0.597,0.209,0.687,0.209C2.955,7.282,3.611,7.58,3.73,7.58C4,7.789,4.119,7.969,4.507,7.969
		c1.731,0,3.373-0.389,5.163-0.627c0.06,0,0.955-0.06,1.224-0.06h0.209l0.12-0.209V6.178c0-0.567,0.06-1.224-0.329-1.731
		l-0.269-0.269l-0.119-0.209c-0.448-0.388-1.045-0.298-1.045-1.074V2.686l0.478-0.06c0.567-0.209,0.955-0.507,1.552-0.507h0.567
		c0,0,0.329,0.119,0.388,0.119c0.776,0.179,0.716,0.447,0.716,1.224V3.79c-0.119,0.955-0.328,1.82-0.328,2.896
		c0,0.089,0,0.388,0.209,0.388c0.895,0,1.85-0.119,2.835-0.119c1.463,0,3.015,0.119,4.447,0.388c0.209,0,0.597,0.119,0.597,0.119
		l0.12-0.119V6.686c0-0.18,0-0.508,0.269-0.508h1.462c0.269,0.388,0.985,0.388,0.985,1.104c0,0.298-0.089,0.388-0.208,0.687
		c-0.179,0.478-0.687,0.597-1.075,0.984c-0.657,0.657-1.164,1.164-1.761,1.94c0,0-0.179,0.179-0.179,0.269
		c-0.09,0.179-0.388,0.388-0.478,0.687l0.209,0.09c0.955,0,2.119,0,2.895,0.687v0.208c0,0.389-0.687,0.955-1.075,0.955h-1.552
		c-0.209,0-1.433-0.06-1.642-0.06h-4.507l-0.06-0.119v-1.373l0.06-0.179l0.388-0.388h0.597c0.896,0,1.791,0.179,2.746,0.179
		c0.269,0,1.94-2.238,1.82-2.507c0-0.12-0.06-0.209-0.179-0.209c-0.657,0-1.164-0.18-1.821-0.299
		c-1.164-0.09-2.447-0.209-3.611-0.209c-0.507,0-0.985-0.06-1.373,0.119c0,0.389-0.119,0.776-0.179,1.164v8.984
		c0,0.06,0.06,1.343,0.179,1.82c0.09,0.508,0.269,0.955,0.269,1.463c0,0.269-0.567,0.865-0.776,1.044
		c-0.179,0.119-0.388,0.119-0.567,0.119c-0.269,0-0.597,0-0.866-0.179V22.056z"/>
	<path d="M40.674,23.847c-0.507,0-0.567-0.955-0.567-1.283c0-0.657,0.269-1.224,0.269-1.94v-1.939
		c-0.089-0.12-0.209-0.12-0.269-0.12c-0.776,0-2.269,0.389-2.955,0.717c-0.657,0.299-1.254,0.687-1.94,0.687h-0.478
		c-0.179,0-0.119-0.388-0.119-0.388c0-0.299,0.119-0.687,0.209-1.016c0.119-0.179,0.388-0.656,0.388-0.656s0.508-0.179,0.567-0.179
		c0.119,0,0.985-0.12,1.104-0.12l0.269-0.089c0.179,0,1.462-0.119,1.671-0.119c0.12,0,0.388-0.061,0.508-0.061
		c0.269,0,1.044,0,1.044-0.507v-1.254c0-0.179-0.209-0.298-0.388-0.298c-1.044,0-2.029,0.298-3.104,0.388
		c-1.164,0.179-2.059,0.388-3.223,0.567c-0.09,0-0.478,0.119-0.597,0.119c-0.179,0.09-1.82,0.597-2.328,0.775l-0.179,0.09
		c-0.478,0.299-0.896,0.388-1.373,0.687c-0.179,0.09-0.298,0.269-0.567,0.269c-0.776,0-0.896-0.269-0.896-0.955
		c0-0.478,0-0.865,0.388-1.164l0.179-0.089c0.209-0.12,1.284-0.299,1.552-0.389l1.283-0.298c0.12,0,0.597-0.209,0.716-0.209
		l0.269-0.06c0.896-0.239,1.731-0.239,2.626-0.508c0.209-0.209,0.209-0.388,0.209-0.687c0-0.209,0.06-0.687-0.209-0.687
		c-0.507,0-0.895,0.209-1.283,0.388c0,0-0.179,0.09-0.269,0.09c-0.298,0.119-0.955,0.299-1.075,0.299h-0.208
		c-0.269-0.18-0.448-0.389-0.448-0.776c0-0.299,0.179-0.388,0.388-0.567l0.179-0.298c0.269-0.299,0.866-0.299,1.253-0.389
		c0.12,0,0.955-0.089,1.075-0.089l0.209-0.119c0-0.09,0.179-0.776,0.269-0.866c0.119-0.179,0.507-0.478,0.776-0.478
		c0.12,0,0.507,0.299,0.567,0.389c0.209,0.089,0.388,0.686,0.597,0.686h0.119c0.657-0.208,1.343-0.208,2.06-0.298
		c0.448-0.09,1.224,0,1.433-0.597c0-0.12,0.12-0.687,0.12-0.776c0-0.119-0.12-0.567-0.12-0.567c0-0.119-0.269-0.209-0.388-0.209
		c-0.089,0-0.388,0.09-0.478,0.09c-0.119,0-1.074,0.119-1.164,0.119c-0.895,0.06-1.85,0.269-2.626,0.448
		c-0.597,0.119-1.164,0.119-1.672,0.328c-0.089,0-0.656,0.269-0.776,0.269c-0.089,0-0.269,0.119-0.269,0.119
		c-0.507,0-0.716-0.597-0.716-0.984c0-0.12,0.12-0.508,0.209-0.567c0,0,0.119-0.119,0.179-0.119c0.597-0.209,1.164-0.209,1.88-0.269
		c1.731-0.209,3.492-0.329,5.223-0.508l0.388-0.09c1.104-0.119,2.149,0,3.224-0.119l0.269-0.06h0.388
		c1.164-0.119,2.388-0.209,3.552-0.209h1.343c0.089,0.269,0.478,0.09,0.657,0.478v0.119c0,0.657-0.955,0.567-1.343,0.567
		c-0.209,0-2.029,0.09-2.208,0.09H45.33c-0.179,0-1.851,0.119-2.06,0.119c-0.388,0-1.044,0-1.224,0.388
		c-0.209,0.448-0.328,1.045-0.328,1.642h0.776c0.119,0,1.373-0.089,1.492-0.089h0.448c0.776-0.09,0.328-1.284,1.492-1.284
		c0.299,0,0.687,0.299,0.896,0.508c0,0,0.06,0.06,0.06,0.179l0.12,0.269c0,0.12,0.089,0.239,0.089,0.239h2.447
		c0.06,0.269,0.388,0.478,0.388,0.775c0,0.18,0,0.18-0.209,0.389c-0.119,0.089-0.388,0.179-0.388,0.179h-2.716
		c-0.119,0-0.298,0.776-0.388,0.865c0,0.12-0.299,0.508-0.299,0.598v0.298h0.567c0.119,0,0.388-0.119,0.507-0.119
		c0.269,0,0.388,0.299,0.597,0.299c0.179,0,0.179-0.18,0.448-0.18c0.209,0,1.552-0.119,1.761-0.119h0.12
		c0.06,0,0.776,0.119,0.835,0.119h3.522c0.478-0.119,0.866-0.119,1.373-0.119c0,0.209-0.12,0.508-0.298,0.687
		c-0.866,0.896-1.851,1.552-3.104,1.552c-0.896,0-1.761-0.179-2.537-0.388l-0.298-0.06c-0.09,0-0.776-0.209-0.866-0.209
		l-0.179-0.119h-0.895c-0.09,0-0.478-0.06-0.597-0.06h-4.387c-0.06,0-0.836,0.06-0.836,0.388v1.552c0,0,0.179,0.06,0.269,0.06h0.298
		c0.388,0,0.597,0,0.985-0.06h4.387c0.06,0,0.448,0.06,0.567,0.179c0.208,0.09,0.208,0.209,0.208,0.389
		c0,0.478-0.597,0.775-1.104,0.775h-5.164l-0.388,0.389c-0.06,0.209-0.06,0.388-0.06,0.478c0,1.074,0.269,2.179,0.269,3.223v0.567
		c-0.269,0.508-0.597,0.597-1.164,0.896H40.674z M36.287,7.61c-0.776-0.508,0-2-1.164-2c-0.12,0-0.687,0.329-0.896,0.329
		c-0.06,0-0.448,0.119-0.567,0.119l-1.433,0.447h-0.12c-0.208,0-0.597,0-0.656-0.179c-0.12-0.209-0.388-0.717-0.388-0.985
		c0-0.119,0.179-0.388,0.269-0.388c0.12-0.119,0.507-0.299,0.567-0.299c0.119,0,0.895-0.209,1.164-0.209
		c0.12,0,0.985-0.06,1.104-0.06c0.06,0,0.567-0.119,0.567-0.119l0.209-0.209c0-0.269-0.328-0.447-0.388-0.656
		c0-0.12-0.12-0.299-0.12-0.299v-0.09c0,0,0.507-0.566,0.567-0.566c0.508,0,1.164,0.06,1.672,0.179
		c0.089,0.209,0.269,1.433,0.388,1.433h1.94c0,0,0.329,0.119,0.388,0.209c0.119,0,0.328,0.179,0.328,0.179v0.12
		c0,0.478-0.597,0.656-0.985,0.775c-0.179,0-1.015,0.09-1.194,0.09L37.331,5.73c0,0.716,0,1.88-0.955,1.88H36.287z M39.719,12.267
		c-1.104,0-2.268,0.179-3.343,0.388c-0.209,0.567-0.269,1.074-0.269,1.642h0.448c0.12,0,0.507-0.09,0.597-0.09
		c1.015-0.089,2.059-0.089,3.014-0.298c0.209-0.299,0.209-0.776,0.209-1.164c0-0.18,0-0.299-0.089-0.478H39.719z M41.45,11.103v0.09
		l0.089-0.18v-0.119L41.45,11.103z M41.54,13.52c0,0.09,0.119,0.209,0.179,0.299h0.776c0.328,0,1.671-0.09,1.94-0.09
		c0.597-0.209,0.716-1.373,0.716-1.851c-0.328,0-0.597,0.09-0.985,0.09l-0.12-0.179c-0.179,0.179-0.448,0.089-0.656,0.089
		c-0.12,0-0.388,0.09-0.507,0.09c-0.179,0-0.836,0.09-1.045,0.09l-0.179,0.209c0,0-0.119,0.775-0.119,1.164V13.52z M44.942,6.715
		c-0.119,0.119-0.388,0.299-0.567,0.299c-0.209,0-0.209-0.18-0.209-0.299c0-0.478,0.388-0.896,0.388-1.373
		c0-0.179-0.179-0.298-0.298-0.298c-0.597,0-1.253,0.298-1.761,0.298c-0.269,0-0.388,0-0.567-0.179c0-0.119-0.09-0.776-0.09-0.896
		V4.059c0-0.269,0.269-0.179,0.388-0.447h2.537l0.269-0.209V3.014c0-0.388-0.089-0.687-0.089-1.074c0-0.269,0.089-0.388,0.388-0.388
		c0.507,0,1.671,0.179,1.671,0.775c0,0.389-0.179,0.776-0.179,1.164c0,0.12,0.06,0.12,0.179,0.12c0.597,0,1.164-0.12,1.761-0.12
		c0.269,0,0.836-0.089,1.164,0.12v0.06c0,0.209-0.209,0.328-0.388,0.507c-0.388,0.269-1.492,0.657-1.94,0.776
		c-0.119,0-0.776,0.09-0.895,0.09c-0.09,0-0.478,0.119-0.478,0.119c-0.299,0.179-0.508,0.656-0.687,0.955L44.942,6.715z
		 M43.39,8.058c0.089,0,0.089-0.179,0-0.179C43.271,7.879,43.271,8.058,43.39,8.058z"/>
	<path d="M78.603,20.922l-0.328-0.269l-0.179-0.119c-0.388-0.209-0.657-0.598-1.044-0.866l-1.493-1.283
		c-0.06-0.06-0.776-0.896-0.895-0.955c-0.269-0.328-0.657-0.597-0.836-0.984c-0.507-0.687-1.104-1.284-1.671-1.94
		c-0.388-0.508-1.433-1.97-2.029-1.97c-0.776,0-1.552,0-2.328,0.119l-0.418,0.06c-0.089,0-1.373,0.119-1.433,0.119
		c-0.716,0.09-1.373,0.209-2.059,0.389c-0.209,0-0.657,0.209-0.776,0.209c-0.089,0-0.478,0.179-0.597,0.179
		c-0.567,0.269-0.388,0.985-0.448,1.552c0,0.12-0.12,0.508-0.12,0.598v0.298h1.463c0.089,0,0.597-0.119,0.656-0.119l2.328-0.179
		h2.776c0.269,0.119,0.656,0.388,0.656,0.775c0,0.18-0.269,0.389-0.478,0.389h-2.447l-0.179,0.119c-1.164,0-2.268,0.179-3.312,0.388
		c-0.567,0.06-1.284,0.06-1.851,0.388c-0.478,0.299-0.985,0.687-1.433,0.955c-0.209,0.12-1.015,0.508-1.224,0.598
		c0,0-0.179,0.119-0.269,0.119h-0.12c-0.06,0-0.269-0.119-0.269-0.119v-1.433c0,0,0.269-0.508,0.388-0.627l0.388-0.388l0.478-0.09
		c0.179,0,0.806-0.18,0.806-0.18l0.269-0.208l0.119-0.18c0.209-0.775,0.269-1.671,0.269-2.388v-0.269c0-0.119-0.06-1.164-0.06-1.283
		v-1.045c0-0.806-0.507-1.791-1.104-2.238V8.267l0.329-0.328l0.269-0.179h0.567c0.507,0,0.896,0.119,1.284,0.567
		c0.209,0.328,0.089,0.507,0.478,0.507c0.567,0,1.462-0.299,2.059-0.388c0.836-0.18,1.612-0.299,2.507-0.389l0.089-0.179V7.76
		c0-0.09-0.209-0.508-0.269-0.597c-0.12-0.299-0.597-1.075-0.776-1.164l-0.329,0.089L63.62,6.387l-0.208,0.09
		c0,0-0.508,0.119-0.567,0.119h-0.119c-0.269,0-0.478-0.388-0.478-0.687c0-0.388,0.089-0.985,0.478-1.254
		c3.283-0.119,6.625-0.507,9.938-0.507h1.224c0.12,0,1.612,0.119,2.179,0.209c0.478,0,1.373,0,1.373,0.775
		c0,0.687-1.164,1.344-1.492,2.03c-0.179,0.298-0.179,0.716-0.269,0.984c-0.12,0.299-0.627,0.687-0.806,0.955l-0.09,0.119h-2.119
		c-0.388-0.179-0.985-0.119-1.283-0.119h-0.866l-0.179,0.328v0.06c0,0.12,0.269,0.508,0.269,0.598l0.179,0.179
		c0,0,0.209,0.209,0.209,0.328l0.12,0.18c0.06,0.089,0.388,0.388,0.388,0.388h6.716c0.06,0,0.447,0.119,0.567,0.119
		c0.089,0,0.478,0.209,0.597,0.269l0.06,0.12c0,0.478-0.269,1.163-0.836,1.163c-0.896,0-1.671-0.119-2.537-0.179
		c-0.179,0-1.402-0.119-1.582-0.119c-0.388,0-0.776-0.09-1.164-0.09h-0.478l-0.179,0.209v0.06c0.06,0.119,0.388,0.389,0.448,0.508
		l0.209,0.269c0.179,0.209,0.388,0.209,0.507,0.507c0.269,0.269,1.731,1.493,2.06,1.762l0.06,0.119c0.119,0,0.507,0.269,0.597,0.269
		c0.299,0.119,0.388,0.388,0.687,0.507c0.388,0.18,0.388,0.061,0.657,0.448c0.329,0.119,1.492,0.836,1.761,0.896
		c1.074,0.507,2.238,1.164,3.492,1.373c0.12,0,0.687,0.119,0.806,0.119c0.179,0,0.865,0.06,0.865,0.388v0.06
		c-1.074,1.284-1.94,1.284-3.492,1.284h-0.776c-0.209,0-1.373-0.12-1.552-0.12C78.871,21.101,78.662,20.922,78.603,20.922z
		 M62.635,12.147c0.985,0,2.03-0.27,2.985-0.389c1.164-0.089,2.388-0.209,3.552-0.388c0.06,0,0.269-0.09,0.269-0.09
		c0-0.298-0.597-0.806-0.657-1.015c-0.119-0.06-0.388-0.836-0.507-0.955l-0.089-0.09h-0.299c-1.492,0-2.925,0.478-4.268,0.985
		c-0.119,0-0.507,0.179-0.597,0.179c-0.12,0-0.388,0-0.507,0.209c-0.06,0.389-0.179,0.776-0.179,1.164
		C62.336,12.058,62.336,12.147,62.635,12.147z M68.067,6.477c0.12,0.119,0.597,0.597,0.597,0.687
		c0.119,0.209,0.179,0.597,0.507,0.716h0.448c0.119,0,0.776-0.119,0.895-0.119h2.985c0.328,0,0.328-0.09,0.388-0.299
		c0.209-0.597,0.716-1.164,0.716-1.851c0,0-0.208-0.089-0.328-0.089c-0.06,0-0.567-0.09-0.567-0.09h-3.313
		c-0.836,0.269-1.731,0-2.597,0.388v0.09C67.798,6.208,67.888,6.297,68.067,6.477z"/>
	<path d="M89.311,16.355v-0.567c-0.179-3.433-0.179-6.835-0.179-10.237c-0.12-0.328-0.209-0.597-0.209-0.896
		c0-0.269,0.269-0.656,0.597-0.775c0.179,0,1.224-0.09,1.433-0.09c0.179,0,1.462-0.299,1.671-0.299c0.567-0.089,4-0.269,4.955-0.388
		c0.269,0,2.328-0.09,2.597-0.09c0.119,0,1.164-0.119,1.283-0.119l3.701-0.179c0.179,0,1.851,0.119,2.447,0.179l0.388,0.119
		c0.776,0.09,1.224,0,1.611,0.657c0,0.119,0.209,0.388,0.209,0.388v0.119c0,0.866-0.478,1.642-0.597,2.418
		c0,0.119-0.06,0.806-0.06,0.896c0,0.119-0.119,0.566-0.119,0.687c0,0.089-0.089,2.029-0.089,2.716c0,0.209,0.089,0.388-0.12,0.597
		c0,0.687-0.179,3.791-0.179,4.478v0.388c0,0.984,0.12,2.029,0.12,3.044v1.164c-0.12,0.388-0.388,0.776-0.776,0.776
		c-0.507,0-1.104-0.209-1.552-0.328h-0.119c-0.09,0-1.045-0.061-1.164-0.061h-1.821c-3.223,0-6.447,0.18-9.67,0.657
		c-0.657,0.119-1.373,0.388-1.94,0.567c-0.478,0.208-0.985,0.507-1.433,0.507c-0.717,0-1.104-0.955-1.104-1.552v-4
		C89.191,17.012,89.311,16.445,89.311,16.355z M90.743,18.684c0,0.119,0.12,0.716,0.12,0.775v0.508c0,0.09,0.089,0.269,0.089,0.388
		h0.12l0.06-0.119l0.209,0.119h0.298c0.09,0,0.388-0.119,0.478-0.119c1.164-0.179,2.328-0.269,3.522-0.388
		c1.552-0.06,3.193-0.06,4.746-0.269l0.298-0.12c0.269,0,0.478,0.12,0.657,0.12h0.209c0.119,0,0.567-0.12,0.687-0.12
		c0.208,0,2.716-0.06,3.611-0.06h0.776l0.209-0.119l0.06-0.388l0.12-0.329c0.089-0.179,0.208-0.775,0.208-0.775v-2.597h-0.597
		l-0.179,0.09h-0.716c-0.776,0-1.343-0.09-2.119-0.389c-0.269-0.089-0.388-0.298-0.716-0.298c-0.388,0-0.269,0.209-0.567,0.478
		l-1.044,1.104v0.061c0.269,0,1.611,0.209,1.94,0.209c0.179,0,0.507,0.119,0.507,0.298c0,0.388-0.209,0.865-0.627,0.865h-1.552
		l-0.388-0.089h-0.269c-0.209,0-0.329,0-0.507,0.089c-0.478,0-2.985,0.12-3.492,0.12c-0.089,0-0.657,0.06-0.865,0.06
		c-0.627,0.119-1.015,0.328-1.582,0.388h-0.776c-0.269,0-0.478,0.209-0.657,0.209c-0.328,0-0.388-0.269-0.388-0.597
		c0-0.06,0.179-0.836,0.388-0.955c1.82-0.269,3.671-0.388,5.551-0.478c0.269,0,1.552-0.119,1.821-0.119
		c0.298,0,0.567-0.657,0.687-0.836c0.089-0.119,0.656-1.104,0.776-1.194c0.089-0.209,0.089-0.209,0.089-0.388v-0.09
		c-0.776-0.687-1.253-1.373-1.94-2.148l-0.388-0.388c-0.388-0.478-0.597-1.254-1.164-1.642c-0.209-0.209-0.269-0.12-0.597-0.12
		c-0.776,0-1.552,0.12-2.328,0.18c-0.687,0.119-1.283,0.119-1.85,0.328l-0.09,0.06c-0.179,0.119-0.776,0.328-0.955,0.328
		c-0.388,0-0.716-0.119-0.776-0.507c0-0.09,0.179-0.776,0.269-0.866c0.179-0.388,1.075-0.388,1.462-0.507
		c1.253-0.18,2.656-0.269,3.88-0.567V7.67c0-0.656-0.955-1.164-0.955-1.939c0-0.299,0.388-0.389,0.686-0.508h0.209
		c0.955,0,0.836,0.776,1.164,1.492c0.06,0.18,0.388,0.687,0.388,0.776L99.13,7.67c0.388,0.209,0.866,0,1.254,0.209h1.851
		l0.269-0.269V7.282c0-0.567-0.179-0.567-0.179-0.955c0-0.328,0.567-0.388,0.776-0.388c0.418,0,1.194,0.179,1.194,0.775
		c-0.119,0.119-0.298,0.687-0.388,0.776l-0.119,0.119v0.06c0,0.209,0.119,0.388,0.328,0.388c0.06,0,0.657,0.12,0.776,0.12
		c0.179,0.089,0.179,0.209,0.179,0.388c0,0.269-0.119,0.478-0.388,0.656c-0.12,0-0.776,0.209-0.955,0.209h-0.388
		c-0.716,0-1.403-0.089-2.059-0.089c-0.12,0-0.597,0.089-0.717,0.089v0.12c0,0.06,0.12,0.269,0.12,0.269l0.089,0.119
		c0.12,0.06,0.567,0.656,0.687,0.776l0.09,0.089l0.179,0.09l0.896,0.896c0.09,0.089,0.388,0.269,0.597,0.269h0.119
		c0.448-0.388,0.448-1.164,1.164-1.164h0.179c0.209,0.119,0.776,0.388,0.776,0.388v0.508c0,0-0.388,0.478-0.567,0.566
		c-0.329,0.299-0.508,0.209-0.716,0.478c0.507,0.687,2.059,1.373,2.835,1.373c0.388,0,0.269-0.388,0.269-0.687
		c0-0.089,0.119-1.074,0.119-1.164v-0.478c0-0.089,0.09-1.163,0.09-1.283V8.834c0-0.179,0.119-1.343,0.119-1.552v-2.06
		c0-0.06-0.119-0.447-0.209-0.567c0,0-0.507-0.209-0.567-0.209c-0.12,0-0.896-0.06-1.104-0.06h-1.343
		c-0.089,0-0.388-0.119-0.478-0.119h-1.074c-0.985,0-2.06,0.119-3.044,0.179l-0.388,0.12c-0.836,0.089-1.731,0-2.597,0.089
		c-0.955,0.12-1.97,0.18-2.955,0.299c-0.776,0.09-1.82,0.09-2.507,0.478c0,0-0.089,0.119-0.089,0.179c0,0.12-0.12,0.329-0.12,0.329
		c0,0.06-0.06,0.447-0.06,0.566v0.717c0,0.06-0.329,0.775-0.329,0.835c0,0.12-0.06,0.985-0.06,1.373v1.762
		c-0.119,0.775-0.119,4.477-0.119,5.253L90.743,18.684z M93.847,12.267l0.507-0.299c0.597-0.478,0.657-1.253,1.552-1.253
		c0.597,0,0.985,0.298,1.492,0.478l0.448,0.089c0.507,0.209,0.716,0.389,1.104,0.597c0.388,0.18,0.448,0.478,0.448,0.866v0.388
		c-0.06,0.478-0.388,0.865-0.776,1.164c-0.179,0.209-0.656,0.388-0.955,0.388c-1.253,0.209-2.537,0.329-3.82,0.329
		c-0.656,0-0.835-0.508-0.835-1.194C93.012,13.222,93.399,12.654,93.847,12.267z M94.952,13.431h0.269
		c0.298,0,1.194-0.09,1.284-0.09c0.298,0,1.074-0.299,1.074-0.597c0-0.389-0.567-0.776-0.896-0.955
		C96.235,11.789,94.952,12.953,94.952,13.431z"/>
	<path d="M118.583,19.848c0-0.18,0.388-1.851,0.388-2.06v-1.82c0-0.389,0.209-3.91,0.209-4.298v-0.09
		c-0.298,0.298-0.597,0.687-0.866,0.984c-0.895,0.776-1.85,1.344-3.014,1.731c-0.388,0.09-0.508,0.209-0.896,0.209
		c-0.478,0-0.597-0.388-0.597-0.896c0-0.179,0.507-1.254,0.597-1.343c0.119,0,0.298-0.09,0.388-0.09h0.388
		c1.284-0.209,3.701-1.791,3.91-3.134c0-0.09-0.119-0.597-0.119-0.656c-0.478,0-1.343,0.179-1.94,0.388
		c-0.089,0-0.776,0.269-0.866,0.269c-0.179,0.119-0.567,0.179-0.806,0.179c-0.269,0-0.657-0.269-0.657-0.566v-0.09
		c0-0.179,0.209-0.567,0.209-0.567c0.06-0.119,0.388-0.388,0.567-0.507c1.075-0.269,2.149-0.389,3.224-0.508
		c0.089,0,0.388-0.089,0.388-0.089V5.432c-0.119-0.209-0.298-0.656-0.298-0.985c0.179-0.447,0.478-0.955,1.164-0.955
		c0.478,0,1.075,0.299,1.075,0.896v0.18c-0.12,0.597-0.209,1.164-0.209,1.82c0,0.119,0,0.209,0.089,0.209
		c0.388,0,0.687-0.09,1.075-0.09c0.209,0,0.478,0,0.597,0.09c0.09,0.119,0.388,0.388,0.388,0.507v0.18
		c0,0.597-0.687,0.716-1.164,0.775c-0.12,0-0.776,0.12-0.896,0.12l-0.179,0.089c-0.089,0.687-0.298,1.344-0.298,2.06v0.06
		c0.866,0.12,1.761,0.389,2.328,1.104l0.209,0.299v0.089c0,0.18-0.507,0.389-0.597,0.478c-0.089,0.09-0.388,0.299-0.388,0.299
		h-0.478l-0.985-0.984h-0.179l-0.209,1.283v1.433c0,1.671,0.119,3.402,0.119,5.073v1.164c-0.209,0.389-0.388,0.985-0.985,0.985
		c-0.478,0-0.687-1.045-0.687-1.373V19.848z M124.821,21.519c-0.298-0.179-1.283-1.074-1.283-1.552c0-0.179,0.328-0.119,0.388-0.119
		c0.328,0,0.597,0.119,0.985,0.119h0.119c1.343-0.179,2.209-0.179,3.164-1.343c0.328-0.448,0.507-0.836,0.507-1.284
		c0-0.119,0-0.209-0.12-0.209h-0.06c-0.597,0.09-1.94,0.209-1.94,0.209c-0.776,0.061-1.373,0.567-2.149,0.567
		c-0.179,0-0.298,0-0.388-0.119V17.4c0-0.18,0-0.27,0.09-0.567c0.119-0.209,0.388-0.269,0.567-0.388
		c0.597-0.389,1.761-1.164,1.88-1.94h-0.12c-0.269,0-0.478,0.119-0.776,0.179c-0.388,0.12-0.866,0.209-1.253,0.329
		c-0.12,0-0.776,0.269-0.896,0.269h-0.179c-0.388,0-0.507-0.09-0.507-0.478c0-0.299,0.299-1.075,0.627-1.194
		c0.06,0,0.567-0.09,0.657-0.09c1.85-0.298,3.791-0.566,5.611-0.775c0.209,0,0.985-0.18,0.985-0.299
		c-0.089-0.179-0.597-0.865-0.597-0.955c0-0.388,0.597-0.388,0.895-0.388c0.776,0,0.896,0.775,1.164,1.343
		c0.329,0,1.88-0.179,2.149-0.179h1.851c0.597,0,1.164,0.089,1.642,0.388c0.12,0.09,0.12,0.09,0.12,0.179v0.12
		c-0.776,0.478-1.493,0.865-2.328,0.865c-0.716,0-1.373-0.09-2.06-0.09h-0.388l-0.209,0.09v0.09
		c0.388,0.896,0.985,1.552,1.552,2.268c0.12,0.061,0.328,0.448,0.388,0.567c1.373,1.373,2.656,1.672,4.387,2.269l0.507,0.06
		c0.209,0.119,0.866,0.119,0.866,0.328c0,0.269-0.388,0.567-0.478,0.657c-0.896,1.074-1.283,1.283-2.626,1.552l-0.388,0.119h-0.209
		c-0.298,0-0.776-0.209-0.955-0.388l-0.209-0.328c-0.388-0.448-0.776-0.955-1.164-1.433c-0.12-0.12-0.299-0.389-0.299-0.389
		l0.12-0.119c-0.896-0.179-1.552-2.507-1.94-3.283c-0.209-0.328-1.104-1.97-1.164-1.97h-1.671l-0.328,0.09
		c-0.06,0-0.448,0.089-0.567,0.089c-0.269,0.12-0.209,0.299-0.269,0.508c-0.328,0.388-0.776,0.776-1.104,0.955
		c-0.179,0.119-0.388,0.209-0.567,0.388h0.507c0.567,0,1.224-0.06,1.821-0.06h0.776c0.119,0,0.567,0.18,0.567,0.388
		c0,0.448-0.388,0.836-0.448,1.225l-0.119,0.388c-0.388,1.283-0.985,2.566-2.029,3.552c-0.508,0.447-0.955,0.566-1.672,0.566h-0.447
		c-0.12,0-0.597-0.298-0.716-0.298L124.821,21.519z M124.821,11.789c-0.298-0.119-0.388-0.299-0.388-0.687
		c0-0.776,0.776-1.164,1.253-1.672c0.388-0.269,1.164-1.164,1.164-1.164V8.178c0,0-0.597-0.12-0.776-0.12
		c-0.866-0.06-1.761,0-1.761-1.163c0-0.776,1.104-1.284,1.552-1.731l0.896-0.896c0.089,0,0.478-0.09,0.597-0.09h0.06l0.209,0.209
		c1.164-0.119,2.239,0.448,2.507,1.612v0.328c0,0.567-0.06,0.447-0.448,0.896c-0.209,0.179-0.776,0.775-0.776,0.775v0.06
		c0,0,0.269,0.209,0.388,0.209l0.448,0.12c0.597,0.179,0.985,0.656,0.985,1.343c0,0.478-0.478,0.865-0.985,1.045l-0.448,0.119
		c-1.373,0.299-2.447,0.896-3.82,0.896H124.821z M126.075,6.506c0,0,0.388,0.209,0.507,0.209c0,0,0.388,0.06,0.567,0.06
		c0.209,0,0.657,0.12,0.657,0.12c0.328,0,0.776-0.389,0.776-0.687c0-0.478-0.567-0.478-0.835-0.657l-0.12-0.119h-0.089
		c-0.388,0-1.075,0.687-1.462,0.955V6.506z M127.418,10.207c0.209,0,0.896-0.209,0.985-0.209c0.119-0.269,0.686-0.179,0.686-0.656
		c0-0.12-0.507-0.776-0.686-0.776c-0.209,0-1.164,0.865-1.373,1.045l-0.388,0.328l-0.269,0.269H127.418z M132.582,11.013
		c-0.06,0-0.448-0.119-0.567-0.238c-0.209-0.06-0.269-0.448-0.269-0.776c0-0.955,1.224-1.224,1.731-1.94V7.879
		c-0.12,0-0.507-0.09-0.567-0.09h-0.597c-0.12,0-0.567-0.119-0.687-0.119c-0.089,0-0.388-0.179-0.388-0.388
		c0,0,0.12-0.388,0.12-0.508c0.179-0.955,1.343-1.611,1.94-2.388l0.269-0.507l0.298-0.09l0.209-0.119
		c0.06,0,0.448,0.119,0.567,0.209v0.298c0,0.985-1.343,1.373-1.851,2.03v0.119c0,0.388,1.164,0.269,1.552,0.269
		c0.299,0,0.896,0,0.896-0.478c0-0.508-0.716-0.388-0.716-0.955c0-0.388,0.985-0.388,1.283-0.388c0.597,0,1.164,0.388,1.164,1.044
		c0,0.18,0,0.299-0.179,0.508c-0.209,0.179-0.985,0.955-1.164,1.164c0.269,0.388,1.164,0.388,1.552,0.955
		c0.06,0.119,0.179,0.388,0.179,0.388s-0.12,0.508-0.12,0.597c-0.06,0.508-0.388,0.567-0.776,0.776
		c-0.269,0.179-1.224,0.567-1.224,0.567l-0.507,0.119l-0.269,0.119H132.582z M133.477,9.938c0.269,0,1.164-0.119,1.164-0.119
		c0.089,0,0.656-0.269,0.776-0.389c0.209-0.089,0.209-0.269,0.209-0.478c0-0.388-0.388-0.775-0.776-0.775
		c-0.208,0-0.328,0.089-0.507,0.269c-0.089,0.119-0.597,0.507-0.597,0.507c-0.179,0.209-0.776,0.776-0.776,0.776v0.09
		c0,0,0.328,0.119,0.388,0.119H133.477z"/>
	<path d="M156.691,24.623c-0.448,0-0.776-0.567-0.836-0.955c0-0.209-0.119-1.104-0.119-1.284c0-0.208,0.119-1.163,0.119-1.372
		l0.06-0.18v-0.089c0-0.12-0.06-0.18-0.06-0.299c0-0.388,0.179-0.896,0.179-1.283c0.09,0,0.269-0.09,0.269-0.09l-0.06-0.179
		c0,0-0.209,0.06-0.209-0.12V17.52l-0.119-0.18h-0.567L155.14,17.4l-1.94,0.328c-0.776,0.06-1.552,0.269-2.238,0.447
		c-0.985,0.328-2.029,0.508-2.984,0.896c-0.12,0-0.508,0.269-0.597,0.269c-0.12,0-0.776,0.328-0.896,0.328l-0.269,0.18
		c-0.119,0.119-0.507,0.328-0.507,0.328l-0.388,0.06l-0.119,0.119c-0.448,0.269-0.657,0.478-1.224,0.478
		c-0.388,0-0.716-0.089-0.896-0.478v-0.119c0-0.687,0.298-1.074,0.567-1.672l0.12-0.269l0.209-0.298
		c0.835-0.09,1.731-0.269,2.626-0.478c1.253-0.18,2.537-0.508,3.761-0.687c0.119,0,0.716-0.209,0.895-0.209
		c1.373-0.269,2.835-0.388,4.208-0.567c0.06,0,0.448-0.089,0.448-0.089s0.119-0.389,0.119-0.508v-1.074h-0.776
		c-1.343,0.119-2.835,0.597-4,1.283h-0.119c-0.388,0-0.776-0.597-0.776-0.985c0-0.388,0.119-0.687,0.119-1.164v-0.478l-0.119-0.209
		c-0.269-0.775-0.776-1.433-0.776-2.208v-0.418c0.12-0.388,0.209-1.164,0.597-1.433c0.119-0.119,0.388-0.209,0.507-0.209
		c1.044-0.119,2.119-0.179,3.223-0.299l0.269-0.089c0.119,0,0.776-0.12,1.074-0.12c0.089,0,0.866-0.06,0.866-0.269v-1.85
		c-1.552,0-3.224,0.507-4.656,0.895c-0.119,0-0.507,0.18-0.597,0.18l-0.179,0.089c-0.12,0-0.507,0.18-0.597,0.18h-0.119
		c-0.269,0-0.388-0.448-0.388-0.657V6.506l0.12-0.179V5.939c0.089-0.27,0.089-0.598,0.388-0.776
		c0.269-0.209,1.373-0.328,1.761-0.328c0.448,0,2.507-0.18,3.014-0.18l0.269,0.12l0.208-0.12c0.12,0,0.687-0.089,0.776-0.089V3.104
		c0-0.09-0.09-0.478-0.09-0.597l-0.298-0.269c0,0-0.089-0.389-0.089-0.508V1.552c0.208-0.597,0.478-0.776,1.044-0.776
		c0.896,0,1.373,0.687,1.373,1.463c0,0.656-0.269,1.373-0.269,1.939v0.389c0.776,0,4.268,0.089,5.044,0.089
		c0.507,0,1.074,0.12,1.074,0.567s-0.179,0.627-0.567,0.717h-2.328c-0.626,0-1.224-0.209-1.791-0.209h-0.09
		c-0.179,0-1.283,0.119-1.462,0.119c-0.209,0.388-0.089,0.984-0.089,1.253V7.67l0.209,0.209h4.775c0.179,0,0.835,0.119,1.044,0.119
		c0.388,0.06,0.687,0.269,0.687,0.567c0,0.656-0.388,1.254-0.687,1.851c-0.269,0.776-0.657,1.462-0.985,2.238
		c0,0.09-0.269,0.567-0.269,0.687c-0.299,0.567-0.896,0.656-1.343,0.865h-3.611v1.642h1.821l0.298-0.06h0.089
		c0.179,0,0.388,0.06,0.687,0.06h0.388c0.089,0,0.388-0.06,0.507-0.06c0.089,0,0.865,0.06,0.985,0.06c1.821,0.12,3.671,0,5.492,0.12
		c1.104,0,2.06,0.208,3.134,0.208c0.09,0,0.209,0.061,0.209,0.18c0,0-0.119,0.209-0.119,0.269c-0.179,0.597-0.567,1.104-1.164,1.373
		c-0.269,0.179-1.164,0.566-1.164,0.566h-0.388c-1.671,0-3.014-0.656-4.566-1.044c-1.373-0.299-2.835-0.389-4.268-0.389h-1.671
		c-0.089,0.09-0.269,0.209-0.269,0.389v0.984c0,1.164,0.06,2.447,0.179,3.611c0,0.061,0.089,0.776,0.089,0.836v0.328
		c0,0.567-0.269,0.955-0.776,1.344H156.691z M155.468,9.162c-0.328,0-1.373,0.18-1.671,0.18c-0.209,0.209-0.896,0.209-1.284,0.269
		c-0.208,0-0.985,0.328-1.164,0.328c-0.209,0.269-0.209,0.478-0.209,0.776c0,0.179,0,0.298,0.209,0.298
		c1.074,0,2.179-0.209,3.134-0.298c0.388,0,1.433-0.09,1.433-0.09l0.209-0.209V9.162H155.468z M155.647,11.67
		c-0.12,0-0.687,0.119-0.776,0.119c-0.179,0-1.343,0.089-1.552,0.089c-0.418,0-1.582,0.09-1.582,0.687
		c0,0.18,0.179,1.045,0.507,1.045c1.164,0,2.448-0.269,3.611-0.388c0.06,0,0.269-0.09,0.269-0.269V11.67H155.647z M161.586,10.326
		c0.09,0.09,0.209,0.18,0.388,0.18c0.209,0,0.388-0.776,0.388-1.075V9.222c-1.164-0.269-1.97-0.388-3.224-0.388h-0.567
		c-0.329,0-0.896,0.119-0.896,0.119l-0.089,0.09v1.373c0.985,0,1.94-0.09,2.984-0.09H161.586z M161.407,11.281
		c-0.12,0-0.507,0.119-0.627,0.119c-0.985,0.09-2.029,0-2.984,0.09c-0.12,0-0.209,0.09-0.209,0.09v1.462c0,0,0.269,0.09,0.388,0.09
		l0.388-0.09c0.269,0,1.94-0.089,2.208-0.089c0.448-0.299,1.015-1.164,1.015-1.672H161.407z"/>
	<path d="M188.68,20.235c-2.597,0-5.253,0.388-7.879,0.776c-0.388,0.119-0.776,0.209-1.164,0.388
		c-0.478,0.209-0.985,0.209-1.433,0.388c0,0-0.597,0.328-0.776,0.389c-0.209,0.119-1.284,0.716-1.492,0.775
		c-0.179,0.328-1.075,0.717-1.462,0.717c-0.657,0-0.657-1.284-0.657-1.553c0-0.507,0.179-0.984,0.567-1.283
		c0.209-0.089,0.896-0.209,1.164-0.209c0.716-0.06,1.373-0.179,2.06-0.269c0.209,0,1.044-0.238,1.164-0.238l0.269-0.06
		c0.119,0,1.283-0.12,1.373-0.12c1.164-0.089,2.328-0.388,3.522-0.478h0.269c0.209,0,0.985-0.119,1.164-0.119
		c0.328-0.269,0.597-0.447,0.597-0.955v-0.209c0,0-0.269-0.06-0.388-0.06h-0.089c-0.955,0.06-2.06,0.179-3.015,0.388
		c-0.597,0.06-1.104,0.269-1.671,0.389l-0.269,0.06h-0.328c-0.06,0-0.179-0.18-0.179-0.18v-1.044c0,0,0.179-0.209,0.298-0.209
		c0.209-0.119,0.657-0.299,0.657-0.299h1.552c0.209-0.209,0.627-0.09,0.836-0.09c0.06,0,1.224-0.119,1.343-0.119h0.657
		c0.388,0,0.716-0.447,0.716-0.836l-0.119-0.208h-2.417c-0.508,0-1.791,0.208-1.791,0.208l-0.448,0.448h-0.119
		c-0.388,0-0.657-0.656-0.657-0.955v-0.09c0.179-0.687,0.388-1.373,0.388-2.148c-0.119-0.389-0.119-0.985-0.388-1.373
		c-0.209-0.269-0.716-0.567-0.716-1.045h2.059c0.478,0,0.866-0.209,1.373-0.298c2.895-0.389,5.939-0.389,8.954-0.478
		c0-0.12,0.209-0.12,0.269-0.12h0.119c0.209,0.12,0.866,0.389,0.985,0.508c0.179,0.09,0.179,0.179,0.179,0.388
		c0,0.567-0.507,0.776-0.687,1.254c-0.269,0.775-0.597,1.462-0.656,2.417c-0.329,0.209-0.716,0.985-0.985,0.985
		c-0.298,0-0.507-0.09-0.806-0.09h-0.269c-0.119,0-0.776,0.09-0.896,0.09h-0.388c-0.597,0-1.761-0.09-1.761,0.776
		c0,0.179,0,0.298,0.329,0.388h0.776c1.164,0,2.328-0.269,3.611-0.269h0.388c0.269,0.06,0.179,0.388,0.179,0.447v0.328l-0.567,0.567
		h-0.985c-0.507,0-2.746,0.09-3.224,0.09c-0.388,0-0.567,0.298-0.567,0.687v0.269c0.06,0.119,0.388,0.209,0.448,0.209h1.104
		c1.164,0,2.328-0.209,3.492-0.209h4.179c0.089,0,0.865-0.06,0.985-0.06c0.269,0,1.462-0.12,1.731-0.12l0.12-0.089h0.656
		c0,0.388-0.089,0.865-0.269,1.253c-1.074,0.807-2.358,1.403-3.73,1.403h-0.06c-0.895-0.209-1.88-0.508-2.716-0.717
		c-0.985-0.179-2.06-0.179-3.044-0.269c-0.119,0-0.896-0.119-0.955-0.119H188.68z M175.369,9.729
		c-0.328-0.299-0.328-1.164-0.328-1.552c0-0.389,0.448-0.687,0.626-1.075c0.209-0.269,0.269-0.775,0.478-1.044
		c0.179-0.328,0.687-0.597,0.955-0.776c0.12-0.119,0.329-0.238,0.329-0.238c0.06,0,0.657-0.09,0.776-0.09
		c0.388-0.119,0.776-0.179,1.164-0.299c0.955-0.209,1.94-0.269,2.895-0.388c0.209,0,1.492-0.09,1.671-0.09
		c0.09,0,0.597-0.119,0.657-0.119c0.209,0,1.104-0.179,1.164-0.388c0-0.06,0.209-0.776,0.209-0.836V1.939l-0.09-0.09l-0.388-0.566
		V0.507C185.695,0.298,185.875,0,186.143,0h0.209l0.12,0.119c0.06,0.06,0.835,0.388,0.955,0.447c0.269,0.12,0.388,0.209,0.388,0.508
		c0,0.388-0.119,0.656-0.179,1.045c0,0.119-0.12,0.597-0.12,0.716V3.79l0.179,0.209h0.716c0.06,0,0.567-0.119,0.657-0.119
		c0.179,0,1.552,0.119,1.791,0.119c0.06,0,0.567-0.119,0.657-0.119h0.119c0.179,0,1.821,0.119,2,0.119
		c1.492,0,2.716-0.119,3.82,0.955c0,0,0.179,0.209,0.179,0.328c0.09,0.269,0.478,1.045,0.478,1.164v0.567
		c-0.208,0.984-0.656,1.552-1.433,2.148l-0.208,0.06h-0.12l-0.06-0.179l-0.328-0.09c-0.388-0.179-0.388-0.566-0.388-0.955
		c0-0.507,0.119-0.984,0.119-1.552V5.73c-0.298-0.18-0.507-0.269-0.895-0.269c-0.388-0.12-1.552-0.18-1.612-0.18h-5.551
		c-0.209,0.06-0.209,0.06-0.388,0.06c-0.209,0-0.328-0.06-0.388-0.06c-0.597,0-0.985,0.269-1.492,0.269h-1.044
		c-0.896,0-1.671,0.299-2.448,0.389c-0.119,0-0.776,0.119-0.895,0.119c-0.06,0-1.045,0.179-1.343,0.269
		c-0.209,0-1.044,0.298-1.164,0.298c-0.597,0.209-0.985,0.389-1.044,0.985c0,0.06-0.209,1.045-0.209,1.164
		c0,0.06-0.179,0.656-0.179,0.776l-0.119,0.179c-0.09,0.09-0.597,0.597-0.657,0.687h-0.328l-0.179-0.299L175.369,9.729z
		 M178.085,25.011c-0.09,0-0.269,0-0.269-0.179c0.388-0.389,0.835-0.896,1.224-1.164c0.328-0.329,0.716-0.508,0.985-0.776
		c0.298-0.388,0.119-0.597,0.687-0.716h0.089c0.388,0,1.164,0.388,1.164,0.775c0,0.328,0,0.717-0.269,0.896
		c0,0-0.716,0.388-0.985,0.597c-0.179,0.06-0.687,0.389-0.687,0.389c-0.478,0.179-1.045,0.06-1.552,0.06l-0.269,0.119H178.085z
		 M178.592,2.895c-0.12,0-0.388-0.269-0.507-0.269V2.507l0.119-0.06c0.06,0,0.657-0.209,0.776-0.209l1.552-0.567
		c0.269-0.209,0.448-0.328,0.835-0.328h0.209c0.12,0.119,0.687,0.716,0.776,0.776c0.12,0.208,0.12,0.328,0.12,0.507
		c0,0,0.06,0.388-0.12,0.388c-0.597,0.209-1.164,0.209-1.761,0.209c-0.776,0-1.224,0-1.94-0.209L178.592,2.895z M191.038,7.879
		c-0.507,0.567-0.806,1.731-1.671,1.731c-0.388,0-0.776-0.06-1.284-0.06c-1.343,0-2.596,0.269-3.939,0.388
		c-0.328,0.299-0.776,0.299-1.283,0.299c-0.12,0-0.209,0.089-0.329-0.12c-0.06-0.179-0.179-0.566-0.179-0.775
		c0-0.389,0.179-0.776,0.179-1.164v-0.18l-0.567-0.597V7.014c0-0.119,0.298-0.389,0.388-0.389h0.179c0.209,0,0.388,0,0.507,0.09
		h0.597c0.955,0,2.059-0.209,3.014-0.269c1.254-0.119,2.537-0.119,3.761-0.119h0.896c0,0,0.328,0.119,0.328,0.179v0.717l-0.119,0.06
		L191.038,7.879z M185.964,13.729c0,0-0.985,0.09-1.373,0.09c-0.657,0.09-1.552,0.09-2.239,0.299c-0.089,0-0.208,0.089-0.208,0.089
		v0.687c0,0.09,0.328,0.269,0.388,0.269h0.12c0.716-0.089,1.552-0.089,2.268-0.269l0.269-0.209h0.776
		c0.179-0.089,0.179-0.478,0.179-0.687v-0.179L185.964,13.729z M182.263,12.744c0,0.089,0.209,0.388,0.269,0.388h0.209l0.418-0.09
		c0.089,0,1.044-0.089,1.164-0.089l0.388-0.12c0.597-0.089,1.373,0.12,1.373-0.775c0,0,0-0.388-0.119-0.388h-1.761
		c-0.448,0.208-1.94,0.119-1.94,0.984V12.744z M184.412,21.608l1.283,0.567v2.656l-0.507,0.566h-0.985l-0.06-0.119
		c-0.119-0.179-0.328-0.836-0.328-0.836v-2.537c0-0.119,0.388-0.298,0.507-0.298H184.412z M187.636,7.61
		c-0.12,0-0.508,0.06-0.597,0.06c-0.955,0.119-1.851,0.328-2.835,0.328c-0.06,0.06-0.06,0.269-0.06,0.448
		c0,0.119,0,0.328,0.179,0.388h0.865c0.12,0,0.388-0.06,0.507-0.06c1.045-0.119,2.119-0.119,3.164-0.328
		c0.388-0.06,0.507-0.567,0.507-0.836H187.636z M187.248,14.386c0,0.119,0.269,0.298,0.388,0.298h1.611
		c0.329,0,1.373-0.179,1.671-0.179c0.209-0.209,0.329-0.985,0.329-1.283c-1.015,0-2.06,0.119-3.044,0.298
		c-0.12,0-0.687,0.09-0.776,0.09c0,0.119-0.179,0.597-0.179,0.687V14.386z M191.307,11.281c-1.164,0.119-2.447,0.119-3.611,0.209
		c-0.179,0.09-0.179,0.478-0.179,0.687c0,0.269,0.179,0.388,0.507,0.388c0.657,0,1.224-0.119,1.94-0.119
		c0.388,0,0.657,0.119,0.955,0.299c0.12,0.089,0.329,0.209,0.329,0.209c0.269,0,0.388-1.075,0.388-1.373V11.4L191.307,11.281z
		 M188.023,23.847c-0.209-0.567-0.328-1.283-0.328-1.851c0-0.269,0.119-0.597,0.507-0.597h0.089
		c0.776,0.209,0.955,0.388,0.955,1.283c0,0.388,0,1.94-0.447,1.94c-0.209,0-0.508,0-0.597-0.18L188.023,23.847z M191.307,2.716
		c-0.567,0-0.955-0.389-0.955-0.985c0-0.388,0-0.388,0.06-0.775c0-0.061,0.12-0.269,0.12-0.269h2.537
		c0.12,0,0.776-0.299,0.896-0.299h0.06l0.209,0.179c0,0.598-0.388,1.373-0.865,1.672c-0.12,0-0.776,0.269-0.896,0.269l-0.179,0.119
		c0,0-0.657,0.09-0.866,0.09H191.307z M192.471,24.056c-0.06-0.119-0.269-0.717-0.388-0.776c-0.06-0.328-0.388-0.775-0.388-0.984
		c0-0.119,0-0.18,0.208-0.299h0.687l0.388,0.299c0.089,0.089,0.478,0.269,0.597,0.388c0.388,0.269,0.656,0.478,1.044,0.776
		c0.507,0.388,1.283,0.478,1.283,1.164v0.269c0,0.119-0.328,0.328-0.388,0.328c-0.209,0-0.896,0.06-1.104,0.06l-0.269,0.119h-0.12
		c-0.179,0-0.179,0-0.388-0.119c-0.179-0.06-0.567-0.269-0.567-0.269c-0.089-0.119-0.388-0.776-0.478-0.896L192.471,24.056z"/>
</g>
</svg>
