<?xml version="1.0" encoding="utf-8"?>
<!-- Generator: Adobe Illustrator 17.0.0, SVG Export Plug-In . SVG Version: 6.00 Build 0)  -->
<!DOCTYPE svg PUBLIC "-//W3C//DTD SVG 1.1//EN" "http://www.w3.org/Graphics/SVG/1.1/DTD/svg11.dtd">
<svg version="1.1" id="Layer_1" xmlns="http://www.w3.org/2000/svg" xmlns:xlink="http://www.w3.org/1999/xlink" x="0px" y="0px"
	 width="56.97px" height="25.399px" viewBox="0 0 56.97 25.399" enable-background="new 0 0 56.97 25.399" xml:space="preserve">
<g>
	<path d="M7.163,19.758c0-0.507,0.209-0.955,0.328-1.552c0.06-0.597,0.179-1.582,0.179-2.238V15.58c-0.12,0-0.298,0.179-0.298,0.179
		c-0.209,0.209-1.254,1.253-1.433,1.462c-0.329,0.089-0.508,0.388-0.776,0.597c-0.209,0.09-1.492,0.985-1.761,1.164
		c-0.687,0.478-1.97,1.164-2.835,1.164C0.089,20.146,0,19.848,0,19.459v-0.269l0.865-0.896c0.388-0.089,0.687-0.269,1.075-0.388
		c0.089,0,0.567-0.09,0.687-0.09c0.089,0,0.478-0.209,0.597-0.209l0.06-0.089c0.12-0.119,0.716-0.298,0.776-0.388
		c0.716-0.298,1.164-0.776,1.761-1.164l0.298-0.209c0.388-0.299,0.597-0.567,0.866-0.955c0.298-0.299,0.388-0.388,0.388-0.776
		c-0.985,0-1.94,0.388-2.806,0.657c-0.567,0.209-1.075,0.298-1.671,0.507c-0.567,0.179-1.253,0.478-1.851,0.478
		c-0.179,0-0.657-0.089-0.657-0.388c0-0.209,0.09-0.299,0.179-0.478l0.209-0.209l0.179-0.09l0.089-0.209
		c0-0.089,0.298-0.269,0.298-0.269c0.985,0,2.06-0.388,3.044-0.597c0.06,0,0.567-0.09,0.657-0.09
		c0.388-0.089,1.851-0.208,2.119-0.478c0.119-0.119,0.388-0.417,0.388-0.417v-0.269c0-0.388,0.12-1.104-0.269-1.284H6.775
		c-0.388,0-0.567,0.12-0.955,0.12l-0.209-0.12l-0.06,0.12c-0.716,0.269-1.492,0.448-2.269,0.657
		c-0.835,0.298-1.731,0.567-2.626,0.567c-0.089,0-0.478,0-0.478-0.179v-0.985c0-0.567,4.477-0.776,4.597-1.224V9.64
		c0-0.298-0.12-1.552-0.388-1.552c-0.507,0-1.164,0.09-1.671,0.269c-0.089,0-0.985,0.328-1.164,0.388l-0.209,0.12H1.044
		c-0.179,0-0.776-0.12-0.776-0.388c0-0.298,0.209-1.015,0.507-1.074h0.269c0.776-0.12,1.462-0.507,2.179-0.597
		c0.06,0,0.776-0.119,0.836-0.119l0.208-0.06l4.388-0.597h0.269c1.164-0.12,2.447-0.179,3.611-0.179h1.075
		c0.089,0,0.478,0.179,0.478,0.388c-0.09,0.269-0.269,0.388-0.597,0.388c-0.06,0-0.657,0.06-0.835,0.06
		c-0.12,0-1.104,0.119-1.164,0.119c-0.12,0-0.388,0.209-0.388,0.209l-0.119,0.448c-0.09,0.209-0.597,1.283-0.657,1.492v0.12
		c0.179,0,0.835,0.06,1.044,0.06c0.687,0,1.343-0.179,2.06-0.179h0.269c0.179,0,0.119,0.388,0.119,0.388
		c0,0.955-0.985,1.164-1.761,1.164H9.103l-0.179,0.179v1.493c0,0.06,0.119,0.269,0.179,0.269h0.119c0.09,0,0.478-0.09,0.597-0.09
		c1.074-0.179,2.119-0.298,3.223-0.298c0,0.567-0.328,0.985-0.895,1.075h-0.388c-0.657,0.119-1.671,0.208-2.447,0.388
		c-0.209,0-0.388,0.12-0.388,0.298v0.09c0,0.298,0.119,1.074,0.119,1.164l0.06,0.209c0.985,0.089,1.88,0.776,2.567,1.462v0.089
		c0,0.567-0.687,0.866-1.164,0.866l-0.179-0.09c-0.12-0.089-0.836-0.776-0.896-0.865H9.103c0,0-0.179,0.388-0.179,0.567
		c-0.089,0.776-0.269,1.94-0.269,2.716c-0.209,0.388-0.507,0.717-0.985,0.717c-0.298,0-0.388-0.209-0.507-0.388V19.758z
		 M2.328,4.477C2.507,4.089,2.626,3.91,3.014,3.582c0.269,0,1.821-0.179,2.149-0.179c1.343-0.09,2.716-0.269,4.059-0.388
		c0.776-0.089,1.552-0.209,2.328-0.209h0.328c0.06,0,0.06,0.209,0.06,0.329c0,0.179,0,0.269-0.179,0.448
		c0,0-0.388,0.208-0.478,0.328c-0.179,0.06-0.687,0.269-0.687,0.269h-1.94c0,0.12-0.209,0.179-0.328,0.179
		c-0.06,0-0.836,0.119-0.955,0.119c-0.269,0-1.254,0.209-1.373,0.209L5.82,4.745C5.044,4.954,4.059,5.133,3.223,5.133H3.104
		L2.835,4.954H2.626l-0.12-0.089c0-0.12-0.179-0.298-0.179-0.298V4.477z M5.73,10.506c0.089,0,0.089-0.09,0-0.09
		C5.611,10.416,5.611,10.506,5.73,10.506z M5.82,7.909l0.12,0.179c0,0.09,0.179,0.597,0.179,0.597c0.09,0.269,0,0.657,0.209,0.955
		h0.448l0.328-0.12c0.06,0,0.657-0.06,0.776-0.06c0.179,0,0.835-0.209,0.955-0.209c0.388-0.567,0.388-1.343,0.478-1.97
		c0-0.209-0.269-0.089-0.269-0.089H8.715c-0.955,0.089-2,0.209-2.895,0.597V7.909z M22.474,21.698
		c-0.209,0.478-0.507,0.985-1.164,0.985c-0.388,0-0.507-1.104-0.507-1.493c0-0.656,0.119-1.433,0.179-2.119
		c0-0.388,0.12-1.552,0.12-1.671V15.58c0-0.12-0.12-0.896-0.12-1.075c0-0.089-0.06-0.597-0.06-0.687
		c-0.119-0.388-0.209-1.193-0.716-1.193c-0.448,0-1.044,0.238-1.433,0.328l-0.507,0.089c-0.269,0.09-0.388,0.687-0.388,0.985
		c-0.179,1.433-1.075,4.566-3.104,4.566h-0.119c-0.955-0.179-1.552-0.985-1.552-1.97v-0.179c0.208,0,0.985-0.09,1.164-0.09
		c0.985-0.119,1.493-0.507,2.149-1.283c0.299-0.388,0.299-0.776,0.299-1.164c0-0.866-0.179-1.552-0.896-2.06
		c-0.06-0.06-0.776-0.388-0.836-0.448c-0.119-0.119-0.119-0.208-0.119-0.328c0-0.448,0.388-0.835,0.896-0.955
		c0.06,0,0.656-0.089,0.776-0.089c0.06,0,0.657-0.299,0.776-0.299l0.269-0.089c0.179-0.12,1.075-0.507,1.194-0.567
		c0.597-0.329,1.761-1.104,1.761-1.791V7.014l-0.209-0.388c0-0.328,0.269-0.597,0.478-0.776C20.981,5.73,21.31,5.73,21.579,5.73
		c0.12,0,0.567,0,0.687,0.119c0,0,0.388,0.388,0.478,0.567c0.119,0.208,0.119,0.269,0.119,0.478c0,1.074-1.492,1.97-2.268,2.447
		c-0.269,0.179-0.567,0.298-0.836,0.507c-0.209,0.06-1.104,0.448-1.164,0.567c0,0-0.507,0.209-0.597,0.209
		c-0.119,0-0.507,0-0.507,0.179c0,0.209,0.388,0.866,0.597,0.985h0.687c1.761-0.119,3.492-0.507,5.313-0.507h0.716
		c0.06,0,1.075,0.119,1.164,0.119c0.179,0,1.463,0.06,1.671,0.06c0.06,0,0.448,0.209,0.567,0.209v0.119
		c0,0.06-0.12,0.448-0.12,0.448l-0.179,0.209l-0.209,0.298c-0.06,0.119-0.448,0.597-0.567,0.597l-0.388,0.09
		c-0.388,0.089-0.657,0.209-1.164,0.209c-0.985,0-1.88-0.687-2.925-0.687c-0.299,0-0.299,0.478-0.299,0.687v5.939
		c0.12,0.447,0.12,0.835,0.12,1.343V21.698z"/>
	<path d="M45.688,20.235c-2.597,0-5.253,0.388-7.879,0.776c-0.388,0.119-0.776,0.209-1.164,0.388
		c-0.478,0.209-0.985,0.209-1.433,0.388c0,0-0.597,0.328-0.776,0.388c-0.209,0.119-1.283,0.716-1.492,0.776
		c-0.179,0.328-1.075,0.716-1.463,0.716c-0.656,0-0.656-1.284-0.656-1.552c0-0.507,0.179-0.985,0.567-1.283
		c0.209-0.089,0.896-0.209,1.164-0.209c0.716-0.06,1.373-0.179,2.06-0.269c0.208,0,1.044-0.239,1.164-0.239l0.269-0.06
		c0.119,0,1.283-0.12,1.373-0.12c1.164-0.089,2.328-0.388,3.522-0.478h0.269c0.209,0,0.985-0.119,1.164-0.119
		c0.329-0.269,0.597-0.448,0.597-0.955v-0.209c0,0-0.269-0.06-0.388-0.06h-0.089c-0.955,0.06-2.06,0.179-3.015,0.388
		c-0.597,0.06-1.104,0.269-1.671,0.388l-0.269,0.06h-0.329c-0.06,0-0.179-0.179-0.179-0.179v-1.044c0,0,0.179-0.209,0.298-0.209
		c0.209-0.119,0.657-0.298,0.657-0.298h1.552c0.209-0.209,0.627-0.09,0.836-0.09c0.06,0,1.224-0.119,1.343-0.119h0.657
		c0.388,0,0.716-0.448,0.716-0.836l-0.119-0.208h-2.418c-0.507,0-1.791,0.208-1.791,0.208l-0.448,0.448h-0.119
		c-0.388,0-0.657-0.656-0.657-0.955V15.58c0.179-0.687,0.388-1.373,0.388-2.149c-0.12-0.388-0.12-0.985-0.388-1.373
		c-0.209-0.269-0.716-0.567-0.716-1.044h2.06c0.478,0,0.865-0.209,1.373-0.298c2.895-0.388,5.939-0.388,8.954-0.478
		c0-0.12,0.209-0.12,0.269-0.12h0.119c0.209,0.12,0.866,0.388,0.985,0.507c0.179,0.09,0.179,0.179,0.179,0.388
		c0,0.567-0.507,0.776-0.687,1.253c-0.269,0.776-0.597,1.462-0.656,2.417c-0.329,0.209-0.716,0.985-0.985,0.985
		c-0.299,0-0.508-0.089-0.806-0.089H47.36c-0.12,0-0.776,0.089-0.896,0.089h-0.388c-0.597,0-1.761-0.089-1.761,0.776
		c0,0.179,0,0.298,0.329,0.388h0.776c1.164,0,2.328-0.269,3.611-0.269h0.388c0.269,0.06,0.179,0.388,0.179,0.448v0.328l-0.567,0.567
		h-0.985c-0.507,0-2.746,0.089-3.224,0.089c-0.388,0-0.567,0.298-0.567,0.687v0.269c0.06,0.119,0.388,0.209,0.448,0.209h1.104
		c1.164,0,2.328-0.209,3.492-0.209h4.179c0.089,0,0.865-0.06,0.985-0.06c0.269,0,1.462-0.12,1.731-0.12l0.119-0.089h0.657
		c0,0.388-0.089,0.865-0.269,1.253c-1.074,0.806-2.358,1.403-3.731,1.403h-0.06c-0.896-0.209-1.88-0.507-2.716-0.716
		c-0.985-0.179-2.06-0.179-3.044-0.269c-0.119,0-0.896-0.12-0.955-0.12H45.688z M32.377,9.729c-0.328-0.298-0.328-1.164-0.328-1.552
		c0-0.388,0.448-0.687,0.627-1.075c0.208-0.269,0.269-0.776,0.478-1.044c0.179-0.328,0.686-0.597,0.955-0.776
		c0.119-0.12,0.328-0.239,0.328-0.239c0.06,0,0.657-0.09,0.776-0.09c0.388-0.119,0.776-0.179,1.164-0.298
		c0.955-0.209,1.94-0.269,2.895-0.388c0.209,0,1.492-0.089,1.671-0.089c0.089,0,0.597-0.119,0.657-0.119
		c0.209,0,1.104-0.179,1.164-0.388c0-0.06,0.209-0.776,0.209-0.836V1.94l-0.09-0.09l-0.388-0.567V0.507
		C42.704,0.298,42.883,0,43.151,0h0.209l0.12,0.119c0.06,0.06,0.835,0.388,0.955,0.448c0.269,0.12,0.388,0.209,0.388,0.507
		c0,0.388-0.119,0.657-0.179,1.045c0,0.119-0.12,0.597-0.12,0.716V3.79l0.179,0.209h0.716c0.06,0,0.567-0.119,0.657-0.119
		c0.179,0,1.552,0.119,1.791,0.119c0.06,0,0.567-0.119,0.657-0.119h0.119c0.179,0,1.821,0.119,2,0.119
		c1.492,0,2.716-0.119,3.82,0.955c0,0,0.179,0.209,0.179,0.329c0.089,0.269,0.478,1.044,0.478,1.164v0.567
		c-0.209,0.985-0.657,1.552-1.433,2.149l-0.209,0.06h-0.12l-0.06-0.179l-0.329-0.089c-0.388-0.179-0.388-0.567-0.388-0.955
		c0-0.507,0.119-0.985,0.119-1.552V5.73c-0.298-0.179-0.507-0.269-0.895-0.269c-0.388-0.12-1.552-0.179-1.612-0.179h-5.551
		c-0.209,0.06-0.209,0.06-0.388,0.06c-0.209,0-0.328-0.06-0.388-0.06c-0.597,0-0.985,0.269-1.492,0.269h-1.044
		c-0.896,0-1.671,0.298-2.447,0.388c-0.12,0-0.776,0.119-0.896,0.119c-0.06,0-1.045,0.179-1.343,0.269
		c-0.209,0-1.044,0.298-1.164,0.298c-0.597,0.209-0.985,0.388-1.044,0.985c0,0.06-0.209,1.045-0.209,1.164
		c0,0.06-0.179,0.657-0.179,0.776l-0.119,0.179c-0.09,0.09-0.597,0.597-0.657,0.687h-0.328l-0.179-0.298L32.377,9.729z
		 M35.093,25.011c-0.09,0-0.269,0-0.269-0.179c0.388-0.388,0.836-0.896,1.224-1.164c0.328-0.329,0.716-0.507,0.985-0.776
		c0.298-0.388,0.119-0.597,0.687-0.716h0.089c0.388,0,1.164,0.388,1.164,0.776c0,0.328,0,0.716-0.269,0.895
		c0,0-0.716,0.388-0.985,0.597c-0.179,0.06-0.687,0.388-0.687,0.388c-0.478,0.179-1.045,0.06-1.552,0.06l-0.269,0.119H35.093z
		 M35.601,2.895c-0.12,0-0.388-0.269-0.507-0.269v-0.12l0.119-0.06c0.06,0,0.657-0.209,0.776-0.209l1.552-0.567
		c0.269-0.209,0.448-0.329,0.835-0.329h0.209c0.12,0.12,0.687,0.716,0.776,0.776c0.119,0.208,0.119,0.328,0.119,0.507
		c0,0,0.06,0.388-0.119,0.388c-0.597,0.209-1.164,0.209-1.761,0.209c-0.776,0-1.224,0-1.94-0.209L35.601,2.895z M48.046,7.879
		C47.539,8.446,47.24,9.61,46.375,9.61c-0.388,0-0.776-0.06-1.283-0.06c-1.343,0-2.597,0.269-3.94,0.388
		c-0.328,0.299-0.776,0.299-1.283,0.299c-0.12,0-0.209,0.089-0.329-0.12c-0.06-0.179-0.179-0.567-0.179-0.776
		c0-0.388,0.179-0.776,0.179-1.164V7.999l-0.567-0.597V7.014c0-0.119,0.298-0.388,0.388-0.388h0.179c0.209,0,0.388,0,0.507,0.09
		h0.597c0.955,0,2.06-0.209,3.015-0.269c1.253-0.12,2.537-0.12,3.76-0.12h0.896c0,0,0.328,0.12,0.328,0.179v0.716l-0.119,0.06
		L48.046,7.879z M42.973,13.729c0,0-0.985,0.089-1.373,0.089c-0.657,0.09-1.552,0.09-2.238,0.299c-0.09,0-0.209,0.089-0.209,0.089
		v0.687c0,0.089,0.328,0.269,0.388,0.269h0.12c0.716-0.089,1.552-0.089,2.268-0.269l0.269-0.209h0.776
		c0.179-0.089,0.179-0.478,0.179-0.687v-0.179L42.973,13.729z M39.271,12.744c0,0.089,0.209,0.388,0.269,0.388h0.209l0.418-0.09
		c0.089,0,1.044-0.089,1.164-0.089l0.388-0.12c0.597-0.089,1.373,0.12,1.373-0.776c0,0,0-0.388-0.119-0.388h-1.761
		c-0.448,0.208-1.94,0.119-1.94,0.985V12.744z M41.42,21.608l1.284,0.567v2.656l-0.508,0.567h-0.985l-0.06-0.12
		c-0.12-0.179-0.328-0.835-0.328-0.835v-2.537c0-0.119,0.388-0.298,0.507-0.298H41.42z M44.644,7.61c-0.12,0-0.507,0.06-0.597,0.06
		c-0.955,0.119-1.851,0.328-2.835,0.328c-0.06,0.06-0.06,0.269-0.06,0.448c0,0.119,0,0.328,0.179,0.388h0.865
		c0.12,0,0.388-0.06,0.508-0.06c1.044-0.119,2.119-0.119,3.164-0.328c0.388-0.06,0.507-0.567,0.507-0.836H44.644z M44.256,14.386
		c0,0.119,0.269,0.298,0.388,0.298h1.611c0.329,0,1.373-0.179,1.671-0.179c0.209-0.209,0.329-0.985,0.329-1.283
		c-1.015,0-2.06,0.119-3.044,0.298c-0.119,0-0.687,0.09-0.776,0.09c0,0.119-0.179,0.597-0.179,0.686V14.386z M48.315,11.282
		c-1.164,0.119-2.447,0.119-3.611,0.209c-0.179,0.089-0.179,0.478-0.179,0.687c0,0.269,0.179,0.388,0.507,0.388
		c0.657,0,1.224-0.119,1.94-0.119c0.388,0,0.657,0.119,0.955,0.298c0.12,0.089,0.329,0.209,0.329,0.209
		c0.269,0,0.388-1.075,0.388-1.373v-0.179L48.315,11.282z M45.032,23.847c-0.209-0.567-0.328-1.283-0.328-1.85
		c0-0.269,0.119-0.597,0.507-0.597H45.3c0.776,0.209,0.955,0.388,0.955,1.284c0,0.388,0,1.94-0.448,1.94
		c-0.208,0-0.507,0-0.597-0.179L45.032,23.847z M48.315,2.716c-0.567,0-0.955-0.388-0.955-0.985c0-0.388,0-0.388,0.06-0.776
		c0-0.06,0.12-0.269,0.12-0.269h2.537c0.12,0,0.776-0.299,0.896-0.299h0.06l0.209,0.179c0,0.597-0.388,1.373-0.865,1.671
		c-0.12,0-0.776,0.269-0.896,0.269L49.3,2.626c0,0-0.657,0.089-0.865,0.089H48.315z M49.479,24.056
		c-0.06-0.119-0.269-0.716-0.388-0.776c-0.06-0.328-0.388-0.776-0.388-0.985c0-0.119,0-0.179,0.209-0.298h0.686l0.388,0.298
		c0.089,0.089,0.478,0.269,0.597,0.388c0.388,0.269,0.657,0.478,1.045,0.776c0.507,0.388,1.283,0.478,1.283,1.164v0.269
		c0,0.119-0.328,0.328-0.388,0.328c-0.209,0-0.896,0.06-1.104,0.06l-0.269,0.12h-0.12c-0.179,0-0.179,0-0.388-0.12
		c-0.179-0.06-0.567-0.269-0.567-0.269c-0.089-0.119-0.388-0.776-0.478-0.895L49.479,24.056z"/>
</g>
</svg>
