<?xml version="1.0" encoding="utf-8"?>
<!-- Generator: Adobe Illustrator 17.0.0, SVG Export Plug-In . SVG Version: 6.00 Build 0)  -->
<!DOCTYPE svg PUBLIC "-//W3C//DTD SVG 1.1//EN" "http://www.w3.org/Graphics/SVG/1.1/DTD/svg11.dtd">
<svg version="1.1" id="Layer_1" xmlns="http://www.w3.org/2000/svg" xmlns:xlink="http://www.w3.org/1999/xlink" x="0px" y="0px"
	 width="59.134px" height="25.399px" viewBox="0 0 59.134 25.399" enable-background="new 0 0 59.134 25.399" xml:space="preserve">
<g>
	<path d="M5.939,21.235c0-0.06,0.089-1.552,0.089-2.059c0.12-1.434,0.298-2.896,0.298-4.447v-0.389l-0.119-0.119
		c-0.955,1.074-1.94,2.06-3.104,2.836c-0.12,0-0.298,0.298-0.388,0.298c-0.298,0.269-1.552,0.776-2.06,0.776
		C0.388,18.132,0,17.445,0,17.236c0-0.388,0.209-0.955,0.478-1.224c0,0,0.298-0.239,0.388-0.239
		c0.896-0.388,1.731-0.656,2.507-1.044l0.119-0.119l0.329-0.18c0.955-0.598,1.731-1.463,2.507-2.238
		c0.209-0.567,0.209-1.194,0.209-1.762V9.954l-0.119-0.18H6.148L5.939,9.835c-0.687,0.208-1.671,0.387-2.328,0.387
		c-0.687,0-1.075-0.059-1.283-0.775v-0.06c0-0.388,0.597-0.716,0.776-0.776c0,0,0.388-0.209,0.507-0.209
		c0.089,0,0.597-0.179,0.657-0.179c0.119,0,0.776-0.12,0.895-0.12c0.209,0,1.642-0.208,1.642-0.596V4.88
		c0-0.09,0.12-0.269,0.179-0.389C7.104,4.402,7.491,4.402,7.7,4.402c0.388,0,1.164,0.388,1.164,0.865
		c0,0.388-0.328,1.075-0.328,1.463v0.776h1.283c0.089,0,0.657,0.119,0.776,0.119c0.089,0,0.388,0.209,0.388,0.209
		c0.089,0.06,0.209,0.388,0.209,0.447c-0.209,0.328-0.508,0.896-0.896,0.984c-0.09,0-0.657,0.12-0.776,0.12
		c-0.209,0-0.866,0.179-1.045,0.179c-0.209,0-0.119,0.27-0.119,0.389c-0.09,0.865-0.209,1.761-0.209,2.626v0.985
		c0.328,0.268,0.507,0.179,0.896,0.268c0.597,0.209,2.029,0.688,2.029,1.463c-0.269,0.598-0.388,0.896-1.164,0.896
		c-0.089,0-0.478-0.298-0.597-0.298c-0.269-0.209-0.776-0.688-1.164-0.688l-0.06,0.18C7.76,16.4,7.76,17.564,7.76,18.52
		c0,0.657-0.06,3.82-0.06,4.478c0,0.119-0.209,0.298-0.209,0.387c0,0.12-0.298,0.389-0.298,0.508c0,0.061-0.209,0.389-0.269,0.389
		H6.029c0,0-0.209-0.119-0.209-0.209v-0.299c0-0.09-0.179-0.775-0.179-0.865v-0.18C5.641,22.221,5.939,21.743,5.939,21.235z
		 M10.207,20.788c0-0.119,0.269-0.389,0.388-0.508c0.388-0.388,1.284-0.09,1.671-0.388l1.433-0.209c0,0,0.12-0.179,0.12-0.298
		c0-0.09,0.089-0.389,0.089-0.389V16.4H13.52l-0.388,0.06h-0.09c-0.179,0-0.567-0.388-0.567-0.566v-0.12l0.06-0.269
		c0,0,0.12-1.164,0.12-1.552v-0.12c0-0.477-0.507-0.656-0.567-1.163c-0.119-0.269,0.448-0.388,0.657-0.478l0.179-0.09
		c0.776-0.299,1.671-0.388,2.447-0.478c1.044-0.119,2.03-0.298,3.194-0.298h0.626c0.269,0.059,0.567,0.298,0.776,0.566v0.119
		c-0.209,0.389-0.507,0.657-0.716,1.164c-0.298,0.567-0.06,1.254-0.507,1.731l-0.179,0.209l-0.209,0.089
		c-0.06,0.09-0.448,0.479-0.448,0.479s-0.12,0.388-0.12,0.507v1.642l-0.089,0.299c-0.12,0.209-0.179,0.775-0.179,0.775l0.269,0.27
		c0.179,0,0.955,0.119,1.164,0.119c0.298,0,0.806,0.209,0.806,0.597c0,0.298-0.388,0.776-0.686,0.896
		c-2.06-0.119-4.089,0-6.029,0.447c-0.776,0.209-1.343,0.717-2.179,0.717c-0.657,0-0.657-0.328-0.657-0.776V20.788z M12.923,9.655
		c0.119,0,0.388-0.209,0.507-0.209l0.209-0.06c0.06,0,1.164-0.329,1.224-0.329C15.58,8.88,15.46,8.223,15.46,7.626
		c-0.478,0-0.865,0.09-1.253,0.209c-0.388,0.06-0.895,0.388-1.343,0.388c-0.329,0-0.388-0.507-0.388-0.776
		c0-0.238,0-0.447,0.179-0.627c0,0,0.388-0.209,0.478-0.209l0.388-0.059l0.299-0.12c0.089,0,0.597-0.089,0.656-0.089
		c0.12,0,1.104-0.299,1.104-0.389V3.626c0,0,0.179-0.179,0.269-0.299c0.179-0.089,0.298-0.208,0.567-0.208
		c0.388,0,0.985,0.119,0.985,0.716c0,0.447-0.09,0.836-0.09,1.344v0.656c1.045,0.119,2.269,0.119,3.313,0.209
		c0.12,0,0.298,0.179,0.298,0.299v0.209c0,0.268-0.179,0.566-0.507,0.775h-0.269c-0.776-0.119-1.582-0.209-2.238-0.209h-0.597
		c-0.388,0-0.388,1.104-0.388,1.283v0.27c0.269,0,1.433,0.119,1.761,0.119c0,0,0.567,0.09,0.776,0.209
		c0.179,0,0.896,0.179,0.896,0.388v0.656c0,0.12-0.716,0.179-0.776,0.179c-0.836,0-1.492-0.059-2.269-0.059h-0.896
		c-0.388,0-2.208,0.268-2.596,0.388l-0.179,0.06c-0.12,0-0.776,0.328-0.896,0.328c-0.089,0-0.865,0.447-0.985,0.447h-0.687
		c-0.089-0.059-0.089-0.179-0.089-0.388C10.983,10.222,12.356,9.835,12.923,9.655z M14.207,14.521c0,0.09,0.09,0.09,0.209,0.09h0.06
		c0.12,0,1.284-0.18,1.373-0.18c0.179,0,1.164-0.09,1.343-0.09c0.507-0.119,0.597-0.775,0.716-1.164v-0.209
		c0-0.298,0-0.298-0.329-0.298c-0.447,0-0.835,0.119-1.224,0.119c-0.209,0-0.896,0.089-0.985,0.089
		c-0.388,0.09-0.776,0.18-1.164,0.18V14.521z M14.982,16.46v2.717c0,0.119,0.269,0.119,0.269,0.119h0.208
		c0.12,0,0.687-0.119,0.776-0.119c0.388-0.776,0.298-1.821,0.298-2.717v-0.447c0-0.119-0.12-0.119-0.179-0.119
		C15.968,15.894,14.982,15.894,14.982,16.46z M20.235,13.655c1.075-0.209,1.851-0.985,2.835-1.373
		c0.06,0.119,0.269,0.298,0.388,0.388v0.119c-0.209,0.776-1.104,2.896-2.269,2.896c-0.656,0-1.044-1.074-1.044-1.553
		C20.146,13.953,20.146,13.744,20.235,13.655z M21.967,19.684c0.507,0,1.283,0,1.761-0.12c0.12,0,0.687-0.178,0.776-0.178
		c0.299-0.09,0.507-0.777,0.507-0.985c0-0.06,0.06-0.448,0.06-0.448v-0.597c0-0.119,0.119-1.164,0.119-1.283
		c0-0.955,0.09-4.865,0.09-5.462c0-0.389-0.09-1.344-0.09-1.344l-0.119-0.089h-1.045c-0.686,0.089-1.164,0.478-1.85,0.478h-0.388
		C21.519,9.446,21.31,8.88,21.31,8.491c0-0.269,0.776-0.775,1.044-0.865c0.12,0,0.776-0.119,0.896-0.119
		c0.09,0,0.478-0.061,0.597-0.061c0.179,0,1.044-0.119,1.224-0.119c0,0,0.328-0.119,0.328-0.209V4.88l0.06-0.209
		c0.209-0.18,0.597-0.566,0.597-0.566h1.074c0.299,0,0.597,0.298,0.597,0.566c0,0.508-0.298,0.775-0.298,1.283v1.164l0.209,0.09
		h1.253c0.298,0.299,0.865,0.238,1.164,0.418l0.388,0.388v0.269c0,0.598-0.298,0.717-0.776,0.984c-0.089,0-0.298,0.18-0.388,0.18
		h-0.089l-0.209-0.06H27.25c0,0-0.12,0.06-0.12,0.179c0,0.09-0.089,0.478-0.089,0.598c0,0.268-0.089,1.343-0.089,1.462v7.938
		c-0.329,0.836-0.209,1.105-0.985,1.612c0,0-0.507,0.269-0.686,0.388l-0.209,0.061l-0.06,0.119h-0.507c-0.388,0-0.656,0-0.985-0.18
		c-0.06-0.119-0.835-0.775-0.955-0.895c-0.209-0.209-0.656-0.389-0.656-0.776C21.907,19.772,21.907,19.684,21.967,19.684z"/>
	<path d="M47.853,20.235c-2.597,0-5.253,0.389-7.879,0.776c-0.388,0.119-0.776,0.209-1.164,0.388
		c-0.478,0.209-0.985,0.209-1.433,0.389c0,0-0.597,0.328-0.776,0.388c-0.209,0.119-1.283,0.716-1.492,0.776
		c-0.179,0.328-1.075,0.716-1.463,0.716c-0.656,0-0.656-1.284-0.656-1.552c0-0.508,0.179-0.985,0.567-1.283
		c0.209-0.09,0.896-0.209,1.164-0.209c0.716-0.061,1.373-0.18,2.06-0.27c0.208,0,1.044-0.238,1.164-0.238l0.269-0.06
		c0.119,0,1.283-0.12,1.373-0.12c1.164-0.089,2.328-0.388,3.522-0.477h0.269c0.209,0,0.985-0.119,1.164-0.119
		c0.329-0.27,0.597-0.448,0.597-0.955v-0.209c0,0-0.269-0.061-0.388-0.061h-0.089c-0.955,0.061-2.06,0.18-3.015,0.389
		c-0.597,0.059-1.104,0.268-1.671,0.388l-0.269,0.06h-0.329c-0.06,0-0.179-0.18-0.179-0.18v-1.044c0,0,0.179-0.209,0.298-0.209
		c0.209-0.119,0.657-0.298,0.657-0.298h1.552c0.209-0.209,0.627-0.09,0.836-0.09c0.06,0,1.224-0.119,1.343-0.119h0.657
		c0.388,0,0.716-0.448,0.716-0.836l-0.119-0.209h-2.418c-0.507,0-1.791,0.209-1.791,0.209l-0.448,0.447h-0.119
		c-0.388,0-0.657-0.656-0.657-0.955v-0.09c0.179-0.686,0.388-1.373,0.388-2.148c-0.12-0.389-0.12-0.984-0.388-1.373
		c-0.209-0.269-0.716-0.566-0.716-1.045h2.06c0.478,0,0.865-0.209,1.373-0.298c2.895-0.388,5.939-0.388,8.954-0.478
		c0-0.119,0.209-0.119,0.269-0.119h0.119c0.209,0.119,0.866,0.388,0.985,0.507c0.179,0.09,0.179,0.179,0.179,0.388
		c0,0.567-0.507,0.776-0.687,1.254c-0.269,0.775-0.597,1.463-0.656,2.418c-0.329,0.209-0.716,0.984-0.985,0.984
		c-0.299,0-0.508-0.09-0.806-0.09h-0.269c-0.12,0-0.776,0.09-0.896,0.09h-0.388c-0.597,0-1.761-0.09-1.761,0.776
		c0,0.179,0,0.298,0.329,0.388h0.776c1.164,0,2.328-0.269,3.611-0.269h0.388c0.269,0.06,0.179,0.388,0.179,0.448v0.328l-0.567,0.566
		H50.21c-0.507,0-2.746,0.09-3.224,0.09c-0.388,0-0.567,0.299-0.567,0.687v0.269c0.06,0.119,0.388,0.209,0.448,0.209h1.104
		c1.164,0,2.328-0.209,3.492-0.209h4.179c0.089,0,0.865-0.06,0.985-0.06c0.269,0,1.462-0.12,1.731-0.12l0.119-0.089h0.657
		c0,0.388-0.089,0.865-0.269,1.253c-1.074,0.807-2.358,1.403-3.731,1.403h-0.06c-0.896-0.209-1.88-0.507-2.716-0.716
		c-0.985-0.18-2.06-0.18-3.044-0.27c-0.119,0-0.896-0.119-0.955-0.119H47.853z M34.541,9.729c-0.328-0.299-0.328-1.164-0.328-1.552
		s0.448-0.687,0.627-1.075c0.208-0.268,0.269-0.775,0.478-1.044c0.179-0.328,0.686-0.597,0.955-0.776
		c0.119-0.119,0.328-0.238,0.328-0.238c0.06,0,0.657-0.09,0.776-0.09c0.388-0.119,0.776-0.179,1.164-0.299
		c0.955-0.209,1.94-0.268,2.895-0.388c0.209,0,1.492-0.089,1.671-0.089c0.089,0,0.597-0.119,0.657-0.119
		c0.209,0,1.104-0.18,1.164-0.389c0-0.06,0.209-0.775,0.209-0.836V1.94l-0.09-0.09l-0.388-0.567V0.507
		C44.868,0.298,45.047,0,45.315,0h0.209l0.12,0.119c0.06,0.06,0.835,0.388,0.955,0.448c0.269,0.12,0.388,0.209,0.388,0.507
		c0,0.388-0.119,0.657-0.179,1.045c0,0.119-0.12,0.597-0.12,0.716V3.79l0.179,0.209h0.716c0.06,0,0.567-0.119,0.657-0.119
		c0.179,0,1.552,0.119,1.791,0.119c0.06,0,0.567-0.119,0.657-0.119h0.119c0.179,0,1.821,0.119,2,0.119
		c1.492,0,2.716-0.119,3.82,0.955c0,0,0.179,0.209,0.179,0.328c0.089,0.27,0.478,1.045,0.478,1.164v0.567
		c-0.209,0.985-0.657,1.552-1.433,2.149l-0.209,0.059h-0.12l-0.06-0.179l-0.329-0.089c-0.388-0.18-0.388-0.567-0.388-0.955
		c0-0.508,0.119-0.985,0.119-1.553V5.73c-0.298-0.179-0.507-0.269-0.895-0.269c-0.388-0.119-1.552-0.18-1.612-0.18h-5.551
		c-0.209,0.061-0.209,0.061-0.388,0.061c-0.209,0-0.328-0.061-0.388-0.061c-0.597,0-0.985,0.27-1.492,0.27h-1.044
		c-0.896,0-1.671,0.298-2.447,0.388c-0.12,0-0.776,0.119-0.896,0.119c-0.06,0-1.045,0.179-1.343,0.269
		c-0.209,0-1.044,0.299-1.164,0.299c-0.597,0.209-0.985,0.388-1.044,0.984c0,0.061-0.209,1.045-0.209,1.164
		c0,0.061-0.179,0.656-0.179,0.776l-0.119,0.179c-0.09,0.09-0.597,0.598-0.657,0.687h-0.328l-0.179-0.298L34.541,9.729z
		 M37.257,25.011c-0.09,0-0.269,0-0.269-0.179c0.388-0.388,0.836-0.896,1.224-1.164c0.328-0.329,0.716-0.507,0.985-0.776
		c0.298-0.388,0.119-0.597,0.687-0.716h0.089c0.388,0,1.164,0.388,1.164,0.776c0,0.328,0,0.716-0.269,0.895
		c0,0-0.716,0.389-0.985,0.598c-0.179,0.059-0.687,0.388-0.687,0.388c-0.478,0.179-1.045,0.06-1.552,0.06l-0.269,0.119H37.257z
		 M37.765,2.896c-0.12,0-0.388-0.27-0.507-0.27V2.507l0.119-0.06c0.06,0,0.657-0.209,0.776-0.209l1.552-0.567
		c0.269-0.208,0.448-0.328,0.835-0.328h0.209c0.12,0.12,0.687,0.717,0.776,0.776c0.119,0.208,0.119,0.328,0.119,0.507
		c0,0,0.06,0.389-0.119,0.389c-0.597,0.209-1.164,0.209-1.761,0.209c-0.776,0-1.224,0-1.94-0.209L37.765,2.896z M50.21,7.88
		c-0.507,0.566-0.806,1.73-1.671,1.73c-0.388,0-0.776-0.06-1.283-0.06c-1.343,0-2.597,0.269-3.94,0.388
		c-0.328,0.299-0.776,0.299-1.283,0.299c-0.12,0-0.209,0.09-0.329-0.119c-0.06-0.18-0.179-0.567-0.179-0.776
		c0-0.388,0.179-0.776,0.179-1.164V7.999l-0.567-0.598V7.014c0-0.119,0.298-0.388,0.388-0.388h0.179c0.209,0,0.388,0,0.507,0.09
		h0.597c0.955,0,2.06-0.209,3.015-0.27c1.253-0.119,2.537-0.119,3.76-0.119h0.896c0,0,0.328,0.119,0.328,0.18v0.716l-0.119,0.06
		L50.21,7.88z M45.137,13.729c0,0-0.985,0.089-1.373,0.089c-0.657,0.09-1.552,0.09-2.238,0.299c-0.09,0-0.209,0.089-0.209,0.089
		v0.688c0,0.089,0.328,0.268,0.388,0.268h0.12c0.716-0.089,1.552-0.089,2.268-0.268l0.269-0.209h0.776
		c0.179-0.09,0.179-0.479,0.179-0.688v-0.179L45.137,13.729z M41.436,12.744c0,0.089,0.209,0.388,0.269,0.388h0.209l0.418-0.09
		c0.089,0,1.044-0.089,1.164-0.089l0.388-0.12c0.597-0.089,1.373,0.12,1.373-0.775c0,0,0-0.388-0.119-0.388h-1.761
		c-0.448,0.208-1.94,0.119-1.94,0.985V12.744z M43.584,21.608l1.284,0.567v2.656l-0.508,0.567h-0.985l-0.06-0.12
		c-0.12-0.179-0.328-0.835-0.328-0.835v-2.537c0-0.119,0.388-0.299,0.507-0.299H43.584z M46.808,7.61
		c-0.12,0-0.507,0.061-0.597,0.061c-0.955,0.119-1.851,0.328-2.835,0.328c-0.06,0.059-0.06,0.268-0.06,0.447
		c0,0.119,0,0.328,0.179,0.389h0.865c0.12,0,0.388-0.061,0.508-0.061c1.044-0.119,2.119-0.119,3.164-0.328
		c0.388-0.06,0.507-0.566,0.507-0.836H46.808z M46.42,14.386c0,0.119,0.269,0.299,0.388,0.299h1.611c0.329,0,1.373-0.18,1.671-0.18
		c0.209-0.209,0.329-0.984,0.329-1.283c-1.015,0-2.06,0.119-3.044,0.299c-0.119,0-0.687,0.09-0.776,0.09
		c0,0.119-0.179,0.596-0.179,0.686V14.386z M50.479,11.282c-1.164,0.119-2.447,0.119-3.611,0.209
		c-0.179,0.089-0.179,0.477-0.179,0.686c0,0.27,0.179,0.389,0.507,0.389c0.657,0,1.224-0.119,1.94-0.119
		c0.388,0,0.657,0.119,0.955,0.298c0.12,0.089,0.329,0.209,0.329,0.209c0.269,0,0.388-1.075,0.388-1.373v-0.179L50.479,11.282z
		 M47.196,23.847c-0.209-0.566-0.328-1.283-0.328-1.85c0-0.27,0.119-0.598,0.507-0.598h0.089c0.776,0.209,0.955,0.389,0.955,1.283
		c0,0.389,0,1.94-0.448,1.94c-0.208,0-0.507,0-0.597-0.179L47.196,23.847z M50.479,2.716c-0.567,0-0.955-0.389-0.955-0.984
		c0-0.389,0-0.389,0.06-0.776c0-0.06,0.12-0.269,0.12-0.269h2.537c0.12,0,0.776-0.299,0.896-0.299h0.06l0.209,0.179
		c0,0.597-0.388,1.374-0.865,1.671c-0.12,0-0.776,0.269-0.896,0.269l-0.179,0.119c0,0-0.657,0.09-0.865,0.09H50.479z M51.643,24.056
		c-0.06-0.119-0.269-0.717-0.388-0.775c-0.06-0.328-0.388-0.776-0.388-0.985c0-0.119,0-0.179,0.209-0.298h0.686l0.388,0.298
		c0.089,0.089,0.478,0.269,0.597,0.388c0.388,0.27,0.657,0.479,1.045,0.776c0.507,0.388,1.283,0.478,1.283,1.164v0.269
		c0,0.119-0.328,0.328-0.388,0.328c-0.209,0-0.896,0.06-1.104,0.06l-0.269,0.12h-0.12c-0.179,0-0.179,0-0.388-0.12
		c-0.179-0.06-0.567-0.269-0.567-0.269c-0.089-0.119-0.388-0.775-0.478-0.895L51.643,24.056z"/>
</g>
</svg>
