<?xml version="1.0" encoding="utf-8"?>
<!-- Generator: Adobe Illustrator 17.0.0, SVG Export Plug-In . SVG Version: 6.00 Build 0)  -->
<!DOCTYPE svg PUBLIC "-//W3C//DTD SVG 1.1//EN" "http://www.w3.org/Graphics/SVG/1.1/DTD/svg11.dtd">
<svg version="1.1" id="Layer_1" xmlns="http://www.w3.org/2000/svg" xmlns:xlink="http://www.w3.org/1999/xlink" x="0px" y="0px"
	 width="204.077px" height="25.399px" viewBox="0 0 204.077 25.399" enable-background="new 0 0 204.077 25.399"
	 xml:space="preserve">
<g>
	<path d="M58.542,16.564c0.298-0.119,0.478-0.119,0.776-0.119s0.776,0.388,0.776,0.687c0,0.597-0.298,0.895-0.687,1.283
		c-0.478,0.478-0.955,1.254-1.642,1.254c0-0.598,0.388-1.373,0.597-1.821l0.089-0.209v-0.896L58.542,16.564z M58.542,13.61
		c0-0.09,0.208-0.479,0.298-0.568l0.089-0.089c0.09,0,0.985-0.507,1.284-0.687l0.209-0.09c0.179-0.209,1.164-0.895,1.343-0.984
		l0.209-0.209v-0.09c-0.209-0.388-1.104-0.299-1.492-0.508c-0.269-0.059-0.866-0.566-1.164-0.775V9.222c0-0.387,0-0.447,0.209-0.835
		l0.179-0.209l0.329-0.12c0.06-0.059,0.776-0.566,0.955-0.775c0.388-0.299,0.776-0.687,1.164-0.955
		c0.478-0.388,0.865-0.896,1.552-0.896c0.388,0,0.597,0.299,0.597,0.567v0.328c0,0-0.329,0.269-0.388,0.389
		c0,0-0.328,0.179-0.388,0.179c-0.895,0.388-1.94,0.985-2.537,1.761c0,0.299,1.761,0.775,1.94,0.896l0.388,0.179
		c0.089,0,0.269,0.09,0.269,0.09s0.209-0.09,0.328-0.209c0.388-0.389,0.955-0.775,0.955-1.344c0-0.268-0.119-0.268-0.119-0.716
		c0-0.179,0-0.388,0.208-0.567h0.12c0.567,0,1.433,0.776,1.433,1.403c0,0.179,0,0.269-0.089,0.448
		c-0.179,0.328-1.164,0.895-1.552,1.104c-1.283,0.776-2.447,1.939-3.671,2.806l-0.507,0.298c-0.09,0.09-0.388,0.299-0.388,0.299
		v0.09c0,0.299,0.687,0.388,0.896,0.388c0.06,0,0.776,0.09,0.955,0.09h0.209c0.776-0.09,1.731-0.298,2.388-0.776
		c0.119-0.09,0.328-0.299,0.328-0.299v-0.955c0-0.089,0.269-0.208,0.269-0.208h0.12c0.447,0.208,1.164,0.388,1.164,1.074
		c0,0.776-0.508,1.074-1.104,1.462c-0.269,0.209-0.567,0.598-0.955,0.688c-0.209,0.119-0.478,0.119-0.657,0.179h-0.597
		c-1.075,0-2.06-0.06-3.104-0.269c-0.12,0-0.597-0.119-0.687-0.119c-0.388-0.061-0.985-0.479-0.985-0.955V13.61z M62.362,20.743
		c-0.388,0-0.507-0.508-0.507-0.776c0-0.896,0.298-1.671,0.298-2.447v-0.388l-0.12-0.18v-0.119c0-0.388,0.597-0.775,0.985-0.775
		c0.179,0,0.299,0.179,0.299,0.298c0.089,0.657,0.208,1.373,0.208,2.06v0.209c0,0.179-0.208,1.045-0.208,1.164
		c-0.12,0.388-0.507,0.775-0.776,0.955H62.362z M62.541,7.282c0.09,0,0.09-0.18,0-0.18C62.421,7.103,62.421,7.282,62.541,7.282z
		 M64.869,16.564h0.985c0.388,0.06,0.955,0.448,1.224,0.776c0.388,0.298,0.597,0.507,0.597,0.955c0,0.328-0.866,0.388-1.044,0.388
		c-0.209,0-0.388,0-0.508-0.06c0,0-0.269-0.389-0.388-0.508c-0.209-0.269-0.985-1.283-0.985-1.492L64.869,16.564z M68.301,16.058
		c0.06-0.09,0.776-0.389,0.955-0.479l0.269-0.119l0.328-0.269c0,0,0.179-0.179,0.269-0.179c0.507-0.328,0.896-0.717,1.284-1.016
		l0.447-0.268l0.12-0.209c0.388-0.479,0.776-0.865,0.866-1.553H70.42c-0.507,0-0.955-0.477-0.955-0.984
		c0-0.598,0.776-0.598,1.164-0.776c0.776-0.478,1.612-1.044,2-1.94c0-0.089-0.06-0.089-0.179-0.089H72.36
		c-0.896,0.089-1.731,0.209-2.507,0.478c-0.328,0.119-0.985,0.299-0.985,0.299l-0.388-0.18V8.446c0-1.074,1.045-0.955,2.03-1.164
		l1.074-0.299c0.09,0,0.985-0.089,1.045-0.089c0.209,0,0.776-0.12,0.776-0.388v-0.12c0-0.06-0.06-0.388-0.06-0.447
		c-0.12-0.388-0.507-0.508-0.507-0.896c0-0.209,0.567-0.389,0.776-0.389h0.119c0.567,0.12,1.045,0.389,1.045,0.955
		c0,0.329-0.09,0.508-0.09,0.717v0.269c0.09,0,0.478,0.12,0.597,0.12c0.06,0,1.074-0.12,1.164-0.12h2.447
		c0.06,0,0.269,0.12,0.388,0.12l0.388,0.179c0.269,0.089,0.448,0,0.448,0.388c0,0.09,0,0.09-0.06,0.209
		c-0.209,0.06-0.597,0.389-0.597,0.389h-1.552c0,0.119-0.12,0.298-0.12,0.387c0.209,0.389,0.597,0.389,0.597,1.075
		c0,0.388-0.478,0.865-0.866,1.044l-0.507,0.12c-0.06,0-0.448,0.478-0.567,0.478c-0.478,0.418-0.985,0.597-1.552,0.687H74.3
		l-0.179,0.119l-0.12,0.269c-0.208,0.299-0.388,0.687-0.597,0.984c-0.06,0.18-0.567,0.866-0.567,0.866l-0.985,0.985
		c-0.656,0.566-2.119,1.552-2.984,1.552c-0.179,0-0.567,0-0.567-0.269V16.058z M71.793,10.774h0.388c1.044,0,2-0.18,2.984-0.447
		c0.806-0.209,1.582-0.508,1.582-1.373c0-0.299-0.179-0.896-0.507-1.074h-0.567c-0.597,0-0.895,0-1.552,0.119
		c-0.507,0.775-1.104,1.432-1.761,1.999l-0.388,0.329c-0.12,0.059-0.298,0.388-0.298,0.388L71.793,10.774z M73.405,14.415
		c0-0.298,0.119-0.418,0.388-0.418c0.388,0,0.597,0.418,0.597,0.807c0,0.209,0.119,1.552,0.119,1.761c0,0.06,0.06,0.567,0.179,0.657
		c0.09,0.119,0.657,0.686,0.776,0.805c0.329,0.27,0.896,0.27,1.284,0.389c0.209,0,0.866,0.09,0.985,0.09h3.552
		c0.388-0.09,0.896-0.209,1.283-0.27c0.209,0,0.657-0.209,0.657-0.209l0.239-0.179c0.269-0.209,0.597-0.209,0.866-0.447
		c0.298-0.179,0.895-0.776,1.283-0.776c0,1.283-0.776,2.269-1.88,2.955c-0.567,0.388-1.462,0.656-2.119,0.656
		c-0.985,0-1.88-0.06-2.716-0.179c-0.776-0.09-1.671-0.09-2.447-0.269c-0.09,0-0.388-0.209-0.478-0.209
		c-0.179-0.119-0.896-0.508-1.075-0.567c-1.492-0.896-1.492-2.179-1.492-3.82V14.415z"/>
	<path d="M97.962,13.013c-0.12,0-0.507,0.119-0.627,0.119c-1.94,0.209-3.969,0.27-5.91,0.479c-0.119,0-0.895,0.238-1.074,0.238
		c-0.597,0.06-0.776,0.179-1.283,0.388c-0.478,0.179-0.657,0.388-1.254,0.388c-0.687,0-0.687-0.328-0.687-0.895
		c0-1.403,0.687-1.791,1.94-2c0.298,0,2.357-0.389,2.626-0.389c0.388,0,3.044-0.298,3.701-0.298c0.298,0,2.238-0.09,2.567-0.09
		c0.06,0,0.448-0.119,0.567-0.119h11.581l3.283,0.328h2.448c0,0.179,0,0.179-0.12,0.388c-0.089,0.18-0.478,0.776-0.478,0.776
		s-0.865,0.627-1.164,0.806c-0.865,0.479-2.238,0.985-3.193,0.985c-0.985,0-1.88-0.269-2.835-0.597l-0.209-0.119
		c-0.06,0-0.269-0.061-0.269-0.061h-0.388l-0.298-0.119c-0.985-0.209-2.059-0.209-3.044-0.269c-0.06,0-0.776-0.12-0.835-0.12h-0.329
		c-0.269,0-3.104,0.18-3.373,0.18H97.962z"/>
	<path d="M121.938,21.34c-0.388-0.597-0.448-1.104-0.448-1.88c0.06-0.567,0.179-1.164,0.269-1.731
		c0.12-0.328,0.12-0.716,0.179-0.985c0-0.119,0.209-0.507,0.209-0.566V15.46c0.119-1.73,0.388-3.582,0.388-5.342
		c0-0.18-0.09-0.955-0.09-1.164l-0.298,0.209c-0.089,0-1.253,1.223-1.761,1.73c-0.089,0.119-0.567,0.687-0.686,0.776l-0.09,0.119
		h-0.298c-0.269,0-0.478,0-0.657-0.209c-0.119-0.089-0.209-0.388-0.209-0.478V9.551c0,0,0.09-0.209,0.209-0.329
		c0,0,0.179-0.268,0.269-0.268c0.985-0.896,2.06-1.672,2.746-2.836c0.089-0.179,0.209-0.508,0.269-0.687
		c0-0.089,0.12-0.478,0.12-0.597c0,0,0.269-0.18,0.388-0.18h0.09c0.388,0,0.776,1.284,1.074,1.284h0.089
		c0.955-0.329,1.94-0.896,3.015-0.896c0.209,0,0.209,0.119,0.209,0.299v0.209c-0.209,0.268-0.388,0.388-0.716,0.566
		c-0.567,0.478-1.343,1.045-1.94,1.553l-0.06,0.209c-0.119,0.507-0.119,1.074-0.208,1.551c0,0.12-0.12,0.688-0.12,0.776
		c0,0.12-0.06,0.896-0.06,0.985s-0.12,0.478-0.12,0.597v2.507c0,1.492-0.089,4.895-0.089,4.895v0.598
		c0,0.06-0.119,0.388-0.298,0.836l-0.269,0.328c-0.12,0.06-0.597,0.388-0.716,0.388H121.938z M129.549,18.684
		c-0.298,0.209-0.567,0.119-0.896,0.328c-0.298,0.179-0.298,0.179-0.567,0.179c-0.329,0-0.507-0.298-0.716-0.507v-0.776l0.119-0.299
		l0.09-0.477l0.388-0.299c0.299-0.269,0.507-0.656,0.806-0.865c0.478-0.299,1.164-0.508,1.641-0.687
		c2.239-0.896,4.447-1.671,6.447-3.015c0.06,0,0.447-0.389,0.567-0.478c0.089-0.119,0.388-0.388,0.388-0.388l0.089-0.299
		c0.119-0.209,0.179-0.328,0.388-0.388c0.119-0.12,0.388-0.209,0.388-0.209c0.12,0,0.507,0.269,0.567,0.269
		c0.507,0.238,0.716,0.238,0.716,0.896c0,0.776-1.373,0.687-1.552,1.074l-3.164,1.552l-0.269,0.09
		c-0.896,0.508-1.851,0.896-2.716,1.402l-1.731,0.836l-0.388,0.209l-0.119,0.119l0.119,0.061c1.433,0.119,2.896,0.209,4.268,0.507
		c0.269,0.089,0.657,0.209,0.955,0.269c1.373,0.238,2.656,0.238,4,0.328c0.209,0,1.373,0.119,1.552,0.119
		c0.269,0,1.433-0.119,1.761-0.209l0.179-0.119c0.089,0,0.865-0.119,0.985-0.119l0.179-0.06c0.208-0.12,0.716-0.209,0.776-0.209
		h1.373l0.12,0.089v0.12c-0.12,0.388-0.388,0.776-0.597,1.074c-0.776,1.164-1.97,1.552-3.134,2.03
		c-0.478,0.179-0.985,0.388-1.552,0.388c-1.642,0-2.985-0.776-4.537-1.373c-2-0.657-4.119-1.164-6.148-1.164H129.549z
		 M130.026,10.595c-0.269,0-0.388-0.775-0.388-0.865c0-0.895,0.776-1.463,0.776-2.357c0-0.598-0.597-0.656-0.865-1.045V5.552
		c0-0.209,0.269-0.598,0.388-0.598h2.03c0,0,0.179-0.119,0.298-0.119c0.09,0,0.866-0.06,0.985-0.06l0.269-0.12
		c1.85-0.388,3.79-0.596,5.73-0.596h1.104c0.06,0,0.269,0.328,0.388,0.328c0.388,0.268,0.776,0.775,0.776,1.223
		c0,0.389-0.12,0.717-0.507,0.776c-0.209,0.209-0.985,0.985-1.164,1.224c-0.269,0.389-0.388,1.164-0.776,1.433
		c0,0-0.269,0.179-0.388,0.179c-0.089,0-0.269,0.12-0.269,0.12h-1.283c-2.269,0.089-4.268,0.478-6.328,1.253H130.026z
		 M132.265,13.341c-0.507-0.388-0.955-0.775-0.955-1.463c0-0.298,0-0.477,0.06-0.775h0.388c0.12,0,0.776,0.299,0.896,0.299
		c0.388,0.09,1.044,0.179,1.433,0.269c0.209,0.119,0.209,0,0.209,0.208c0,0.568-1.164,1.463-1.761,1.463H132.265z M136.354,5.61
		c-0.507,0.209-3.88,0.508-3.999,0.776v0.508c0,0.089-0.09,0.597-0.09,0.716v0.656c0.776,0,1.433-0.089,2.209-0.209
		c0.597-0.059,1.373-0.059,2-0.268c0,0,0.657-0.18,0.835-0.18l0.508-0.119c0.269-0.119,0.865-1.492,0.865-1.881H136.354z"/>
	<path d="M150.151,8.058c0,0,0.567-0.387,0.776-0.447c0.388-0.209,0.656-0.328,1.044-0.508c0.119,0,0.687-0.477,0.776-0.477h0.388
		c0.507,0,0.955,0.09,0.955,0.597c0,0.179,0,0.388-0.06,0.448c-0.388,0.507-2.656,1.104-3.313,1.283
		c-0.12,0-0.687,0.209-0.776,0.209c-0.12,0-0.508,0.059-0.508,0.059c-0.179,0-0.507-0.179-0.567-0.387
		C149.136,8.446,149.644,8.267,150.151,8.058z M151.315,19.28c-0.328,0.061-0.895,0.508-1.164,0.508h-0.119
		c-0.597-0.209-0.776-0.328-0.776-0.896v-0.209l0.06-0.12c0.328-0.566,0.328-0.566,0.835-0.955l0.06-0.089
		c0.507-0.388,0.985-0.119,1.283-0.388c0.478-0.508,0.866-0.955,1.164-1.672c0.269-0.566-0.12-1.074,0.865-1.074
		c0.508,0,0.776,0.299,0.776,0.806c0,0.597-0.388,1.164-0.657,1.642c-0.12,0.18-0.328,0.389-0.328,0.567v0.208
		c1.373,0,2.059,0.299,3.313,0.568c0.895,0.209,1.791,0.328,2.626,0.507c0.896,0.269,1.761,0.597,2.657,0.896
		c0.388,0.09,0.835,0.209,1.224,0.269l0.388,0.209c1.612,0.567,3.164,0.687,4.716,1.074c1.552,0.09,3.164,0.09,4.746,0.09
		c0.089,0.119,0.478,0.298,0.478,0.388v0.119c-0.896,1.434-3.224,2.119-4.775,2.119c-0.657,0-1.343-0.299-2-0.508
		c-0.12,0-0.507-0.059-0.597-0.059l-0.179-0.119c-1.015-0.27-1.88-0.657-2.775-1.164c-0.955-0.479-2.119-0.776-3.104-1.254
		c-0.06,0-0.567-0.299-0.657-0.389c-0.507-0.298-1.075-0.388-1.671-0.566l-0.179-0.119c-1.104-0.389-2.268-0.508-3.432-0.717
		c-0.06,0-0.388-0.06-0.448-0.06h-0.328C152.658,18.893,151.882,18.952,151.315,19.28z M150.151,4.388
		c0.06,0,0.567-0.328,0.657-0.328c0.12,0,0.776-0.27,0.896-0.27c0.448-0.179,1.224-1.074,1.82-1.074h0.12
		c0.06,0,0.388,0.18,0.388,0.18s0.179,0.387,0.179,0.596v0.12c0,0.06-0.119,0.388-0.119,0.388c-0.179,0.567-2.985,1.045-3.373,1.045
		c-0.388,0-1.075,0.119-1.075-0.478C149.644,4.446,150.032,4.388,150.151,4.388z M152.27,11.103c0.09-0.09,0.776-0.775,0.866-0.896
		c0.298-0.089,0.507-0.089,0.896-0.089h0.388c0.179,0.089,0.388,0.388,0.388,0.597c0,0.478-1.761,1.552-1.94,1.642
		c-0.716,0.388-1.492,0.597-2.269,0.597c-0.179,0-0.388-0.12-0.388-0.298C150.211,12.446,151.972,11.401,152.27,11.103z
		 M158.478,14.386c0-0.18,0.12-1.642,0.12-1.82c0-0.119,0.089-0.688,0.089-0.776c0-0.209,0.12-1.462,0.12-1.671
		c0-0.12,0.06-0.567,0.06-0.688c0-0.089-0.06-0.656-0.06-0.775V7.223c0.06-0.12,0.179-0.328,0.269-0.388
		c1.552-0.119,3.104-0.328,4.656-0.508l0.12-0.09c0.567-0.418,1.164-0.895,1.462-1.582V4.446c-0.12,0-0.806-0.059-0.896-0.059
		c-0.119,0-0.298-0.12-0.298-0.209h-1.821c-0.119-0.119-0.209-0.119-0.388-0.119c-0.329,0-0.597,0.208-0.896,0.328
		c-0.597,0.179-0.985,0.447-1.552,0.775l-0.269,0.06c-0.597,0.209-1.492,0.717-2.179,0.717c-0.597,0-0.985-0.329-1.373-0.597v-0.12
		c0-0.179,0.508-0.388,0.597-0.388c0.298-0.06,0.687-0.18,0.955-0.269c0.448-0.12,0.835-0.299,1.224-0.507
		c0.657-0.27,1.612-0.568,2.208-1.045l0.687-0.688c0.269-0.387,0.388-0.775,0.985-0.775c0.388,0,0.955,0.508,1.045,0.896
		c0,0.06,0.119,0.567,0.119,0.567s0.388,0.209,0.567,0.209c0.776,0.179,1.373,0.268,2.149,0.268c0.298,0.18,0.686,0.389,0.895,0.688
		v0.268c0,0.776-0.776,1.284-1.164,1.791l0.06,0.09h2.059c0.09,0,0.478,0.18,0.597,0.299c0.179,0.09,0.388,0.388,0.388,0.656v0.119
		c0,0.09-0.209,0.27-0.328,0.27h-1.164c-0.06,0-0.776-0.061-0.835-0.061l-0.388,0.061h-0.716c-0.06,0-0.448,0.119-0.567,0.119
		c-0.12,0.388-0.209,0.775-0.209,1.164l0.209,0.089h3.014c0.269,0,0.776,0.299,0.776,0.687c0,0.209-0.388,0.656-0.567,0.656h-3.044
		l-0.567,0.12c0,0-0.12,0.507-0.12,0.687v0.775c0.179,0.09,0.388,0.09,0.687,0.09h0.388c0.328,0,2.268-0.09,2.537-0.09h0.119
		c0.269,0,0.388,0.299,0.388,0.598c0,0.09,0.06,0.268-0.12,0.388c-0.209,0.089-0.776,0.388-0.865,0.388h-0.955
		c-0.329,0-2,0.09-2.269,0.09c-0.119,0.388-0.179,0.687-0.179,1.074v0.389c1.284,0.119,2.716,0.119,4,0.119
		c0.179,0,0.448,0.269,0.448,0.388c0,0.567-0.657,0.657-0.955,1.045h-1.164c-1.373,0-2.716-0.09-4.089-0.09h-1.462l-0.269,0.09
		c-0.12,0-0.776,0.119-0.896,0.119l-0.089,0.06c-0.299,0.598-0.179,1.164-0.896,1.373h-0.179c-0.388,0-0.478-0.597-0.478-0.865
		C158.209,16.177,158.418,15.281,158.478,14.386z M160.149,15.072h1.761c0.06,0,0.567-0.06,0.656-0.06l0.179-0.239
		c0-0.089,0.12-0.656,0.12-0.776v-0.089c0-0.478-0.567-0.478-0.896-0.478c-0.269,0-1.731,0.09-1.821,0.18
		c-0.119,0.119-0.179,0.387-0.179,0.387v0.896L160.149,15.072z M161.015,12.356c0,0,0.179-0.09,0.179-0.18h1.671
		c0,0,0.208-0.119,0.208-0.209c0.179-0.388,0.179-0.955,0.179-1.343c-0.895,0-1.85,0-2.716,0.09
		c-0.12,0.089-0.388,0.089-0.388,0.298c0,0.09-0.119,0.479-0.119,0.567v0.209C160.03,12.267,160.538,12.356,161.015,12.356z
		 M160.358,9.431h0.448c0.12,0,0.388-0.089,0.507-0.089h0.657c0.328,0,1.164-0.12,1.283-0.299l0.09-0.208V7.79h-2.149
		c-0.179,0-0.776,0.09-0.776,0.09l-0.06,0.178V9.431z"/>
	<path d="M192.795,20.235c-2.597,0-5.253,0.389-7.879,0.776c-0.388,0.119-0.776,0.209-1.164,0.388
		c-0.478,0.209-0.985,0.209-1.433,0.389c0,0-0.597,0.328-0.776,0.388c-0.209,0.119-1.284,0.716-1.492,0.776
		c-0.179,0.328-1.075,0.716-1.462,0.716c-0.657,0-0.657-1.284-0.657-1.552c0-0.508,0.179-0.985,0.567-1.283
		c0.209-0.09,0.896-0.209,1.164-0.209c0.716-0.061,1.373-0.18,2.06-0.27c0.209,0,1.044-0.238,1.164-0.238l0.269-0.06
		c0.119,0,1.283-0.12,1.373-0.12c1.164-0.089,2.328-0.388,3.522-0.477h0.269c0.209,0,0.985-0.119,1.164-0.119
		c0.328-0.27,0.597-0.448,0.597-0.955v-0.209c0,0-0.269-0.061-0.388-0.061h-0.089c-0.955,0.061-2.06,0.18-3.015,0.389
		c-0.597,0.059-1.104,0.268-1.671,0.388l-0.269,0.06h-0.328c-0.06,0-0.179-0.18-0.179-0.18v-1.044c0,0,0.179-0.209,0.298-0.209
		c0.209-0.119,0.657-0.298,0.657-0.298h1.552c0.209-0.209,0.627-0.09,0.836-0.09c0.06,0,1.224-0.119,1.343-0.119h0.657
		c0.388,0,0.716-0.448,0.716-0.836l-0.119-0.209h-2.417c-0.508,0-1.791,0.209-1.791,0.209l-0.448,0.447h-0.119
		c-0.388,0-0.657-0.656-0.657-0.955v-0.09c0.179-0.686,0.388-1.373,0.388-2.148c-0.119-0.389-0.119-0.984-0.388-1.373
		c-0.209-0.269-0.716-0.566-0.716-1.045h2.059c0.478,0,0.866-0.209,1.373-0.298c2.895-0.388,5.939-0.388,8.954-0.478
		c0-0.119,0.209-0.119,0.269-0.119h0.119c0.209,0.119,0.866,0.388,0.985,0.507c0.179,0.09,0.179,0.179,0.179,0.388
		c0,0.567-0.507,0.776-0.687,1.254c-0.269,0.775-0.597,1.463-0.656,2.418c-0.329,0.209-0.716,0.984-0.985,0.984
		c-0.298,0-0.507-0.09-0.806-0.09h-0.269c-0.119,0-0.776,0.09-0.896,0.09h-0.388c-0.597,0-1.761-0.09-1.761,0.776
		c0,0.179,0,0.298,0.329,0.388h0.776c1.164,0,2.328-0.269,3.611-0.269h0.388c0.269,0.06,0.179,0.388,0.179,0.448v0.328l-0.567,0.566
		h-0.985c-0.507,0-2.746,0.09-3.224,0.09c-0.388,0-0.567,0.299-0.567,0.687v0.269c0.06,0.119,0.388,0.209,0.448,0.209h1.104
		c1.164,0,2.328-0.209,3.492-0.209h4.179c0.089,0,0.865-0.06,0.985-0.06c0.269,0,1.462-0.12,1.731-0.12l0.12-0.089h0.656
		c0,0.388-0.089,0.865-0.269,1.253c-1.074,0.807-2.358,1.403-3.73,1.403h-0.06c-0.895-0.209-1.88-0.507-2.716-0.716
		c-0.985-0.18-2.06-0.18-3.044-0.27c-0.119,0-0.896-0.119-0.955-0.119H192.795z M179.484,9.729
		c-0.328-0.299-0.328-1.164-0.328-1.552s0.448-0.687,0.626-1.075c0.209-0.268,0.269-0.775,0.478-1.044
		c0.179-0.328,0.687-0.597,0.955-0.776c0.12-0.119,0.329-0.238,0.329-0.238c0.06,0,0.657-0.09,0.776-0.09
		c0.388-0.119,0.776-0.179,1.164-0.299c0.955-0.209,1.94-0.268,2.895-0.388c0.209,0,1.492-0.089,1.671-0.089
		c0.09,0,0.597-0.119,0.657-0.119c0.209,0,1.104-0.18,1.164-0.389c0-0.06,0.209-0.775,0.209-0.836V1.94l-0.09-0.09l-0.388-0.567
		V0.507C189.811,0.298,189.99,0,190.258,0h0.209l0.12,0.119c0.06,0.06,0.835,0.388,0.955,0.448c0.269,0.119,0.388,0.209,0.388,0.507
		c0,0.388-0.119,0.657-0.179,1.045c0,0.119-0.12,0.597-0.12,0.716V3.79l0.179,0.209h0.716c0.06,0,0.567-0.119,0.657-0.119
		c0.179,0,1.552,0.119,1.791,0.119c0.06,0,0.567-0.119,0.657-0.119h0.119c0.179,0,1.821,0.119,2,0.119
		c1.492,0,2.716-0.119,3.82,0.955c0,0,0.179,0.209,0.179,0.328c0.09,0.27,0.478,1.045,0.478,1.164v0.567
		c-0.208,0.985-0.656,1.552-1.433,2.149l-0.208,0.059h-0.12l-0.06-0.179l-0.328-0.089c-0.388-0.18-0.388-0.567-0.388-0.955
		c0-0.508,0.119-0.985,0.119-1.553V5.73c-0.298-0.179-0.507-0.269-0.895-0.269c-0.388-0.119-1.552-0.18-1.612-0.18h-5.551
		c-0.209,0.061-0.209,0.061-0.388,0.061c-0.209,0-0.328-0.061-0.388-0.061c-0.597,0-0.985,0.27-1.492,0.27h-1.044
		c-0.896,0-1.671,0.298-2.448,0.388c-0.119,0-0.776,0.119-0.895,0.119c-0.06,0-1.045,0.179-1.343,0.269
		c-0.209,0-1.044,0.299-1.164,0.299c-0.597,0.209-0.985,0.388-1.044,0.984c0,0.061-0.209,1.045-0.209,1.164
		c0,0.061-0.179,0.656-0.179,0.776l-0.119,0.179c-0.09,0.09-0.597,0.598-0.657,0.687h-0.328l-0.179-0.298L179.484,9.729z
		 M182.2,25.011c-0.09,0-0.269,0-0.269-0.179c0.388-0.388,0.835-0.896,1.224-1.164c0.328-0.329,0.716-0.507,0.985-0.776
		c0.298-0.388,0.119-0.597,0.687-0.716h0.089c0.388,0,1.164,0.388,1.164,0.776c0,0.328,0,0.716-0.269,0.895
		c0,0-0.716,0.389-0.985,0.598c-0.179,0.059-0.687,0.388-0.687,0.388c-0.478,0.179-1.045,0.06-1.552,0.06l-0.269,0.119H182.2z
		 M182.708,2.896c-0.12,0-0.388-0.27-0.507-0.27V2.507l0.119-0.06c0.06,0,0.657-0.209,0.776-0.209l1.552-0.567
		c0.269-0.209,0.448-0.328,0.835-0.328h0.209c0.12,0.119,0.687,0.717,0.776,0.776c0.12,0.208,0.12,0.328,0.12,0.507
		c0,0,0.06,0.389-0.12,0.389c-0.597,0.209-1.164,0.209-1.761,0.209c-0.776,0-1.224,0-1.94-0.209L182.708,2.896z M195.153,7.88
		c-0.507,0.566-0.806,1.73-1.671,1.73c-0.388,0-0.776-0.06-1.284-0.06c-1.343,0-2.596,0.269-3.939,0.388
		c-0.328,0.299-0.776,0.299-1.283,0.299c-0.12,0-0.209,0.09-0.329-0.119c-0.06-0.18-0.179-0.567-0.179-0.776
		c0-0.388,0.179-0.776,0.179-1.164V7.999l-0.567-0.598V7.014c0-0.119,0.298-0.388,0.388-0.388h0.179c0.209,0,0.388,0,0.507,0.09
		h0.597c0.955,0,2.059-0.209,3.014-0.27c1.254-0.119,2.537-0.119,3.761-0.119h0.896c0,0,0.328,0.119,0.328,0.18v0.716l-0.119,0.06
		L195.153,7.88z M190.08,13.729c0,0-0.985,0.089-1.373,0.089c-0.657,0.09-1.552,0.09-2.239,0.299c-0.089,0-0.208,0.089-0.208,0.089
		v0.688c0,0.089,0.328,0.268,0.388,0.268h0.12c0.716-0.089,1.552-0.089,2.268-0.268l0.269-0.209h0.776
		c0.179-0.09,0.179-0.479,0.179-0.688v-0.179L190.08,13.729z M186.378,12.744c0,0.089,0.209,0.388,0.269,0.388h0.209l0.418-0.09
		c0.089,0,1.044-0.089,1.164-0.089l0.388-0.12c0.597-0.089,1.373,0.12,1.373-0.775c0,0,0-0.388-0.119-0.388h-1.761
		c-0.448,0.208-1.94,0.119-1.94,0.985V12.744z M188.527,21.608l1.283,0.567v2.656l-0.507,0.567h-0.985l-0.06-0.12
		c-0.119-0.179-0.328-0.835-0.328-0.835v-2.537c0-0.119,0.388-0.299,0.507-0.299H188.527z M191.751,7.61
		c-0.12,0-0.508,0.061-0.597,0.061c-0.955,0.119-1.851,0.328-2.835,0.328c-0.06,0.059-0.06,0.268-0.06,0.447
		c0,0.119,0,0.328,0.179,0.389h0.865c0.12,0,0.388-0.061,0.507-0.061c1.045-0.119,2.119-0.119,3.164-0.328
		c0.388-0.06,0.507-0.566,0.507-0.836H191.751z M191.363,14.386c0,0.119,0.269,0.299,0.388,0.299h1.611
		c0.329,0,1.373-0.18,1.671-0.18c0.209-0.209,0.329-0.984,0.329-1.283c-1.015,0-2.06,0.119-3.044,0.299
		c-0.12,0-0.687,0.09-0.776,0.09c0,0.119-0.179,0.596-0.179,0.686V14.386z M195.422,11.282c-1.164,0.119-2.447,0.119-3.611,0.209
		c-0.179,0.089-0.179,0.477-0.179,0.686c0,0.27,0.179,0.389,0.507,0.389c0.657,0,1.224-0.119,1.94-0.119
		c0.388,0,0.657,0.119,0.955,0.298c0.12,0.089,0.329,0.209,0.329,0.209c0.269,0,0.388-1.075,0.388-1.373v-0.179L195.422,11.282z
		 M192.139,23.847c-0.209-0.566-0.328-1.283-0.328-1.85c0-0.27,0.119-0.598,0.507-0.598h0.089c0.776,0.209,0.955,0.389,0.955,1.283
		c0,0.389,0,1.94-0.447,1.94c-0.209,0-0.508,0-0.597-0.179L192.139,23.847z M195.422,2.716c-0.567,0-0.955-0.389-0.955-0.984
		c0-0.389,0-0.389,0.06-0.776c0-0.06,0.12-0.269,0.12-0.269h2.537c0.12,0,0.776-0.299,0.896-0.299h0.06l0.209,0.18
		c0,0.597-0.388,1.373-0.865,1.671c-0.12,0-0.776,0.269-0.896,0.269l-0.179,0.119c0,0-0.657,0.09-0.866,0.09H195.422z
		 M196.586,24.056c-0.06-0.119-0.269-0.717-0.388-0.775c-0.06-0.328-0.388-0.776-0.388-0.985c0-0.119,0-0.179,0.208-0.298h0.687
		l0.388,0.298c0.089,0.089,0.478,0.269,0.597,0.388c0.388,0.27,0.656,0.479,1.044,0.776c0.507,0.388,1.283,0.478,1.283,1.164v0.269
		c0,0.119-0.328,0.328-0.388,0.328c-0.209,0-0.896,0.06-1.104,0.06l-0.269,0.12h-0.12c-0.179,0-0.179,0-0.388-0.12
		c-0.179-0.06-0.567-0.269-0.567-0.269c-0.089-0.119-0.388-0.775-0.478-0.895L196.586,24.056z"/>
	<g>
		<path d="M11.013,21.79c0-1.343,0.209-2.716,0.209-4.059v-4c0-0.09,0.06-0.865,0.06-0.984v-0.061l-0.06-0.447
			c0-0.06,0.06-0.388,0.06-0.447V8.747l-0.06-0.06h-0.388c-0.716,0-1.283,0.179-1.88,0.269c-0.06,0-0.567,0.119-0.656,0.119
			c-0.12,0-0.687,0.061-0.896,0.18C6.536,9.464,5.551,9.643,4.775,10.03l-0.179,0.209c-0.089,0.836-0.298,1.731-0.298,2.627
			c0,0.209,0,0.388,0.209,0.388c1.044,0,1.94-0.298,2.895-0.687c0.089,0,0.776-0.388,0.896-0.388c0.089,0,0.776-0.119,0.865-0.119
			v0.298c-0.269,1.104-0.985,2.149-2.059,2.656H6.327c-0.567,0-1.164-0.119-1.82-0.119H4.208c-0.209,0-0.866,0.179-0.985,0.179
			c-0.179,0.209-0.388,0.329-0.567,0.389c-0.597,0.388-0.985,0.896-1.642,0.896C0.418,16.358,0,15.97,0,15.403
			c0-1.553,1.671-2.149,2.835-2.537v-1.672c0,0-0.179-0.507-0.269-0.566c-0.299-0.389-0.776-0.717-0.896-1.164
			c0-0.12-0.09-0.776-0.09-0.896C1.492,8.3,1.403,8.091,1.403,7.702c0-0.179,0.089-1.015,0.478-1.015H1.97
			c0.089,0,0.597,0.209,0.687,0.209c0.298,0.12,0.955,0.418,1.075,0.418C4,7.523,4.119,7.702,4.507,7.702
			c1.731,0,3.373-0.388,5.163-0.626c0.06,0,0.955-0.06,1.224-0.06h0.208l0.12-0.209V5.912c0-0.567,0.06-1.224-0.328-1.731
			l-0.269-0.269l-0.119-0.209c-0.448-0.388-1.044-0.298-1.044-1.074V2.42l0.478-0.06c0.567-0.209,0.955-0.508,1.552-0.508h0.567
			c0,0,0.329,0.119,0.388,0.119c0.776,0.18,0.716,0.448,0.716,1.225v0.328c-0.12,0.955-0.328,1.82-0.328,2.895
			c0,0.09,0,0.389,0.208,0.389c0.896,0,1.851-0.12,2.835-0.12c1.462,0,3.015,0.12,4.447,0.389c0.209,0,0.597,0.119,0.597,0.119
			l0.119-0.119V6.419c0-0.179,0-0.507,0.269-0.507h1.462C23.041,6.3,23.757,6.3,23.757,7.017c0,0.298-0.089,0.388-0.209,0.686
			C23.37,8.181,22.862,8.3,22.474,8.688c-0.657,0.656-1.164,1.164-1.761,1.94c0,0-0.179,0.179-0.179,0.269
			c-0.089,0.179-0.388,0.388-0.478,0.687l0.209,0.089c0.955,0,2.119,0,2.895,0.687v0.209c0,0.389-0.687,0.955-1.075,0.955h-1.552
			c-0.209,0-1.433-0.06-1.642-0.06h-4.507l-0.06-0.119v-1.373l0.06-0.179l0.388-0.389h0.597c0.896,0,1.791,0.18,2.746,0.18
			c0.269,0,1.94-2.239,1.82-2.508c0-0.119-0.06-0.209-0.179-0.209c-0.657,0-1.164-0.179-1.821-0.298
			c-1.164-0.09-2.447-0.209-3.611-0.209c-0.507,0-0.985-0.06-1.373,0.119c0,0.388-0.119,0.776-0.179,1.164v8.983
			c0,0.061,0.06,1.344,0.179,1.821c0.089,0.507,0.269,0.955,0.269,1.462c0,0.269-0.567,0.866-0.776,1.045
			c-0.179,0.119-0.388,0.119-0.567,0.119c-0.269,0-0.597,0-0.866-0.179V21.79z"/>
		<path d="M40.674,23.581c-0.507,0-0.567-0.955-0.567-1.283c0-0.657,0.269-1.225,0.269-1.94v-1.94
			c-0.089-0.119-0.209-0.119-0.269-0.119c-0.776,0-2.269,0.389-2.955,0.717c-0.657,0.298-1.254,0.687-1.94,0.687h-0.478
			c-0.179,0-0.119-0.389-0.119-0.389c0-0.298,0.119-0.687,0.209-1.015c0.119-0.179,0.388-0.656,0.388-0.656s0.508-0.18,0.567-0.18
			c0.119,0,0.985-0.119,1.104-0.119l0.269-0.09c0.179,0,1.462-0.119,1.671-0.119c0.12,0,0.388-0.06,0.508-0.06
			c0.269,0,1.044,0,1.044-0.507v-1.254c0-0.179-0.209-0.299-0.388-0.299c-1.044,0-2.029,0.299-3.104,0.389
			c-1.164,0.179-2.059,0.388-3.223,0.566c-0.09,0-0.478,0.12-0.597,0.12c-0.179,0.089-1.82,0.597-2.328,0.775l-0.179,0.09
			c-0.478,0.298-0.896,0.388-1.373,0.687c-0.179,0.09-0.298,0.269-0.567,0.269c-0.776,0-0.896-0.269-0.896-0.955
			c0-0.478,0-0.865,0.388-1.164l0.179-0.09c0.209-0.119,1.284-0.298,1.552-0.388l1.283-0.299c0.12,0,0.597-0.209,0.716-0.209
			l0.269-0.06c0.896-0.238,1.731-0.238,2.626-0.507c0.209-0.209,0.209-0.389,0.209-0.687c0-0.209,0.06-0.687-0.209-0.687
			c-0.507,0-0.895,0.209-1.283,0.388c0,0-0.179,0.09-0.269,0.09c-0.298,0.119-0.955,0.298-1.075,0.298H31.9
			c-0.269-0.179-0.448-0.388-0.448-0.775c0-0.299,0.179-0.389,0.388-0.567l0.179-0.298c0.269-0.299,0.866-0.299,1.253-0.389
			c0.12,0,0.955-0.09,1.075-0.09l0.209-0.119c0-0.089,0.179-0.775,0.269-0.865c0.119-0.179,0.507-0.478,0.776-0.478
			c0.12,0,0.507,0.299,0.567,0.388c0.209,0.09,0.388,0.687,0.597,0.687h0.119c0.657-0.209,1.343-0.209,2.06-0.298
			c0.448-0.09,1.224,0,1.433-0.598c0-0.119,0.12-0.687,0.12-0.775c0-0.12-0.12-0.567-0.12-0.567c0-0.119-0.269-0.209-0.388-0.209
			c-0.089,0-0.388,0.09-0.478,0.09c-0.119,0-1.074,0.119-1.164,0.119c-0.895,0.06-1.85,0.269-2.626,0.447
			c-0.597,0.12-1.164,0.12-1.672,0.329c-0.089,0-0.656,0.269-0.776,0.269c-0.089,0-0.269,0.119-0.269,0.119
			c-0.507,0-0.716-0.597-0.716-0.985c0-0.119,0.12-0.507,0.209-0.566c0,0,0.119-0.12,0.179-0.12c0.597-0.208,1.164-0.208,1.88-0.269
			c1.731-0.209,3.492-0.328,5.223-0.507l0.388-0.09c1.104-0.119,2.149,0,3.224-0.119l0.269-0.06h0.388
			c1.164-0.119,2.388-0.209,3.552-0.209h1.343c0.089,0.269,0.478,0.09,0.657,0.478v0.119c0,0.656-0.955,0.567-1.343,0.567
			c-0.209,0-2.029,0.089-2.208,0.089h-0.716c-0.179,0-1.851,0.12-2.06,0.12c-0.388,0-1.044,0-1.224,0.388
			c-0.209,0.447-0.328,1.045-0.328,1.642h0.776c0.119,0,1.373-0.09,1.492-0.09h0.448c0.776-0.089,0.328-1.283,1.492-1.283
			c0.299,0,0.687,0.299,0.896,0.508c0,0,0.06,0.06,0.06,0.179l0.12,0.269c0,0.119,0.089,0.239,0.089,0.239h2.447
			c0.06,0.269,0.388,0.478,0.388,0.775c0,0.18,0,0.18-0.209,0.388c-0.119,0.09-0.388,0.18-0.388,0.18h-2.716
			c-0.119,0-0.298,0.775-0.388,0.865c0,0.119-0.299,0.508-0.299,0.597v0.299h0.567c0.119,0,0.388-0.119,0.507-0.119
			c0.269,0,0.388,0.298,0.597,0.298c0.179,0,0.179-0.179,0.448-0.179c0.209,0,1.552-0.119,1.761-0.119h0.12
			c0.06,0,0.776,0.119,0.835,0.119h3.522c0.478-0.119,0.866-0.119,1.373-0.119c0,0.209-0.12,0.507-0.298,0.687
			c-0.866,0.896-1.851,1.552-3.104,1.552c-0.896,0-1.761-0.179-2.537-0.388l-0.298-0.06c-0.09,0-0.776-0.209-0.866-0.209
			l-0.179-0.12h-0.895c-0.09,0-0.478-0.06-0.597-0.06h-4.387c-0.06,0-0.836,0.06-0.836,0.389v1.552c0,0,0.179,0.06,0.269,0.06h0.298
			c0.388,0,0.597,0,0.985-0.06h4.387c0.06,0,0.448,0.06,0.567,0.179c0.208,0.09,0.208,0.209,0.208,0.388
			c0,0.479-0.597,0.776-1.104,0.776h-5.164l-0.388,0.388c-0.06,0.209-0.06,0.389-0.06,0.478c0,1.075,0.269,2.179,0.269,3.224v0.567
			c-0.269,0.507-0.597,0.597-1.164,0.896H40.674z M36.287,7.345c-0.776-0.508,0-2-1.164-2c-0.12,0-0.687,0.328-0.896,0.328
			c-0.06,0-0.448,0.119-0.567,0.119L32.228,6.24h-0.12c-0.208,0-0.597,0-0.656-0.179c-0.12-0.209-0.388-0.717-0.388-0.985
			c0-0.119,0.179-0.388,0.269-0.388c0.12-0.12,0.507-0.299,0.567-0.299c0.119,0,0.895-0.209,1.164-0.209
			c0.12,0,0.985-0.06,1.104-0.06c0.06,0,0.567-0.119,0.567-0.119l0.209-0.209c0-0.269-0.328-0.448-0.388-0.657
			c0-0.119-0.12-0.298-0.12-0.298v-0.09c0,0,0.507-0.567,0.567-0.567c0.508,0,1.164,0.061,1.672,0.18
			c0.089,0.209,0.269,1.433,0.388,1.433h1.94c0,0,0.329,0.119,0.388,0.209c0.119,0,0.328,0.179,0.328,0.179V4.3
			c0,0.478-0.597,0.657-0.985,0.776c-0.179,0-1.015,0.09-1.194,0.09l-0.209,0.298c0,0.717,0,1.881-0.955,1.881H36.287z
			 M39.719,12.001c-1.104,0-2.268,0.179-3.343,0.388c-0.209,0.567-0.269,1.074-0.269,1.642h0.448c0.12,0,0.507-0.09,0.597-0.09
			c1.015-0.09,2.059-0.09,3.014-0.299c0.209-0.298,0.209-0.775,0.209-1.164c0-0.179,0-0.298-0.089-0.477H39.719z M41.451,10.837
			v0.089l0.089-0.179v-0.119L41.451,10.837z M41.54,13.254c0,0.09,0.119,0.209,0.179,0.299h0.776c0.328,0,1.671-0.09,1.94-0.09
			c0.597-0.209,0.716-1.373,0.716-1.851c-0.328,0-0.597,0.09-0.985,0.09l-0.12-0.18c-0.179,0.18-0.448,0.09-0.656,0.09
			c-0.12,0-0.388,0.09-0.507,0.09c-0.179,0-0.836,0.09-1.045,0.09l-0.179,0.209c0,0-0.119,0.775-0.119,1.163V13.254z M44.942,6.449
			c-0.119,0.119-0.388,0.298-0.567,0.298c-0.209,0-0.209-0.179-0.209-0.298c0-0.478,0.388-0.896,0.388-1.373
			c0-0.179-0.179-0.299-0.298-0.299c-0.597,0-1.253,0.299-1.761,0.299c-0.269,0-0.388,0-0.567-0.179c0-0.12-0.09-0.776-0.09-0.896
			V3.793c0-0.269,0.269-0.18,0.388-0.448h2.537l0.269-0.209V2.748c0-0.388-0.089-0.687-0.089-1.074c0-0.269,0.089-0.388,0.388-0.388
			c0.507,0,1.671,0.179,1.671,0.775c0,0.389-0.179,0.776-0.179,1.164c0,0.119,0.06,0.119,0.179,0.119
			c0.597,0,1.164-0.119,1.761-0.119c0.269,0,0.836-0.09,1.164,0.119v0.061c0,0.208-0.209,0.328-0.388,0.507
			c-0.388,0.269-1.492,0.656-1.94,0.776c-0.119,0-0.776,0.089-0.895,0.089c-0.09,0-0.478,0.12-0.478,0.12
			c-0.299,0.179-0.508,0.656-0.687,0.955L44.942,6.449z M43.391,7.792c0.089,0,0.089-0.179,0-0.179
			C43.271,7.613,43.271,7.792,43.391,7.792z"/>
	</g>
</g>
</svg>
