<?xml version="1.0" encoding="utf-8"?>
<!-- Generator: Adobe Illustrator 17.0.0, SVG Export Plug-In . SVG Version: 6.00 Build 0)  -->
<!DOCTYPE svg PUBLIC "-//W3C//DTD SVG 1.1//EN" "http://www.w3.org/Graphics/SVG/1.1/DTD/svg11.dtd">
<svg version="1.1" id="Layer_1" xmlns="http://www.w3.org/2000/svg" xmlns:xlink="http://www.w3.org/1999/xlink" x="0px" y="0px"
	 width="172.244px" height="25.399px" viewBox="0 0 172.244 25.399" enable-background="new 0 0 172.244 25.399"
	 xml:space="preserve">
<g>
	<path d="M160.962,20.235c-2.597,0-5.253,0.388-7.879,0.776c-0.388,0.119-0.776,0.209-1.164,0.388
		c-0.478,0.209-0.985,0.209-1.433,0.388c0,0-0.597,0.328-0.776,0.388c-0.209,0.119-1.283,0.716-1.492,0.776
		c-0.179,0.328-1.075,0.716-1.463,0.716c-0.656,0-0.656-1.284-0.656-1.552c0-0.507,0.179-0.985,0.567-1.283
		c0.209-0.089,0.896-0.209,1.164-0.209c0.716-0.06,1.373-0.179,2.06-0.269c0.208,0,1.044-0.239,1.164-0.239l0.269-0.06
		c0.119,0,1.283-0.12,1.373-0.12c1.164-0.089,2.328-0.388,3.522-0.478h0.269c0.209,0,0.985-0.119,1.164-0.119
		c0.329-0.269,0.597-0.448,0.597-0.955v-0.209c0,0-0.269-0.06-0.388-0.06h-0.089c-0.955,0.06-2.06,0.179-3.015,0.388
		c-0.597,0.06-1.104,0.269-1.671,0.388l-0.269,0.06h-0.329c-0.06,0-0.179-0.179-0.179-0.179v-1.044c0,0,0.179-0.209,0.298-0.209
		c0.209-0.119,0.657-0.298,0.657-0.298h1.552c0.209-0.209,0.627-0.09,0.836-0.09c0.06,0,1.224-0.119,1.343-0.119h0.657
		c0.388,0,0.716-0.448,0.716-0.836l-0.119-0.208h-2.418c-0.507,0-1.791,0.208-1.791,0.208l-0.448,0.448h-0.119
		c-0.388,0-0.657-0.656-0.657-0.955V15.58c0.179-0.687,0.388-1.373,0.388-2.149c-0.12-0.388-0.12-0.985-0.388-1.373
		c-0.209-0.269-0.716-0.567-0.716-1.044h2.06c0.478,0,0.865-0.209,1.373-0.298c2.895-0.388,5.939-0.388,8.954-0.478
		c0-0.12,0.209-0.12,0.269-0.12h0.119c0.209,0.12,0.866,0.388,0.985,0.507c0.179,0.09,0.179,0.179,0.179,0.388
		c0,0.567-0.507,0.776-0.687,1.253c-0.269,0.776-0.597,1.462-0.656,2.417c-0.329,0.209-0.716,0.985-0.985,0.985
		c-0.299,0-0.508-0.089-0.806-0.089h-0.269c-0.12,0-0.776,0.089-0.896,0.089h-0.388c-0.597,0-1.761-0.089-1.761,0.776
		c0,0.179,0,0.298,0.329,0.388h0.776c1.164,0,2.328-0.269,3.611-0.269h0.388c0.269,0.06,0.179,0.388,0.179,0.448v0.328l-0.567,0.567
		h-0.985c-0.507,0-2.746,0.089-3.224,0.089c-0.388,0-0.567,0.298-0.567,0.687v0.269c0.06,0.119,0.388,0.209,0.448,0.209h1.104
		c1.164,0,2.328-0.209,3.492-0.209h4.179c0.089,0,0.865-0.06,0.985-0.06c0.269,0,1.462-0.12,1.731-0.12l0.119-0.089h0.657
		c0,0.388-0.089,0.865-0.269,1.253c-1.074,0.806-2.358,1.403-3.731,1.403h-0.06c-0.896-0.209-1.88-0.507-2.716-0.716
		c-0.985-0.179-2.06-0.179-3.044-0.269c-0.119,0-0.896-0.12-0.955-0.12H160.962z M147.65,9.729
		c-0.328-0.298-0.328-1.164-0.328-1.552c0-0.388,0.448-0.687,0.627-1.075c0.208-0.269,0.269-0.776,0.478-1.044
		c0.179-0.328,0.686-0.597,0.955-0.776c0.119-0.12,0.328-0.239,0.328-0.239c0.06,0,0.657-0.09,0.776-0.09
		c0.388-0.119,0.776-0.179,1.164-0.298c0.955-0.209,1.94-0.269,2.895-0.388c0.209,0,1.492-0.089,1.671-0.089
		c0.089,0,0.597-0.119,0.657-0.119c0.209,0,1.104-0.179,1.164-0.388c0-0.06,0.209-0.776,0.209-0.836V1.94l-0.09-0.09l-0.388-0.567
		V0.507C157.978,0.298,158.156,0,158.425,0h0.209l0.12,0.119c0.06,0.06,0.835,0.388,0.955,0.448c0.269,0.12,0.388,0.209,0.388,0.507
		c0,0.388-0.119,0.657-0.179,1.045c0,0.119-0.12,0.597-0.12,0.716V3.79l0.179,0.209h0.716c0.06,0,0.567-0.119,0.657-0.119
		c0.179,0,1.552,0.119,1.791,0.119c0.06,0,0.567-0.119,0.657-0.119h0.119c0.179,0,1.821,0.119,2,0.119
		c1.492,0,2.716-0.119,3.82,0.955c0,0,0.179,0.209,0.179,0.329c0.089,0.269,0.478,1.044,0.478,1.164v0.567
		c-0.209,0.985-0.657,1.552-1.433,2.149l-0.209,0.06h-0.12l-0.06-0.179l-0.329-0.089c-0.388-0.179-0.388-0.567-0.388-0.955
		c0-0.507,0.119-0.985,0.119-1.552V5.73c-0.298-0.179-0.507-0.269-0.895-0.269c-0.388-0.12-1.552-0.179-1.612-0.179h-5.551
		c-0.209,0.06-0.209,0.06-0.388,0.06c-0.209,0-0.328-0.06-0.388-0.06c-0.597,0-0.985,0.269-1.492,0.269h-1.044
		c-0.896,0-1.671,0.298-2.447,0.388c-0.12,0-0.776,0.119-0.896,0.119c-0.06,0-1.045,0.179-1.343,0.269
		c-0.209,0-1.044,0.298-1.164,0.298c-0.597,0.209-0.985,0.388-1.044,0.985c0,0.06-0.209,1.045-0.209,1.164
		c0,0.06-0.179,0.657-0.179,0.776l-0.119,0.179c-0.09,0.09-0.597,0.597-0.657,0.687h-0.328l-0.179-0.298L147.65,9.729z
		 M150.367,25.011c-0.09,0-0.269,0-0.269-0.179c0.388-0.388,0.836-0.896,1.224-1.164c0.328-0.329,0.716-0.507,0.985-0.776
		c0.298-0.388,0.119-0.597,0.687-0.716h0.089c0.388,0,1.164,0.388,1.164,0.776c0,0.328,0,0.716-0.269,0.895
		c0,0-0.716,0.388-0.985,0.597c-0.179,0.06-0.687,0.388-0.687,0.388c-0.478,0.179-1.045,0.06-1.552,0.06l-0.269,0.119H150.367z
		 M150.874,2.895c-0.12,0-0.388-0.269-0.507-0.269v-0.12l0.119-0.06c0.06,0,0.657-0.209,0.776-0.209l1.552-0.567
		c0.269-0.209,0.448-0.329,0.835-0.329h0.209c0.12,0.12,0.687,0.716,0.776,0.776c0.119,0.208,0.119,0.328,0.119,0.507
		c0,0,0.06,0.388-0.119,0.388c-0.597,0.209-1.164,0.209-1.761,0.209c-0.776,0-1.224,0-1.94-0.209L150.874,2.895z M163.32,7.879
		c-0.507,0.567-0.806,1.731-1.671,1.731c-0.388,0-0.776-0.06-1.283-0.06c-1.343,0-2.597,0.269-3.94,0.388
		c-0.328,0.299-0.776,0.299-1.283,0.299c-0.12,0-0.209,0.089-0.329-0.12c-0.06-0.179-0.179-0.567-0.179-0.776
		c0-0.388,0.179-0.776,0.179-1.164V7.999l-0.567-0.597V7.014c0-0.119,0.298-0.388,0.388-0.388h0.179c0.209,0,0.388,0,0.507,0.09
		h0.597c0.955,0,2.06-0.209,3.015-0.269c1.253-0.12,2.537-0.12,3.76-0.12h0.896c0,0,0.328,0.12,0.328,0.179v0.716l-0.119,0.06
		L163.32,7.879z M158.246,13.729c0,0-0.985,0.089-1.373,0.089c-0.657,0.09-1.552,0.09-2.238,0.299c-0.09,0-0.209,0.089-0.209,0.089
		v0.687c0,0.089,0.328,0.269,0.388,0.269h0.12c0.716-0.089,1.552-0.089,2.268-0.269l0.269-0.209h0.776
		c0.179-0.089,0.179-0.478,0.179-0.687v-0.179L158.246,13.729z M154.545,12.744c0,0.089,0.209,0.388,0.269,0.388h0.209l0.418-0.09
		c0.089,0,1.044-0.089,1.164-0.089l0.388-0.12c0.597-0.089,1.373,0.12,1.373-0.776c0,0,0-0.388-0.119-0.388h-1.761
		c-0.448,0.208-1.94,0.119-1.94,0.985V12.744z M156.694,21.608l1.284,0.567v2.656l-0.508,0.567h-0.985l-0.06-0.12
		c-0.12-0.179-0.328-0.835-0.328-0.835v-2.537c0-0.119,0.388-0.298,0.507-0.298H156.694z M159.917,7.61
		c-0.12,0-0.507,0.06-0.597,0.06c-0.955,0.119-1.851,0.328-2.835,0.328c-0.06,0.06-0.06,0.269-0.06,0.448
		c0,0.119,0,0.328,0.179,0.388h0.865c0.12,0,0.388-0.06,0.508-0.06c1.044-0.119,2.119-0.119,3.164-0.328
		c0.388-0.06,0.507-0.567,0.507-0.836H159.917z M159.529,14.386c0,0.119,0.269,0.298,0.388,0.298h1.611
		c0.329,0,1.373-0.179,1.671-0.179c0.209-0.209,0.329-0.985,0.329-1.283c-1.015,0-2.06,0.119-3.044,0.298
		c-0.119,0-0.687,0.09-0.776,0.09c0,0.119-0.179,0.597-0.179,0.686V14.386z M163.588,11.282c-1.164,0.119-2.447,0.119-3.611,0.209
		c-0.179,0.089-0.179,0.478-0.179,0.687c0,0.269,0.179,0.388,0.507,0.388c0.657,0,1.224-0.119,1.94-0.119
		c0.388,0,0.657,0.119,0.955,0.298c0.12,0.089,0.329,0.209,0.329,0.209c0.269,0,0.388-1.075,0.388-1.373v-0.179L163.588,11.282z
		 M160.305,23.847c-0.209-0.567-0.328-1.283-0.328-1.85c0-0.269,0.119-0.597,0.507-0.597h0.089c0.776,0.209,0.955,0.388,0.955,1.284
		c0,0.388,0,1.94-0.448,1.94c-0.208,0-0.507,0-0.597-0.179L160.305,23.847z M163.588,2.716c-0.567,0-0.955-0.388-0.955-0.985
		c0-0.388,0-0.388,0.06-0.776c0-0.06,0.12-0.269,0.12-0.269h2.537c0.12,0,0.776-0.299,0.896-0.299h0.06l0.209,0.179
		c0,0.597-0.388,1.373-0.865,1.671c-0.12,0-0.776,0.269-0.896,0.269l-0.179,0.12c0,0-0.657,0.089-0.865,0.089H163.588z
		 M164.752,24.056c-0.06-0.119-0.269-0.716-0.388-0.776c-0.06-0.328-0.388-0.776-0.388-0.985c0-0.119,0-0.179,0.209-0.298h0.686
		l0.388,0.298c0.089,0.089,0.478,0.269,0.597,0.388c0.388,0.269,0.657,0.478,1.045,0.776c0.507,0.388,1.283,0.478,1.283,1.164v0.269
		c0,0.119-0.328,0.328-0.388,0.328c-0.209,0-0.896,0.06-1.104,0.06l-0.269,0.12h-0.12c-0.179,0-0.179,0-0.388-0.12
		c-0.179-0.06-0.567-0.269-0.567-0.269c-0.089-0.119-0.388-0.776-0.478-0.895L164.752,24.056z"/>
	<g>
		<path d="M118.914,22.175c0-0.388,0-1.075,0.328-1.463c0,0,0.179-0.089,0.299-0.089c1.343-0.388,2.805-0.687,4.268-0.955
			c0.269-0.119,0.866-0.209,0.866-0.209l0.179-0.179v-0.597c0-0.507,0-1.194-0.09-1.671c-0.179-0.567-0.865-0.687-0.865-1.343
			c0-0.328,0.388-0.716,0.567-0.776c1.462,0.06,2.567-0.209,3.91-0.388c1.433-0.208,2.806-0.328,4.268-0.507
			c0.209,0,1.373-0.208,1.552-0.208h2.06c0.089,0,0.388-0.06,0.478-0.06h0.179c0.507,0,0.776,0.448,0.776,0.955
			c0,0.388-0.179,0.388-0.388,0.776c-0.269,0.776-0.567,1.642-0.567,2.537v0.388l0.119,0.119c0,0,1.224,0.06,1.821,0.06h1.283
			c0.06,0,0.388,0.119,0.448,0.119h2.06l0.208,0.089v0.12l-0.388,0.776c-0.12,0.179-0.329,0.179-0.507,0.388l-0.09,0.179
			c-0.179,0.209-0.776,0.478-0.955,0.597h-0.985c-1.671,0-3.223-0.597-4.835-0.776c-0.329,0-0.716,0.06-1.015-0.12h-4.149
			c-0.119,0-0.597,0.12-0.716,0.12c-0.388,0-2.328,0.269-2.716,0.269c-0.179,0.179-0.567,0.179-0.776,0.179
			c-0.955,0.208-2.03,0.597-2.896,0.985l-2.148,1.074c-0.09,0-0.687,0.269-0.776,0.269c-0.298,0.12-0.089,0.12-0.388,0.12h-0.09
			c-0.089,0-0.328-0.179-0.328-0.298V22.175z M128.972,3.969c0.567,0.269,0.776,0.388,0.776,1.045c0,0.388-0.328,0.895-0.388,1.283
			c0,0.597-0.12,3.432-0.12,4c0,0.089-0.089,0.865-0.089,1.044c-0.12,0.507-0.299,1.493-0.955,1.552
			c-1.492,0.119-2.955,0.328-4.298,0.626c-0.478,0.09-0.866,0.478-1.373,0.478c-0.269,0-0.388-0.089-0.567-0.269
			c0-0.209-0.09-1.224-0.09-1.403v-0.269c0.179-1.164,0.478-2.149,0.478-3.313c0-0.388,0-1.015-0.089-1.283
			c0-0.12-0.298-0.567-0.388-0.776l-0.119-0.12l-0.09-0.179V6.118l-0.298-0.328V5.73c0-0.329,0.209-0.985,0.388-1.104h0.507
			c0.388,0,0.865-0.179,1.253-0.269c0.089,0,1.164-0.119,1.253-0.119l0.388-0.06c0.388,0,1.88-0.209,2.06-0.209H128.972z
			 M127.689,10.505c-1.075,0-1.94,0.06-3.015,0.269c-0.298,0.119-0.866,0.179-1.164,0.388c-0.209,0.12-0.209,0.508-0.209,0.687
			c0,0.09,0.12,0.478,0.298,0.478c0.776,0,1.463-0.269,2.149-0.388c0.089,0,0.656-0.09,0.776-0.09c0.179,0,0.895-0.179,0.955-0.179
			c0.119-0.12,0.209-0.209,0.209-0.329V10.505z M123.69,6.178c0,0.328,0,0.597,0.209,0.776h0.388c0.955,0,1.94-0.269,2.925-0.448
			l0.478-0.12c0.179-0.089,0.179-0.388,0.179-0.597V5.521c-0.388-0.179-1.074-0.179-1.552-0.179h-0.089l-0.388,0.06
			c-0.089,0-0.776,0.12-0.866,0.12c-0.209,0-0.896,0.209-0.985,0.209s-0.298,0.179-0.298,0.179V6.178z M127.868,7.849
			c-1.343,0-2.805,0.089-4.059,0.597c-0.119,0.388-0.119,0.896-0.119,1.283c1.164,0,2.447-0.328,3.611-0.597
			c0.119,0,0.388-0.119,0.388-0.119c0.119-0.06,0.179-0.269,0.179-0.388V7.849z M126.316,18.772c0,0.12,0,0.179,0.089,0.299h0.896
			c0.179,0,1.074-0.179,1.283-0.179c0.06-0.12,0.179-0.209,0.179-0.328v-0.567c0-0.507-0.119-0.985-0.179-1.492
			c-0.119-0.179,0-0.567-0.328-0.657h-0.388c-0.448,0-1.253,0-1.462,0.597c0,0.269-0.089,1.85-0.089,2.119V18.772z M131.569,18.683
			c0.567,0,0.567-0.896,0.687-1.283c0.209-0.687,0.269-1.463,0.269-2.119c-0.657,0-1.433,0-2.208,0.179
			c-0.12,0-0.388,0.209-0.388,0.388v2.835H131.569z M131.867,12.505c-0.119,0.12-0.388,0.597-0.507,0.716
			c-0.179,0.12-0.179,0.12-0.388,0.12c-0.269,0-0.388-0.239-0.447-0.448c0.955-1.731,1.433-3.671,1.433-5.73V6.178
			c0-0.06-0.209-0.388-0.269-0.448L131.3,5.401l-0.209-0.179v-0.09c0.089-0.179,0.269-0.895,0.388-0.955
			c0.597-0.209,1.164-0.328,1.761-0.388c0.269,0,0.835,0,1.164-0.209c0.298,0,1.851-0.12,2.119-0.12h0.776
			c0.716,0,2.268-0.179,2.268,0.896c0,0.597-0.388,1.044-0.507,1.552c-0.089,0.478-0.209,1.045-0.209,1.552
			c0,0.985,0.12,1.94,0.12,2.925v1.284c-0.12,0.388-0.298,0.955-0.776,0.955c-0.299,0-0.567-0.179-0.567-0.508V9.908
			c-0.119,0-0.776-0.119-0.985-0.119h-0.119c-0.776,0.209-1.612,0.119-2.507,0.209c0,0-0.507,0.119-0.597,0.119
			c-0.12,0-0.507,0.06-0.507,0.06s-0.06,0.12-0.06,0.209c-0.328,0.776-0.507,1.284-0.895,2.06L131.867,12.505z M134.404,15.072
			c0,0-0.209,0.089-0.209,0.209c-0.298,0.388-0.388,0.776-0.567,1.224c0,0.119-0.328,0.776-0.328,0.896
			c-0.06,0.269-0.269,0.597-0.269,0.895c0,0.09,0,0.209,0.089,0.209h1.97c0,0,0.209-0.209,0.209-0.328
			c0.269-0.687,0.388-1.731,0.388-2.507v-0.507c0-0.089-0.209-0.209-0.328-0.209L134.404,15.072z M137.031,4.625
			c-0.896,0-1.671,0.12-2.567,0.209c-0.06,0-0.776,0.119-0.836,0.119c-0.328,0.179-0.388,0.388-0.388,0.657
			c0,0.298,0,0.507,0.179,0.567h0.865c0.12,0,1.015-0.06,1.075-0.06c0.985-0.119,2.059,0.179,2.447-0.895v-0.09
			c0-0.119-0.119-0.388-0.119-0.507H137.031z M133.42,8.834h0.269c1.283,0,2.447-0.269,3.73-0.269l0.209-0.12V6.953h-0.716
			c-0.06,0-1.343,0.119-1.433,0.119h-0.298c-0.388,0.09-0.716,0.209-1.104,0.269c-0.06,0-0.448,0.12-0.567,0.12
			c-0.089,0-0.269,0.209-0.269,0.269v0.896L133.42,8.834z"/>
	</g>
	<g>
		<path d="M10.774,18.483v-0.716c0-0.06-0.269-0.06-0.269-0.06c-2.268,0-5.163,0.448-7.223,1.343l-1.552,0.776l-0.09,0.12
			c0,0-0.687,0.089-0.955,0.089H0.567C0.299,20.036,0,19.438,0,19.14c0-0.209,0.299-0.597,0.388-0.865
			c0-0.12,0.179-0.388,0.179-0.388c0.119-0.119,0.507-0.179,0.507-0.179c1.433-0.328,2.984-0.507,4.537-0.716l0.388-0.06
			c1.164-0.209,2.239-0.209,3.403-0.328l0.328-0.06c0.06,0,0.776-0.119,0.955-0.119l0.089-0.089v-1.463l-0.089-0.119h-0.298
			c-0.597,0-1.254,0.119-1.821,0.209c-0.597,0.089-1.104,0.418-1.671,0.418H6.775l-0.388-0.209c-0.388-0.12-0.955-0.12-0.955-0.687
			v-0.12c0-0.089,0.298-0.657,0.298-0.776c0.09-0.179,0.179-0.776,0.179-0.866v-1.462L5.82,11.171l-0.09-0.209
			c-0.209-0.209-0.597-0.269-0.597-0.597c0-0.447,0.209-0.656,0.388-1.044C5.611,9.202,5.73,9.142,5.91,9.142l2.656-0.328
			c0.06,0,0.567-0.06,0.657-0.06h0.896l0.179,0.06h0.09l0.179-0.06c0.329-0.12,0.388,0.06,0.388-0.329
			c0-0.269-0.06-1.044-0.269-1.224H9.909c-0.776,0-1.671,0.06-2.447,0.179L7.074,7.47H6.596c-0.298,0-0.776,0-0.776-0.478
			c0,0,0.298-0.417,0.388-0.507c0.388-0.388,3.402-0.298,4.179-0.507l0.119-0.06c-0.119-0.716,0.06-1.164,0.776-1.164
			c0.656,0,1.224,0.388,1.164,1.164c0.448,0,2.507,0.06,3.015,0.06c0.089,0,0.478,0.12,0.597,0.12c0.388,0,0.388-0.12,0.388,0.269
			c0,0.328-0.119,0.626-0.388,0.716c-0.209,0-0.896,0.119-1.015,0.119h-2.805c-0.12,0.388-0.179,0.657-0.179,1.045v0.298l0.06,0.089
			c0.12,0,0.328,0.12,0.388,0.12h1.492c0.06,0,1.224,0.06,1.343,0.06h0.896l0.09-0.06h0.687c0,0,0.269,0.179,0.388,0.269
			c0.09,0.119,0.388,0.388,0.388,0.388v0.12c0,0.269-0.179,0.448-0.298,0.776v2.03c0,0.089,0.119,0.388,0.119,0.478v0.388
			c0,1.075-0.896,0.687-1.373,1.462h-3.999l-0.12,0.209c0,0.09-0.06,0.299-0.06,0.299v1.164l0.06,0.089
			c0.12,0.119,0.507,0.179,0.507,0.179l0.209-0.06h0.06c0.12,0,1.164,0.06,1.284,0.06h0.089c0.119,0,0.507-0.06,0.567-0.06h1.791
			c0.089,0,0.388,0.06,0.478,0.06c1.283,0.119,2.447,0,3.671,0.119c0.12,0,0.896,0.09,0.985,0.09h1.343
			c0,0.119-0.06,0.567-0.06,0.686c0,0-0.12,0.209-0.209,0.269c-0.687,0.716-1.284,1.104-2.239,1.283
			c-0.089,0-0.388,0.089-0.478,0.089h-0.119l-0.179-0.089c-0.089-0.12-0.478-0.179-0.478-0.179
			c-2.059-0.597-4.119-0.985-6.118-0.985h-0.896l-0.089,0.089v0.687c0,1.104,0.089,2.06,0.089,3.044
			c0,0.567-0.209,1.552-0.985,1.552c-0.657,0-0.836-0.776-0.836-1.373C10.506,20.812,10.774,19.647,10.774,18.483z M1.642,6.874
			C1.851,6.366,2.03,5.918,2.03,5.321c0-0.567-0.388-1.074-0.388-1.671c0-0.269,0.298-0.388,0.478-0.388
			c0.12,0,0.388-0.06,0.388,0.119h1.074c1.552-0.119,3.194-0.298,4.775-0.388H9.79c0.12,0,0.597-0.12,0.716-0.12h7.104
			c0,0,1.224,0.12,1.731,0.209c0.09,0,0.597,0.119,0.657,0.119c0.209,0,0.896,0.06,1.104,0.06c0.269,0.209,0.388,0.597,0.447,0.895
			c0.388,1.045,0.776,1.94,0.776,3.104c0,0.985-0.448,1.761-1.552,1.761c-0.567,0-0.567-0.776-0.567-1.253V7.59l0.119-0.12
			c0.06-0.388,0.06-0.716,0.06-0.985c0-1.074,0.119-2.059-1.045-2.238c-0.388,0-1.94-0.09-2.328-0.09
			c-0.179,0-0.896-0.119-0.955-0.119h-5.88c-0.06,0-0.776,0.119-0.955,0.119H8.178c-0.119,0-0.806,0.09-0.895,0.09H6.596
			L6.298,4.366c-0.09,0-1.164,0.06-1.254,0.06c-0.089,0-0.597,0.119-0.687,0.119c-0.179,0-0.776,0.089-0.865,0.269
			c-0.209,1.164,0,2.269-0.478,3.343c0,0.09-0.12,0.209-0.12,0.209c-0.089,0.06-0.567,0.567-0.656,0.657
			C2.03,9.202,1.94,9.202,1.731,9.202H1.552C1.164,9.022,1.075,8.634,1.075,8.247C1.075,7.769,1.462,7.381,1.642,6.874z
			 M7.372,10.574l0.09,0.179c0,0.12,0.089,0.507,0.089,0.627h0.507c0.687,0,1.462-0.209,2.119-0.209h0.597
			c0.179,0,0.179-0.597,0.179-0.806c0-0.06,0-0.388-0.06-0.447h-0.597c-0.687,0-2.507,0-2.925,0.567V10.574z M7.67,13.887h0.12
			l0.179-0.089c0.089,0,0.865-0.09,1.164-0.09h0.269c0.388,0,1.373-0.208,1.373-0.208v-1.254h-0.656
			c-0.329,0-1.552,0.179-1.761,0.179c-0.119,0-0.507,0.209-0.567,0.209c-0.12,0.298-0.239,0.687-0.239,1.074
			C7.551,13.798,7.551,13.887,7.67,13.887z M8.447,6.485l0.298-0.119h-0.12C8.566,6.366,8.447,6.366,8.447,6.485z M12.506,12.037
			c-0.06,0-0.448,0.119-0.448,0.298v1.074h1.94c0.448,0,1.552-0.089,1.552-0.089l0.12-0.12v-0.955c0-0.089-0.627-0.089-0.836-0.208
			H12.506z M12.118,10.962h3.731v-0.866c0-0.298-2.358-0.298-2.835-0.298c-0.298,0-0.507,0-0.776,0.12
			C12.118,10.187,12.118,10.574,12.118,10.962z"/>
		<path d="M29.333,10.873l-0.089-0.299v-0.089c0-0.12,0.507-0.776,0.597-1.015c0.12-0.06,0.299-0.448,0.388-0.567
			c1.462,0,2.626,0,4.059-0.089c0.119,0,0.597-0.119,0.716-0.119h0.776l0.06,0.119c0,0.896-1.731,1.761-2.328,2.269
			c-0.567,0.567-1.94,1.94-2.716,1.94c-0.567,0-1.283-0.388-1.462-0.866V10.873z M33.063,17.23c0-1.283,2-1.671,2.895-2.179
			l0.089-0.06c0.567-0.507,1.284-0.716,1.851-1.284c0.388-0.388,0.328-0.776,0.388-1.283c0.119-0.388,1.373-0.567,1.761-0.567
			c0.687,0,0.896,0.478,0.896,1.074c0.448,0,1.164,0,1.612,0.09c0.716,0.089,1.283,0.478,1.88,0.686
			c0.657,0.269,1.075,0.478,1.731,0.955c0.388,0.329,0.716,0.388,0.895,0.896c0,0.09,0.209,0.478,0.209,0.597v0.06l-0.209,0.12
			c-0.119,0-0.388,0.328-0.507,0.328c-0.06,0-1.044,0.06-1.164,0.06c0,0-0.388,0.328-0.567,0.388
			c-0.776,0.507-1.492,1.104-2.328,1.492c-0.119,0.06-0.507,0.179-0.597,0.179h-3.015l-2.537-0.567
			c-0.955-0.209-1.94-0.209-2.896-0.209C33.063,17.887,33.063,17.499,33.063,17.23z M37.003,16.424c0.12,0,0.507,0.239,0.627,0.239
			c0.089,0,0.776,0.179,0.985,0.179c0.179,0,0.657,0.089,0.776,0.089h0.776c1.164,0,2.775-0.089,3.492-1.164
			c0.06-0.209,0.06,0,0.06-0.328v-0.06c-0.06-0.209-0.776-0.896-0.955-0.985c-0.208-0.209-0.388-0.209-0.656-0.298
			c-0.12-0.119-0.716-0.298-0.776-0.388c-0.119,0-0.388-0.298-0.507-0.298h-0.089c-0.298,0-0.776,0.776-1.075,1.075
			c-0.656,0.507-1.373,1.074-2.149,1.343c-0.119,0.12-0.686,0.209-0.686,0.388C36.824,16.335,36.824,16.335,37.003,16.424z
			 M43.45,8.813V7.53c0,0,0.269-0.179,0.388-0.179h0.089c1.075,0.567,2.835,0.687,4,0.687h2.06c0.447,0,2.597,0.089,3.104,0.089
			c0.089,0,0.388,0.12,0.388,0.179c0,0.507-0.716,0.896-0.985,1.104c-0.687,0.388-1.343,0.508-2.119,0.687l-0.209,0.09
			c-0.955,0.388-1.94,0.507-2.895,0.687c-0.716,0.209-1.492,0.269-2.179,0.269h-0.657c-0.388-0.388-1.164-1.433-1.164-1.94
			C43.271,9.022,43.271,8.903,43.45,8.813z"/>
		<path d="M59.979,11.708c-0.507,0.209-1.074,0.329-1.582,0.388c-0.657,0.209-1.373,0.388-2.149,0.388
			c-0.567,0-0.955-0.447-0.955-1.164c0-0.06,0-0.269,0.119-0.269c0.448-0.119,0.955-0.179,1.433-0.298
			c0.776-0.209,1.671-0.388,2.448-0.597c0.298-0.06,0.567-0.179,0.865-0.269c0.209-0.119,1.761-0.388,1.94-0.507
			c0.09,0,0.597-0.179,0.687-0.269V8.993c0-0.269-1.552-0.179-1.552-0.687c0-0.209,0.179-0.478,0.388-0.478h1.343l0.209-0.12h0.089
			l0.09,0.12c0.507,0.089,0.895,0.209,1.283,0.209c0.657,0,0.478-0.776,1.433-0.776c0.209,0,0.298,0.179,0.298,0.388
			c0,0.179-0.089,0.388-0.089,0.567v0.208c0.298,0.12,1.761,0.567,2.029,0.687c0.12,0,0.388,0.269,0.508,0.269l0.388,0.12
			c0.478,0.209,0.866,0.478,1.253,0.985v0.06c0,0.329-0.865,0.716-1.044,0.716c-0.507,0-0.896-0.388-1.283-0.597
			c-0.597-0.299-1.284-0.507-1.851-0.687c-0.09,0-0.776-0.269-0.866-0.269c-0.119,0-0.507-0.12-0.507-0.12s-0.269,0.12-0.388,0.12
			l-0.09,0.06c-0.478,0.328-1.343,0.716-1.94,0.896c-0.478,0.209-1.075,0.478-1.552,0.656c-0.089,0-0.776,0.329-0.865,0.329
			L59.979,11.708z M58.308,20.991c0.597-0.298,1.283-0.12,1.94-0.298c0.208,0,1.373-0.478,1.671-0.597
			c0.269-0.06,0.955-0.388,1.164-0.657c0.089-0.179,0.478-0.776,0.567-0.895c0.089-0.06,0.209-0.388,0.209-0.388
			c0-0.06-0.12-0.687-0.12-0.776c-1.164,0-2.417,0.269-3.582,0.507c-0.687,0.089-1.373,0.657-2.149,0.657
			c-0.478,0-0.656-0.388-0.656-0.776c0-0.299,0-0.388,0.179-0.567c0.209-0.209,0.776-0.716,0.776-0.716
			c0.089,0,0.985-0.06,1.044-0.06c0.119,0,0.626-0.12,0.716-0.12c0.179,0,1.851-0.089,2.029-0.089c0.09,0,0.388-0.12,0.478-0.12
			c0.209,0,0.985-0.06,1.164-0.06v-0.209c0-0.388-0.478-0.895-0.776-1.074c-0.179-0.209-0.388,0-0.388-0.388
			c0-0.388,0.776-0.478,1.075-0.478c0.478,0,0.776,0.388,0.985,0.776l0.478,1.164l0.179,0.209h3.791c0.209,0,0.209,0.06,0.209,0.179
			v0.089c-0.09,0.12-0.388,0.567-0.388,0.567c-0.209,0.119-0.866,0.507-0.985,0.507h-2.507c-0.119,0-0.298,0.089-0.298,0.089
			l-0.089,0.507c-0.12,0.299-0.209,0.687-0.388,0.955c-0.209,0.329-0.209,0.716-0.388,0.985c-0.208,0.388-0.686,0.896-0.985,1.164
			c-0.687,0.776-1.731,1.463-2.806,1.463c-0.388,0-0.388,0-0.686-0.12c-0.179-0.06-0.866-0.269-0.866-0.269
			c-0.328-0.12-0.597-0.776-0.597-1.075V20.991z M57.74,7.709c0-0.388,0-0.835,0.388-1.044c0.06,0,0.657-0.12,0.776-0.12
			c1.074-0.06,1.731-0.269,2.806-0.656c0.089,0,0.298-0.179,0.388-0.179C62.008,5.59,61.799,5.5,61.71,5.5
			c-0.776-0.298-1.343-0.567-1.343-1.462c1.164,0,2.328,0.687,3.492,0.687h0.179c0.865-0.298,1.164-1.075,2.148-1.075
			c0.388,0,0.388,0.388,0.388,0.687v0.388c-0.209,0.089-0.507,0.209-0.687,0.388l0.09,0.09c0.298,0.119,1.671,0.298,1.94,0.388
			c0.597,0.12,2.328,0.567,2.716,0.955c0.12,0.12,0.12,0.209,0.12,0.388c0,0.507-0.179,0.716-0.687,0.716
			c-1.045,0-1.94-0.209-3.015-0.597l-1.851-0.567c-0.089,0-0.686-0.328-0.776-0.328h-0.478c-0.089,0-0.597,0.328-0.776,0.388
			l-0.089,0.12c-1.463,0.776-2.925,1.552-4.686,1.552h-0.388L57.74,8.038V7.709z M64.903,14.753c0.12-0.09,0.388-0.478,0.507-0.597
			c0.09-0.06,0.388-0.448,0.388-0.448c0.089-0.119,0.388-0.507,0.388-0.597v-0.119c-0.298,0-0.597-0.12-0.776-0.179h-2.149
			c-0.089,0.06-0.687,0.298-0.776,0.298c-0.478,0.209-1.253,0.388-1.731,0.388h-0.299l-0.089-0.299c0-0.328,0.269-0.507,0.478-0.597
			c0.298-0.179,1.343-0.687,1.552-0.776l0.388-0.12l0.179-0.06h2.626c0,0,0.597,0.06,0.776,0.179c0.09,0,1.104,0.388,1.164,0.388
			c0.209,0.09,0.507,0,0.597,0.209c0.119,0.179,0.179,0.269,0.179,0.448c0,0.239-0.06,0.12-0.179,0.239l-0.09,0.209
			c0,0-0.507,0.388-0.687,0.448c-0.597,0.388-1.462,1.164-2.238,1.164l-0.209-0.06V14.753z M77.946,17.648
			c-0.209-0.179-1.373-1.343-1.552-1.552c-0.209-0.179-0.209-0.179-0.388-0.179c-0.269,0-0.269,0.119-0.657,0.119l0.06,0.179
			l-0.179,0.089c-0.208,0.299-1.373,1.463-1.671,1.671c-0.209,0.179-0.597,0.299-0.776,0.567c-0.269,0.209-1.433,0.985-1.761,1.164
			c0,0-0.567,0.208-0.776,0.328c-0.269,0.06-0.179,0.06-0.448,0.06h-0.12c-0.089,0-0.478-0.269-0.597-0.269
			c-0.06-0.119-0.388,0-0.448-0.179c-0.12-0.119-0.329-0.597-0.329-0.716v-0.06c0-0.119,0-0.209,0.12-0.209
			c0.597-0.179,1.044-0.388,1.642-0.567c0.119,0,0.895-0.448,1.074-0.507c0.09,0,0.388-0.209,0.388-0.209
			c0.089,0,0.388-0.179,0.478-0.298c0.119,0,0.507-0.388,0.567-0.388c0.12,0,0.507-0.269,0.597-0.269
			c0.388-0.209,1.552-0.985,1.552-1.373c0-0.776-2.208-1.552-2.925-1.94c-0.06-0.119-0.269-0.418-0.269-0.418
			c0-0.089-0.12-0.209-0.12-0.209c0-0.06,0.209-0.269,0.329-0.269h0.567c1.164,0,1.94,0.657,2.835,1.284l0.209,0.089
			c0.06,0,0.388,0.298,0.448,0.298c0.388-0.298,0.597-0.895,0.597-1.462c0-0.388-0.209-0.716-0.269-1.104
			c0-0.269,0.269-0.447,0.567-0.447c0.657,0,0.985,0.567,0.985,1.164c0,0.567-0.209,1.164-0.388,1.731
			c-0.12,0.328-0.328,0.507-0.328,0.776c0,0.328,1.104,1.104,1.373,1.283l0.687,0.478l0.269,0.299
			c0.12,0.089,0.597,0.269,0.716,0.388c0.179,0.09,1.343,0.597,1.552,0.657c0.179,0.328,0.657,0.328,0.955,0.448
			c0.776,0.269,1.492,0.657,2.268,0.835c0,0,0.388,0.12,0.567,0.12c0.089,0,0.597,0.089,0.657,0.089
			c0.119,0,0.716,0.179,0.776,0.179c0.119,0,0.388,0.119,0.328,0.328c0,0-0.209,0.179-0.328,0.269
			c-0.836,0.687-1.821,1.343-2.985,1.343h-0.179c-0.836-0.06-1.493-0.179-2.179-0.567c-0.865-0.597-1.641-1.373-2.417-2.03
			c-0.119-0.119-0.567-0.507-0.687-0.567l-0.209-0.12L77.946,17.648z M71.35,10.097c0.06-0.119,0.657-0.716,0.776-0.776
			c0.388-0.328,0.776-0.209,1.164-0.507c0.269-0.209,1.164-1.283,1.164-1.671V7.053c0-0.179-0.119-0.896-0.119-0.896l-0.209-0.269
			v-0.12c0-0.179,0.119-0.448,0.328-0.448c0.448,0,1.343,0.388,1.462,0.836v0.507c0,0.776-0.298,1.253-0.507,1.88
			c0,0.06,0.209,0.06,0.209,0.06c0.507,0,0.955-0.06,1.462-0.179c0.985-0.208,1.94-0.328,2.985-0.328c0.776,0,1.88,0.448,1.88,1.403
			v0.269c-0.716,0.507-1.761,0.328-2.447,0.328c-0.089,0-0.776,0.06-0.865,0.06h-0.687l-0.269-0.06H77.17
			c-0.089,0-0.865-0.119-0.985-0.119c-0.835,0-1.671,0.119-2.447,0.298c-0.06,0-0.657,0.269-0.776,0.269
			c-0.179,0.12-0.776,0.329-0.836,0.329h-0.209l-0.507-0.508l-0.06-0.208V10.097z"/>
	</g>
	<g>
		<g>
			<path d="M99.92,10.729c0-0.461,0.323-0.99,0.821-1.289c0.099,0,0.423-0.207,0.473-0.207c0.274-0.161,0.423-0.391,0.647-0.529
				c0,0,0.274-0.161,0.324-0.23l0.274-0.139c0.149-0.161,0.473-0.483,0.473-0.483V7.806c-0.572-0.092-1.07-0.299-1.618-0.46
				c-0.473-0.092-1.294-0.138-1.294-0.691c0-0.207,0-0.299,0.075-0.506l0.647-0.599l0.149-0.092c0.647-0.529,1.07-1.035,1.618-1.634
				c0.099-0.092,0.099-0.092,0.274-0.092c0.373,0,0.871,0.092,0.871,0.598c0,0.392-0.498,0.529-0.821,0.737
				c-0.05,0.093-0.473,0.483-0.547,0.553l-0.423,0.299c0,0-0.149,0.139-0.149,0.23v0.069c0,0,0.323,0.139,0.423,0.139
				c0.473,0.161,1.344,0.299,1.841,0.598l0.149-0.046c0.597-0.391,1.07-0.898,1.394-1.45c0-0.392-0.747-0.898-0.747-1.128
				c0.099,0,0.423-0.161,0.498-0.161h0.1c0.647,0.093,1.394,0.254,1.941,0.599c0.149,0.161,0.149,0.553,0.149,0.691v0.253
				c0,0-0.224,0.299-0.324,0.346c-0.224,0.253-0.647,0.46-0.971,0.69l-0.149,0.161c-1.244,0.944-2.588,1.865-3.832,2.832
				c-0.05,0.092-0.324,0.23-0.324,0.299v0.092c0.498,0.138,0.822,0.138,1.394,0.138h0.647c0.224-0.138,0.647-0.299,0.97-0.368
				c0.324-0.069,0.822,0,0.822-0.368c0-0.69-0.747-0.759-0.747-0.99c0-0.138,0.149-0.207,0.323-0.299h0.996
				c0.323,0,0.398,0.23,0.647,0.391c0.323,0.208,0.821,0.369,0.821,0.806c0,0.3-0.423,0.46-0.597,0.599
				c-0.548,0.391-1.02,0.782-1.717,0.99c-0.05,0-0.373,0.138-0.473,0.138c-0.548,0.161-1.145,0.392-1.692,0.392h-0.249
				c-0.075,0-0.971-0.092-1.045-0.092c-0.324,0-1.867-0.046-2.041-0.438V10.729z M108.389,9.286c0-0.069,0.224-0.507,0.323-0.599
				c0.075-0.138,0.324-0.138,0.498-0.207c0.473-0.185,1.294-0.621,1.618-0.99l-0.099-0.093c-0.075,0-0.498-0.138-0.548-0.138
				c-0.498-0.161-0.971-0.161-1.394-0.368c-0.398-0.23-0.398-0.691-0.398-1.035V5.373c0.174-0.207,0.398-0.207,0.647-0.368
				c0.647-0.392,1.294-0.828,1.841-1.335c0,0,0.174-0.253,0.274-0.299c0.099-0.092,0.249-0.392,0.323-0.392
				c0.324,0,1.12,0.3,1.12,0.691v0.046c-0.373,0.461-0.796,0.76-1.344,0.99l-0.373,0.069c-0.149,0.093-0.149,0.3-0.323,0.392
				l-0.149,0.046c-0.075,0.092-0.398,0.392-0.498,0.46c0,0.483,1.668,0.691,1.717,0.829h0.647l1.394-1.289
				c0.075-0.046,0.324-0.345,0.398-0.438V4.706c0-0.392-0.721-0.392-0.721-0.829c0-0.069,0.174-0.161,0.224-0.161h0.423
				c0.075,0,0.647-0.046,0.722-0.046h0.149c0.423,0,0.971,0.438,0.971,0.806c0,0.23-0.05,0.438-0.224,0.599l-0.249,0.138
				c-0.971,0.852-1.941,1.68-2.986,2.44c-0.647,0.437-1.493,0.898-2.041,1.496c0.398,0.23,1.294,0.3,1.717,0.3h0.498
				c0,0,0.323-0.069,0.373-0.069c0.1,0,0.498-0.161,0.598-0.161c0.05,0,0.473-0.23,0.547-0.23c0.149-0.069,0.747-0.207,0.747-0.368
				c0-0.92-0.647-0.667-1.07-1.22l0.149-0.138c0.1-0.069,0.423-0.207,0.498-0.207l0.249,0.046c0.548,0.161,1.618,0.392,1.941,0.852
				v0.667c0,0-0.324,0.368-0.473,0.46l-0.921,0.668c-0.324,0.299-0.697,0.598-1.12,0.667c0,0-0.398,0.069-0.547,0.069
				c-0.174,0-0.174-0.069-0.324,0.092h-1.244l-0.224-0.092h-0.746c-0.647,0-1.219-0.207-1.767-0.368
				c-0.274-0.069-0.498,0-0.647-0.23c-0.174-0.207-0.174-0.207-0.174-0.437V9.286z"/>
		</g>
		<path d="M114.823,12.214c-0.245-0.062-0.354,0-0.544-0.124h-1.806c-0.353,0-1.767,0.124-2.12,0.124
			c-0.435,0.143-0.952,0.143-1.523,0.267c-0.19,0.061-0.19,0.329-0.19,0.411c0,0.596,0.353,0.329,0.544,0.658l0.109,0.329
			c0.163,0.411,0.163,0.884,0.272,1.275c0,0.617-0.109,1.152-0.109,1.749c0,0.349,0,0.617,0.109,0.966v3.8
			c-0.109,0.412-0.163,0.802-0.163,1.214v0.123c0,0.144,0.163,0.617,0.245,0.679c0,0.082,0.109,0.082,0.163,0.082
			c0.19,0,0.299-0.082,0.354-0.144c0.462-0.206,0.897-0.391,0.897-0.884v-0.185c0-0.35-0.082-1.275-0.082-1.337
			c0-0.082-0.109-0.288-0.109-0.349v-2.422c0-0.041,0.109-0.185,0.109-0.267c0-0.041,0.082-0.309,0.082-0.391
			c0,0,0.272-0.144,0.353-0.144c0.517-0.185,1.169-0.308,1.686-0.535c1.251-0.534,2.893-2.612,2.893-3.825
			C115.992,12.748,115.448,12.419,114.823,12.214z M114.242,14.168c0,0-0.391,0.564-0.5,0.688c-0.408,0.678-0.29,1.184-1.16,1.451
			c-0.109,0-0.707,0.185-0.816,0.185c-0.081,0-0.245,0.144-0.354,0.144l-0.081,0.083c-0.109,0-0.272,0.123-0.272,0.123h-0.082
			l-0.109-0.206c0-0.267-0.054-1.604-0.054-1.872c0-0.061-0.109-0.884-0.109-0.946c0-0.061,0.109-0.473,0.109-0.534
			c0.245-0.268,0.761-0.062,1.115-0.268h1.398l0.788,0.144c0.163,0,0.272,0.268,0.272,0.391
			C114.388,13.818,114.432,13.962,114.242,14.168z"/>
		<path d="M106.241,12.455c-0.152,0.316,0.047,0.515,0.047,0.54c0,0.082,0.081,0.35,0.081,0.411v0.556l-0.081,0.185
			c0,0.082-0.109,0.802-0.109,0.884c-0.055,0.719-1.169,0.658-1.876,0.843c-0.598,0.144-1.305,0.349-1.93,0.493h-0.081
			c-0.109,0-0.109-0.061-0.109-0.144v-0.082l0.109-0.185c0-0.082,0.19-0.391,0.19-0.473c0.163-0.411,0.245-0.72,0.353-1.131V14.27
			l-0.109-0.308c-0.082-0.35-0.082-0.761-0.435-1.029c-0.163-0.061-0.87-0.205-1.06-0.205h-0.163c-0.462,0-0.816,0.411-0.816,0.74
			c0,0.062-0.081,0.226,0.109,0.267c0.245,0.083,0.353,0.083,0.516,0.227l0.19,0.185c0.054,0.082,0.163,0.267,0.163,0.267v1.275
			c0,0-0.109,0.185-0.163,0.267c-0.109,0.062-0.462,0.35-0.544,0.411c-0.272,0.206-1.767,0.741-1.767,1.008v0.062
			c0,0.123,0.081,0.658,0.081,0.802c0.109,0.124,0.163,0.124,0.272,0.124c0.707,0,1.305-0.309,1.957-0.452l0.354-0.083
			c0.054,0,0.761-0.308,0.87-0.308c0.897-0.35,1.604-0.535,2.474-0.884c0.354-0.144,0.816-0.535,1.251-0.535v0.391
			c0,0.267-0.19,0.493-0.245,0.761c-0.462,1.069-0.924,1.995-2.066,2.756c-0.272,0.185-0.625,0.267-0.87,0.391
			c0,0-0.299,0.144-0.353,0.144c-1.006,0.308-1.957,0.534-2.936,0.658c-0.598,0.061-1.359,0.143-1.957,0.185v0.164
			c0,0.267,0.081,0.864,0.354,0.987c0.353,0.267,0.653,0.35,1.169,0.35c1.604,0,3.072-0.658,4.132-1.502
			c0.109-0.042,1.06-0.72,1.169-0.802c0.353-0.185,0.788-0.535,1.06-0.843c0.299-0.35,0.462-0.679,0.652-1.029
			c0.87-1.728,1.06-3.496,1.224-5.368c0-0.083,0.081-0.35,0.081-0.473c0-0.028,0.004-0.234-0.012-0.36
			C107.358,12.034,106.462,11.996,106.241,12.455z"/>
		<g>
			<path d="M98.683,6.744c-0.921,0.227-2.276,0.159-3.389,0.265c-0.079,0-1.032,0.079-1.112,0.079
				c-0.424,0.107-0.953,0.265-1.297,0.45L92.62,7.591v0.291c0.106,0.503,0.265,0.847,0.344,1.376c0.106,0,0.265,0.107,0.344,0.107
				c0.609,0,1.138-0.185,1.642-0.185h0.529c0.238,0,1.377-0.106,1.615-0.106c0.344,0,0.609,0.344,0.609,0.688
				c0,0.45-0.159,0.636-0.265,0.98c-0.08,0.397-0.159,0.767-0.159,1.297v6.408c0.079,0.159,0.079,0.502,0.079,0.688v0.398
				c0,0.185-0.609,0.979-0.688,0.979h-0.079c-0.08-0.106-0.609-0.635-0.689-0.688c0,0-0.185-0.529-0.185-0.689v-0.185
				c0-0.264,0.185-0.609,0.265-0.847c0-0.106,0.079-0.344,0.079-0.344v-1.085c0-0.053-0.159-0.053-0.238-0.053
				c-0.344,0-1.138,0.344-1.483,0.502c-0.079,0-0.768,0.45-0.847,0.45l-0.344,0.08c-0.767,0.264-1.721,0.688-2.409,1.138h-0.106
				c-0.238,0-0.529-0.185-0.688-0.344v-0.636c0-0.238,0-0.609,0.106-0.953c0.159-0.08,0.741-0.689,0.847-0.874
				c0.079-0.053,0.344-0.688,0.45-0.847c0.079-0.185,0.238-1.138,0.238-1.297v-2.594c0-0.159-0.079-1.192-0.079-1.377
				c0-0.609,0-1.482-0.53-1.933l-0.344-0.238l-0.079-0.106V7.248c0-0.159,0-0.238,0.079-0.398c0.159-0.185,0.344-0.45,0.609-0.529
				c0.106,0,0.265-0.106,0.344-0.106c0.106,0,0.688-0.053,0.794-0.053l0.159-0.107c0.079,0,0.609-0.079,0.688-0.079
				c0.265,0,4.458-0.854,5.235-0.78c0.776,0.074,1.257,0.074,1.294,0.517C99.794,6.158,99.604,6.518,98.683,6.744z M92.62,15.745
				c0,0.08,0.265,0.238,0.344,0.345h0.106c0.344,0,0.583-0.107,0.847-0.159l0.344-0.185l0.344,0.08c0.08,0,0.53-0.238,0.609-0.238
				c0.265-0.106,0.847,0,0.953-0.45c0-0.185,0.079-0.953,0.079-1.033c0-0.106-0.079-0.45-0.079-0.529h-0.609
				c-0.874,0-1.721,0.185-2.489,0.424c-0.106,0-0.185,0.106-0.265,0.185c0,0.424-0.185,0.874-0.185,1.298V15.745z M92.885,12.807
				c1.033-0.08,2.409-0.609,3.362-1.112c0.079,0,0.265-0.556,0.265-0.609c0-0.291,0-0.873-0.344-0.873h-0.185l-0.265,0.079h-0.688
				c-0.079,0-0.767,0.159-0.847,0.159c-0.079,0-0.424,0.106-0.529,0.106c-0.159,0-0.688,0.08-0.768,0.238
				c0,0-0.079,0.185-0.079,0.291v0.609C92.806,12.118,92.806,12.463,92.885,12.807z"/>
		</g>
	</g>
</g>
</svg>
