<?xml version="1.0" encoding="utf-8"?>
<!-- Generator: Adobe Illustrator 17.0.0, SVG Export Plug-In . SVG Version: 6.00 Build 0)  -->
<!DOCTYPE svg PUBLIC "-//W3C//DTD SVG 1.1//EN" "http://www.w3.org/Graphics/SVG/1.1/DTD/svg11.dtd">
<svg version="1.1" id="Layer_1" xmlns="http://www.w3.org/2000/svg" xmlns:xlink="http://www.w3.org/1999/xlink" x="0px" y="0px"
	 width="176.677px" height="25.399px" viewBox="0 0 176.677 25.399" enable-background="new 0 0 176.677 25.399"
	 xml:space="preserve">
<g>
	<g>
		<path d="M7.939,23.99c-0.388,0-0.657,0-0.955-0.119c0-0.209-0.089-1.164-0.089-1.373c0-0.061,0.089-1.553,0.089-2.119
			c0-0.09,0.119-1.373,0.119-1.463v-3.97H6.984c-0.478,0.657-0.985,1.164-1.552,1.731c-0.657,0.687-1.254,1.373-2.03,1.851
			c0,0-0.298,0.179-0.388,0.179c-0.567,0.299-1.074,0.508-1.671,0.508H0.776c-0.209-0.119-0.507-0.389-0.597-0.508
			C0,18.438,0,18.319,0,17.931v-0.27c0.388-0.209,0.269-0.984,0.657-0.984c0.298,0,0.686,0.09,1.015,0.209h0.06l1.104-0.299
			c0.388-0.209,0.656-0.478,1.044-0.687c0.388-0.298,0.776-0.478,1.164-0.776l0.298-0.179c0.269-0.238,0.269-0.417,0.597-0.626
			c0.388-0.27,1.044-0.955,1.164-1.434c0-0.119-0.119-0.566-0.119-0.686c-0.478,0-0.985,0.179-1.433,0.298
			c-0.776,0.09-1.492,0.269-2.269,0.478c-0.06,0-0.447,0.18-0.567,0.18c-0.089,0-0.866,0.388-0.985,0.388h-0.06
			c-0.448,0-0.836-0.269-0.836-0.657c0-0.507,0.388-0.955,0.507-1.462c0.209,0,0.896-0.09,1.104-0.09
			c0.06,0,0.567-0.119,0.657-0.119c0.119,0,1.074-0.06,1.164-0.06c0.119,0,0.687-0.119,0.776-0.119c0.119,0,1.074-0.09,1.164-0.09
			c0,0,0.388-0.119,0.507-0.119c0.06,0,0.388-0.061,0.388-0.061c0.06-0.119,0.06-0.627,0.06-0.835V9.663
			c0-0.389-0.06-1.283-0.06-1.283L6.984,8.32c-0.209,0-0.985-0.119-1.164-0.119c-0.597-0.09-0.597-0.656-0.985-0.984
			c0-0.061-0.06-0.657-0.06-0.776V6.38c0-0.389,0.06-0.717,0.567-0.717c0.866,0,1.821,0.389,2.716,0.389
			c0.985,0,1.94-0.389,2.925-0.389c0.119,0,0.179,0,0.179,0.209c0,0.508-0.388,0.687-0.776,0.955
			C9.938,7.216,9.103,7.604,8.715,8.111c0,0.27-0.06,1.553-0.06,1.821v0.208c0,0.12,0.06,0.418,0.06,0.418h1.88
			c0.179-0.179,0.687-0.119,0.955-0.119h0.597c0.179,0.119,0.507,0.209,0.507,0.389v0.119c0,0.09-0.12,0.478-0.12,0.478
			l-0.269,0.179l-0.119,0.119h-0.866c-0.179,0-1.164,0.09-1.343,0.09c-0.507,0-0.895,0-1.224,0.389c0,0.179-0.06,0.895-0.06,1.074
			v0.209c0.06,0.06,0.448,0.447,0.687,0.566l0.388,0.09l0.208,0.119c0.06,0,0.448,0.18,0.567,0.18c0.089,0,0.478,0.09,0.597,0.09
			c0.06,0,0.567,0.179,0.657,0.179c0.179,0.119,0.567,0.119,0.567,0.417v0.09c-0.269,0.508-1.164,1.164-1.731,1.164h-0.269
			c0,0-0.328-0.09-0.388-0.179c-0.208-0.09-0.895-0.597-1.104-0.687H8.536v3.88c0.179,1.164,0.179,2.328,0.179,3.433v0.775
			c0,0.18-0.179,0.27-0.269,0.389H7.939z M14.774,17.065c0.478-0.865,1.044-1.731,1.044-2.806c0-0.388,0-0.775-0.179-1.104
			c-0.269-0.389-0.656-0.567-0.656-1.045c0-0.567,0.776-0.687,1.164-0.776c1.552-0.298,3.224,0,4.835-0.298h3.91
			c0.478,0,1.253,0.298,1.253,0.895c0,0.567-0.388,0.657-0.776,1.045c-0.478,0.508-0.776,1.164-0.776,1.851V16.2
			c0,0.478-0.896,0.955-1.284,1.164h-0.06c-0.209,0-0.388,0-0.597-0.09h-2.626c-0.985,0.269-2.03,0.09-2.925,0.478
			c-0.507,0.18-1.462,0.687-1.85,0.687c-0.597,0-0.597-0.776-0.597-1.164L14.774,17.065z M21.758,12.498
			c-1.343,0-2.597,0-3.88,0.269c-0.179,0-0.657,0.119-0.657,0.389c0.089,0.984,0.089,2.059,0.089,3.044
			c0.687,0,1.343-0.209,1.94-0.299c0.687-0.089,1.463-0.179,2.119-0.179c0.388,0,1.492-0.119,1.492-0.119l0.179-0.18
			c0,0,0.269-1.373,0.388-1.939c0-0.119,0.089-0.508,0.089-0.598v-0.119c0-0.179-0.209-0.269-0.478-0.269H21.758z"/>
		<path d="M42.375,23.273c0.12-1.611,0.12-3.24,0.179-4.911l0.12-0.119v-0.09l-0.12-0.179c0-0.119-0.06-0.389-0.06-0.389
			c0-0.298-0.12-1.85-0.12-2.148h-0.089c-0.896,0-1.731,0.209-2.626,0.299c-0.09,0-1.373,0.089-1.492,0.089
			c-0.179,0-1.045,0.209-1.224,0.209c-0.209,0-0.597,0.269-0.597,0.269c-0.179,0-0.179-0.09-0.388-0.09
			c-0.298,0-0.687,0.09-0.895,0.209c-0.269,0.09-1.343,0.657-1.552,0.776c-0.657,0.388-1.044,0.866-1.94,0.866
			c-0.687,0-0.776-0.688-0.776-1.254v-0.389c0,0,0.089-0.298,0.209-0.388c0.06-0.209,0.388-0.597,0.388-0.597s0.507-0.09,0.567-0.09
			c1.283-0.299,2.447-0.388,3.701-0.597c0.687-0.119,1.284-0.179,1.94-0.298c0.179,0,1.343-0.09,1.582-0.09
			c0.089,0,0.269-0.119,0.269-0.18h2.716l0.209-0.209c0-1.164,0.12-0.852,0.12-2.016c0-0.865-0.12-1.671-0.209-2.447V9.034
			c0-0.298-0.12-0.697-0.12-0.816c-0.06-0.388-0.269-0.448-0.656-0.448h-0.12c-1.343,0.061-2.716,0.061-4,0.389
			c-0.567,0.06-1.343,0.447-1.94,0.447c-0.388,0-0.567-0.269-0.567-0.775V7.56c0,0,0.298-0.507,0.388-0.566
			c0.179-0.328,0.508-0.389,0.776-0.389c1.94-0.209,3.611-0.209,5.551-0.328c0.388-0.179,0.776-0.06,1.164-0.06
			c0.298,0,2.238-0.119,2.507-0.119h1.373c0.12,0,1.015,0.119,1.075,0.119h2.149c0.119,0,0.895,0.06,1.074,0.179
			c0.269,0.09,0.478,0.389,0.478,0.598c0,0.388-0.269,0.269-0.597,0.388c-0.448,0.179-0.836,0.567-1.433,0.567
			c-1.284,0-2.507-0.18-3.791-0.18h-0.896c-0.269,0.061-0.478,0.389-0.478,0.776c0,0.179-0.119,1.085-0.119,1.474
			c-0.06,1.343-0.179,2.716-0.179,4.059v-0.998c0,0.209,0.119,0.895,0.119,0.984c0.06,0,0.776,0.119,0.836,0.119
			c0.119,0,0.716-0.119,0.776-0.119h1.791c2.417,0,4.745,0.119,7.193,0.119l0.388,0.061c0,0.328-0.209,0.388-0.298,0.507
			c-0.298,0.298-0.418,0.687-0.687,0.985c-0.388,0.388-1.283,0.686-1.731,0.686c-0.985,0-1.88-0.209-2.716-0.388
			c-1.492-0.298-3.044-0.507-4.596-0.507c-0.179,0-0.895,0.119-0.955,0.119v4.463c0,1.045,0.179,2.209,0.179,3.283v0.985
			c-0.179,0.448-0.507,0.955-0.955,0.955c-0.985,0-0.896-1.074-0.896-1.731V23.273z M39.451,11.571
			c-0.06,0.119-0.269,0.179-0.388,0.298c-0.119,0-0.388,0.209-0.388,0.209c-0.12,0-0.567,0.061-0.687,0.061
			c-1.044,0.209-2.149,0.716-3.313,0.716c-0.388,0-0.567-0.119-0.776-0.507c0.119-0.09,0.507-0.479,0.597-0.598
			c0.388-0.269,0.896-0.269,1.284-0.447c0.388-0.209,0.776-0.389,1.164-0.627c0.567-0.269,0.567-0.656,1.343-0.656h0.388l0.089,0.06
			c0.418,0.328,0.687,0.716,0.687,1.104V11.571z M47.151,10.407c0,0,0.12-0.119,0.179-0.119c0.209-0.09,0.209-0.09,0.388-0.09h0.119
			c0.776,0.209,1.433,0.269,2.208,0.269c0.597,0,1.104-0.06,1.552-0.06c0.119,0,0.776,0.06,0.776,0.269l-0.06,0.238
			c-0.896,0.836-2.149,1.553-3.492,1.553h-0.507l-1.164-1.164V10.407z"/>
	</g>
	<path d="M165.395,20.235c-2.597,0-5.253,0.388-7.879,0.776c-0.388,0.119-0.776,0.209-1.164,0.388
		c-0.478,0.209-0.985,0.209-1.433,0.388c0,0-0.597,0.328-0.776,0.388c-0.209,0.119-1.283,0.716-1.492,0.776
		c-0.179,0.328-1.075,0.716-1.463,0.716c-0.656,0-0.656-1.284-0.656-1.552c0-0.507,0.179-0.985,0.567-1.283
		c0.209-0.089,0.896-0.209,1.164-0.209c0.716-0.06,1.373-0.179,2.06-0.269c0.208,0,1.044-0.239,1.164-0.239l0.269-0.06
		c0.119,0,1.283-0.12,1.373-0.12c1.164-0.089,2.328-0.388,3.522-0.478h0.269c0.209,0,0.985-0.119,1.164-0.119
		c0.329-0.269,0.597-0.448,0.597-0.955v-0.209c0,0-0.269-0.06-0.388-0.06h-0.089c-0.955,0.06-2.06,0.179-3.015,0.388
		c-0.597,0.06-1.104,0.269-1.671,0.388l-0.269,0.06h-0.329c-0.06,0-0.179-0.179-0.179-0.179v-1.044c0,0,0.179-0.209,0.298-0.209
		c0.209-0.119,0.657-0.298,0.657-0.298h1.552c0.209-0.209,0.627-0.09,0.836-0.09c0.06,0,1.224-0.119,1.343-0.119h0.657
		c0.388,0,0.716-0.448,0.716-0.836l-0.119-0.208h-2.418c-0.507,0-1.791,0.208-1.791,0.208l-0.448,0.448h-0.119
		c-0.388,0-0.657-0.656-0.657-0.955V15.58c0.179-0.687,0.388-1.373,0.388-2.149c-0.12-0.388-0.12-0.985-0.388-1.373
		c-0.209-0.269-0.716-0.567-0.716-1.044h2.06c0.478,0,0.865-0.209,1.373-0.298c2.895-0.388,5.939-0.388,8.954-0.478
		c0-0.12,0.209-0.12,0.269-0.12h0.119c0.209,0.12,0.866,0.388,0.985,0.507c0.179,0.09,0.179,0.179,0.179,0.388
		c0,0.567-0.507,0.776-0.687,1.253c-0.269,0.776-0.597,1.462-0.656,2.417c-0.329,0.209-0.716,0.985-0.985,0.985
		c-0.299,0-0.508-0.089-0.806-0.089h-0.269c-0.12,0-0.776,0.089-0.896,0.089h-0.388c-0.597,0-1.761-0.089-1.761,0.776
		c0,0.179,0,0.298,0.329,0.388h0.776c1.164,0,2.328-0.269,3.611-0.269h0.388c0.269,0.06,0.179,0.388,0.179,0.448v0.328l-0.567,0.567
		h-0.985c-0.507,0-2.746,0.089-3.224,0.089c-0.388,0-0.567,0.298-0.567,0.687v0.269c0.06,0.119,0.388,0.209,0.448,0.209h1.104
		c1.164,0,2.328-0.209,3.492-0.209h4.179c0.089,0,0.865-0.06,0.985-0.06c0.269,0,1.462-0.12,1.731-0.12l0.119-0.089h0.657
		c0,0.388-0.089,0.865-0.269,1.253c-1.074,0.806-2.358,1.403-3.731,1.403h-0.06c-0.896-0.209-1.88-0.507-2.716-0.716
		c-0.985-0.179-2.06-0.179-3.044-0.269c-0.119,0-0.896-0.12-0.955-0.12H165.395z M152.083,9.729
		c-0.328-0.298-0.328-1.164-0.328-1.552c0-0.388,0.448-0.687,0.627-1.075c0.208-0.269,0.269-0.776,0.478-1.044
		c0.179-0.328,0.686-0.597,0.955-0.776c0.119-0.12,0.328-0.239,0.328-0.239c0.06,0,0.657-0.09,0.776-0.09
		c0.388-0.119,0.776-0.179,1.164-0.298c0.955-0.209,1.94-0.269,2.895-0.388c0.209,0,1.492-0.089,1.671-0.089
		c0.089,0,0.597-0.119,0.657-0.119c0.209,0,1.104-0.179,1.164-0.388c0-0.06,0.209-0.776,0.209-0.836V1.94l-0.09-0.09l-0.388-0.567
		V0.507C162.411,0.298,162.589,0,162.858,0h0.209l0.12,0.119c0.06,0.06,0.835,0.388,0.955,0.448c0.269,0.12,0.388,0.209,0.388,0.507
		c0,0.388-0.119,0.657-0.179,1.045c0,0.119-0.12,0.597-0.12,0.716V3.79l0.179,0.209h0.716c0.06,0,0.567-0.119,0.657-0.119
		c0.179,0,1.552,0.119,1.791,0.119c0.06,0,0.567-0.119,0.657-0.119h0.119c0.179,0,1.821,0.119,2,0.119
		c1.492,0,2.716-0.119,3.82,0.955c0,0,0.179,0.209,0.179,0.329c0.089,0.269,0.478,1.044,0.478,1.164v0.567
		c-0.209,0.985-0.657,1.552-1.433,2.149l-0.209,0.06h-0.12l-0.06-0.179l-0.329-0.089c-0.388-0.179-0.388-0.567-0.388-0.955
		c0-0.507,0.119-0.985,0.119-1.552V5.73c-0.298-0.179-0.507-0.269-0.895-0.269c-0.388-0.12-1.552-0.179-1.612-0.179h-5.551
		c-0.209,0.06-0.209,0.06-0.388,0.06c-0.209,0-0.328-0.06-0.388-0.06c-0.597,0-0.985,0.269-1.492,0.269h-1.044
		c-0.896,0-1.671,0.298-2.447,0.388c-0.12,0-0.776,0.119-0.896,0.119c-0.06,0-1.045,0.179-1.343,0.269
		c-0.209,0-1.044,0.298-1.164,0.298c-0.597,0.209-0.985,0.388-1.044,0.985c0,0.06-0.209,1.045-0.209,1.164
		c0,0.06-0.179,0.657-0.179,0.776l-0.119,0.179c-0.09,0.09-0.597,0.597-0.657,0.687h-0.328l-0.179-0.298L152.083,9.729z
		 M154.8,25.011c-0.09,0-0.269,0-0.269-0.179c0.388-0.388,0.836-0.896,1.224-1.164c0.328-0.329,0.716-0.507,0.985-0.776
		c0.298-0.388,0.119-0.597,0.687-0.716h0.089c0.388,0,1.164,0.388,1.164,0.776c0,0.328,0,0.716-0.269,0.895
		c0,0-0.716,0.388-0.985,0.597c-0.179,0.06-0.687,0.388-0.687,0.388c-0.478,0.179-1.045,0.06-1.552,0.06l-0.269,0.119H154.8z
		 M155.307,2.895c-0.12,0-0.388-0.269-0.507-0.269v-0.12l0.119-0.06c0.06,0,0.657-0.209,0.776-0.209l1.552-0.567
		c0.269-0.209,0.448-0.329,0.835-0.329h0.209c0.12,0.12,0.687,0.716,0.776,0.776c0.119,0.208,0.119,0.328,0.119,0.507
		c0,0,0.06,0.388-0.119,0.388c-0.597,0.209-1.164,0.209-1.761,0.209c-0.776,0-1.224,0-1.94-0.209L155.307,2.895z M167.753,7.879
		c-0.507,0.567-0.806,1.731-1.671,1.731c-0.388,0-0.776-0.06-1.283-0.06c-1.343,0-2.597,0.269-3.94,0.388
		c-0.328,0.299-0.776,0.299-1.283,0.299c-0.12,0-0.209,0.089-0.329-0.12c-0.06-0.179-0.179-0.567-0.179-0.776
		c0-0.388,0.179-0.776,0.179-1.164V7.999l-0.567-0.597V7.014c0-0.119,0.298-0.388,0.388-0.388h0.179c0.209,0,0.388,0,0.507,0.09
		h0.597c0.955,0,2.06-0.209,3.015-0.269c1.253-0.12,2.537-0.12,3.76-0.12h0.896c0,0,0.328,0.12,0.328,0.179v0.716l-0.119,0.06
		L167.753,7.879z M162.679,13.729c0,0-0.985,0.089-1.373,0.089c-0.657,0.09-1.552,0.09-2.238,0.299c-0.09,0-0.209,0.089-0.209,0.089
		v0.687c0,0.089,0.328,0.269,0.388,0.269h0.12c0.716-0.089,1.552-0.089,2.268-0.269l0.269-0.209h0.776
		c0.179-0.089,0.179-0.478,0.179-0.687v-0.179L162.679,13.729z M158.978,12.744c0,0.089,0.209,0.388,0.269,0.388h0.209l0.418-0.09
		c0.089,0,1.044-0.089,1.164-0.089l0.388-0.12c0.597-0.089,1.373,0.12,1.373-0.776c0,0,0-0.388-0.119-0.388h-1.761
		c-0.448,0.208-1.94,0.119-1.94,0.985V12.744z M161.127,21.608l1.284,0.567v2.656l-0.508,0.567h-0.985l-0.06-0.12
		c-0.12-0.179-0.328-0.835-0.328-0.835v-2.537c0-0.119,0.388-0.298,0.507-0.298H161.127z M164.35,7.61
		c-0.12,0-0.507,0.06-0.597,0.06c-0.955,0.119-1.851,0.328-2.835,0.328c-0.06,0.06-0.06,0.269-0.06,0.448
		c0,0.119,0,0.328,0.179,0.388h0.865c0.12,0,0.388-0.06,0.508-0.06c1.044-0.119,2.119-0.119,3.164-0.328
		c0.388-0.06,0.507-0.567,0.507-0.836H164.35z M163.962,14.386c0,0.119,0.269,0.298,0.388,0.298h1.611
		c0.329,0,1.373-0.179,1.671-0.179c0.209-0.209,0.329-0.985,0.329-1.283c-1.015,0-2.06,0.119-3.044,0.298
		c-0.119,0-0.687,0.09-0.776,0.09c0,0.119-0.179,0.597-0.179,0.686V14.386z M168.021,11.282c-1.164,0.119-2.447,0.119-3.611,0.209
		c-0.179,0.089-0.179,0.478-0.179,0.687c0,0.269,0.179,0.388,0.507,0.388c0.657,0,1.224-0.119,1.94-0.119
		c0.388,0,0.657,0.119,0.955,0.298c0.12,0.089,0.329,0.209,0.329,0.209c0.269,0,0.388-1.075,0.388-1.373v-0.179L168.021,11.282z
		 M164.738,23.847c-0.209-0.567-0.328-1.283-0.328-1.85c0-0.269,0.119-0.597,0.507-0.597h0.089c0.776,0.209,0.955,0.388,0.955,1.284
		c0,0.388,0,1.94-0.448,1.94c-0.208,0-0.507,0-0.597-0.179L164.738,23.847z M168.021,2.716c-0.567,0-0.955-0.388-0.955-0.985
		c0-0.388,0-0.388,0.06-0.776c0-0.06,0.12-0.269,0.12-0.269h2.537c0.12,0,0.776-0.299,0.896-0.299h0.06l0.209,0.179
		c0,0.597-0.388,1.373-0.865,1.671c-0.12,0-0.776,0.269-0.896,0.269l-0.179,0.12c0,0-0.657,0.089-0.865,0.089H168.021z
		 M169.185,24.056c-0.06-0.119-0.269-0.716-0.388-0.776c-0.06-0.328-0.388-0.776-0.388-0.985c0-0.119,0-0.179,0.209-0.298h0.686
		l0.388,0.298c0.089,0.089,0.478,0.269,0.597,0.388c0.388,0.269,0.657,0.478,1.045,0.776c0.507,0.388,1.283,0.478,1.283,1.164v0.269
		c0,0.119-0.328,0.328-0.388,0.328c-0.209,0-0.896,0.06-1.104,0.06l-0.269,0.12h-0.12c-0.179,0-0.179,0-0.388-0.12
		c-0.179-0.06-0.567-0.269-0.567-0.269c-0.089-0.119-0.388-0.776-0.478-0.895L169.185,24.056z"/>
	<g>
		<path d="M124.347,23.175c0-0.388,0-1.075,0.328-1.463c0,0,0.179-0.089,0.299-0.089c1.343-0.388,2.805-0.687,4.268-0.955
			c0.269-0.119,0.866-0.209,0.866-0.209l0.179-0.179v-0.597c0-0.507,0-1.194-0.09-1.671c-0.179-0.567-0.865-0.687-0.865-1.343
			c0-0.328,0.388-0.716,0.567-0.776c1.462,0.06,2.567-0.209,3.91-0.388c1.433-0.208,2.806-0.328,4.268-0.507
			c0.209,0,1.373-0.208,1.552-0.208h2.06c0.089,0,0.388-0.06,0.478-0.06h0.179c0.507,0,0.776,0.448,0.776,0.955
			c0,0.388-0.179,0.388-0.388,0.776c-0.269,0.776-0.567,1.642-0.567,2.537v0.388l0.119,0.119c0,0,1.224,0.06,1.821,0.06h1.283
			c0.06,0,0.388,0.119,0.448,0.119h2.06l0.208,0.089v0.12l-0.388,0.776c-0.12,0.179-0.329,0.179-0.507,0.388l-0.09,0.179
			c-0.179,0.209-0.776,0.478-0.955,0.597h-0.985c-1.671,0-3.223-0.597-4.835-0.776c-0.329,0-0.716,0.06-1.015-0.12h-4.149
			c-0.119,0-0.597,0.12-0.716,0.12c-0.388,0-2.328,0.269-2.716,0.269c-0.179,0.179-0.567,0.179-0.776,0.179
			c-0.955,0.208-2.03,0.597-2.896,0.985l-2.148,1.074c-0.09,0-0.687,0.269-0.776,0.269c-0.298,0.12-0.089,0.12-0.388,0.12h-0.09
			c-0.089,0-0.328-0.179-0.328-0.298V23.175z M134.405,4.969c0.567,0.269,0.776,0.388,0.776,1.045c0,0.388-0.328,0.895-0.388,1.283
			c0,0.597-0.12,3.432-0.12,4c0,0.089-0.089,0.865-0.089,1.044c-0.12,0.507-0.299,1.493-0.955,1.552
			c-1.492,0.119-2.955,0.328-4.298,0.626c-0.478,0.09-0.866,0.478-1.373,0.478c-0.269,0-0.388-0.089-0.567-0.269
			c0-0.209-0.09-1.224-0.09-1.403v-0.269c0.179-1.164,0.478-2.149,0.478-3.313c0-0.388,0-1.015-0.089-1.283
			c0-0.12-0.298-0.567-0.388-0.776l-0.119-0.12l-0.09-0.179V7.118l-0.298-0.328V6.73c0-0.329,0.209-0.985,0.388-1.104h0.507
			c0.388,0,0.865-0.179,1.253-0.269c0.089,0,1.164-0.119,1.253-0.119l0.388-0.06c0.388,0,1.88-0.209,2.06-0.209H134.405z
			 M133.122,11.505c-1.075,0-1.94,0.06-3.015,0.269c-0.298,0.119-0.866,0.179-1.164,0.388c-0.209,0.12-0.209,0.508-0.209,0.687
			c0,0.09,0.12,0.478,0.298,0.478c0.776,0,1.463-0.269,2.149-0.388c0.089,0,0.656-0.09,0.776-0.09c0.179,0,0.895-0.179,0.955-0.179
			c0.119-0.12,0.209-0.209,0.209-0.329V11.505z M129.123,7.178c0,0.328,0,0.597,0.209,0.776h0.388c0.955,0,1.94-0.269,2.925-0.448
			l0.478-0.12c0.179-0.089,0.179-0.388,0.179-0.597V6.521c-0.388-0.179-1.074-0.179-1.552-0.179h-0.089l-0.388,0.06
			c-0.089,0-0.776,0.12-0.866,0.12c-0.209,0-0.896,0.209-0.985,0.209s-0.298,0.179-0.298,0.179V7.178z M133.301,8.849
			c-1.343,0-2.805,0.089-4.059,0.597c-0.119,0.388-0.119,0.896-0.119,1.283c1.164,0,2.447-0.328,3.611-0.597
			c0.119,0,0.388-0.119,0.388-0.119c0.119-0.06,0.179-0.269,0.179-0.388V8.849z M131.749,19.772c0,0.12,0,0.179,0.089,0.299h0.896
			c0.179,0,1.074-0.179,1.283-0.179c0.06-0.12,0.179-0.209,0.179-0.328v-0.567c0-0.507-0.119-0.985-0.179-1.492
			c-0.119-0.179,0-0.567-0.328-0.657h-0.388c-0.448,0-1.253,0-1.462,0.597c0,0.269-0.089,1.85-0.089,2.119V19.772z M137.002,19.683
			c0.567,0,0.567-0.896,0.687-1.283c0.209-0.687,0.269-1.463,0.269-2.119c-0.657,0-1.433,0-2.208,0.179
			c-0.12,0-0.388,0.209-0.388,0.388v2.835H137.002z M137.3,13.505c-0.119,0.12-0.388,0.597-0.507,0.716
			c-0.179,0.12-0.179,0.12-0.388,0.12c-0.269,0-0.388-0.239-0.447-0.448c0.955-1.731,1.433-3.671,1.433-5.73V7.178
			c0-0.06-0.209-0.388-0.269-0.448l-0.388-0.329l-0.209-0.179v-0.09c0.089-0.179,0.269-0.895,0.388-0.955
			c0.597-0.209,1.164-0.328,1.761-0.388c0.269,0,0.835,0,1.164-0.209c0.298,0,1.851-0.12,2.119-0.12h0.776
			c0.716,0,2.268-0.179,2.268,0.896c0,0.597-0.388,1.044-0.507,1.552c-0.089,0.478-0.209,1.045-0.209,1.552
			c0,0.985,0.12,1.94,0.12,2.925v1.284c-0.12,0.388-0.298,0.955-0.776,0.955c-0.299,0-0.567-0.179-0.567-0.508v-2.208
			c-0.119,0-0.776-0.119-0.985-0.119h-0.119c-0.776,0.209-1.612,0.119-2.507,0.209c0,0-0.507,0.119-0.597,0.119
			c-0.12,0-0.507,0.06-0.507,0.06s-0.06,0.12-0.06,0.209c-0.328,0.776-0.507,1.284-0.895,2.06L137.3,13.505z M139.837,16.072
			c0,0-0.209,0.089-0.209,0.209c-0.298,0.388-0.388,0.776-0.567,1.224c0,0.119-0.328,0.776-0.328,0.896
			c-0.06,0.269-0.269,0.597-0.269,0.895c0,0.09,0,0.209,0.089,0.209h1.97c0,0,0.209-0.209,0.209-0.328
			c0.269-0.687,0.388-1.731,0.388-2.507v-0.507c0-0.089-0.209-0.209-0.328-0.209L139.837,16.072z M142.464,5.625
			c-0.896,0-1.671,0.12-2.567,0.209c-0.06,0-0.776,0.119-0.836,0.119c-0.328,0.179-0.388,0.388-0.388,0.657
			c0,0.298,0,0.507,0.179,0.567h0.865c0.12,0,1.015-0.06,1.075-0.06c0.985-0.119,2.059,0.179,2.447-0.895v-0.09
			c0-0.119-0.119-0.388-0.119-0.507H142.464z M138.853,9.834h0.269c1.283,0,2.447-0.269,3.73-0.269l0.209-0.12V7.953h-0.716
			c-0.06,0-1.343,0.119-1.433,0.119h-0.298c-0.388,0.09-0.716,0.209-1.104,0.269c-0.06,0-0.448,0.12-0.567,0.12
			c-0.089,0-0.269,0.209-0.269,0.269v0.896L138.853,9.834z"/>
	</g>
	<g>
		<g>
			<path d="M104.892,12.129c0-0.461,0.323-0.99,0.821-1.289c0.099,0,0.423-0.207,0.473-0.207c0.274-0.161,0.423-0.391,0.647-0.529
				c0,0,0.274-0.161,0.324-0.23l0.274-0.139c0.149-0.161,0.473-0.483,0.473-0.483V9.206c-0.572-0.092-1.07-0.299-1.618-0.46
				c-0.473-0.092-1.294-0.138-1.294-0.691c0-0.207,0-0.299,0.075-0.506l0.647-0.599l0.149-0.092c0.647-0.529,1.07-1.035,1.618-1.634
				c0.099-0.092,0.099-0.092,0.274-0.092c0.373,0,0.871,0.092,0.871,0.598c0,0.392-0.498,0.529-0.821,0.737
				c-0.05,0.093-0.473,0.483-0.547,0.553l-0.423,0.299c0,0-0.149,0.139-0.149,0.23v0.069c0,0,0.323,0.139,0.423,0.139
				c0.473,0.161,1.344,0.299,1.841,0.598l0.149-0.046c0.597-0.391,1.07-0.898,1.394-1.45c0-0.392-0.747-0.898-0.747-1.128
				c0.099,0,0.423-0.161,0.498-0.161h0.1c0.647,0.093,1.394,0.254,1.941,0.599c0.149,0.161,0.149,0.553,0.149,0.691v0.253
				c0,0-0.224,0.299-0.324,0.346c-0.224,0.253-0.647,0.46-0.971,0.69l-0.149,0.161c-1.244,0.944-2.588,1.865-3.832,2.832
				c-0.05,0.092-0.324,0.23-0.324,0.299v0.092c0.498,0.138,0.822,0.138,1.394,0.138h0.647c0.224-0.138,0.647-0.299,0.97-0.368
				c0.324-0.069,0.822,0,0.822-0.368c0-0.69-0.747-0.759-0.747-0.99c0-0.138,0.149-0.207,0.323-0.299h0.996
				c0.323,0,0.398,0.23,0.647,0.391c0.323,0.208,0.821,0.369,0.821,0.806c0,0.3-0.423,0.46-0.597,0.599
				c-0.548,0.391-1.02,0.782-1.717,0.99c-0.05,0-0.373,0.138-0.473,0.138c-0.548,0.161-1.145,0.392-1.692,0.392h-0.249
				c-0.075,0-0.971-0.092-1.045-0.092c-0.324,0-1.867-0.046-2.041-0.438V12.129z M113.361,10.685c0-0.069,0.224-0.507,0.323-0.599
				c0.075-0.138,0.324-0.138,0.498-0.207c0.473-0.185,1.294-0.621,1.618-0.99L115.7,8.797c-0.075,0-0.498-0.138-0.548-0.138
				c-0.498-0.161-0.971-0.161-1.394-0.368c-0.398-0.23-0.398-0.691-0.398-1.035V6.772c0.174-0.207,0.398-0.207,0.647-0.368
				c0.647-0.392,1.294-0.828,1.841-1.335c0,0,0.174-0.253,0.274-0.299c0.099-0.092,0.249-0.392,0.323-0.392
				c0.324,0,1.12,0.3,1.12,0.691v0.046c-0.373,0.461-0.796,0.76-1.344,0.99l-0.373,0.069c-0.149,0.093-0.149,0.3-0.323,0.392
				l-0.149,0.046c-0.075,0.092-0.398,0.392-0.498,0.46c0,0.483,1.668,0.691,1.717,0.829h0.647l1.394-1.289
				c0.075-0.046,0.324-0.345,0.398-0.438V6.105c0-0.392-0.721-0.392-0.721-0.829c0-0.069,0.174-0.161,0.224-0.161h0.423
				c0.075,0,0.647-0.046,0.722-0.046h0.149c0.423,0,0.971,0.438,0.971,0.806c0,0.23-0.05,0.438-0.224,0.599l-0.249,0.138
				c-0.971,0.852-1.941,1.68-2.986,2.44c-0.647,0.437-1.493,0.898-2.041,1.496c0.398,0.23,1.294,0.3,1.717,0.3h0.498
				c0,0,0.323-0.069,0.373-0.069c0.1,0,0.498-0.161,0.598-0.161c0.05,0,0.473-0.23,0.547-0.23c0.149-0.069,0.747-0.207,0.747-0.368
				c0-0.92-0.647-0.667-1.07-1.22l0.149-0.138c0.1-0.069,0.423-0.207,0.498-0.207l0.249,0.046c0.548,0.161,1.618,0.392,1.941,0.852
				v0.667c0,0-0.324,0.368-0.473,0.46l-0.921,0.668c-0.324,0.299-0.697,0.598-1.12,0.667c0,0-0.398,0.069-0.547,0.069
				c-0.174,0-0.174-0.069-0.324,0.092h-1.244l-0.224-0.092h-0.746c-0.647,0-1.219-0.207-1.767-0.368
				c-0.274-0.069-0.498,0-0.647-0.23c-0.174-0.207-0.174-0.207-0.174-0.437V10.685z"/>
		</g>
		<path d="M119.794,13.614c-0.245-0.062-0.354,0-0.544-0.124h-1.806c-0.353,0-1.767,0.124-2.12,0.124
			c-0.435,0.143-0.952,0.143-1.523,0.267c-0.19,0.061-0.19,0.329-0.19,0.411c0,0.596,0.353,0.329,0.544,0.658l0.109,0.329
			c0.163,0.411,0.163,0.884,0.272,1.275c0,0.617-0.109,1.152-0.109,1.749c0,0.349,0,0.617,0.109,0.966v3.8
			c-0.109,0.412-0.163,0.802-0.163,1.214v0.123c0,0.144,0.163,0.617,0.245,0.679c0,0.082,0.109,0.082,0.163,0.082
			c0.19,0,0.299-0.082,0.354-0.144c0.462-0.206,0.897-0.391,0.897-0.884v-0.185c0-0.35-0.082-1.275-0.082-1.337
			c0-0.082-0.109-0.288-0.109-0.349v-2.422c0-0.041,0.109-0.185,0.109-0.267c0-0.041,0.082-0.309,0.082-0.391
			c0,0,0.272-0.144,0.353-0.144c0.517-0.185,1.169-0.308,1.686-0.535c1.251-0.534,2.893-2.612,2.893-3.825
			C120.963,14.148,120.419,13.819,119.794,13.614z M119.213,15.568c0,0-0.391,0.564-0.5,0.688c-0.408,0.678-0.29,1.184-1.16,1.451
			c-0.109,0-0.707,0.185-0.816,0.185c-0.081,0-0.245,0.144-0.354,0.144l-0.081,0.083c-0.109,0-0.272,0.123-0.272,0.123h-0.082
			l-0.109-0.206c0-0.267-0.054-1.604-0.054-1.872c0-0.061-0.109-0.884-0.109-0.946c0-0.061,0.109-0.473,0.109-0.534
			c0.245-0.268,0.761-0.062,1.115-0.268h1.398l0.788,0.144c0.163,0,0.272,0.268,0.272,0.391
			C119.359,15.217,119.404,15.362,119.213,15.568z"/>
		<path d="M111.213,13.854c-0.152,0.316,0.047,0.515,0.047,0.54c0,0.082,0.081,0.35,0.081,0.411v0.556l-0.081,0.185
			c0,0.082-0.109,0.802-0.109,0.884c-0.055,0.719-1.169,0.658-1.876,0.843c-0.598,0.144-1.305,0.349-1.93,0.493h-0.081
			c-0.109,0-0.109-0.061-0.109-0.144v-0.082l0.109-0.185c0-0.082,0.19-0.391,0.19-0.473c0.163-0.411,0.245-0.72,0.353-1.131V15.67
			l-0.109-0.308c-0.082-0.35-0.082-0.761-0.435-1.029c-0.163-0.061-0.87-0.205-1.06-0.205h-0.163c-0.462,0-0.816,0.411-0.816,0.74
			c0,0.062-0.081,0.226,0.109,0.267c0.245,0.083,0.353,0.083,0.516,0.227l0.19,0.185c0.054,0.082,0.163,0.267,0.163,0.267v1.275
			c0,0-0.109,0.185-0.163,0.267c-0.109,0.062-0.462,0.35-0.544,0.411c-0.272,0.206-1.767,0.741-1.767,1.008v0.062
			c0,0.123,0.081,0.658,0.081,0.802c0.109,0.124,0.163,0.124,0.272,0.124c0.707,0,1.305-0.309,1.957-0.452l0.354-0.083
			c0.054,0,0.761-0.308,0.87-0.308c0.897-0.35,1.604-0.535,2.474-0.884c0.354-0.144,0.816-0.535,1.251-0.535v0.391
			c0,0.267-0.19,0.493-0.245,0.761c-0.462,1.069-0.924,1.995-2.066,2.756c-0.272,0.185-0.625,0.267-0.87,0.391
			c0,0-0.299,0.144-0.353,0.144c-1.006,0.308-1.957,0.534-2.936,0.658c-0.598,0.061-1.359,0.143-1.957,0.185v0.164
			c0,0.267,0.081,0.864,0.354,0.987c0.353,0.267,0.652,0.35,1.169,0.35c1.604,0,3.072-0.658,4.132-1.502
			c0.109-0.042,1.06-0.72,1.169-0.802c0.353-0.185,0.788-0.535,1.06-0.843c0.299-0.35,0.462-0.679,0.653-1.029
			c0.87-1.728,1.06-3.496,1.224-5.368c0-0.083,0.081-0.35,0.081-0.473c0-0.028,0.004-0.234-0.012-0.36
			C112.33,13.434,111.433,13.395,111.213,13.854z"/>
		<g>
			<path d="M103.654,8.144c-0.921,0.227-2.276,0.159-3.389,0.265c-0.079,0-1.032,0.079-1.112,0.079
				c-0.424,0.107-0.953,0.265-1.297,0.45l-0.265,0.053v0.291c0.106,0.503,0.265,0.847,0.344,1.376c0.106,0,0.265,0.107,0.344,0.107
				c0.609,0,1.138-0.185,1.642-0.185h0.529c0.238,0,1.377-0.106,1.615-0.106c0.344,0,0.609,0.344,0.609,0.688
				c0,0.45-0.159,0.636-0.265,0.98c-0.08,0.397-0.159,0.767-0.159,1.297v6.408c0.079,0.159,0.079,0.502,0.079,0.688v0.398
				c0,0.185-0.609,0.979-0.688,0.979h-0.079c-0.08-0.106-0.609-0.635-0.689-0.688c0,0-0.185-0.529-0.185-0.689v-0.185
				c0-0.264,0.185-0.609,0.265-0.847c0-0.106,0.079-0.344,0.079-0.344v-1.085c0-0.053-0.159-0.053-0.238-0.053
				c-0.344,0-1.138,0.344-1.483,0.502c-0.079,0-0.768,0.45-0.847,0.45l-0.344,0.08c-0.767,0.264-1.721,0.688-2.409,1.138h-0.106
				c-0.238,0-0.529-0.185-0.688-0.344V19.21c0-0.238,0-0.609,0.106-0.953c0.159-0.08,0.741-0.689,0.847-0.874
				c0.079-0.053,0.344-0.688,0.45-0.847c0.079-0.185,0.238-1.138,0.238-1.297v-2.594c0-0.159-0.079-1.192-0.079-1.377
				c0-0.609,0-1.482-0.53-1.933l-0.344-0.238l-0.079-0.106V8.647c0-0.159,0-0.238,0.079-0.398c0.159-0.185,0.344-0.45,0.609-0.529
				c0.106,0,0.265-0.106,0.344-0.106c0.106,0,0.688-0.053,0.794-0.053l0.159-0.107c0.079,0,0.609-0.079,0.688-0.079
				c0.265,0,4.458-0.854,5.235-0.78c0.776,0.074,1.257,0.074,1.294,0.517C104.766,7.557,104.576,7.917,103.654,8.144z
				 M97.592,17.145c0,0.08,0.265,0.238,0.344,0.345h0.106c0.344,0,0.583-0.107,0.847-0.159l0.344-0.185l0.344,0.08
				c0.08,0,0.53-0.238,0.609-0.238c0.265-0.106,0.847,0,0.953-0.45c0-0.185,0.079-0.953,0.079-1.033c0-0.106-0.079-0.45-0.079-0.529
				h-0.609c-0.874,0-1.721,0.185-2.489,0.424c-0.106,0-0.185,0.106-0.265,0.185c0,0.424-0.185,0.874-0.185,1.298V17.145z
				 M97.857,14.207c1.033-0.08,2.409-0.609,3.362-1.112c0.079,0,0.265-0.556,0.265-0.609c0-0.291,0-0.873-0.344-0.873h-0.185
				l-0.265,0.079h-0.688c-0.079,0-0.767,0.159-0.847,0.159c-0.079,0-0.424,0.106-0.529,0.106c-0.159,0-0.688,0.08-0.768,0.238
				c0,0-0.079,0.185-0.079,0.291v0.609C97.777,13.518,97.777,13.863,97.857,14.207z"/>
		</g>
	</g>
	<g>
		<g>
			<path d="M86.343,23.383l0.421-0.269l0.05-0.119c0.099-0.09,0.644-0.478,0.743-0.597c0,0,0.223-0.448,0.223-0.567l0.099-0.09
				c0.074-0.179,0.322-0.955,0.322-1.164v-0.507c0-0.299,0.074-0.896-0.149-1.164c-0.173-0.18-0.273-0.119-0.421-0.119
				c-0.322-0.061-0.645-0.18-0.966-0.27c-1.041-0.179-2.106-0.298-3.172-0.298c-1.833,0-3.593,0.179-5.401,0.896
				c-0.396,0.06-0.966,0.388-1.289,0.566c-0.074,0-0.322,0.329-0.396,0.329h-0.743c-0.322-0.329-0.371-0.717-0.371-1.284
				c0-0.388,0.223-0.716,0.322-1.104c0.049-0.448,0.149-0.955,0.223-1.433c0.149-1.194,0.322-2.06,0.322-3.224v-1.074
				c0-0.389-0.074-1.731-0.074-1.94c0-0.119-0.149-0.776-0.149-0.955c0-0.119-0.173-0.388-0.173-0.507c0-0.09-0.149-0.27-0.149-0.27
				h-0.099c-0.645,0.448-1.363,1.164-2.156,1.433l-0.421,0.12c-0.322,0.06-0.645,0.269-0.966,0.269
				c-0.322,0-0.496-0.269-0.496-0.657c0-0.328,0.248-1.88,0.496-1.999c0.149,0,0.743-0.06,0.892-0.06c0.173,0,0.545-0.12,0.644-0.12
				c0,0,0.173-0.089,0.223-0.089c0.966-0.389,2.106-0.776,2.849-1.672l0.223-0.388l0.248-0.269V4.491l-0.148-0.388
				c0-0.09,0.223-0.269,0.322-0.269c0.322-0.209,0.545-0.508,0.966-0.508c0.049,0,0.372,0,0.471,0.119v0.389l0.173,0.388v0.776
				l-0.099,0.06c-0.173,0.328-0.644,0.896-0.644,0.896v0.089c0.842,0,1.635-0.089,2.453-0.209c0.223,0,1.115-0.06,1.288-0.06h1.016
				c0.099,0,0.322-0.119,0.421-0.119h1.784c0.248,0.179,0.471,0.119,0.743,0.299c0,0.089,0.05,0.656,0.05,0.775l0.099,0.209
				c0,0.389-0.471,0.567-0.644,0.896c-0.198,0.269-0.248,0.657-0.347,1.045c-0.174,0.507-0.223,1.074-0.396,1.552
				c-0.248,0.776-0.248,1.463-0.793,2.06c-1.933,0.09-3.493,0.388-5.426,0.687c-0.743,0.09-1.115,0.269-1.115,1.164v0.388
				c0,0.09,0.05,0.09,0.149,0.09c0.867,0,1.784-0.299,2.676-0.389c1.462-0.208,2.973-0.298,4.509-0.298
				c1.71,0,3.395,0.09,5.154,0.09h1.239c0.05,0,0.471-0.09,0.545-0.09c0.347-0.09,0.57-0.478,0.892-0.478
				c0.174,0,0.272,0,0.272,0.089v0.09c0,0.119-0.099,0.508-0.099,0.597c-0.075,0.299-0.174,0.866-0.174,0.866
				s-0.322,0.388-0.471,0.507c-0.421,0.389-1.139,0.657-1.611,0.657c-0.818,0-1.561-0.269-2.255-0.448
				c-1.71-0.328-3.32-0.418-5.03-0.418h-2.106c-0.049,0-0.322,0.09-0.372,0.09c-0.917,0.209-1.883,0.328-2.775,0.597
				c-0.074,0-0.396,0.12-0.495,0.12c-0.372,0.179-0.471,0.775-0.471,1.224c0,0.209,0.149,0.328,0.248,0.328
				c0.966,0,1.933-0.328,2.85-0.389c1.437-0.208,2.899-0.328,4.336-0.328c1.239,0,2.354,0.12,3.493,0.328
				c0.049,0,0.545,0.061,0.645,0.061c0.322,0.119,0.471,0.388,0.694,0.597c0.421,0.507,0.818,0.687,0.818,1.462
				c0,0.717-0.173,1.553-0.396,2.149c0,0.119-0.421,0.896-0.421,0.955l-0.049,0.328c-0.099,0.06-0.595,0.657-0.644,0.776
				c-0.099,0.06-0.273,0.179-0.273,0.179h-0.966c-0.223-0.179-0.867-0.179-0.867-0.567L86.343,23.383z M72.542,22.906
				c0.074-0.179,0.495-0.775,0.495-0.896c0-0.06,0.049-0.566,0.049-0.656c0.099-0.299,0.818-0.508,0.966-0.508
				c0.421,0,0.917,0.598,0.917,1.104c0,0.18,0,0.18-0.099,0.388c-0.173,0.27-0.818,0.657-1.041,0.836
				c-0.099,0.119-0.966,0.598-1.065,0.717c-0.149,0.06-0.372,0.06-0.644,0.06c-0.075,0-0.322,0-0.322-0.179
				C71.873,23.682,72.443,22.995,72.542,22.906z M77.696,23.891c-0.099,0-0.471-0.328-0.57-0.389c0-0.119-0.075-0.597-0.075-0.716
				c0-0.06-0.099-0.567-0.099-0.567c-0.049-0.269-0.322-0.775-0.322-0.984c0-0.269,0.496-0.657,0.743-0.657
				c0.396,0,0.966,0.209,0.966,0.776v1.761c-0.099,0.06-0.471,0.776-0.57,0.776H77.696z M77.547,9.266
				c1.759-0.388,3.543-0.478,5.303-0.775c0.099,0,0.421-0.09,0.495-0.09c0.099,0,0.149-0.119,0.149-0.119
				c0.173-0.27,0.173-0.448,0.173-0.776c0-0.119,0-0.299-0.075-0.299c-0.099,0-0.322-0.089-0.421-0.089
				c-0.049,0-0.793-0.12-0.966-0.12h-0.148c-1.363,0-2.8,0.209-4.138,0.627c-0.149,0.09-0.644,0.209-0.644,0.209v1.224L77.547,9.266
				z M77.448,10.997c0,0.388-0.074,1.015,0.322,1.015c0.57,0,1.313-0.119,1.858-0.209c0.422,0,1.611-0.209,1.71-0.209
				c0.174,0,0.396-0.09,0.495-0.269c0.05,0,0.545-0.119,0.645-0.119c0.223,0,0.372,0.119,0.545-0.209l0.099-0.389l0.049-0.179V9.833
				c-0.049-0.06-0.149-0.06-0.223-0.06c-1.858,0-3.692,0.269-5.501,0.775V10.997z M80.917,23.174c-0.049,0-0.149,0-0.223-0.06
				c-0.099-0.119-0.421-0.328-0.471-0.388c0-0.209-0.099-1.283-0.099-1.492c0-0.06-0.074-0.448-0.074-0.567v-0.209
				c0-0.179,0-0.269,0.173-0.388h0.471c0.396,0,0.966,0.209,0.966,0.775c0,0.508,0,0.717-0.099,1.164
				c0,0.12-0.049,0.508-0.149,0.717c-0.074,0.06-0.322,0.388-0.396,0.447H80.917z M84.559,19.682
				c0.173,0.09,0.545,0.389,0.645,0.389c0.272,0.209,0.322,0.775,0.421,1.104c0,0.179,0.074,0.566,0.074,0.566
				c0,0.389-0.396,0.776-0.743,0.776c-0.223,0-0.545-0.119-0.718-0.388c-0.099-0.18-0.471-1.164-0.57-1.344
				c0-0.119-0.396-0.716-0.396-0.775v-0.508c0.074,0,0.396-0.119,0.495-0.119h0.049c0.173,0,0.322,0.119,0.496,0.179L84.559,19.682z
				"/>
		</g>
		<path d="M66.939,10.112c0.457-0.508,0.714-1.373,0.893-2.06v-0.09c0-0.299-0.437-0.299-0.556-0.299c-0.218,0-0.516,0-0.655,0.299
			L66.423,8.44l-0.397,0.687c-0.04,0.09-0.337,0.478-0.377,0.597c-0.655,0.776-1.509,1.045-2.283,1.552
			c-0.258,0.12-0.436,0.299-0.695,0.389c-0.516,0.179-1.032,0.179-1.548,0.298c-0.913,0.09-1.886,0.209-2.779,0.209v0.448
			c0,0.209,0.119,1.164,0.179,1.492c0.079,0.388,0.258,0.687,0.516,0.687h0.139l0.198-0.119c0.06,0,0.516-0.061,0.576-0.061
			c1.747-0.507,3.414-1.671,5.042-2.835C65.689,11.275,66.284,10.768,66.939,10.112z"/>
		<path d="M66.611,12.768c-0.08,0-0.219,0.06-0.219,0.06h-1.489c0,0-0.06,0.328-0.139,0.388c-0.04,0.209-0.04,0.209-0.04,0.508
			c0,0.089,0,0.269,0.119,0.388h0.258c0.576,0,1.171-0.179,1.806-0.179h1.946c0.377,0,1.409-0.12,1.489-0.12l0.774-0.388
			c0,0,0.179-0.209,0.179-0.269v-0.209c-0.377-0.388-0.695-0.567-1.151-0.567h-0.179c-0.08,0-0.258,0.06-0.338,0.06h-1.211
			c-0.139,0-0.992,0.209-1.112,0.209C67.246,12.648,66.65,12.768,66.611,12.768z"/>
		<path d="M74.011,12.037c0.019-0.078,0.05-0.146,0.071-0.222c-0.163-0.122-0.326-0.24-0.489-0.24c-0.158,0-1.175-0.388-1.378-0.627
			l-0.158-0.06c-0.587-0.328-1.107-0.716-1.694-0.984c-0.091,0-0.384-0.18-0.384-0.18c-0.068-0.119-0.203-0.209-0.294-0.328
			c-0.068,0-0.361-0.179-0.452-0.179h-1.22c-0.091,0-0.384,0-0.452,0.179c0,0.119,0.361,0.896,0.452,0.896h0.339
			c0.09,0,0.384,0.09,0.452,0.09c0.881,0.298,1.762,0.806,2.575,1.283l0.248,0.119l0.203,0.269l0.226,0.119
			c0.068,0,0.203,0.18,0.294,0.18C72.712,12.619,73.884,12.562,74.011,12.037z"/>
		<path d="M64.661,16.329c0-0.854,0.377-1.183,0.866-1.282h0.113c0.32,0,0.489,0.658,0.696,0.658c0.433,0,0.847-0.132,1.299-0.23
			c0.979-0.197,1.995-0.329,2.974-0.427c0.527-0.131,1.016-0.131,1.506-0.197h0.113c0.245,0,0.621,0.493,0.621,1.052
			c0,0.296-0.132,0.427-0.245,0.658c-0.075,0.066-0.377,0.624-0.452,0.723c0,0-0.169,0.559-0.245,0.624
			c-0.282,0.921,0.132,1.841-0.414,2.399c0,0-0.32,0.23-0.358,0.23h-0.151l-0.132-0.131c-0.038,0-0.527-0.099-0.659-0.099h-0.32
			c-0.282,0-1.713,0.099-1.995,0.099c-0.697,0.329-1.431,0-2.108,0.427c-0.659,0.427-1.111,1.282-1.713,1.841
			c-0.056,0.066-0.301,0.197-0.376,0.197c0,0-0.245-0.132-0.282-0.197l-0.075-0.131v-1.808c0-0.132,0.602-0.559,0.734-0.625
			l0.565-0.657c0.245-0.427,0.602-1.413,0.602-2.038C65.226,16.756,64.661,16.986,64.661,16.329z M66.581,16.986
			c-0.057,0-0.245,0.066-0.245,0.066c-0.056,0-0.489,1.841-0.489,2.202c0.847,0,1.657-0.23,2.523-0.361
			c0.602-0.066,1.148-0.066,1.751-0.197c0.132,0,0.49-0.131,0.49-0.131s0.207-0.427,0.245-0.526c0-0.132,0.132-0.329,0.132-0.329
			c0.075-0.23,0.32-1.085,0.395-1.282c-0.075,0-0.245-0.098-0.32-0.098h-0.734C69.104,16.329,67.805,16.559,66.581,16.986z"/>
	</g>
</g>
</svg>
