<?xml version="1.0" encoding="utf-8"?>
<!-- Generator: Adobe Illustrator 17.0.0, SVG Export Plug-In . SVG Version: 6.00 Build 0)  -->
<!DOCTYPE svg PUBLIC "-//W3C//DTD SVG 1.1//EN" "http://www.w3.org/Graphics/SVG/1.1/DTD/svg11.dtd">
<svg version="1.1" id="Layer_1" xmlns="http://www.w3.org/2000/svg" xmlns:xlink="http://www.w3.org/1999/xlink" x="0px" y="0px"
	 width="261.734px" height="25.399px" viewBox="0 0 261.734 25.399" enable-background="new 0 0 261.734 25.399"
	 xml:space="preserve">
<g>
	<g>
		<path d="M18.095,22.019c0-0.299,0.179-2.239,0.179-2.508v-3.999c0-0.119-0.119-1.194-0.119-1.283v-0.508
			c0-0.567,0.119-1.164,0.119-1.731c0-0.686,0-1.253-0.507-1.939h-0.388c-0.776,0-1.552,0.06-2.328,0.269
			c-0.179,0.119-1.94,0.418-2.119,0.508l-0.329,0.089h-0.06c-0.328,0-0.597-0.388-0.597-0.687c0-0.119,0.388-0.507,0.388-0.566
			c0.09-0.209,0.209-0.598,0.478-0.776c0.298,0,1.462-0.119,1.731-0.119c0.209,0,0.985-0.09,1.104-0.09
			c0.06,0,0.388-0.119,0.388-0.179v-0.12l-0.12-0.269c-0.089-0.388-0.269-1.552-0.657-1.552c-0.507,0-0.776,0.18-1.283,0.18
			c-0.388,0-0.388-0.299-0.388-0.627c0-0.448-0.089-1.045,0.507-1.224c1.045-0.12,2.239-0.12,3.283-0.329
			c0.896-0.179,1.88,0,2.835-0.06c0.089,0,0.985-0.119,1.044-0.119h0.329c0.269,0,1.224,0.119,1.343,0.119
			c0.597,0.06,1.074,0,1.074,0.657c0,1.074-0.985,1.193-1.851,1.074c-0.179,0.119-0.388,0.776-0.687,1.104
			c-0.209,0.179-0.597,0.656-0.597,0.656v0.179h0.597c0.179,0,1.671-0.06,1.851-0.06c0.09,0,0.597,0.06,0.687,0.06
			c0.298,0,1.761,0.209,2.029,0.209l0.209,0.12v0.179c0,1.164-1.164,1.373-2.029,1.373c-1.015,0-1.851-0.209-2.835-0.209
			c-0.567,0-1.075,0-1.671,0.09v0.507c0,0.18,0.119,1.344,0.119,1.552v4.358c0,0.328-0.119,2.566-0.179,3.223
			c0,0.12-0.12,0.508-0.12,0.598v1.164c0,0.298-0.089,1.074-0.089,1.074l-0.179,0.209h-0.896c-0.208,0-0.269-0.389-0.269-0.508
			V22.019z M12.425,17.631c1.074,0,1.731-0.18,2.716-0.567c0.567-0.328,1.194-0.597,1.791-0.597c0,0.269-0.119,0.597-0.328,0.776
			c-0.06,0.089-0.388,0.597-0.448,0.656c-0.119,0.119-0.627,0.388-0.716,0.507c-0.119,0.09-0.687,0.598-0.776,0.776
			c-0.388,0.388-0.507,1.104-1.164,1.104c-0.567,0-0.687-0.508-0.896-0.985c-0.06-0.388-0.269-0.566-0.269-1.015
			C12.335,18.019,12.335,17.84,12.425,17.631z M13.111,13.333c0-0.18,0.09-0.389,0.209-0.567h0.269c0.388,0,0.776,0.09,1.284,0.09
			c0.388,0,0.776-0.09,1.164-0.09h0.179l0.12,0.179c0,0.299-0.179,0.389-0.298,0.598c0,0.089-0.329,0.478-0.329,0.566
			c0,0.12-0.269,0.508-0.388,0.627l-0.06,0.06h-1.164c0,0-0.328-0.06-0.388-0.179c-0.12-0.09-0.388-0.388-0.388-0.388
			s-0.209-0.598-0.209-0.776V13.333z M17.2,6.438l0.119,0.179c0,0.12,0.179,0.389,0.179,0.508c0.209,0.478,0.269,0.656,0.269,1.253
			h1.373l0.895-1.761V6.051c-0.716,0-1.552,0-2.268,0.06c-0.06,0-0.448,0.119-0.567,0.238V6.438z M21.08,17.063
			c0-0.119,0.119-0.507,0.119-0.597h0.179c0.478,0,0.985,0.209,1.433,0.269c0.209,0,0.716,0.119,0.716,0.119
			c0.06,0,0.478,0.269,0.567,0.269c0,0,0.388,0.209,0.507,0.209l0.269,0.119l0.119,0.061c0.089,0,0.776,0.328,0.866,0.328
			c0.089,0,0.179,0.179,0.179,0.179v0.896c0,0-0.089,0.209-0.179,0.209c-0.478,0.388-1.164,0.269-1.851,0.269h-0.418
			c-0.06,0-0.776-0.388-0.955-0.478c-0.388-0.179-0.478-0.508-0.656-0.896l-0.12-0.119l-0.269-0.388
			c-0.12-0.18-0.507-0.18-0.507-0.389V17.063z M21.856,11.781c0.12,0,0.687,0.298,0.776,0.298c0.12,0,0.507,0.209,0.567,0.209
			l0.507,0.09c0.209,0.09,0.507,0.179,0.687,0.298c0.089,0,0.478,0.09,0.597,0.09c0.179,0,0.866,0.179,0.955,0.179l0.089,0.12
			c0,0.656-1.164,1.462-1.641,1.462s-1.642-0.209-1.97-0.687c-0.179-0.388-0.269-0.687-0.567-0.984
			c-0.089-0.09-0.388-0.478-0.388-0.478c0-0.09-0.089-0.597-0.089-0.597H21.856z"/>
		<path d="M0.597,21.397c-0.328,0-0.597,0-0.597-0.329c0-0.179,0-0.179,0.209-0.388l0.657-0.656c0.418-0.389,0.896-1.553,0.896-2.06
			c0.119-0.119,0.298-0.119,0.507-0.119h0.179c0.657,0.238,1.433,0.447,1.433,1.283c0,0.209-0.179,0.209-0.269,0.328
			c-0.896,0.776-1.731,1.552-2.955,1.94H0.597z"/>
		<path d="M1.94,14.562c0-0.598,0.388-1.284,0.985-1.672c0.119,0,0.507-0.269,0.567-0.269C3.82,12.413,4,12.115,4.268,11.935
			c0,0,0.329-0.209,0.388-0.298l0.328-0.18c0.179-0.209,0.567-0.627,0.567-0.627v-0.06c-0.687-0.119-1.284-0.388-1.94-0.597
			C3.044,10.055,2.06,9.996,2.06,9.279c0-0.269,0-0.388,0.09-0.656l0.776-0.776l0.179-0.119c0.776-0.687,1.283-1.343,1.94-2.119
			c0.119-0.119,0.119-0.119,0.328-0.119c0.448,0,1.044,0.119,1.044,0.775c0,0.508-0.597,0.687-0.985,0.955
			c-0.06,0.12-0.567,0.627-0.657,0.717L4.268,8.324c0,0-0.179,0.179-0.179,0.299v0.089c0,0,0.388,0.18,0.507,0.18
			C5.164,9.1,6.208,9.279,6.805,9.667l0.179-0.06C7.701,9.1,8.268,8.443,8.656,7.727c0-0.508-0.896-1.164-0.896-1.463
			c0.12,0,0.507-0.209,0.597-0.209h0.119c0.776,0.12,1.671,0.329,2.328,0.776c0.179,0.209,0.179,0.716,0.179,0.896v0.328
			c0,0-0.269,0.388-0.388,0.447C10.327,8.832,9.82,9.1,9.432,9.398L9.252,9.607c-1.492,1.224-3.104,2.418-4.596,3.671
			c-0.06,0.12-0.388,0.299-0.388,0.389v0.119c0.597,0.179,0.985,0.179,1.671,0.179h0.776c0.269-0.179,0.776-0.388,1.164-0.478
			c0.388-0.089,0.985,0,0.985-0.478c0-0.895-0.896-0.984-0.896-1.283c0-0.179,0.179-0.269,0.388-0.388h1.193
			c0.388,0,0.478,0.299,0.776,0.508c0.388,0.269,0.985,0.477,0.985,1.044c0,0.388-0.507,0.597-0.716,0.776
			c-0.657,0.507-1.224,1.015-2.06,1.283c-0.06,0-0.448,0.179-0.567,0.179c-0.657,0.209-1.373,0.508-2.03,0.508H5.641
			c-0.089,0-1.164-0.119-1.253-0.119c-0.388,0-2.238-0.06-2.447-0.567V14.562z"/>
		<path d="M6.208,21.576c-0.447,0-0.656-0.687-0.656-1.074c0-0.478,0.089-0.985,0.089-1.433c0-0.329,0-0.598-0.089-0.896
			c0-0.09-0.179-0.389-0.179-0.508v-0.089c0-0.18,0.06-0.299,0.269-0.299c0.388,0,0.567,0.119,1.075,0.299
			c0.865,0.269,0.478,1.104,0.597,1.88l0.06,0.269c0,0.119-0.06,0.776-0.06,0.896c-0.119,0.388-0.597,0.776-0.896,0.955H6.208z"/>
		<path d="M9.239,16.697c0.776,0.269,1.552,0.269,1.552,1.373c0,0.567-0.06,1.164-0.776,1.164c-0.269,0-0.656-0.09-0.835-0.269
			c-0.328-0.508-0.388-0.985-0.716-1.492c-0.179-0.388-0.507-0.687-0.687-1.074c0-0.09,0.179-0.09,0.298-0.09
			c0.329,0,0.597,0.209,0.896,0.269L9.239,16.697z"/>
	</g>
	<g>
		<path d="M237.976,21.904c0-0.388,0-1.075,0.328-1.463c0,0,0.179-0.089,0.299-0.089c1.343-0.388,2.805-0.687,4.268-0.955
			c0.269-0.119,0.866-0.209,0.866-0.209l0.179-0.179v-0.597c0-0.507,0-1.194-0.09-1.671c-0.179-0.567-0.865-0.687-0.865-1.343
			c0-0.328,0.388-0.716,0.567-0.776c1.462,0.06,2.567-0.209,3.91-0.388c1.433-0.208,2.806-0.328,4.268-0.507
			c0.209,0,1.373-0.208,1.552-0.208h2.06c0.089,0,0.388-0.06,0.478-0.06h0.179c0.507,0,0.776,0.448,0.776,0.955
			c0,0.388-0.179,0.388-0.388,0.776c-0.269,0.776-0.567,1.642-0.567,2.537v0.388l0.119,0.119c0,0,1.224,0.06,1.821,0.06h1.283
			c0.06,0,0.388,0.119,0.448,0.119h2.06l0.208,0.089v0.12l-0.388,0.776c-0.12,0.179-0.329,0.179-0.507,0.388l-0.09,0.179
			c-0.179,0.209-0.776,0.478-0.955,0.597h-0.985c-1.671,0-3.223-0.597-4.835-0.776c-0.329,0-0.716,0.06-1.015-0.12h-4.149
			c-0.119,0-0.597,0.12-0.716,0.12c-0.388,0-2.328,0.269-2.716,0.269c-0.179,0.179-0.567,0.179-0.776,0.179
			c-0.955,0.208-2.03,0.597-2.896,0.985l-2.148,1.074c-0.09,0-0.687,0.269-0.776,0.269c-0.298,0.12-0.089,0.12-0.388,0.12h-0.09
			c-0.089,0-0.328-0.179-0.328-0.298V21.904z M248.035,3.697c0.567,0.269,0.776,0.388,0.776,1.045c0,0.388-0.328,0.895-0.388,1.283
			c0,0.597-0.12,3.432-0.12,4c0,0.089-0.089,0.865-0.089,1.044c-0.12,0.507-0.299,1.493-0.955,1.552
			c-1.492,0.119-2.955,0.328-4.298,0.626c-0.478,0.09-0.866,0.478-1.373,0.478c-0.269,0-0.388-0.089-0.567-0.269
			c0-0.209-0.09-1.224-0.09-1.403v-0.269c0.179-1.164,0.478-2.149,0.478-3.313c0-0.388,0-1.015-0.089-1.283
			c0-0.12-0.298-0.567-0.388-0.776l-0.119-0.12l-0.09-0.179V5.846l-0.298-0.328v-0.06c0-0.329,0.209-0.985,0.388-1.104h0.507
			c0.388,0,0.865-0.179,1.253-0.269c0.089,0,1.164-0.119,1.253-0.119l0.388-0.06c0.388,0,1.88-0.209,2.06-0.209H248.035z
			 M246.751,10.234c-1.075,0-1.94,0.06-3.015,0.269c-0.298,0.119-0.866,0.179-1.164,0.388c-0.209,0.12-0.209,0.508-0.209,0.687
			c0,0.09,0.12,0.478,0.298,0.478c0.776,0,1.463-0.269,2.149-0.388c0.089,0,0.656-0.09,0.776-0.09c0.179,0,0.895-0.179,0.955-0.179
			c0.119-0.12,0.209-0.209,0.209-0.329V10.234z M242.752,5.906c0,0.328,0,0.597,0.209,0.776h0.388c0.955,0,1.94-0.269,2.925-0.448
			l0.478-0.12c0.179-0.089,0.179-0.388,0.179-0.597V5.249c-0.388-0.179-1.074-0.179-1.552-0.179h-0.089l-0.388,0.06
			c-0.089,0-0.776,0.12-0.866,0.12c-0.209,0-0.896,0.209-0.985,0.209s-0.298,0.179-0.298,0.179V5.906z M246.93,7.577
			c-1.343,0-2.805,0.089-4.059,0.597c-0.119,0.388-0.119,0.896-0.119,1.283c1.164,0,2.447-0.328,3.611-0.597
			c0.119,0,0.388-0.119,0.388-0.119c0.119-0.06,0.179-0.269,0.179-0.388V7.577z M245.378,18.501c0,0.12,0,0.179,0.089,0.299h0.896
			c0.179,0,1.074-0.179,1.283-0.179c0.06-0.12,0.179-0.209,0.179-0.328v-0.567c0-0.507-0.119-0.985-0.179-1.492
			c-0.119-0.179,0-0.567-0.328-0.657h-0.388c-0.448,0-1.253,0-1.462,0.597c0,0.269-0.089,1.85-0.089,2.119V18.501z M250.631,18.411
			c0.567,0,0.567-0.896,0.687-1.283c0.209-0.687,0.269-1.463,0.269-2.119c-0.657,0-1.433,0-2.208,0.179
			c-0.12,0-0.388,0.209-0.388,0.388v2.835H250.631z M250.93,12.233c-0.119,0.12-0.388,0.597-0.507,0.716
			c-0.179,0.12-0.179,0.12-0.388,0.12c-0.269,0-0.388-0.239-0.447-0.448c0.955-1.731,1.433-3.671,1.433-5.73V5.906
			c0-0.06-0.209-0.388-0.269-0.448l-0.388-0.329l-0.209-0.179v-0.09c0.089-0.179,0.269-0.895,0.388-0.955
			c0.597-0.209,1.164-0.328,1.761-0.388c0.269,0,0.835,0,1.164-0.209c0.298,0,1.851-0.12,2.119-0.12h0.776
			c0.716,0,2.268-0.179,2.268,0.896c0,0.597-0.388,1.044-0.507,1.552c-0.089,0.478-0.209,1.045-0.209,1.552
			c0,0.985,0.12,1.94,0.12,2.925v1.284c-0.12,0.388-0.298,0.955-0.776,0.955c-0.299,0-0.567-0.179-0.567-0.508V9.636
			c-0.119,0-0.776-0.119-0.985-0.119h-0.119c-0.776,0.209-1.612,0.119-2.507,0.209c0,0-0.507,0.119-0.597,0.119
			c-0.12,0-0.507,0.06-0.507,0.06s-0.06,0.12-0.06,0.209c-0.328,0.776-0.507,1.284-0.895,2.06L250.93,12.233z M253.467,14.8
			c0,0-0.209,0.089-0.209,0.209c-0.298,0.388-0.388,0.776-0.567,1.224c0,0.119-0.328,0.776-0.328,0.896
			c-0.06,0.269-0.269,0.597-0.269,0.895c0,0.09,0,0.209,0.089,0.209h1.97c0,0,0.209-0.209,0.209-0.328
			c0.269-0.687,0.388-1.731,0.388-2.507v-0.507c0-0.089-0.209-0.209-0.328-0.209L253.467,14.8z M256.093,4.354
			c-0.896,0-1.671,0.12-2.567,0.209c-0.06,0-0.776,0.119-0.836,0.119c-0.328,0.179-0.388,0.388-0.388,0.657
			c0,0.298,0,0.507,0.179,0.567h0.865c0.12,0,1.015-0.06,1.075-0.06c0.985-0.119,2.059,0.179,2.447-0.895v-0.09
			c0-0.119-0.119-0.388-0.119-0.507H256.093z M252.482,8.562h0.269c1.283,0,2.447-0.269,3.73-0.269l0.209-0.12V6.682h-0.716
			c-0.06,0-1.343,0.119-1.433,0.119h-0.298c-0.388,0.09-0.716,0.209-1.104,0.269c-0.06,0-0.448,0.12-0.567,0.12
			c-0.089,0-0.269,0.209-0.269,0.269v0.896L252.482,8.562z"/>
	</g>
	<g>
		<path d="M44.735,20.235c-2.597,0-5.253,0.388-7.879,0.776c-0.388,0.119-0.776,0.209-1.164,0.388
			c-0.478,0.209-0.985,0.209-1.433,0.388c0,0-0.597,0.328-0.776,0.388c-0.209,0.119-1.284,0.716-1.492,0.776
			c-0.179,0.328-1.075,0.716-1.462,0.716c-0.657,0-0.657-1.284-0.657-1.552c0-0.507,0.179-0.985,0.567-1.283
			c0.209-0.089,0.896-0.209,1.164-0.209c0.716-0.06,1.373-0.179,2.06-0.269c0.209,0,1.044-0.239,1.164-0.239l0.269-0.06
			c0.119,0,1.283-0.12,1.373-0.12c1.164-0.089,2.328-0.388,3.522-0.478h0.269c0.209,0,0.985-0.119,1.164-0.119
			c0.328-0.269,0.597-0.448,0.597-0.955v-0.209c0,0-0.269-0.06-0.388-0.06h-0.089c-0.955,0.06-2.06,0.179-3.015,0.388
			c-0.597,0.06-1.104,0.269-1.671,0.388l-0.269,0.06h-0.328c-0.06,0-0.179-0.179-0.179-0.179v-1.044c0,0,0.179-0.209,0.298-0.209
			c0.209-0.119,0.657-0.298,0.657-0.298h1.552c0.209-0.209,0.627-0.09,0.836-0.09c0.06,0,1.224-0.119,1.343-0.119h0.657
			c0.388,0,0.716-0.448,0.716-0.836l-0.119-0.208h-2.417c-0.508,0-1.791,0.208-1.791,0.208l-0.448,0.448h-0.119
			c-0.388,0-0.657-0.656-0.657-0.955V15.58c0.179-0.687,0.388-1.373,0.388-2.149c-0.119-0.388-0.119-0.985-0.388-1.373
			c-0.209-0.269-0.716-0.567-0.716-1.044h2.059c0.478,0,0.866-0.209,1.373-0.298c2.895-0.388,5.939-0.388,8.954-0.478
			c0-0.12,0.209-0.12,0.269-0.12h0.119c0.209,0.12,0.866,0.388,0.985,0.507c0.179,0.09,0.179,0.179,0.179,0.388
			c0,0.567-0.507,0.776-0.687,1.253c-0.269,0.776-0.597,1.462-0.656,2.417c-0.329,0.209-0.716,0.985-0.985,0.985
			c-0.298,0-0.507-0.089-0.806-0.089h-0.269c-0.119,0-0.776,0.089-0.896,0.089h-0.388c-0.597,0-1.761-0.089-1.761,0.776
			c0,0.179,0,0.298,0.329,0.388h0.776c1.164,0,2.328-0.269,3.611-0.269h0.388c0.269,0.06,0.179,0.388,0.179,0.448v0.328
			l-0.567,0.567h-0.985c-0.507,0-2.746,0.089-3.224,0.089c-0.388,0-0.567,0.298-0.567,0.687v0.269
			c0.06,0.119,0.388,0.209,0.448,0.209h1.104c1.164,0,2.328-0.209,3.492-0.209h4.179c0.089,0,0.865-0.06,0.985-0.06
			c0.269,0,1.462-0.12,1.731-0.12l0.12-0.089h0.656c0,0.388-0.089,0.865-0.269,1.253c-1.074,0.806-2.358,1.403-3.73,1.403h-0.06
			c-0.895-0.209-1.88-0.507-2.716-0.716c-0.985-0.179-2.06-0.179-3.044-0.269c-0.119,0-0.896-0.12-0.955-0.12H44.735z M31.424,9.729
			c-0.328-0.298-0.328-1.164-0.328-1.552c0-0.388,0.448-0.687,0.626-1.075c0.209-0.269,0.269-0.776,0.478-1.044
			c0.179-0.328,0.687-0.597,0.955-0.776c0.12-0.12,0.329-0.239,0.329-0.239c0.06,0,0.657-0.09,0.776-0.09
			c0.388-0.119,0.776-0.179,1.164-0.298c0.955-0.209,1.94-0.269,2.895-0.388c0.209,0,1.492-0.089,1.671-0.089
			c0.09,0,0.597-0.119,0.657-0.119c0.209,0,1.104-0.179,1.164-0.388c0-0.06,0.209-0.776,0.209-0.836V1.94l-0.09-0.09l-0.388-0.567
			V0.507C41.75,0.298,41.93,0,42.198,0h0.209l0.12,0.119c0.06,0.06,0.835,0.388,0.955,0.448c0.269,0.12,0.388,0.209,0.388,0.507
			c0,0.388-0.119,0.657-0.179,1.045c0,0.119-0.12,0.597-0.12,0.716V3.79l0.179,0.209h0.716c0.06,0,0.567-0.119,0.657-0.119
			c0.179,0,1.552,0.119,1.791,0.119c0.06,0,0.567-0.119,0.657-0.119h0.119c0.179,0,1.821,0.119,2,0.119
			c1.492,0,2.716-0.119,3.82,0.955c0,0,0.179,0.209,0.179,0.329c0.09,0.269,0.478,1.044,0.478,1.164v0.567
			c-0.208,0.985-0.656,1.552-1.433,2.149l-0.208,0.06h-0.12l-0.06-0.179l-0.328-0.089C51.63,8.774,51.63,8.387,51.63,7.999
			c0-0.507,0.119-0.985,0.119-1.552V5.73c-0.298-0.179-0.507-0.269-0.895-0.269c-0.388-0.12-1.552-0.179-1.612-0.179h-5.551
			c-0.209,0.06-0.209,0.06-0.388,0.06c-0.209,0-0.328-0.06-0.388-0.06c-0.597,0-0.985,0.269-1.492,0.269h-1.044
			c-0.896,0-1.671,0.298-2.448,0.388c-0.119,0-0.776,0.119-0.895,0.119c-0.06,0-1.045,0.179-1.343,0.269
			c-0.209,0-1.044,0.298-1.164,0.298c-0.597,0.209-0.985,0.388-1.044,0.985c0,0.06-0.209,1.045-0.209,1.164
			c0,0.06-0.179,0.657-0.179,0.776l-0.119,0.179c-0.09,0.09-0.597,0.597-0.657,0.687h-0.328l-0.179-0.298L31.424,9.729z
			 M34.14,25.011c-0.09,0-0.269,0-0.269-0.179c0.388-0.388,0.835-0.896,1.224-1.164c0.328-0.329,0.716-0.507,0.985-0.776
			c0.298-0.388,0.119-0.597,0.687-0.716h0.089c0.388,0,1.164,0.388,1.164,0.776c0,0.328,0,0.716-0.269,0.895
			c0,0-0.716,0.388-0.985,0.597c-0.179,0.06-0.687,0.388-0.687,0.388c-0.478,0.179-1.045,0.06-1.552,0.06l-0.269,0.119H34.14z
			 M34.647,2.895c-0.12,0-0.388-0.269-0.507-0.269v-0.12l0.119-0.06c0.06,0,0.657-0.209,0.776-0.209l1.552-0.567
			c0.269-0.209,0.448-0.329,0.835-0.329h0.209c0.12,0.12,0.687,0.716,0.776,0.776c0.12,0.208,0.12,0.328,0.12,0.507
			c0,0,0.06,0.388-0.12,0.388c-0.597,0.209-1.164,0.209-1.761,0.209c-0.776,0-1.224,0-1.94-0.209L34.647,2.895z M47.093,7.879
			c-0.507,0.567-0.806,1.731-1.671,1.731c-0.388,0-0.776-0.06-1.284-0.06c-1.343,0-2.596,0.269-3.939,0.388
			c-0.328,0.299-0.776,0.299-1.283,0.299c-0.12,0-0.209,0.089-0.329-0.12c-0.06-0.179-0.179-0.567-0.179-0.776
			c0-0.388,0.179-0.776,0.179-1.164V7.999L38.02,7.402V7.014c0-0.119,0.298-0.388,0.388-0.388h0.179c0.209,0,0.388,0,0.507,0.09
			h0.597c0.955,0,2.059-0.209,3.014-0.269c1.254-0.12,2.537-0.12,3.761-0.12h0.896c0,0,0.328,0.12,0.328,0.179v0.716l-0.119,0.06
			L47.093,7.879z M42.02,13.729c0,0-0.985,0.089-1.373,0.089c-0.657,0.09-1.552,0.09-2.239,0.299c-0.089,0-0.208,0.089-0.208,0.089
			v0.687c0,0.089,0.328,0.269,0.388,0.269h0.12c0.716-0.089,1.552-0.089,2.268-0.269l0.269-0.209h0.776
			c0.179-0.089,0.179-0.478,0.179-0.687v-0.179L42.02,13.729z M38.318,12.744c0,0.089,0.209,0.388,0.269,0.388h0.209l0.418-0.09
			c0.089,0,1.044-0.089,1.164-0.089l0.388-0.12c0.597-0.089,1.373,0.12,1.373-0.776c0,0,0-0.388-0.119-0.388h-1.761
			c-0.448,0.208-1.94,0.119-1.94,0.985V12.744z M40.467,21.608l1.283,0.567v2.656l-0.507,0.567h-0.985l-0.06-0.12
			c-0.119-0.179-0.328-0.835-0.328-0.835v-2.537c0-0.119,0.388-0.298,0.507-0.298H40.467z M43.691,7.61
			c-0.12,0-0.508,0.06-0.597,0.06c-0.955,0.119-1.851,0.328-2.835,0.328c-0.06,0.06-0.06,0.269-0.06,0.448
			c0,0.119,0,0.328,0.179,0.388h0.865c0.12,0,0.388-0.06,0.507-0.06c1.045-0.119,2.119-0.119,3.164-0.328
			c0.388-0.06,0.507-0.567,0.507-0.836H43.691z M43.303,14.386c0,0.119,0.269,0.298,0.388,0.298h1.611
			c0.329,0,1.373-0.179,1.671-0.179c0.209-0.209,0.329-0.985,0.329-1.283c-1.015,0-2.06,0.119-3.044,0.298
			c-0.12,0-0.687,0.09-0.776,0.09c0,0.119-0.179,0.597-0.179,0.686V14.386z M47.362,11.282c-1.164,0.119-2.447,0.119-3.611,0.209
			c-0.179,0.089-0.179,0.478-0.179,0.687c0,0.269,0.179,0.388,0.507,0.388c0.657,0,1.224-0.119,1.94-0.119
			c0.388,0,0.657,0.119,0.955,0.298c0.12,0.089,0.329,0.209,0.329,0.209c0.269,0,0.388-1.075,0.388-1.373v-0.179L47.362,11.282z
			 M44.079,23.847c-0.209-0.567-0.328-1.283-0.328-1.85c0-0.269,0.119-0.597,0.507-0.597h0.089c0.776,0.209,0.955,0.388,0.955,1.284
			c0,0.388,0,1.94-0.447,1.94c-0.209,0-0.508,0-0.597-0.179L44.079,23.847z M47.362,2.716c-0.567,0-0.955-0.388-0.955-0.985
			c0-0.388,0-0.388,0.06-0.776c0-0.06,0.12-0.269,0.12-0.269h2.537c0.12,0,0.776-0.299,0.896-0.299h0.06l0.209,0.179
			c0,0.597-0.388,1.373-0.865,1.671c-0.12,0-0.776,0.269-0.896,0.269l-0.179,0.12c0,0-0.657,0.089-0.866,0.089H47.362z
			 M48.526,24.056c-0.06-0.119-0.269-0.716-0.388-0.776c-0.06-0.328-0.388-0.776-0.388-0.985c0-0.119,0-0.179,0.208-0.298h0.687
			l0.388,0.298c0.089,0.089,0.478,0.269,0.597,0.388c0.388,0.269,0.656,0.478,1.044,0.776c0.507,0.388,1.283,0.478,1.283,1.164
			v0.269c0,0.119-0.328,0.328-0.388,0.328c-0.209,0-0.896,0.06-1.104,0.06l-0.269,0.12h-0.12c-0.179,0-0.179,0-0.388-0.12
			c-0.179-0.06-0.567-0.269-0.567-0.269c-0.089-0.119-0.388-0.776-0.478-0.895L48.526,24.056z"/>
		<path d="M67.263,17.131v-1.164c0-0.12,0.12-0.567,0.12-0.687v-0.776c0-0.687,0-1.074-0.12-1.761l-0.179,0.089
			c-0.388,0.388-0.985,0.985-1.463,1.284c-1.94,1.283-4.686,3.014-7.073,3.014c-0.716,0-1.283-0.119-1.761-0.686
			c0,0-0.12-0.209-0.12-0.269v-0.208c0.12-0.12,0.328-0.388,0.388-0.388h0.328c0.388,0,0.448,0,0.776,0.089l0.179,0.12h0.089
			c0.567-0.209,1.284-0.209,1.851-0.329c0.896-0.179,1.552-0.567,2.328-0.835l0.298-0.12h0.209l0.269-0.298
			c0,0,0.209-0.209,0.298-0.209c0.776-0.478,3.403-2.119,3.403-3.104c0-0.119-0.09-0.119-0.209-0.119
			c-0.269,0-0.567,0.119-0.866,0.239c-0.687,0.089-1.343,0.179-2.029,0.388c-0.776,0.179-1.94,0.776-2.806,0.776
			c-0.507,0-0.687-0.209-0.687-0.597v-0.298c0,0,0.388-0.179,0.448-0.179c0.418-0.089,0.806-0.209,1.194-0.328
			c0.089,0,0.687-0.269,0.776-0.269c0.687-0.179,1.253-0.299,1.94-0.508c0.597-0.06,1.164-0.388,1.761-0.447
			c1.552-0.209,3.104-0.329,4.775-0.329h0.447c0.12,0,0.388,0.209,0.388,0.329c0,0.567-0.448,0.955-0.955,0.955h-1.642
			c-0.119,0-0.687,0.089-0.806,0.089c-0.089,0-0.179,0.12-0.179,0.12v0.955c0,0.119,0.985,0.298,1.194,0.298
			c0.06,0,0.567,0.089,0.657,0.089c0.687,0.209,1.343,0.597,1.851,1.075c0.209,0.208,0.597,0.298,0.597,0.686v0.09
			c-0.388,0.209-0.896,0.298-1.373,0.298c-0.776,0-1.671-1.373-2.746-1.373h-0.089c0,0-0.09,0.209-0.09,0.299v6.715
			c0,0.119-0.089,0.597-0.089,0.716c-0.12,0.269-0.388,0.955-0.776,0.955h-0.12l-0.269-0.298c-0.12-0.09-0.388-0.209-0.388-0.388
			v-0.478C66.995,19.28,67.174,18.236,67.263,17.131z M64.936,6.506c1.373-0.298,2.716-0.507,4.178-0.507h0.896l0.269,0.209v0.298
			c0,0.478-0.269,0.866-0.776,0.985c-0.06,0-1.164,0.119-1.253,0.119c-0.09,0-0.687,0.06-0.776,0.06
			c-0.209,0-1.761,0.119-1.94,0.119c-0.089,0-0.597,0.09-0.687,0.09h-0.478c-0.298,0-0.776,0-0.776-0.507
			C63.592,6.596,64.368,6.596,64.936,6.506z M72.725,16.355c0.388-0.179,0.657-0.179,1.045-0.298
			c1.492-0.388,2.835-0.776,4.328-0.866c0.388,0,1.164-0.119,1.164-0.119l0.179-0.179v-3.104c0,0-0.298-0.119-0.388-0.119h-0.507
			l-0.179,0.119c-0.089,0-0.866,0.089-0.985,0.089c-0.448,0.09-0.896,0.299-1.343,0.299c0,0-0.209-0.12-0.328-0.12
			c-0.448-0.179-0.776-0.269-0.776-0.776c0-0.388,0.388-0.567,0.716-0.776c0.269,0,1.851-0.12,2.119-0.12
			c0.12,0,0.388-0.06,0.508-0.06c0.208,0,0.865-0.12,1.044-0.12l0.119-0.089c0,0,0.09-0.567,0.09-0.896
			c0-0.269,0.119-0.955,0.119-1.044V7.79c0-0.626,0-1.403-0.209-1.97c-0.179-0.597-0.567-0.866-0.567-1.433
			c0-0.209,0.06-0.209,0.269-0.328c0.179-0.06,0.687-0.179,0.687-0.179s0.478,0.119,0.597,0.179
			c0.388,0.119,0.567,0.328,0.776,0.597v0.507c0,1.612-0.209,3.283-0.209,4.835h3.82c0.06,0,0.388,0.209,0.448,0.329
			c0.119,0,0.209,0.269,0.209,0.269s-0.09,0.12-0.209,0.179l-0.448,0.418l-0.209,0.208c0,0-0.418,0.09-0.507,0.09
			c-0.12,0-0.567,0.089-0.687,0.089h-0.089c-0.388,0-2.06,0.09-2.448,0.09c-0.269,0.119-0.179,0.686-0.179,0.895
			c0,0.179-0.09,1.433-0.09,1.642v0.298c0,0.12-0.119,0.388,0.09,0.388c0.179,0,0.955,0.179,1.164,0.179
			c1.731,0.328,3.612,0.597,5.343,0.597c0.507,0,0.896-0.089,1.373-0.089c0.119,0,0.388,0.089,0.388,0.209v0.06
			c-0.656,1.492-1.761,2.06-3.313,2.06c-1.164,0-2.238-0.567-3.402-0.776c-0.985-0.179-1.94-0.179-2.925-0.179
			c-1.552,0-2.895,0.179-4.447,0.567c-0.119,0-0.776,0.269-0.895,0.269l-0.388,0.12c-0.089,0-0.478,0.328-0.597,0.328h-0.06
			c-0.209,0-0.328-0.12-0.507-0.209c-0.209-0.119-0.209-0.507-0.209-0.687C72.218,17.012,72.427,16.445,72.725,16.355z"/>
		<path d="M102.446,5.044c-0.06-0.09-1.045-0.388-1.164-0.478l-0.179-0.12h-0.089c-0.12,0-0.299,0.209-0.388,0.209l-1.283,1.284
			c-1.164,1.074-2.507,1.94-3.97,2.626l-0.089,0.09l-2.716,1.343c-0.208,0.12-1.85,0.717-2.358,0.806
			c-0.478,0.209-1.164,0.209-1.761,0.209h-0.567c-0.209-0.298-0.209-0.687-0.209-1.075c0-0.119,0-0.119,0.119-0.328
			c0.09-0.06,0.388-0.448,0.388-0.448c0.089,0,0.597-0.12,0.657-0.12c0.985-0.208,1.94-0.269,2.955-0.597
			c0.09,0,0.478-0.179,0.567-0.179c0.686-0.209,1.253-0.478,1.94-0.657l0.388-0.119l0.298-0.209
			c0.687-0.448,1.552-0.657,2.239-1.164l0.269-0.298c0.12-0.089,0.776-0.478,0.896-0.597l0.388-0.388
			c0.12-0.06,0.388-0.448,0.507-0.567l0.06-0.089C99.461,4.059,99.67,3.88,99.67,3.88V2.626c0.269-0.12,0.657-0.507,0.955-0.507
			h0.209c0,0,0.269,0.119,0.388,0.208c0.06,0.12,0.447,0.299,0.447,0.299c0.209,0.269,0.12,0.776,0.508,0.985l0.388,0.06
			c0.597,0.328,1.164,0.597,1.761,0.896c0.06,0.089,0.656,0.269,0.776,0.388c0.567,0.269,1.164,0.657,1.731,0.985
			c0.12,0,0.597,0.269,0.716,0.269c0.388,0.239,0.776,0.507,1.164,0.687l0.388,0.119c0.776,0.269,1.552,0.597,2.328,0.985
			c0.657,0.269,1.433,0.448,2.119,0.776c0.09,0,0.597,0.269,0.657,0.269c0.12,0,0.507,0.12,0.627,0.12
			c0.478,0.06,0.985,0.388,1.433,0.448c0.119,0,0.895,0.209,0.985,0.209c0.179,0.119,0.388,0.119,0.388,0.298
			c0,0.687-0.776,0.985-1.253,1.075c-0.179,0.089-0.687,0.208-0.776,0.208h-1.851c-0.209-0.119-0.776-0.298-0.985-0.388
			c-0.12-0.12-0.687-0.507-0.776-0.627c-0.12,0-0.567-0.388-0.687-0.388c-0.209-0.06-0.985-0.447-1.045-0.656
			C107.729,7.79,105.102,6.327,102.446,5.044z M94.775,19.668c0-0.269,0.208-1.88,0.208-2.149c0.09-0.119,0.299-0.298,0.388-0.388
			c0.478-0.388,1.253-0.388,1.851-0.388c1.552-0.12,3.014-0.298,4.566-0.388c1.044-0.119,2.208-0.119,3.313-0.119
			c0.179,0,1.552-0.06,1.731-0.06h0.597c0.687,0,1.85,0,1.85,0.955v0.09c-0.179,0.776-0.507,1.462-0.686,2.238
			c-0.09,0.388-0.209,0.776-0.269,1.104c-0.208,0.388-0.985,1.94-1.492,1.94c-0.269,0-0.179-0.12-0.507-0.209h-1.552
			c-2.209,0-4.328,0.089-6.507,0.388c-0.089,0-0.865,0.089-0.955,0.089c-0.089,0-0.597,0.179-0.687,0.179l-0.179,0.119
			c-0.12,0-0.508,0.209-0.597,0.209H95.76c-0.299,0-0.209-0.507-0.299-0.597l-0.567-0.896l-0.119-0.269V19.668z M95.283,12.267
			c0-0.298,0.388-1.761,0.776-1.94c0.866,0,1.552-0.329,2.417-0.388c0.179,0,1.194-0.209,1.373-0.209h0.209
			c0.179,0,0.656-0.119,0.656-0.119c0.179-0.06,0.179-0.657,0.179-0.836V8.565c0,0-0.269-0.119-0.388-0.119h-0.06
			c-0.119,0-1.164,0.119-1.283,0.119h-0.089c-0.418,0-0.985,0-0.985-0.507c0-0.179,0.089-0.448,0.298-0.567
			c0.687-0.269,1.671-0.269,2.447-0.388c0.388,0,1.343-0.089,1.433-0.089c0.388,0,2.238,0.089,2.626,0.209
			c0.089,0,0.089,0.06,0.089,0.179v0.089c-0.597,0.776-1.641,0.776-2.537,0.896l-0.06,0.06v0.985l0.179,0.12h3.582
			c0.298,0,1.403,0.06,1.462,0.06c0.12,0,0.716,0.209,0.896,0.328c0.269,0.06,0.776,0.388,0.776,0.687
			c0,0.567-0.507,1.253-0.686,1.731c-0.209,0.478-0.478,1.254-0.866,1.642c-0.12,0.12-0.388,0.298-0.507,0.298l-0.448,0.09
			c-0.507,0.119-1.015,0.298-1.492,0.507c-0.388,0-2.119,0.12-2.507,0.12c-1.104,0-2.149,0.179-3.223,0.269h-0.269
			C98.476,15.4,97.7,15.46,97.014,15.58l-0.298,0.089c-0.09,0-0.657-0.478-0.776-0.597c-0.089-0.06-0.269-0.299-0.388-0.388
			C95.461,13.908,95.283,13.042,95.283,12.267z M96.238,19.28h0.298c0.478,0,0.955-0.089,1.552-0.209
			c0.179,0,1.253-0.119,1.582-0.119h0.448l0.328,0.119c0.06,0,0.179-0.179,0.179-0.179h3.194c0.179,0,1.731-0.12,1.94-0.12
			c0.119,0,1.582-0.089,1.582-0.388V17.4c-0.179,0-1.194-0.06-1.403-0.06h-0.06c-1.104,0.06-5.82,0.269-6.805,0.388l-0.299,0.06
			c-0.119,0-1.164,0.12-1.283,0.12c-0.089,0-0.478,0.089-0.478,0.089c-0.089,0-0.567,0.119-0.687,0.119l-0.089,0.06
			c0,0-0.09,0.507-0.09,0.716v0.06L96.238,19.28z M96.447,21.519c0.656,0,1.343-0.179,2.029-0.298
			c2.626-0.269,5.462,0.179,8.088-0.269c0.269-0.388,0.388-0.895,0.388-1.283h-0.388l-0.418,0.12c-0.209,0-1.642,0.06-1.82,0.06
			c-0.12,0-0.597,0.119-0.716,0.119c-1.552,0.09-3.164,0.09-4.716,0.09c-0.806,0-1.492,0.179-2.269,0.298h-0.179
			c-0.299,0.089-0.209,0.209-0.209,0.478C96.238,21.012,96.148,21.519,96.447,21.519z M98.894,11.013
			c-0.716,0.089-1.283,0.089-1.97,0.269c-0.09,0-0.209,0.119-0.209,0.119v0.567c1.373,0,2.626,0,3.999-0.179
			c0-0.119,0.12-0.507,0.12-0.597v-0.09c0-0.209-0.12-0.298-0.328-0.298C99.938,10.804,99.461,10.894,98.894,11.013z M96.924,14.117
			h0.865c0.866,0,1.88,0,2.835-0.209c0.209-0.09,0.209-0.478,0.209-0.687c0-0.388,0-0.388-0.328-0.388
			c-1.164,0-2.239,0.209-3.283,0.388c-0.209,0-0.507,0.119-0.507,0.298C96.715,13.818,96.715,13.908,96.924,14.117z M102.177,13.818
			h2.984c0,0,0.507-0.089,0.597-0.089c0.179,0,0.806-0.209,0.895-0.388c0.508-0.686,0.687-1.552,0.896-2.328v-0.12
			c-1.283-0.089-2.447-0.179-3.73-0.179h-1.254c-0.298,0-0.298,0.478-0.298,0.686v0.179l0.179,0.09h2.716
			c0.209,0,1.164,0.119,1.403,0.119v0.089c0,0.299-0.239,0.388-0.418,0.478c-0.089,0.09-0.388,0.209-0.388,0.209h-3.194
			c-0.507,0-0.507,0.478-0.567,0.866v0.179C101.998,13.729,102.177,13.818,102.177,13.818z M115.041,10.386h0.06v-0.06h-0.06V10.386
			z"/>
		<path d="M139.539,20.922l-0.328-0.269l-0.179-0.119c-0.388-0.209-0.657-0.597-1.044-0.866l-1.493-1.283
			c-0.06-0.06-0.776-0.896-0.895-0.955c-0.269-0.329-0.657-0.597-0.836-0.985c-0.507-0.687-1.104-1.284-1.671-1.94
			c-0.388-0.507-1.433-1.97-2.029-1.97c-0.776,0-1.552,0-2.328,0.12l-0.418,0.06c-0.089,0-1.373,0.119-1.433,0.119
			c-0.716,0.09-1.373,0.209-2.059,0.388c-0.209,0-0.657,0.209-0.776,0.209c-0.089,0-0.478,0.179-0.597,0.179
			c-0.567,0.269-0.388,0.985-0.448,1.552c0,0.12-0.12,0.507-0.12,0.597v0.298h1.463c0.089,0,0.597-0.12,0.656-0.12l2.328-0.179
			h2.776c0.269,0.119,0.656,0.388,0.656,0.776c0,0.179-0.269,0.388-0.478,0.388h-2.447l-0.179,0.119
			c-1.164,0-2.268,0.179-3.312,0.388c-0.567,0.06-1.284,0.06-1.851,0.388c-0.478,0.298-0.985,0.687-1.433,0.955
			c-0.209,0.12-1.015,0.507-1.224,0.597c0,0-0.179,0.119-0.269,0.119h-0.12c-0.06,0-0.269-0.119-0.269-0.119v-1.433
			c0,0,0.269-0.507,0.388-0.627l0.388-0.388l0.478-0.09c0.179,0,0.806-0.179,0.806-0.179l0.269-0.208l0.119-0.179
			c0.209-0.776,0.269-1.671,0.269-2.388V13.61c0-0.12-0.06-1.164-0.06-1.284v-1.044c0-0.806-0.507-1.791-1.104-2.239V8.267
			l0.329-0.328l0.269-0.179h0.567c0.507,0,0.896,0.12,1.284,0.567c0.209,0.328,0.089,0.507,0.478,0.507
			c0.567,0,1.462-0.299,2.059-0.388c0.836-0.179,1.612-0.298,2.507-0.388l0.089-0.179V7.76c0-0.089-0.209-0.507-0.269-0.597
			c-0.12-0.299-0.597-1.075-0.776-1.164l-0.329,0.089l-2.388,0.298l-0.208,0.09c0,0-0.508,0.119-0.567,0.119h-0.119
			c-0.269,0-0.478-0.388-0.478-0.687c0-0.388,0.089-0.985,0.478-1.253c3.283-0.119,6.625-0.507,9.938-0.507h1.224
			c0.12,0,1.612,0.119,2.179,0.209c0.478,0,1.373,0,1.373,0.776c0,0.687-1.164,1.343-1.492,2.03
			c-0.179,0.298-0.179,0.716-0.269,0.985c-0.12,0.298-0.627,0.687-0.806,0.955l-0.09,0.119h-2.119
			c-0.388-0.179-0.985-0.119-1.283-0.119h-0.866l-0.179,0.328v0.06c0,0.12,0.269,0.507,0.269,0.597l0.179,0.179
			c0,0,0.209,0.208,0.209,0.328l0.12,0.179c0.06,0.089,0.388,0.388,0.388,0.388h6.716c0.06,0,0.447,0.12,0.567,0.12
			c0.089,0,0.478,0.209,0.597,0.269l0.06,0.12c0,0.478-0.269,1.164-0.836,1.164c-0.896,0-1.671-0.119-2.537-0.179
			c-0.179,0-1.402-0.12-1.582-0.12c-0.388,0-0.776-0.089-1.164-0.089h-0.478l-0.179,0.209v0.06c0.06,0.119,0.388,0.388,0.448,0.507
			l0.209,0.269c0.179,0.209,0.388,0.209,0.507,0.507c0.269,0.269,1.731,1.493,2.06,1.761l0.06,0.119
			c0.119,0,0.507,0.269,0.597,0.269c0.299,0.12,0.388,0.388,0.687,0.507c0.388,0.179,0.388,0.06,0.657,0.448
			c0.329,0.12,1.492,0.836,1.761,0.896c1.074,0.507,2.238,1.164,3.492,1.373c0.12,0,0.687,0.119,0.806,0.119
			c0.179,0,0.865,0.06,0.865,0.388v0.06c-1.074,1.284-1.94,1.284-3.492,1.284h-0.776c-0.209,0-1.373-0.12-1.552-0.12
			C139.807,21.101,139.598,20.922,139.539,20.922z M123.571,12.147c0.985,0,2.03-0.269,2.985-0.388
			c1.164-0.089,2.388-0.209,3.552-0.388c0.06,0,0.269-0.089,0.269-0.089c0-0.298-0.597-0.806-0.657-1.015
			c-0.119-0.06-0.388-0.836-0.507-0.955l-0.089-0.09h-0.299c-1.492,0-2.925,0.478-4.268,0.985c-0.119,0-0.507,0.179-0.597,0.179
			c-0.12,0-0.388,0-0.507,0.209c-0.06,0.388-0.179,0.776-0.179,1.164C123.272,12.058,123.272,12.147,123.571,12.147z M129.003,6.477
			c0.12,0.119,0.597,0.597,0.597,0.687c0.119,0.209,0.179,0.597,0.507,0.716h0.448c0.119,0,0.776-0.12,0.895-0.12h2.985
			c0.328,0,0.328-0.089,0.388-0.298c0.209-0.597,0.716-1.164,0.716-1.851c0,0-0.208-0.089-0.328-0.089
			c-0.06,0-0.567-0.09-0.567-0.09h-3.313c-0.836,0.269-1.731,0-2.597,0.388v0.089C128.734,6.208,128.824,6.297,129.003,6.477z"/>
		<path d="M148.248,19.877c0,0,0.089-0.597,0.208-0.776c0-0.12,0.06-0.388,0.179-0.508l0.657-0.656
			c0.119-0.12,0.507-0.448,0.597-0.448c0.12,0,0.896-0.06,1.015-0.06c1.044-0.209,2.119-0.388,3.104-0.597
			c0.06,0,0.656-0.179,0.776-0.179l0.269-0.119c0.12,0,0.776-0.089,0.896-0.089c0.388-0.12,0.776-0.179,1.164-0.299
			c0.657-0.089,1.343-0.209,2.059-0.269c0.388-0.119,1.343-0.209,1.343-0.209l0.089-0.119c0,0,0.12-1.045,0.12-1.462v-0.209
			c0-0.179-0.12-0.179-0.329-0.179c-0.776,0-1.433,0.119-2.119,0.179c-0.12,0-0.985,0.119-1.104,0.119
			c-0.269,0-1.343,0.209-1.552,0.209c-0.776,0.06-1.611,0.388-2.388,0.388c-0.388,0-0.895-0.329-0.895-0.776
			c0-0.328,0.507-0.776,0.776-0.895c0,0,0.388-0.09,0.567-0.09c0.12,0,0.776-0.119,0.896-0.119l0.269-0.06h0.329l2.984-0.329
			c0.418,0,1.671-0.179,1.851-0.179c0.119,0,0.507-0.09,0.597-0.09c0.179-0.119,0.179-0.567,0.179-0.687
			c0-0.269,0-1.164-0.269-1.283h-0.567c-0.985,0-1.88,0.179-2.835,0.298h-0.329c-1.164,0.089-2.328,0.388-3.492,0.597h-0.06
			c-0.388,0-1.104-0.508-1.104-0.985c0-0.179,0-0.388,0.209-0.507c0.179,0,0.895-0.06,0.955-0.06l0.209-0.119h0.179
			c1.671-0.209,3.224-0.478,4.895-0.597c0.089,0,1.164-0.06,1.253-0.06c0.896-0.12,1.851-0.12,2.716-0.209
			c0.776-0.119,1.552-0.179,2.328-0.298c0.179,0,1.97-0.09,2.179-0.09c0.06,0,0.955-0.119,1.045-0.119h0.388
			c0.567,0,0.687,0.209,1.164,0.507c0.298,0.089,0.687,0.209,0.687,0.597v0.06c0,0.119-0.298,0.388-0.388,0.507
			c-0.895,0-4.775,0.089-5.67,0.089c-0.269,0-1.552,0.12-1.821,0.12v1.94h4.596c0.06,0,1.343-0.089,1.433-0.089h0.12
			c0.06,0,0.388,0.208,0.448,0.208c0.119,0.06,0.597,0.269,0.716,0.388l0.179,0.179v0.089c-0.119,0.12-0.567,0.388-0.686,0.507
			l-0.09,0.06c-0.388,0.208-0.776,0.119-1.283,0.119l-0.269,0.089h-0.12c-0.06,0-0.567-0.089-0.656-0.089h-2.448
			c-0.119,0-0.298,0.089-0.388,0.089h-0.388c-0.388,0-1.164,0.12-1.164,0.12l-0.179,0.179v1.88h4.179
			c2.149,0,4.268,0.388,6.417,0.388h1.343c0.12,0,0.388-0.119,0.507-0.119c0.478-0.09,1.164-0.209,1.642-0.209
			c0,0.328-0.209,0.776-0.388,1.104c-0.09,0.179-0.687,0.657-0.776,0.776l-0.985,0.567c-0.388,0.328-1.462,0.776-1.94,0.776
			c-0.388,0-0.687-0.179-0.955-0.269c-1.164-0.388-2.447-0.687-3.701-0.896l-0.298-0.119c-0.09,0-0.388-0.06-0.478-0.06
			c-1.075-0.209-2.179-0.329-3.224-0.329h-1.074c-0.269,0.209-0.657,0.12-0.985,0.12c-0.388,0-1.611,0.089-1.82,0.089
			c-0.955,0.12-2.06,0.388-3.015,0.687l-0.507,0.119c-0.657,0.209-0.866,0.269-1.433,0.478c-0.388,0.12-0.896,0.179-1.283,0.388
			c-0.09,0-0.597,0.298-0.776,0.388l-0.269,0.179l-0.388,0.12c-0.12,0-0.716,0.478-0.776,0.478c-0.388,0.298-1.403,1.075-1.88,1.075
			c-0.686,0-1.164-0.299-1.164-1.075V19.877z M154.844,6.864c-0.448,0-1.044-0.388-1.044-0.865c0-0.955,0.985-1.462,1.82-1.462
			c1.284,0,2.537,0.119,3.82,0.119h1.94c1.343,0,3.104-0.209,4.447-0.298c0.12,0,1.284-0.209,1.403-0.209h0.269
			c0.388,0,0.507,0.209,0.896,0.388c0.209,0.119,0.776,0.298,0.776,0.597v0.179c-0.388,0.209-0.687,0.507-1.074,0.687
			c-0.866,0-5.253,0.209-6.148,0.209h-1.612l-0.328,0.089c-0.179,0-1.552,0.179-1.94,0.179c-0.12,0-1.343,0.119-1.462,0.119
			c-0.09,0-0.478,0.09-0.478,0.09c-0.12,0-0.776,0.089-0.896,0.089l-0.179,0.089H154.844z"/>
		<path d="M193.936,20.235c-2.597,0-5.253,0.388-7.879,0.776c-0.388,0.119-0.776,0.209-1.164,0.388
			c-0.478,0.209-0.985,0.209-1.433,0.388c0,0-0.597,0.328-0.776,0.388c-0.209,0.119-1.283,0.716-1.492,0.776
			c-0.179,0.328-1.075,0.716-1.463,0.716c-0.656,0-0.656-1.284-0.656-1.552c0-0.507,0.179-0.985,0.567-1.283
			c0.209-0.089,0.896-0.209,1.164-0.209c0.716-0.06,1.373-0.179,2.06-0.269c0.208,0,1.044-0.239,1.164-0.239l0.269-0.06
			c0.119,0,1.283-0.12,1.373-0.12c1.164-0.089,2.328-0.388,3.522-0.478h0.269c0.209,0,0.985-0.119,1.164-0.119
			c0.329-0.269,0.597-0.448,0.597-0.955v-0.209c0,0-0.269-0.06-0.388-0.06h-0.089c-0.955,0.06-2.06,0.179-3.015,0.388
			c-0.597,0.06-1.104,0.269-1.671,0.388l-0.269,0.06h-0.329c-0.06,0-0.179-0.179-0.179-0.179v-1.044c0,0,0.179-0.209,0.298-0.209
			c0.209-0.119,0.657-0.298,0.657-0.298h1.552c0.209-0.209,0.627-0.09,0.836-0.09c0.06,0,1.224-0.119,1.343-0.119h0.657
			c0.388,0,0.716-0.448,0.716-0.836l-0.119-0.208h-2.418c-0.507,0-1.791,0.208-1.791,0.208l-0.448,0.448h-0.119
			c-0.388,0-0.657-0.656-0.657-0.955V15.58c0.179-0.687,0.388-1.373,0.388-2.149c-0.12-0.388-0.12-0.985-0.388-1.373
			c-0.209-0.269-0.716-0.567-0.716-1.044h2.06c0.478,0,0.865-0.209,1.373-0.298c2.895-0.388,5.939-0.388,8.954-0.478
			c0-0.12,0.209-0.12,0.269-0.12h0.119c0.209,0.12,0.866,0.388,0.985,0.507c0.179,0.09,0.179,0.179,0.179,0.388
			c0,0.567-0.507,0.776-0.687,1.253c-0.269,0.776-0.597,1.462-0.656,2.417c-0.329,0.209-0.716,0.985-0.985,0.985
			c-0.299,0-0.508-0.089-0.806-0.089h-0.269c-0.12,0-0.776,0.089-0.896,0.089h-0.388c-0.597,0-1.761-0.089-1.761,0.776
			c0,0.179,0,0.298,0.329,0.388h0.776c1.164,0,2.328-0.269,3.611-0.269h0.388c0.269,0.06,0.179,0.388,0.179,0.448v0.328
			l-0.567,0.567h-0.985c-0.507,0-2.746,0.089-3.224,0.089c-0.388,0-0.567,0.298-0.567,0.687v0.269
			c0.06,0.119,0.388,0.209,0.448,0.209h1.104c1.164,0,2.328-0.209,3.492-0.209h4.179c0.089,0,0.865-0.06,0.985-0.06
			c0.269,0,1.462-0.12,1.731-0.12l0.119-0.089h0.657c0,0.388-0.089,0.865-0.269,1.253c-1.074,0.806-2.358,1.403-3.731,1.403h-0.06
			c-0.896-0.209-1.88-0.507-2.716-0.716c-0.985-0.179-2.06-0.179-3.044-0.269c-0.119,0-0.896-0.12-0.955-0.12H193.936z
			 M180.625,9.729c-0.328-0.298-0.328-1.164-0.328-1.552c0-0.388,0.448-0.687,0.627-1.075c0.208-0.269,0.269-0.776,0.478-1.044
			c0.179-0.328,0.686-0.597,0.955-0.776c0.119-0.12,0.328-0.239,0.328-0.239c0.06,0,0.657-0.09,0.776-0.09
			c0.388-0.119,0.776-0.179,1.164-0.298c0.955-0.209,1.94-0.269,2.895-0.388c0.209,0,1.492-0.089,1.671-0.089
			c0.089,0,0.597-0.119,0.657-0.119c0.209,0,1.104-0.179,1.164-0.388c0-0.06,0.209-0.776,0.209-0.836V1.94l-0.09-0.09l-0.388-0.567
			V0.507C190.952,0.298,191.13,0,191.399,0h0.209l0.12,0.119c0.06,0.06,0.835,0.388,0.955,0.448c0.269,0.12,0.388,0.209,0.388,0.507
			c0,0.388-0.119,0.657-0.179,1.045c0,0.119-0.12,0.597-0.12,0.716V3.79l0.179,0.209h0.716c0.06,0,0.567-0.119,0.657-0.119
			c0.179,0,1.552,0.119,1.791,0.119c0.06,0,0.567-0.119,0.657-0.119h0.119c0.179,0,1.821,0.119,2,0.119
			c1.492,0,2.716-0.119,3.82,0.955c0,0,0.179,0.209,0.179,0.329c0.089,0.269,0.478,1.044,0.478,1.164v0.567
			c-0.209,0.985-0.657,1.552-1.433,2.149l-0.209,0.06h-0.12l-0.06-0.179l-0.329-0.089c-0.388-0.179-0.388-0.567-0.388-0.955
			c0-0.507,0.119-0.985,0.119-1.552V5.73c-0.298-0.179-0.507-0.269-0.895-0.269c-0.388-0.12-1.552-0.179-1.612-0.179h-5.551
			c-0.209,0.06-0.209,0.06-0.388,0.06c-0.209,0-0.328-0.06-0.388-0.06c-0.597,0-0.985,0.269-1.492,0.269h-1.044
			c-0.896,0-1.671,0.298-2.447,0.388c-0.12,0-0.776,0.119-0.896,0.119c-0.06,0-1.045,0.179-1.343,0.269
			c-0.209,0-1.044,0.298-1.164,0.298c-0.597,0.209-0.985,0.388-1.044,0.985c0,0.06-0.209,1.045-0.209,1.164
			c0,0.06-0.179,0.657-0.179,0.776l-0.119,0.179c-0.09,0.09-0.597,0.597-0.657,0.687h-0.328l-0.179-0.298L180.625,9.729z
			 M183.341,25.011c-0.09,0-0.269,0-0.269-0.179c0.388-0.388,0.836-0.896,1.224-1.164c0.328-0.329,0.716-0.507,0.985-0.776
			c0.298-0.388,0.119-0.597,0.687-0.716h0.089c0.388,0,1.164,0.388,1.164,0.776c0,0.328,0,0.716-0.269,0.895
			c0,0-0.716,0.388-0.985,0.597c-0.179,0.06-0.687,0.388-0.687,0.388c-0.478,0.179-1.045,0.06-1.552,0.06l-0.269,0.119H183.341z
			 M183.848,2.895c-0.12,0-0.388-0.269-0.507-0.269v-0.12l0.119-0.06c0.06,0,0.657-0.209,0.776-0.209l1.552-0.567
			c0.269-0.209,0.448-0.329,0.835-0.329h0.209c0.12,0.12,0.687,0.716,0.776,0.776c0.119,0.208,0.119,0.328,0.119,0.507
			c0,0,0.06,0.388-0.119,0.388c-0.597,0.209-1.164,0.209-1.761,0.209c-0.776,0-1.224,0-1.94-0.209L183.848,2.895z M196.294,7.879
			c-0.507,0.567-0.806,1.731-1.671,1.731c-0.388,0-0.776-0.06-1.283-0.06c-1.343,0-2.597,0.269-3.94,0.388
			c-0.328,0.299-0.776,0.299-1.283,0.299c-0.12,0-0.209,0.089-0.329-0.12c-0.06-0.179-0.179-0.567-0.179-0.776
			c0-0.388,0.179-0.776,0.179-1.164V7.999l-0.567-0.597V7.014c0-0.119,0.298-0.388,0.388-0.388h0.179c0.209,0,0.388,0,0.507,0.09
			h0.597c0.955,0,2.06-0.209,3.015-0.269c1.253-0.12,2.537-0.12,3.76-0.12h0.896c0,0,0.328,0.12,0.328,0.179v0.716l-0.119,0.06
			L196.294,7.879z M191.22,13.729c0,0-0.985,0.089-1.373,0.089c-0.657,0.09-1.552,0.09-2.238,0.299c-0.09,0-0.209,0.089-0.209,0.089
			v0.687c0,0.089,0.328,0.269,0.388,0.269h0.12c0.716-0.089,1.552-0.089,2.268-0.269l0.269-0.209h0.776
			c0.179-0.089,0.179-0.478,0.179-0.687v-0.179L191.22,13.729z M187.519,12.744c0,0.089,0.209,0.388,0.269,0.388h0.209l0.418-0.09
			c0.089,0,1.044-0.089,1.164-0.089l0.388-0.12c0.597-0.089,1.373,0.12,1.373-0.776c0,0,0-0.388-0.119-0.388h-1.761
			c-0.448,0.208-1.94,0.119-1.94,0.985V12.744z M189.668,21.608l1.284,0.567v2.656l-0.508,0.567h-0.985l-0.06-0.12
			c-0.12-0.179-0.328-0.835-0.328-0.835v-2.537c0-0.119,0.388-0.298,0.507-0.298H189.668z M192.892,7.61
			c-0.12,0-0.507,0.06-0.597,0.06c-0.955,0.119-1.851,0.328-2.835,0.328c-0.06,0.06-0.06,0.269-0.06,0.448
			c0,0.119,0,0.328,0.179,0.388h0.865c0.12,0,0.388-0.06,0.508-0.06c1.044-0.119,2.119-0.119,3.164-0.328
			c0.388-0.06,0.507-0.567,0.507-0.836H192.892z M192.503,14.386c0,0.119,0.269,0.298,0.388,0.298h1.611
			c0.329,0,1.373-0.179,1.671-0.179c0.209-0.209,0.329-0.985,0.329-1.283c-1.015,0-2.06,0.119-3.044,0.298
			c-0.119,0-0.687,0.09-0.776,0.09c0,0.119-0.179,0.597-0.179,0.686V14.386z M196.562,11.282c-1.164,0.119-2.447,0.119-3.611,0.209
			c-0.179,0.089-0.179,0.478-0.179,0.687c0,0.269,0.179,0.388,0.507,0.388c0.657,0,1.224-0.119,1.94-0.119
			c0.388,0,0.657,0.119,0.955,0.298c0.12,0.089,0.329,0.209,0.329,0.209c0.269,0,0.388-1.075,0.388-1.373v-0.179L196.562,11.282z
			 M193.279,23.847c-0.209-0.567-0.328-1.283-0.328-1.85c0-0.269,0.119-0.597,0.507-0.597h0.089
			c0.776,0.209,0.955,0.388,0.955,1.284c0,0.388,0,1.94-0.448,1.94c-0.208,0-0.507,0-0.597-0.179L193.279,23.847z M196.562,2.716
			c-0.567,0-0.955-0.388-0.955-0.985c0-0.388,0-0.388,0.06-0.776c0-0.06,0.12-0.269,0.12-0.269h2.537
			c0.12,0,0.776-0.299,0.896-0.299h0.06l0.209,0.179c0,0.597-0.388,1.373-0.865,1.671c-0.12,0-0.776,0.269-0.896,0.269l-0.179,0.12
			c0,0-0.657,0.089-0.865,0.089H196.562z M197.727,24.056c-0.06-0.119-0.269-0.716-0.388-0.776c-0.06-0.328-0.388-0.776-0.388-0.985
			c0-0.119,0-0.179,0.209-0.298h0.686l0.388,0.298c0.089,0.089,0.478,0.269,0.597,0.388c0.388,0.269,0.657,0.478,1.045,0.776
			c0.507,0.388,1.283,0.478,1.283,1.164v0.269c0,0.119-0.328,0.328-0.388,0.328c-0.209,0-0.896,0.06-1.104,0.06l-0.269,0.12h-0.12
			c-0.179,0-0.179,0-0.388-0.12c-0.179-0.06-0.567-0.269-0.567-0.269c-0.089-0.119-0.388-0.776-0.478-0.895L197.727,24.056z"/>
	</g>
	<g>
		<g>
			<path d="M218.598,10.98c0-0.461,0.323-0.99,0.821-1.289c0.099,0,0.423-0.207,0.473-0.207c0.274-0.161,0.423-0.391,0.647-0.529
				c0,0,0.274-0.161,0.324-0.23l0.274-0.139c0.149-0.161,0.473-0.483,0.473-0.483V8.056c-0.572-0.092-1.07-0.299-1.618-0.46
				c-0.473-0.092-1.294-0.138-1.294-0.691c0-0.207,0-0.299,0.075-0.506l0.647-0.599l0.149-0.092c0.647-0.529,1.07-1.035,1.618-1.634
				c0.099-0.092,0.099-0.092,0.274-0.092c0.373,0,0.871,0.092,0.871,0.598c0,0.392-0.498,0.529-0.821,0.737
				c-0.05,0.093-0.473,0.483-0.547,0.553l-0.423,0.299c0,0-0.149,0.139-0.149,0.23v0.069c0,0,0.323,0.139,0.423,0.139
				c0.473,0.161,1.344,0.299,1.841,0.598l0.149-0.046c0.597-0.391,1.07-0.898,1.394-1.45c0-0.392-0.747-0.898-0.747-1.128
				c0.099,0,0.423-0.161,0.498-0.161h0.1c0.647,0.093,1.394,0.254,1.941,0.599c0.149,0.161,0.149,0.553,0.149,0.691v0.253
				c0,0-0.224,0.299-0.324,0.346c-0.224,0.253-0.647,0.46-0.971,0.69l-0.149,0.161c-1.244,0.944-2.588,1.865-3.832,2.832
				c-0.05,0.092-0.324,0.23-0.324,0.299v0.092c0.498,0.138,0.822,0.138,1.394,0.138h0.647c0.224-0.138,0.647-0.299,0.97-0.368
				c0.324-0.069,0.822,0,0.822-0.368c0-0.69-0.747-0.759-0.747-0.99c0-0.138,0.149-0.207,0.323-0.299h0.996
				c0.323,0,0.398,0.23,0.647,0.391c0.323,0.208,0.821,0.369,0.821,0.806c0,0.3-0.423,0.46-0.597,0.599
				c-0.548,0.391-1.02,0.782-1.717,0.99c-0.05,0-0.373,0.138-0.473,0.138c-0.548,0.161-1.145,0.392-1.692,0.392h-0.249
				c-0.075,0-0.971-0.092-1.045-0.092c-0.324,0-1.867-0.046-2.041-0.438V10.98z M227.067,9.536c0-0.069,0.224-0.507,0.323-0.599
				c0.075-0.138,0.324-0.138,0.498-0.207c0.473-0.185,1.294-0.621,1.618-0.99l-0.099-0.093c-0.075,0-0.498-0.138-0.548-0.138
				c-0.498-0.161-0.971-0.161-1.394-0.368c-0.398-0.23-0.398-0.691-0.398-1.035V5.623c0.174-0.207,0.398-0.207,0.647-0.368
				c0.647-0.392,1.294-0.828,1.841-1.335c0,0,0.174-0.253,0.274-0.299c0.099-0.092,0.249-0.392,0.323-0.392
				c0.324,0,1.12,0.3,1.12,0.691v0.046c-0.373,0.461-0.796,0.76-1.344,0.99l-0.373,0.069c-0.149,0.093-0.149,0.3-0.323,0.392
				l-0.149,0.046c-0.075,0.092-0.398,0.392-0.498,0.46c0,0.483,1.668,0.691,1.717,0.829h0.647l1.394-1.289
				c0.075-0.046,0.324-0.345,0.398-0.438V4.956c0-0.392-0.721-0.392-0.721-0.829c0-0.069,0.174-0.161,0.224-0.161h0.423
				c0.074,0,0.647-0.046,0.722-0.046h0.149c0.423,0,0.971,0.438,0.971,0.806c0,0.23-0.05,0.438-0.224,0.599l-0.249,0.138
				c-0.971,0.852-1.941,1.68-2.986,2.44c-0.647,0.437-1.493,0.898-2.041,1.496c0.398,0.23,1.294,0.3,1.717,0.3h0.498
				c0,0,0.323-0.069,0.373-0.069c0.1,0,0.498-0.161,0.598-0.161c0.05,0,0.473-0.23,0.547-0.23c0.149-0.069,0.747-0.207,0.747-0.368
				c0-0.92-0.647-0.667-1.07-1.22l0.149-0.138c0.1-0.069,0.423-0.207,0.498-0.207l0.249,0.046c0.548,0.161,1.618,0.392,1.941,0.852
				v0.667c0,0-0.324,0.368-0.473,0.46l-0.921,0.668c-0.324,0.299-0.697,0.598-1.12,0.667c0,0-0.398,0.069-0.547,0.069
				c-0.174,0-0.174-0.069-0.324,0.092h-1.244l-0.224-0.092h-0.746c-0.647,0-1.219-0.207-1.767-0.368
				c-0.274-0.069-0.498,0-0.647-0.23c-0.174-0.207-0.174-0.207-0.174-0.437V9.536z"/>
		</g>
		<path d="M233.501,12.464c-0.245-0.062-0.354,0-0.544-0.124h-1.806c-0.353,0-1.767,0.124-2.12,0.124
			c-0.435,0.143-0.952,0.143-1.523,0.267c-0.19,0.061-0.19,0.329-0.19,0.411c0,0.596,0.353,0.329,0.544,0.658l0.109,0.329
			c0.163,0.411,0.163,0.884,0.272,1.275c0,0.617-0.109,1.152-0.109,1.749c0,0.349,0,0.617,0.109,0.966v3.8
			c-0.109,0.412-0.163,0.802-0.163,1.214v0.123c0,0.144,0.163,0.617,0.245,0.679c0,0.082,0.109,0.082,0.163,0.082
			c0.19,0,0.299-0.082,0.354-0.144c0.462-0.206,0.897-0.391,0.897-0.884v-0.185c0-0.35-0.082-1.275-0.082-1.337
			c0-0.082-0.109-0.288-0.109-0.349v-2.422c0-0.041,0.109-0.185,0.109-0.267c0-0.041,0.082-0.309,0.082-0.391
			c0,0,0.272-0.144,0.353-0.144c0.517-0.185,1.169-0.308,1.686-0.535c1.251-0.534,2.893-2.612,2.893-3.825
			C234.669,12.999,234.126,12.67,233.501,12.464z M232.919,14.418c0,0-0.391,0.564-0.5,0.688c-0.408,0.678-0.29,1.184-1.16,1.451
			c-0.109,0-0.707,0.185-0.816,0.185c-0.081,0-0.245,0.144-0.354,0.144l-0.081,0.083c-0.109,0-0.272,0.123-0.272,0.123h-0.082
			l-0.109-0.206c0-0.267-0.054-1.604-0.054-1.872c0-0.061-0.109-0.884-0.109-0.946c0-0.061,0.109-0.473,0.109-0.534
			c0.245-0.268,0.761-0.062,1.115-0.268h1.398l0.788,0.144c0.163,0,0.272,0.268,0.272,0.391
			C233.066,14.068,233.11,14.212,232.919,14.418z"/>
		<path d="M224.919,12.705c-0.152,0.316,0.047,0.515,0.047,0.54c0,0.082,0.081,0.35,0.081,0.411v0.556l-0.081,0.185
			c0,0.082-0.109,0.802-0.109,0.884c-0.055,0.719-1.169,0.658-1.876,0.843c-0.598,0.144-1.305,0.349-1.93,0.493h-0.081
			c-0.109,0-0.109-0.061-0.109-0.144v-0.082l0.109-0.185c0-0.082,0.19-0.391,0.19-0.473c0.163-0.411,0.245-0.72,0.353-1.131V14.52
			l-0.109-0.308c-0.082-0.35-0.082-0.761-0.435-1.029c-0.163-0.061-0.87-0.205-1.06-0.205h-0.163c-0.462,0-0.816,0.411-0.816,0.74
			c0,0.062-0.081,0.226,0.109,0.267c0.245,0.083,0.353,0.083,0.516,0.227l0.19,0.185c0.054,0.082,0.163,0.267,0.163,0.267v1.275
			c0,0-0.109,0.185-0.163,0.267c-0.109,0.062-0.462,0.35-0.544,0.411c-0.272,0.206-1.767,0.741-1.767,1.008v0.062
			c0,0.123,0.081,0.658,0.081,0.802c0.109,0.124,0.163,0.124,0.272,0.124c0.707,0,1.305-0.309,1.957-0.452l0.354-0.083
			c0.054,0,0.761-0.308,0.87-0.308c0.897-0.35,1.604-0.535,2.474-0.884c0.354-0.144,0.816-0.535,1.251-0.535v0.391
			c0,0.267-0.19,0.493-0.245,0.761c-0.462,1.069-0.924,1.995-2.066,2.756c-0.272,0.185-0.625,0.267-0.87,0.391
			c0,0-0.299,0.144-0.353,0.144c-1.006,0.308-1.957,0.534-2.936,0.658c-0.598,0.061-1.359,0.143-1.958,0.185v0.164
			c0,0.267,0.081,0.864,0.354,0.987c0.353,0.267,0.652,0.35,1.169,0.35c1.604,0,3.072-0.658,4.132-1.502
			c0.109-0.042,1.06-0.72,1.169-0.802c0.353-0.185,0.788-0.535,1.06-0.843c0.299-0.35,0.462-0.679,0.652-1.029
			c0.87-1.728,1.06-3.496,1.224-5.368c0-0.083,0.081-0.35,0.081-0.473c0-0.028,0.004-0.234-0.012-0.36
			C226.036,12.285,225.14,12.246,224.919,12.705z"/>
		<g>
			<path d="M217.361,6.995c-0.921,0.227-2.277,0.159-3.389,0.265c-0.079,0-1.032,0.079-1.112,0.079
				c-0.424,0.107-0.953,0.265-1.297,0.45l-0.265,0.053v0.291c0.106,0.503,0.265,0.847,0.344,1.376c0.106,0,0.265,0.107,0.344,0.107
				c0.609,0,1.138-0.185,1.642-0.185h0.529c0.238,0,1.377-0.106,1.615-0.106c0.344,0,0.609,0.344,0.609,0.688
				c0,0.45-0.159,0.636-0.265,0.98c-0.08,0.397-0.159,0.767-0.159,1.297v6.408c0.079,0.159,0.079,0.502,0.079,0.688v0.398
				c0,0.185-0.609,0.979-0.688,0.979h-0.079c-0.08-0.106-0.609-0.635-0.689-0.688c0,0-0.185-0.529-0.185-0.689v-0.185
				c0-0.264,0.185-0.609,0.265-0.847c0-0.106,0.079-0.344,0.079-0.344v-1.085c0-0.053-0.159-0.053-0.238-0.053
				c-0.344,0-1.138,0.344-1.483,0.502c-0.079,0-0.768,0.45-0.847,0.45l-0.344,0.08c-0.767,0.264-1.721,0.688-2.409,1.138h-0.106
				c-0.238,0-0.529-0.185-0.688-0.344v-0.636c0-0.238,0-0.609,0.106-0.953c0.159-0.08,0.741-0.689,0.847-0.874
				c0.079-0.053,0.344-0.688,0.45-0.847c0.079-0.185,0.238-1.138,0.238-1.297v-2.594c0-0.159-0.079-1.192-0.079-1.377
				c0-0.609,0-1.482-0.53-1.933l-0.344-0.238l-0.079-0.106V7.498c0-0.159,0-0.238,0.079-0.398c0.159-0.185,0.344-0.45,0.609-0.529
				c0.106,0,0.265-0.106,0.344-0.106c0.106,0,0.688-0.053,0.794-0.053l0.159-0.107c0.079,0,0.609-0.079,0.688-0.079
				c0.265,0,4.458-0.854,5.235-0.78s1.257,0.074,1.294,0.517S218.282,6.768,217.361,6.995z M211.298,15.996
				c0,0.08,0.265,0.238,0.344,0.345h0.106c0.344,0,0.583-0.107,0.847-0.159l0.344-0.185l0.344,0.08c0.08,0,0.53-0.238,0.609-0.238
				c0.265-0.106,0.847,0,0.953-0.45c0-0.185,0.079-0.953,0.079-1.033c0-0.106-0.079-0.45-0.079-0.529h-0.609
				c-0.874,0-1.721,0.185-2.489,0.424c-0.106,0-0.185,0.106-0.265,0.185c0,0.424-0.185,0.874-0.185,1.298V15.996z M211.563,13.057
				c1.033-0.08,2.409-0.609,3.362-1.112c0.079,0,0.265-0.556,0.265-0.609c0-0.291,0-0.873-0.344-0.873h-0.185l-0.265,0.079h-0.688
				c-0.079,0-0.768,0.159-0.847,0.159c-0.079,0-0.424,0.106-0.529,0.106c-0.159,0-0.688,0.08-0.768,0.238
				c0,0-0.079,0.185-0.079,0.291v0.609C211.484,12.369,211.484,12.714,211.563,13.057z"/>
		</g>
	</g>
</g>
</svg>
