<?xml version="1.0" encoding="utf-8"?>
<!-- Generator: Adobe Illustrator 17.0.0, SVG Export Plug-In . SVG Version: 6.00 Build 0)  -->
<!DOCTYPE svg PUBLIC "-//W3C//DTD SVG 1.1//EN" "http://www.w3.org/Graphics/SVG/1.1/DTD/svg11.dtd">
<svg version="1.1" id="Layer_1" xmlns="http://www.w3.org/2000/svg" xmlns:xlink="http://www.w3.org/1999/xlink" x="0px" y="0px"
	 width="140.275px" height="25.399px" viewBox="0 0 140.275 25.399" enable-background="new 0 0 140.275 25.399"
	 xml:space="preserve">
<g>
	<g>
		<path d="M0.776,21.517c0-0.089,0.298-0.597,0.298-0.656c0.089-0.388,0.209-0.776,0.209-1.164c0-0.836-0.12-1.671-0.388-2.448
			C0.687,16.652,0,16.354,0,15.697c0.388,0,0.687-0.12,0.985-0.507h2.626c0.089,0,0.269-0.12,0.388-0.12
			c0.179,0,1.433-0.089,1.642-0.089c0.478,0,0.866-0.179,1.373-0.179h0.657c0.716-0.119,3.82-0.298,4.477-0.388
			c0.12,0,0.687-0.208,0.776-0.208h0.179c0.836,0,4.388,0.089,5.164,0.089c0.209,0,0.896,0.298,0.985,0.388
			c0.12,0,0.388,0.298,0.388,0.388v0.12c0,0.687-0.866,1.074-1.164,1.671c-0.089,0.179-0.478,0.835-0.478,0.955v0.388l-0.12,0.388
			c-0.06,1.104,0.12,2.149-0.835,2.835c-0.209,0.089-0.507,0.089-0.716,0.089c-0.448,0-0.955,0-1.433-0.209h-4.179
			c-0.716,0.209-1.492,0.12-2.149,0.209c-1.671,0.179-3.402,0.388-5.074,0.776C3.015,22.412,2.149,22.8,1.761,22.8
			c-0.687,0-0.985-0.388-0.985-1.104V21.517z M2.716,10.623c0-0.508,0.119-0.896,0.388-1.373c0.686-0.687,1.164-1.283,1.94-1.791
			C5.164,7.4,6.238,6.683,6.328,6.624c0.298-0.209,0.567-0.388,0.776-0.597L7.88,5.251c0.298-0.298,0.298-0.507,0.686-0.507
			c0.388,0,0.597,0.328,0.985,0.388c0.567,0.208,1.343,0.208,1.94,0.388c0,0,0.179,0.12,0.269,0.209l0.119,0.12h0.269
			c0.776,0.06,1.284,0.179,1.851,0.567l0.209,0.089c0.119,0,0.298,0.179,0.298,0.179l1.164,1.164
			c0.269,0.328,0.209,0.627,0.209,0.896V9.34c-0.209,0.12-0.12,0.298-0.209,0.388c-0.388,0.567-2.179,1.343-2.835,1.671
			c-0.119,0-0.567,0.269-0.687,0.269c-1.433,0.507-3.193,0.298-4.537,0.298H5.164c-0.687,0-1.373-0.179-2.059-0.298
			C2.716,11.399,2.716,11.011,2.716,10.623z M3.791,20.144c0.478,0,0.985-0.179,1.462-0.179c1.97-0.209,3.791-0.388,5.73-0.478
			h0.508c0.06,0,0.567-0.12,0.656-0.12c0.508,0,2.626-0.06,3.134-0.06c0.657-0.12,0.597-1.104,0.657-1.671
			c0.12-0.507,0.329-0.896,0.329-1.373c0,0,0.06-0.298-0.12-0.298H15.55c-4.059,0-8.059,0.179-12.058,1.075
			c0,0.269-0.089,1.82-0.089,2.148c0,0.12-0.09,0.508-0.09,0.567v0.209C3.313,20.263,3.612,20.144,3.791,20.144z M8.268,9.907
			c1.731,0,3.492-0.06,5.164-0.776c0.179-0.06,0.298-0.06,0.298-0.269c0-0.119,0-0.119-0.119-0.179
			c-0.179-0.208-0.687-0.626-0.687-0.626l-0.478-0.269c-0.12,0-0.299-0.209-0.299-0.209L11.879,7.28l-0.507-0.09l-0.209-0.119
			c-0.567-0.06-1.164-0.179-1.82-0.179c-0.299,0-0.507,0.179-0.776,0.388C8.387,7.4,7.671,7.967,7.611,8.056L7.492,8.175
			C7.283,8.355,6.238,9.25,6.059,9.459L5.82,9.728C6.716,9.907,7.492,9.907,8.268,9.907z"/>
	</g>
	<g>
		<path d="M30.446,14.474c-0.19,0-0.346,0-0.346-0.19c0-0.104,0-0.104,0.121-0.225l0.38-0.38c0.242-0.224,0.518-0.898,0.518-1.192
			c0.069-0.069,0.173-0.069,0.294-0.069h0.104c0.38,0.138,0.829,0.259,0.829,0.743c0,0.121-0.104,0.121-0.155,0.19
			c-0.518,0.449-1.002,0.898-1.711,1.123H30.446z"/>
		<path d="M31.005,10.745c0-0.344,0.2-0.74,0.509-0.964c0.062,0,0.262-0.155,0.293-0.155c0.169-0.12,0.262-0.292,0.401-0.396
			c0,0,0.17-0.12,0.2-0.172l0.169-0.103c0.093-0.12,0.293-0.361,0.293-0.361V8.56c-0.354-0.069-0.663-0.224-1.002-0.344
			c-0.293-0.069-0.801-0.103-0.801-0.516c0-0.155,0-0.224,0.046-0.378l0.401-0.448l0.093-0.069c0.401-0.396,0.663-0.774,1.002-1.222
			c0.062-0.069,0.062-0.069,0.169-0.069c0.231,0,0.539,0.069,0.539,0.448c0,0.292-0.308,0.396-0.509,0.551
			c-0.031,0.069-0.293,0.361-0.339,0.413l-0.262,0.224c0,0-0.092,0.103-0.092,0.172v0.052c0,0,0.2,0.103,0.262,0.103
			c0.293,0.12,0.832,0.224,1.14,0.447l0.093-0.034c0.37-0.292,0.663-0.671,0.863-1.084c0-0.292-0.462-0.671-0.462-0.843
			c0.062,0,0.262-0.12,0.308-0.12h0.062c0.401,0.069,0.863,0.189,1.202,0.447c0.092,0.12,0.092,0.413,0.092,0.516v0.189
			c0,0-0.139,0.224-0.2,0.258c-0.139,0.189-0.401,0.344-0.601,0.516l-0.093,0.12c-0.77,0.705-1.603,1.394-2.373,2.116
			c-0.031,0.069-0.2,0.172-0.2,0.224v0.069c0.308,0.103,0.509,0.103,0.863,0.103h0.401c0.139-0.103,0.401-0.224,0.601-0.275
			c0.2-0.052,0.509,0,0.509-0.275c0-0.516-0.462-0.568-0.462-0.74c0-0.103,0.093-0.155,0.2-0.224h0.616
			c0.2,0,0.247,0.172,0.401,0.292c0.2,0.155,0.509,0.275,0.509,0.602c0,0.224-0.262,0.344-0.37,0.448
			c-0.339,0.292-0.632,0.585-1.063,0.74c-0.031,0-0.231,0.103-0.293,0.103c-0.339,0.12-0.709,0.292-1.048,0.292h-0.154
			c-0.046,0-0.601-0.069-0.647-0.069c-0.2,0-1.156-0.034-1.264-0.327V10.745z"/>
		<path d="M33.609,14.393c-0.259,0-0.38-0.397-0.38-0.622c0-0.276,0.052-0.57,0.052-0.829c0-0.19,0-0.345-0.052-0.518
			c0-0.052-0.104-0.225-0.104-0.294v-0.052c0-0.104,0.034-0.173,0.155-0.173c0.225,0,0.328,0.069,0.622,0.173
			c0.501,0.155,0.276,0.639,0.345,1.088l0.034,0.155c0,0.069-0.034,0.449-0.034,0.518c-0.069,0.224-0.345,0.449-0.518,0.553H33.609z
			"/>
		<path d="M35.422,11.745c0.449,0.155,0.899,0.155,0.899,0.795c0,0.328-0.034,0.674-0.449,0.674c-0.155,0-0.38-0.052-0.484-0.155
			c-0.19-0.294-0.225-0.57-0.415-0.864c-0.104-0.225-0.294-0.397-0.397-0.622c0-0.052,0.104-0.052,0.173-0.052
			c0.19,0,0.346,0.121,0.518,0.155L35.422,11.745z"/>
		<path d="M35.951,5.678c0.705-0.288,1.62-0.533,1.925-0.578c0.305-0.045,0.956-0.116,1.416-0.153c0.035,0,0.203-0.074,0.23-0.074
			h0.548c0.062,0,0.522-0.056,0.575-0.056h1.185c0.141,0,0.752,0.056,0.867,0.056h0.115l0.973,0.074l0.088-0.074h0.256
			c0,0.5-0.513,1.389-0.743,1.519c0,0-0.15,0.074-0.212,0.074c-0.018,0-0.194,0.037-0.247,0.037H42.89
			c-0.194-0.111-0.407-0.278-0.601-0.408c-0.035,0-0.089-0.074-0.115-0.074c-0.115-0.037-0.23-0.111-0.345-0.167
			c-0.035,0-0.168-0.074-0.203-0.074c-0.026,0-0.115-0.037-0.141-0.037c-0.15,0-0.84-0.13-0.99-0.13h-0.08
			c-0.38,0-0.805,0.13-1.185,0.13c-0.398,0-0.895-0.004-1.293,0.07c-0.23,0.056-0.456,0.111-0.686,0.241
			c-0.035,0-0.168,0.074-0.203,0.074c-0.026,0-0.379,0.358-0.584,0.272S35.724,5.771,35.951,5.678z"/>
		<path d="M37.639,8.672c0.375,0,0.718-0.123,1.083-0.185c0.416-0.082,0.781-0.144,1.187-0.144l0.115-0.062h0.333
			c0.094,0,0.978-0.144,1.083-0.144c0,0,0.25,0.082,0.344,0.082c0.042,0,0.198,0.062,0.239,0.062c0.031,0,0.208,0.062,0.208,0.062
			s0.063,0.062,0.094,0.062C42.386,8.487,42.5,8.549,42.5,8.549v0.062c0,0-0.135,0.329-0.208,0.411
			c-0.063,0.123-0.198,0.185-0.312,0.185c-0.135,0-0.291,0-0.406-0.123h-0.677c-0.739,0-1.489,0.062-2.207,0.267
			c-0.198,0.062-0.448,0.123-0.645,0.267c-0.135,0.062-0.271,0.206-0.437,0.206c-0.104,0-0.198-0.144-0.198-0.411
			S37.545,8.816,37.639,8.672z"/>
		<path d="M37.487,7.554c0.073-0.353,0.208-0.809,0.406-0.809c0.073,0,0.541-0.083,0.614-0.083c0.104,0,0.104,0,0.198-0.062
			c0.718,0,1.374-0.125,2.072-0.125h0.833c0.135,0.041,0.291,0.125,0.427,0.27l0.042,0.041c0,0.145-0.135,0.27-0.177,0.353
			l-0.094,0.187c0,0-0.198,0.145-0.271,0.145h-0.063c-0.385-0.145-0.625-0.187-1.031-0.187c-0.541,0-1.114,0.041-1.697,0.27
			c-0.333,0.125-0.718,0.477-1.01,0.477c-0.114,0-0.25-0.145-0.25-0.415V7.554z"/>
		<path d="M37.824,3.473l0.03-0.111l0.059-0.13c0.493,0,0.976,0,1.449-0.037c0.04,0,0.128-0.074,0.168-0.074
			c0.414-0.055,0.838-0.13,1.281-0.167c0.03,0,0.217-0.074,0.256-0.074h0.069c0.187,0,0.552,0,0.552,0.556v0.111
			c-0.108,0.167-0.197,0.296-0.325,0.371c-0.059,0.037-0.266,0.111-0.266,0.111c-0.03,0-0.414-0.111-0.453-0.111h-0.217
			c-0.611,0-1.212,0-1.833,0.167c-0.187,0.074-0.384,0.185-0.572,0.241L37.893,4.4c-0.128,0-0.237-0.204-0.237-0.371
			C37.656,3.714,37.725,3.714,37.824,3.473z"/>
		<path d="M37.626,10.731c0-0.482,0.242-0.667,0.556-0.723h0.073c0.205,0,0.314,0.371,0.447,0.371c0.278,0,0.543-0.074,0.833-0.13
			c0.628-0.111,1.28-0.185,1.908-0.241c0.338-0.074,0.652-0.074,0.966-0.111h0.072c0.157,0,0.398,0.278,0.398,0.593
			c0,0.167-0.084,0.241-0.157,0.371c-0.048,0.037-0.242,0.352-0.29,0.408c0,0-0.109,0.315-0.157,0.352
			c-0.181,0.519,0.085,1.038-0.266,1.353c0,0-0.205,0.13-0.23,0.13h-0.097l-0.085-0.074c-0.024,0-0.338-0.056-0.423-0.056h-0.205
			c-0.181,0-1.099,0.056-1.28,0.056c-0.447,0.185-0.918,0-1.352,0.241c-0.423,0.241-0.713,0.723-1.099,1.038
			c-0.036,0.037-0.193,0.111-0.241,0.111c0,0-0.157-0.074-0.181-0.111l-0.048-0.074v-1.019c0-0.074,0.386-0.315,0.471-0.352
			l0.362-0.37c0.157-0.241,0.386-0.797,0.386-1.149C37.988,10.972,37.626,11.102,37.626,10.731z M38.858,11.102
			c-0.036,0-0.157,0.037-0.157,0.037c-0.036,0-0.314,1.038-0.314,1.241c0.543,0,1.063-0.13,1.618-0.204
			c0.386-0.037,0.736-0.037,1.123-0.111c0.085,0,0.314-0.074,0.314-0.074s0.133-0.241,0.157-0.296c0-0.074,0.085-0.186,0.085-0.186
			c0.048-0.13,0.205-0.611,0.254-0.723c-0.048,0-0.157-0.055-0.205-0.055h-0.471C40.476,10.731,39.643,10.861,38.858,11.102z"/>
		<path d="M44.023,9.306c0-0.053,0.148-0.39,0.213-0.461c0.049-0.107,0.213-0.107,0.328-0.16c0.312-0.142,0.853-0.479,1.067-0.763
			l-0.066-0.071c-0.049,0-0.328-0.107-0.361-0.107c-0.328-0.124-0.64-0.124-0.919-0.284c-0.263-0.177-0.263-0.532-0.263-0.798V6.291
			c0.115-0.16,0.263-0.16,0.427-0.284c0.427-0.302,0.853-0.639,1.214-1.029c0,0,0.115-0.195,0.181-0.231
			c0.066-0.071,0.164-0.302,0.213-0.302c0.213,0,0.739,0.231,0.739,0.532v0.035c-0.246,0.355-0.525,0.585-0.886,0.763L45.664,5.83
			c-0.099,0.071-0.099,0.23-0.213,0.302l-0.099,0.035c-0.049,0.071-0.263,0.302-0.328,0.355c0,0.373,1.1,0.532,1.133,0.639h0.427
			l0.919-0.993c0.049-0.035,0.213-0.266,0.263-0.337V5.776c0-0.302-0.476-0.302-0.476-0.638c0-0.053,0.115-0.124,0.148-0.124h0.279
			c0.049,0,0.427-0.035,0.476-0.035h0.099c0.279,0,0.64,0.337,0.64,0.621c0,0.177-0.033,0.337-0.148,0.461l-0.164,0.107
			c-0.64,0.656-1.28,1.295-1.969,1.88c-0.427,0.337-0.985,0.692-1.346,1.153c0.263,0.178,0.854,0.231,1.133,0.231h0.328
			c0,0,0.213-0.053,0.246-0.053c0.066,0,0.328-0.124,0.394-0.124c0.033,0,0.312-0.178,0.361-0.178
			c0.099-0.053,0.492-0.16,0.492-0.284c0-0.709-0.427-0.514-0.706-0.94l0.098-0.107c0.066-0.053,0.279-0.16,0.328-0.16l0.164,0.035
			c0.361,0.124,1.067,0.302,1.28,0.656v0.514c0,0-0.213,0.284-0.312,0.355l-0.607,0.515c-0.213,0.23-0.46,0.461-0.739,0.514
			c0,0-0.263,0.053-0.361,0.053c-0.115,0-0.115-0.053-0.213,0.071H46.37l-0.148-0.071H45.73c-0.427,0-0.804-0.16-1.165-0.284
			c-0.18-0.053-0.328,0-0.427-0.178c-0.115-0.16-0.115-0.16-0.115-0.337V9.306z"/>
		<path d="M43.738,12.353c0-0.069,0.276-0.518,0.276-0.587c0-0.034,0.069-0.225,0.069-0.259v-0.674c0.225,0,0.449,0.035,0.605,0.104
			c0.224,0.121,0.294,0.276,0.294,0.501c0,0.587-0.225,1.641-0.968,1.641c-0.276,0-0.276-0.276-0.276-0.501V12.353z"/>
		<path d="M46.14,13.069c0.069-0.38,0.173-0.795,0.173-1.192c0-0.155-0.069-0.345-0.069-0.57c0-0.104,0.121-0.104,0.19-0.104
			c0.484,0,0.605,0.449,0.674,0.847c0.035,0.225,0.035,0.639,0.035,0.899c0,0.415-0.259,0.57-0.605,0.743h-0.069
			c-0.104-0.104-0.328-0.328-0.328-0.518V13.069z"/>
		<path d="M49.415,12.787c-0.121,0-0.501-0.121-0.57-0.121c-0.034,0-0.225-0.173-0.225-0.225c-0.034-0.138-0.38-0.812-0.449-0.916
			l-0.104-0.276l-0.121-0.173c0-0.121,0.225-0.276,0.415-0.276h0.034c0.121,0.052,0.57,0.38,0.674,0.449
			c0.069,0,0.225,0.225,0.294,0.225c0.276,0.225,1.244,0.276,1.244,0.674c0,0.449-0.743,0.639-1.088,0.639H49.415z"/>
		<path d="M37.237,22.529l0.183,0.017c0.104,0.009,0.493,0.088,0.597,0.097l1.019,0.092c0.105,0.009,0.672,0.147,0.776,0.156
			l0.679,0.061c0.34,0.031,1.019,0.092,1.379-0.091c0.614-0.375,1.116-0.977,1.349-1.516c0.207-0.542,0.325-1.072,0.375-1.628
			l0.007-1.003l-0.581-0.125c-1.106-0.014-3.452,0.356-4.555,0.601c-0.456,0.088-1.52,0.488-1.86,0.457
			c-0.339-0.031-0.309-0.373-0.289-0.587l0.019-0.214c0.006-0.064,0.278-0.449,0.396-0.59l0.169-0.114
			c0.359-0.183,0.548-0.231,0.947-0.281c0.189-0.048,0.633-0.008,0.802-0.122c0.373-0.333,0.537-1.155,1.217-1.094
			c0.339,0.031,0.391,0.506,0.358,0.87c0,0-0.092,0.143-0.098,0.207l-0.118,0.14l-0.006,0.064l0.445,0.04
			c0.183,0.017,2.066-0.18,2.118-0.175l0.295-0.059c0.053,0.005,1.078,0.033,1.182,0.042c0.424-0.027,0.699-0.153,1.117-0.115
			c0.34,0.031,0.765,0.285,0.74,0.563c-0.025,0.278-0.332,0.466-0.514,0.73c-0.28,0.47-0.336,1.09-0.571,1.651
			c-0.219,0.67-0.387,1.366-0.684,2.029l-0.118,0.14c-0.008,0.086-0.115,0.399-0.123,0.485l-0.111,0.055
			c-0.182,0.264-0.401,0.654-0.815,0.853c-0.187,0.026-0.652,0.221-0.705,0.217c-0.104-0.009-0.683-0.019-0.788-0.028l-0.348,0.055
			l-0.183-0.017c-0.157-0.014-0.72-0.195-0.825-0.204c-0.078-0.007-0.405-0.188-0.405-0.188c-0.433-0.169-2.657-1.211-2.636-1.446
			C37.08,22.515,37.184,22.524,37.237,22.529z"/>
		<path d="M35.206,16.865l0.262-0.279c0.236-0.194,1.889-0.194,2.23-0.279l0.341-0.043c0.787-0.15,1.522-0.236,2.309-0.279
			c0.236,0,0.682,0.043,0.866-0.15c0.053-0.129,0.341-0.58,0.341-0.58c0-0.064-0.105-0.344-0.105-0.43h-1.207
			c-0.053,0-0.499,0.086-0.577,0.086h-0.446l-0.341,0.15c-0.052,0-0.577,0.129-0.682,0.129c-0.052,0-0.84,0.064-0.919,0.064
			c-0.341,0.086-0.708,0.215-1.128,0.215c-0.262,0-0.341-0.086-0.341-0.279c0-0.215,0.079-0.837,0.341-0.923
			c0.184,0,0.971-0.043,1.128-0.043c1.706-0.15,3.412-0.365,5.118-0.365h1.024c0.525,0.279,0.341,0.687,0.341,0.687l-0.079,0.086
			l-0.866,0.902c-0.525,0.58-0.577,0.923-1.443,1.331c-1.47,0.086-2.887,0.086-4.251,0.365c-0.551,0.065-1.076,0.344-1.653,0.344
			h-0.158c-0.105,0-0.184-0.15-0.184-0.15v-0.472L35.206,16.865z"/>
		<path d="M25.621,10.825l0.044,0.003c0.125,0.009,0.564,0.013,0.988,0.016c0.482,0.004,0.981,0.008,1.174,0.02
			c0.649-0.128,0.801-0.195,1.208-0.707c0.064-0.058,0.163-0.192,0.251-0.31c0.127-0.171,0.218-0.292,0.291-0.36l0.005-0.067
			c0.001-0.015,0.004-0.056-0.001-0.069c-0.122,0.005-0.496-0.045-0.889-0.095c-0.434-0.056-0.883-0.113-1.054-0.125
			c-0.24-0.017-0.456-0.11-0.664-0.2c-0.209-0.09-0.426-0.183-0.669-0.2C25.87,8.7,25.014,8.994,24.979,9.48
			c-0.017,0.233,0.075,0.337,0.203,0.482c0.081,0.091,0.171,0.194,0.237,0.338L25.621,10.825z"/>
		<path d="M23.483,13.811v1.26c0,0.306,0.44,0.54,0.661,0.54h0.121c0.048,0,0.274-0.045,0.456-0.087l0.153-0.081
			c0.291-0.077,0.567-0.135,0.846-0.193c0.944-0.196,1.921-0.399,2.599-1.055c0.188-0.209,0.592-0.635,0.812-0.866
			c-0.256,0.015-0.504,0.05-0.745,0.084c-0.315,0.044-0.64,0.09-0.978,0.09H26.32c-0.036,0-0.143,0.041-0.216,0.077l-0.056,0.013
			h-2.414L23.483,13.811z"/>
		<path d="M25.552,18.785l0.085,0.285c0.017,0.129,0.026,0.241,0.035,0.354c0.067,0.833,0.164,1.339,0.934,1.339
			c0.439,0,0.721-0.254,1.078-0.577c0.064-0.059,0.131-0.119,0.2-0.178c0.063-0.063,0.214-0.162,0.375-0.266
			c0.138-0.089,0.293-0.19,0.345-0.242c0.015-0.026,0.091-0.099,0.285-0.279c0.178-0.166,0.423-0.394,0.485-0.487l0.181-0.272
			c0.094-0.125,0.271-0.393,0.272-0.393c0.311-0.313,0.853-0.854,0.884-1.283c-0.505,0.124-1.138,0.302-1.482,0.454l-0.06,0.09
			l-0.032,0.015c-0.247,0.114-0.53,0.16-0.804,0.204c-0.184,0.029-0.358,0.058-0.511,0.104c-0.139,0.032-0.269,0.065-0.399,0.099
			c-0.261,0.066-0.53,0.136-0.797,0.177l-0.231,0.001c-0.053,0-0.115-0.026-0.279-0.103c-0.064-0.029-0.161-0.074-0.188-0.08
			L25.82,17.75c-0.096,0.051-0.268,0.643-0.268,0.842V18.785z"/>
	</g>
	<path d="M59.105,18.997c0-0.089,0.388-0.775,0.507-0.984c0.179-0.269,0.448-0.269,0.776-0.389c1.044-0.447,2.119-1.044,2.716-2.029
		c0.269-0.478,0.567-1.164,0.567-1.851c0-0.298-0.119-1.552-0.567-1.552c-0.507,0-1.373,1.074-1.761,1.373
		c-0.388,0.269-0.896,0.567-1.284,0.865l-0.06,0.09c-1.373,0.984-2.656,1.761-4.208,2.269c-0.507,0.06-1.074,0.388-1.552,0.388
		c-0.179,0-0.567-0.119-0.567-0.328v-0.06c0-0.209,0.06-0.896,0.06-0.896c0-0.209,0.119-0.389,0.328-0.508
		c0.776-0.179,1.433-0.269,2.238-0.478c0.388-0.09,0.866-0.388,1.254-0.478l0.507-0.09c0.567-0.208,1.164-0.597,1.731-0.895
		c0.866-0.478,1.642-0.955,2.208-1.851c0.12-0.09,0.209-0.269,0.209-0.269S62,10.998,61.941,10.938
		c-0.209-0.328-0.597-0.507-0.896-0.507c-0.388,0-0.656,0.179-0.985,0.298c-0.269,0.09-1.433,0.657-1.611,0.776
		c-0.329,0.09-0.508,0.299-0.776,0.508c-0.896,0.478-1.761,0.656-2.775,0.656c0-0.478,0.328-0.776,0.388-1.164l0.12-0.508
		c0-0.06,0.209-0.269,0.269-0.269c1.104-0.119,2.179-0.298,3.164-0.507c0.179-0.269,0.776-0.06,0.776-0.567
		c0-0.597-1.104-0.984-1.492-1.164l-0.06-0.089c-0.507-0.299-1.164-0.299-1.164-1.016c0-0.06,0-0.269,0.06-0.388
		c0.12-0.06,0.507-0.269,0.597-0.269h1.343c0.776,0.656,1.761,1.045,2.448,1.88h0.478c0,0,0.298-0.208,0.388-0.328
		c0.388-0.269,0.687-0.507,0.687-0.955c0-0.597-0.179-1.104-0.687-1.373V5.656c0-0.09,0.388-0.389,0.507-0.478h0.179
		c0.388,0,0.776,0.209,1.164,0.269c0,0.119,0.209,0.716,0.209,0.775v0.12c0,0.269-0.209,1.164-0.209,1.253
		c-0.179,0.896-1.671,1.403-1.671,1.851v0.209c0.119,0.119,0.716,0.687,0.776,0.776c0.12,0.119,0.507,0.388,0.627,0.507
		c0.597,0.567,1.253,2.03,1.253,2.806v0.389c0,0.089-0.269,0.597-0.269,0.686c-0.209,0.389-0.328,0.866-0.507,1.254
		c-0.716,1.373-2.06,2.447-3.224,3.433c-0.388,0.298-0.776,0.775-1.373,0.775c-0.388,0-0.567-0.656-0.567-1.104V18.997z
		 M73.103,22.131c0.328,0,1.373-0.179,1.671-0.179c0.597-0.119,1.253-0.328,1.821-0.597c0.208-0.12,0.716-0.389,0.716-0.389
		s0.269-0.566,0.388-0.775l0.06-0.299c0-0.09,0.329-0.716,0.388-0.896l0.119-0.209c0-0.06,0.269-1.343,0.269-1.433l0.119-0.388
		c0-0.299,0.269-2.238,0.269-2.537c0.12-0.775,0.329-1.552,0.329-2.328c0-0.209-0.12-0.984-0.329-0.984h-1.044l-0.179-0.12h-1.164
		c-0.507,0-3.044,0.209-3.611,0.329c-0.089,0-0.478,0.06-0.478,0.06c-0.119,0-0.776,0.119-0.896,0.119l-0.179,0.09
		c-0.12,0-0.896,0.119-0.985,0.119c-0.12,0-1.284,0.388-1.731,0.567l-0.209,0.119h-0.179c-0.329,0-0.388-0.119-0.388-0.388
		c0-0.299,0.06-0.687,0.179-0.896c0.089-0.12,0.597-0.299,0.776-0.299c1.164-0.209,2.417-0.269,3.611-0.597
		c0.269-0.06,0.388-1.164,0.388-1.224c0-0.209-0.179-0.328-0.388-0.328c-0.955,0-2.059,0.209-2.955,0.507
		c-0.448,0.209-1.045,0.478-1.552,0.478c-0.448,0-0.448-0.775-0.448-1.164V8.282l0.06-0.388c0-0.119-0.06-0.687-0.06-0.776
		c0-0.119-0.209-0.955-0.328-1.164c-0.06-0.298-0.179-0.687-0.388-0.895c0.12-0.061,0.209-0.18,0.329-0.18
		c0.567-0.209,1.164-0.388,1.731-0.388c3.223-0.209,6.417-0.597,9.7-0.597h1.671c0.298,0.119,0.597,0.328,0.597,0.597v0.119
		c-0.089,0.06-0.478,0.656-0.597,0.776l-0.09,0.06c-0.089,0.209-0.478,1.104-0.567,1.164c0,0.119-0.298,0.775-0.298,0.896
		c-0.12,0.209-0.388,0.716-0.388,0.775c0,0-0.328,0.328-0.388,0.328h-0.119c-0.09,0-0.209,0-0.269-0.208h-1.104
		c-0.955,0-1.82,0.089-2.716,0.208c-0.269,0.27-0.448,0.776-0.448,1.164c0,0.061,0,0.18,0.06,0.18h4c0.657,0,1.373-0.18,2.149-0.18
		c0.567,0,1.343,0.448,1.343,1.164c0,0.269-0.179,0.657-0.269,0.955c-0.298,0.776-0.388,1.553-0.597,2.328
		c-0.089,0.299-0.298,0.687-0.388,0.985c-0.179,0.865-0.179,1.761-0.298,2.746c-0.089,1.163,0.12,2.835-0.776,3.79
		c-0.896,0.985-2.835,1.761-4.179,1.761c-0.597,0-1.761-0.507-1.761-1.283V22.131z M68.268,20.46c0-0.269,0-0.657,0.179-0.955
		c0.09-0.119,0.597-0.597,0.657-0.717c0.329-0.269,0.507-0.656,0.776-0.955c0.209-0.209,0.508-0.597,0.508-0.597v-0.06H69.82
		c-0.119,0-0.776,0.179-0.896,0.179c-0.089,0-0.656,0.269-0.776,0.269c0,0-0.269,0.12-0.388,0.12h-0.089l-0.179-0.12v-0.566
		c0-0.478,0.06-0.866,0.06-1.373c0-0.389,0.119-0.567-0.179-0.866l-0.597-0.597l0.12-0.179l3.701-0.687
		c0.06,0,0.269-0.179,0.269-0.299V12.67c0.119-0.269,0.686-0.567,1.015-0.567c0.269,0,0.388,0.687,0.656,0.866h0.896l0.388-0.09
		c0.06,0,1.433-0.09,1.94-0.09h0.179c0.388,0,0.776,0.389,0.776,0.776v0.09c-0.507,0.955-0.776,2.029-1.343,3.014
		c-0.119,0.18-0.208,0.18-0.328,0.18c-0.269,0-0.269-0.06-0.567-0.06c-0.09,0-0.269,0-0.388,0.179
		c0.298,0.388,0.567,0.985,0.567,1.433c0,0.597-0.447,0.985-0.835,1.402c-0.12,0-0.329,0.209-0.329,0.209l-0.447,0.06
		c-0.985,0.329-1.88,0.508-2.955,0.598c-0.478,0.119-0.985,0.179-1.552,0.179c-0.09,0-0.209,0-0.269-0.06V20.46z M69.432,16.281
		h0.06l0.328-0.09c0.836-0.179,1.343-0.119,1.343-1.193c0-0.18,0-0.388-0.12-0.478h-0.776c-0.06,0-0.776,0.209-1.044,0.298
		l-0.179,0.09v0.478C69.044,15.595,69.044,16.281,69.432,16.281z M69.701,7.895h0.119l0.269-0.119c0.12,0,0.687-0.06,0.776-0.06
		c0.388-0.12,0.298-0.717,0.298-0.985c0-0.388,0-0.687-0.12-1.074h-0.448c-0.328,0-0.895,0-1.104,0.298
		c0,0.209-0.06,1.164-0.06,1.373v0.448C69.492,7.895,69.611,7.895,69.701,7.895z M70.596,19.296c0.567,0,2.239-0.388,2.626-0.687
		c0.09-0.09,0.09-0.209,0.09-0.269c0-0.388,0-0.717-0.269-0.985l-0.209-0.119c0,0-0.299-0.388-0.388-0.388h-0.388
		c-0.686,0.716-1.402,1.373-1.85,2.268C70.208,19.386,70.477,19.296,70.596,19.296z M72.327,15.296c0,0.209,0.388,0.299,0.507,0.299
		c0.089,0,0.388-0.09,0.478-0.09c0.119,0,0.896-0.119,0.955-0.119c0.507-0.09,0.716-0.656,0.776-1.045v-0.388
		c-0.179,0-1.343,0.09-1.612,0.09c-0.328,0-0.985,0.179-0.985,0.179l-0.119,0.119V15.296z M73.222,7.387c0.388,0,0.657,0,1.164-0.06
		c0.269-0.209,0.478-1.671,0.478-2.06c-0.776,0-1.373,0-2.029,0.12c-0.12,0-0.299,0.06-0.299,0.06
		c-0.208,0.119-0.089,0.507-0.089,0.597c0,0.508,0,0.776,0.089,1.283C72.835,7.387,72.924,7.387,73.222,7.387z M76.207,7.208h0.328
		c0.388,0,1.224-0.09,1.224-0.09l0.12-0.119l0.597-1.433V5.268h-2.149l-0.119,0.12c-0.06,0.06-0.388,0.775-0.388,0.835
		c0,0.12-0.179,0.598-0.179,0.717C75.64,7.208,76.028,7.208,76.207,7.208z"/>
	<path d="M93.393,18.788c-0.448,0.12-0.955,0.328-1.433,0.389c-0.12,0-0.507,0.119-0.687,0.119c-0.597,0.09-1.373,0.388-1.94,0.597
		c-0.776,0.269-1.552,0.567-2.208,0.955c-0.12,0-0.776,0.478-0.896,0.478c-0.388,0.179-0.985,0.687-1.552,0.687
		c-0.388,0-0.716-0.388-0.716-0.776c0-0.775,0.597-1.552,0.985-2.119c0.179-0.328,0.806-0.328,1.015-0.328
		c0.269-0.06,0.567-0.179,0.835-0.269c0.12,0,0.597-0.119,0.716-0.119l0.179-0.06c0.089,0,0.478-0.119,0.597-0.119l0.388-0.09
		c0.179,0,0.776-0.179,0.836-0.179c0.985-0.239,2.149-0.329,3.104-0.717l0.119-0.119v-2.597c0-0.119-0.119-0.299-0.119-0.388
		c0-0.12-0.06-0.807-0.06-0.896c0-0.12-0.208-0.776-0.208-0.955c-0.12-0.389-0.299-1.373-0.776-1.373
		c-0.388,0-0.567,0.209-0.955,0.269c-1.164,0.388-2.149,0.716-3.432,0.716c-0.657,0-0.567-0.775-0.567-1.283v-0.597
		c0.119-0.06,0.388-0.388,0.507-0.508c0,0,0.388-0.06,0.448-0.06c1.671-0.328,3.312-0.716,4.984-0.984
		c0.657-0.12,1.343-0.508,2.06-0.687c0.388-0.09,0.388,0,0.657-0.269c0-0.12,0.179-0.717,0.179-0.776c0-0.119,0.12-0.776,0.12-0.896
		c0.089-0.388,0.478-0.388,0.776-0.388h0.388c0,0,0.478,0.388,0.597,0.567l0.06,0.208v0.12l-0.06,0.388v0.06
		c0,0.328,0.836,0.508,1.045,0.508l0.298,0.089c1.253,0.508,2.537,0.567,3.88,0.776c0.12,0,0.388,0.119,0.507,0.119
		c0.209,0,2.03,0.06,2.209,0.06c0.597,0,0.716,0.12,0.716,0.717v0.06c0,0.119-0.209,0.627-0.209,0.717c0,0-0.12,0.179-0.179,0.179
		c-0.12,0.119-0.388,0.328-0.507,0.388h-0.776c-0.776,0-1.433-0.179-2.209-0.179h-0.208c0,0-0.12,0.179-0.12,0.298
		c-0.448,1.762-0.448,3.492-0.448,5.253v0.896l0.179,0.18c0.388,0,2.149,0.209,2.537,0.269c0.657,0.119,2.328,0.388,2.328,0.388
		l0.06,0.119h1.761c0.119,0,0.388-0.119,0.507-0.119h2.029v0.209c0,0-0.955,1.074-1.462,1.463c-0.567,0.597-1.074,0.895-1.85,1.104
		h-0.09c-0.896,0-1.552-0.388-2.328-0.597l-0.507-0.119c-0.06,0-1.224-0.448-1.433-0.448c-0.567-0.208-1.164-0.208-1.731-0.328
		c-0.328-0.06-0.716-0.179-1.104-0.269h-1.85c-1.164,0-2.328-0.119-3.492,0.09c-0.089,0-0.985,0.179-1.044,0.179H93.393z
		 M94.288,17.058h1.552l0.329-0.12h0.955c0.269,0,1.82-0.089,2.148-0.089c0.179-0.12,0.448-0.12,0.448-0.299v-0.209
		c0-0.06-0.06-0.567-0.06-0.656v-0.119c0.179-0.776,0.06-1.612,0.179-2.508c0.089-0.984,0.209-1.939,0.269-2.925v-0.119
		c0-0.687-1.044-0.567-1.433-0.776l-0.298-0.179c-0.597-0.328-1.253-0.717-1.94-0.717c-0.478,0-0.657,0.329-0.985,0.508
		c-0.06,0-0.447,0.269-0.567,0.269l-0.089,0.119l-1.075,0.717c-0.089,0.06-0.089,0.179-0.089,0.269v0.179
		c0.089,0.328,0.388,1.761,0.478,2.06c0.119,0.478,0.119,0.985,0.179,1.492V17.058z"/>
	<path d="M128.993,20.235c-2.597,0-5.253,0.389-7.879,0.776c-0.388,0.119-0.776,0.209-1.164,0.388
		c-0.478,0.209-0.985,0.209-1.433,0.389c0,0-0.597,0.328-0.776,0.388c-0.209,0.119-1.283,0.716-1.492,0.776
		c-0.179,0.328-1.075,0.716-1.463,0.716c-0.656,0-0.656-1.283-0.656-1.552c0-0.508,0.179-0.985,0.567-1.283
		c0.209-0.09,0.896-0.209,1.164-0.209c0.716-0.06,1.373-0.18,2.06-0.269c0.208,0,1.044-0.239,1.164-0.239l0.269-0.06
		c0.119,0,1.283-0.119,1.373-0.119c1.164-0.09,2.328-0.389,3.522-0.478h0.269c0.209,0,0.985-0.119,1.164-0.119
		c0.329-0.27,0.597-0.448,0.597-0.955v-0.209c0,0-0.269-0.061-0.388-0.061h-0.089c-0.955,0.061-2.06,0.18-3.015,0.389
		c-0.597,0.06-1.104,0.269-1.671,0.388l-0.269,0.06h-0.329c-0.06,0-0.179-0.179-0.179-0.179v-1.045c0,0,0.179-0.209,0.298-0.209
		c0.209-0.119,0.657-0.298,0.657-0.298h1.552c0.209-0.209,0.627-0.09,0.836-0.09c0.06,0,1.224-0.119,1.343-0.119h0.657
		c0.388,0,0.716-0.448,0.716-0.836l-0.119-0.209h-2.418c-0.507,0-1.791,0.209-1.791,0.209l-0.448,0.447h-0.119
		c-0.388,0-0.657-0.656-0.657-0.955V15.58c0.179-0.687,0.388-1.373,0.388-2.149c-0.12-0.388-0.12-0.984-0.388-1.373
		c-0.209-0.269-0.716-0.566-0.716-1.044h2.06c0.478,0,0.865-0.209,1.373-0.299c2.895-0.388,5.939-0.388,8.954-0.478
		c0-0.119,0.209-0.119,0.269-0.119h0.119c0.209,0.119,0.866,0.388,0.985,0.507c0.179,0.09,0.179,0.18,0.179,0.389
		c0,0.566-0.507,0.775-0.687,1.253c-0.269,0.776-0.597,1.463-0.656,2.418c-0.329,0.209-0.716,0.984-0.985,0.984
		c-0.299,0-0.508-0.089-0.806-0.089h-0.269c-0.12,0-0.776,0.089-0.896,0.089h-0.388c-0.597,0-1.761-0.089-1.761,0.776
		c0,0.179,0,0.299,0.329,0.388h0.776c1.164,0,2.328-0.269,3.611-0.269h0.388c0.269,0.06,0.179,0.389,0.179,0.448v0.328l-0.567,0.567
		h-0.985c-0.507,0-2.746,0.089-3.224,0.089c-0.388,0-0.567,0.299-0.567,0.687v0.269c0.06,0.119,0.388,0.209,0.448,0.209h1.104
		c1.164,0,2.328-0.209,3.492-0.209h4.179c0.089,0,0.865-0.06,0.985-0.06c0.269,0,1.462-0.119,1.731-0.119l0.119-0.09h0.657
		c0,0.388-0.089,0.865-0.269,1.254c-1.074,0.806-2.358,1.402-3.731,1.402h-0.06c-0.896-0.209-1.88-0.507-2.716-0.716
		c-0.985-0.18-2.06-0.18-3.044-0.269c-0.119,0-0.896-0.12-0.955-0.12H128.993z M115.681,9.729c-0.328-0.298-0.328-1.164-0.328-1.552
		s0.448-0.687,0.627-1.074c0.208-0.269,0.269-0.776,0.478-1.045c0.179-0.328,0.686-0.597,0.955-0.775
		c0.119-0.12,0.328-0.239,0.328-0.239c0.06,0,0.657-0.09,0.776-0.09c0.388-0.119,0.776-0.179,1.164-0.298
		c0.955-0.209,1.94-0.269,2.895-0.389c0.209,0,1.492-0.089,1.671-0.089c0.089,0,0.597-0.119,0.657-0.119
		c0.209,0,1.104-0.18,1.164-0.389c0-0.06,0.209-0.775,0.209-0.836V1.94l-0.09-0.09l-0.388-0.567V0.508
		C126.008,0.299,126.187,0,126.456,0h0.209l0.12,0.119c0.06,0.06,0.835,0.389,0.955,0.448c0.269,0.119,0.388,0.209,0.388,0.507
		c0,0.389-0.119,0.657-0.179,1.045c0,0.119-0.12,0.597-0.12,0.716V3.79l0.179,0.209h0.716c0.06,0,0.567-0.119,0.657-0.119
		c0.179,0,1.552,0.119,1.791,0.119c0.06,0,0.567-0.119,0.657-0.119h0.119c0.179,0,1.821,0.119,2,0.119
		c1.492,0,2.716-0.119,3.82,0.955c0,0,0.179,0.209,0.179,0.329c0.089,0.269,0.478,1.044,0.478,1.164v0.566
		c-0.209,0.985-0.657,1.552-1.433,2.149l-0.209,0.06h-0.12l-0.06-0.18l-0.329-0.089c-0.388-0.18-0.388-0.567-0.388-0.955
		c0-0.508,0.119-0.985,0.119-1.552V5.73c-0.298-0.179-0.507-0.269-0.895-0.269c-0.388-0.119-1.552-0.179-1.612-0.179h-5.551
		c-0.209,0.06-0.209,0.06-0.388,0.06c-0.209,0-0.328-0.06-0.388-0.06c-0.597,0-0.985,0.269-1.492,0.269h-1.044
		c-0.896,0-1.671,0.298-2.447,0.388c-0.12,0-0.776,0.119-0.896,0.119c-0.06,0-1.045,0.18-1.343,0.269
		c-0.209,0-1.044,0.299-1.164,0.299c-0.597,0.209-0.985,0.388-1.044,0.984c0,0.061-0.209,1.045-0.209,1.164
		c0,0.061-0.179,0.657-0.179,0.776l-0.119,0.179c-0.09,0.09-0.597,0.598-0.657,0.687h-0.328l-0.179-0.298L115.681,9.729z
		 M118.398,25.011c-0.09,0-0.269,0-0.269-0.179c0.388-0.388,0.836-0.896,1.224-1.164c0.328-0.328,0.716-0.507,0.985-0.776
		c0.298-0.388,0.119-0.597,0.687-0.716h0.089c0.388,0,1.164,0.388,1.164,0.776c0,0.328,0,0.716-0.269,0.895
		c0,0-0.716,0.389-0.985,0.598c-0.179,0.06-0.687,0.388-0.687,0.388c-0.478,0.179-1.045,0.06-1.552,0.06l-0.269,0.119H118.398z
		 M118.905,2.896c-0.12,0-0.388-0.269-0.507-0.269v-0.12l0.119-0.06c0.06,0,0.657-0.209,0.776-0.209l1.552-0.566
		c0.269-0.209,0.448-0.329,0.835-0.329h0.209c0.12,0.12,0.687,0.717,0.776,0.776c0.119,0.209,0.119,0.328,0.119,0.508
		c0,0,0.06,0.388-0.119,0.388c-0.597,0.209-1.164,0.209-1.761,0.209c-0.776,0-1.224,0-1.94-0.209L118.905,2.896z M131.351,7.88
		c-0.507,0.566-0.806,1.73-1.671,1.73c-0.388,0-0.776-0.06-1.283-0.06c-1.343,0-2.597,0.269-3.94,0.388
		c-0.328,0.299-0.776,0.299-1.283,0.299c-0.12,0-0.209,0.09-0.329-0.119c-0.06-0.18-0.179-0.567-0.179-0.776
		c0-0.388,0.179-0.776,0.179-1.164V7.999l-0.567-0.597V7.014c0-0.119,0.298-0.388,0.388-0.388h0.179c0.209,0,0.388,0,0.507,0.09
		h0.597c0.955,0,2.06-0.209,3.015-0.269c1.253-0.12,2.537-0.12,3.76-0.12h0.896c0,0,0.328,0.12,0.328,0.18v0.716l-0.119,0.06
		L131.351,7.88z M126.277,13.729c0,0-0.985,0.089-1.373,0.089c-0.657,0.09-1.552,0.09-2.238,0.299c-0.09,0-0.209,0.09-0.209,0.09
		v0.687c0,0.089,0.328,0.269,0.388,0.269h0.12c0.716-0.09,1.552-0.09,2.268-0.269l0.269-0.209h0.776
		c0.179-0.09,0.179-0.478,0.179-0.687v-0.18L126.277,13.729z M122.576,12.744c0,0.09,0.209,0.389,0.269,0.389h0.209l0.418-0.09
		c0.089,0,1.044-0.09,1.164-0.09l0.388-0.119c0.597-0.09,1.373,0.119,1.373-0.776c0,0,0-0.388-0.119-0.388h-1.761
		c-0.448,0.209-1.94,0.119-1.94,0.985V12.744z M124.725,21.608l1.284,0.567v2.656l-0.508,0.567h-0.985l-0.06-0.12
		c-0.12-0.179-0.328-0.835-0.328-0.835v-2.537c0-0.119,0.388-0.299,0.507-0.299H124.725z M127.948,7.61
		c-0.12,0-0.507,0.061-0.597,0.061c-0.955,0.119-1.851,0.328-2.835,0.328c-0.06,0.06-0.06,0.269-0.06,0.447
		c0,0.119,0,0.328,0.179,0.389h0.865c0.12,0,0.388-0.061,0.508-0.061c1.044-0.119,2.119-0.119,3.164-0.328
		c0.388-0.06,0.507-0.566,0.507-0.836H127.948z M127.56,14.386c0,0.119,0.269,0.299,0.388,0.299h1.611
		c0.329,0,1.373-0.18,1.671-0.18c0.209-0.209,0.329-0.984,0.329-1.283c-1.015,0-2.06,0.119-3.044,0.299
		c-0.119,0-0.687,0.09-0.776,0.09c0,0.119-0.179,0.597-0.179,0.686V14.386z M131.619,11.282c-1.164,0.119-2.447,0.119-3.611,0.209
		c-0.179,0.089-0.179,0.478-0.179,0.687c0,0.269,0.179,0.388,0.507,0.388c0.657,0,1.224-0.119,1.94-0.119
		c0.388,0,0.657,0.119,0.955,0.298c0.12,0.09,0.329,0.209,0.329,0.209c0.269,0,0.388-1.074,0.388-1.373v-0.179L131.619,11.282z
		 M128.336,23.847c-0.209-0.566-0.328-1.283-0.328-1.85c0-0.269,0.119-0.598,0.507-0.598h0.089c0.776,0.209,0.955,0.389,0.955,1.284
		c0,0.388,0,1.939-0.448,1.939c-0.208,0-0.507,0-0.597-0.179L128.336,23.847z M131.619,2.716c-0.567,0-0.955-0.388-0.955-0.984
		c0-0.389,0-0.389,0.06-0.776c0-0.06,0.12-0.269,0.12-0.269h2.537c0.12,0,0.776-0.299,0.896-0.299h0.06l0.209,0.18
		c0,0.597-0.388,1.373-0.865,1.671c-0.12,0-0.776,0.269-0.896,0.269l-0.179,0.12c0,0-0.657,0.089-0.865,0.089H131.619z
		 M132.783,24.056c-0.06-0.119-0.269-0.716-0.388-0.775c-0.06-0.328-0.388-0.776-0.388-0.985c0-0.119,0-0.179,0.209-0.298h0.686
		l0.388,0.298c0.089,0.09,0.478,0.269,0.597,0.389c0.388,0.269,0.657,0.478,1.045,0.775c0.507,0.388,1.283,0.478,1.283,1.164v0.269
		c0,0.119-0.328,0.328-0.388,0.328c-0.209,0-0.896,0.06-1.104,0.06l-0.269,0.12h-0.12c-0.179,0-0.179,0-0.388-0.12
		c-0.179-0.06-0.567-0.269-0.567-0.269c-0.089-0.119-0.388-0.775-0.478-0.895L132.783,24.056z"/>
</g>
</svg>
