<?xml version="1.0" encoding="utf-8"?>
<!-- Generator: Adobe Illustrator 17.0.0, SVG Export Plug-In . SVG Version: 6.00 Build 0)  -->
<!DOCTYPE svg PUBLIC "-//W3C//DTD SVG 1.1//EN" "http://www.w3.org/Graphics/SVG/1.1/DTD/svg11.dtd">
<svg version="1.1" id="Layer_1" xmlns="http://www.w3.org/2000/svg" xmlns:xlink="http://www.w3.org/1999/xlink" x="0px" y="0px"
	 width="139.667px" height="25.833px" viewBox="0 0 139.667 25.833" enable-background="new 0 0 139.667 25.833"
	 xml:space="preserve">
<g>
	<path d="M11.269,22.53c0-1.343,0.209-2.716,0.209-4.059v-4c0-0.089,0.06-0.865,0.06-0.985v-0.06l-0.06-0.448
		c0-0.06,0.06-0.388,0.06-0.448V9.487l-0.06-0.06H11.09c-0.716,0-1.283,0.179-1.88,0.269c-0.06,0-0.567,0.12-0.656,0.12
		c-0.12,0-0.687,0.06-0.896,0.179c-0.866,0.208-1.851,0.388-2.626,0.776L4.852,10.98c-0.089,0.835-0.298,1.731-0.298,2.626
		c0,0.209,0,0.388,0.209,0.388c1.044,0,1.94-0.298,2.895-0.687c0.089,0,0.776-0.388,0.896-0.388c0.089,0,0.776-0.12,0.865-0.12
		v0.298c-0.269,1.104-0.985,2.149-2.059,2.657H6.583c-0.567,0-1.164-0.12-1.82-0.12H4.464c-0.208,0-0.865,0.179-0.985,0.179
		c-0.179,0.209-0.388,0.328-0.567,0.388c-0.597,0.388-0.985,0.895-1.642,0.895c-0.597,0-1.015-0.388-1.015-0.955
		c0-1.552,1.671-2.149,2.835-2.537v-1.671c0,0-0.179-0.507-0.269-0.567c-0.299-0.388-0.776-0.716-0.896-1.164
		c0-0.119-0.089-0.776-0.089-0.895C1.748,9.04,1.659,8.831,1.659,8.443c0-0.179,0.089-1.015,0.478-1.015h0.089
		c0.09,0,0.597,0.209,0.687,0.209c0.298,0.119,0.955,0.417,1.074,0.417c0.269,0.209,0.388,0.388,0.776,0.388
		c1.731,0,3.373-0.388,5.163-0.627c0.06,0,0.955-0.06,1.224-0.06h0.209l0.12-0.209V6.652c0-0.567,0.06-1.224-0.329-1.731
		l-0.269-0.269l-0.119-0.209c-0.448-0.388-1.045-0.298-1.045-1.074V3.16l0.478-0.06c0.567-0.209,0.955-0.508,1.552-0.508h0.567
		c0,0,0.329,0.12,0.388,0.12c0.776,0.179,0.716,0.448,0.716,1.224v0.329C13.299,5.22,13.09,6.085,13.09,7.16
		c0,0.089,0,0.388,0.209,0.388c0.895,0,1.85-0.119,2.835-0.119c1.463,0,3.015,0.119,4.447,0.388c0.209,0,0.597,0.12,0.597,0.12
		l0.12-0.12V7.16c0-0.179,0-0.507,0.269-0.507h1.462c0.269,0.388,0.985,0.388,0.985,1.104c0,0.298-0.089,0.388-0.208,0.687
		C23.626,8.92,23.119,9.04,22.73,9.428c-0.657,0.657-1.164,1.164-1.761,1.94c0,0-0.179,0.179-0.179,0.269
		c-0.09,0.179-0.388,0.388-0.478,0.687l0.209,0.09c0.955,0,2.119,0,2.895,0.686v0.209c0,0.388-0.687,0.955-1.075,0.955H20.79
		c-0.209,0-1.433-0.06-1.642-0.06h-4.507l-0.06-0.119v-1.373l0.06-0.179l0.388-0.388h0.597c0.896,0,1.791,0.179,2.746,0.179
		c0.269,0,1.94-2.238,1.82-2.507c0-0.12-0.06-0.209-0.179-0.209c-0.657,0-1.164-0.179-1.821-0.298
		C17.03,9.219,15.746,9.1,14.582,9.1c-0.507,0-0.985-0.06-1.373,0.119c0,0.388-0.119,0.776-0.179,1.164v8.984
		c0,0.06,0.06,1.343,0.179,1.82c0.09,0.507,0.269,0.955,0.269,1.462c0,0.269-0.567,0.866-0.776,1.045
		c-0.179,0.119-0.388,0.119-0.567,0.119c-0.269,0-0.597,0-0.866-0.179V22.53z"/>
	<path d="M30.887,16.829v-0.567c-0.179-3.433-0.179-6.835-0.179-10.237c-0.12-0.328-0.209-0.597-0.209-0.896
		c0-0.269,0.269-0.657,0.597-0.776c0.179,0,1.224-0.089,1.433-0.089c0.179,0,1.462-0.299,1.671-0.299
		c0.567-0.089,4-0.269,4.955-0.388c0.269,0,2.328-0.09,2.597-0.09c0.119,0,1.164-0.119,1.283-0.119l3.701-0.179
		c0.179,0,1.851,0.12,2.447,0.179l0.388,0.119c0.776,0.09,1.224,0,1.611,0.657c0,0.12,0.209,0.388,0.209,0.388v0.119
		c0,0.866-0.478,1.642-0.597,2.417c0,0.12-0.06,0.806-0.06,0.896c0,0.12-0.119,0.567-0.119,0.687c0,0.089-0.089,2.029-0.089,2.716
		c0,0.209,0.089,0.388-0.12,0.597c0,0.687-0.179,3.791-0.179,4.477v0.388c0,0.985,0.12,2.03,0.12,3.044v1.164
		c-0.12,0.388-0.388,0.776-0.776,0.776c-0.507,0-1.104-0.209-1.552-0.328H47.9c-0.09,0-1.045-0.06-1.164-0.06h-1.821
		c-3.223,0-6.447,0.179-9.67,0.657c-0.657,0.12-1.373,0.388-1.94,0.567c-0.478,0.209-0.985,0.508-1.433,0.508
		c-0.717,0-1.104-0.955-1.104-1.552v-4C30.768,17.486,30.887,16.919,30.887,16.829z M32.32,19.158c0,0.119,0.12,0.716,0.12,0.776
		v0.507c0,0.09,0.089,0.269,0.089,0.388h0.12l0.06-0.12l0.209,0.12h0.298c0.09,0,0.388-0.12,0.478-0.12
		c1.164-0.179,2.328-0.269,3.522-0.388c1.552-0.06,3.193-0.06,4.746-0.269l0.298-0.12c0.269,0,0.478,0.12,0.657,0.12h0.209
		c0.119,0,0.567-0.12,0.687-0.12c0.208,0,2.716-0.06,3.611-0.06h0.776l0.209-0.12l0.06-0.388l0.12-0.329
		c0.089-0.179,0.208-0.776,0.208-0.776v-2.597h-0.597l-0.179,0.09h-0.716c-0.776,0-1.343-0.09-2.119-0.388
		c-0.269-0.089-0.388-0.298-0.716-0.298c-0.388,0-0.269,0.209-0.567,0.478l-1.044,1.104v0.06c0.269,0,1.611,0.208,1.94,0.208
		c0.179,0,0.507,0.12,0.507,0.299c0,0.388-0.209,0.865-0.627,0.865h-1.552l-0.388-0.089h-0.269c-0.209,0-0.329,0-0.507,0.089
		c-0.478,0-2.985,0.12-3.492,0.12c-0.089,0-0.657,0.06-0.865,0.06c-0.627,0.12-1.015,0.329-1.582,0.388h-0.776
		c-0.269,0-0.478,0.209-0.657,0.209c-0.328,0-0.388-0.269-0.388-0.597c0-0.06,0.179-0.835,0.388-0.955
		c1.82-0.269,3.671-0.388,5.551-0.478c0.269,0,1.552-0.119,1.821-0.119c0.298,0,0.567-0.657,0.687-0.836
		c0.089-0.119,0.656-1.104,0.776-1.194c0.089-0.209,0.089-0.209,0.089-0.388v-0.09c-0.776-0.687-1.253-1.373-1.94-2.149
		l-0.388-0.388c-0.388-0.478-0.597-1.253-1.164-1.641c-0.209-0.209-0.269-0.12-0.597-0.12c-0.776,0-1.552,0.12-2.328,0.179
		c-0.687,0.119-1.283,0.119-1.85,0.328l-0.09,0.06c-0.179,0.119-0.776,0.328-0.955,0.328c-0.388,0-0.716-0.12-0.776-0.507
		c0-0.09,0.179-0.776,0.269-0.866c0.179-0.388,1.075-0.388,1.462-0.507c1.253-0.179,2.656-0.269,3.88-0.567V8.144
		c0-0.657-0.955-1.164-0.955-1.94c0-0.299,0.388-0.388,0.686-0.507h0.209c0.955,0,0.836,0.776,1.164,1.492
		c0.06,0.179,0.388,0.687,0.388,0.776l0.179,0.179c0.388,0.209,0.866,0,1.254,0.209h1.851l0.269-0.269V7.756
		c0-0.567-0.179-0.567-0.179-0.955c0-0.328,0.567-0.388,0.776-0.388c0.418,0,1.194,0.179,1.194,0.776
		c-0.119,0.119-0.298,0.687-0.388,0.776l-0.119,0.12v0.06c0,0.209,0.119,0.388,0.328,0.388c0.06,0,0.657,0.12,0.776,0.12
		c0.179,0.089,0.179,0.209,0.179,0.388c0,0.269-0.119,0.478-0.388,0.656c-0.12,0-0.776,0.209-0.955,0.209h-0.388
		c-0.716,0-1.403-0.089-2.059-0.089c-0.12,0-0.597,0.089-0.717,0.089v0.12c0,0.06,0.12,0.269,0.12,0.269l0.089,0.119
		c0.12,0.06,0.567,0.657,0.687,0.776l0.09,0.09l0.179,0.089l0.896,0.896c0.09,0.089,0.388,0.269,0.597,0.269h0.119
		c0.448-0.388,0.448-1.164,1.164-1.164h0.179c0.209,0.12,0.776,0.388,0.776,0.388v0.507c0,0-0.388,0.478-0.567,0.567
		c-0.329,0.299-0.508,0.209-0.716,0.478c0.507,0.687,2.059,1.373,2.835,1.373c0.388,0,0.269-0.388,0.269-0.687
		c0-0.089,0.119-1.074,0.119-1.164v-0.478c0-0.089,0.09-1.164,0.09-1.283V9.308c0-0.179,0.119-1.343,0.119-1.552V5.697
		c0-0.06-0.119-0.448-0.209-0.567c0,0-0.507-0.209-0.567-0.209c-0.12,0-0.896-0.06-1.104-0.06h-1.343
		c-0.089,0-0.388-0.119-0.478-0.119h-1.074c-0.985,0-2.06,0.119-3.044,0.179l-0.388,0.12c-0.836,0.089-1.731,0-2.597,0.089
		c-0.955,0.12-1.97,0.179-2.955,0.298c-0.776,0.09-1.82,0.09-2.507,0.478c0,0-0.089,0.12-0.089,0.179c0,0.12-0.12,0.328-0.12,0.328
		c0,0.06-0.06,0.448-0.06,0.567v0.716c0,0.06-0.329,0.776-0.329,0.835c0,0.12-0.06,0.985-0.06,1.373v1.761
		c-0.119,0.776-0.119,4.477-0.119,5.253L32.32,19.158z M35.424,12.741l0.507-0.298c0.597-0.478,0.657-1.254,1.552-1.254
		c0.597,0,0.985,0.299,1.492,0.478l0.448,0.09c0.507,0.209,0.716,0.388,1.104,0.597c0.388,0.179,0.448,0.478,0.448,0.866v0.388
		c-0.06,0.478-0.388,0.865-0.776,1.164c-0.179,0.208-0.656,0.388-0.955,0.388c-1.253,0.209-2.537,0.328-3.82,0.328
		c-0.656,0-0.835-0.507-0.835-1.193C34.588,13.696,34.976,13.129,35.424,12.741z M36.528,13.905h0.269
		c0.298,0,1.194-0.089,1.284-0.089c0.298,0,1.074-0.299,1.074-0.597c0-0.388-0.567-0.776-0.896-0.955
		C37.811,12.263,36.528,13.427,36.528,13.905z"/>
	<path d="M57.727,16.829v-0.567c-0.179-3.433-0.179-6.835-0.179-10.237c-0.12-0.328-0.209-0.597-0.209-0.896
		c0-0.269,0.269-0.657,0.597-0.776c0.179,0,1.224-0.089,1.433-0.089c0.179,0,1.462-0.299,1.671-0.299
		c0.567-0.089,4-0.269,4.955-0.388c0.269,0,2.328-0.09,2.597-0.09c0.119,0,1.164-0.119,1.283-0.119l3.701-0.179
		c0.179,0,1.851,0.12,2.447,0.179l0.388,0.119c0.776,0.09,1.224,0,1.611,0.657c0,0.12,0.209,0.388,0.209,0.388v0.119
		c0,0.866-0.478,1.642-0.597,2.417c0,0.12-0.06,0.806-0.06,0.896c0,0.12-0.119,0.567-0.119,0.687c0,0.089-0.089,2.029-0.089,2.716
		c0,0.209,0.089,0.388-0.12,0.597c0,0.687-0.179,3.791-0.179,4.477v0.388c0,0.985,0.12,2.03,0.12,3.044v1.164
		c-0.12,0.388-0.388,0.776-0.776,0.776c-0.507,0-1.104-0.209-1.552-0.328H74.74c-0.09,0-1.045-0.06-1.164-0.06h-1.821
		c-3.223,0-6.447,0.179-9.67,0.657c-0.657,0.12-1.373,0.388-1.94,0.567c-0.478,0.209-0.985,0.508-1.433,0.508
		c-0.717,0-1.104-0.955-1.104-1.552v-4C57.608,17.486,57.727,16.919,57.727,16.829z M59.16,19.158c0,0.119,0.12,0.716,0.12,0.776
		v0.507c0,0.09,0.089,0.269,0.089,0.388h0.12l0.06-0.12l0.209,0.12h0.298c0.09,0,0.388-0.12,0.478-0.12
		c1.164-0.179,2.328-0.269,3.522-0.388c1.552-0.06,3.193-0.06,4.746-0.269l0.298-0.12c0.269,0,0.478,0.12,0.657,0.12h0.209
		c0.119,0,0.567-0.12,0.687-0.12c0.208,0,2.716-0.06,3.611-0.06h0.776l0.209-0.12l0.06-0.388l0.12-0.329
		c0.089-0.179,0.208-0.776,0.208-0.776v-2.597h-0.597l-0.179,0.09h-0.716c-0.776,0-1.343-0.09-2.119-0.388
		c-0.269-0.089-0.388-0.298-0.716-0.298c-0.388,0-0.269,0.209-0.567,0.478l-1.044,1.104v0.06c0.269,0,1.611,0.208,1.94,0.208
		c0.179,0,0.507,0.12,0.507,0.299c0,0.388-0.209,0.865-0.627,0.865h-1.552l-0.388-0.089h-0.269c-0.209,0-0.329,0-0.507,0.089
		c-0.478,0-2.985,0.12-3.492,0.12c-0.089,0-0.657,0.06-0.865,0.06c-0.627,0.12-1.015,0.329-1.582,0.388h-0.776
		c-0.269,0-0.478,0.209-0.657,0.209c-0.328,0-0.388-0.269-0.388-0.597c0-0.06,0.179-0.835,0.388-0.955
		c1.82-0.269,3.671-0.388,5.551-0.478c0.269,0,1.552-0.119,1.821-0.119c0.298,0,0.567-0.657,0.687-0.836
		c0.089-0.119,0.656-1.104,0.776-1.194c0.089-0.209,0.089-0.209,0.089-0.388v-0.09c-0.776-0.687-1.253-1.373-1.94-2.149
		l-0.388-0.388c-0.388-0.478-0.597-1.253-1.164-1.641c-0.209-0.209-0.269-0.12-0.597-0.12c-0.776,0-1.552,0.12-2.328,0.179
		c-0.687,0.119-1.283,0.119-1.85,0.328l-0.09,0.06c-0.179,0.119-0.776,0.328-0.955,0.328c-0.388,0-0.716-0.12-0.776-0.507
		c0-0.09,0.179-0.776,0.269-0.866c0.179-0.388,1.075-0.388,1.462-0.507c1.253-0.179,2.656-0.269,3.88-0.567V8.144
		c0-0.657-0.955-1.164-0.955-1.94c0-0.299,0.388-0.388,0.686-0.507h0.209c0.955,0,0.836,0.776,1.164,1.492
		c0.06,0.179,0.388,0.687,0.388,0.776l0.179,0.179c0.388,0.209,0.866,0,1.254,0.209h1.851l0.269-0.269V7.756
		c0-0.567-0.179-0.567-0.179-0.955c0-0.328,0.567-0.388,0.776-0.388c0.418,0,1.194,0.179,1.194,0.776
		c-0.119,0.119-0.298,0.687-0.388,0.776l-0.119,0.12v0.06c0,0.209,0.119,0.388,0.328,0.388c0.06,0,0.657,0.12,0.776,0.12
		c0.179,0.089,0.179,0.209,0.179,0.388c0,0.269-0.119,0.478-0.388,0.656c-0.12,0-0.776,0.209-0.955,0.209h-0.388
		c-0.716,0-1.403-0.089-2.059-0.089c-0.12,0-0.597,0.089-0.717,0.089v0.12c0,0.06,0.12,0.269,0.12,0.269l0.089,0.119
		c0.12,0.06,0.567,0.657,0.687,0.776l0.09,0.09l0.179,0.089l0.896,0.896c0.09,0.089,0.388,0.269,0.597,0.269h0.119
		c0.448-0.388,0.448-1.164,1.164-1.164h0.179c0.209,0.12,0.776,0.388,0.776,0.388v0.507c0,0-0.388,0.478-0.567,0.567
		c-0.329,0.299-0.508,0.209-0.716,0.478c0.507,0.687,2.059,1.373,2.835,1.373c0.388,0,0.269-0.388,0.269-0.687
		c0-0.089,0.119-1.074,0.119-1.164v-0.478c0-0.089,0.09-1.164,0.09-1.283V9.308c0-0.179,0.119-1.343,0.119-1.552V5.697
		c0-0.06-0.119-0.448-0.209-0.567c0,0-0.507-0.209-0.567-0.209c-0.12,0-0.896-0.06-1.104-0.06h-1.343
		c-0.089,0-0.388-0.119-0.478-0.119h-1.074c-0.985,0-2.06,0.119-3.044,0.179l-0.388,0.12c-0.836,0.089-1.731,0-2.597,0.089
		c-0.955,0.12-1.97,0.179-2.955,0.298c-0.776,0.09-1.82,0.09-2.507,0.478c0,0-0.089,0.12-0.089,0.179c0,0.12-0.12,0.328-0.12,0.328
		c0,0.06-0.06,0.448-0.06,0.567v0.716c0,0.06-0.329,0.776-0.329,0.835c0,0.12-0.06,0.985-0.06,1.373v1.761
		c-0.119,0.776-0.119,4.477-0.119,5.253L59.16,19.158z M62.264,12.741l0.507-0.298c0.597-0.478,0.657-1.254,1.552-1.254
		c0.597,0,0.985,0.299,1.492,0.478l0.448,0.09c0.507,0.209,0.716,0.388,1.104,0.597c0.388,0.179,0.448,0.478,0.448,0.866v0.388
		c-0.06,0.478-0.388,0.865-0.776,1.164c-0.179,0.208-0.656,0.388-0.955,0.388c-1.253,0.209-2.537,0.328-3.82,0.328
		c-0.656,0-0.835-0.507-0.835-1.193C61.428,13.696,61.816,13.129,62.264,12.741z M63.368,13.905h0.269
		c0.298,0,1.194-0.089,1.284-0.089c0.298,0,1.074-0.299,1.074-0.597c0-0.388-0.567-0.776-0.896-0.955
		C64.651,12.263,63.368,13.427,63.368,13.905z"/>
	<path d="M103.699,21.396l-0.328-0.269l-0.179-0.119c-0.388-0.209-0.657-0.597-1.044-0.866l-1.493-1.283
		c-0.06-0.06-0.776-0.896-0.895-0.955c-0.269-0.329-0.657-0.597-0.836-0.985c-0.507-0.686-1.104-1.283-1.671-1.94
		c-0.388-0.507-1.433-1.97-2.029-1.97c-0.776,0-1.552,0-2.328,0.12l-0.418,0.06c-0.089,0-1.373,0.119-1.433,0.119
		c-0.716,0.09-1.373,0.209-2.06,0.388c-0.208,0-0.656,0.209-0.776,0.209c-0.089,0-0.478,0.179-0.597,0.179
		c-0.567,0.269-0.388,0.985-0.448,1.552c0,0.12-0.12,0.507-0.12,0.597v0.298h1.462c0.09,0,0.597-0.12,0.657-0.12l2.328-0.179h2.776
		c0.269,0.119,0.656,0.388,0.656,0.776c0,0.179-0.269,0.388-0.478,0.388h-2.447l-0.179,0.12c-1.164,0-2.268,0.179-3.313,0.388
		c-0.567,0.06-1.283,0.06-1.85,0.388c-0.478,0.299-0.985,0.687-1.433,0.955c-0.209,0.12-1.015,0.507-1.224,0.597
		c0,0-0.179,0.119-0.269,0.119h-0.119c-0.06,0-0.269-0.119-0.269-0.119v-1.433c0,0,0.269-0.507,0.388-0.627l0.388-0.388l0.478-0.089
		c0.179,0,0.806-0.179,0.806-0.179l0.269-0.209l0.119-0.179c0.209-0.776,0.269-1.671,0.269-2.388v-0.269
		c0-0.12-0.06-1.164-0.06-1.284v-1.044c0-0.806-0.507-1.791-1.104-2.238V8.741l0.329-0.328l0.269-0.179h0.567
		c0.507,0,0.896,0.12,1.284,0.567c0.208,0.329,0.089,0.508,0.478,0.508c0.567,0,1.462-0.299,2.059-0.388
		c0.836-0.179,1.612-0.298,2.507-0.388l0.089-0.179v-0.12c0-0.089-0.209-0.507-0.269-0.597c-0.119-0.299-0.597-1.075-0.776-1.164
		l-0.329,0.089l-2.388,0.298l-0.209,0.09c0,0-0.507,0.119-0.567,0.119h-0.119c-0.269,0-0.478-0.388-0.478-0.687
		c0-0.388,0.089-0.985,0.478-1.253c3.283-0.119,6.625-0.507,9.938-0.507h1.224c0.12,0,1.612,0.12,2.179,0.209
		c0.478,0,1.373,0,1.373,0.776c0,0.687-1.164,1.343-1.492,2.03c-0.179,0.298-0.179,0.716-0.269,0.985
		c-0.12,0.298-0.627,0.687-0.806,0.955l-0.089,0.119H97.76c-0.388-0.179-0.985-0.119-1.283-0.119h-0.866l-0.179,0.328v0.06
		c0,0.12,0.269,0.508,0.269,0.597l0.179,0.179c0,0,0.209,0.209,0.209,0.328l0.12,0.179c0.06,0.089,0.388,0.388,0.388,0.388h6.715
		c0.06,0,0.448,0.12,0.567,0.12c0.089,0,0.478,0.209,0.597,0.269l0.06,0.119c0,0.478-0.269,1.164-0.836,1.164
		c-0.896,0-1.671-0.119-2.537-0.179c-0.179,0-1.403-0.12-1.582-0.12c-0.388,0-0.776-0.089-1.164-0.089h-0.478l-0.179,0.209v0.06
		c0.06,0.119,0.388,0.388,0.448,0.507l0.209,0.269c0.179,0.209,0.388,0.209,0.507,0.507c0.269,0.269,1.731,1.492,2.06,1.761
		l0.06,0.119c0.12,0,0.507,0.269,0.597,0.269c0.298,0.12,0.388,0.388,0.686,0.507c0.388,0.179,0.388,0.06,0.657,0.448
		c0.328,0.12,1.492,0.836,1.761,0.896c1.075,0.507,2.239,1.164,3.492,1.373c0.12,0,0.687,0.119,0.806,0.119
		c0.179,0,0.866,0.06,0.866,0.388v0.06c-1.074,1.283-1.94,1.283-3.492,1.283h-0.776c-0.209,0-1.373-0.119-1.552-0.119
		C103.968,21.575,103.759,21.396,103.699,21.396z M87.731,12.621c0.985,0,2.03-0.269,2.985-0.388
		c1.164-0.09,2.388-0.209,3.552-0.388c0.06,0,0.269-0.089,0.269-0.089c0-0.298-0.597-0.806-0.657-1.015
		c-0.12-0.06-0.388-0.836-0.507-0.955l-0.09-0.09h-0.298c-1.492,0-2.925,0.478-4.268,0.985c-0.119,0-0.507,0.179-0.597,0.179
		c-0.12,0-0.388,0-0.507,0.209c-0.06,0.388-0.179,0.776-0.179,1.164C87.433,12.532,87.433,12.621,87.731,12.621z M93.163,6.951
		c0.119,0.119,0.597,0.597,0.597,0.687c0.12,0.208,0.179,0.597,0.508,0.716h0.447c0.12,0,0.776-0.12,0.896-0.12h2.985
		c0.328,0,0.328-0.089,0.388-0.298C99.192,7.338,99.7,6.771,99.7,6.085c0,0-0.209-0.089-0.328-0.089c-0.06,0-0.567-0.09-0.567-0.09
		h-3.313c-0.836,0.269-1.731,0-2.597,0.388v0.089C92.895,6.682,92.984,6.771,93.163,6.951z"/>
	<path d="M128.256,20.709c-2.597,0-5.253,0.388-7.879,0.776c-0.388,0.119-0.776,0.208-1.164,0.388
		c-0.478,0.209-0.985,0.209-1.433,0.388c0,0-0.597,0.328-0.776,0.388c-0.209,0.12-1.283,0.717-1.492,0.776
		c-0.179,0.328-1.075,0.716-1.463,0.716c-0.656,0-0.656-1.284-0.656-1.552c0-0.507,0.179-0.985,0.567-1.283
		c0.209-0.09,0.896-0.209,1.164-0.209c0.716-0.06,1.373-0.179,2.06-0.269c0.208,0,1.044-0.239,1.164-0.239l0.269-0.06
		c0.119,0,1.283-0.12,1.373-0.12c1.164-0.089,2.328-0.388,3.522-0.478h0.269c0.209,0,0.985-0.119,1.164-0.119
		c0.329-0.269,0.597-0.448,0.597-0.955V18.65c0,0-0.269-0.06-0.388-0.06h-0.089c-0.955,0.06-2.06,0.179-3.015,0.388
		c-0.597,0.06-1.104,0.269-1.671,0.388l-0.269,0.06h-0.329c-0.06,0-0.179-0.179-0.179-0.179v-1.044c0,0,0.179-0.209,0.298-0.209
		c0.209-0.12,0.657-0.298,0.657-0.298h1.552c0.209-0.209,0.627-0.09,0.836-0.09c0.06,0,1.224-0.119,1.343-0.119h0.657
		c0.388,0,0.716-0.448,0.716-0.836l-0.119-0.209h-2.418c-0.507,0-1.791,0.209-1.791,0.209l-0.448,0.448h-0.119
		c-0.388,0-0.657-0.657-0.657-0.955v-0.089c0.179-0.687,0.388-1.373,0.388-2.149c-0.12-0.388-0.12-0.985-0.388-1.373
		c-0.209-0.269-0.716-0.567-0.716-1.044h2.06c0.478,0,0.865-0.209,1.373-0.299c2.895-0.388,5.939-0.388,8.954-0.478
		c0-0.119,0.209-0.119,0.269-0.119h0.119c0.209,0.119,0.866,0.388,0.985,0.507c0.179,0.089,0.179,0.179,0.179,0.388
		c0,0.567-0.507,0.776-0.687,1.253c-0.269,0.776-0.597,1.462-0.656,2.417c-0.329,0.209-0.716,0.985-0.985,0.985
		c-0.299,0-0.508-0.089-0.806-0.089h-0.269c-0.12,0-0.776,0.089-0.896,0.089h-0.388c-0.597,0-1.761-0.089-1.761,0.776
		c0,0.179,0,0.299,0.329,0.388h0.776c1.164,0,2.328-0.269,3.611-0.269h0.388c0.269,0.06,0.179,0.388,0.179,0.448v0.328l-0.567,0.567
		h-0.985c-0.507,0-2.746,0.089-3.224,0.089c-0.388,0-0.567,0.298-0.567,0.687v0.269c0.06,0.12,0.388,0.209,0.448,0.209h1.104
		c1.164,0,2.328-0.209,3.492-0.209h4.179c0.089,0,0.865-0.06,0.985-0.06c0.269,0,1.462-0.12,1.731-0.12l0.119-0.089h0.657
		c0,0.388-0.089,0.866-0.269,1.253c-1.074,0.806-2.358,1.403-3.731,1.403h-0.06c-0.896-0.209-1.88-0.507-2.716-0.716
		c-0.985-0.179-2.06-0.179-3.044-0.269c-0.119,0-0.896-0.12-0.955-0.12H128.256z M114.945,10.204
		c-0.328-0.298-0.328-1.164-0.328-1.552s0.448-0.687,0.627-1.075c0.208-0.269,0.269-0.776,0.478-1.044
		c0.179-0.328,0.686-0.597,0.955-0.776c0.119-0.12,0.328-0.239,0.328-0.239c0.06,0,0.657-0.09,0.776-0.09
		c0.388-0.119,0.776-0.179,1.164-0.298c0.955-0.209,1.94-0.269,2.895-0.388c0.209,0,1.492-0.09,1.671-0.09
		c0.089,0,0.597-0.119,0.657-0.119c0.209,0,1.104-0.179,1.164-0.388c0-0.06,0.209-0.776,0.209-0.835V2.414l-0.09-0.09l-0.388-0.567
		V0.981c0.209-0.209,0.388-0.507,0.656-0.507h0.209l0.12,0.119c0.06,0.06,0.835,0.388,0.955,0.448
		c0.269,0.119,0.388,0.209,0.388,0.507c0,0.388-0.119,0.657-0.179,1.044c0,0.12-0.12,0.597-0.12,0.717v0.955l0.179,0.208h0.716
		c0.06,0,0.567-0.119,0.657-0.119c0.179,0,1.552,0.119,1.791,0.119c0.06,0,0.567-0.119,0.657-0.119h0.119
		c0.179,0,1.821,0.119,2,0.119c1.492,0,2.716-0.119,3.82,0.955c0,0,0.179,0.209,0.179,0.329c0.089,0.269,0.478,1.044,0.478,1.164
		v0.567c-0.209,0.985-0.657,1.552-1.433,2.149l-0.209,0.06h-0.12l-0.06-0.179l-0.329-0.09c-0.388-0.179-0.388-0.567-0.388-0.955
		c0-0.507,0.119-0.985,0.119-1.552V6.204c-0.298-0.179-0.507-0.269-0.895-0.269c-0.388-0.119-1.552-0.179-1.612-0.179h-5.551
		c-0.209,0.06-0.209,0.06-0.388,0.06c-0.209,0-0.328-0.06-0.388-0.06c-0.597,0-0.985,0.269-1.492,0.269h-1.044
		c-0.896,0-1.671,0.298-2.447,0.388c-0.12,0-0.776,0.12-0.896,0.12c-0.06,0-1.045,0.179-1.343,0.269
		c-0.209,0-1.044,0.298-1.164,0.298c-0.597,0.209-0.985,0.388-1.044,0.985c0,0.06-0.209,1.044-0.209,1.164
		c0,0.06-0.179,0.657-0.179,0.776l-0.119,0.179c-0.09,0.09-0.597,0.597-0.657,0.687h-0.328l-0.179-0.298L114.945,10.204z
		 M117.661,25.485c-0.09,0-0.269,0-0.269-0.179c0.388-0.388,0.836-0.896,1.224-1.164c0.328-0.329,0.716-0.507,0.985-0.776
		c0.298-0.388,0.119-0.597,0.687-0.717h0.089c0.388,0,1.164,0.388,1.164,0.776c0,0.328,0,0.716-0.269,0.896
		c0,0-0.716,0.388-0.985,0.597c-0.179,0.06-0.687,0.388-0.687,0.388c-0.478,0.179-1.045,0.06-1.552,0.06l-0.269,0.119H117.661z
		 M118.168,3.369c-0.12,0-0.388-0.269-0.507-0.269v-0.12l0.119-0.06c0.06,0,0.657-0.209,0.776-0.209l1.552-0.567
		c0.269-0.209,0.448-0.329,0.835-0.329h0.209c0.12,0.12,0.687,0.716,0.776,0.776c0.119,0.209,0.119,0.329,0.119,0.508
		c0,0,0.06,0.388-0.119,0.388c-0.597,0.209-1.164,0.209-1.761,0.209c-0.776,0-1.224,0-1.94-0.209L118.168,3.369z M130.614,8.353
		c-0.507,0.567-0.806,1.731-1.671,1.731c-0.388,0-0.776-0.06-1.283-0.06c-1.343,0-2.597,0.269-3.94,0.388
		c-0.328,0.298-0.776,0.298-1.283,0.298c-0.12,0-0.209,0.09-0.329-0.119c-0.06-0.179-0.179-0.567-0.179-0.776
		c0-0.388,0.179-0.776,0.179-1.164V8.473l-0.567-0.597V7.488c0-0.12,0.298-0.388,0.388-0.388h0.179c0.209,0,0.388,0,0.507,0.09
		h0.597c0.955,0,2.06-0.209,3.015-0.269c1.253-0.12,2.537-0.12,3.76-0.12h0.896c0,0,0.328,0.12,0.328,0.179v0.716l-0.119,0.06
		L130.614,8.353z M125.54,14.203c0,0-0.985,0.09-1.373,0.09c-0.657,0.089-1.552,0.089-2.238,0.298c-0.09,0-0.209,0.089-0.209,0.089
		v0.687c0,0.089,0.328,0.269,0.388,0.269h0.12c0.716-0.089,1.552-0.089,2.268-0.269l0.269-0.209h0.776
		c0.179-0.089,0.179-0.478,0.179-0.687v-0.179L125.54,14.203z M121.839,13.218c0,0.089,0.209,0.388,0.269,0.388h0.209l0.418-0.09
		c0.089,0,1.044-0.089,1.164-0.089l0.388-0.12c0.597-0.089,1.373,0.12,1.373-0.776c0,0,0-0.388-0.119-0.388h-1.761
		c-0.448,0.209-1.94,0.12-1.94,0.985V13.218z M123.988,22.082l1.284,0.567v2.657l-0.508,0.567h-0.985l-0.06-0.119
		c-0.12-0.179-0.328-0.836-0.328-0.836v-2.537c0-0.119,0.388-0.298,0.507-0.298H123.988z M127.212,8.085
		c-0.12,0-0.507,0.06-0.597,0.06c-0.955,0.119-1.851,0.328-2.835,0.328c-0.06,0.06-0.06,0.269-0.06,0.448
		c0,0.12,0,0.328,0.179,0.388h0.865c0.12,0,0.388-0.06,0.508-0.06c1.044-0.119,2.119-0.119,3.164-0.328
		c0.388-0.06,0.507-0.567,0.507-0.835H127.212z M126.824,14.86c0,0.119,0.269,0.298,0.388,0.298h1.611
		c0.329,0,1.373-0.179,1.671-0.179c0.209-0.208,0.329-0.985,0.329-1.283c-1.015,0-2.06,0.12-3.044,0.298
		c-0.119,0-0.687,0.09-0.776,0.09c0,0.119-0.179,0.597-0.179,0.687V14.86z M130.883,11.756c-1.164,0.119-2.447,0.119-3.611,0.209
		c-0.179,0.089-0.179,0.478-0.179,0.687c0,0.269,0.179,0.388,0.507,0.388c0.657,0,1.224-0.119,1.94-0.119
		c0.388,0,0.657,0.119,0.955,0.298c0.12,0.089,0.329,0.209,0.329,0.209c0.269,0,0.388-1.075,0.388-1.373v-0.179L130.883,11.756z
		 M127.6,24.321c-0.209-0.567-0.328-1.284-0.328-1.851c0-0.269,0.119-0.597,0.507-0.597h0.089c0.776,0.209,0.955,0.388,0.955,1.284
		c0,0.388,0,1.94-0.448,1.94c-0.208,0-0.507,0-0.597-0.179L127.6,24.321z M130.883,3.19c-0.567,0-0.955-0.388-0.955-0.985
		c0-0.388,0-0.388,0.06-0.776c0-0.06,0.12-0.269,0.12-0.269h2.537c0.12,0,0.776-0.298,0.896-0.298h0.06l0.209,0.179
		c0,0.597-0.388,1.373-0.865,1.671c-0.12,0-0.776,0.269-0.896,0.269l-0.179,0.12c0,0-0.657,0.089-0.865,0.089H130.883z
		 M132.047,24.53c-0.06-0.119-0.269-0.716-0.388-0.776c-0.06-0.328-0.388-0.776-0.388-0.985c0-0.12,0-0.179,0.209-0.298h0.686
		l0.388,0.298c0.089,0.089,0.478,0.269,0.597,0.388c0.388,0.269,0.657,0.478,1.045,0.776c0.507,0.388,1.283,0.478,1.283,1.164v0.269
		c0,0.119-0.328,0.328-0.388,0.328c-0.209,0-0.896,0.06-1.104,0.06l-0.269,0.119h-0.12c-0.179,0-0.179,0-0.388-0.119
		c-0.179-0.06-0.567-0.269-0.567-0.269c-0.089-0.119-0.388-0.776-0.478-0.895L132.047,24.53z"/>
</g>
</svg>
