<?xml version="1.0" encoding="utf-8"?>
<!-- Generator: Adobe Illustrator 17.0.0, SVG Export Plug-In . SVG Version: 6.00 Build 0)  -->
<!DOCTYPE svg PUBLIC "-//W3C//DTD SVG 1.1//EN" "http://www.w3.org/Graphics/SVG/1.1/DTD/svg11.dtd">
<svg version="1.1" id="Layer_1" xmlns="http://www.w3.org/2000/svg" xmlns:xlink="http://www.w3.org/1999/xlink" x="0px" y="0px"
	 width="173.496px" height="24.533px" viewBox="0 0 173.496 24.533" enable-background="new 0 0 173.496 24.533"
	 xml:space="preserve">
<g>
	<g>
		<path d="M149.738,20.018c0-0.388,0-1.075,0.328-1.463c0,0,0.179-0.089,0.299-0.089c1.343-0.388,2.805-0.687,4.268-0.955
			c0.269-0.119,0.866-0.209,0.866-0.209l0.179-0.179v-0.597c0-0.507,0-1.194-0.09-1.671c-0.179-0.567-0.865-0.687-0.865-1.343
			c0-0.328,0.388-0.716,0.567-0.776c1.462,0.06,2.567-0.209,3.91-0.388c1.433-0.208,2.806-0.328,4.268-0.507
			c0.209,0,1.373-0.208,1.552-0.208h2.06c0.089,0,0.388-0.06,0.478-0.06h0.179c0.507,0,0.776,0.448,0.776,0.955
			c0,0.388-0.179,0.388-0.388,0.776c-0.269,0.776-0.567,1.642-0.567,2.537v0.388l0.119,0.119c0,0,1.224,0.06,1.821,0.06h1.283
			c0.06,0,0.388,0.119,0.448,0.119h2.06l0.208,0.089v0.12l-0.388,0.776c-0.12,0.179-0.329,0.179-0.507,0.388l-0.09,0.179
			c-0.179,0.209-0.776,0.478-0.955,0.597h-0.985c-1.671,0-3.223-0.597-4.835-0.776c-0.329,0-0.716,0.06-1.015-0.12h-4.149
			c-0.119,0-0.597,0.12-0.716,0.12c-0.388,0-2.328,0.269-2.716,0.269c-0.179,0.179-0.567,0.179-0.776,0.179
			c-0.955,0.208-2.03,0.597-2.896,0.985l-2.148,1.074c-0.09,0-0.687,0.269-0.776,0.269c-0.298,0.12-0.089,0.12-0.388,0.12h-0.09
			c-0.089,0-0.328-0.179-0.328-0.298V20.018z M159.796,1.811c0.567,0.269,0.776,0.388,0.776,1.045c0,0.388-0.328,0.895-0.388,1.283
			c0,0.597-0.12,3.432-0.12,4c0,0.089-0.089,0.865-0.089,1.044c-0.12,0.507-0.299,1.493-0.955,1.552
			c-1.492,0.119-2.955,0.328-4.298,0.626c-0.478,0.09-0.866,0.478-1.373,0.478c-0.269,0-0.388-0.089-0.567-0.269
			c0-0.209-0.09-1.224-0.09-1.403V9.899c0.179-1.164,0.478-2.149,0.478-3.313c0-0.388,0-1.015-0.089-1.283
			c0-0.12-0.298-0.567-0.388-0.776l-0.119-0.12l-0.09-0.179V3.96l-0.298-0.328v-0.06c0-0.329,0.209-0.985,0.388-1.104h0.507
			c0.388,0,0.865-0.179,1.253-0.269c0.089,0,1.164-0.119,1.253-0.119l0.388-0.06c0.388,0,1.88-0.209,2.06-0.209H159.796z
			 M158.513,8.348c-1.075,0-1.94,0.06-3.015,0.269c-0.298,0.119-0.866,0.179-1.164,0.388c-0.209,0.12-0.209,0.508-0.209,0.687
			c0,0.09,0.12,0.478,0.298,0.478c0.776,0,1.463-0.269,2.149-0.388c0.089,0,0.656-0.09,0.776-0.09c0.179,0,0.895-0.179,0.955-0.179
			c0.119-0.12,0.209-0.209,0.209-0.329V8.348z M154.514,4.02c0,0.328,0,0.597,0.209,0.776h0.388c0.955,0,1.94-0.269,2.925-0.448
			l0.478-0.12c0.179-0.089,0.179-0.388,0.179-0.597V3.363c-0.388-0.179-1.074-0.179-1.552-0.179h-0.089l-0.388,0.06
			c-0.089,0-0.776,0.12-0.866,0.12c-0.209,0-0.896,0.209-0.985,0.209s-0.298,0.179-0.298,0.179V4.02z M158.692,5.691
			c-1.343,0-2.805,0.089-4.059,0.597c-0.119,0.388-0.119,0.896-0.119,1.283c1.164,0,2.447-0.328,3.611-0.597
			c0.119,0,0.388-0.119,0.388-0.119c0.119-0.06,0.179-0.269,0.179-0.388V5.691z M157.14,16.615c0,0.12,0,0.179,0.089,0.299h0.896
			c0.179,0,1.074-0.179,1.283-0.179c0.06-0.12,0.179-0.209,0.179-0.328v-0.567c0-0.507-0.119-0.985-0.179-1.492
			c-0.119-0.179,0-0.567-0.328-0.657h-0.388c-0.448,0-1.253,0-1.462,0.597c0,0.269-0.089,1.85-0.089,2.119V16.615z M162.393,16.525
			c0.567,0,0.567-0.896,0.687-1.283c0.209-0.687,0.269-1.463,0.269-2.119c-0.657,0-1.433,0-2.208,0.179
			c-0.12,0-0.388,0.209-0.388,0.388v2.835H162.393z M162.691,10.347c-0.119,0.12-0.388,0.597-0.507,0.716
			c-0.179,0.12-0.179,0.12-0.388,0.12c-0.269,0-0.388-0.239-0.447-0.448c0.955-1.731,1.433-3.671,1.433-5.73V4.02
			c0-0.06-0.209-0.388-0.269-0.448l-0.388-0.329l-0.209-0.179v-0.09c0.089-0.179,0.269-0.895,0.388-0.955
			c0.597-0.209,1.164-0.328,1.761-0.388c0.269,0,0.835,0,1.164-0.209c0.298,0,1.851-0.12,2.119-0.12h0.776
			c0.716,0,2.268-0.179,2.268,0.896c0,0.597-0.388,1.044-0.507,1.552c-0.089,0.478-0.209,1.045-0.209,1.552
			c0,0.985,0.12,1.94,0.12,2.925v1.284c-0.12,0.388-0.298,0.955-0.776,0.955c-0.299,0-0.567-0.179-0.567-0.508V7.75
			c-0.119,0-0.776-0.119-0.985-0.119h-0.119c-0.776,0.209-1.612,0.119-2.507,0.209c0,0-0.507,0.119-0.597,0.119
			c-0.12,0-0.507,0.06-0.507,0.06s-0.06,0.12-0.06,0.209c-0.328,0.776-0.507,1.284-0.895,2.06L162.691,10.347z M165.229,12.914
			c0,0-0.209,0.089-0.209,0.209c-0.298,0.388-0.388,0.776-0.567,1.224c0,0.119-0.328,0.776-0.328,0.896
			c-0.06,0.269-0.269,0.597-0.269,0.895c0,0.09,0,0.209,0.089,0.209h1.97c0,0,0.209-0.209,0.209-0.328
			c0.269-0.687,0.388-1.731,0.388-2.507v-0.507c0-0.089-0.209-0.209-0.328-0.209L165.229,12.914z M167.855,2.468
			c-0.896,0-1.671,0.12-2.567,0.209c-0.06,0-0.776,0.119-0.836,0.119c-0.328,0.179-0.388,0.388-0.388,0.657
			c0,0.298,0,0.507,0.179,0.567h0.865c0.12,0,1.015-0.06,1.075-0.06c0.985-0.119,2.059,0.179,2.447-0.895v-0.09
			c0-0.119-0.119-0.388-0.119-0.507H167.855z M164.244,6.676h0.269c1.283,0,2.447-0.269,3.73-0.269l0.209-0.12V4.796h-0.716
			c-0.06,0-1.343,0.119-1.433,0.119h-0.298c-0.388,0.09-0.716,0.209-1.104,0.269c-0.06,0-0.448,0.12-0.567,0.12
			c-0.089,0-0.269,0.209-0.269,0.269v0.896L164.244,6.676z"/>
	</g>
	<g>
		<path d="M13.52,11.192c-0.089,0-0.478-0.269-0.597-0.388l-0.179-0.12h-0.089c-0.179,0-0.179,0.329-0.299,0.418
			c-0.089,0.209-0.656,0.985-0.776,1.164c0,0.089-0.478,0.597-0.478,0.687c-0.388,0.566-1.015,1.074-1.582,1.582
			c-0.089,0-0.388,0.447-0.478,0.447l-0.179,0.119c-0.388,0.27-0.776,0.598-1.284,0.866c-0.656,0.388-1.552,0.806-2.328,1.015
			c-0.09,0-0.478,0.06-0.597,0.06c-1.044,0.328-2.208,0.716-3.283,0.716c-0.507,0-1.104-0.119-1.373-0.597v-0.179
			c0-0.627,0.269-1.104,0.776-1.492l0.209-0.119c0.388,0,2.328-0.18,2.716-0.18c0,0,0.388-0.09,0.507-0.09
			c0.776-0.179,1.612-0.388,2.328-0.686c1.731-0.776,3.283-1.94,4.268-3.611c0.119-0.12,0.179-0.508,0.179-0.508
			c0-0.06-0.06-0.269-0.179-0.269h-0.478c-1.284,0.089-2.626,0.269-3.91,0.597c-0.657,0.06-1.254,0.478-1.821,0.478
			c-0.388,0-0.388,0.09-0.716-0.179c-0.06,0-0.179-0.239-0.179-0.239V9.641l0.567-0.567l0.209-0.12c0.12,0,0.508-0.089,0.567-0.089
			c0.209,0,1.94-0.12,2.149-0.12c0.179,0,1.462-0.179,1.85-0.179c0.09,0,0.388-0.089,0.478-0.089c0.12,0,1.015-0.119,1.194-0.119
			c0.269,0,0.656,0,0.865-0.27V7.461c0-0.447,0.12-0.566-0.209-1.044l-0.269-0.388v-0.12c0-0.776,0.866-0.835,1.373-1.044
			l0.179-0.12h0.089c0.179,0,0.567,0.388,0.776,0.508V5.73c0,0.687-0.269,1.343-0.269,2.179c0,0.06,0.269,0.269,0.388,0.269h0.06
			c0,0,0.388-0.09,0.507-0.09h1.253c1.731-0.119,3.522-0.299,5.343-0.299c0.507,0,0.985,0.508,1.283,0.688
			c0,0.089,0.209,0.268,0.209,0.388c0,0.597-0.985,0.865-1.373,0.865c-0.388,0-0.567,0-0.955-0.089h-4.984l-0.567,0.089v0.12
			c0,0.179,0.179,0.268,0.388,0.388c1.224,0.776,2.507,1.642,3.671,2.507c0.716,0.597,1.373,1.193,2.149,1.672
			c0.687,0.507,1.462,0.775,2.238,1.283l0.388,0.269c0.776,0.507,1.761,1.015,2.626,1.283c0.089,0,0.597,0.179,0.687,0.179
			c0.179,0.119,0.955,0.328,1.164,0.389c0.089,0.119,0.298,0.328,0.388,0.388c0,0.328-0.865,0.716-1.074,0.776
			c-0.955,0.597-1.97,0.716-3.134,0.716h-1.045c-1.074-0.388-1.94-1.492-2.835-2.269l-1.343-1.283
			c-0.657-0.566-3.611-3.492-4.208-4.178C14.416,11.879,13.699,11.312,13.52,11.192z"/>
		<path d="M31.661,12.564l0.12-0.417l0.089-0.179c0-0.09,0.089-0.866,0.089-0.985c0.09-0.388,0.717-0.657,0.985-0.955
			c0.507,0,1.164-0.09,1.671-0.269c0.06,0,0.388-0.209,0.448-0.209h0.328c0.179,0,0.955-0.18,1.164-0.18
			c0.448-0.119,0.955-0.209,1.433-0.328h0.119c0.179,0,0.657-0.06,0.657-0.06l0.298-0.209h0.478
			c0.627-0.119,1.284-0.179,1.851-0.298c0.388-0.09,0.716,0,0.985-0.209c0.298-0.18,0.179-0.657,0.298-0.836l0.09-0.209
			c0.179-0.955,0.179-1.582,0.179-2.627H41.51c-0.298,0-1.582,0.18-1.85,0.18c-0.12,0.09-0.776,0.269-0.896,0.269
			c-0.089,0-0.478-0.06-0.478-0.06h-0.12c-0.955,0-1.82,0.447-2.775,0.447c-0.209,0-0.507-0.06-0.716-0.179V4.865
			c0-0.657,0.328-0.866,0.776-1.254l0.209-0.119c1.462,0.119,2.895-0.18,4.387-0.27c0.12,0,1.343-0.119,1.462-0.119
			c0.209,0,0.866-0.06,0.985-0.06c0.179,0,0.447,0,0.447-0.328v-0.06c-0.06-0.209-0.269-0.717-0.388-0.776
			c0-0.119-0.448-0.388-0.448-0.507V1.164C42.107,0.508,42.674,0,43.45,0h0.089c0.298,0,1.164,0,1.343,0.388
			c0.119,0.12,0.209,0.507,0.209,0.597v0.508c0,0.269-0.09,0.656-0.09,0.955c0,0.209,0.209,0.209,0.269,0.269l4.328,0.119
			c0.269-0.119,0.388-0.119,0.657-0.119c0.179,0,1.283,0.209,1.283,0.507V3.88c0,0-0.208,0.209-0.328,0.209
			c-0.388,0.179-0.955,0.388-1.343,0.388l-0.269-0.09c-1.164,0-2.179-0.119-3.343-0.119h-0.089c-0.179,0-0.896,0.119-0.955,0.119
			c-0.209,0-0.507,0.09-0.597,0.27c0,0.119-0.12,0.716-0.12,0.775c-0.06,0.836-0.388,1.611-0.388,2.388v0.179
			c0,0.09,0.329,0.09,0.388,0.09c2.328-0.09,4.596,0.18,6.924,0.18c0.687,0.209,1.671,0.209,2.328,0.209
			c0.119,0.179,1.283,0.388,1.283,0.895c0,0.18-0.119,0.27-0.119,0.448v0.328l0.119,0.269v1.283c0,0.061-0.328,0.776-0.328,0.865
			c0,0.09-0.179,0.598-0.179,0.688c-0.209,0.686-0.089,1.164-0.597,1.73l-0.179,0.119c-0.09,0-0.209-0.119-0.269-0.209
			c-0.12,0-0.329,0.209-0.388,0.209h-0.12c-0.089-0.119-0.089-0.298-0.269-0.388l-0.209,0.09h-0.298c0-0.478,0.12-0.985,0.179-1.463
			l0.119-0.179c0.388-0.598,0.776-1.283,0.776-2.06c0-0.687-0.388-1.164-0.955-1.462c-0.209,0-1.104-0.09-1.284-0.09l-0.269-0.119
			c-1.104-0.18-1.761-0.061-2.925-0.061h-1.851c-0.328,0-1.88,0.061-2.268,0.061c-0.06,0-0.567,0.119-0.657,0.119h-1.075
			c-0.089,0-0.865,0.209-0.985,0.209c-0.179,0-0.955,0.179-1.164,0.179l-0.299,0.209c0-0.209-0.269-0.119-0.269-0.119h-0.328
			c-0.657,0.119-1.343,0.298-2,0.507c-2.059,0.448-3.492,0.657-3.492,3.193c0,0.479,0.06,0.985,0.06,1.463
			c0,0.09-0.657,0.567-0.776,0.567c-0.06,0-0.179-0.09-0.388-0.09c-0.179,0-0.298,0.09-0.567,0.09h-0.209
			c0,0-0.179-0.269-0.179-0.388c0-0.09-0.209-0.657-0.209-0.776v-0.567C31.183,13.818,31.661,12.654,31.661,12.564z M48.226,21.996
			c-0.508-0.388-2.358-1.671-2.835-1.671h-0.12c0,0-0.388,0.328-0.448,0.388l-0.716,0.717l-0.447,0.269l-0.329,0.298
			c-0.835,0.776-3.791,1.94-4.955,1.94c-0.269,0-0.776-0.12-0.776-0.507c0-0.657,0.388-1.553,0.896-1.94
			c1.731-0.06,3.492-0.388,4.955-1.433c0.089-0.119,0.478-0.389,0.478-0.389l0.119-0.179l-0.328-0.328
			c-0.567-0.448-1.731-1.462-2.597-1.462c-0.776,0-1.283,0.298-1.97,0.596c-1.045,0.418-2.149,0.866-3.194,1.194
			c-0.119,0-1.283,0.269-1.552,0.388h-0.12c-0.179,0-0.567-0.209-0.567-0.209s-0.089-0.388-0.089-0.507v-0.179
			c0-0.389,0.597-1.164,0.985-1.283c0.06,0,0.955-0.09,1.044-0.09c0.119,0,0.388-0.09,0.507-0.09
			c1.552-0.389,3.104-0.775,4.566-1.552c0.657-0.388,1.433-1.075,2.03-1.552v-0.09c0-0.119-0.209-0.119-0.269-0.119
			c-0.716,0-1.671,0.209-2.269,0.298l-0.388,0.09h-0.12c-0.269,0-0.448-0.179-0.448-0.478c0-0.567,0.388-1.074,0.388-1.642v-0.388
			l-0.12-0.209V11.76c0-0.27,0.507-0.567,0.896-0.567s0.955,0.298,0.955,0.776v0.119c0,0.06-0.269,0.477-0.269,0.566v0.299h1.044
			c0.209,0,0.985-0.09,1.164-0.09c0.12-0.388,0.12-0.597,0.12-0.895c0-0.389-0.179-0.776-0.179-1.164
			c0-0.598,0.835-0.657,1.224-0.657h0.12c0.478,0.179,0.776,0.269,0.776,0.776c0,0.656-0.507,1.224-0.507,1.939
			c1.492,0,2.835-0.09,4.208-0.209c0.12,0,0.687-0.09,0.896-0.09c0.06,0,0.448-0.089,0.567-0.089c0.09,0,0.597-0.209,0.657-0.209
			h0.12c0.089,0,0.089,0.119,0.089,0.209c0,1.253-1.761,2.029-2.806,2.029c-1.403,0-2.626-0.298-3.999-0.298
			c-0.179,0-0.388,0-0.567,0.209c-0.119,0.089-0.776,1.074-0.896,1.164l-0.865,0.865v0.209l2.208,1.254
			c0.12,0,0.388,0.178,0.597,0.178c0.298-0.268,0.686-0.775,0.686-1.253v-0.089c-0.119-0.09-0.388-0.389-0.507-0.479
			c-0.179-0.119-0.388-0.209-0.388-0.507c0-0.478,1.104-0.567,1.373-0.567c0.567,0,1.671,0.299,1.791,0.955
			c0,0.299-0.209,0.687-0.329,0.896c0,0.089-0.298,0.567-0.298,0.657c-0.209,0.387-0.657,0.686-0.657,1.193v0.209
			c0.06,0.06,0.657,0.269,0.776,0.388c1.343,0.567,2.626,1.164,4.059,1.433c0,0,0.209,0.119,0.328,0.119c0,0,0.388,0.18,0.448,0.18
			c0.119,0,0.597,0.09,0.716,0.09c1.164,0.179,2.328,0.507,3.611,0.566v0.119c-0.388,1.045-1.224,2.029-2.388,2.328
			c-0.179,0.09-0.448,0-0.657,0.209h-0.955c-0.895,0-1.552,0-2.268-0.388C49.777,23.369,49.001,22.653,48.226,21.996z M35.571,6.715
			c0.208-0.06,0.776-0.447,0.865-0.447h3.104l0.179-0.119l0.12,0.119l0.388,0.06v0.209c0,0.388-0.179,0.687-0.507,0.896
			c0,0-0.388,0.06-0.448,0.179c-0.597,0.209-1.492,0.776-2.149,0.776c-0.298,0-0.388-0.119-0.687-0.18
			c-0.089,0-0.597-0.209-0.657-0.209L35.571,7.61l-0.179-0.298l-0.12-0.209C35.272,7.043,35.451,6.715,35.571,6.715z M35.272,13.729
			l0.12-0.179c0-0.119,0.06-0.776,0.06-0.896c0.209-0.269,0.716-0.388,0.985-0.566c0.507-0.508,0.687-0.896,1.343-1.104
			c0.209,0.209,0.388,0.388,0.388,0.716v0.061c-0.179,0.895-0.567,1.969-1.433,2.447c-0.119,0.119-0.507,0.298-0.567,0.298h-0.119
			c-0.09,0-0.388-0.179-0.388-0.179l-0.089-0.299l-0.12-0.09l-0.179-0.119V13.729z M45.778,5.76l0.269-0.119
			c0.328-0.209-0.06-0.269,0.507-0.269h0.269l0.328,0.06c0.567,0.119,1.164,0.209,1.851,0.209h0.597l0.269-0.09h0.298
			c0.209,0,0.776,0.209,0.776,0.389v0.09c-0.179,0.507-0.687,0.805-1.164,1.014c-0.507,0.27-1.283,0.389-1.851,0.389
			c-0.507,0-1.283-0.209-1.552-0.598l-0.12-0.298c-0.089-0.209-0.478-0.388-0.478-0.716V5.76z M46.763,10.596l0.567-0.18h2.447
			c0.09,0,0.209,0.119,0.209,0.18c0,0-0.119,0.328-0.209,0.388c0,0.119-0.388,0.388-0.507,0.507c-0.388,0.27-0.835,0.27-1.343,0.27
			c-0.507,0-1.164-0.567-1.164-1.045V10.596z"/>
		<path d="M62.724,7.372c0-0.06,0.179-0.776,0.179-0.955c0-0.12,0.09-0.776,0.09-0.985c0.298-0.508,0.776-0.299,1.343-0.388
			c1.552-0.179,3.104-0.507,4.656-0.687c0.716-0.09,2.059,0,2.566-0.656c0-0.119,0.209-0.508,0.269-0.598
			c0-0.775-0.567-0.775-0.567-1.462h0.776c0.508,0.119,1.552,0.298,1.552,0.955c0,0.507-0.269,0.896-0.269,1.283
			c0,0.089,0,0.209,0.06,0.209h5.104c0.06,0,0.836,0.06,1.164,0.06c0.269,0,1.433,0.209,1.731,0.209l0.209,0.119
			c0.06,0,0.836,0.061,0.955,0.061c0.866,0.208,0.776,0.984,0.866,1.671c0,0.089,0.12,0.388,0.12,0.478v0.806
			c0,0.597,0,1.373-0.388,1.761c-0.12,0.061-0.716,0.567-0.776,0.656h-0.209c-0.507,0-0.567-0.388-0.687-0.775V7.491
			c0.119-0.627,0.388-1.015,0.388-1.582c0-0.209-0.208-0.269-0.269-0.269h-0.716l-0.269-0.119c-1.283-0.209-2.626-0.269-3.91-0.269
			c-1.94,0-3.88,0.06-5.82,0.06C70.096,5.521,68.813,5.7,68.037,5.7h-0.209l-0.179-0.06L67.38,5.82
			c-0.716,0.209-2.269,0.089-2.716,0.477c-0.208,0.18-0.208,0.389-0.208,0.688c0,0.119-0.179,1.283-0.179,1.373
			c0,0.119-0.209,0.775-0.209,0.955c-0.179,0.716-0.298,1.163-0.955,1.492c-0.597,0-0.716-0.389-0.776-0.776
			c0-0.12-0.329-0.896-0.329-0.985V8.924C62.008,8.357,62.516,7.879,62.724,7.372z M63.172,20.534c0-0.12,0.329-0.687,0.388-0.896
			c0-0.06,0.507-0.656,0.507-0.775c0.089-0.061,0.089-0.27,0.269-0.27l0.328,0.209h0.06c0.597,0,1.104-0.388,1.492-0.717l0.06-0.059
			l0.209-0.119h0.12c0.06,0,0.06,0.178,0.06,0.298c0,0.478-0.179,0.388-0.388,0.776l-0.06,0.268l-0.328,0.389
			c0,0.119-0.179,0.328-0.179,0.328c-0.09,0.06-0.269,0.656-0.388,0.776c0,0.06-0.269,0.567-0.269,0.656
			c0,0.12-0.119,0.179-0.119,0.179c-0.09,0.12-0.597,0.598-0.657,0.717l-0.209,0.06h-0.119c-0.657-0.269-0.776-0.656-0.776-1.343
			V20.534z M65.888,15.58c0.208-0.508,0.388-0.776,0.388-1.373c0-0.18,0-0.299-0.06-0.508c0-0.06-0.388-0.389-0.388-0.447v-0.119
			c0-0.985,1.224-0.777,1.821-0.866c0.388,0,3.134-0.507,3.522-0.507c0.209,0,1.433-0.12,1.642-0.12c0.119,0,0.567-0.06,0.687-0.06
			c0.597,0,3.581-0.119,4.208-0.119c0.179,0,1.433-0.09,1.612-0.09h0.209c0.388,0.209,0.687,0.478,0.687,0.984v0.299l-0.388,0.209
			c0,0-0.298,0.18-0.388,0.27l-0.119,0.119c-0.06,0.179-0.448,0.775-0.567,0.836c-0.269,0.387-0.388,1.372-0.985,1.372
			c-1.164,0-2.238-0.089-3.283-0.089h-1.493c-0.447,0.209-1.433,0.209-1.94,0.268l-0.269,0.12c-0.179,0-1.403,0.269-1.582,0.269
			c-0.09,0-0.776,0.328-1.045,0.388l-0.209,0.12H67.38l-0.388,0.089h-0.119l-0.209-0.089c-0.06-0.12-0.657-0.688-0.776-0.776V15.58z
			 M68.156,9.819c0.06,0,0.179-0.12,0.179-0.12c0.089,0,0.866-0.059,1.164-0.059c0.209,0,1.373-0.12,1.552-0.12
			c0.507-0.089,0.597-0.478,0.597-0.985c0-0.178,0-0.268-0.209-0.387h-0.269c-1.075,0-1.97,0.328-3.015,0.328
			c-0.328,0-0.328-0.328-0.328-0.508c0-0.478,0.388-0.389,0.597-0.656c0.299,0,1.671-0.119,1.97-0.119
			c0.209,0,0.866-0.09,0.985-0.09c0.179-0.119,0.269-1.016,0.835-1.016h0.12c0.478,0.209,0.865,0.508,1.164,0.896
			c0.656-0.12,1.253-0.12,1.94-0.12c0.478,0,0.985-0.06,1.433,0.239l0.119,0.209c0,0.836-1.343,0.388-1.851,0.656h-1.552
			c-0.478,0-0.657,0.687-0.657,1.074c0,0.27,0,0.27,0.388,0.27h0.269c0.955-0.061,1.94-0.18,2.895-0.18
			c0.209,0,0.985,0.18,0.985,0.508c0,0.179,0,0.179-0.209,0.268c-0.06,0.12-0.388,0.299-0.567,0.299h-1.164
			c-0.209,0-1.373,0.09-1.552,0.09h-0.09l-0.298-0.09h-0.089c-0.776,0.09-1.343,0.09-2.119,0.209
			c-0.896,0.06-1.671,0.269-2.567,0.389c-0.388,0.059-0.776,0.179-1.164,0.179c-0.089,0-0.388-0.179-0.388-0.388
			C67.261,10.207,67.828,9.908,68.156,9.819z M68.335,14.982h0.089c0.299,0,1.343-0.179,1.671-0.179
			c0.179-0.209,0.179-0.388,0.179-0.597v-0.389c0-0.179-0.179-0.686-0.179-0.686h-1.671c-0.089,0.178-0.388,0.119-0.388,0.387
			C68.037,13.699,68.037,14.982,68.335,14.982z M69.111,21.578h-0.507c0-0.059-0.179-0.268-0.179-0.388v-0.06
			c0.12-0.717,0.299-1.492,0.299-2.268v-0.448c0-0.12-0.179-0.388-0.179-0.507c0-0.209,0.776-0.598,0.955-0.598
			c0.209,0,0.507,0.328,0.507,0.508v1.82l0.089,0.119h0.567c1.104,0,1.671,0.09,1.94-1.074v-0.09c0-0.388-0.269-0.775-0.269-1.193
			c0-0.27,0.269-0.389,0.597-0.389h0.06c0.508,0.18,0.985,0.508,0.985,1.074c0,0.717-0.657,1.105-0.657,1.373
			c0,0.12,0,0.299,0.06,0.299c0.12,0,0.388,0.09,0.507,0.09c2.03,0.299,3.88,0.508,5.939,0.508c0.866,0,1.642,0,2.537-0.12
			l0.179-0.089c0.09,0,1.045-0.299,1.164-0.299c0.478-0.09,0.985-0.598,1.552-0.598c0.209,0,0.209,0.12,0.209,0.209
			c0,0.18-0.12,0.508-0.209,0.567l-0.567,0.985c-0.716,0.955-2.059,1.85-3.313,1.85c-1.283,0-2.507-0.387-3.79-0.686
			c-1.284-0.27-2.537-0.598-3.82-0.656c-0.06,0-1.343-0.12-1.433-0.12l-0.388-0.089H71.38
			C70.484,21.311,69.768,21.578,69.111,21.578z M71.171,13.252l0.089,0.059c0.179,0.389,0.179,1.164,0.776,1.164h0.179
			c0.209,0,0.896-0.059,1.104-0.059c0.388-0.328,0.567-0.985,0.567-1.492c0,0,0.09-0.27-0.119-0.27h-0.955
			c-0.09,0-0.657,0.09-0.866,0.09c-0.179,0-0.776,0.119-0.776,0.389V13.252z M74.932,14.207h0.507c0.478,0,1.552,0.089,1.82-0.389
			c0.209-0.299,0.448-0.566,0.448-0.955v-0.119l-0.239-0.09h-0.776c-0.597,0-1.433-0.179-1.642,0.479
			c0,0.119-0.179,0.686-0.179,0.775v0.119C74.872,14.088,74.872,14.207,74.932,14.207z M78.274,16.803
			c0.478,0.209,0.865,0.328,0.865,0.836c0,0.27,0,0.567-0.269,0.656c-0.119,0.12-0.597,0.18-0.716,0.18h-1.94
			c0-0.389,0.657-0.656,0.776-1.164v-0.299c0-0.089,0.269-0.388,0.388-0.388h0.089C77.767,16.624,77.976,16.744,78.274,16.803z"/>
		<path d="M88.625,18.295c0-0.089,0.209-0.656,0.328-0.865c0.388-1.015,1.343-0.179,1.94-1.015c0.06-0.179,0.269-0.955,0.269-1.224
			V13.64c-0.269-0.507-0.209-1.284-0.866-1.373c-0.179-0.298-0.388-0.627-0.388-1.015v-0.06c0.269-0.12,0.776-0.329,0.985-0.597
			c1.254,0.089,2.507-0.389,3.791-0.567c0.09,0,0.657-0.12,0.776-0.12c0.179,0,0.865-0.209,0.955-0.209
			c0.298-0.566,0.597-1.342,0.597-1.999c0-0.328-0.507-0.239-0.687-0.239h-0.298C94.863,7.58,93.699,7.7,92.445,7.7
			c-0.388,0-0.896-0.239-0.896-0.716c0-0.18,0-0.776,0.179-0.896h0.298c-0.06,0.03-0.06,0.209,0.03,0.209c0.06,0,0.09-0.179,0-0.209
			h0.567l0.208,0.12c0.478,0,0.866-0.12,1.254-0.12c0,0.12-0.09,0.329-0.179,0.389c0.089-0.06,0.478-0.389,0.657-0.447
			c0.687,0,1.552,0,2.328-0.12c-0.09-0.597,0.208-1.164,0.776-1.372h0.209c0.776,0,1.552,0.328,1.552,1.104
			c0,0.776-0.597,1.433-0.776,2.119c-0.09,0.119-0.388,1.373-0.478,1.492c-0.209,0.389-0.896,1.82-1.164,2h-0.209
			c-0.298,0-0.955,0.119-1.074,0.119c-0.269,0.09-1.94,0.269-2.209,0.389c-0.298,0.209-0.687,0.268-0.985,0.388
			c0,0.119-0.089,0.776-0.089,0.985v0.119c0,0,0.089,0.268,0.179,0.268v2.627c0.776,0,1.462-0.299,2.238-0.508
			c1.373-0.268,2.716-0.447,3.97-1.164c0.119,0,0.119,0.12,0.119,0.209v0.12c-0.119,0.179-0.298,0.656-0.388,0.776
			c-0.119,0.059-0.686,0.656-0.776,0.775c-0.507,0.06-0.776,0.269-1.283,0.389c-0.269,0.059-1.433,0.387-1.731,0.507l-0.09,0.06
			c-0.209,0.119-1.283,0.389-1.462,0.508l-0.209,0.09c-0.089,0-0.478,0.119-0.567,0.119l-0.09,0.059
			c-0.507,0.329-1.015,0.598-1.462,0.896c-0.388,0.268-0.597,0.388-1.104,0.388c-0.776,0-1.164,0-1.164-0.896V18.295z M93.221,6.477
			c0.089,0,0.089-0.18,0-0.18S93.132,6.477,93.221,6.477z M117.427,20.922c-0.597,0.389-1.254,0.776-2.03,0.776
			c-0.627,0-1.283,0-1.791-0.299c-0.179-0.209-1.045-1.044-1.224-1.253c-0.119-0.12-0.597-0.508-0.716-0.567
			c-0.388-0.329-0.567-0.776-0.835-1.164c-0.12-0.209-0.776-0.896-0.985-0.985c-0.12-0.119-0.507-0.388-0.567-0.507
			c-0.119,0-0.388-0.508-0.507-0.508c-0.089-0.06-0.478-0.388-0.597-0.447c-0.06-0.12-1.284-1.104-1.343-1.104h-0.119
			c0,0.119-0.209,0.388-0.209,0.508c-0.06,0.268-0.776,1.671-0.955,1.939c-0.209,0.119-0.09,0.328-0.209,0.389
			c-0.567,1.104-1.94,1.671-3.104,1.671c-0.448,0-1.433-0.179-1.821-0.507c-0.179-0.061-0.567-0.777-0.567-0.955
			c0.657,0,1.433,0,2.119-0.209c1.253-0.389,2.716-1.344,3.373-2.508c0.209-0.328,0.507-0.984,0.507-0.984v-0.119l-0.567-0.389
			c-0.508-0.269-1.104-0.656-1.671-0.836c-0.09,0-0.478-0.209-0.597-0.209c-0.179-0.119-0.776-0.179-0.776-0.507
			c-0.06,0.119-0.388,0.119-0.448,0.119c-0.388,0-0.896,0-1.164-0.239V11.76c0-0.776,1.224-0.776,1.821-0.776
			c1.283,0,2.328,0.776,3.402,1.283l0.269,0.089c0.12,0,0.388,0.18,0.507,0.299l0.09-0.119c0.388-0.775,0.895-1.552,1.283-2.328
			l0.119-0.119l0.269-0.447l0.119-0.12c0.06-0.208,0.388-0.656,0.388-0.656l-0.12-0.12h-1.164c0,0-0.208-0.089-0.208-0.209V8.268
			c0.119-0.119,0.507-0.508,0.597-0.567c0.119-0.12,0.298-0.239,0.298-0.239c0.09,0,0.597,0.119,0.657,0.119h1.671
			c0.478,0.12,0.776,0.688,0.776,1.075c0,0.089-0.119,0.269-0.179,0.388l-0.329,0.09c-0.657,0.299-1.164,0.775-1.612,1.343
			l-0.716,0.717l-0.388,0.656c-0.179,0.418-0.567,1.015-0.567,1.462c0,0.389,0.896,0.777,1.164,0.985
			c0.298,0.179,1.343,0.896,1.462,0.955l0.269,0.329c0.388,0.388,0.985,0.566,1.493,0.835c0.567,0.329,1.044,0.836,1.612,1.104
			l0.328,0.119c0.269,0.061,0.448,0.389,0.835,0.447c0.836,0.329,1.791,0.598,2.657,0.777c0.119,0,0.507,0.119,0.567,0.119
			c0.119,0,0.597,0.209,0.597,0.388c0,0.388-0.478,0.776-0.656,0.985l-0.388,0.447L117.427,20.922z M101.399,8.148
			c0-0.688,0.448-0.568,0.836-0.955c0.716-0.598,1.164-1.373,1.164-2.27V4.745l-0.269-0.269l-0.12-0.328l-0.06-0.06
			c0-0.12-0.209-0.507-0.209-0.597V3.373c0-0.27,1.164-0.568,1.373-0.568c0.776,0,1.044,0.777,1.044,1.344
			c0,0.389-0.089,0.717-0.089,1.104c0,0.06,0.089,0.06,0.209,0.06c0.776,0,1.611-0.269,2.328-0.447
			c1.851-0.508,3.612-0.985,5.552-0.985c0.388,0,0.955,0.269,0.955,0.657v0.328l-1.343,0.775c-1.94,0-3.82,0-5.551,0.567
			l-0.388,0.089c-0.776,0.389-1.671,0.896-2.328,1.403c-0.776,0.448-1.492,1.433-2.447,1.433c-0.388,0-0.388-0.389-0.657-0.598
			V8.148z"/>
	</g>
	<g>
		<g>
			<path d="M130.365,9.398c0-0.461,0.323-0.99,0.821-1.289c0.099,0,0.423-0.207,0.473-0.207c0.274-0.161,0.423-0.391,0.647-0.529
				c0,0,0.274-0.161,0.324-0.23l0.274-0.139c0.149-0.161,0.473-0.483,0.473-0.483V6.475c-0.572-0.092-1.07-0.299-1.618-0.46
				c-0.473-0.092-1.294-0.138-1.294-0.691c0-0.207,0-0.299,0.075-0.506l0.647-0.599l0.149-0.092c0.647-0.529,1.07-1.035,1.618-1.634
				c0.099-0.092,0.099-0.092,0.274-0.092c0.373,0,0.871,0.092,0.871,0.598c0,0.392-0.498,0.529-0.821,0.737
				c-0.05,0.093-0.473,0.483-0.547,0.553l-0.423,0.299c0,0-0.149,0.139-0.149,0.23v0.069c0,0,0.323,0.139,0.423,0.139
				c0.473,0.161,1.344,0.299,1.841,0.598l0.149-0.046c0.597-0.391,1.07-0.898,1.394-1.45c0-0.392-0.747-0.898-0.747-1.128
				c0.099,0,0.423-0.161,0.498-0.161h0.1c0.647,0.093,1.394,0.254,1.941,0.599c0.149,0.161,0.149,0.553,0.149,0.691V4.38
				c0,0-0.224,0.299-0.324,0.346c-0.224,0.253-0.647,0.46-0.971,0.69l-0.149,0.161c-1.244,0.944-2.588,1.865-3.832,2.832
				c-0.05,0.092-0.324,0.23-0.324,0.299v0.092c0.498,0.138,0.822,0.138,1.394,0.138h0.647c0.224-0.138,0.647-0.299,0.97-0.368
				c0.324-0.069,0.822,0,0.822-0.368c0-0.69-0.747-0.759-0.747-0.99c0-0.138,0.149-0.207,0.323-0.299h0.996
				c0.323,0,0.398,0.23,0.647,0.391c0.323,0.208,0.821,0.369,0.821,0.806c0,0.3-0.423,0.46-0.597,0.599
				c-0.548,0.391-1.02,0.782-1.717,0.99c-0.05,0-0.373,0.138-0.473,0.138c-0.548,0.161-1.145,0.392-1.692,0.392h-0.249
				c-0.075,0-0.971-0.092-1.045-0.092c-0.324,0-1.867-0.046-2.041-0.438V9.398z M138.834,7.954c0-0.069,0.224-0.507,0.323-0.599
				c0.075-0.138,0.324-0.138,0.498-0.207c0.473-0.185,1.294-0.621,1.618-0.99l-0.099-0.093c-0.075,0-0.498-0.138-0.548-0.138
				c-0.498-0.161-0.971-0.161-1.394-0.368c-0.398-0.23-0.398-0.691-0.398-1.035V4.041c0.174-0.207,0.398-0.207,0.647-0.368
				c0.647-0.392,1.294-0.828,1.841-1.335c0,0,0.174-0.253,0.274-0.299c0.099-0.092,0.249-0.392,0.323-0.392
				c0.324,0,1.12,0.3,1.12,0.691v0.046c-0.373,0.461-0.796,0.76-1.344,0.99l-0.373,0.069c-0.149,0.093-0.149,0.3-0.323,0.392
				L140.85,3.88c-0.074,0.092-0.398,0.392-0.498,0.46c0,0.483,1.668,0.691,1.717,0.829h0.647l1.394-1.289
				c0.075-0.046,0.324-0.345,0.398-0.438V3.374c0-0.392-0.721-0.392-0.721-0.829c0-0.069,0.174-0.161,0.224-0.161h0.423
				c0.075,0,0.647-0.046,0.722-0.046h0.149c0.423,0,0.971,0.438,0.971,0.806c0,0.23-0.05,0.438-0.224,0.599l-0.249,0.138
				c-0.971,0.852-1.941,1.68-2.986,2.44c-0.647,0.437-1.493,0.898-2.041,1.496c0.398,0.23,1.294,0.3,1.717,0.3h0.498
				c0,0,0.323-0.069,0.373-0.069c0.1,0,0.498-0.161,0.598-0.161c0.05,0,0.473-0.23,0.547-0.23c0.149-0.069,0.747-0.207,0.747-0.368
				c0-0.92-0.647-0.667-1.07-1.22l0.149-0.138c0.1-0.069,0.423-0.207,0.498-0.207l0.249,0.046c0.548,0.161,1.618,0.392,1.941,0.852
				v0.667c0,0-0.324,0.368-0.473,0.46l-0.921,0.668c-0.324,0.299-0.697,0.598-1.12,0.667c0,0-0.398,0.069-0.547,0.069
				c-0.174,0-0.174-0.069-0.324,0.092h-1.244l-0.224-0.092h-0.746c-0.647,0-1.219-0.207-1.767-0.368
				c-0.274-0.069-0.498,0-0.647-0.23c-0.174-0.207-0.174-0.207-0.174-0.437V7.954z"/>
		</g>
		<path d="M145.268,10.882c-0.245-0.062-0.354,0-0.544-0.124h-1.806c-0.353,0-1.767,0.124-2.12,0.124
			c-0.435,0.143-0.952,0.143-1.523,0.267c-0.19,0.061-0.19,0.329-0.19,0.411c0,0.596,0.353,0.329,0.544,0.658l0.109,0.329
			c0.163,0.411,0.163,0.884,0.272,1.275c0,0.617-0.109,1.152-0.109,1.749c0,0.349,0,0.617,0.109,0.966v3.8
			c-0.109,0.412-0.163,0.802-0.163,1.214v0.123c0,0.144,0.163,0.617,0.245,0.679c0,0.082,0.109,0.082,0.163,0.082
			c0.19,0,0.299-0.082,0.354-0.144c0.462-0.206,0.897-0.391,0.897-0.884v-0.185c0-0.35-0.082-1.275-0.082-1.337
			c0-0.082-0.109-0.288-0.109-0.349v-2.422c0-0.041,0.109-0.185,0.109-0.267c0-0.041,0.082-0.309,0.082-0.391
			c0,0,0.272-0.144,0.353-0.144c0.517-0.185,1.169-0.308,1.686-0.535c1.251-0.534,2.893-2.612,2.893-3.825
			C146.437,11.417,145.893,11.088,145.268,10.882z M144.687,12.837c0,0-0.391,0.564-0.5,0.688c-0.408,0.678-0.29,1.184-1.16,1.451
			c-0.109,0-0.707,0.185-0.816,0.185c-0.081,0-0.245,0.144-0.354,0.144l-0.081,0.083c-0.109,0-0.272,0.123-0.272,0.123h-0.082
			l-0.109-0.206c0-0.267-0.054-1.604-0.054-1.872c0-0.061-0.109-0.884-0.109-0.946c0-0.061,0.109-0.473,0.109-0.534
			c0.245-0.268,0.761-0.062,1.115-0.268h1.398l0.788,0.144c0.163,0,0.272,0.268,0.272,0.391
			C144.833,12.486,144.877,12.631,144.687,12.837z"/>
		<path d="M136.686,11.123c-0.152,0.316,0.047,0.515,0.047,0.54c0,0.082,0.081,0.35,0.081,0.411v0.556l-0.081,0.185
			c0,0.082-0.109,0.802-0.109,0.884c-0.055,0.719-1.169,0.658-1.876,0.843c-0.598,0.144-1.305,0.349-1.93,0.493h-0.081
			c-0.109,0-0.109-0.061-0.109-0.144V14.81l0.109-0.185c0-0.082,0.19-0.391,0.19-0.473c0.163-0.411,0.245-0.72,0.353-1.131v-0.082
			l-0.109-0.308c-0.082-0.35-0.082-0.761-0.435-1.029c-0.163-0.061-0.87-0.205-1.06-0.205h-0.163c-0.462,0-0.816,0.411-0.816,0.74
			c0,0.062-0.081,0.226,0.109,0.267c0.245,0.083,0.353,0.083,0.516,0.227l0.19,0.185c0.054,0.082,0.163,0.267,0.163,0.267v1.275
			c0,0-0.109,0.185-0.163,0.267c-0.109,0.062-0.462,0.35-0.544,0.411c-0.272,0.206-1.767,0.741-1.767,1.008v0.062
			c0,0.123,0.081,0.658,0.081,0.802c0.109,0.124,0.163,0.124,0.272,0.124c0.707,0,1.305-0.309,1.957-0.452l0.354-0.083
			c0.054,0,0.761-0.308,0.87-0.308c0.897-0.35,1.604-0.535,2.474-0.884c0.354-0.144,0.816-0.535,1.251-0.535v0.391
			c0,0.267-0.19,0.493-0.245,0.761c-0.462,1.069-0.924,1.995-2.066,2.756c-0.272,0.185-0.625,0.267-0.87,0.391
			c0,0-0.299,0.144-0.353,0.144c-1.006,0.308-1.958,0.534-2.936,0.658c-0.598,0.061-1.359,0.143-1.958,0.185v0.164
			c0,0.267,0.081,0.864,0.354,0.987c0.353,0.267,0.652,0.35,1.169,0.35c1.604,0,3.072-0.658,4.132-1.502
			c0.109-0.042,1.06-0.72,1.169-0.802c0.353-0.185,0.788-0.535,1.06-0.843c0.299-0.35,0.462-0.679,0.652-1.029
			c0.87-1.728,1.06-3.496,1.224-5.368c0-0.083,0.081-0.35,0.081-0.473c0-0.028,0.004-0.234-0.012-0.36
			C137.803,10.703,136.907,10.664,136.686,11.123z"/>
		<g>
			<path d="M129.128,5.413c-0.921,0.227-2.277,0.159-3.389,0.265c-0.079,0-1.032,0.079-1.112,0.079
				c-0.424,0.107-0.953,0.265-1.297,0.45l-0.265,0.053v0.291c0.106,0.503,0.265,0.847,0.344,1.376c0.106,0,0.265,0.107,0.344,0.107
				c0.609,0,1.138-0.185,1.642-0.185h0.529c0.238,0,1.377-0.106,1.615-0.106c0.344,0,0.609,0.344,0.609,0.688
				c0,0.45-0.159,0.636-0.265,0.98c-0.08,0.397-0.159,0.767-0.159,1.297v6.408c0.079,0.159,0.079,0.502,0.079,0.688V18.2
				c0,0.185-0.609,0.979-0.688,0.979h-0.079c-0.08-0.106-0.609-0.635-0.689-0.688c0,0-0.185-0.529-0.185-0.689v-0.185
				c0-0.264,0.185-0.609,0.265-0.847c0-0.106,0.079-0.344,0.079-0.344v-1.085c0-0.053-0.159-0.053-0.238-0.053
				c-0.344,0-1.138,0.344-1.483,0.502c-0.079,0-0.768,0.45-0.847,0.45l-0.344,0.08c-0.767,0.264-1.721,0.688-2.409,1.138h-0.106
				c-0.238,0-0.529-0.185-0.688-0.344v-0.636c0-0.238,0-0.609,0.106-0.953c0.159-0.08,0.741-0.689,0.847-0.874
				c0.079-0.053,0.344-0.688,0.45-0.847c0.079-0.185,0.238-1.138,0.238-1.297V9.914c0-0.159-0.079-1.192-0.079-1.377
				c0-0.609,0-1.482-0.53-1.933l-0.344-0.238L121,6.26V5.916c0-0.159,0-0.238,0.079-0.398c0.159-0.185,0.344-0.45,0.609-0.529
				c0.106,0,0.265-0.106,0.344-0.106c0.106,0,0.688-0.053,0.794-0.053l0.159-0.107c0.079,0,0.609-0.079,0.688-0.079
				c0.265,0,4.458-0.854,5.235-0.78c0.776,0.074,1.257,0.074,1.294,0.517C130.239,4.826,130.049,5.186,129.128,5.413z
				 M123.065,14.414c0,0.08,0.265,0.238,0.344,0.345h0.106c0.344,0,0.583-0.107,0.847-0.159l0.344-0.185l0.344,0.08
				c0.08,0,0.53-0.238,0.609-0.238c0.265-0.106,0.847,0,0.953-0.45c0-0.185,0.079-0.953,0.079-1.033c0-0.106-0.079-0.45-0.079-0.529
				h-0.609c-0.874,0-1.721,0.185-2.489,0.424c-0.106,0-0.185,0.106-0.265,0.185c0,0.424-0.185,0.874-0.185,1.298V14.414z
				 M123.33,11.476c1.033-0.08,2.409-0.609,3.362-1.112c0.079,0,0.265-0.556,0.265-0.609c0-0.291,0-0.873-0.344-0.873h-0.185
				l-0.265,0.079h-0.688c-0.079,0-0.767,0.159-0.847,0.159c-0.079,0-0.424,0.106-0.529,0.106c-0.159,0-0.688,0.08-0.768,0.238
				c0,0-0.079,0.185-0.079,0.291v0.609C123.251,10.787,123.251,11.132,123.33,11.476z"/>
		</g>
	</g>
</g>
</svg>
